<svg width="358" height="136" viewBox="0 0 358 136" fill="none" xmlns="http://www.w3.org/2000/svg">
<g filter="url(#filter0_d_3853_2)">
<rect x="3" y="3" width="350" height="128" rx="20" fill="#D2FFD0"/>
</g>
<path fill-rule="evenodd" clip-rule="evenodd" d="M23 3.00003C11.9543 3.00003 3 11.9543 3 23V111C3 122.046 11.9543 131 23 131V3.00003Z" fill="#AFAFAF" fill-opacity="0.3"/>
<path d="M46.627 30.7812V45H43.707V30.7812H46.627ZM51.002 30.7812V33.0762H39.4004V30.7812H51.002ZM56.7148 42.6172V37.9102C56.7148 37.5716 56.6595 37.2819 56.5488 37.041C56.4382 36.7936 56.2656 36.6016 56.0312 36.4648C55.8034 36.3281 55.5072 36.2598 55.1426 36.2598C54.8301 36.2598 54.5599 36.3151 54.332 36.4258C54.1042 36.5299 53.9284 36.6829 53.8047 36.8848C53.681 37.0801 53.6191 37.3112 53.6191 37.5781H50.8066C50.8066 37.1289 50.9108 36.7025 51.1191 36.2988C51.3275 35.8952 51.6302 35.5404 52.0273 35.2344C52.4245 34.9219 52.8965 34.6777 53.4434 34.502C53.9967 34.3262 54.6152 34.2383 55.2988 34.2383C56.1191 34.2383 56.8483 34.375 57.4863 34.6484C58.1243 34.9219 58.6257 35.332 58.9902 35.8789C59.3613 36.4258 59.5469 37.1094 59.5469 37.9297V42.4512C59.5469 43.0306 59.5827 43.5059 59.6543 43.877C59.7259 44.2415 59.8301 44.5605 59.9668 44.834V45H57.125C56.9883 44.7135 56.8841 44.3555 56.8125 43.9258C56.7474 43.4896 56.7148 43.0534 56.7148 42.6172ZM57.0859 38.5645L57.1055 40.1562H55.5332C55.1621 40.1562 54.8398 40.1986 54.5664 40.2832C54.293 40.3678 54.0684 40.4883 53.8926 40.6445C53.7168 40.7943 53.5866 40.9701 53.502 41.1719C53.4238 41.3737 53.3848 41.5951 53.3848 41.8359C53.3848 42.0768 53.4401 42.2949 53.5508 42.4902C53.6615 42.679 53.821 42.8288 54.0293 42.9395C54.2376 43.0436 54.4818 43.0957 54.7617 43.0957C55.1849 43.0957 55.5527 43.0111 55.8652 42.8418C56.1777 42.6725 56.4186 42.4642 56.5879 42.2168C56.7637 41.9694 56.8548 41.735 56.8613 41.5137L57.6035 42.7051C57.4993 42.972 57.3561 43.2487 57.1738 43.5352C56.998 43.8216 56.7734 44.0918 56.5 44.3457C56.2266 44.5931 55.8978 44.7982 55.5137 44.9609C55.1296 45.1172 54.6738 45.1953 54.1465 45.1953C53.4759 45.1953 52.8672 45.0618 52.3203 44.7949C51.7799 44.5215 51.3503 44.1471 51.0312 43.6719C50.7188 43.1901 50.5625 42.6432 50.5625 42.0312C50.5625 41.4779 50.6667 40.9863 50.875 40.5566C51.0833 40.127 51.3893 39.7656 51.793 39.4727C52.2031 39.1732 52.7142 38.9486 53.3262 38.7988C53.9382 38.6426 54.6478 38.5645 55.4551 38.5645H57.0859ZM64.5273 29.9902V45H61.7148V29.9902H64.5273ZM71.1875 34.4336L66.5977 39.668L64.1367 42.1582L63.1113 40.127L65.0645 37.6465L67.8086 34.4336H71.1875ZM68.2676 45L65.1426 40.1172L67.0859 38.418L71.5098 45H68.2676ZM77.0664 45.1953C76.2461 45.1953 75.5104 45.0651 74.8594 44.8047C74.2083 44.5378 73.6549 44.1699 73.1992 43.7012C72.75 43.2324 72.4049 42.6888 72.1641 42.0703C71.9232 41.4453 71.8027 40.7812 71.8027 40.0781V39.6875C71.8027 38.8867 71.9167 38.1543 72.1445 37.4902C72.3724 36.8262 72.6979 36.25 73.1211 35.7617C73.5508 35.2734 74.0716 34.8991 74.6836 34.6387C75.2956 34.3717 75.9857 34.2383 76.7539 34.2383C77.5026 34.2383 78.1667 34.362 78.7461 34.6094C79.3255 34.8568 79.8105 35.2083 80.2012 35.6641C80.5983 36.1198 80.8978 36.6667 81.0996 37.3047C81.3014 37.9362 81.4023 38.6393 81.4023 39.4141V40.5859H73.0039V38.7109H78.6387V38.4961C78.6387 38.1055 78.5671 37.7572 78.4238 37.4512C78.2871 37.1387 78.0788 36.8913 77.7988 36.709C77.5189 36.5267 77.1608 36.4355 76.7246 36.4355C76.3535 36.4355 76.0345 36.5169 75.7676 36.6797C75.5007 36.8424 75.2826 37.0703 75.1133 37.3633C74.9505 37.6562 74.8268 38.0013 74.7422 38.3984C74.6641 38.7891 74.625 39.2188 74.625 39.6875V40.0781C74.625 40.5013 74.6836 40.8919 74.8008 41.25C74.9245 41.6081 75.097 41.9173 75.3184 42.1777C75.5462 42.4382 75.8197 42.64 76.1387 42.7832C76.4642 42.9264 76.832 42.998 77.2422 42.998C77.75 42.998 78.222 42.9004 78.6582 42.7051C79.1009 42.5033 79.4818 42.2005 79.8008 41.7969L81.168 43.2812C80.9466 43.6003 80.6439 43.9062 80.2598 44.1992C79.8822 44.4922 79.4264 44.7331 78.8926 44.9219C78.3587 45.1042 77.75 45.1953 77.0664 45.1953ZM90.7383 36.6895V45H87.9258V34.4336H90.5625L90.7383 36.6895ZM90.3281 39.3457H89.5664C89.5664 38.5645 89.6673 37.8613 89.8691 37.2363C90.071 36.6048 90.3542 36.0677 90.7188 35.625C91.0833 35.1758 91.5163 34.834 92.0176 34.5996C92.5254 34.3587 93.0918 34.2383 93.7168 34.2383C94.2116 34.2383 94.6641 34.3099 95.0742 34.4531C95.4844 34.5964 95.8359 34.8242 96.1289 35.1367C96.4284 35.4492 96.6562 35.8626 96.8125 36.377C96.9753 36.8913 97.0566 37.5195 97.0566 38.2617V45H94.2246V38.252C94.2246 37.7832 94.1595 37.4186 94.0293 37.1582C93.8991 36.8978 93.707 36.7155 93.4531 36.6113C93.2057 36.5007 92.8997 36.4453 92.5352 36.4453C92.1576 36.4453 91.8288 36.5202 91.5488 36.6699C91.2754 36.8197 91.0475 37.028 90.8652 37.2949C90.6895 37.5553 90.556 37.8613 90.4648 38.2129C90.3737 38.5645 90.3281 38.9421 90.3281 39.3457ZM98.7461 39.8242V39.6191C98.7461 38.8444 98.8568 38.1315 99.0781 37.4805C99.2995 36.8229 99.6217 36.2533 100.045 35.7715C100.468 35.2897 100.989 34.9154 101.607 34.6484C102.226 34.375 102.936 34.2383 103.736 34.2383C104.537 34.2383 105.25 34.375 105.875 34.6484C106.5 34.9154 107.024 35.2897 107.447 35.7715C107.877 36.2533 108.202 36.8229 108.424 37.4805C108.645 38.1315 108.756 38.8444 108.756 39.6191V39.8242C108.756 40.5924 108.645 41.3053 108.424 41.9629C108.202 42.6139 107.877 43.1836 107.447 43.6719C107.024 44.1536 106.503 44.528 105.885 44.7949C105.266 45.0618 104.557 45.1953 103.756 45.1953C102.955 45.1953 102.242 45.0618 101.617 44.7949C100.999 44.528 100.475 44.1536 100.045 43.6719C99.6217 43.1836 99.2995 42.6139 99.0781 41.9629C98.8568 41.3053 98.7461 40.5924 98.7461 39.8242ZM101.559 39.6191V39.8242C101.559 40.2669 101.598 40.6803 101.676 41.0645C101.754 41.4486 101.878 41.7871 102.047 42.0801C102.223 42.3665 102.451 42.5911 102.73 42.7539C103.01 42.9167 103.352 42.998 103.756 42.998C104.146 42.998 104.482 42.9167 104.762 42.7539C105.042 42.5911 105.266 42.3665 105.436 42.0801C105.605 41.7871 105.729 41.4486 105.807 41.0645C105.891 40.6803 105.934 40.2669 105.934 39.8242V39.6191C105.934 39.1895 105.891 38.7858 105.807 38.4082C105.729 38.0241 105.602 37.6855 105.426 37.3926C105.257 37.0931 105.032 36.8587 104.752 36.6895C104.472 36.5202 104.133 36.4355 103.736 36.4355C103.339 36.4355 103.001 36.5202 102.721 36.6895C102.447 36.8587 102.223 37.0931 102.047 37.3926C101.878 37.6855 101.754 38.0241 101.676 38.4082C101.598 38.7858 101.559 39.1895 101.559 39.6191ZM115.66 34.4336V36.4258H109.508V34.4336H115.66ZM111.031 31.8262H113.844V41.8164C113.844 42.1224 113.883 42.3568 113.961 42.5195C114.046 42.6823 114.169 42.7962 114.332 42.8613C114.495 42.9199 114.7 42.9492 114.947 42.9492C115.123 42.9492 115.279 42.9427 115.416 42.9297C115.559 42.9102 115.68 42.8906 115.777 42.8711L115.787 44.9414C115.546 45.0195 115.286 45.0814 115.006 45.127C114.726 45.1725 114.417 45.1953 114.078 45.1953C113.46 45.1953 112.919 45.0944 112.457 44.8926C112.001 44.6842 111.65 44.3522 111.402 43.8965C111.155 43.4408 111.031 42.8418 111.031 42.0996V31.8262ZM122.125 45.1953C121.305 45.1953 120.569 45.0651 119.918 44.8047C119.267 44.5378 118.714 44.1699 118.258 43.7012C117.809 43.2324 117.464 42.6888 117.223 42.0703C116.982 41.4453 116.861 40.7812 116.861 40.0781V39.6875C116.861 38.8867 116.975 38.1543 117.203 37.4902C117.431 36.8262 117.757 36.25 118.18 35.7617C118.609 35.2734 119.13 34.8991 119.742 34.6387C120.354 34.3717 121.044 34.2383 121.812 34.2383C122.561 34.2383 123.225 34.362 123.805 34.6094C124.384 34.8568 124.869 35.2083 125.26 35.6641C125.657 36.1198 125.956 36.6667 126.158 37.3047C126.36 37.9362 126.461 38.6393 126.461 39.4141V40.5859H118.062V38.7109H123.697V38.4961C123.697 38.1055 123.626 37.7572 123.482 37.4512C123.346 37.1387 123.137 36.8913 122.857 36.709C122.577 36.5267 122.219 36.4355 121.783 36.4355C121.412 36.4355 121.093 36.5169 120.826 36.6797C120.559 36.8424 120.341 37.0703 120.172 37.3633C120.009 37.6562 119.885 38.0013 119.801 38.3984C119.723 38.7891 119.684 39.2188 119.684 39.6875V40.0781C119.684 40.5013 119.742 40.8919 119.859 41.25C119.983 41.6081 120.156 41.9173 120.377 42.1777C120.605 42.4382 120.878 42.64 121.197 42.7832C121.523 42.9264 121.891 42.998 122.301 42.998C122.809 42.998 123.281 42.9004 123.717 42.7051C124.16 42.5033 124.54 42.2005 124.859 41.7969L126.227 43.2812C126.005 43.6003 125.702 43.9062 125.318 44.1992C124.941 44.4922 124.485 44.7331 123.951 44.9219C123.417 45.1042 122.809 45.1953 122.125 45.1953ZM133.775 42.0801C133.775 41.8783 133.717 41.696 133.6 41.5332C133.482 41.3704 133.264 41.2207 132.945 41.084C132.633 40.9408 132.18 40.8105 131.588 40.6934C131.054 40.5762 130.556 40.4297 130.094 40.2539C129.638 40.0716 129.241 39.8535 128.902 39.5996C128.57 39.3457 128.31 39.0462 128.121 38.7012C127.932 38.3496 127.838 37.9492 127.838 37.5C127.838 37.0573 127.932 36.6406 128.121 36.25C128.316 35.8594 128.593 35.5143 128.951 35.2148C129.316 34.9089 129.758 34.6712 130.279 34.502C130.807 34.3262 131.399 34.2383 132.057 34.2383C132.975 34.2383 133.762 34.3848 134.42 34.6777C135.084 34.9707 135.592 35.3743 135.943 35.8887C136.301 36.3965 136.48 36.9759 136.48 37.627H133.668C133.668 37.3535 133.609 37.1094 133.492 36.8945C133.382 36.6732 133.206 36.5007 132.965 36.377C132.73 36.2467 132.424 36.1816 132.047 36.1816C131.734 36.1816 131.464 36.237 131.236 36.3477C131.008 36.4518 130.833 36.5951 130.709 36.7773C130.592 36.9531 130.533 37.1484 130.533 37.3633C130.533 37.526 130.566 37.6725 130.631 37.8027C130.702 37.9264 130.816 38.0404 130.973 38.1445C131.129 38.2487 131.331 38.3464 131.578 38.4375C131.832 38.5221 132.145 38.6003 132.516 38.6719C133.277 38.8281 133.958 39.0332 134.557 39.2871C135.156 39.5345 135.631 39.873 135.982 40.3027C136.334 40.7259 136.51 41.2826 136.51 41.9727C136.51 42.4414 136.406 42.8711 136.197 43.2617C135.989 43.6523 135.689 43.9941 135.299 44.2871C134.908 44.5736 134.439 44.7982 133.893 44.9609C133.352 45.1172 132.743 45.1953 132.066 45.1953C131.083 45.1953 130.25 45.0195 129.566 44.668C128.889 44.3164 128.375 43.8704 128.023 43.3301C127.678 42.7832 127.506 42.2233 127.506 41.6504H130.172C130.185 42.0345 130.283 42.3438 130.465 42.5781C130.654 42.8125 130.891 42.9818 131.178 43.0859C131.471 43.1901 131.786 43.2422 132.125 43.2422C132.49 43.2422 132.792 43.1934 133.033 43.0957C133.274 42.9915 133.456 42.8548 133.58 42.6855C133.71 42.5098 133.775 42.3079 133.775 42.0801ZM149.02 42.6172V37.9102C149.02 37.5716 148.964 37.2819 148.854 37.041C148.743 36.7936 148.57 36.6016 148.336 36.4648C148.108 36.3281 147.812 36.2598 147.447 36.2598C147.135 36.2598 146.865 36.3151 146.637 36.4258C146.409 36.5299 146.233 36.6829 146.109 36.8848C145.986 37.0801 145.924 37.3112 145.924 37.5781H143.111C143.111 37.1289 143.215 36.7025 143.424 36.2988C143.632 35.8952 143.935 35.5404 144.332 35.2344C144.729 34.9219 145.201 34.6777 145.748 34.502C146.301 34.3262 146.92 34.2383 147.604 34.2383C148.424 34.2383 149.153 34.375 149.791 34.6484C150.429 34.9219 150.93 35.332 151.295 35.8789C151.666 36.4258 151.852 37.1094 151.852 37.9297V42.4512C151.852 43.0306 151.887 43.5059 151.959 43.877C152.031 44.2415 152.135 44.5605 152.271 44.834V45H149.43C149.293 44.7135 149.189 44.3555 149.117 43.9258C149.052 43.4896 149.02 43.0534 149.02 42.6172ZM149.391 38.5645L149.41 40.1562H147.838C147.467 40.1562 147.145 40.1986 146.871 40.2832C146.598 40.3678 146.373 40.4883 146.197 40.6445C146.021 40.7943 145.891 40.9701 145.807 41.1719C145.729 41.3737 145.689 41.5951 145.689 41.8359C145.689 42.0768 145.745 42.2949 145.855 42.4902C145.966 42.679 146.126 42.8288 146.334 42.9395C146.542 43.0436 146.786 43.0957 147.066 43.0957C147.49 43.0957 147.857 43.0111 148.17 42.8418C148.482 42.6725 148.723 42.4642 148.893 42.2168C149.068 41.9694 149.16 41.735 149.166 41.5137L149.908 42.7051C149.804 42.972 149.661 43.2487 149.479 43.5352C149.303 43.8216 149.078 44.0918 148.805 44.3457C148.531 44.5931 148.202 44.7982 147.818 44.9609C147.434 45.1172 146.979 45.1953 146.451 45.1953C145.781 45.1953 145.172 45.0618 144.625 44.7949C144.085 44.5215 143.655 44.1471 143.336 43.6719C143.023 43.1901 142.867 42.6432 142.867 42.0312C142.867 41.4779 142.971 40.9863 143.18 40.5566C143.388 40.127 143.694 39.7656 144.098 39.4727C144.508 39.1732 145.019 38.9486 145.631 38.7988C146.243 38.6426 146.952 38.5645 147.76 38.5645H149.391ZM154.02 30H156.832V42.5781L156.549 45H154.02V30ZM163.521 39.6094V39.8145C163.521 40.6022 163.437 41.3249 163.268 41.9824C163.105 42.64 162.851 43.2096 162.506 43.6914C162.161 44.1667 161.731 44.5378 161.217 44.8047C160.709 45.0651 160.11 45.1953 159.42 45.1953C158.775 45.1953 158.215 45.0651 157.74 44.8047C157.271 44.5443 156.878 44.1764 156.559 43.7012C156.24 43.2259 155.982 42.6693 155.787 42.0312C155.592 41.3932 155.445 40.6966 155.348 39.9414V39.4922C155.445 38.737 155.592 38.0404 155.787 37.4023C155.982 36.7643 156.24 36.2077 156.559 35.7324C156.878 35.2572 157.271 34.8893 157.74 34.6289C158.209 34.3685 158.762 34.2383 159.4 34.2383C160.097 34.2383 160.702 34.3717 161.217 34.6387C161.738 34.8991 162.167 35.2702 162.506 35.752C162.851 36.2272 163.105 36.7936 163.268 37.4512C163.437 38.1022 163.521 38.8216 163.521 39.6094ZM160.709 39.8145V39.6094C160.709 39.1797 160.676 38.776 160.611 38.3984C160.553 38.0143 160.449 37.679 160.299 37.3926C160.149 37.0996 159.944 36.8685 159.684 36.6992C159.43 36.5299 159.101 36.4453 158.697 36.4453C158.313 36.4453 157.988 36.5104 157.721 36.6406C157.454 36.7708 157.232 36.9531 157.057 37.1875C156.887 37.4219 156.76 37.7018 156.676 38.0273C156.591 38.3464 156.539 38.6979 156.52 39.082V40.3613C156.539 40.8757 156.624 41.3314 156.773 41.7285C156.93 42.1191 157.164 42.4284 157.477 42.6562C157.796 42.8776 158.209 42.9883 158.717 42.9883C159.114 42.9883 159.443 42.9102 159.703 42.7539C159.964 42.5977 160.165 42.3763 160.309 42.0898C160.458 41.8034 160.562 41.4681 160.621 41.084C160.68 40.6934 160.709 40.2702 160.709 39.8145ZM164.82 39.8242V39.6191C164.82 38.8444 164.931 38.1315 165.152 37.4805C165.374 36.8229 165.696 36.2533 166.119 35.7715C166.542 35.2897 167.063 34.9154 167.682 34.6484C168.3 34.375 169.01 34.2383 169.811 34.2383C170.611 34.2383 171.324 34.375 171.949 34.6484C172.574 34.9154 173.098 35.2897 173.521 35.7715C173.951 36.2533 174.277 36.8229 174.498 37.4805C174.719 38.1315 174.83 38.8444 174.83 39.6191V39.8242C174.83 40.5924 174.719 41.3053 174.498 41.9629C174.277 42.6139 173.951 43.1836 173.521 43.6719C173.098 44.1536 172.577 44.528 171.959 44.7949C171.34 45.0618 170.631 45.1953 169.83 45.1953C169.029 45.1953 168.316 45.0618 167.691 44.7949C167.073 44.528 166.549 44.1536 166.119 43.6719C165.696 43.1836 165.374 42.6139 165.152 41.9629C164.931 41.3053 164.82 40.5924 164.82 39.8242ZM167.633 39.6191V39.8242C167.633 40.2669 167.672 40.6803 167.75 41.0645C167.828 41.4486 167.952 41.7871 168.121 42.0801C168.297 42.3665 168.525 42.5911 168.805 42.7539C169.085 42.9167 169.426 42.998 169.83 42.998C170.221 42.998 170.556 42.9167 170.836 42.7539C171.116 42.5911 171.34 42.3665 171.51 42.0801C171.679 41.7871 171.803 41.4486 171.881 41.0645C171.965 40.6803 172.008 40.2669 172.008 39.8242V39.6191C172.008 39.1895 171.965 38.7858 171.881 38.4082C171.803 38.0241 171.676 37.6855 171.5 37.3926C171.331 37.0931 171.106 36.8587 170.826 36.6895C170.546 36.5202 170.208 36.4355 169.811 36.4355C169.413 36.4355 169.075 36.5202 168.795 36.6895C168.521 36.8587 168.297 37.0931 168.121 37.3926C167.952 37.6855 167.828 38.0241 167.75 38.4082C167.672 38.7858 167.633 39.1895 167.633 39.6191ZM182.809 42.4707V34.4336H185.621V45H182.975L182.809 42.4707ZM183.121 40.3027L183.951 40.2832C183.951 40.9863 183.87 41.6406 183.707 42.2461C183.544 42.8451 183.3 43.3659 182.975 43.8086C182.649 44.2448 182.239 44.5866 181.744 44.834C181.249 45.0749 180.667 45.1953 179.996 45.1953C179.482 45.1953 179.007 45.1237 178.57 44.9805C178.141 44.8307 177.77 44.5996 177.457 44.2871C177.151 43.9681 176.91 43.5612 176.734 43.0664C176.565 42.5651 176.48 41.9629 176.48 41.2598V34.4336H179.293V41.2793C179.293 41.5918 179.329 41.8555 179.4 42.0703C179.479 42.2852 179.586 42.4609 179.723 42.5977C179.859 42.7344 180.019 42.832 180.201 42.8906C180.39 42.9492 180.598 42.9785 180.826 42.9785C181.406 42.9785 181.861 42.8613 182.193 42.627C182.532 42.3926 182.77 42.0736 182.906 41.6699C183.049 41.2598 183.121 40.804 183.121 40.3027ZM192.945 34.4336V36.4258H186.793V34.4336H192.945ZM188.316 31.8262H191.129V41.8164C191.129 42.1224 191.168 42.3568 191.246 42.5195C191.331 42.6823 191.454 42.7962 191.617 42.8613C191.78 42.9199 191.985 42.9492 192.232 42.9492C192.408 42.9492 192.564 42.9427 192.701 42.9297C192.844 42.9102 192.965 42.8906 193.062 42.8711L193.072 44.9414C192.831 45.0195 192.571 45.0814 192.291 45.127C192.011 45.1725 191.702 45.1953 191.363 45.1953C190.745 45.1953 190.204 45.0944 189.742 44.8926C189.286 44.6842 188.935 44.3522 188.688 43.8965C188.44 43.4408 188.316 42.8418 188.316 42.0996V31.8262ZM202.545 42.2656L204.742 34.4336H206.529L205.953 37.5098L203.756 45H202.262L202.545 42.2656ZM201.432 34.4336L203.004 42.2559L203.15 45H201.393L198.717 34.4336H201.432ZM208.541 42.1289L210.074 34.4336H212.799L210.123 45H208.375L208.541 42.1289ZM206.773 34.4336L208.961 42.207L209.264 45H207.76L205.562 37.5195L205.006 34.4336H206.773ZM213.766 39.8242V39.6191C213.766 38.8444 213.876 38.1315 214.098 37.4805C214.319 36.8229 214.641 36.2533 215.064 35.7715C215.488 35.2897 216.008 34.9154 216.627 34.6484C217.245 34.375 217.955 34.2383 218.756 34.2383C219.557 34.2383 220.27 34.375 220.895 34.6484C221.52 34.9154 222.044 35.2897 222.467 35.7715C222.896 36.2533 223.222 36.8229 223.443 37.4805C223.665 38.1315 223.775 38.8444 223.775 39.6191V39.8242C223.775 40.5924 223.665 41.3053 223.443 41.9629C223.222 42.6139 222.896 43.1836 222.467 43.6719C222.044 44.1536 221.523 44.528 220.904 44.7949C220.286 45.0618 219.576 45.1953 218.775 45.1953C217.975 45.1953 217.262 45.0618 216.637 44.7949C216.018 44.528 215.494 44.1536 215.064 43.6719C214.641 43.1836 214.319 42.6139 214.098 41.9629C213.876 41.3053 213.766 40.5924 213.766 39.8242ZM216.578 39.6191V39.8242C216.578 40.2669 216.617 40.6803 216.695 41.0645C216.773 41.4486 216.897 41.7871 217.066 42.0801C217.242 42.3665 217.47 42.5911 217.75 42.7539C218.03 42.9167 218.372 42.998 218.775 42.998C219.166 42.998 219.501 42.9167 219.781 42.7539C220.061 42.5911 220.286 42.3665 220.455 42.0801C220.624 41.7871 220.748 41.4486 220.826 41.0645C220.911 40.6803 220.953 40.2669 220.953 39.8242V39.6191C220.953 39.1895 220.911 38.7858 220.826 38.4082C220.748 38.0241 220.621 37.6855 220.445 37.3926C220.276 37.0931 220.051 36.8587 219.771 36.6895C219.492 36.5202 219.153 36.4355 218.756 36.4355C218.359 36.4355 218.02 36.5202 217.74 36.6895C217.467 36.8587 217.242 37.0931 217.066 37.3926C216.897 37.6855 216.773 38.0241 216.695 38.4082C216.617 38.7858 216.578 39.1895 216.578 39.6191ZM228.316 36.7383V45H225.504V34.4336H228.15L228.316 36.7383ZM231.5 34.3652L231.451 36.9727C231.314 36.9531 231.148 36.9368 230.953 36.9238C230.764 36.9043 230.592 36.8945 230.436 36.8945C230.038 36.8945 229.693 36.9466 229.4 37.0508C229.114 37.1484 228.873 37.2949 228.678 37.4902C228.489 37.6855 228.346 37.9232 228.248 38.2031C228.157 38.4831 228.105 38.8021 228.092 39.1602L227.525 38.9844C227.525 38.3008 227.594 37.6725 227.73 37.0996C227.867 36.5202 228.066 36.0156 228.326 35.5859C228.593 35.1562 228.919 34.8242 229.303 34.5898C229.687 34.3555 230.126 34.2383 230.621 34.2383C230.777 34.2383 230.937 34.2513 231.1 34.2773C231.262 34.2969 231.396 34.3262 231.5 34.3652ZM235.641 29.9902V45H232.828V29.9902H235.641ZM242.301 34.4336L237.711 39.668L235.25 42.1582L234.225 40.127L236.178 37.6465L238.922 34.4336H242.301ZM239.381 45L236.256 40.1172L238.199 38.418L242.623 45H239.381Z" fill="black"/>
<path d="M40.7422 61.625H41.7109L45.9141 71.6406L50.125 61.625H51.0859L46.2812 73H45.5469L40.7422 61.625ZM40.4453 61.625H41.2969L41.3984 68.0312V73H40.4453V61.625ZM50.5469 61.625H51.3984V73H50.4375V68.0312L50.5469 61.625ZM57.3359 73.1562C56.7839 73.1562 56.276 73.0547 55.8125 72.8516C55.3542 72.6484 54.9531 72.362 54.6094 71.9922C54.2708 71.6224 54.0078 71.1849 53.8203 70.6797C53.638 70.1693 53.5469 69.612 53.5469 69.0078V68.6719C53.5469 68.0208 53.6432 67.4323 53.8359 66.9062C54.0286 66.3802 54.2943 65.9297 54.6328 65.5547C54.9714 65.1797 55.3568 64.8932 55.7891 64.6953C56.2266 64.4922 56.6849 64.3906 57.1641 64.3906C57.7005 64.3906 58.1771 64.487 58.5938 64.6797C59.0104 64.8672 59.3594 65.1354 59.6406 65.4844C59.9271 65.8281 60.1432 66.237 60.2891 66.7109C60.4349 67.1797 60.5078 67.6979 60.5078 68.2656V68.8359H54.1094V68.0391H59.5781V67.9297C59.5677 67.4557 59.4714 67.013 59.2891 66.6016C59.112 66.1849 58.8464 65.8464 58.4922 65.5859C58.138 65.3255 57.6953 65.1953 57.1641 65.1953C56.7682 65.1953 56.4036 65.2786 56.0703 65.4453C55.7422 65.612 55.4583 65.8516 55.2188 66.1641C54.9844 66.4714 54.8021 66.8385 54.6719 67.2656C54.5469 67.6875 54.4844 68.1562 54.4844 68.6719V69.0078C54.4844 69.4766 54.5521 69.9141 54.6875 70.3203C54.8281 70.7214 55.026 71.0755 55.2812 71.3828C55.5417 71.6901 55.849 71.9297 56.2031 72.1016C56.5573 72.2734 56.9479 72.3594 57.375 72.3594C57.875 72.3594 58.3177 72.2682 58.7031 72.0859C59.0885 71.8984 59.4349 71.6042 59.7422 71.2031L60.3281 71.6562C60.1458 71.9271 59.9167 72.1771 59.6406 72.4062C59.3698 72.6354 59.0443 72.8177 58.6641 72.9531C58.2839 73.0885 57.8411 73.1562 57.3359 73.1562ZM65.6172 73.1562C65.0651 73.1562 64.5573 73.0547 64.0938 72.8516C63.6354 72.6484 63.2344 72.362 62.8906 71.9922C62.5521 71.6224 62.2891 71.1849 62.1016 70.6797C61.9193 70.1693 61.8281 69.612 61.8281 69.0078V68.6719C61.8281 68.0208 61.9245 67.4323 62.1172 66.9062C62.3099 66.3802 62.5755 65.9297 62.9141 65.5547C63.2526 65.1797 63.638 64.8932 64.0703 64.6953C64.5078 64.4922 64.9661 64.3906 65.4453 64.3906C65.9818 64.3906 66.4583 64.487 66.875 64.6797C67.2917 64.8672 67.6406 65.1354 67.9219 65.4844C68.2083 65.8281 68.4245 66.237 68.5703 66.7109C68.7161 67.1797 68.7891 67.6979 68.7891 68.2656V68.8359H62.3906V68.0391H67.8594V67.9297C67.849 67.4557 67.7526 67.013 67.5703 66.6016C67.3932 66.1849 67.1276 65.8464 66.7734 65.5859C66.4193 65.3255 65.9766 65.1953 65.4453 65.1953C65.0495 65.1953 64.6849 65.2786 64.3516 65.4453C64.0234 65.612 63.7396 65.8516 63.5 66.1641C63.2656 66.4714 63.0833 66.8385 62.9531 67.2656C62.8281 67.6875 62.7656 68.1562 62.7656 68.6719V69.0078C62.7656 69.4766 62.8333 69.9141 62.9688 70.3203C63.1094 70.7214 63.3073 71.0755 63.5625 71.3828C63.8229 71.6901 64.1302 71.9297 64.4844 72.1016C64.8385 72.2734 65.2292 72.3594 65.6562 72.3594C66.1562 72.3594 66.599 72.2682 66.9844 72.0859C67.3698 71.8984 67.7161 71.6042 68.0234 71.2031L68.6094 71.6562C68.4271 71.9271 68.1979 72.1771 67.9219 72.4062C67.651 72.6354 67.3255 72.8177 66.9453 72.9531C66.5651 73.0885 66.1224 73.1562 65.6172 73.1562ZM73.8281 64.5469V65.3125H69.5938V64.5469H73.8281ZM71.1484 62.375H72.0781V70.9453C72.0781 71.3359 72.1302 71.6302 72.2344 71.8281C72.3385 72.026 72.474 72.1589 72.6406 72.2266C72.8073 72.2943 72.987 72.3281 73.1797 72.3281C73.3203 72.3281 73.4557 72.3203 73.5859 72.3047C73.7161 72.2839 73.8333 72.263 73.9375 72.2422L73.9766 73.0312C73.862 73.0677 73.7135 73.0964 73.5312 73.1172C73.349 73.1432 73.1667 73.1562 72.9844 73.1562C72.625 73.1562 72.3073 73.0911 72.0312 72.9609C71.7552 72.8255 71.5391 72.5964 71.3828 72.2734C71.2266 71.9453 71.1484 71.5 71.1484 70.9375V62.375ZM76.8281 64.5469V73H75.8984V64.5469H76.8281ZM75.7344 62.1016C75.7344 61.9245 75.7891 61.776 75.8984 61.6562C76.013 61.5312 76.1693 61.4688 76.3672 61.4688C76.5651 61.4688 76.7214 61.5312 76.8359 61.6562C76.9557 61.776 77.0156 61.9245 77.0156 62.1016C77.0156 62.2734 76.9557 62.4219 76.8359 62.5469C76.7214 62.6667 76.5651 62.7266 76.3672 62.7266C76.1693 62.7266 76.013 62.6667 75.8984 62.5469C75.7891 62.4219 75.7344 62.2734 75.7344 62.1016ZM80.3125 66.3516V73H79.3828V64.5469H80.2734L80.3125 66.3516ZM80.1016 68.25L79.6875 68.0156C79.7188 67.5156 79.8203 67.0469 79.9922 66.6094C80.1641 66.1719 80.3958 65.7865 80.6875 65.4531C80.9844 65.1198 81.3307 64.8594 81.7266 64.6719C82.1276 64.4844 82.5703 64.3906 83.0547 64.3906C83.4766 64.3906 83.8542 64.4479 84.1875 64.5625C84.5208 64.6771 84.8047 64.8594 85.0391 65.1094C85.2734 65.3594 85.4505 65.6797 85.5703 66.0703C85.6953 66.4609 85.7578 66.9375 85.7578 67.5V73H84.8203V67.4922C84.8203 66.9089 84.7396 66.4531 84.5781 66.125C84.4167 65.7917 84.1875 65.5547 83.8906 65.4141C83.5938 65.2734 83.2422 65.2031 82.8359 65.2031C82.388 65.2031 81.9948 65.3021 81.6562 65.5C81.3229 65.6927 81.0417 65.9453 80.8125 66.2578C80.5885 66.5651 80.4167 66.8958 80.2969 67.25C80.1771 67.599 80.112 67.9323 80.1016 68.25ZM93.7422 64.5469H94.6094V72.8516C94.6094 73.5859 94.4688 74.2161 94.1875 74.7422C93.9115 75.2682 93.5182 75.6719 93.0078 75.9531C92.5026 76.2344 91.9062 76.375 91.2188 76.375C90.8698 76.375 90.5104 76.3203 90.1406 76.2109C89.776 76.1068 89.4297 75.9453 89.1016 75.7266C88.7786 75.513 88.5026 75.2474 88.2734 74.9297L88.7969 74.3594C89.1406 74.776 89.5078 75.0807 89.8984 75.2734C90.2891 75.4714 90.7109 75.5703 91.1641 75.5703C91.7005 75.5703 92.1536 75.4635 92.5234 75.25C92.8984 75.0365 93.1823 74.7292 93.375 74.3281C93.5729 73.9271 93.6719 73.4453 93.6719 72.8828V66.4062L93.7422 64.5469ZM87.8047 68.8594V68.6953C87.8047 68.0391 87.8776 67.4479 88.0234 66.9219C88.1745 66.3906 88.3906 65.9375 88.6719 65.5625C88.9531 65.1823 89.2943 64.8932 89.6953 64.6953C90.1016 64.4922 90.5599 64.3906 91.0703 64.3906C91.5599 64.3906 91.9948 64.4714 92.375 64.6328C92.7552 64.7943 93.0833 65.026 93.3594 65.3281C93.6354 65.6302 93.8568 65.9896 94.0234 66.4062C94.1953 66.8229 94.3203 67.2865 94.3984 67.7969V69.8828C94.3359 70.362 94.2214 70.8021 94.0547 71.2031C93.888 71.599 93.6667 71.9453 93.3906 72.2422C93.1146 72.5339 92.7812 72.7604 92.3906 72.9219C92.0052 73.0781 91.5599 73.1562 91.0547 73.1562C90.5495 73.1562 90.0964 73.0521 89.6953 72.8438C89.2943 72.6354 88.9531 72.3411 88.6719 71.9609C88.3906 71.5755 88.1745 71.1198 88.0234 70.5938C87.8776 70.0677 87.8047 69.4896 87.8047 68.8594ZM88.7422 68.6953V68.8594C88.7422 69.3542 88.7917 69.8125 88.8906 70.2344C88.9896 70.6562 89.1406 71.0234 89.3438 71.3359C89.5469 71.6484 89.8047 71.8932 90.1172 72.0703C90.4297 72.2474 90.7969 72.3359 91.2188 72.3359C91.7552 72.3359 92.2057 72.2344 92.5703 72.0312C92.9349 71.8229 93.224 71.5495 93.4375 71.2109C93.651 70.8672 93.8073 70.4922 93.9062 70.0859V67.6562C93.849 67.3802 93.7604 67.099 93.6406 66.8125C93.526 66.526 93.3646 66.263 93.1562 66.0234C92.9531 65.7786 92.6927 65.5833 92.375 65.4375C92.0625 65.2865 91.6823 65.2109 91.2344 65.2109C90.8073 65.2109 90.4349 65.2995 90.1172 65.4766C89.8047 65.6536 89.5469 65.901 89.3438 66.2188C89.1406 66.5312 88.9896 66.8984 88.8906 67.3203C88.7917 67.7422 88.7422 68.2005 88.7422 68.6953ZM104.156 64.5469V65.3125H99.9219V64.5469H104.156ZM101.477 62.375H102.406V70.9453C102.406 71.3359 102.458 71.6302 102.562 71.8281C102.667 72.026 102.802 72.1589 102.969 72.2266C103.135 72.2943 103.315 72.3281 103.508 72.3281C103.648 72.3281 103.784 72.3203 103.914 72.3047C104.044 72.2839 104.161 72.263 104.266 72.2422L104.305 73.0312C104.19 73.0677 104.042 73.0964 103.859 73.1172C103.677 73.1432 103.495 73.1562 103.312 73.1562C102.953 73.1562 102.635 73.0911 102.359 72.9609C102.083 72.8255 101.867 72.5964 101.711 72.2734C101.555 71.9453 101.477 71.5 101.477 70.9375V62.375ZM105.445 68.9062V68.6484C105.445 68.0339 105.534 67.4661 105.711 66.9453C105.888 66.4245 106.141 65.974 106.469 65.5938C106.802 65.2135 107.201 64.9193 107.664 64.7109C108.128 64.4974 108.643 64.3906 109.211 64.3906C109.784 64.3906 110.302 64.4974 110.766 64.7109C111.229 64.9193 111.628 65.2135 111.961 65.5938C112.294 65.974 112.549 66.4245 112.727 66.9453C112.904 67.4661 112.992 68.0339 112.992 68.6484V68.9062C112.992 69.5208 112.904 70.0885 112.727 70.6094C112.549 71.125 112.294 71.5729 111.961 71.9531C111.633 72.3333 111.237 72.6302 110.773 72.8438C110.31 73.0521 109.794 73.1562 109.227 73.1562C108.654 73.1562 108.135 73.0521 107.672 72.8438C107.208 72.6302 106.81 72.3333 106.477 71.9531C106.143 71.5729 105.888 71.125 105.711 70.6094C105.534 70.0885 105.445 69.5208 105.445 68.9062ZM106.375 68.6484V68.9062C106.375 69.3698 106.438 69.8099 106.562 70.2266C106.688 70.638 106.87 71.0052 107.109 71.3281C107.349 71.6458 107.646 71.8958 108 72.0781C108.354 72.2604 108.763 72.3516 109.227 72.3516C109.685 72.3516 110.089 72.2604 110.438 72.0781C110.792 71.8958 111.089 71.6458 111.328 71.3281C111.568 71.0052 111.747 70.638 111.867 70.2266C111.992 69.8099 112.055 69.3698 112.055 68.9062V68.6484C112.055 68.1901 111.992 67.7552 111.867 67.3438C111.747 66.9323 111.565 66.5651 111.32 66.2422C111.081 65.9193 110.784 65.6641 110.43 65.4766C110.076 65.2891 109.669 65.1953 109.211 65.1953C108.753 65.1953 108.346 65.2891 107.992 65.4766C107.643 65.6641 107.346 65.9193 107.102 66.2422C106.862 66.5651 106.68 66.9323 106.555 67.3438C106.435 67.7552 106.375 68.1901 106.375 68.6484ZM115.812 66.2969V73H114.875V64.5469H115.773L115.812 66.2969ZM115.641 68.25L115.188 68.0156C115.219 67.5156 115.312 67.0469 115.469 66.6094C115.63 66.1719 115.854 65.7865 116.141 65.4531C116.427 65.1198 116.771 64.8594 117.172 64.6719C117.573 64.4844 118.029 64.3906 118.539 64.3906C118.951 64.3906 119.323 64.4479 119.656 64.5625C119.995 64.6719 120.281 64.8464 120.516 65.0859C120.755 65.3203 120.94 65.6276 121.07 66.0078C121.201 66.388 121.266 66.8438 121.266 67.375V73H120.336V67.4062C120.336 66.8438 120.247 66.4036 120.07 66.0859C119.898 65.7682 119.656 65.5417 119.344 65.4062C119.036 65.2708 118.68 65.2031 118.273 65.2031C117.794 65.2031 117.388 65.3021 117.055 65.5C116.727 65.6927 116.458 65.9453 116.25 66.2578C116.047 66.5651 115.896 66.8958 115.797 67.25C115.698 67.599 115.646 67.9323 115.641 68.25ZM121.258 67.5156L120.633 67.5312C120.659 67.1198 120.753 66.7266 120.914 66.3516C121.081 65.9766 121.307 65.6432 121.594 65.3516C121.88 65.0547 122.221 64.8203 122.617 64.6484C123.018 64.4766 123.469 64.3906 123.969 64.3906C124.406 64.3906 124.797 64.4505 125.141 64.5703C125.484 64.6849 125.773 64.8698 126.008 65.125C126.247 65.375 126.43 65.6953 126.555 66.0859C126.68 66.4766 126.742 66.9453 126.742 67.4922V73H125.805V67.4844C125.805 66.8854 125.716 66.4219 125.539 66.0938C125.367 65.7604 125.128 65.5286 124.82 65.3984C124.513 65.2682 124.154 65.2031 123.742 65.2031C123.336 65.2083 122.979 65.2839 122.672 65.4297C122.365 65.5703 122.107 65.7578 121.898 65.9922C121.695 66.2214 121.539 66.4688 121.43 66.7344C121.326 67 121.268 67.2604 121.258 67.5156ZM128.602 68.9062V68.6484C128.602 68.0339 128.69 67.4661 128.867 66.9453C129.044 66.4245 129.297 65.974 129.625 65.5938C129.958 65.2135 130.357 64.9193 130.82 64.7109C131.284 64.4974 131.799 64.3906 132.367 64.3906C132.94 64.3906 133.458 64.4974 133.922 64.7109C134.385 64.9193 134.784 65.2135 135.117 65.5938C135.451 65.974 135.706 66.4245 135.883 66.9453C136.06 67.4661 136.148 68.0339 136.148 68.6484V68.9062C136.148 69.5208 136.06 70.0885 135.883 70.6094C135.706 71.125 135.451 71.5729 135.117 71.9531C134.789 72.3333 134.393 72.6302 133.93 72.8438C133.466 73.0521 132.951 73.1562 132.383 73.1562C131.81 73.1562 131.292 73.0521 130.828 72.8438C130.365 72.6302 129.966 72.3333 129.633 71.9531C129.299 71.5729 129.044 71.125 128.867 70.6094C128.69 70.0885 128.602 69.5208 128.602 68.9062ZM129.531 68.6484V68.9062C129.531 69.3698 129.594 69.8099 129.719 70.2266C129.844 70.638 130.026 71.0052 130.266 71.3281C130.505 71.6458 130.802 71.8958 131.156 72.0781C131.51 72.2604 131.919 72.3516 132.383 72.3516C132.841 72.3516 133.245 72.2604 133.594 72.0781C133.948 71.8958 134.245 71.6458 134.484 71.3281C134.724 71.0052 134.904 70.638 135.023 70.2266C135.148 69.8099 135.211 69.3698 135.211 68.9062V68.6484C135.211 68.1901 135.148 67.7552 135.023 67.3438C134.904 66.9323 134.721 66.5651 134.477 66.2422C134.237 65.9193 133.94 65.6641 133.586 65.4766C133.232 65.2891 132.826 65.1953 132.367 65.1953C131.909 65.1953 131.503 65.2891 131.148 65.4766C130.799 65.6641 130.503 65.9193 130.258 66.2422C130.018 66.5651 129.836 66.9323 129.711 67.3438C129.591 67.7552 129.531 68.1901 129.531 68.6484ZM139.016 65.9453V73H138.086V64.5469H138.992L139.016 65.9453ZM142.008 64.4844L141.984 65.3438C141.88 65.3281 141.779 65.3151 141.68 65.3047C141.581 65.2943 141.474 65.2891 141.359 65.2891C140.953 65.2891 140.596 65.3646 140.289 65.5156C139.987 65.6615 139.732 65.8672 139.523 66.1328C139.315 66.3932 139.156 66.7005 139.047 67.0547C138.938 67.4036 138.875 67.7786 138.859 68.1797L138.516 68.3125C138.516 67.7604 138.573 67.2474 138.688 66.7734C138.802 66.2995 138.977 65.8854 139.211 65.5312C139.451 65.1719 139.75 64.8932 140.109 64.6953C140.474 64.4922 140.901 64.3906 141.391 64.3906C141.51 64.3906 141.628 64.401 141.742 64.4219C141.862 64.4375 141.951 64.4583 142.008 64.4844ZM144.406 65.9453V73H143.477V64.5469H144.383L144.406 65.9453ZM147.398 64.4844L147.375 65.3438C147.271 65.3281 147.169 65.3151 147.07 65.3047C146.971 65.2943 146.865 65.2891 146.75 65.2891C146.344 65.2891 145.987 65.3646 145.68 65.5156C145.378 65.6615 145.122 65.8672 144.914 66.1328C144.706 66.3932 144.547 66.7005 144.438 67.0547C144.328 67.4036 144.266 67.7786 144.25 68.1797L143.906 68.3125C143.906 67.7604 143.964 67.2474 144.078 66.7734C144.193 66.2995 144.367 65.8854 144.602 65.5312C144.841 65.1719 145.141 64.8932 145.5 64.6953C145.865 64.4922 146.292 64.3906 146.781 64.3906C146.901 64.3906 147.018 64.401 147.133 64.4219C147.253 64.4375 147.341 64.4583 147.398 64.4844ZM148.195 68.9062V68.6484C148.195 68.0339 148.284 67.4661 148.461 66.9453C148.638 66.4245 148.891 65.974 149.219 65.5938C149.552 65.2135 149.951 64.9193 150.414 64.7109C150.878 64.4974 151.393 64.3906 151.961 64.3906C152.534 64.3906 153.052 64.4974 153.516 64.7109C153.979 64.9193 154.378 65.2135 154.711 65.5938C155.044 65.974 155.299 66.4245 155.477 66.9453C155.654 67.4661 155.742 68.0339 155.742 68.6484V68.9062C155.742 69.5208 155.654 70.0885 155.477 70.6094C155.299 71.125 155.044 71.5729 154.711 71.9531C154.383 72.3333 153.987 72.6302 153.523 72.8438C153.06 73.0521 152.544 73.1562 151.977 73.1562C151.404 73.1562 150.885 73.0521 150.422 72.8438C149.958 72.6302 149.56 72.3333 149.227 71.9531C148.893 71.5729 148.638 71.125 148.461 70.6094C148.284 70.0885 148.195 69.5208 148.195 68.9062ZM149.125 68.6484V68.9062C149.125 69.3698 149.188 69.8099 149.312 70.2266C149.438 70.638 149.62 71.0052 149.859 71.3281C150.099 71.6458 150.396 71.8958 150.75 72.0781C151.104 72.2604 151.513 72.3516 151.977 72.3516C152.435 72.3516 152.839 72.2604 153.188 72.0781C153.542 71.8958 153.839 71.6458 154.078 71.3281C154.318 71.0052 154.497 70.638 154.617 70.2266C154.742 69.8099 154.805 69.3698 154.805 68.9062V68.6484C154.805 68.1901 154.742 67.7552 154.617 67.3438C154.497 66.9323 154.315 66.5651 154.07 66.2422C153.831 65.9193 153.534 65.6641 153.18 65.4766C152.826 65.2891 152.419 65.1953 151.961 65.1953C151.503 65.1953 151.096 65.2891 150.742 65.4766C150.393 65.6641 150.096 65.9193 149.852 66.2422C149.612 66.5651 149.43 66.9323 149.305 67.3438C149.185 67.7552 149.125 68.1901 149.125 68.6484ZM160.023 71.0234L162.062 64.5469H162.719L162.328 66.2891L160.195 73H159.539L160.023 71.0234ZM157.906 64.5469L159.695 71.0625L160.078 73H159.398L156.945 64.5469H157.906ZM165.258 71.0391L167 64.5469H167.961L165.508 73H164.836L165.258 71.0391ZM162.852 64.5469L164.859 70.9688L165.367 73H164.711L162.531 66.2812L162.164 64.5469H162.852ZM178.805 71.4844V67.125C178.805 66.724 178.721 66.3776 178.555 66.0859C178.388 65.7943 178.143 65.5703 177.82 65.4141C177.497 65.2578 177.099 65.1797 176.625 65.1797C176.188 65.1797 175.797 65.2578 175.453 65.4141C175.115 65.5651 174.846 65.7708 174.648 66.0312C174.456 66.2865 174.359 66.5703 174.359 66.8828L173.422 66.875C173.422 66.5573 173.5 66.25 173.656 65.9531C173.812 65.6562 174.034 65.3906 174.32 65.1562C174.607 64.9219 174.948 64.737 175.344 64.6016C175.745 64.4609 176.185 64.3906 176.664 64.3906C177.268 64.3906 177.799 64.4922 178.258 64.6953C178.721 64.8984 179.083 65.2031 179.344 65.6094C179.604 66.0156 179.734 66.526 179.734 67.1406V71.2266C179.734 71.5182 179.755 71.8203 179.797 72.1328C179.844 72.4453 179.909 72.7031 179.992 72.9062V73H179C178.938 72.8125 178.888 72.5781 178.852 72.2969C178.82 72.0104 178.805 71.7396 178.805 71.4844ZM179.023 68.0781L179.039 68.7969H177.203C176.724 68.7969 176.294 68.8411 175.914 68.9297C175.539 69.013 175.221 69.138 174.961 69.3047C174.701 69.4661 174.5 69.6615 174.359 69.8906C174.224 70.1198 174.156 70.3802 174.156 70.6719C174.156 70.974 174.232 71.25 174.383 71.5C174.539 71.75 174.758 71.9505 175.039 72.1016C175.326 72.2474 175.664 72.3203 176.055 72.3203C176.576 72.3203 177.034 72.224 177.43 72.0312C177.831 71.8385 178.161 71.5859 178.422 71.2734C178.682 70.9609 178.857 70.6198 178.945 70.25L179.352 70.7891C179.284 71.0495 179.159 71.3177 178.977 71.5938C178.799 71.8646 178.568 72.1198 178.281 72.3594C177.995 72.5938 177.656 72.7865 177.266 72.9375C176.88 73.0833 176.443 73.1562 175.953 73.1562C175.401 73.1562 174.919 73.0521 174.508 72.8438C174.102 72.6354 173.784 72.3516 173.555 71.9922C173.331 71.6276 173.219 71.2161 173.219 70.7578C173.219 70.3411 173.307 69.9688 173.484 69.6406C173.661 69.3073 173.917 69.026 174.25 68.7969C174.589 68.5625 174.995 68.3854 175.469 68.2656C175.948 68.1406 176.484 68.0781 177.078 68.0781H179.023ZM185.438 64.5469V65.3125H181.203V64.5469H185.438ZM182.758 62.375H183.688V70.9453C183.688 71.3359 183.74 71.6302 183.844 71.8281C183.948 72.026 184.083 72.1589 184.25 72.2266C184.417 72.2943 184.596 72.3281 184.789 72.3281C184.93 72.3281 185.065 72.3203 185.195 72.3047C185.326 72.2839 185.443 72.263 185.547 72.2422L185.586 73.0312C185.471 73.0677 185.323 73.0964 185.141 73.1172C184.958 73.1432 184.776 73.1562 184.594 73.1562C184.234 73.1562 183.917 73.0911 183.641 72.9609C183.365 72.8255 183.148 72.5964 182.992 72.2734C182.836 71.9453 182.758 71.5 182.758 70.9375V62.375ZM195.5 61.5781V73H194.57V62.7578L191.477 63.9062V63.0234L195.344 61.5781H195.5ZM207.023 69.9844C207.023 70.6719 206.862 71.2526 206.539 71.7266C206.221 72.2005 205.789 72.5573 205.242 72.7969C204.695 73.0365 204.083 73.1562 203.406 73.1562C202.724 73.1562 202.109 73.0365 201.562 72.7969C201.016 72.5573 200.581 72.2005 200.258 71.7266C199.94 71.2526 199.781 70.6719 199.781 69.9844C199.781 69.5312 199.87 69.1198 200.047 68.75C200.229 68.375 200.482 68.0521 200.805 67.7812C201.133 67.5052 201.516 67.2917 201.953 67.1406C202.391 66.9896 202.87 66.9141 203.391 66.9141C204.078 66.9141 204.695 67.0469 205.242 67.3125C205.789 67.5729 206.221 67.9323 206.539 68.3906C206.862 68.849 207.023 69.3802 207.023 69.9844ZM206.086 69.9844C206.086 69.5 205.969 69.0755 205.734 68.7109C205.5 68.3464 205.18 68.0651 204.773 67.8672C204.367 67.6641 203.906 67.5625 203.391 67.5625C202.87 67.5625 202.409 67.6641 202.008 67.8672C201.607 68.0651 201.292 68.3464 201.062 68.7109C200.833 69.0755 200.719 69.5 200.719 69.9844C200.719 70.4896 200.831 70.9193 201.055 71.2734C201.284 71.6276 201.602 71.8958 202.008 72.0781C202.414 72.2604 202.88 72.3516 203.406 72.3516C203.932 72.3516 204.396 72.2604 204.797 72.0781C205.198 71.8958 205.513 71.6276 205.742 71.2734C205.971 70.9193 206.086 70.4896 206.086 69.9844ZM206.727 64.5469C206.727 65.1042 206.578 65.6016 206.281 66.0391C205.99 66.4714 205.594 66.8125 205.094 67.0625C204.594 67.3073 204.029 67.4297 203.398 67.4297C202.763 67.4297 202.193 67.3073 201.688 67.0625C201.188 66.8125 200.792 66.4714 200.5 66.0391C200.214 65.6016 200.07 65.1042 200.07 64.5469C200.07 63.8854 200.214 63.3281 200.5 62.875C200.792 62.4167 201.188 62.0677 201.688 61.8281C202.188 61.5885 202.755 61.4688 203.391 61.4688C204.021 61.4688 204.586 61.5885 205.086 61.8281C205.591 62.0677 205.99 62.4167 206.281 62.875C206.578 63.3281 206.727 63.8854 206.727 64.5469ZM205.797 64.5391C205.797 64.0964 205.69 63.7057 205.477 63.3672C205.268 63.0286 204.982 62.763 204.617 62.5703C204.258 62.3724 203.849 62.2734 203.391 62.2734C202.927 62.2734 202.516 62.3646 202.156 62.5469C201.802 62.7292 201.521 62.9896 201.312 63.3281C201.109 63.6667 201.008 64.0703 201.008 64.5391C201.008 64.9974 201.109 65.3932 201.312 65.7266C201.521 66.0547 201.805 66.3099 202.164 66.4922C202.523 66.6745 202.935 66.7656 203.398 66.7656C203.862 66.7656 204.273 66.6745 204.633 66.4922C204.992 66.3099 205.276 66.0547 205.484 65.7266C205.693 65.3932 205.797 64.9974 205.797 64.5391ZM208.812 72.4297C208.812 72.2474 208.87 72.0938 208.984 71.9688C209.104 71.8385 209.266 71.7734 209.469 71.7734C209.677 71.7734 209.841 71.8359 209.961 71.9609C210.081 72.0859 210.141 72.2422 210.141 72.4297C210.141 72.6068 210.081 72.7578 209.961 72.8828C209.841 73.0078 209.677 73.0703 209.469 73.0703C209.266 73.0703 209.104 73.0078 208.984 72.8828C208.87 72.7578 208.812 72.6068 208.812 72.4297ZM208.836 65.2188C208.836 65.0365 208.893 64.8828 209.008 64.7578C209.128 64.6276 209.289 64.5625 209.492 64.5625C209.701 64.5625 209.865 64.625 209.984 64.75C210.104 64.875 210.164 65.0312 210.164 65.2188C210.164 65.3958 210.104 65.5469 209.984 65.6719C209.865 65.7969 209.701 65.8594 209.492 65.8594C209.289 65.8594 209.128 65.7969 209.008 65.6719C208.893 65.5469 208.836 65.3958 208.836 65.2188ZM219.117 66.3359V68.25C219.117 69.0833 219.039 69.8099 218.883 70.4297C218.727 71.0443 218.497 71.5547 218.195 71.9609C217.898 72.362 217.534 72.6615 217.102 72.8594C216.674 73.0573 216.185 73.1562 215.633 73.1562C215.195 73.1562 214.794 73.0938 214.43 72.9688C214.065 72.8438 213.74 72.6536 213.453 72.3984C213.172 72.138 212.932 71.8125 212.734 71.4219C212.536 71.0312 212.385 70.5729 212.281 70.0469C212.177 69.5156 212.125 68.9167 212.125 68.25V66.3359C212.125 65.4974 212.203 64.7734 212.359 64.1641C212.521 63.5547 212.75 63.0495 213.047 62.6484C213.349 62.2474 213.716 61.9505 214.148 61.7578C214.581 61.5599 215.07 61.4609 215.617 61.4609C216.055 61.4609 216.456 61.526 216.82 61.6562C217.19 61.7812 217.516 61.9688 217.797 62.2188C218.083 62.4688 218.323 62.7891 218.516 63.1797C218.714 63.5651 218.862 64.0208 218.961 64.5469C219.065 65.0729 219.117 65.6693 219.117 66.3359ZM218.188 68.3594V66.2188C218.188 65.7031 218.151 65.2344 218.078 64.8125C218.01 64.3906 217.909 64.0208 217.773 63.7031C217.638 63.3854 217.466 63.1198 217.258 62.9062C217.055 62.6927 216.815 62.5339 216.539 62.4297C216.268 62.3203 215.961 62.2656 215.617 62.2656C215.195 62.2656 214.823 62.3516 214.5 62.5234C214.182 62.6901 213.917 62.9401 213.703 63.2734C213.49 63.6016 213.328 64.013 213.219 64.5078C213.115 65.0026 213.062 65.5729 213.062 66.2188V68.3594C213.062 68.8698 213.096 69.3359 213.164 69.7578C213.232 70.1745 213.336 70.5443 213.477 70.8672C213.617 71.1901 213.789 71.4635 213.992 71.6875C214.201 71.9062 214.44 72.0729 214.711 72.1875C214.987 72.2969 215.294 72.3516 215.633 72.3516C216.065 72.3516 216.44 72.2656 216.758 72.0938C217.076 71.9167 217.341 71.6589 217.555 71.3203C217.768 70.9766 217.927 70.5573 218.031 70.0625C218.135 69.5625 218.188 68.9948 218.188 68.3594ZM227.992 66.3359V68.25C227.992 69.0833 227.914 69.8099 227.758 70.4297C227.602 71.0443 227.372 71.5547 227.07 71.9609C226.773 72.362 226.409 72.6615 225.977 72.8594C225.549 73.0573 225.06 73.1562 224.508 73.1562C224.07 73.1562 223.669 73.0938 223.305 72.9688C222.94 72.8438 222.615 72.6536 222.328 72.3984C222.047 72.138 221.807 71.8125 221.609 71.4219C221.411 71.0312 221.26 70.5729 221.156 70.0469C221.052 69.5156 221 68.9167 221 68.25V66.3359C221 65.4974 221.078 64.7734 221.234 64.1641C221.396 63.5547 221.625 63.0495 221.922 62.6484C222.224 62.2474 222.591 61.9505 223.023 61.7578C223.456 61.5599 223.945 61.4609 224.492 61.4609C224.93 61.4609 225.331 61.526 225.695 61.6562C226.065 61.7812 226.391 61.9688 226.672 62.2188C226.958 62.4688 227.198 62.7891 227.391 63.1797C227.589 63.5651 227.737 64.0208 227.836 64.5469C227.94 65.0729 227.992 65.6693 227.992 66.3359ZM227.062 68.3594V66.2188C227.062 65.7031 227.026 65.2344 226.953 64.8125C226.885 64.3906 226.784 64.0208 226.648 63.7031C226.513 63.3854 226.341 63.1198 226.133 62.9062C225.93 62.6927 225.69 62.5339 225.414 62.4297C225.143 62.3203 224.836 62.2656 224.492 62.2656C224.07 62.2656 223.698 62.3516 223.375 62.5234C223.057 62.6901 222.792 62.9401 222.578 63.2734C222.365 63.6016 222.203 64.013 222.094 64.5078C221.99 65.0026 221.938 65.5729 221.938 66.2188V68.3594C221.938 68.8698 221.971 69.3359 222.039 69.7578C222.107 70.1745 222.211 70.5443 222.352 70.8672C222.492 71.1901 222.664 71.4635 222.867 71.6875C223.076 71.9062 223.315 72.0729 223.586 72.1875C223.862 72.2969 224.169 72.3516 224.508 72.3516C224.94 72.3516 225.315 72.2656 225.633 72.0938C225.951 71.9167 226.216 71.6589 226.43 71.3203C226.643 70.9766 226.802 70.5573 226.906 70.0625C227.01 69.5625 227.062 68.9948 227.062 68.3594ZM230.078 72.4297C230.078 72.2474 230.135 72.0938 230.25 71.9688C230.37 71.8385 230.531 71.7734 230.734 71.7734C230.943 71.7734 231.107 71.8359 231.227 71.9609C231.346 72.0859 231.406 72.2422 231.406 72.4297C231.406 72.6068 231.346 72.7578 231.227 72.8828C231.107 73.0078 230.943 73.0703 230.734 73.0703C230.531 73.0703 230.37 73.0078 230.25 72.8828C230.135 72.7578 230.078 72.6068 230.078 72.4297ZM41.4062 80.625V92H40.4453V80.625H41.4062ZM46.7031 85.8594V86.6875H41.0859V85.8594H46.7031ZM47.4922 80.625V81.4531H41.0859V80.625H47.4922ZM48.5391 87.9062V87.6484C48.5391 87.0339 48.6276 86.4661 48.8047 85.9453C48.9818 85.4245 49.2344 84.974 49.5625 84.5938C49.8958 84.2135 50.2943 83.9193 50.7578 83.7109C51.2214 83.4974 51.737 83.3906 52.3047 83.3906C52.8776 83.3906 53.3958 83.4974 53.8594 83.7109C54.3229 83.9193 54.7214 84.2135 55.0547 84.5938C55.388 84.974 55.6432 85.4245 55.8203 85.9453C55.9974 86.4661 56.0859 87.0339 56.0859 87.6484V87.9062C56.0859 88.5208 55.9974 89.0885 55.8203 89.6094C55.6432 90.125 55.388 90.5729 55.0547 90.9531C54.7266 91.3333 54.3307 91.6302 53.8672 91.8438C53.4036 92.0521 52.888 92.1562 52.3203 92.1562C51.7474 92.1562 51.2292 92.0521 50.7656 91.8438C50.3021 91.6302 49.9036 91.3333 49.5703 90.9531C49.237 90.5729 48.9818 90.125 48.8047 89.6094C48.6276 89.0885 48.5391 88.5208 48.5391 87.9062ZM49.4688 87.6484V87.9062C49.4688 88.3698 49.5312 88.8099 49.6562 89.2266C49.7812 89.638 49.9635 90.0052 50.2031 90.3281C50.4427 90.6458 50.7396 90.8958 51.0938 91.0781C51.4479 91.2604 51.8568 91.3516 52.3203 91.3516C52.7786 91.3516 53.1823 91.2604 53.5312 91.0781C53.8854 90.8958 54.1823 90.6458 54.4219 90.3281C54.6615 90.0052 54.8411 89.638 54.9609 89.2266C55.0859 88.8099 55.1484 88.3698 55.1484 87.9062V87.6484C55.1484 87.1901 55.0859 86.7552 54.9609 86.3438C54.8411 85.9323 54.6589 85.5651 54.4141 85.2422C54.1745 84.9193 53.8776 84.6641 53.5234 84.4766C53.1693 84.2891 52.763 84.1953 52.3047 84.1953C51.8464 84.1953 51.4401 84.2891 51.0859 84.4766C50.737 84.6641 50.4401 84.9193 50.1953 85.2422C49.9557 85.5651 49.7734 85.9323 49.6484 86.3438C49.5286 86.7552 49.4688 87.1901 49.4688 87.6484ZM61.1406 91.3516C61.5365 91.3516 61.9062 91.2786 62.25 91.1328C62.599 90.9818 62.8854 90.7604 63.1094 90.4688C63.3385 90.1719 63.4688 89.8099 63.5 89.3828H64.3906C64.3646 89.9193 64.2005 90.3984 63.8984 90.8203C63.6016 91.237 63.2109 91.5651 62.7266 91.8047C62.2474 92.0391 61.7188 92.1562 61.1406 92.1562C60.5521 92.1562 60.0312 92.0495 59.5781 91.8359C59.1302 91.6224 58.7552 91.3255 58.4531 90.9453C58.151 90.5599 57.9219 90.112 57.7656 89.6016C57.6146 89.0859 57.5391 88.5312 57.5391 87.9375V87.6094C57.5391 87.0156 57.6146 86.4635 57.7656 85.9531C57.9219 85.4375 58.151 84.9896 58.4531 84.6094C58.7552 84.224 59.1302 83.9245 59.5781 83.7109C60.026 83.4974 60.5443 83.3906 61.1328 83.3906C61.737 83.3906 62.2786 83.513 62.7578 83.7578C63.2422 84.0026 63.6276 84.349 63.9141 84.7969C64.2057 85.2448 64.3646 85.776 64.3906 86.3906H63.5C63.474 85.9375 63.3542 85.5469 63.1406 85.2188C62.9271 84.8906 62.6458 84.638 62.2969 84.4609C61.9479 84.2839 61.5599 84.1953 61.1328 84.1953C60.6536 84.1953 60.2448 84.2891 59.9062 84.4766C59.5677 84.6589 59.2917 84.9115 59.0781 85.2344C58.8698 85.5521 58.7161 85.9167 58.6172 86.3281C58.5182 86.7344 58.4688 87.1615 58.4688 87.6094V87.9375C58.4688 88.3906 58.5156 88.8229 58.6094 89.2344C58.7083 89.6406 58.862 90.0026 59.0703 90.3203C59.2839 90.638 59.5599 90.8906 59.8984 91.0781C60.2422 91.2604 60.6562 91.3516 61.1406 91.3516ZM71.6875 90.0469V83.5469H72.625V92H71.7266L71.6875 90.0469ZM71.8594 88.4844L72.3438 88.4688C72.3438 89 72.2812 89.4896 72.1562 89.9375C72.0312 90.3854 71.8359 90.776 71.5703 91.1094C71.3047 91.4427 70.9609 91.7005 70.5391 91.8828C70.1172 92.0651 69.6094 92.1562 69.0156 92.1562C68.6042 92.1562 68.2266 92.099 67.8828 91.9844C67.5443 91.8646 67.2526 91.6771 67.0078 91.4219C66.763 91.1667 66.5729 90.8359 66.4375 90.4297C66.3073 90.0234 66.2422 89.5312 66.2422 88.9531V83.5469H67.1719V88.9688C67.1719 89.4219 67.2214 89.7995 67.3203 90.1016C67.4245 90.4036 67.5651 90.6458 67.7422 90.8281C67.9245 91.0104 68.1328 91.1406 68.3672 91.2188C68.6016 91.2969 68.8542 91.3359 69.125 91.3359C69.8125 91.3359 70.3542 91.2031 70.75 90.9375C71.151 90.6719 71.4349 90.3229 71.6016 89.8906C71.7734 89.4531 71.8594 88.9844 71.8594 88.4844ZM80.1328 89.8438C80.1328 89.6146 80.0755 89.388 79.9609 89.1641C79.8464 88.9401 79.625 88.7344 79.2969 88.5469C78.974 88.3594 78.4974 88.2005 77.8672 88.0703C77.3984 87.9661 76.9792 87.849 76.6094 87.7188C76.2448 87.5885 75.9375 87.4323 75.6875 87.25C75.4375 87.0677 75.2474 86.849 75.1172 86.5938C74.987 86.3385 74.9219 86.0365 74.9219 85.6875C74.9219 85.375 74.9896 85.0807 75.125 84.8047C75.2656 84.5234 75.4635 84.2786 75.7188 84.0703C75.9792 83.8568 76.2917 83.6901 76.6562 83.5703C77.026 83.4505 77.4401 83.3906 77.8984 83.3906C78.5495 83.3906 79.1068 83.5026 79.5703 83.7266C80.0391 83.9453 80.3958 84.2448 80.6406 84.625C80.8906 85.0052 81.0156 85.4349 81.0156 85.9141H80.0859C80.0859 85.6224 80 85.3464 79.8281 85.0859C79.6615 84.8255 79.4141 84.612 79.0859 84.4453C78.763 84.2786 78.3672 84.1953 77.8984 84.1953C77.4141 84.1953 77.0208 84.2682 76.7188 84.4141C76.4167 84.5599 76.1953 84.7448 76.0547 84.9688C75.9193 85.1927 75.8516 85.4245 75.8516 85.6641C75.8516 85.8516 75.8802 86.0234 75.9375 86.1797C76 86.3307 76.1094 86.4714 76.2656 86.6016C76.4271 86.7318 76.6562 86.8542 76.9531 86.9688C77.25 87.0833 77.6354 87.1953 78.1094 87.3047C78.7917 87.4557 79.349 87.6406 79.7812 87.8594C80.2188 88.0729 80.5417 88.3385 80.75 88.6562C80.9583 88.9688 81.0625 89.349 81.0625 89.7969C81.0625 90.1458 80.9896 90.4661 80.8438 90.7578C80.6979 91.0443 80.487 91.2917 80.2109 91.5C79.9401 91.7083 79.612 91.8698 79.2266 91.9844C78.8464 92.099 78.4193 92.1562 77.9453 92.1562C77.2318 92.1562 76.6276 92.0391 76.1328 91.8047C75.6432 91.5651 75.2708 91.2526 75.0156 90.8672C74.7656 90.4766 74.6406 90.0625 74.6406 89.625H75.5703C75.6016 90.0625 75.7396 90.4089 75.9844 90.6641C76.2292 90.9141 76.5286 91.0911 76.8828 91.1953C77.2422 91.2995 77.5964 91.3516 77.9453 91.3516C78.4245 91.3516 78.8255 91.2812 79.1484 91.1406C79.4714 91 79.7161 90.8151 79.8828 90.5859C80.0495 90.3568 80.1328 90.1094 80.1328 89.8438ZM86.5703 87.9062V87.6484C86.5703 87.0339 86.6589 86.4661 86.8359 85.9453C87.013 85.4245 87.2656 84.974 87.5938 84.5938C87.9271 84.2135 88.3255 83.9193 88.7891 83.7109C89.2526 83.4974 89.7682 83.3906 90.3359 83.3906C90.9089 83.3906 91.4271 83.4974 91.8906 83.7109C92.3542 83.9193 92.7526 84.2135 93.0859 84.5938C93.4193 84.974 93.6745 85.4245 93.8516 85.9453C94.0286 86.4661 94.1172 87.0339 94.1172 87.6484V87.9062C94.1172 88.5208 94.0286 89.0885 93.8516 89.6094C93.6745 90.125 93.4193 90.5729 93.0859 90.9531C92.7578 91.3333 92.362 91.6302 91.8984 91.8438C91.4349 92.0521 90.9193 92.1562 90.3516 92.1562C89.7786 92.1562 89.2604 92.0521 88.7969 91.8438C88.3333 91.6302 87.9349 91.3333 87.6016 90.9531C87.2682 90.5729 87.013 90.125 86.8359 89.6094C86.6589 89.0885 86.5703 88.5208 86.5703 87.9062ZM87.5 87.6484V87.9062C87.5 88.3698 87.5625 88.8099 87.6875 89.2266C87.8125 89.638 87.9948 90.0052 88.2344 90.3281C88.474 90.6458 88.7708 90.8958 89.125 91.0781C89.4792 91.2604 89.888 91.3516 90.3516 91.3516C90.8099 91.3516 91.2135 91.2604 91.5625 91.0781C91.9167 90.8958 92.2135 90.6458 92.4531 90.3281C92.6927 90.0052 92.8724 89.638 92.9922 89.2266C93.1172 88.8099 93.1797 88.3698 93.1797 87.9062V87.6484C93.1797 87.1901 93.1172 86.7552 92.9922 86.3438C92.8724 85.9323 92.6901 85.5651 92.4453 85.2422C92.2057 84.9193 91.9089 84.6641 91.5547 84.4766C91.2005 84.2891 90.7943 84.1953 90.3359 84.1953C89.8776 84.1953 89.4714 84.2891 89.1172 84.4766C88.7682 84.6641 88.4714 84.9193 88.2266 85.2422C87.987 85.5651 87.8047 85.9323 87.6797 86.3438C87.5599 86.7552 87.5 87.1901 87.5 87.6484ZM96.9844 85.3516V92H96.0547V83.5469H96.9453L96.9844 85.3516ZM96.7734 87.25L96.3594 87.0156C96.3906 86.5156 96.4922 86.0469 96.6641 85.6094C96.8359 85.1719 97.0677 84.7865 97.3594 84.4531C97.6562 84.1198 98.0026 83.8594 98.3984 83.6719C98.7995 83.4844 99.2422 83.3906 99.7266 83.3906C100.148 83.3906 100.526 83.4479 100.859 83.5625C101.193 83.6771 101.477 83.8594 101.711 84.1094C101.945 84.3594 102.122 84.6797 102.242 85.0703C102.367 85.4609 102.43 85.9375 102.43 86.5V92H101.492V86.4922C101.492 85.9089 101.411 85.4531 101.25 85.125C101.089 84.7917 100.859 84.5547 100.562 84.4141C100.266 84.2734 99.9141 84.2031 99.5078 84.2031C99.0599 84.2031 98.6667 84.3021 98.3281 84.5C97.9948 84.6927 97.7135 84.9453 97.4844 85.2578C97.2604 85.5651 97.0885 85.8958 96.9688 86.25C96.849 86.599 96.7839 86.9323 96.7734 87.25ZM114.25 90.3594V80H115.188V92H114.312L114.25 90.3594ZM108.383 87.8594V87.6953C108.383 87.0391 108.458 86.4479 108.609 85.9219C108.76 85.3906 108.977 84.9375 109.258 84.5625C109.544 84.1823 109.888 83.8932 110.289 83.6953C110.69 83.4922 111.143 83.3906 111.648 83.3906C112.143 83.3906 112.581 83.4714 112.961 83.6328C113.341 83.7943 113.667 84.026 113.938 84.3281C114.214 84.6302 114.435 84.9896 114.602 85.4062C114.773 85.8229 114.898 86.2865 114.977 86.7969V88.8828C114.914 89.362 114.799 89.8021 114.633 90.2031C114.466 90.599 114.245 90.9453 113.969 91.2422C113.693 91.5339 113.359 91.7604 112.969 91.9219C112.583 92.0781 112.138 92.1562 111.633 92.1562C111.133 92.1562 110.682 92.0521 110.281 91.8438C109.88 91.6354 109.539 91.3411 109.258 90.9609C108.977 90.5755 108.76 90.1198 108.609 89.5938C108.458 89.0677 108.383 88.4896 108.383 87.8594ZM109.32 87.6953V87.8594C109.32 88.3542 109.37 88.8125 109.469 89.2344C109.568 89.6562 109.719 90.0234 109.922 90.3359C110.125 90.6484 110.383 90.8932 110.695 91.0703C111.008 91.2474 111.378 91.3359 111.805 91.3359C112.341 91.3359 112.792 91.2344 113.156 91.0312C113.521 90.8229 113.812 90.5495 114.031 90.2109C114.25 89.8672 114.409 89.4922 114.508 89.0859V86.6562C114.445 86.3802 114.354 86.099 114.234 85.8125C114.115 85.526 113.951 85.263 113.742 85.0234C113.539 84.7786 113.279 84.5833 112.961 84.4375C112.648 84.2865 112.268 84.2109 111.82 84.2109C111.388 84.2109 111.016 84.2995 110.703 84.4766C110.391 84.6536 110.13 84.901 109.922 85.2188C109.719 85.5312 109.568 85.8984 109.469 86.3203C109.37 86.7422 109.32 87.2005 109.32 87.6953ZM120.914 92.1562C120.362 92.1562 119.854 92.0547 119.391 91.8516C118.932 91.6484 118.531 91.362 118.188 90.9922C117.849 90.6224 117.586 90.1849 117.398 89.6797C117.216 89.1693 117.125 88.612 117.125 88.0078V87.6719C117.125 87.0208 117.221 86.4323 117.414 85.9062C117.607 85.3802 117.872 84.9297 118.211 84.5547C118.549 84.1797 118.935 83.8932 119.367 83.6953C119.805 83.4922 120.263 83.3906 120.742 83.3906C121.279 83.3906 121.755 83.487 122.172 83.6797C122.589 83.8672 122.938 84.1354 123.219 84.4844C123.505 84.8281 123.721 85.237 123.867 85.7109C124.013 86.1797 124.086 86.6979 124.086 87.2656V87.8359H117.688V87.0391H123.156V86.9297C123.146 86.4557 123.049 86.013 122.867 85.6016C122.69 85.1849 122.424 84.8464 122.07 84.5859C121.716 84.3255 121.273 84.1953 120.742 84.1953C120.346 84.1953 119.982 84.2786 119.648 84.4453C119.32 84.612 119.036 84.8516 118.797 85.1641C118.562 85.4714 118.38 85.8385 118.25 86.2656C118.125 86.6875 118.062 87.1562 118.062 87.6719V88.0078C118.062 88.4766 118.13 88.9141 118.266 89.3203C118.406 89.7214 118.604 90.0755 118.859 90.3828C119.12 90.6901 119.427 90.9297 119.781 91.1016C120.135 91.2734 120.526 91.3594 120.953 91.3594C121.453 91.3594 121.896 91.2682 122.281 91.0859C122.667 90.8984 123.013 90.6042 123.32 90.2031L123.906 90.6562C123.724 90.9271 123.495 91.1771 123.219 91.4062C122.948 91.6354 122.622 91.8177 122.242 91.9531C121.862 92.0885 121.419 92.1562 120.914 92.1562ZM129.125 83.5469V84.3125H124.891V83.5469H129.125ZM126.445 81.375H127.375V89.9453C127.375 90.3359 127.427 90.6302 127.531 90.8281C127.635 91.026 127.771 91.1589 127.938 91.2266C128.104 91.2943 128.284 91.3281 128.477 91.3281C128.617 91.3281 128.753 91.3203 128.883 91.3047C129.013 91.2839 129.13 91.263 129.234 91.2422L129.273 92.0312C129.159 92.0677 129.01 92.0964 128.828 92.1172C128.646 92.1432 128.464 92.1562 128.281 92.1562C127.922 92.1562 127.604 92.0911 127.328 91.9609C127.052 91.8255 126.836 91.5964 126.68 91.2734C126.523 90.9453 126.445 90.5 126.445 89.9375V81.375ZM136.227 90.4844V86.125C136.227 85.724 136.143 85.3776 135.977 85.0859C135.81 84.7943 135.565 84.5703 135.242 84.4141C134.919 84.2578 134.521 84.1797 134.047 84.1797C133.609 84.1797 133.219 84.2578 132.875 84.4141C132.536 84.5651 132.268 84.7708 132.07 85.0312C131.878 85.2865 131.781 85.5703 131.781 85.8828L130.844 85.875C130.844 85.5573 130.922 85.25 131.078 84.9531C131.234 84.6562 131.456 84.3906 131.742 84.1562C132.029 83.9219 132.37 83.737 132.766 83.6016C133.167 83.4609 133.607 83.3906 134.086 83.3906C134.69 83.3906 135.221 83.4922 135.68 83.6953C136.143 83.8984 136.505 84.2031 136.766 84.6094C137.026 85.0156 137.156 85.526 137.156 86.1406V90.2266C137.156 90.5182 137.177 90.8203 137.219 91.1328C137.266 91.4453 137.331 91.7031 137.414 91.9062V92H136.422C136.359 91.8125 136.31 91.5781 136.273 91.2969C136.242 91.0104 136.227 90.7396 136.227 90.4844ZM136.445 87.0781L136.461 87.7969H134.625C134.146 87.7969 133.716 87.8411 133.336 87.9297C132.961 88.013 132.643 88.138 132.383 88.3047C132.122 88.4661 131.922 88.6615 131.781 88.8906C131.646 89.1198 131.578 89.3802 131.578 89.6719C131.578 89.974 131.654 90.25 131.805 90.5C131.961 90.75 132.18 90.9505 132.461 91.1016C132.747 91.2474 133.086 91.3203 133.477 91.3203C133.997 91.3203 134.456 91.224 134.852 91.0312C135.253 90.8385 135.583 90.5859 135.844 90.2734C136.104 89.9609 136.279 89.6198 136.367 89.25L136.773 89.7891C136.706 90.0495 136.581 90.3177 136.398 90.5938C136.221 90.8646 135.99 91.1198 135.703 91.3594C135.417 91.5938 135.078 91.7865 134.688 91.9375C134.302 92.0833 133.865 92.1562 133.375 92.1562C132.823 92.1562 132.341 92.0521 131.93 91.8438C131.523 91.6354 131.206 91.3516 130.977 90.9922C130.753 90.6276 130.641 90.2161 130.641 89.7578C130.641 89.3411 130.729 88.9688 130.906 88.6406C131.083 88.3073 131.339 88.026 131.672 87.7969C132.01 87.5625 132.417 87.3854 132.891 87.2656C133.37 87.1406 133.906 87.0781 134.5 87.0781H136.445ZM140.703 83.5469V92H139.773V83.5469H140.703ZM139.609 81.1016C139.609 80.9245 139.664 80.776 139.773 80.6562C139.888 80.5312 140.044 80.4688 140.242 80.4688C140.44 80.4688 140.596 80.5312 140.711 80.6562C140.831 80.776 140.891 80.9245 140.891 81.1016C140.891 81.2734 140.831 81.4219 140.711 81.5469C140.596 81.6667 140.44 81.7266 140.242 81.7266C140.044 81.7266 139.888 81.6667 139.773 81.5469C139.664 81.4219 139.609 81.2734 139.609 81.1016ZM144.297 80V92H143.367V80H144.297ZM151.914 89.8438C151.914 89.6146 151.857 89.388 151.742 89.1641C151.628 88.9401 151.406 88.7344 151.078 88.5469C150.755 88.3594 150.279 88.2005 149.648 88.0703C149.18 87.9661 148.76 87.849 148.391 87.7188C148.026 87.5885 147.719 87.4323 147.469 87.25C147.219 87.0677 147.029 86.849 146.898 86.5938C146.768 86.3385 146.703 86.0365 146.703 85.6875C146.703 85.375 146.771 85.0807 146.906 84.8047C147.047 84.5234 147.245 84.2786 147.5 84.0703C147.76 83.8568 148.073 83.6901 148.438 83.5703C148.807 83.4505 149.221 83.3906 149.68 83.3906C150.331 83.3906 150.888 83.5026 151.352 83.7266C151.82 83.9453 152.177 84.2448 152.422 84.625C152.672 85.0052 152.797 85.4349 152.797 85.9141H151.867C151.867 85.6224 151.781 85.3464 151.609 85.0859C151.443 84.8255 151.195 84.612 150.867 84.4453C150.544 84.2786 150.148 84.1953 149.68 84.1953C149.195 84.1953 148.802 84.2682 148.5 84.4141C148.198 84.5599 147.977 84.7448 147.836 84.9688C147.701 85.1927 147.633 85.4245 147.633 85.6641C147.633 85.8516 147.661 86.0234 147.719 86.1797C147.781 86.3307 147.891 86.4714 148.047 86.6016C148.208 86.7318 148.438 86.8542 148.734 86.9688C149.031 87.0833 149.417 87.1953 149.891 87.3047C150.573 87.4557 151.13 87.6406 151.562 87.8594C152 88.0729 152.323 88.3385 152.531 88.6562C152.74 88.9688 152.844 89.349 152.844 89.7969C152.844 90.1458 152.771 90.4661 152.625 90.7578C152.479 91.0443 152.268 91.2917 151.992 91.5C151.721 91.7083 151.393 91.8698 151.008 91.9844C150.628 92.099 150.201 92.1562 149.727 92.1562C149.013 92.1562 148.409 92.0391 147.914 91.8047C147.424 91.5651 147.052 91.2526 146.797 90.8672C146.547 90.4766 146.422 90.0625 146.422 89.625H147.352C147.383 90.0625 147.521 90.4089 147.766 90.6641C148.01 90.9141 148.31 91.0911 148.664 91.1953C149.023 91.2995 149.378 91.3516 149.727 91.3516C150.206 91.3516 150.607 91.2812 150.93 91.1406C151.253 91 151.497 90.8151 151.664 90.5859C151.831 90.3568 151.914 90.1094 151.914 89.8438ZM156.008 80.625L155.953 88.8281H155.094L155.039 80.625H156.008ZM154.938 91.4453C154.938 91.2682 154.992 91.1198 155.102 91C155.216 90.875 155.375 90.8125 155.578 90.8125C155.776 90.8125 155.932 90.875 156.047 91C156.167 91.1198 156.227 91.2682 156.227 91.4453C156.227 91.6172 156.167 91.7656 156.047 91.8906C155.932 92.0104 155.776 92.0703 155.578 92.0703C155.375 92.0703 155.216 92.0104 155.102 91.8906C154.992 91.7656 154.938 91.6172 154.938 91.4453Z" fill="black"/>
<path d="M75.3018 11.8623L75.4932 13.1748L75.7734 11.9922L77.7422 5.04688H78.8496L80.7705 11.9922L81.0439 13.1953L81.2559 11.8555L82.8008 5.04688H84.1201L81.707 15H80.5107L78.46 7.74707L78.3027 6.98828L78.1455 7.74707L76.0195 15H74.8232L72.417 5.04688H73.7295L75.3018 11.8623ZM84.8311 11.2334C84.8311 10.5088 84.9723 9.8571 85.2549 9.27832C85.542 8.69954 85.9385 8.25293 86.4443 7.93848C86.9548 7.62402 87.5358 7.4668 88.1875 7.4668C89.1947 7.4668 90.0081 7.81543 90.6279 8.5127C91.2523 9.20996 91.5645 10.1374 91.5645 11.2949V11.3838C91.5645 12.1038 91.4255 12.751 91.1475 13.3252C90.874 13.8949 90.4798 14.3392 89.9648 14.6582C89.4544 14.9772 88.8665 15.1367 88.2012 15.1367C87.1986 15.1367 86.3851 14.7881 85.7607 14.0908C85.141 13.3936 84.8311 12.4707 84.8311 11.3223V11.2334ZM86.1025 11.3838C86.1025 12.2041 86.2917 12.8626 86.6699 13.3594C87.0527 13.8561 87.5632 14.1045 88.2012 14.1045C88.8438 14.1045 89.3542 13.8538 89.7324 13.3525C90.1107 12.8467 90.2998 12.1403 90.2998 11.2334C90.2998 10.4222 90.1061 9.76595 89.7188 9.26465C89.3359 8.75879 88.8255 8.50586 88.1875 8.50586C87.5632 8.50586 87.0596 8.75423 86.6768 9.25098C86.2939 9.74772 86.1025 10.4587 86.1025 11.3838ZM96.7256 8.73828C96.5342 8.70638 96.3268 8.69043 96.1035 8.69043C95.2741 8.69043 94.7113 9.04362 94.415 9.75V15H93.1504V7.60352H94.3809L94.4014 8.45801C94.8161 7.7972 95.404 7.4668 96.165 7.4668C96.4111 7.4668 96.598 7.4987 96.7256 7.5625V8.73828ZM99.959 11.5752L99.166 12.4023V15H97.9014V4.5H99.166V10.8506L99.8428 10.0371L102.146 7.60352H103.685L100.807 10.6934L104.02 15H102.536L99.959 11.5752Z" fill="#808080"/>
<rect x="39" y="3" width="100" height="16" rx="8" fill="#FFCDCD"/>
<path d="M75.3018 12.8623L75.4932 14.1748L75.7734 12.9922L77.7422 6.04688H78.8496L80.7705 12.9922L81.0439 14.1953L81.2559 12.8555L82.8008 6.04688H84.1201L81.707 16H80.5107L78.46 8.74707L78.3027 7.98828L78.1455 8.74707L76.0195 16H74.8232L72.417 6.04688H73.7295L75.3018 12.8623ZM84.8311 12.2334C84.8311 11.5088 84.9723 10.8571 85.2549 10.2783C85.542 9.69954 85.9385 9.25293 86.4443 8.93848C86.9548 8.62402 87.5358 8.4668 88.1875 8.4668C89.1947 8.4668 90.0081 8.81543 90.6279 9.5127C91.2523 10.21 91.5645 11.1374 91.5645 12.2949V12.3838C91.5645 13.1038 91.4255 13.751 91.1475 14.3252C90.874 14.8949 90.4798 15.3392 89.9648 15.6582C89.4544 15.9772 88.8665 16.1367 88.2012 16.1367C87.1986 16.1367 86.3851 15.7881 85.7607 15.0908C85.141 14.3936 84.8311 13.4707 84.8311 12.3223V12.2334ZM86.1025 12.3838C86.1025 13.2041 86.2917 13.8626 86.6699 14.3594C87.0527 14.8561 87.5632 15.1045 88.2012 15.1045C88.8438 15.1045 89.3542 14.8538 89.7324 14.3525C90.1107 13.8467 90.2998 13.1403 90.2998 12.2334C90.2998 11.4222 90.1061 10.766 89.7188 10.2646C89.3359 9.75879 88.8255 9.50586 88.1875 9.50586C87.5632 9.50586 87.0596 9.75423 86.6768 10.251C86.2939 10.7477 86.1025 11.4587 86.1025 12.3838ZM96.7256 9.73828C96.5342 9.70638 96.3268 9.69043 96.1035 9.69043C95.2741 9.69043 94.7113 10.0436 94.415 10.75V16H93.1504V8.60352H94.3809L94.4014 9.45801C94.8161 8.7972 95.404 8.4668 96.165 8.4668C96.4111 8.4668 96.598 8.4987 96.7256 8.5625V9.73828ZM99.959 12.5752L99.166 13.4023V16H97.9014V5.5H99.166V11.8506L99.8428 11.0371L102.146 8.60352H103.685L100.807 11.6934L104.02 16H102.536L99.959 12.5752Z" fill="#808080"/>
<defs>
<filter id="filter0_d_3853_2" x="0" y="0" width="358" height="136" filterUnits="userSpaceOnUse" color-interpolation-filters="sRGB">
<feFlood flood-opacity="0" result="BackgroundImageFix"/>
<feColorMatrix in="SourceAlpha" type="matrix" values="0 0 0 0 0 0 0 0 0 0 0 0 0 0 0 0 0 0 127 0" result="hardAlpha"/>
<feOffset dx="1" dy="1"/>
<feGaussianBlur stdDeviation="2"/>
<feColorMatrix type="matrix" values="0 0 0 0 0 0 0 0 0 0 0 0 0 0 0 0 0 0 0.25 0"/>
<feBlend mode="normal" in2="BackgroundImageFix" result="effect1_dropShadow_3853_2"/>
<feBlend mode="normal" in="SourceGraphic" in2="effect1_dropShadow_3853_2" result="shape"/>
</filter>
</defs>
</svg>
