<svg width="105" height="29" viewBox="0 0 105 29" fill="none" xmlns="http://www.w3.org/2000/svg">
<path fill-rule="evenodd" clip-rule="evenodd" d="M35.9748 4.70673H32.2257C32.2031 4.60726 32.1704 4.49933 32.1245 4.34762L32.1244 4.34727L32.1243 4.34709C32.0998 4.26622 32.0716 4.17292 32.0391 4.06185C31.6747 3.1248 31.2227 2.22448 30.6891 1.37293C30.3783 0.89799 29.9708 0.49454 29.4933 0.189164C29.2278 0.0162765 29.0798 0 28.6947 0C28.3767 0 28.342 0.0291194 28.2289 0.12399C28.205 0.144023 28.1776 0.166988 28.1434 0.19323C27.9801 0.318208 27.9818 0.391298 27.987 0.624429C27.9881 0.672063 27.9893 0.726379 27.9893 0.789183C27.9916 0.932542 28.0361 1.07201 28.1173 1.19001C28.1985 1.30801 28.3126 1.39927 28.4454 1.45226C29.0417 1.83049 29.5991 2.26723 30.1094 2.75604C30.6306 3.31581 31.0263 3.98092 31.2702 4.70673H27.3321C26.7692 4.73163 26.2188 4.88169 25.7207 5.14607C24.5794 5.81735 23.7315 6.89481 23.3452 8.16449C22.8182 10.0052 24.0445 10.3571 24.5857 10.3571L38.7739 10.3592C40.1745 10.3592 40.3651 9.11233 40.1624 8.45942C39.6005 6.72151 39.012 6.17742 38.6565 5.8487L38.6564 5.84865C38.6079 5.80383 38.5638 5.76301 38.5246 5.72372C38.0301 5.3454 37.1362 4.70673 35.9748 4.70673ZM4.46932 14.6065V28.0633H0V3.94028L14.391 17.6473V4.01961H18.8786V28.1304L4.46932 14.6065ZM81.6187 3.99156L84.7827 8.40935H77.2204V28.0799H72.5585V8.40935H67.4912L64.4631 3.99156H81.6187ZM103.635 15.3314C102.724 14.3008 101.399 13.7855 99.6584 13.7855H91.867C91.2751 13.6065 90.8596 13.3665 90.6123 13.0635C90.3651 12.7604 90.2434 12.2133 90.2434 11.3997C90.3218 10.0789 90.4867 9.27824 90.738 8.99755C91.0433 8.6872 91.4384 8.48149 91.867 8.40973H104.49L100.875 3.99194H92.2176C91.2609 3.96704 90.3102 4.15022 89.4307 4.5289C88.6821 4.86618 88.0293 5.38563 87.5315 6.04015C87.0151 6.74644 86.645 7.5494 86.443 8.4016C86.1997 9.41026 86.0819 10.4453 86.0924 11.4831C86.0828 12.4336 86.1897 13.3818 86.4106 14.3062C86.5929 15.0926 86.9284 15.835 87.3977 16.4907C87.8089 17.0688 88.3922 17.5011 89.0638 17.7253C89.837 17.959 90.6421 18.0695 91.4495 18.0528H99.2165C99.453 18.0431 99.6887 18.087 99.9059 18.1814C100.123 18.2758 100.316 18.4182 100.471 18.5979C100.783 18.9613 100.973 19.7146 101.041 20.8577C100.973 22.078 100.783 22.9208 100.471 23.3859C100.34 23.6012 100.156 23.7786 99.9357 23.9005C99.7157 24.0225 99.4678 24.0849 99.2165 24.0815H85.5228L88.4699 28.0803H98.8719C99.8314 28.107 100.785 27.9238 101.667 27.5433C102.421 27.1981 103.075 26.6662 103.568 25.9975C104.097 25.2528 104.468 24.4067 104.657 23.512C104.896 22.4193 105.011 21.303 104.999 20.1844C105.001 17.9796 104.546 16.3619 103.635 15.3314ZM31.7105 28.0787C29.6502 26.9689 27.8273 25.4638 26.3453 23.6487C24.6646 21.6908 23.5506 19.3082 23.1245 16.7597C22.9786 15.9461 22.9725 14.9291 22.9604 12.8687L22.9602 12.7815C22.9591 12.2606 22.958 11.738 23.3151 11.3778C23.5891 11.1312 23.9443 10.995 24.3123 10.9954C26.6453 10.8611 31.2038 10.8998 31.2038 10.8998C31.5467 10.903 32.1319 10.8992 32.8399 10.8947H32.84H32.8402H32.8403H32.8404H32.8405C34.8483 10.8819 37.8441 10.8628 39.1087 10.9771C39.3752 10.9936 39.6316 11.0852 39.8485 11.2415C40.3998 11.6706 40.4363 12.4944 40.4424 12.9337C40.4991 16.5074 39.8059 18.5414 39.8059 18.5414C38.4178 22.6399 35.5219 26.0515 31.7105 28.0787ZM47.9317 23.6487C49.4135 25.4632 51.2356 26.9683 53.2949 28.0787C57.1061 26.0518 60.0014 22.64 61.3883 18.5414C61.3883 18.5414 62.0815 16.5074 62.0268 12.9337C62.0207 12.4944 61.9822 11.6706 61.4309 11.2415C61.215 11.0848 60.9591 10.9931 60.6931 10.9771C59.4284 10.8628 56.4312 10.8819 54.4235 10.8947H54.4234H54.4233C53.7154 10.8992 53.1306 10.903 52.7882 10.8998C52.7882 10.8998 48.2317 10.8611 45.8967 10.9954C45.5294 10.9955 45.175 11.1317 44.9015 11.3778C44.5444 11.738 44.5456 12.2606 44.5467 12.7815L44.5468 12.8687C44.559 14.9291 44.565 15.9461 44.711 16.7597C45.1371 19.3082 46.251 21.6908 47.9317 23.6487ZM46.1724 10.3571C45.6313 10.3571 44.405 10.0052 44.9299 8.16449C45.3162 6.89481 46.1642 5.81735 47.3055 5.14607C47.8038 4.88219 48.354 4.73216 48.9169 4.70673H52.8567C52.6128 3.98092 52.2171 3.31581 51.6959 2.75604C51.1856 2.26723 50.6282 1.83049 50.0319 1.45226C49.8991 1.39927 49.7849 1.30801 49.7038 1.19001C49.6226 1.07201 49.5781 0.932542 49.5758 0.789183C49.5758 0.724093 49.5744 0.668121 49.5732 0.619256C49.5676 0.390208 49.5658 0.317279 49.7278 0.19323C49.762 0.167096 49.7893 0.144213 49.8131 0.124238C49.9265 0.0291702 49.9613 0 50.2812 0C50.6683 0 50.8143 0.0162765 51.0777 0.189164C51.5564 0.493727 51.9648 0.897304 52.2756 1.37293C52.8083 2.22494 53.2603 3.12518 53.6256 4.06185C53.6581 4.17288 53.6863 4.26615 53.7108 4.347C53.7569 4.49903 53.7896 4.60713 53.8122 4.70673H57.5596C58.723 4.70673 59.6149 5.3454 60.1114 5.72372C60.1511 5.76372 60.1959 5.80529 60.2453 5.85106L60.2453 5.85112C60.6002 6.18009 61.1887 6.72576 61.7492 8.45942C61.9519 9.11233 61.7613 10.3592 60.3608 10.3592L46.1724 10.3571Z" fill="white"/>
</svg>
