<svg width="809" height="258" viewBox="0 0 809 258" fill="none" xmlns="http://www.w3.org/2000/svg">
<rect width="808.657" height="258" rx="25" fill="#EBFFEC"/>
<path d="M95.1103 232.971H80.7603V230.97L88.3414 222.546C89.4646 221.273 90.2367 220.24 90.6579 219.448C91.0891 218.646 91.3047 217.818 91.3047 216.966C91.3047 215.823 90.9587 214.885 90.2668 214.153C89.5749 213.421 88.6523 213.055 87.4991 213.055C86.1152 213.055 85.0372 213.451 84.2651 214.243C83.5029 215.025 83.1219 216.118 83.1219 217.522H80.3391C80.3391 215.507 80.9859 213.877 82.2795 212.634C83.5832 211.39 85.323 210.769 87.4991 210.769C89.5348 210.769 91.1443 211.305 92.3276 212.378C93.5109 213.441 94.1025 214.86 94.1025 216.635C94.1025 218.791 92.7287 221.358 89.981 224.336L84.1146 230.699H95.1103V232.971Z" fill="#C4C4C4"/>
<path d="M112.198 212.634L103.128 232.971H100.21L109.25 213.356H97.3967V211.069H112.198V212.634Z" fill="#C4C4C4"/>
<path d="M115.703 231.511C115.703 231.03 115.843 230.629 116.124 230.308C116.415 229.987 116.846 229.827 117.418 229.827C117.989 229.827 118.42 229.987 118.711 230.308C119.012 230.629 119.162 231.03 119.162 231.511C119.162 231.973 119.012 232.359 118.711 232.67C118.42 232.981 117.989 233.136 117.418 233.136C116.846 233.136 116.415 232.981 116.124 232.67C115.843 232.359 115.703 231.973 115.703 231.511Z" fill="#C4C4C4"/>
<path d="M137.213 223.629C137.213 226.889 136.656 229.31 135.543 230.895C134.43 232.479 132.69 233.271 130.324 233.271C127.987 233.271 126.257 232.499 125.134 230.955C124.011 229.401 123.429 227.084 123.389 224.005V220.29C123.389 217.071 123.946 214.679 125.059 213.115C126.172 211.551 127.917 210.769 130.294 210.769C132.65 210.769 134.385 211.526 135.498 213.04C136.611 214.544 137.183 216.871 137.213 220.019V223.629ZM134.43 219.824C134.43 217.467 134.099 215.752 133.437 214.679C132.775 213.596 131.728 213.055 130.294 213.055C128.87 213.055 127.832 213.591 127.18 214.664C126.528 215.737 126.192 217.387 126.172 219.613V224.066C126.172 226.432 126.513 228.182 127.195 229.315C127.887 230.438 128.93 231 130.324 231C131.697 231 132.715 230.469 133.377 229.406C134.049 228.343 134.4 226.668 134.43 224.382V219.824Z" fill="#C4C4C4"/>
<path d="M151.698 211.054V213.416H151.187C149.021 213.456 147.296 214.098 146.012 215.341C144.729 216.585 143.987 218.335 143.786 220.591C144.939 219.267 146.514 218.605 148.509 218.605C150.415 218.605 151.934 219.277 153.067 220.621C154.21 221.965 154.782 223.7 154.782 225.826C154.782 228.082 154.165 229.887 152.932 231.241C151.708 232.594 150.064 233.271 147.998 233.271C145.902 233.271 144.202 232.469 142.899 230.865C141.595 229.25 140.943 227.174 140.943 224.637V223.569C140.943 219.538 141.801 216.459 143.515 214.334C145.24 212.198 147.802 211.104 151.202 211.054H151.698ZM148.043 220.922C147.09 220.922 146.213 221.208 145.411 221.779C144.608 222.351 144.052 223.068 143.741 223.93V224.953C143.741 226.758 144.147 228.212 144.959 229.315C145.772 230.418 146.785 230.97 147.998 230.97C149.251 230.97 150.234 230.509 150.946 229.586C151.668 228.663 152.029 227.455 152.029 225.961C152.029 224.457 151.663 223.243 150.931 222.321C150.209 221.388 149.246 220.922 148.043 220.922Z" fill="#C4C4C4"/>
<path d="M158.422 231.511C158.422 231.03 158.562 230.629 158.843 230.308C159.134 229.987 159.565 229.827 160.137 229.827C160.708 229.827 161.14 229.987 161.43 230.308C161.731 230.629 161.882 231.03 161.882 231.511C161.882 231.973 161.731 232.359 161.43 232.67C161.14 232.981 160.708 233.136 160.137 233.136C159.565 233.136 159.134 232.981 158.843 232.67C158.562 232.359 158.422 231.973 158.422 231.511Z" fill="#C4C4C4"/>
<path d="M180.549 232.971H166.199V230.97L173.78 222.546C174.903 221.273 175.675 220.24 176.096 219.448C176.528 218.646 176.743 217.818 176.743 216.966C176.743 215.823 176.397 214.885 175.705 214.153C175.013 213.421 174.091 213.055 172.938 213.055C171.554 213.055 170.476 213.451 169.703 214.243C168.941 215.025 168.56 216.118 168.56 217.522H165.778C165.778 215.507 166.424 213.877 167.718 212.634C169.022 211.39 170.761 210.769 172.938 210.769C174.973 210.769 176.583 211.305 177.766 212.378C178.949 213.441 179.541 214.86 179.541 216.635C179.541 218.791 178.167 221.358 175.419 224.336L169.553 230.699H180.549V232.971Z" fill="#C4C4C4"/>
<path d="M197.23 223.629C197.23 226.889 196.674 229.31 195.561 230.895C194.448 232.479 192.708 233.271 190.341 233.271C188.005 233.271 186.275 232.499 185.152 230.955C184.028 229.401 183.447 227.084 183.407 224.005V220.29C183.407 217.071 183.963 214.679 185.076 213.115C186.19 211.551 187.934 210.769 190.311 210.769C192.668 210.769 194.402 211.526 195.516 213.04C196.629 214.544 197.2 216.871 197.23 220.019V223.629ZM194.448 219.824C194.448 217.467 194.117 215.752 193.455 214.679C192.793 213.596 191.745 213.055 190.311 213.055C188.887 213.055 187.849 213.591 187.197 214.664C186.545 215.737 186.21 217.387 186.19 219.613V224.066C186.19 226.432 186.53 228.182 187.212 229.315C187.904 230.438 188.947 231 190.341 231C191.715 231 192.733 230.469 193.395 229.406C194.066 228.343 194.417 226.668 194.448 224.382V219.824Z" fill="#C4C4C4"/>
<path d="M115.823 86.7327H102.406V123.225H93.3807V86.7327H80.1438V79.4223H115.823V86.7327Z" fill="black"/>
<path d="M129.602 123.225H120.877V90.6737H129.602V123.225ZM120.366 82.2502C120.366 80.9466 120.797 79.8736 121.66 79.0312C122.542 78.1889 123.735 77.7677 125.24 77.7677C126.724 77.7677 127.907 78.1889 128.79 79.0312C129.672 79.8736 130.113 80.9466 130.113 82.2502C130.113 83.5739 129.662 84.6569 128.759 85.4993C127.877 86.3417 126.704 86.7628 125.24 86.7628C123.776 86.7628 122.592 86.3417 121.69 85.4993C120.807 84.6569 120.366 83.5739 120.366 82.2502Z" fill="black"/>
<path d="M147.201 82.6714V90.6737H152.766V97.0515H147.201V113.297C147.201 114.5 147.432 115.363 147.893 115.884C148.354 116.406 149.237 116.666 150.54 116.666C151.503 116.666 152.355 116.596 153.097 116.456V123.044C151.393 123.566 149.638 123.826 147.833 123.826C141.736 123.826 138.627 120.748 138.507 114.59V97.0515H133.753V90.6737H138.507V82.6714H147.201Z" fill="black"/>
<path d="M166.786 123.225H158.061V77.0156H166.786V123.225Z" fill="black"/>
<path d="M188.957 123.826C184.184 123.826 180.293 122.362 177.285 119.434C174.297 116.506 172.802 112.605 172.802 107.731V106.889C172.802 103.62 173.434 100.702 174.698 98.1346C175.961 95.5473 177.746 93.5618 180.053 92.1779C182.379 90.774 185.026 90.0721 187.995 90.0721C192.447 90.0721 195.947 91.476 198.494 94.2838C201.061 97.0916 202.345 101.073 202.345 106.227V109.777H181.617C181.898 111.903 182.74 113.608 184.144 114.891C185.568 116.175 187.363 116.817 189.529 116.817C192.878 116.817 195.496 115.603 197.381 113.177L201.653 117.96C200.349 119.805 198.584 121.249 196.358 122.292C194.132 123.315 191.665 123.826 188.957 123.826ZM187.965 97.1117C186.24 97.1117 184.836 97.6933 183.753 98.8566C182.69 100.02 182.008 101.684 181.707 103.851H193.801V103.159C193.761 101.233 193.239 99.7491 192.237 98.7062C191.234 97.6432 189.81 97.1117 187.965 97.1117Z" fill="black"/>
<rect x="71.2388" width="213.716" height="38.5075" rx="19.2537" fill="#FFFDCD"/>
<rect x="304.209" width="213.716" height="38.5075" rx="19.2537" fill="#FFCDCD"/>
<rect x="548.731" width="86.6418" height="38.5075" rx="19.2537" fill="#FAFAFA"/>
<path d="M82.3999 175.209V147.832H90.0525C92.2963 147.832 94.3081 148.346 96.0881 149.374C97.8681 150.389 99.2532 151.85 100.243 153.755C101.246 155.66 101.748 157.829 101.748 160.261V162.78C101.748 165.225 101.253 167.393 100.262 169.286C99.272 171.179 97.8743 172.639 96.0693 173.667C94.2768 174.695 92.2148 175.209 89.8833 175.209H82.3999ZM84.7126 149.807V173.253H89.9021C92.7851 173.253 95.0978 172.301 96.8402 170.395C98.5826 168.477 99.4537 165.889 99.4537 162.63V160.223C99.4537 157.077 98.5951 154.557 96.8778 152.665C95.1605 150.772 92.8979 149.819 90.0901 149.807H84.7126Z" fill="black"/>
<path d="M114.985 175.585C113.255 175.585 111.688 175.159 110.284 174.306C108.893 173.454 107.808 172.269 107.031 170.753C106.254 169.223 105.865 167.512 105.865 165.619V164.811C105.865 162.855 106.241 161.094 106.994 159.527C107.758 157.961 108.817 156.732 110.171 155.842C111.525 154.94 112.992 154.488 114.571 154.488C117.04 154.488 118.996 155.335 120.437 157.027C121.891 158.706 122.618 161.007 122.618 163.927V165.187H108.103V165.619C108.103 167.926 108.761 169.85 110.077 171.392C111.406 172.921 113.073 173.686 115.079 173.686C116.282 173.686 117.341 173.466 118.256 173.028C119.184 172.589 120.024 171.887 120.776 170.922L122.186 171.994C120.531 174.388 118.131 175.585 114.985 175.585ZM114.571 156.406C112.879 156.406 111.45 157.027 110.284 158.268C109.131 159.509 108.429 161.176 108.178 163.269H120.381V163.025C120.318 161.069 119.76 159.477 118.707 158.249C117.655 157.02 116.276 156.406 114.571 156.406Z" fill="black"/>
<path d="M139.183 170.038C139.183 168.922 138.732 168.026 137.83 167.349C136.94 166.672 135.592 166.146 133.787 165.77C131.982 165.381 130.578 164.943 129.575 164.454C128.585 163.952 127.845 163.344 127.357 162.63C126.88 161.915 126.642 161.05 126.642 160.035C126.642 158.431 127.313 157.108 128.654 156.068C129.995 155.015 131.713 154.488 133.806 154.488C136.075 154.488 137.892 155.052 139.259 156.181C140.637 157.296 141.327 158.757 141.327 160.562H139.071C139.071 159.371 138.569 158.381 137.566 157.591C136.576 156.801 135.323 156.406 133.806 156.406C132.327 156.406 131.136 156.738 130.233 157.403C129.343 158.055 128.898 158.907 128.898 159.96C128.898 160.975 129.268 161.765 130.008 162.329C130.76 162.881 132.12 163.388 134.088 163.852C136.068 164.316 137.548 164.811 138.525 165.337C139.516 165.864 140.249 166.497 140.725 167.236C141.201 167.976 141.44 168.872 141.44 169.925C141.44 171.643 140.744 173.015 139.353 174.043C137.974 175.071 136.169 175.585 133.937 175.585C131.568 175.585 129.644 175.014 128.165 173.874C126.699 172.721 125.965 171.266 125.965 169.512H128.222C128.309 170.828 128.861 171.856 129.876 172.595C130.904 173.322 132.258 173.686 133.937 173.686C135.504 173.686 136.77 173.341 137.736 172.652C138.701 171.962 139.183 171.091 139.183 170.038Z" fill="black"/>
<path d="M154.037 173.686C155.604 173.686 156.914 173.247 157.967 172.37C159.033 171.48 159.609 170.333 159.697 168.929H161.859C161.796 170.17 161.408 171.304 160.693 172.332C159.979 173.347 159.026 174.143 157.835 174.72C156.657 175.296 155.391 175.585 154.037 175.585C151.367 175.585 149.249 174.657 147.682 172.802C146.128 170.947 145.351 168.452 145.351 165.319V164.642C145.351 162.636 145.702 160.862 146.404 159.321C147.105 157.779 148.108 156.588 149.412 155.748C150.728 154.908 152.264 154.488 154.019 154.488C156.25 154.488 158.086 155.153 159.528 156.481C160.982 157.81 161.759 159.559 161.859 161.727H159.697C159.597 160.135 159.02 158.851 157.967 157.873C156.927 156.895 155.61 156.406 154.019 156.406C151.988 156.406 150.408 157.14 149.28 158.606C148.165 160.073 147.607 162.128 147.607 164.773V165.431C147.607 168.026 148.165 170.051 149.28 171.505C150.408 172.959 151.994 173.686 154.037 173.686Z" fill="black"/>
<path d="M175.773 156.782C175.297 156.695 174.789 156.651 174.25 156.651C172.846 156.651 171.655 157.046 170.678 157.835C169.712 158.612 169.023 159.747 168.609 161.238V175.209H166.372V154.864H168.572L168.609 158.098C169.8 155.692 171.712 154.488 174.344 154.488C174.971 154.488 175.466 154.57 175.829 154.733L175.773 156.782Z" fill="black"/>
<path d="M181.865 175.209H179.609V154.864H181.865V175.209ZM179.214 148.979C179.214 148.553 179.352 148.196 179.627 147.908C179.903 147.607 180.279 147.456 180.756 147.456C181.232 147.456 181.608 147.607 181.884 147.908C182.172 148.196 182.316 148.553 182.316 148.979C182.316 149.405 182.172 149.763 181.884 150.051C181.608 150.339 181.232 150.483 180.756 150.483C180.279 150.483 179.903 150.339 179.627 150.051C179.352 149.763 179.214 149.405 179.214 148.979Z" fill="black"/>
<path d="M204.353 165.243C204.353 168.415 203.651 170.934 202.247 172.802C200.843 174.657 198.963 175.585 196.606 175.585C193.823 175.585 191.692 174.607 190.213 172.652V183.031H187.976V154.864H190.063L190.176 157.741C191.642 155.573 193.767 154.488 196.55 154.488C198.981 154.488 200.887 155.41 202.266 157.252C203.657 159.095 204.353 161.652 204.353 164.924V165.243ZM202.096 164.849C202.096 162.254 201.564 160.204 200.498 158.7C199.433 157.196 197.947 156.444 196.042 156.444C194.663 156.444 193.479 156.776 192.488 157.44C191.498 158.105 190.74 159.07 190.213 160.336V170.094C190.752 171.26 191.523 172.15 192.526 172.764C193.529 173.379 194.713 173.686 196.08 173.686C197.972 173.686 199.445 172.934 200.498 171.429C201.564 169.913 202.096 167.719 202.096 164.849Z" fill="black"/>
<path d="M212.851 149.656V154.864H217.063V156.707H212.851V170.264C212.851 171.392 213.052 172.232 213.453 172.783C213.867 173.335 214.55 173.611 215.503 173.611C215.879 173.611 216.487 173.548 217.326 173.422L217.42 175.265C216.831 175.478 216.029 175.585 215.014 175.585C213.472 175.585 212.35 175.14 211.648 174.25C210.946 173.347 210.595 172.025 210.595 170.282V156.707H206.853V154.864H210.595V149.656H212.851Z" fill="black"/>
<path d="M224.246 175.209H221.989V154.864H224.246V175.209ZM221.595 148.979C221.595 148.553 221.732 148.196 222.008 147.908C222.284 147.607 222.66 147.456 223.136 147.456C223.613 147.456 223.989 147.607 224.265 147.908C224.553 148.196 224.697 148.553 224.697 148.979C224.697 149.405 224.553 149.763 224.265 150.051C223.989 150.339 223.613 150.483 223.136 150.483C222.66 150.483 222.284 150.339 222.008 150.051C221.732 149.763 221.595 149.405 221.595 148.979Z" fill="black"/>
<path d="M229.134 164.736C229.134 162.78 229.51 161.019 230.263 159.452C231.027 157.885 232.099 156.669 233.478 155.805C234.869 154.927 236.442 154.488 238.197 154.488C240.905 154.488 243.098 155.441 244.778 157.346C246.458 159.239 247.298 161.752 247.298 164.886V165.356C247.298 167.324 246.915 169.098 246.151 170.677C245.399 172.244 244.333 173.454 242.954 174.306C241.575 175.159 240.002 175.585 238.235 175.585C235.54 175.585 233.346 174.638 231.654 172.746C229.974 170.84 229.134 168.321 229.134 165.187V164.736ZM231.391 165.356C231.391 167.788 232.017 169.787 233.271 171.354C234.537 172.909 236.192 173.686 238.235 173.686C240.265 173.686 241.908 172.909 243.161 171.354C244.427 169.787 245.06 167.725 245.06 165.168V164.736C245.06 163.181 244.772 161.759 244.195 160.468C243.619 159.176 242.81 158.18 241.77 157.478C240.729 156.763 239.538 156.406 238.197 156.406C236.192 156.406 234.556 157.196 233.29 158.775C232.024 160.342 231.391 162.398 231.391 164.943V165.356Z" fill="black"/>
<path d="M254.104 154.864L254.179 158.343C254.944 157.089 255.897 156.137 257.037 155.485C258.178 154.821 259.438 154.488 260.817 154.488C262.998 154.488 264.621 155.103 265.686 156.331C266.752 157.559 267.291 159.402 267.303 161.859V175.209H265.066V161.84C265.053 160.023 264.665 158.669 263.9 157.779C263.148 156.889 261.938 156.444 260.271 156.444C258.88 156.444 257.645 156.883 256.567 157.76C255.502 158.625 254.712 159.797 254.198 161.276V175.209H251.961V154.864H254.104Z" fill="black"/>
<path d="M298.873 165.243C298.873 168.415 298.171 170.934 296.767 172.802C295.363 174.657 293.476 175.585 291.107 175.585C288.274 175.585 286.131 174.532 284.677 172.426L284.583 175.209H282.477V146.328H284.714V157.816C286.143 155.598 288.262 154.488 291.07 154.488C293.476 154.488 295.375 155.41 296.767 157.252C298.171 159.082 298.873 161.633 298.873 164.905V165.243ZM296.616 164.849C296.616 162.166 296.096 160.098 295.056 158.644C294.015 157.177 292.549 156.444 290.656 156.444C289.215 156.444 287.992 156.801 286.99 157.516C285.987 158.218 285.228 159.252 284.714 160.618V169.794C285.843 172.351 287.836 173.629 290.694 173.629C292.549 173.629 293.997 172.896 295.037 171.429C296.09 169.963 296.616 167.769 296.616 164.849Z" fill="black"/>
<path d="M306.375 175.209H304.119V146.328H306.375V175.209Z" fill="black"/>
<path d="M325.347 175.209C325.121 174.569 324.977 173.623 324.914 172.37C324.124 173.397 323.115 174.193 321.887 174.757C320.671 175.309 319.38 175.585 318.014 175.585C316.058 175.585 314.473 175.04 313.257 173.949C312.053 172.858 311.452 171.48 311.452 169.812C311.452 167.832 312.273 166.265 313.915 165.112C315.569 163.959 317.87 163.382 320.815 163.382H324.895V161.069C324.895 159.615 324.444 158.475 323.542 157.647C322.652 156.807 321.348 156.387 319.631 156.387C318.064 156.387 316.766 156.789 315.739 157.591C314.711 158.393 314.197 159.358 314.197 160.486L311.94 160.468C311.94 158.851 312.693 157.453 314.197 156.275C315.701 155.084 317.55 154.488 319.743 154.488C322.012 154.488 323.799 155.059 325.102 156.199C326.418 157.328 327.095 158.907 327.133 160.938V170.565C327.133 172.533 327.34 174.005 327.753 174.983V175.209H325.347ZM318.277 173.592C319.781 173.592 321.122 173.228 322.301 172.501C323.491 171.774 324.356 170.803 324.895 169.587V165.112H320.872C318.628 165.137 316.873 165.551 315.607 166.353C314.341 167.142 313.708 168.233 313.708 169.624C313.708 170.765 314.128 171.711 314.968 172.464C315.82 173.216 316.923 173.592 318.277 173.592Z" fill="black"/>
<path d="M358.89 165.243C358.89 168.415 358.188 170.934 356.784 172.802C355.38 174.657 353.494 175.585 351.125 175.585C348.292 175.585 346.148 174.532 344.694 172.426L344.6 175.209H342.494V146.328H344.732V157.816C346.161 155.598 348.279 154.488 351.087 154.488C353.494 154.488 355.393 155.41 356.784 157.252C358.188 159.082 358.89 161.633 358.89 164.905V165.243ZM356.634 164.849C356.634 162.166 356.114 160.098 355.073 158.644C354.033 157.177 352.566 156.444 350.674 156.444C349.232 156.444 348.01 156.801 347.007 157.516C346.004 158.218 345.246 159.252 344.732 160.618V169.794C345.86 172.351 347.853 173.629 350.711 173.629C352.566 173.629 354.014 172.896 355.055 171.429C356.107 169.963 356.634 167.769 356.634 164.849Z" fill="black"/>
<path d="M366.392 175.209H364.136V146.328H366.392V175.209Z" fill="black"/>
<path d="M385.364 175.209C385.138 174.569 384.994 173.623 384.932 172.37C384.142 173.397 383.133 174.193 381.904 174.757C380.689 175.309 379.397 175.585 378.031 175.585C376.076 175.585 374.49 175.04 373.274 173.949C372.071 172.858 371.469 171.48 371.469 169.812C371.469 167.832 372.29 166.265 373.932 165.112C375.587 163.959 377.887 163.382 380.833 163.382H384.913V161.069C384.913 159.615 384.462 158.475 383.559 157.647C382.669 156.807 381.365 156.387 379.648 156.387C378.081 156.387 376.784 156.789 375.756 157.591C374.728 158.393 374.214 159.358 374.214 160.486L371.958 160.468C371.958 158.851 372.71 157.453 374.214 156.275C375.718 155.084 377.567 154.488 379.761 154.488C382.03 154.488 383.816 155.059 385.12 156.199C386.436 157.328 387.113 158.907 387.15 160.938V170.565C387.15 172.533 387.357 174.005 387.771 174.983V175.209H385.364ZM378.294 173.592C379.799 173.592 381.14 173.228 382.318 172.501C383.509 171.774 384.374 170.803 384.913 169.587V165.112H380.889C378.645 165.137 376.89 165.551 375.624 166.353C374.358 167.142 373.725 168.233 373.725 169.624C373.725 170.765 374.145 171.711 374.985 172.464C375.838 173.216 376.941 173.592 378.294 173.592Z" fill="black"/>
<path d="M418.908 165.243C418.908 168.415 418.206 170.934 416.802 172.802C415.398 174.657 413.511 175.585 411.142 175.585C408.309 175.585 406.166 174.532 404.712 172.426L404.618 175.209H402.512V146.328H404.749V157.816C406.178 155.598 408.297 154.488 411.105 154.488C413.511 154.488 415.41 155.41 416.802 157.252C418.206 159.082 418.908 161.633 418.908 164.905V165.243ZM416.651 164.849C416.651 162.166 416.131 160.098 415.091 158.644C414.05 157.177 412.584 156.444 410.691 156.444C409.25 156.444 408.027 156.801 407.025 157.516C406.022 158.218 405.263 159.252 404.749 160.618V169.794C405.878 172.351 407.871 173.629 410.729 173.629C412.584 173.629 414.032 172.896 415.072 171.429C416.125 169.963 416.651 167.769 416.651 164.849Z" fill="black"/>
<path d="M426.41 175.209H424.154V146.328H426.41V175.209Z" fill="black"/>
<path d="M445.382 175.209C445.156 174.569 445.012 173.623 444.949 172.37C444.159 173.397 443.15 174.193 441.922 174.757C440.706 175.309 439.415 175.585 438.049 175.585C436.093 175.585 434.507 175.04 433.292 173.949C432.088 172.858 431.487 171.48 431.487 169.812C431.487 167.832 432.308 166.265 433.95 165.112C435.604 163.959 437.904 163.382 440.85 163.382H444.93V161.069C444.93 159.615 444.479 158.475 443.577 157.647C442.687 156.807 441.383 156.387 439.666 156.387C438.099 156.387 436.801 156.789 435.774 157.591C434.746 158.393 434.232 159.358 434.232 160.486L431.975 160.468C431.975 158.851 432.728 157.453 434.232 156.275C435.736 155.084 437.585 154.488 439.778 154.488C442.047 154.488 443.834 155.059 445.137 156.199C446.453 157.328 447.13 158.907 447.168 160.938V170.565C447.168 172.533 447.375 174.005 447.788 174.983V175.209H445.382ZM438.312 173.592C439.816 173.592 441.157 173.228 442.336 172.501C443.526 171.774 444.391 170.803 444.93 169.587V165.112H440.907C438.663 165.137 436.908 165.551 435.642 166.353C434.376 167.142 433.743 168.233 433.743 169.624C433.743 170.765 434.163 171.711 435.003 172.464C435.855 173.216 436.958 173.592 438.312 173.592Z" fill="black"/>
<path d="M488.289 165.243C488.289 168.415 487.587 170.934 486.183 172.802C484.779 174.657 482.893 175.585 480.523 175.585C477.691 175.585 475.547 174.532 474.093 172.426L473.999 175.209H471.893V146.328H474.131V157.816C475.56 155.598 477.678 154.488 480.486 154.488C482.893 154.488 484.792 155.41 486.183 157.252C487.587 159.082 488.289 161.633 488.289 164.905V165.243ZM486.033 164.849C486.033 162.166 485.512 160.098 484.472 158.644C483.432 157.177 481.965 156.444 480.072 156.444C478.631 156.444 477.408 156.801 476.406 157.516C475.403 158.218 474.645 159.252 474.131 160.618V169.794C475.259 172.351 477.252 173.629 480.11 173.629C481.965 173.629 483.413 172.896 484.453 171.429C485.506 169.963 486.033 167.769 486.033 164.849Z" fill="black"/>
<path d="M495.791 175.209H493.535V146.328H495.791V175.209Z" fill="black"/>
<path d="M514.763 175.209C514.537 174.569 514.393 173.623 514.33 172.37C513.541 173.397 512.531 174.193 511.303 174.757C510.087 175.309 508.796 175.585 507.43 175.585C505.474 175.585 503.889 175.04 502.673 173.949C501.469 172.858 500.868 171.48 500.868 169.812C500.868 167.832 501.689 166.265 503.331 165.112C504.985 163.959 507.286 163.382 510.231 163.382H514.311V161.069C514.311 159.615 513.86 158.475 512.958 157.647C512.068 156.807 510.764 156.387 509.047 156.387C507.48 156.387 506.183 156.789 505.155 157.591C504.127 158.393 503.613 159.358 503.613 160.486L501.357 160.468C501.357 158.851 502.109 157.453 503.613 156.275C505.117 155.084 506.966 154.488 509.16 154.488C511.428 154.488 513.215 155.059 514.518 156.199C515.834 157.328 516.511 158.907 516.549 160.938V170.565C516.549 172.533 516.756 174.005 517.169 174.983V175.209H514.763ZM507.693 173.592C509.197 173.592 510.538 173.228 511.717 172.501C512.908 171.774 513.772 170.803 514.311 169.587V165.112H510.288C508.044 165.137 506.289 165.551 505.023 166.353C503.757 167.142 503.124 168.233 503.124 169.624C503.124 170.765 503.544 171.711 504.384 172.464C505.236 173.216 506.339 173.592 507.693 173.592Z" fill="black"/>
<path d="M548.306 165.243C548.306 168.415 547.604 170.934 546.2 172.802C544.797 174.657 542.91 175.585 540.541 175.585C537.708 175.585 535.565 174.532 534.11 172.426L534.016 175.209H531.911V146.328H534.148V157.816C535.577 155.598 537.695 154.488 540.503 154.488C542.91 154.488 544.809 155.41 546.2 157.252C547.604 159.082 548.306 161.633 548.306 164.905V165.243ZM546.05 164.849C546.05 162.166 545.53 160.098 544.489 158.644C543.449 157.177 541.982 156.444 540.09 156.444C538.648 156.444 537.426 156.801 536.423 157.516C535.42 158.218 534.662 159.252 534.148 160.618V169.794C535.276 172.351 537.269 173.629 540.127 173.629C541.982 173.629 543.43 172.896 544.471 171.429C545.524 169.963 546.05 167.769 546.05 164.849Z" fill="black"/>
<path d="M555.808 175.209H553.552V146.328H555.808V175.209Z" fill="black"/>
<path d="M574.78 175.209C574.555 174.569 574.41 173.623 574.348 172.37C573.558 173.397 572.549 174.193 571.321 174.757C570.105 175.309 568.814 175.585 567.447 175.585C565.492 175.585 563.906 175.04 562.69 173.949C561.487 172.858 560.885 171.48 560.885 169.812C560.885 167.832 561.706 166.265 563.348 165.112C565.003 163.959 567.303 163.382 570.249 163.382H574.329V161.069C574.329 159.615 573.878 158.475 572.975 157.647C572.085 156.807 570.782 156.387 569.064 156.387C567.497 156.387 566.2 156.789 565.172 157.591C564.144 158.393 563.63 159.358 563.63 160.486L561.374 160.468C561.374 158.851 562.126 157.453 563.63 156.275C565.135 155.084 566.983 154.488 569.177 154.488C571.446 154.488 573.232 155.059 574.536 156.199C575.852 157.328 576.529 158.907 576.566 160.938V170.565C576.566 172.533 576.773 174.005 577.187 174.983V175.209H574.78ZM567.71 173.592C569.215 173.592 570.556 173.228 571.734 172.501C572.925 171.774 573.79 170.803 574.329 169.587V165.112H570.305C568.061 165.137 566.307 165.551 565.041 166.353C563.774 167.142 563.141 168.233 563.141 169.624C563.141 170.765 563.561 171.711 564.401 172.464C565.254 173.216 566.357 173.592 567.71 173.592Z" fill="black"/>
<path d="M608.324 165.243C608.324 168.415 607.622 170.934 606.218 172.802C604.814 174.657 602.927 175.585 600.558 175.585C597.725 175.585 595.582 174.532 594.128 172.426L594.034 175.209H591.928V146.328H594.166V157.816C595.595 155.598 597.713 154.488 600.521 154.488C602.927 154.488 604.827 155.41 606.218 157.252C607.622 159.082 608.324 161.633 608.324 164.905V165.243ZM606.068 164.849C606.068 162.166 605.547 160.098 604.507 158.644C603.466 157.177 602 156.444 600.107 156.444C598.666 156.444 597.443 156.801 596.441 157.516C595.438 158.218 594.679 159.252 594.166 160.618V169.794C595.294 172.351 597.287 173.629 600.145 173.629C602 173.629 603.448 172.896 604.488 171.429C605.541 169.963 606.068 167.769 606.068 164.849Z" fill="black"/>
<path d="M615.826 175.209H613.57V146.328H615.826V175.209Z" fill="black"/>
<path d="M634.798 175.209C634.572 174.569 634.428 173.623 634.365 172.37C633.576 173.397 632.566 174.193 631.338 174.757C630.122 175.309 628.831 175.585 627.465 175.585C625.509 175.585 623.924 175.04 622.708 173.949C621.504 172.858 620.903 171.48 620.903 169.812C620.903 167.832 621.724 166.265 623.366 165.112C625.02 163.959 627.321 163.382 630.266 163.382H634.346V161.069C634.346 159.615 633.895 158.475 632.993 157.647C632.103 156.807 630.799 156.387 629.082 156.387C627.515 156.387 626.217 156.789 625.19 157.591C624.162 158.393 623.648 159.358 623.648 160.486L621.392 160.468C621.392 158.851 622.144 157.453 623.648 156.275C625.152 155.084 627.001 154.488 629.195 154.488C631.463 154.488 633.25 155.059 634.553 156.199C635.869 157.328 636.546 158.907 636.584 160.938V170.565C636.584 172.533 636.791 174.005 637.204 174.983V175.209H634.798ZM627.728 173.592C629.232 173.592 630.573 173.228 631.752 172.501C632.943 171.774 633.807 170.803 634.346 169.587V165.112H630.323C628.079 165.137 626.324 165.551 625.058 166.353C623.792 167.142 623.159 168.233 623.159 169.624C623.159 170.765 623.579 171.711 624.419 172.464C625.271 173.216 626.374 173.592 627.728 173.592Z" fill="black"/>
<rect x="725.866" y="217.291" width="35.7569" height="23.3795" rx="4" fill="#C4C4C4"/>
<path d="M758.852 219.512C758.958 217.263 758.64 215.015 757.92 212.905C757.199 210.796 756.091 208.869 754.662 207.244C753.234 205.62 751.516 204.331 749.614 203.457C747.712 202.584 745.666 202.144 743.603 202.165C741.539 202.186 739.501 202.667 737.615 203.579C735.728 204.492 734.032 205.815 732.632 207.469C731.231 209.122 730.156 211.071 729.472 213.195C728.788 215.319 728.509 217.573 728.653 219.819L732.597 219.518C732.491 217.859 732.696 216.194 733.202 214.625C733.707 213.057 734.502 211.617 735.536 210.396C736.57 209.174 737.823 208.196 739.216 207.523C740.61 206.849 742.115 206.493 743.64 206.478C745.164 206.462 746.675 206.787 748.08 207.432C749.485 208.078 750.754 209.03 751.809 210.23C752.864 211.43 753.683 212.853 754.215 214.411C754.747 215.97 754.981 217.63 754.903 219.291L758.852 219.512Z" fill="#C4C4C4"/>
<circle cx="744.432" cy="224.857" r="3.43817" fill="white"/>
<path d="M742.005 225.543H746.859L747.87 236.545H740.994L742.005 225.543Z" fill="white"/>
<path d="M574.212 19.0587H580.319V21.691H574.212V28.6103H571.414V21.691H565.307V19.0587H571.414V12.6658H574.212V19.0587Z" fill="#808080"/>
<path d="M584.712 19.8258L585.825 8.90533H597.046V11.4775H588.186L587.524 17.4492C588.597 16.8174 589.816 16.5015 591.18 16.5015C593.175 16.5015 594.76 17.1634 595.933 18.4871C597.106 19.8007 597.693 21.5807 597.693 23.827C597.693 26.0833 597.081 27.8632 595.858 29.1669C594.644 30.4605 592.944 31.1073 590.758 31.1073C588.823 31.1073 587.244 30.5708 586.02 29.4978C584.797 28.4248 584.1 26.9407 583.929 25.0454H586.562C586.732 26.2989 587.178 27.2465 587.9 27.8883C588.622 28.5201 589.575 28.836 590.758 28.836C592.052 28.836 593.065 28.3947 593.797 27.5123C594.539 26.6298 594.91 25.4114 594.91 23.8571C594.91 22.393 594.509 21.2197 593.707 20.3372C592.914 19.4447 591.856 18.9985 590.533 18.9985C589.319 18.9985 588.367 19.2642 587.675 19.7957L586.938 20.3974L584.712 19.8258Z" fill="#808080"/>
<path d="M614.465 21.4654C614.465 24.7245 613.908 27.1462 612.795 28.7307C611.682 30.3151 609.942 31.1073 607.575 31.1073C605.239 31.1073 603.509 30.3351 602.386 28.7908C601.263 27.2365 600.681 24.92 600.641 21.8414V18.1261C600.641 14.9071 601.198 12.5154 602.311 10.951C603.424 9.38668 605.169 8.60449 607.545 8.60449C609.902 8.60449 611.637 9.36161 612.75 10.8758C613.863 12.38 614.434 14.7065 614.465 17.8553V21.4654ZM611.682 17.6598C611.682 15.3032 611.351 13.5884 610.689 12.5154C610.027 11.4324 608.979 10.8909 607.545 10.8909C606.121 10.8909 605.083 11.4274 604.432 12.5004C603.78 13.5734 603.444 15.223 603.424 17.4492V21.9016C603.424 24.2682 603.765 26.0181 604.447 27.1513C605.139 28.2744 606.181 28.836 607.575 28.836C608.949 28.836 609.967 28.3045 610.629 27.2415C611.301 26.1785 611.652 24.5039 611.682 22.2175V17.6598Z" fill="#808080"/>
<path d="M380.788 21.9766L381.209 24.8646L381.826 22.2624L386.158 6.97973H388.594L392.821 22.2624L393.423 24.9098L393.889 21.9615L397.289 6.97973H400.192L394.882 28.8808H392.25L387.737 12.9213L387.391 11.2516L387.045 12.9213L382.367 28.8808H379.735L374.44 6.97973H377.328L380.788 21.9766Z" fill="#808080"/>
<path d="M401.756 20.5927C401.756 18.9983 402.067 17.5643 402.689 16.2907C403.321 15.0172 404.193 14.0344 405.306 13.3425C406.429 12.6506 407.708 12.3046 409.142 12.3046C411.358 12.3046 413.148 13.0717 414.512 14.606C415.886 16.1403 416.573 18.181 416.573 20.7281V20.9236C416.573 22.5081 416.267 23.932 415.655 25.1956C415.053 26.4491 414.186 27.4268 413.053 28.1287C411.93 28.8307 410.636 29.1817 409.172 29.1817C406.966 29.1817 405.176 28.4145 403.802 26.8803C402.438 25.346 401.756 23.3153 401.756 20.7883V20.5927ZM404.554 20.9236C404.554 22.7287 404.97 24.1777 405.802 25.2708C406.645 26.3638 407.768 26.9103 409.172 26.9103C410.586 26.9103 411.709 26.3588 412.541 25.2557C413.374 24.1426 413.79 22.5883 413.79 20.5927C413.79 18.8077 413.364 17.3637 412.511 16.2606C411.669 15.1475 410.546 14.591 409.142 14.591C407.768 14.591 406.66 15.1375 405.818 16.2305C404.975 17.3236 404.554 18.888 404.554 20.9236Z" fill="#808080"/>
<path d="M427.929 15.1024C427.508 15.0322 427.052 14.9971 426.56 14.9971C424.735 14.9971 423.497 15.7743 422.845 17.3286V28.8808H420.062V12.6054H422.77L422.815 14.4857C423.727 13.0316 425.021 12.3046 426.696 12.3046C427.237 12.3046 427.648 12.3748 427.929 12.5152V15.1024Z" fill="#808080"/>
<path d="M435.044 21.3448L433.299 23.1649V28.8808H430.516V5.77637H433.299V19.7504L434.788 17.9604L439.858 12.6054H443.242L436.909 19.4044L443.979 28.8808H440.715L435.044 21.3448Z" fill="#808080"/>
<path d="M149.743 23.9014L150.164 26.7894L150.781 24.1872L155.113 8.90453H157.55L161.777 24.1872L162.378 26.8346L162.845 23.8863L166.244 8.90453H169.147L163.837 30.8056H161.205L156.692 14.8461L156.346 13.1765L156 14.8461L151.322 30.8056H148.69L143.395 8.90453H146.283L149.743 23.9014Z" fill="#808080"/>
<path d="M170.711 22.5175C170.711 20.9231 171.022 19.4891 171.644 18.2155C172.276 16.942 173.148 15.9592 174.261 15.2673C175.385 14.5754 176.663 14.2294 178.097 14.2294C180.313 14.2294 182.103 14.9965 183.467 16.5308C184.841 18.0651 185.528 20.1058 185.528 22.6529V22.8484C185.528 24.4329 185.222 25.8568 184.61 27.1204C184.009 28.3739 183.141 29.3516 182.008 30.0535C180.885 30.7555 179.591 31.1065 178.127 31.1065C175.921 31.1065 174.131 30.3393 172.757 28.8051C171.393 27.2708 170.711 25.2401 170.711 22.7131V22.5175ZM173.509 22.8484C173.509 24.6535 173.925 26.1025 174.758 27.1956C175.6 28.2886 176.723 28.8351 178.127 28.8351C179.541 28.8351 180.664 28.2836 181.497 27.1805C182.329 26.0674 182.745 24.5131 182.745 22.5175C182.745 20.7325 182.319 19.2885 181.467 18.1854C180.624 17.0723 179.501 16.5158 178.097 16.5158C176.723 16.5158 175.615 17.0623 174.773 18.1553C173.93 19.2484 173.509 20.8128 173.509 22.8484Z" fill="#808080"/>
<path d="M196.885 17.0272C196.463 16.957 196.007 16.9219 195.516 16.9219C193.691 16.9219 192.452 17.6991 191.8 19.2534V30.8056H189.018V14.5302H191.725L191.77 16.4105C192.683 14.9564 193.976 14.2294 195.651 14.2294C196.193 14.2294 196.604 14.2996 196.885 14.44V17.0272Z" fill="#808080"/>
<path d="M203.999 23.2696L202.255 25.0897V30.8056H199.472V7.70117H202.255V21.6752L203.744 19.8852L208.813 14.5302H212.197L205.865 21.3292L212.934 30.8056H209.67L203.999 23.2696Z" fill="#808080"/>
<circle cx="716.239" cy="19.2533" r="7.70149" fill="#C4C4C4"/>
<circle cx="735.492" cy="19.2533" r="7.70149" fill="#C4C4C4"/>
<circle cx="754.746" cy="19.2533" r="7.70149" fill="#C4C4C4"/>
</svg>
