<svg width="358" height="174" viewBox="0 0 358 174" fill="none" xmlns="http://www.w3.org/2000/svg">
<g filter="url(#filter0_d_3447_237)">
<rect x="3" y="3" width="350" height="166" rx="20" fill="#FFD1D0"/>
</g>
<path fill-rule="evenodd" clip-rule="evenodd" d="M23 3.00003C11.9543 3.00003 3 11.9543 3 23V149C3 160.046 11.9543 169 23 169V3.00003Z" fill="#AFAFAF" fill-opacity="0.3"/>
<path d="M40.6074 30.7812H43.0879L46.7402 41.2207L50.3926 30.7812H52.873L47.7363 45H45.7441L40.6074 30.7812ZM39.2695 30.7812H41.7402L42.1895 40.957V45H39.2695V30.7812ZM51.7402 30.7812H54.2207V45H51.291V40.957L51.7402 30.7812ZM62.3164 42.6172V37.9102C62.3164 37.5716 62.2611 37.2819 62.1504 37.041C62.0397 36.7936 61.8672 36.6016 61.6328 36.4648C61.4049 36.3281 61.1087 36.2598 60.7441 36.2598C60.4316 36.2598 60.1615 36.3151 59.9336 36.4258C59.7057 36.5299 59.5299 36.6829 59.4062 36.8848C59.2826 37.0801 59.2207 37.3112 59.2207 37.5781H56.4082C56.4082 37.1289 56.5124 36.7025 56.7207 36.2988C56.929 35.8952 57.2318 35.5404 57.6289 35.2344C58.026 34.9219 58.498 34.6777 59.0449 34.502C59.5983 34.3262 60.2168 34.2383 60.9004 34.2383C61.7207 34.2383 62.4499 34.375 63.0879 34.6484C63.7259 34.9219 64.2272 35.332 64.5918 35.8789C64.9629 36.4258 65.1484 37.1094 65.1484 37.9297V42.4512C65.1484 43.0306 65.1842 43.5059 65.2559 43.877C65.3275 44.2415 65.4316 44.5605 65.5684 44.834V45H62.7266C62.5898 44.7135 62.4857 44.3555 62.4141 43.9258C62.349 43.4896 62.3164 43.0534 62.3164 42.6172ZM62.6875 38.5645L62.707 40.1562H61.1348C60.7637 40.1562 60.4414 40.1986 60.168 40.2832C59.8945 40.3678 59.6699 40.4883 59.4941 40.6445C59.3184 40.7943 59.1882 40.9701 59.1035 41.1719C59.0254 41.3737 58.9863 41.5951 58.9863 41.8359C58.9863 42.0768 59.0417 42.2949 59.1523 42.4902C59.263 42.679 59.4225 42.8288 59.6309 42.9395C59.8392 43.0436 60.0833 43.0957 60.3633 43.0957C60.7865 43.0957 61.1543 43.0111 61.4668 42.8418C61.7793 42.6725 62.0202 42.4642 62.1895 42.2168C62.3652 41.9694 62.4564 41.735 62.4629 41.5137L63.2051 42.7051C63.1009 42.972 62.9577 43.2487 62.7754 43.5352C62.5996 43.8216 62.375 44.0918 62.1016 44.3457C61.8281 44.5931 61.4993 44.7982 61.1152 44.9609C60.7311 45.1172 60.2754 45.1953 59.748 45.1953C59.0775 45.1953 58.4688 45.0618 57.9219 44.7949C57.3815 44.5215 56.9518 44.1471 56.6328 43.6719C56.3203 43.1901 56.1641 42.6432 56.1641 42.0312C56.1641 41.4779 56.2682 40.9863 56.4766 40.5566C56.6849 40.127 56.9909 39.7656 57.3945 39.4727C57.8047 39.1732 58.3158 38.9486 58.9277 38.7988C59.5397 38.6426 60.2493 38.5645 61.0566 38.5645H62.6875ZM70.0703 36.6895V45H67.2578V34.4336H69.8945L70.0703 36.6895ZM69.6602 39.3457H68.8984C68.8984 38.5645 68.9993 37.8613 69.2012 37.2363C69.403 36.6048 69.6862 36.0677 70.0508 35.625C70.4154 35.1758 70.8483 34.834 71.3496 34.5996C71.8574 34.3587 72.4238 34.2383 73.0488 34.2383C73.5436 34.2383 73.9961 34.3099 74.4062 34.4531C74.8164 34.5964 75.168 34.8242 75.4609 35.1367C75.7604 35.4492 75.9883 35.8626 76.1445 36.377C76.3073 36.8913 76.3887 37.5195 76.3887 38.2617V45H73.5566V38.252C73.5566 37.7832 73.4915 37.4186 73.3613 37.1582C73.2311 36.8978 73.0391 36.7155 72.7852 36.6113C72.5378 36.5007 72.2318 36.4453 71.8672 36.4453C71.4896 36.4453 71.1608 36.5202 70.8809 36.6699C70.6074 36.8197 70.3796 37.028 70.1973 37.2949C70.0215 37.5553 69.888 37.8613 69.7969 38.2129C69.7057 38.5645 69.6602 38.9421 69.6602 39.3457ZM84.2305 42.6172V37.9102C84.2305 37.5716 84.1751 37.2819 84.0645 37.041C83.9538 36.7936 83.7812 36.6016 83.5469 36.4648C83.319 36.3281 83.0228 36.2598 82.6582 36.2598C82.3457 36.2598 82.0755 36.3151 81.8477 36.4258C81.6198 36.5299 81.444 36.6829 81.3203 36.8848C81.1966 37.0801 81.1348 37.3112 81.1348 37.5781H78.3223C78.3223 37.1289 78.4264 36.7025 78.6348 36.2988C78.8431 35.8952 79.1458 35.5404 79.543 35.2344C79.9401 34.9219 80.4121 34.6777 80.959 34.502C81.5124 34.3262 82.1309 34.2383 82.8145 34.2383C83.6348 34.2383 84.3639 34.375 85.002 34.6484C85.64 34.9219 86.1413 35.332 86.5059 35.8789C86.877 36.4258 87.0625 37.1094 87.0625 37.9297V42.4512C87.0625 43.0306 87.0983 43.5059 87.1699 43.877C87.2415 44.2415 87.3457 44.5605 87.4824 44.834V45H84.6406C84.5039 44.7135 84.3997 44.3555 84.3281 43.9258C84.263 43.4896 84.2305 43.0534 84.2305 42.6172ZM84.6016 38.5645L84.6211 40.1562H83.0488C82.6777 40.1562 82.3555 40.1986 82.082 40.2832C81.8086 40.3678 81.584 40.4883 81.4082 40.6445C81.2324 40.7943 81.1022 40.9701 81.0176 41.1719C80.9395 41.3737 80.9004 41.5951 80.9004 41.8359C80.9004 42.0768 80.9557 42.2949 81.0664 42.4902C81.1771 42.679 81.3366 42.8288 81.5449 42.9395C81.7533 43.0436 81.9974 43.0957 82.2773 43.0957C82.7005 43.0957 83.0684 43.0111 83.3809 42.8418C83.6934 42.6725 83.9342 42.4642 84.1035 42.2168C84.2793 41.9694 84.3704 41.735 84.377 41.5137L85.1191 42.7051C85.015 42.972 84.8717 43.2487 84.6895 43.5352C84.5137 43.8216 84.2891 44.0918 84.0156 44.3457C83.7422 44.5931 83.4134 44.7982 83.0293 44.9609C82.6452 45.1172 82.1895 45.1953 81.6621 45.1953C80.9915 45.1953 80.3828 45.0618 79.8359 44.7949C79.2956 44.5215 78.8659 44.1471 78.5469 43.6719C78.2344 43.1901 78.0781 42.6432 78.0781 42.0312C78.0781 41.4779 78.1823 40.9863 78.3906 40.5566C78.599 40.127 78.9049 39.7656 79.3086 39.4727C79.7188 39.1732 80.2298 38.9486 80.8418 38.7988C81.4538 38.6426 82.1634 38.5645 82.9707 38.5645H84.6016ZM95.9199 34.4336H98.4688V44.6484C98.4688 45.612 98.2539 46.429 97.8242 47.0996C97.401 47.7767 96.8086 48.2878 96.0469 48.6328C95.2852 48.9844 94.3997 49.1602 93.3906 49.1602C92.9479 49.1602 92.4792 49.1016 91.9844 48.9844C91.4961 48.8672 91.0273 48.6849 90.5781 48.4375C90.1354 48.1901 89.7643 47.8776 89.4648 47.5L90.7051 45.8398C91.0306 46.2174 91.4082 46.5104 91.8379 46.7188C92.2676 46.9336 92.7428 47.041 93.2637 47.041C93.7715 47.041 94.2012 46.9466 94.5527 46.7578C94.9043 46.5755 95.1745 46.3053 95.3633 45.9473C95.5521 45.5957 95.6465 45.1693 95.6465 44.668V36.875L95.9199 34.4336ZM88.8105 39.8438V39.6387C88.8105 38.8314 88.9082 38.099 89.1035 37.4414C89.3053 36.7773 89.5885 36.2077 89.9531 35.7324C90.3242 35.2572 90.7734 34.8893 91.3008 34.6289C91.8281 34.3685 92.4238 34.2383 93.0879 34.2383C93.791 34.2383 94.3802 34.3685 94.8555 34.6289C95.3307 34.8893 95.7214 35.2604 96.0273 35.7422C96.3333 36.2174 96.571 36.7806 96.7402 37.4316C96.916 38.0762 97.0527 38.7826 97.1504 39.5508V40C97.0527 40.7357 96.9062 41.4193 96.7109 42.0508C96.5156 42.6823 96.2585 43.2357 95.9395 43.7109C95.6204 44.1797 95.2233 44.5443 94.748 44.8047C94.2793 45.0651 93.7194 45.1953 93.0684 45.1953C92.4173 45.1953 91.8281 45.0618 91.3008 44.7949C90.7799 44.528 90.334 44.1536 89.9629 43.6719C89.5918 43.1901 89.3053 42.6237 89.1035 41.9727C88.9082 41.3216 88.8105 40.612 88.8105 39.8438ZM91.623 39.6387V39.8438C91.623 40.2799 91.6654 40.6868 91.75 41.0645C91.8346 41.4421 91.9648 41.7773 92.1406 42.0703C92.3229 42.3568 92.5475 42.5814 92.8145 42.7441C93.0879 42.9004 93.4102 42.9785 93.7812 42.9785C94.2956 42.9785 94.7155 42.8711 95.041 42.6562C95.3665 42.4349 95.6107 42.1322 95.7734 41.748C95.9362 41.3639 96.0306 40.9212 96.0566 40.4199V39.1406C96.0436 38.7305 95.9883 38.3626 95.8906 38.0371C95.793 37.7051 95.6562 37.4219 95.4805 37.1875C95.3047 36.9531 95.0768 36.7708 94.7969 36.6406C94.5169 36.5104 94.1849 36.4453 93.8008 36.4453C93.4297 36.4453 93.1074 36.5299 92.834 36.6992C92.5671 36.862 92.3424 37.0866 92.1602 37.373C91.9844 37.6595 91.8509 37.998 91.7598 38.3887C91.6686 38.7728 91.623 39.1895 91.623 39.6387ZM105.52 45.1953C104.699 45.1953 103.964 45.0651 103.312 44.8047C102.661 44.5378 102.108 44.1699 101.652 43.7012C101.203 43.2324 100.858 42.6888 100.617 42.0703C100.376 41.4453 100.256 40.7812 100.256 40.0781V39.6875C100.256 38.8867 100.37 38.1543 100.598 37.4902C100.826 36.8262 101.151 36.25 101.574 35.7617C102.004 35.2734 102.525 34.8991 103.137 34.6387C103.749 34.3717 104.439 34.2383 105.207 34.2383C105.956 34.2383 106.62 34.362 107.199 34.6094C107.779 34.8568 108.264 35.2083 108.654 35.6641C109.051 36.1198 109.351 36.6667 109.553 37.3047C109.755 37.9362 109.855 38.6393 109.855 39.4141V40.5859H101.457V38.7109H107.092V38.4961C107.092 38.1055 107.02 37.7572 106.877 37.4512C106.74 37.1387 106.532 36.8913 106.252 36.709C105.972 36.5267 105.614 36.4355 105.178 36.4355C104.807 36.4355 104.488 36.5169 104.221 36.6797C103.954 36.8424 103.736 37.0703 103.566 37.3633C103.404 37.6562 103.28 38.0013 103.195 38.3984C103.117 38.7891 103.078 39.2188 103.078 39.6875V40.0781C103.078 40.5013 103.137 40.8919 103.254 41.25C103.378 41.6081 103.55 41.9173 103.771 42.1777C103.999 42.4382 104.273 42.64 104.592 42.7832C104.917 42.9264 105.285 42.998 105.695 42.998C106.203 42.998 106.675 42.9004 107.111 42.7051C107.554 42.5033 107.935 42.2005 108.254 41.7969L109.621 43.2812C109.4 43.6003 109.097 43.9062 108.713 44.1992C108.335 44.4922 107.88 44.7331 107.346 44.9219C106.812 45.1042 106.203 45.1953 105.52 45.1953ZM119.572 43.8086L122.375 34.4336H125.393L121.145 46.5918C121.053 46.8587 120.93 47.1452 120.773 47.4512C120.624 47.7572 120.419 48.0469 120.158 48.3203C119.904 48.6003 119.582 48.8281 119.191 49.0039C118.807 49.1797 118.335 49.2676 117.775 49.2676C117.508 49.2676 117.29 49.2513 117.121 49.2188C116.952 49.1862 116.75 49.1406 116.516 49.082V47.0215C116.587 47.0215 116.662 47.0215 116.74 47.0215C116.818 47.028 116.893 47.0312 116.965 47.0312C117.336 47.0312 117.639 46.9889 117.873 46.9043C118.107 46.8197 118.296 46.6895 118.439 46.5137C118.583 46.3444 118.697 46.123 118.781 45.8496L119.572 43.8086ZM118.4 34.4336L120.695 42.0898L121.096 45.0684L119.182 45.2734L115.383 34.4336H118.4ZM125.91 39.8242V39.6191C125.91 38.8444 126.021 38.1315 126.242 37.4805C126.464 36.8229 126.786 36.2533 127.209 35.7715C127.632 35.2897 128.153 34.9154 128.771 34.6484C129.39 34.375 130.1 34.2383 130.9 34.2383C131.701 34.2383 132.414 34.375 133.039 34.6484C133.664 34.9154 134.188 35.2897 134.611 35.7715C135.041 36.2533 135.367 36.8229 135.588 37.4805C135.809 38.1315 135.92 38.8444 135.92 39.6191V39.8242C135.92 40.5924 135.809 41.3053 135.588 41.9629C135.367 42.6139 135.041 43.1836 134.611 43.6719C134.188 44.1536 133.667 44.528 133.049 44.7949C132.43 45.0618 131.721 45.1953 130.92 45.1953C130.119 45.1953 129.406 45.0618 128.781 44.7949C128.163 44.528 127.639 44.1536 127.209 43.6719C126.786 43.1836 126.464 42.6139 126.242 41.9629C126.021 41.3053 125.91 40.5924 125.91 39.8242ZM128.723 39.6191V39.8242C128.723 40.2669 128.762 40.6803 128.84 41.0645C128.918 41.4486 129.042 41.7871 129.211 42.0801C129.387 42.3665 129.615 42.5911 129.895 42.7539C130.174 42.9167 130.516 42.998 130.92 42.998C131.311 42.998 131.646 42.9167 131.926 42.7539C132.206 42.5911 132.43 42.3665 132.6 42.0801C132.769 41.7871 132.893 41.4486 132.971 41.0645C133.055 40.6803 133.098 40.2669 133.098 39.8242V39.6191C133.098 39.1895 133.055 38.7858 132.971 38.4082C132.893 38.0241 132.766 37.6855 132.59 37.3926C132.421 37.0931 132.196 36.8587 131.916 36.6895C131.636 36.5202 131.298 36.4355 130.9 36.4355C130.503 36.4355 130.165 36.5202 129.885 36.6895C129.611 36.8587 129.387 37.0931 129.211 37.3926C129.042 37.6855 128.918 38.0241 128.84 38.4082C128.762 38.7858 128.723 39.1895 128.723 39.6191ZM143.898 42.4707V34.4336H146.711V45H144.064L143.898 42.4707ZM144.211 40.3027L145.041 40.2832C145.041 40.9863 144.96 41.6406 144.797 42.2461C144.634 42.8451 144.39 43.3659 144.064 43.8086C143.739 44.2448 143.329 44.5866 142.834 44.834C142.339 45.0749 141.757 45.1953 141.086 45.1953C140.572 45.1953 140.096 45.1237 139.66 44.9805C139.23 44.8307 138.859 44.5996 138.547 44.2871C138.241 43.9681 138 43.5612 137.824 43.0664C137.655 42.5651 137.57 41.9629 137.57 41.2598V34.4336H140.383V41.2793C140.383 41.5918 140.419 41.8555 140.49 42.0703C140.568 42.2852 140.676 42.4609 140.812 42.5977C140.949 42.7344 141.109 42.832 141.291 42.8906C141.48 42.9492 141.688 42.9785 141.916 42.9785C142.495 42.9785 142.951 42.8613 143.283 42.627C143.622 42.3926 143.859 42.0736 143.996 41.6699C144.139 41.2598 144.211 40.804 144.211 40.3027ZM151.672 36.7383V45H148.859V34.4336H151.506L151.672 36.7383ZM154.855 34.3652L154.807 36.9727C154.67 36.9531 154.504 36.9368 154.309 36.9238C154.12 36.9043 153.947 36.8945 153.791 36.8945C153.394 36.8945 153.049 36.9466 152.756 37.0508C152.469 37.1484 152.229 37.2949 152.033 37.4902C151.844 37.6855 151.701 37.9232 151.604 38.2031C151.512 38.4831 151.46 38.8021 151.447 39.1602L150.881 38.9844C150.881 38.3008 150.949 37.6725 151.086 37.0996C151.223 36.5202 151.421 36.0156 151.682 35.5859C151.949 35.1562 152.274 34.8242 152.658 34.5898C153.042 34.3555 153.482 34.2383 153.977 34.2383C154.133 34.2383 154.292 34.2513 154.455 34.2773C154.618 34.2969 154.751 34.3262 154.855 34.3652ZM164.68 45H161.857V33.9551C161.857 33.0566 162.04 32.2982 162.404 31.6797C162.775 31.0612 163.303 30.5924 163.986 30.2734C164.676 29.9544 165.51 29.7949 166.486 29.7949C167.04 29.7949 167.577 29.8503 168.098 29.9609C168.618 30.0651 169.156 30.2018 169.709 30.3711L169.299 32.627C168.941 32.5163 168.557 32.4121 168.146 32.3145C167.736 32.2168 167.242 32.168 166.662 32.168C166.011 32.168 165.516 32.321 165.178 32.627C164.846 32.9264 164.68 33.3691 164.68 33.9551V45ZM166.779 34.4336V36.4258H160.285V34.4336H166.779ZM171.018 34.4336V45H168.195V34.4336H171.018ZM176.34 30V45H173.518V30H176.34ZM183.527 45.1953C182.707 45.1953 181.971 45.0651 181.32 44.8047C180.669 44.5378 180.116 44.1699 179.66 43.7012C179.211 43.2324 178.866 42.6888 178.625 42.0703C178.384 41.4453 178.264 40.7812 178.264 40.0781V39.6875C178.264 38.8867 178.378 38.1543 178.605 37.4902C178.833 36.8262 179.159 36.25 179.582 35.7617C180.012 35.2734 180.533 34.8991 181.145 34.6387C181.757 34.3717 182.447 34.2383 183.215 34.2383C183.964 34.2383 184.628 34.362 185.207 34.6094C185.786 34.8568 186.271 35.2083 186.662 35.6641C187.059 36.1198 187.359 36.6667 187.561 37.3047C187.762 37.9362 187.863 38.6393 187.863 39.4141V40.5859H179.465V38.7109H185.1V38.4961C185.1 38.1055 185.028 37.7572 184.885 37.4512C184.748 37.1387 184.54 36.8913 184.26 36.709C183.98 36.5267 183.622 36.4355 183.186 36.4355C182.814 36.4355 182.495 36.5169 182.229 36.6797C181.962 36.8424 181.743 37.0703 181.574 37.3633C181.411 37.6562 181.288 38.0013 181.203 38.3984C181.125 38.7891 181.086 39.2188 181.086 39.6875V40.0781C181.086 40.5013 181.145 40.8919 181.262 41.25C181.385 41.6081 181.558 41.9173 181.779 42.1777C182.007 42.4382 182.281 42.64 182.6 42.7832C182.925 42.9264 183.293 42.998 183.703 42.998C184.211 42.998 184.683 42.9004 185.119 42.7051C185.562 42.5033 185.943 42.2005 186.262 41.7969L187.629 43.2812C187.408 43.6003 187.105 43.9062 186.721 44.1992C186.343 44.4922 185.887 44.7331 185.354 44.9219C184.82 45.1042 184.211 45.1953 183.527 45.1953ZM195.178 42.0801C195.178 41.8783 195.119 41.696 195.002 41.5332C194.885 41.3704 194.667 41.2207 194.348 41.084C194.035 40.9408 193.583 40.8105 192.99 40.6934C192.456 40.5762 191.958 40.4297 191.496 40.2539C191.04 40.0716 190.643 39.8535 190.305 39.5996C189.973 39.3457 189.712 39.0462 189.523 38.7012C189.335 38.3496 189.24 37.9492 189.24 37.5C189.24 37.0573 189.335 36.6406 189.523 36.25C189.719 35.8594 189.995 35.5143 190.354 35.2148C190.718 34.9089 191.161 34.6712 191.682 34.502C192.209 34.3262 192.801 34.2383 193.459 34.2383C194.377 34.2383 195.165 34.3848 195.822 34.6777C196.486 34.9707 196.994 35.3743 197.346 35.8887C197.704 36.3965 197.883 36.9759 197.883 37.627H195.07C195.07 37.3535 195.012 37.1094 194.895 36.8945C194.784 36.6732 194.608 36.5007 194.367 36.377C194.133 36.2467 193.827 36.1816 193.449 36.1816C193.137 36.1816 192.867 36.237 192.639 36.3477C192.411 36.4518 192.235 36.5951 192.111 36.7773C191.994 36.9531 191.936 37.1484 191.936 37.3633C191.936 37.526 191.968 37.6725 192.033 37.8027C192.105 37.9264 192.219 38.0404 192.375 38.1445C192.531 38.2487 192.733 38.3464 192.98 38.4375C193.234 38.5221 193.547 38.6003 193.918 38.6719C194.68 38.8281 195.36 39.0332 195.959 39.2871C196.558 39.5345 197.033 39.873 197.385 40.3027C197.736 40.7259 197.912 41.2826 197.912 41.9727C197.912 42.4414 197.808 42.8711 197.6 43.2617C197.391 43.6523 197.092 43.9941 196.701 44.2871C196.311 44.5736 195.842 44.7982 195.295 44.9609C194.755 45.1172 194.146 45.1953 193.469 45.1953C192.486 45.1953 191.652 45.0195 190.969 44.668C190.292 44.3164 189.777 43.8704 189.426 43.3301C189.081 42.7832 188.908 42.2233 188.908 41.6504H191.574C191.587 42.0345 191.685 42.3438 191.867 42.5781C192.056 42.8125 192.294 42.9818 192.58 43.0859C192.873 43.1901 193.189 43.2422 193.527 43.2422C193.892 43.2422 194.195 43.1934 194.436 43.0957C194.676 42.9915 194.859 42.8548 194.982 42.6855C195.113 42.5098 195.178 42.3079 195.178 42.0801Z" fill="black"/>
<path d="M75.3018 11.8623L75.4932 13.1748L75.7734 11.9922L77.7422 5.04688H78.8496L80.7705 11.9922L81.0439 13.1953L81.2559 11.8555L82.8008 5.04688H84.1201L81.707 15H80.5107L78.46 7.74707L78.3027 6.98828L78.1455 7.74707L76.0195 15H74.8232L72.417 5.04688H73.7295L75.3018 11.8623ZM84.8311 11.2334C84.8311 10.5088 84.9723 9.8571 85.2549 9.27832C85.542 8.69954 85.9385 8.25293 86.4443 7.93848C86.9548 7.62402 87.5358 7.4668 88.1875 7.4668C89.1947 7.4668 90.0081 7.81543 90.6279 8.5127C91.2523 9.20996 91.5645 10.1374 91.5645 11.2949V11.3838C91.5645 12.1038 91.4255 12.751 91.1475 13.3252C90.874 13.8949 90.4798 14.3392 89.9648 14.6582C89.4544 14.9772 88.8665 15.1367 88.2012 15.1367C87.1986 15.1367 86.3851 14.7881 85.7607 14.0908C85.141 13.3936 84.8311 12.4707 84.8311 11.3223V11.2334ZM86.1025 11.3838C86.1025 12.2041 86.2917 12.8626 86.6699 13.3594C87.0527 13.8561 87.5632 14.1045 88.2012 14.1045C88.8438 14.1045 89.3542 13.8538 89.7324 13.3525C90.1107 12.8467 90.2998 12.1403 90.2998 11.2334C90.2998 10.4222 90.1061 9.76595 89.7188 9.26465C89.3359 8.75879 88.8255 8.50586 88.1875 8.50586C87.5632 8.50586 87.0596 8.75423 86.6768 9.25098C86.2939 9.74772 86.1025 10.4587 86.1025 11.3838ZM96.7256 8.73828C96.5342 8.70638 96.3268 8.69043 96.1035 8.69043C95.2741 8.69043 94.7113 9.04362 94.415 9.75V15H93.1504V7.60352H94.3809L94.4014 8.45801C94.8161 7.7972 95.404 7.4668 96.165 7.4668C96.4111 7.4668 96.598 7.4987 96.7256 7.5625V8.73828ZM99.959 11.5752L99.166 12.4023V15H97.9014V4.5H99.166V10.8506L99.8428 10.0371L102.146 7.60352H103.685L100.807 10.6934L104.02 15H102.536L99.959 11.5752Z" fill="#808080"/>
<rect x="38" y="3" width="100" height="16" rx="8" fill="#FFB2B2"/>
<path d="M79.6445 11.6045H75.4678V16H74.1553V6.04688H80.3213V7.12695H75.4678V10.5312H79.6445V11.6045ZM83.0693 16H81.8047V8.60352H83.0693V16ZM81.7021 6.6416C81.7021 6.43652 81.7637 6.26335 81.8867 6.12207C82.0143 5.98079 82.2012 5.91016 82.4473 5.91016C82.6934 5.91016 82.8802 5.98079 83.0078 6.12207C83.1354 6.26335 83.1992 6.43652 83.1992 6.6416C83.1992 6.84668 83.1354 7.01758 83.0078 7.1543C82.8802 7.29102 82.6934 7.35938 82.4473 7.35938C82.2012 7.35938 82.0143 7.29102 81.8867 7.1543C81.7637 7.01758 81.7021 6.84668 81.7021 6.6416ZM86.4736 16H85.209V5.5H86.4736V16ZM91.5732 16.1367C90.5706 16.1367 89.7549 15.8086 89.126 15.1523C88.4971 14.4915 88.1826 13.6097 88.1826 12.5068V12.2744C88.1826 11.5407 88.3216 10.8867 88.5996 10.3125C88.8822 9.73372 89.2741 9.28255 89.7754 8.95898C90.2812 8.63086 90.8281 8.4668 91.416 8.4668C92.3776 8.4668 93.125 8.78353 93.6582 9.41699C94.1914 10.0505 94.458 10.9574 94.458 12.1377V12.6641H89.4473C89.4655 13.3932 89.6774 13.9834 90.083 14.4346C90.4932 14.8812 91.0127 15.1045 91.6416 15.1045C92.0882 15.1045 92.4665 15.0133 92.7764 14.8311C93.0863 14.6488 93.3574 14.4072 93.5898 14.1064L94.3623 14.708C93.7425 15.6605 92.8128 16.1367 91.5732 16.1367ZM91.416 9.50586C90.9056 9.50586 90.4772 9.69271 90.1309 10.0664C89.7845 10.4355 89.5703 10.9551 89.4883 11.625H93.1934V11.5293C93.1569 10.8867 92.9837 10.39 92.6738 10.0391C92.3639 9.68359 91.9447 9.50586 91.416 9.50586ZM100.234 14.0381C100.234 13.6963 100.104 13.432 99.8447 13.2451C99.5895 13.0537 99.1406 12.8896 98.498 12.7529C97.86 12.6162 97.3519 12.4521 96.9736 12.2607C96.5999 12.0693 96.3219 11.8415 96.1396 11.5771C95.9619 11.3128 95.873 10.9984 95.873 10.6338C95.873 10.0277 96.1283 9.51497 96.6387 9.0957C97.1536 8.67643 97.8099 8.4668 98.6074 8.4668C99.446 8.4668 100.125 8.68327 100.645 9.11621C101.169 9.54915 101.431 10.1029 101.431 10.7773H100.159C100.159 10.431 100.011 10.1325 99.7148 9.88184C99.4232 9.63118 99.054 9.50586 98.6074 9.50586C98.1471 9.50586 97.7871 9.60612 97.5273 9.80664C97.2676 10.0072 97.1377 10.2692 97.1377 10.5928C97.1377 10.8981 97.2585 11.1283 97.5 11.2832C97.7415 11.4382 98.1768 11.5863 98.8057 11.7275C99.4391 11.8688 99.9518 12.0374 100.344 12.2334C100.736 12.4294 101.025 12.6663 101.212 12.9443C101.403 13.2178 101.499 13.5527 101.499 13.9492C101.499 14.61 101.235 15.141 100.706 15.542C100.177 15.9385 99.4915 16.1367 98.6484 16.1367C98.056 16.1367 97.5319 16.0319 97.0762 15.8223C96.6204 15.6126 96.2627 15.321 96.0029 14.9473C95.7477 14.569 95.6201 14.1611 95.6201 13.7236H96.8848C96.9076 14.1475 97.0762 14.4847 97.3906 14.7354C97.7096 14.9814 98.1289 15.1045 98.6484 15.1045C99.127 15.1045 99.5098 15.0088 99.7969 14.8174C100.089 14.6214 100.234 14.3617 100.234 14.0381Z" fill="#808080"/>
<rect x="39" y="58" width="290" height="34" rx="5" fill="#AFAFAF" fill-opacity="0.2"/>
<path d="M49.2 74.9C49.2 80.3675 53.6325 84.8 59.1 84.8C64.5676 84.8 69 80.3675 69 74.9H59.1H49.2Z" fill="#D35230"/>
<path d="M59.1 65V74.9H69C69 69.4324 64.5675 65 59.1 65Z" fill="#FF8F6B"/>
<path d="M59.1 65C53.6325 65 49.2 69.4324 49.2 74.9H59.1V65Z" fill="#ED6C47"/>
<path opacity="0.05" d="M59.1 70.8746C59.1 69.7564 58.1936 68.85 57.0755 68.85H51.2757C49.9794 70.5242 49.2 72.6186 49.2 74.9C49.2 77.7138 50.3798 80.2477 52.2641 82.05H57.0749C58.1936 82.05 59.1 81.1436 59.1 80.0255V70.8746Z" fill="black"/>
<path opacity="0.07" d="M57.0172 69.0331H51.1388C49.926 70.6765 49.2 72.7011 49.2 74.9C49.2 77.4393 50.1642 79.7477 51.7361 81.5H57.0172C57.9654 81.5 58.7337 80.7316 58.7337 79.7834V70.7497C58.7332 69.802 57.9648 69.0331 57.0172 69.0331Z" fill="black"/>
<path opacity="0.09" d="M56.9583 69.2169H51.0018C49.8699 70.8262 49.2 72.7831 49.2 74.9C49.2 77.1814 49.9794 79.2758 51.2757 80.95H56.9583C57.736 80.95 58.3663 80.3197 58.3663 79.542V70.6249C58.3669 69.8472 57.736 69.2169 56.9583 69.2169Z" fill="black"/>
<path d="M56.9 80.4H48.1C47.4923 80.4 47 79.9077 47 79.3V70.5C47 69.8922 47.4923 69.4 48.1 69.4H56.9C57.5078 69.4 58 69.8922 58 70.5V79.3C58 79.9077 57.5078 80.4 56.9 80.4Z" fill="url(#paint0_linear_3447_237)"/>
<path d="M52.8701 72.1566H50.3V77.6566H51.4132V75.7201H52.665C53.6968 75.7201 54.5333 74.8835 54.5333 73.8517V73.8198C54.5333 72.9013 53.7886 72.1566 52.8701 72.1566ZM53.3635 73.9969C53.3635 74.4694 52.9801 74.8527 52.5077 74.8527H51.4132V73.024H52.5077C52.9801 73.024 53.3635 73.4073 53.3635 73.8798V73.9969Z" fill="white"/>
<path d="M87.3281 77.9922L89.7969 69.625H90.5703L89.9453 72.1094L87.3125 81H86.5703L87.3281 77.9922ZM84.4609 69.625L86.5391 77.9141L87.1641 81H86.3906L83.4766 69.625H84.4609ZM93.8984 77.9141L95.9453 69.625H96.9297L94.0234 81H93.25L93.8984 77.9141ZM90.6562 69.625L93.0938 77.9922L93.8438 81H93.1016L90.5234 72.1094L89.8906 69.625H90.6562ZM99.5 69V81H98.5703V69H99.5ZM99.2891 76.25L98.875 76.0156C98.9062 75.5156 99.0078 75.0469 99.1797 74.6094C99.3516 74.1719 99.5833 73.7865 99.875 73.4531C100.172 73.1198 100.518 72.8594 100.914 72.6719C101.315 72.4844 101.758 72.3906 102.242 72.3906C102.664 72.3906 103.042 72.4479 103.375 72.5625C103.708 72.6771 103.992 72.8594 104.227 73.1094C104.461 73.3594 104.638 73.6797 104.758 74.0703C104.883 74.4609 104.945 74.9375 104.945 75.5V81H104.008V75.4922C104.008 74.9089 103.927 74.4531 103.766 74.125C103.604 73.7917 103.375 73.5547 103.078 73.4141C102.781 73.2734 102.43 73.2031 102.023 73.2031C101.576 73.2031 101.182 73.3021 100.844 73.5C100.51 73.6927 100.229 73.9453 100 74.2578C99.776 74.5651 99.6042 74.8958 99.4844 75.25C99.3646 75.599 99.2995 75.9323 99.2891 76.25ZM109.859 80.1562L112.492 72.5469H113.5L109.922 82.3594C109.849 82.5521 109.755 82.7656 109.641 83C109.531 83.2344 109.385 83.4583 109.203 83.6719C109.026 83.8906 108.802 84.0677 108.531 84.2031C108.266 84.3438 107.94 84.4141 107.555 84.4141C107.456 84.4141 107.328 84.401 107.172 84.375C107.021 84.3542 106.911 84.3333 106.844 84.3125L106.836 83.5234C106.893 83.5391 106.977 83.5521 107.086 83.5625C107.195 83.5729 107.271 83.5781 107.312 83.5781C107.651 83.5781 107.935 83.5208 108.164 83.4062C108.398 83.2917 108.594 83.1198 108.75 82.8906C108.906 82.6667 109.044 82.3854 109.164 82.0469L109.859 80.1562ZM107.398 72.5469L110.094 79.8047L110.344 80.7812L109.664 81.1641L106.383 72.5469H107.398ZM121.211 79.0234L123.25 72.5469H123.906L123.516 74.2891L121.383 81H120.727L121.211 79.0234ZM119.094 72.5469L120.883 79.0625L121.266 81H120.586L118.133 72.5469H119.094ZM126.445 79.0391L128.188 72.5469H129.148L126.695 81H126.023L126.445 79.0391ZM124.039 72.5469L126.047 78.9688L126.555 81H125.898L123.719 74.2812L123.352 72.5469H124.039ZM134.211 81.1562C133.659 81.1562 133.151 81.0547 132.688 80.8516C132.229 80.6484 131.828 80.362 131.484 79.9922C131.146 79.6224 130.883 79.1849 130.695 78.6797C130.513 78.1693 130.422 77.612 130.422 77.0078V76.6719C130.422 76.0208 130.518 75.4323 130.711 74.9062C130.904 74.3802 131.169 73.9297 131.508 73.5547C131.846 73.1797 132.232 72.8932 132.664 72.6953C133.102 72.4922 133.56 72.3906 134.039 72.3906C134.576 72.3906 135.052 72.487 135.469 72.6797C135.885 72.8672 136.234 73.1354 136.516 73.4844C136.802 73.8281 137.018 74.237 137.164 74.7109C137.31 75.1797 137.383 75.6979 137.383 76.2656V76.8359H130.984V76.0391H136.453V75.9297C136.443 75.4557 136.346 75.013 136.164 74.6016C135.987 74.1849 135.721 73.8464 135.367 73.5859C135.013 73.3255 134.57 73.1953 134.039 73.1953C133.643 73.1953 133.279 73.2786 132.945 73.4453C132.617 73.612 132.333 73.8516 132.094 74.1641C131.859 74.4714 131.677 74.8385 131.547 75.2656C131.422 75.6875 131.359 76.1562 131.359 76.6719V77.0078C131.359 77.4766 131.427 77.9141 131.562 78.3203C131.703 78.7214 131.901 79.0755 132.156 79.3828C132.417 79.6901 132.724 79.9297 133.078 80.1016C133.432 80.2734 133.823 80.3594 134.25 80.3594C134.75 80.3594 135.193 80.2682 135.578 80.0859C135.964 79.8984 136.31 79.6042 136.617 79.2031L137.203 79.6562C137.021 79.9271 136.792 80.1771 136.516 80.4062C136.245 80.6354 135.919 80.8177 135.539 80.9531C135.159 81.0885 134.716 81.1562 134.211 81.1562ZM144.062 74.3516V81H143.133V72.5469H144.023L144.062 74.3516ZM143.852 76.25L143.438 76.0156C143.469 75.5156 143.57 75.0469 143.742 74.6094C143.914 74.1719 144.146 73.7865 144.438 73.4531C144.734 73.1198 145.081 72.8594 145.477 72.6719C145.878 72.4844 146.32 72.3906 146.805 72.3906C147.227 72.3906 147.604 72.4479 147.938 72.5625C148.271 72.6771 148.555 72.8594 148.789 73.1094C149.023 73.3594 149.201 73.6797 149.32 74.0703C149.445 74.4609 149.508 74.9375 149.508 75.5V81H148.57V75.4922C148.57 74.9089 148.49 74.4531 148.328 74.125C148.167 73.7917 147.938 73.5547 147.641 73.4141C147.344 73.2734 146.992 73.2031 146.586 73.2031C146.138 73.2031 145.745 73.3021 145.406 73.5C145.073 73.6927 144.792 73.9453 144.562 74.2578C144.339 74.5651 144.167 74.8958 144.047 75.25C143.927 75.599 143.862 75.9323 143.852 76.25ZM155.195 81.1562C154.643 81.1562 154.135 81.0547 153.672 80.8516C153.214 80.6484 152.812 80.362 152.469 79.9922C152.13 79.6224 151.867 79.1849 151.68 78.6797C151.497 78.1693 151.406 77.612 151.406 77.0078V76.6719C151.406 76.0208 151.503 75.4323 151.695 74.9062C151.888 74.3802 152.154 73.9297 152.492 73.5547C152.831 73.1797 153.216 72.8932 153.648 72.6953C154.086 72.4922 154.544 72.3906 155.023 72.3906C155.56 72.3906 156.036 72.487 156.453 72.6797C156.87 72.8672 157.219 73.1354 157.5 73.4844C157.786 73.8281 158.003 74.237 158.148 74.7109C158.294 75.1797 158.367 75.6979 158.367 76.2656V76.8359H151.969V76.0391H157.438V75.9297C157.427 75.4557 157.331 75.013 157.148 74.6016C156.971 74.1849 156.706 73.8464 156.352 73.5859C155.997 73.3255 155.555 73.1953 155.023 73.1953C154.628 73.1953 154.263 73.2786 153.93 73.4453C153.602 73.612 153.318 73.8516 153.078 74.1641C152.844 74.4714 152.661 74.8385 152.531 75.2656C152.406 75.6875 152.344 76.1562 152.344 76.6719V77.0078C152.344 77.4766 152.411 77.9141 152.547 78.3203C152.688 78.7214 152.885 79.0755 153.141 79.3828C153.401 79.6901 153.708 79.9297 154.062 80.1016C154.417 80.2734 154.807 80.3594 155.234 80.3594C155.734 80.3594 156.177 80.2682 156.562 80.0859C156.948 79.8984 157.294 79.6042 157.602 79.2031L158.188 79.6562C158.005 79.9271 157.776 80.1771 157.5 80.4062C157.229 80.6354 156.904 80.8177 156.523 80.9531C156.143 81.0885 155.701 81.1562 155.195 81.1562ZM163.477 81.1562C162.924 81.1562 162.417 81.0547 161.953 80.8516C161.495 80.6484 161.094 80.362 160.75 79.9922C160.411 79.6224 160.148 79.1849 159.961 78.6797C159.779 78.1693 159.688 77.612 159.688 77.0078V76.6719C159.688 76.0208 159.784 75.4323 159.977 74.9062C160.169 74.3802 160.435 73.9297 160.773 73.5547C161.112 73.1797 161.497 72.8932 161.93 72.6953C162.367 72.4922 162.826 72.3906 163.305 72.3906C163.841 72.3906 164.318 72.487 164.734 72.6797C165.151 72.8672 165.5 73.1354 165.781 73.4844C166.068 73.8281 166.284 74.237 166.43 74.7109C166.576 75.1797 166.648 75.6979 166.648 76.2656V76.8359H160.25V76.0391H165.719V75.9297C165.708 75.4557 165.612 75.013 165.43 74.6016C165.253 74.1849 164.987 73.8464 164.633 73.5859C164.279 73.3255 163.836 73.1953 163.305 73.1953C162.909 73.1953 162.544 73.2786 162.211 73.4453C161.883 73.612 161.599 73.8516 161.359 74.1641C161.125 74.4714 160.943 74.8385 160.812 75.2656C160.688 75.6875 160.625 76.1562 160.625 76.6719V77.0078C160.625 77.4766 160.693 77.9141 160.828 78.3203C160.969 78.7214 161.167 79.0755 161.422 79.3828C161.682 79.6901 161.99 79.9297 162.344 80.1016C162.698 80.2734 163.089 80.3594 163.516 80.3594C164.016 80.3594 164.458 80.2682 164.844 80.0859C165.229 79.8984 165.576 79.6042 165.883 79.2031L166.469 79.6562C166.286 79.9271 166.057 80.1771 165.781 80.4062C165.51 80.6354 165.185 80.8177 164.805 80.9531C164.424 81.0885 163.982 81.1562 163.477 81.1562ZM173.984 79.3594V69H174.922V81H174.047L173.984 79.3594ZM168.117 76.8594V76.6953C168.117 76.0391 168.193 75.4479 168.344 74.9219C168.495 74.3906 168.711 73.9375 168.992 73.5625C169.279 73.1823 169.622 72.8932 170.023 72.6953C170.424 72.4922 170.878 72.3906 171.383 72.3906C171.878 72.3906 172.315 72.4714 172.695 72.6328C173.076 72.7943 173.401 73.026 173.672 73.3281C173.948 73.6302 174.169 73.9896 174.336 74.4062C174.508 74.8229 174.633 75.2865 174.711 75.7969V77.8828C174.648 78.362 174.534 78.8021 174.367 79.2031C174.201 79.599 173.979 79.9453 173.703 80.2422C173.427 80.5339 173.094 80.7604 172.703 80.9219C172.318 81.0781 171.872 81.1562 171.367 81.1562C170.867 81.1562 170.417 81.0521 170.016 80.8438C169.615 80.6354 169.273 80.3411 168.992 79.9609C168.711 79.5755 168.495 79.1198 168.344 78.5938C168.193 78.0677 168.117 77.4896 168.117 76.8594ZM169.055 76.6953V76.8594C169.055 77.3542 169.104 77.8125 169.203 78.2344C169.302 78.6562 169.453 79.0234 169.656 79.3359C169.859 79.6484 170.117 79.8932 170.43 80.0703C170.742 80.2474 171.112 80.3359 171.539 80.3359C172.076 80.3359 172.526 80.2344 172.891 80.0312C173.255 79.8229 173.547 79.5495 173.766 79.2109C173.984 78.8672 174.143 78.4922 174.242 78.0859V75.6562C174.18 75.3802 174.089 75.099 173.969 74.8125C173.849 74.526 173.685 74.263 173.477 74.0234C173.273 73.7786 173.013 73.5833 172.695 73.4375C172.383 73.2865 172.003 73.2109 171.555 73.2109C171.122 73.2109 170.75 73.2995 170.438 73.4766C170.125 73.6536 169.865 73.901 169.656 74.2188C169.453 74.5312 169.302 74.8984 169.203 75.3203C169.104 75.7422 169.055 76.2005 169.055 76.6953ZM186.781 79.3594V69H187.719V81H186.844L186.781 79.3594ZM180.914 76.8594V76.6953C180.914 76.0391 180.99 75.4479 181.141 74.9219C181.292 74.3906 181.508 73.9375 181.789 73.5625C182.076 73.1823 182.419 72.8932 182.82 72.6953C183.221 72.4922 183.674 72.3906 184.18 72.3906C184.674 72.3906 185.112 72.4714 185.492 72.6328C185.872 72.7943 186.198 73.026 186.469 73.3281C186.745 73.6302 186.966 73.9896 187.133 74.4062C187.305 74.8229 187.43 75.2865 187.508 75.7969V77.8828C187.445 78.362 187.331 78.8021 187.164 79.2031C186.997 79.599 186.776 79.9453 186.5 80.2422C186.224 80.5339 185.891 80.7604 185.5 80.9219C185.115 81.0781 184.669 81.1562 184.164 81.1562C183.664 81.1562 183.214 81.0521 182.812 80.8438C182.411 80.6354 182.07 80.3411 181.789 79.9609C181.508 79.5755 181.292 79.1198 181.141 78.5938C180.99 78.0677 180.914 77.4896 180.914 76.8594ZM181.852 76.6953V76.8594C181.852 77.3542 181.901 77.8125 182 78.2344C182.099 78.6562 182.25 79.0234 182.453 79.3359C182.656 79.6484 182.914 79.8932 183.227 80.0703C183.539 80.2474 183.909 80.3359 184.336 80.3359C184.872 80.3359 185.323 80.2344 185.688 80.0312C186.052 79.8229 186.344 79.5495 186.562 79.2109C186.781 78.8672 186.94 78.4922 187.039 78.0859V75.6562C186.977 75.3802 186.885 75.099 186.766 74.8125C186.646 74.526 186.482 74.263 186.273 74.0234C186.07 73.7786 185.81 73.5833 185.492 73.4375C185.18 73.2865 184.799 73.2109 184.352 73.2109C183.919 73.2109 183.547 73.2995 183.234 73.4766C182.922 73.6536 182.661 73.901 182.453 74.2188C182.25 74.5312 182.099 74.8984 182 75.3203C181.901 75.7422 181.852 76.2005 181.852 76.6953ZM189.664 76.9062V76.6484C189.664 76.0339 189.753 75.4661 189.93 74.9453C190.107 74.4245 190.359 73.974 190.688 73.5938C191.021 73.2135 191.419 72.9193 191.883 72.7109C192.346 72.4974 192.862 72.3906 193.43 72.3906C194.003 72.3906 194.521 72.4974 194.984 72.7109C195.448 72.9193 195.846 73.2135 196.18 73.5938C196.513 73.974 196.768 74.4245 196.945 74.9453C197.122 75.4661 197.211 76.0339 197.211 76.6484V76.9062C197.211 77.5208 197.122 78.0885 196.945 78.6094C196.768 79.125 196.513 79.5729 196.18 79.9531C195.852 80.3333 195.456 80.6302 194.992 80.8438C194.529 81.0521 194.013 81.1562 193.445 81.1562C192.872 81.1562 192.354 81.0521 191.891 80.8438C191.427 80.6302 191.029 80.3333 190.695 79.9531C190.362 79.5729 190.107 79.125 189.93 78.6094C189.753 78.0885 189.664 77.5208 189.664 76.9062ZM190.594 76.6484V76.9062C190.594 77.3698 190.656 77.8099 190.781 78.2266C190.906 78.638 191.089 79.0052 191.328 79.3281C191.568 79.6458 191.865 79.8958 192.219 80.0781C192.573 80.2604 192.982 80.3516 193.445 80.3516C193.904 80.3516 194.307 80.2604 194.656 80.0781C195.01 79.8958 195.307 79.6458 195.547 79.3281C195.786 79.0052 195.966 78.638 196.086 78.2266C196.211 77.8099 196.273 77.3698 196.273 76.9062V76.6484C196.273 76.1901 196.211 75.7552 196.086 75.3438C195.966 74.9323 195.784 74.5651 195.539 74.2422C195.299 73.9193 195.003 73.6641 194.648 73.4766C194.294 73.2891 193.888 73.1953 193.43 73.1953C192.971 73.1953 192.565 73.2891 192.211 73.4766C191.862 73.6641 191.565 73.9193 191.32 74.2422C191.081 74.5651 190.898 74.9323 190.773 75.3438C190.654 75.7552 190.594 76.1901 190.594 76.6484ZM206.25 72.5469V73.3125H202.016V72.5469H206.25ZM203.57 70.375H204.5V78.9453C204.5 79.3359 204.552 79.6302 204.656 79.8281C204.76 80.026 204.896 80.1589 205.062 80.2266C205.229 80.2943 205.409 80.3281 205.602 80.3281C205.742 80.3281 205.878 80.3203 206.008 80.3047C206.138 80.2839 206.255 80.263 206.359 80.2422L206.398 81.0312C206.284 81.0677 206.135 81.0964 205.953 81.1172C205.771 81.1432 205.589 81.1562 205.406 81.1562C205.047 81.1562 204.729 81.0911 204.453 80.9609C204.177 80.8255 203.961 80.5964 203.805 80.2734C203.648 79.9453 203.57 79.5 203.57 78.9375V70.375ZM209.141 69V81H208.211V69H209.141ZM208.93 76.25L208.516 76.0156C208.547 75.5156 208.648 75.0469 208.82 74.6094C208.992 74.1719 209.224 73.7865 209.516 73.4531C209.812 73.1198 210.159 72.8594 210.555 72.6719C210.956 72.4844 211.398 72.3906 211.883 72.3906C212.305 72.3906 212.682 72.4479 213.016 72.5625C213.349 72.6771 213.633 72.8594 213.867 73.1094C214.102 73.3594 214.279 73.6797 214.398 74.0703C214.523 74.4609 214.586 74.9375 214.586 75.5V81H213.648V75.4922C213.648 74.9089 213.568 74.4531 213.406 74.125C213.245 73.7917 213.016 73.5547 212.719 73.4141C212.422 73.2734 212.07 73.2031 211.664 73.2031C211.216 73.2031 210.823 73.3021 210.484 73.5C210.151 73.6927 209.87 73.9453 209.641 74.2578C209.417 74.5651 209.245 74.8958 209.125 75.25C209.005 75.599 208.94 75.9323 208.93 76.25ZM218.031 72.5469V81H217.102V72.5469H218.031ZM216.938 70.1016C216.938 69.9245 216.992 69.776 217.102 69.6562C217.216 69.5312 217.372 69.4688 217.57 69.4688C217.768 69.4688 217.924 69.5312 218.039 69.6562C218.159 69.776 218.219 69.9245 218.219 70.1016C218.219 70.2734 218.159 70.4219 218.039 70.5469C217.924 70.6667 217.768 70.7266 217.57 70.7266C217.372 70.7266 217.216 70.6667 217.102 70.5469C216.992 70.4219 216.938 70.2734 216.938 70.1016ZM225.648 78.8438C225.648 78.6146 225.591 78.388 225.477 78.1641C225.362 77.9401 225.141 77.7344 224.812 77.5469C224.49 77.3594 224.013 77.2005 223.383 77.0703C222.914 76.9661 222.495 76.849 222.125 76.7188C221.76 76.5885 221.453 76.4323 221.203 76.25C220.953 76.0677 220.763 75.849 220.633 75.5938C220.503 75.3385 220.438 75.0365 220.438 74.6875C220.438 74.375 220.505 74.0807 220.641 73.8047C220.781 73.5234 220.979 73.2786 221.234 73.0703C221.495 72.8568 221.807 72.6901 222.172 72.5703C222.542 72.4505 222.956 72.3906 223.414 72.3906C224.065 72.3906 224.622 72.5026 225.086 72.7266C225.555 72.9453 225.911 73.2448 226.156 73.625C226.406 74.0052 226.531 74.4349 226.531 74.9141H225.602C225.602 74.6224 225.516 74.3464 225.344 74.0859C225.177 73.8255 224.93 73.612 224.602 73.4453C224.279 73.2786 223.883 73.1953 223.414 73.1953C222.93 73.1953 222.536 73.2682 222.234 73.4141C221.932 73.5599 221.711 73.7448 221.57 73.9688C221.435 74.1927 221.367 74.4245 221.367 74.6641C221.367 74.8516 221.396 75.0234 221.453 75.1797C221.516 75.3307 221.625 75.4714 221.781 75.6016C221.943 75.7318 222.172 75.8542 222.469 75.9688C222.766 76.0833 223.151 76.1953 223.625 76.3047C224.307 76.4557 224.865 76.6406 225.297 76.8594C225.734 77.0729 226.057 77.3385 226.266 77.6562C226.474 77.9688 226.578 78.349 226.578 78.7969C226.578 79.1458 226.505 79.4661 226.359 79.7578C226.214 80.0443 226.003 80.2917 225.727 80.5C225.456 80.7083 225.128 80.8698 224.742 80.9844C224.362 81.099 223.935 81.1562 223.461 81.1562C222.747 81.1562 222.143 81.0391 221.648 80.8047C221.159 80.5651 220.786 80.2526 220.531 79.8672C220.281 79.4766 220.156 79.0625 220.156 78.625H221.086C221.117 79.0625 221.255 79.4089 221.5 79.6641C221.745 79.9141 222.044 80.0911 222.398 80.1953C222.758 80.2995 223.112 80.3516 223.461 80.3516C223.94 80.3516 224.341 80.2812 224.664 80.1406C224.987 80 225.232 79.8151 225.398 79.5859C225.565 79.3568 225.648 79.1094 225.648 78.8438Z" fill="black"/>
<rect x="39" y="100" width="290" height="34" rx="5" fill="#AFAFAF" fill-opacity="0.2"/>
<path d="M88.1797 112.305L84.2422 123H83.2422L87.5391 111.625H88.2344L88.1797 112.305ZM91.7578 123L87.8125 112.305L87.7578 111.625H88.4531L92.7578 123H91.7578ZM91.0547 118.984V119.812H85.0156V118.984H91.0547ZM94.2109 111H95.1484V121.359L95.0859 123H94.2109V111ZM101.031 118.695V118.859C101.031 119.49 100.958 120.068 100.812 120.594C100.667 121.12 100.456 121.576 100.18 121.961C99.9036 122.341 99.5651 122.635 99.1641 122.844C98.7682 123.052 98.3125 123.156 97.7969 123.156C97.2917 123.156 96.8438 123.078 96.4531 122.922C96.0625 122.76 95.7292 122.534 95.4531 122.242C95.1771 121.945 94.9557 121.599 94.7891 121.203C94.6224 120.802 94.5052 120.362 94.4375 119.883V117.797C94.5156 117.286 94.6406 116.823 94.8125 116.406C94.9844 115.99 95.2057 115.63 95.4766 115.328C95.7526 115.026 96.0807 114.794 96.4609 114.633C96.8464 114.471 97.2865 114.391 97.7812 114.391C98.2969 114.391 98.7552 114.492 99.1562 114.695C99.5625 114.893 99.9036 115.182 100.18 115.562C100.456 115.938 100.667 116.391 100.812 116.922C100.958 117.448 101.031 118.039 101.031 118.695ZM100.086 118.859V118.695C100.086 118.201 100.039 117.742 99.9453 117.32C99.8516 116.898 99.7031 116.531 99.5 116.219C99.3021 115.901 99.0469 115.654 98.7344 115.477C98.4219 115.299 98.0469 115.211 97.6094 115.211C97.1615 115.211 96.7786 115.286 96.4609 115.438C96.1484 115.583 95.888 115.779 95.6797 116.023C95.4766 116.263 95.3151 116.526 95.1953 116.812C95.0755 117.099 94.987 117.38 94.9297 117.656V120.086C95.0182 120.477 95.1719 120.844 95.3906 121.188C95.6094 121.531 95.9036 121.81 96.2734 122.023C96.6432 122.232 97.0938 122.336 97.625 122.336C98.0521 122.336 98.4193 122.247 98.7266 122.07C99.0391 121.893 99.2943 121.648 99.4922 121.336C99.6953 121.023 99.8438 120.656 99.9375 120.234C100.036 119.812 100.086 119.354 100.086 118.859ZM102.586 118.906V118.648C102.586 118.034 102.674 117.466 102.852 116.945C103.029 116.424 103.281 115.974 103.609 115.594C103.943 115.214 104.341 114.919 104.805 114.711C105.268 114.497 105.784 114.391 106.352 114.391C106.924 114.391 107.443 114.497 107.906 114.711C108.37 114.919 108.768 115.214 109.102 115.594C109.435 115.974 109.69 116.424 109.867 116.945C110.044 117.466 110.133 118.034 110.133 118.648V118.906C110.133 119.521 110.044 120.089 109.867 120.609C109.69 121.125 109.435 121.573 109.102 121.953C108.773 122.333 108.378 122.63 107.914 122.844C107.451 123.052 106.935 123.156 106.367 123.156C105.794 123.156 105.276 123.052 104.812 122.844C104.349 122.63 103.951 122.333 103.617 121.953C103.284 121.573 103.029 121.125 102.852 120.609C102.674 120.089 102.586 119.521 102.586 118.906ZM103.516 118.648V118.906C103.516 119.37 103.578 119.81 103.703 120.227C103.828 120.638 104.01 121.005 104.25 121.328C104.49 121.646 104.786 121.896 105.141 122.078C105.495 122.26 105.904 122.352 106.367 122.352C106.826 122.352 107.229 122.26 107.578 122.078C107.932 121.896 108.229 121.646 108.469 121.328C108.708 121.005 108.888 120.638 109.008 120.227C109.133 119.81 109.195 119.37 109.195 118.906V118.648C109.195 118.19 109.133 117.755 109.008 117.344C108.888 116.932 108.706 116.565 108.461 116.242C108.221 115.919 107.924 115.664 107.57 115.477C107.216 115.289 106.81 115.195 106.352 115.195C105.893 115.195 105.487 115.289 105.133 115.477C104.784 115.664 104.487 115.919 104.242 116.242C104.003 116.565 103.82 116.932 103.695 117.344C103.576 117.755 103.516 118.19 103.516 118.648ZM117.484 121.047V114.547H118.422V123H117.523L117.484 121.047ZM117.656 119.484L118.141 119.469C118.141 120 118.078 120.49 117.953 120.938C117.828 121.385 117.633 121.776 117.367 122.109C117.102 122.443 116.758 122.701 116.336 122.883C115.914 123.065 115.406 123.156 114.812 123.156C114.401 123.156 114.023 123.099 113.68 122.984C113.341 122.865 113.049 122.677 112.805 122.422C112.56 122.167 112.37 121.836 112.234 121.43C112.104 121.023 112.039 120.531 112.039 119.953V114.547H112.969V119.969C112.969 120.422 113.018 120.799 113.117 121.102C113.221 121.404 113.362 121.646 113.539 121.828C113.721 122.01 113.93 122.141 114.164 122.219C114.398 122.297 114.651 122.336 114.922 122.336C115.609 122.336 116.151 122.203 116.547 121.938C116.948 121.672 117.232 121.323 117.398 120.891C117.57 120.453 117.656 119.984 117.656 119.484ZM124.062 114.547V115.312H119.828V114.547H124.062ZM121.383 112.375H122.312V120.945C122.312 121.336 122.365 121.63 122.469 121.828C122.573 122.026 122.708 122.159 122.875 122.227C123.042 122.294 123.221 122.328 123.414 122.328C123.555 122.328 123.69 122.32 123.82 122.305C123.951 122.284 124.068 122.263 124.172 122.242L124.211 123.031C124.096 123.068 123.948 123.096 123.766 123.117C123.583 123.143 123.401 123.156 123.219 123.156C122.859 123.156 122.542 123.091 122.266 122.961C121.99 122.826 121.773 122.596 121.617 122.273C121.461 121.945 121.383 121.5 121.383 120.938V112.375ZM129.914 111H130.852V121.359L130.789 123H129.914V111ZM136.734 118.695V118.859C136.734 119.49 136.661 120.068 136.516 120.594C136.37 121.12 136.159 121.576 135.883 121.961C135.607 122.341 135.268 122.635 134.867 122.844C134.471 123.052 134.016 123.156 133.5 123.156C132.995 123.156 132.547 123.078 132.156 122.922C131.766 122.76 131.432 122.534 131.156 122.242C130.88 121.945 130.659 121.599 130.492 121.203C130.326 120.802 130.208 120.362 130.141 119.883V117.797C130.219 117.286 130.344 116.823 130.516 116.406C130.688 115.99 130.909 115.63 131.18 115.328C131.456 115.026 131.784 114.794 132.164 114.633C132.549 114.471 132.99 114.391 133.484 114.391C134 114.391 134.458 114.492 134.859 114.695C135.266 114.893 135.607 115.182 135.883 115.562C136.159 115.938 136.37 116.391 136.516 116.922C136.661 117.448 136.734 118.039 136.734 118.695ZM135.789 118.859V118.695C135.789 118.201 135.742 117.742 135.648 117.32C135.555 116.898 135.406 116.531 135.203 116.219C135.005 115.901 134.75 115.654 134.438 115.477C134.125 115.299 133.75 115.211 133.312 115.211C132.865 115.211 132.482 115.286 132.164 115.438C131.852 115.583 131.591 115.779 131.383 116.023C131.18 116.263 131.018 116.526 130.898 116.812C130.779 117.099 130.69 117.38 130.633 117.656V120.086C130.721 120.477 130.875 120.844 131.094 121.188C131.312 121.531 131.607 121.81 131.977 122.023C132.346 122.232 132.797 122.336 133.328 122.336C133.755 122.336 134.122 122.247 134.43 122.07C134.742 121.893 134.997 121.648 135.195 121.336C135.398 121.023 135.547 120.656 135.641 120.234C135.74 119.812 135.789 119.354 135.789 118.859ZM144.219 121.047V114.547H145.156V123H144.258L144.219 121.047ZM144.391 119.484L144.875 119.469C144.875 120 144.812 120.49 144.688 120.938C144.562 121.385 144.367 121.776 144.102 122.109C143.836 122.443 143.492 122.701 143.07 122.883C142.648 123.065 142.141 123.156 141.547 123.156C141.135 123.156 140.758 123.099 140.414 122.984C140.076 122.865 139.784 122.677 139.539 122.422C139.294 122.167 139.104 121.836 138.969 121.43C138.839 121.023 138.773 120.531 138.773 119.953V114.547H139.703V119.969C139.703 120.422 139.753 120.799 139.852 121.102C139.956 121.404 140.096 121.646 140.273 121.828C140.456 122.01 140.664 122.141 140.898 122.219C141.133 122.297 141.385 122.336 141.656 122.336C142.344 122.336 142.885 122.203 143.281 121.938C143.682 121.672 143.966 121.323 144.133 120.891C144.305 120.453 144.391 119.984 144.391 119.484ZM152.664 120.844C152.664 120.615 152.607 120.388 152.492 120.164C152.378 119.94 152.156 119.734 151.828 119.547C151.505 119.359 151.029 119.201 150.398 119.07C149.93 118.966 149.51 118.849 149.141 118.719C148.776 118.589 148.469 118.432 148.219 118.25C147.969 118.068 147.779 117.849 147.648 117.594C147.518 117.339 147.453 117.036 147.453 116.688C147.453 116.375 147.521 116.081 147.656 115.805C147.797 115.523 147.995 115.279 148.25 115.07C148.51 114.857 148.823 114.69 149.188 114.57C149.557 114.451 149.971 114.391 150.43 114.391C151.081 114.391 151.638 114.503 152.102 114.727C152.57 114.945 152.927 115.245 153.172 115.625C153.422 116.005 153.547 116.435 153.547 116.914H152.617C152.617 116.622 152.531 116.346 152.359 116.086C152.193 115.826 151.945 115.612 151.617 115.445C151.294 115.279 150.898 115.195 150.43 115.195C149.945 115.195 149.552 115.268 149.25 115.414C148.948 115.56 148.727 115.745 148.586 115.969C148.451 116.193 148.383 116.424 148.383 116.664C148.383 116.852 148.411 117.023 148.469 117.18C148.531 117.331 148.641 117.471 148.797 117.602C148.958 117.732 149.188 117.854 149.484 117.969C149.781 118.083 150.167 118.195 150.641 118.305C151.323 118.456 151.88 118.641 152.312 118.859C152.75 119.073 153.073 119.339 153.281 119.656C153.49 119.969 153.594 120.349 153.594 120.797C153.594 121.146 153.521 121.466 153.375 121.758C153.229 122.044 153.018 122.292 152.742 122.5C152.471 122.708 152.143 122.87 151.758 122.984C151.378 123.099 150.951 123.156 150.477 123.156C149.763 123.156 149.159 123.039 148.664 122.805C148.174 122.565 147.802 122.253 147.547 121.867C147.297 121.477 147.172 121.062 147.172 120.625H148.102C148.133 121.062 148.271 121.409 148.516 121.664C148.76 121.914 149.06 122.091 149.414 122.195C149.773 122.299 150.128 122.352 150.477 122.352C150.956 122.352 151.357 122.281 151.68 122.141C152.003 122 152.247 121.815 152.414 121.586C152.581 121.357 152.664 121.109 152.664 120.844ZM156.75 114.547V123H155.82V114.547H156.75ZM155.656 112.102C155.656 111.924 155.711 111.776 155.82 111.656C155.935 111.531 156.091 111.469 156.289 111.469C156.487 111.469 156.643 111.531 156.758 111.656C156.878 111.776 156.938 111.924 156.938 112.102C156.938 112.273 156.878 112.422 156.758 112.547C156.643 112.667 156.487 112.727 156.289 112.727C156.091 112.727 155.935 112.667 155.82 112.547C155.711 112.422 155.656 112.273 155.656 112.102ZM160.234 116.352V123H159.305V114.547H160.195L160.234 116.352ZM160.023 118.25L159.609 118.016C159.641 117.516 159.742 117.047 159.914 116.609C160.086 116.172 160.318 115.786 160.609 115.453C160.906 115.12 161.253 114.859 161.648 114.672C162.049 114.484 162.492 114.391 162.977 114.391C163.398 114.391 163.776 114.448 164.109 114.562C164.443 114.677 164.727 114.859 164.961 115.109C165.195 115.359 165.372 115.68 165.492 116.07C165.617 116.461 165.68 116.938 165.68 117.5V123H164.742V117.492C164.742 116.909 164.661 116.453 164.5 116.125C164.339 115.792 164.109 115.555 163.812 115.414C163.516 115.273 163.164 115.203 162.758 115.203C162.31 115.203 161.917 115.302 161.578 115.5C161.245 115.693 160.964 115.945 160.734 116.258C160.51 116.565 160.339 116.896 160.219 117.25C160.099 117.599 160.034 117.932 160.023 118.25ZM171.367 123.156C170.815 123.156 170.307 123.055 169.844 122.852C169.385 122.648 168.984 122.362 168.641 121.992C168.302 121.622 168.039 121.185 167.852 120.68C167.669 120.169 167.578 119.612 167.578 119.008V118.672C167.578 118.021 167.674 117.432 167.867 116.906C168.06 116.38 168.326 115.93 168.664 115.555C169.003 115.18 169.388 114.893 169.82 114.695C170.258 114.492 170.716 114.391 171.195 114.391C171.732 114.391 172.208 114.487 172.625 114.68C173.042 114.867 173.391 115.135 173.672 115.484C173.958 115.828 174.174 116.237 174.32 116.711C174.466 117.18 174.539 117.698 174.539 118.266V118.836H168.141V118.039H173.609V117.93C173.599 117.456 173.503 117.013 173.32 116.602C173.143 116.185 172.878 115.846 172.523 115.586C172.169 115.326 171.727 115.195 171.195 115.195C170.799 115.195 170.435 115.279 170.102 115.445C169.773 115.612 169.49 115.852 169.25 116.164C169.016 116.471 168.833 116.839 168.703 117.266C168.578 117.688 168.516 118.156 168.516 118.672V119.008C168.516 119.477 168.583 119.914 168.719 120.32C168.859 120.721 169.057 121.076 169.312 121.383C169.573 121.69 169.88 121.93 170.234 122.102C170.589 122.273 170.979 122.359 171.406 122.359C171.906 122.359 172.349 122.268 172.734 122.086C173.12 121.898 173.466 121.604 173.773 121.203L174.359 121.656C174.177 121.927 173.948 122.177 173.672 122.406C173.401 122.635 173.076 122.818 172.695 122.953C172.315 123.089 171.872 123.156 171.367 123.156ZM181.445 120.844C181.445 120.615 181.388 120.388 181.273 120.164C181.159 119.94 180.938 119.734 180.609 119.547C180.286 119.359 179.81 119.201 179.18 119.07C178.711 118.966 178.292 118.849 177.922 118.719C177.557 118.589 177.25 118.432 177 118.25C176.75 118.068 176.56 117.849 176.43 117.594C176.299 117.339 176.234 117.036 176.234 116.688C176.234 116.375 176.302 116.081 176.438 115.805C176.578 115.523 176.776 115.279 177.031 115.07C177.292 114.857 177.604 114.69 177.969 114.57C178.339 114.451 178.753 114.391 179.211 114.391C179.862 114.391 180.419 114.503 180.883 114.727C181.352 114.945 181.708 115.245 181.953 115.625C182.203 116.005 182.328 116.435 182.328 116.914H181.398C181.398 116.622 181.312 116.346 181.141 116.086C180.974 115.826 180.727 115.612 180.398 115.445C180.076 115.279 179.68 115.195 179.211 115.195C178.727 115.195 178.333 115.268 178.031 115.414C177.729 115.56 177.508 115.745 177.367 115.969C177.232 116.193 177.164 116.424 177.164 116.664C177.164 116.852 177.193 117.023 177.25 117.18C177.312 117.331 177.422 117.471 177.578 117.602C177.74 117.732 177.969 117.854 178.266 117.969C178.562 118.083 178.948 118.195 179.422 118.305C180.104 118.456 180.661 118.641 181.094 118.859C181.531 119.073 181.854 119.339 182.062 119.656C182.271 119.969 182.375 120.349 182.375 120.797C182.375 121.146 182.302 121.466 182.156 121.758C182.01 122.044 181.799 122.292 181.523 122.5C181.253 122.708 180.924 122.87 180.539 122.984C180.159 123.099 179.732 123.156 179.258 123.156C178.544 123.156 177.94 123.039 177.445 122.805C176.956 122.565 176.583 122.253 176.328 121.867C176.078 121.477 175.953 121.062 175.953 120.625H176.883C176.914 121.062 177.052 121.409 177.297 121.664C177.542 121.914 177.841 122.091 178.195 122.195C178.555 122.299 178.909 122.352 179.258 122.352C179.737 122.352 180.138 122.281 180.461 122.141C180.784 122 181.029 121.815 181.195 121.586C181.362 121.357 181.445 121.109 181.445 120.844ZM189.555 120.844C189.555 120.615 189.497 120.388 189.383 120.164C189.268 119.94 189.047 119.734 188.719 119.547C188.396 119.359 187.919 119.201 187.289 119.07C186.82 118.966 186.401 118.849 186.031 118.719C185.667 118.589 185.359 118.432 185.109 118.25C184.859 118.068 184.669 117.849 184.539 117.594C184.409 117.339 184.344 117.036 184.344 116.688C184.344 116.375 184.411 116.081 184.547 115.805C184.688 115.523 184.885 115.279 185.141 115.07C185.401 114.857 185.714 114.69 186.078 114.57C186.448 114.451 186.862 114.391 187.32 114.391C187.971 114.391 188.529 114.503 188.992 114.727C189.461 114.945 189.818 115.245 190.062 115.625C190.312 116.005 190.438 116.435 190.438 116.914H189.508C189.508 116.622 189.422 116.346 189.25 116.086C189.083 115.826 188.836 115.612 188.508 115.445C188.185 115.279 187.789 115.195 187.32 115.195C186.836 115.195 186.443 115.268 186.141 115.414C185.839 115.56 185.617 115.745 185.477 115.969C185.341 116.193 185.273 116.424 185.273 116.664C185.273 116.852 185.302 117.023 185.359 117.18C185.422 117.331 185.531 117.471 185.688 117.602C185.849 117.732 186.078 117.854 186.375 117.969C186.672 118.083 187.057 118.195 187.531 118.305C188.214 118.456 188.771 118.641 189.203 118.859C189.641 119.073 189.964 119.339 190.172 119.656C190.38 119.969 190.484 120.349 190.484 120.797C190.484 121.146 190.411 121.466 190.266 121.758C190.12 122.044 189.909 122.292 189.633 122.5C189.362 122.708 189.034 122.87 188.648 122.984C188.268 123.099 187.841 123.156 187.367 123.156C186.654 123.156 186.049 123.039 185.555 122.805C185.065 122.565 184.693 122.253 184.438 121.867C184.188 121.477 184.062 121.062 184.062 120.625H184.992C185.023 121.062 185.161 121.409 185.406 121.664C185.651 121.914 185.951 122.091 186.305 122.195C186.664 122.299 187.018 122.352 187.367 122.352C187.846 122.352 188.247 122.281 188.57 122.141C188.893 122 189.138 121.815 189.305 121.586C189.471 121.357 189.555 121.109 189.555 120.844Z" fill="black"/>
<path d="M67.9 107H52.5C51.8923 107 51.4 107.492 51.4 108.1V111.952H69V108.1C69 107.492 68.5078 107 67.9 107Z" fill="url(#paint1_linear_3447_237)"/>
<path d="M51.4 121.88V125.7C51.4 126.308 51.8923 126.8 52.5 126.8H67.9C68.5078 126.8 69 126.308 69 125.7V121.88H51.4Z" fill="url(#paint2_linear_3447_237)"/>
<path d="M51.4 111.952H69V116.903H51.4V111.952Z" fill="url(#paint3_linear_3447_237)"/>
<path d="M51.4 116.903H69V121.88H51.4V116.903Z" fill="url(#paint4_linear_3447_237)"/>
<path opacity="0.05" d="M57.0755 110.85H51.4V124.05H57.0755C58.1936 124.05 59.1 123.144 59.1 122.025V112.875C59.1 111.756 58.1936 110.85 57.0755 110.85Z" fill="black"/>
<path opacity="0.07" d="M57.0172 123.5H51.4V111.033H57.0172C57.9654 111.033 58.7337 111.801 58.7337 112.75V121.783C58.7332 122.732 57.9648 123.5 57.0172 123.5Z" fill="black"/>
<path opacity="0.09" d="M56.9583 122.95H51.4V111.217H56.9583C57.736 111.217 58.3663 111.847 58.3663 112.625V121.542C58.3669 122.32 57.736 122.95 56.9583 122.95Z" fill="black"/>
<path d="M56.9 122.4H48.1C47.4923 122.4 47 121.908 47 121.3V112.5C47 111.892 47.4923 111.4 48.1 111.4H56.9C57.5078 111.4 58 111.892 58 112.5V121.3C58 121.908 57.5078 122.4 56.9 122.4Z" fill="url(#paint5_linear_3447_237)"/>
<path d="M54.9217 114.15L54.0714 118.145L53.1292 114.15H51.9264L50.9545 118.269L50.0784 114.15H49.0026L50.2918 119.65H51.5854L52.5275 115.421L53.4702 119.65H54.7083L55.9975 114.15H54.9217Z" fill="white"/>
<defs>
<filter id="filter0_d_3447_237" x="0" y="0" width="358" height="174" filterUnits="userSpaceOnUse" color-interpolation-filters="sRGB">
<feFlood flood-opacity="0" result="BackgroundImageFix"/>
<feColorMatrix in="SourceAlpha" type="matrix" values="0 0 0 0 0 0 0 0 0 0 0 0 0 0 0 0 0 0 127 0" result="hardAlpha"/>
<feOffset dx="1" dy="1"/>
<feGaussianBlur stdDeviation="2"/>
<feColorMatrix type="matrix" values="0 0 0 0 0 0 0 0 0 0 0 0 0 0 0 0 0 0 0.25 0"/>
<feBlend mode="normal" in2="BackgroundImageFix" result="effect1_dropShadow_3447_237"/>
<feBlend mode="normal" in="SourceGraphic" in2="effect1_dropShadow_3447_237" result="shape"/>
</filter>
<linearGradient id="paint0_linear_3447_237" x1="47.3223" y1="69.7223" x2="57.3235" y2="79.7235" gradientUnits="userSpaceOnUse">
<stop stop-color="#CA4E2A"/>
<stop offset="1" stop-color="#B63016"/>
</linearGradient>
<linearGradient id="paint1_linear_3447_237" x1="60.2" y1="111.931" x2="60.2" y2="107.247" gradientUnits="userSpaceOnUse">
<stop stop-color="#42A3F2"/>
<stop offset="1" stop-color="#42A4EB"/>
</linearGradient>
<linearGradient id="paint2_linear_3447_237" x1="60.2" y1="126.8" x2="60.2" y2="121.88" gradientUnits="userSpaceOnUse">
<stop stop-color="#11408A"/>
<stop offset="1" stop-color="#103F8F"/>
</linearGradient>
<linearGradient id="paint3_linear_3447_237" x1="60.2" y1="95.197" x2="60.2" y2="95.1635" gradientUnits="userSpaceOnUse">
<stop stop-color="#3079D6"/>
<stop offset="1" stop-color="#297CD2"/>
</linearGradient>
<linearGradient id="paint4_linear_3447_237" x1="51.4" y1="119.391" x2="69" y2="119.391" gradientUnits="userSpaceOnUse">
<stop stop-color="#1D59B3"/>
<stop offset="1" stop-color="#195BBC"/>
</linearGradient>
<linearGradient id="paint5_linear_3447_237" x1="47.4092" y1="111.809" x2="57.7217" y2="122.121" gradientUnits="userSpaceOnUse">
<stop stop-color="#256AC2"/>
<stop offset="1" stop-color="#1247AD"/>
</linearGradient>
</defs>
</svg>
