<svg width="60" height="59" viewBox="0 0 60 59" fill="none" xmlns="http://www.w3.org/2000/svg">
<path fill-rule="evenodd" clip-rule="evenodd" d="M60.0001 10.2224C60.0001 15.8681 55.4233 20.4448 49.7777 20.4448C47.1925 20.4448 44.8314 19.4852 43.0313 17.9027L20.444 30.6907C20.4373 31.2455 20.3864 31.7897 20.2947 32.3198L41.7991 42.1877C43.6726 39.852 46.5505 38.3565 49.7777 38.3565C55.4233 38.3565 60.0001 42.9333 60.0001 48.5789C60.0001 54.2246 55.4233 58.8013 49.7777 58.8013C44.132 58.8013 39.5552 54.2246 39.5552 48.5789C39.5552 48.3363 39.5637 48.0956 39.5803 47.8571L17.5124 37.7307C15.6578 39.6171 13.0767 40.7869 10.2224 40.7869C4.57673 40.7869 0 36.2102 0 30.5645C0 24.9188 4.57673 20.3421 10.2224 20.3421C13.7024 20.3421 16.7762 22.081 18.6224 24.7373L39.8608 12.713C39.6612 11.9158 39.5552 11.0815 39.5552 10.2224C39.5552 4.57673 44.132 0 49.7777 0C55.4233 0 60.0001 4.57673 60.0001 10.2224Z" fill="black"/>
</svg>
