<svg width="358" height="117" viewBox="0 0 358 117" fill="none" xmlns="http://www.w3.org/2000/svg">
<g filter="url(#filter0_d_3447_252)">
<rect x="3" y="3" width="350" height="109" rx="20" fill="#FEFFD0"/>
</g>
<path fill-rule="evenodd" clip-rule="evenodd" d="M23 3.00003C11.9543 3.00003 3 11.9543 3 23V92C3 103.046 11.9543 112 23 112V3.00003Z" fill="#AFAFAF" fill-opacity="0.3"/>
<path d="M51.4316 40.2637C51.321 41.7936 50.7546 42.998 49.7324 43.877C48.7168 44.7559 47.3757 45.1953 45.709 45.1953C43.8861 45.1953 42.4505 44.5833 41.4023 43.3594C40.3607 42.1289 39.8398 40.4427 39.8398 38.3008V37.4316C39.8398 36.0645 40.0807 34.86 40.5625 33.8184C41.0443 32.7767 41.7311 31.9792 42.623 31.4258C43.5215 30.8659 44.5632 30.5859 45.748 30.5859C47.3887 30.5859 48.7103 31.0254 49.7129 31.9043C50.7155 32.7832 51.2949 34.0169 51.4512 35.6055H48.5215C48.4499 34.6875 48.1927 34.0234 47.75 33.6133C47.3138 33.1966 46.6465 32.9883 45.748 32.9883C44.7715 32.9883 44.0391 33.3398 43.5508 34.043C43.069 34.7396 42.8216 35.8236 42.8086 37.2949V38.3691C42.8086 39.9056 43.0397 41.0286 43.502 41.7383C43.9707 42.4479 44.7064 42.8027 45.709 42.8027C46.6139 42.8027 47.2878 42.5977 47.7305 42.1875C48.1797 41.7708 48.4368 41.1296 48.502 40.2637H51.4316ZM59.1074 37.0801C58.7233 37.028 58.3848 37.002 58.0918 37.002C57.0241 37.002 56.3242 37.3633 55.9922 38.0859V45H53.1699V34.4336H55.8359L55.9141 35.6934C56.4805 34.7233 57.265 34.2383 58.2676 34.2383C58.5801 34.2383 58.873 34.2806 59.1465 34.3652L59.1074 37.0801ZM65.1426 45.1953C63.5931 45.1953 62.3301 44.7201 61.3535 43.7695C60.3835 42.819 59.8984 41.5527 59.8984 39.9707V39.6973C59.8984 38.6361 60.1035 37.6888 60.5137 36.8555C60.9238 36.0156 61.5033 35.3711 62.252 34.9219C63.0072 34.4661 63.8665 34.2383 64.8301 34.2383C66.2754 34.2383 67.4115 34.694 68.2383 35.6055C69.0716 36.5169 69.4883 37.8092 69.4883 39.4824V40.6348H62.7598C62.8509 41.3249 63.1243 41.8783 63.5801 42.2949C64.0423 42.7116 64.625 42.9199 65.3281 42.9199C66.4154 42.9199 67.265 42.526 67.877 41.7383L69.2637 43.291C68.8405 43.89 68.2676 44.3587 67.5449 44.6973C66.8223 45.0293 66.0215 45.1953 65.1426 45.1953ZM64.8203 36.5234C64.2604 36.5234 63.8047 36.7122 63.4531 37.0898C63.1081 37.4674 62.8867 38.0078 62.7891 38.7109H66.7148V38.4863C66.7018 37.8613 66.5326 37.3796 66.207 37.041C65.8815 36.696 65.4193 36.5234 64.8203 36.5234ZM77.2227 45C77.0924 44.7461 76.998 44.4303 76.9395 44.0527C76.2559 44.8145 75.3672 45.1953 74.2734 45.1953C73.2383 45.1953 72.3789 44.8958 71.6953 44.2969C71.0182 43.6979 70.6797 42.9427 70.6797 42.0312C70.6797 40.9115 71.0931 40.0521 71.9199 39.4531C72.7533 38.8542 73.9544 38.5514 75.5234 38.5449H76.8223V37.9395C76.8223 37.4512 76.6953 37.0605 76.4414 36.7676C76.194 36.4746 75.8001 36.3281 75.2598 36.3281C74.7845 36.3281 74.4102 36.4421 74.1367 36.6699C73.8698 36.8978 73.7363 37.2103 73.7363 37.6074H70.9141C70.9141 36.9954 71.1029 36.429 71.4805 35.9082C71.8581 35.3874 72.3919 34.9805 73.082 34.6875C73.7721 34.388 74.5469 34.2383 75.4062 34.2383C76.7083 34.2383 77.7402 34.5671 78.502 35.2246C79.2702 35.8757 79.6543 36.7936 79.6543 37.9785V42.5586C79.6608 43.5612 79.8008 44.3197 80.0742 44.834V45H77.2227ZM74.8887 43.0371C75.3053 43.0371 75.6895 42.946 76.041 42.7637C76.3926 42.5749 76.653 42.3242 76.8223 42.0117V40.1953H75.7676C74.3548 40.1953 73.6029 40.6836 73.5117 41.6602L73.502 41.8262C73.502 42.1777 73.6257 42.4674 73.873 42.6953C74.1204 42.9232 74.459 43.0371 74.8887 43.0371ZM85.2012 31.8359V34.4336H87.0078V36.5039H85.2012V41.7773C85.2012 42.168 85.276 42.4479 85.4258 42.6172C85.5755 42.7865 85.862 42.8711 86.2852 42.8711C86.5977 42.8711 86.8743 42.8483 87.1152 42.8027V44.9414C86.5618 45.1107 85.9922 45.1953 85.4062 45.1953C83.4271 45.1953 82.418 44.196 82.3789 42.1973V36.5039H80.8359V34.4336H82.3789V31.8359H85.2012ZM93.4434 45.1953C91.8939 45.1953 90.6309 44.7201 89.6543 43.7695C88.6842 42.819 88.1992 41.5527 88.1992 39.9707V39.6973C88.1992 38.6361 88.4043 37.6888 88.8145 36.8555C89.2246 36.0156 89.804 35.3711 90.5527 34.9219C91.3079 34.4661 92.1673 34.2383 93.1309 34.2383C94.5762 34.2383 95.7122 34.694 96.5391 35.6055C97.3724 36.5169 97.7891 37.8092 97.7891 39.4824V40.6348H91.0605C91.1517 41.3249 91.4251 41.8783 91.8809 42.2949C92.3431 42.7116 92.9258 42.9199 93.6289 42.9199C94.7161 42.9199 95.5658 42.526 96.1777 41.7383L97.5645 43.291C97.1413 43.89 96.5684 44.3587 95.8457 44.6973C95.123 45.0293 94.3223 45.1953 93.4434 45.1953ZM93.1211 36.5234C92.5612 36.5234 92.1055 36.7122 91.7539 37.0898C91.4089 37.4674 91.1875 38.0078 91.0898 38.7109H95.0156V38.4863C95.0026 37.8613 94.8333 37.3796 94.5078 37.041C94.1823 36.696 93.7201 36.5234 93.1211 36.5234ZM107.359 45H104.527V30H107.359V45ZM112.672 45H109.84V34.4336H112.672V45ZM109.674 31.6992C109.674 31.276 109.814 30.9277 110.094 30.6543C110.38 30.3809 110.768 30.2441 111.256 30.2441C111.738 30.2441 112.122 30.3809 112.408 30.6543C112.695 30.9277 112.838 31.276 112.838 31.6992C112.838 32.1289 112.691 32.4805 112.398 32.7539C112.112 33.0273 111.731 33.1641 111.256 33.1641C110.781 33.1641 110.396 33.0273 110.104 32.7539C109.817 32.4805 109.674 32.1289 109.674 31.6992ZM120.729 42.0801C120.729 41.735 120.556 41.4648 120.211 41.2695C119.872 41.0677 119.326 40.8887 118.57 40.7324C116.057 40.2051 114.801 39.1374 114.801 37.5293C114.801 36.5918 115.188 35.8105 115.963 35.1855C116.744 34.554 117.763 34.2383 119.02 34.2383C120.361 34.2383 121.432 34.554 122.232 35.1855C123.04 35.8171 123.443 36.6374 123.443 37.6465H120.621C120.621 37.2428 120.491 36.9108 120.23 36.6504C119.97 36.3835 119.563 36.25 119.01 36.25C118.535 36.25 118.167 36.3574 117.906 36.5723C117.646 36.7871 117.516 37.0605 117.516 37.3926C117.516 37.7051 117.662 37.959 117.955 38.1543C118.255 38.3431 118.756 38.5091 119.459 38.6523C120.162 38.7891 120.755 38.9453 121.236 39.1211C122.727 39.668 123.473 40.6152 123.473 41.9629C123.473 42.9264 123.059 43.7077 122.232 44.3066C121.406 44.8991 120.338 45.1953 119.029 45.1953C118.144 45.1953 117.356 45.0391 116.666 44.7266C115.982 44.4076 115.445 43.9746 115.055 43.4277C114.664 42.8743 114.469 42.2786 114.469 41.6406H117.145C117.171 42.1419 117.356 42.526 117.701 42.793C118.046 43.0599 118.508 43.1934 119.088 43.1934C119.628 43.1934 120.035 43.0924 120.309 42.8906C120.589 42.6823 120.729 42.4121 120.729 42.0801ZM128.678 31.8359V34.4336H130.484V36.5039H128.678V41.7773C128.678 42.168 128.753 42.4479 128.902 42.6172C129.052 42.7865 129.339 42.8711 129.762 42.8711C130.074 42.8711 130.351 42.8483 130.592 42.8027V44.9414C130.038 45.1107 129.469 45.1953 128.883 45.1953C126.904 45.1953 125.895 44.196 125.855 42.1973V36.5039H124.312V34.4336H125.855V31.8359H128.678ZM137.779 42.0801C137.779 41.735 137.607 41.4648 137.262 41.2695C136.923 41.0677 136.376 40.8887 135.621 40.7324C133.108 40.2051 131.852 39.1374 131.852 37.5293C131.852 36.5918 132.239 35.8105 133.014 35.1855C133.795 34.554 134.814 34.2383 136.07 34.2383C137.411 34.2383 138.482 34.554 139.283 35.1855C140.09 35.8171 140.494 36.6374 140.494 37.6465H137.672C137.672 37.2428 137.542 36.9108 137.281 36.6504C137.021 36.3835 136.614 36.25 136.061 36.25C135.585 36.25 135.217 36.3574 134.957 36.5723C134.697 36.7871 134.566 37.0605 134.566 37.3926C134.566 37.7051 134.713 37.959 135.006 38.1543C135.305 38.3431 135.807 38.5091 136.51 38.6523C137.213 38.7891 137.805 38.9453 138.287 39.1211C139.778 39.668 140.523 40.6152 140.523 41.9629C140.523 42.9264 140.11 43.7077 139.283 44.3066C138.456 44.8991 137.389 45.1953 136.08 45.1953C135.195 45.1953 134.407 45.0391 133.717 44.7266C133.033 44.4076 132.496 43.9746 132.105 43.4277C131.715 42.8743 131.52 42.2786 131.52 41.6406H134.195C134.221 42.1419 134.407 42.526 134.752 42.793C135.097 43.0599 135.559 43.1934 136.139 43.1934C136.679 43.1934 137.086 43.0924 137.359 42.8906C137.639 42.6823 137.779 42.4121 137.779 42.0801Z" fill="black"/>
<path d="M47.5312 69.4531H48.4922C48.4141 70.2188 48.2031 70.8802 47.8594 71.4375C47.5156 71.9896 47.0469 72.4141 46.4531 72.7109C45.8594 73.0078 45.1432 73.1562 44.3047 73.1562C43.6589 73.1562 43.0729 73.0339 42.5469 72.7891C42.026 72.5443 41.5781 72.1979 41.2031 71.75C40.8281 71.2969 40.5391 70.7552 40.3359 70.125C40.1328 69.4948 40.0312 68.7943 40.0312 68.0234V66.6016C40.0312 65.8307 40.1328 65.1328 40.3359 64.5078C40.5391 63.8776 40.8307 63.3359 41.2109 62.8828C41.5911 62.4297 42.0469 62.0807 42.5781 61.8359C43.1094 61.5911 43.7083 61.4688 44.375 61.4688C45.1823 61.4688 45.8802 61.6172 46.4688 61.9141C47.0573 62.2057 47.5208 62.6276 47.8594 63.1797C48.2031 63.7318 48.4141 64.3984 48.4922 65.1797H47.5312C47.4583 64.5651 47.2969 64.0443 47.0469 63.6172C46.7969 63.1901 46.4505 62.8646 46.0078 62.6406C45.5703 62.4115 45.026 62.2969 44.375 62.2969C43.8438 62.2969 43.3698 62.3984 42.9531 62.6016C42.5365 62.8047 42.1823 63.0964 41.8906 63.4766C41.599 63.8516 41.375 64.3021 41.2188 64.8281C41.0677 65.3542 40.9922 65.9401 40.9922 66.5859V68.0234C40.9922 68.6484 41.0651 69.224 41.2109 69.75C41.3568 70.276 41.5703 70.7318 41.8516 71.1172C42.138 71.5026 42.487 71.8021 42.8984 72.0156C43.3099 72.2292 43.7786 72.3359 44.3047 72.3359C44.9766 72.3359 45.5365 72.2292 45.9844 72.0156C46.4375 71.7969 46.7891 71.474 47.0391 71.0469C47.2891 70.6198 47.4531 70.0885 47.5312 69.4531ZM51.5469 65.9453V73H50.6172V64.5469H51.5234L51.5469 65.9453ZM54.5391 64.4844L54.5156 65.3438C54.4115 65.3281 54.3099 65.3151 54.2109 65.3047C54.112 65.2943 54.0052 65.2891 53.8906 65.2891C53.4844 65.2891 53.1276 65.3646 52.8203 65.5156C52.5182 65.6615 52.263 65.8672 52.0547 66.1328C51.8464 66.3932 51.6875 66.7005 51.5781 67.0547C51.4688 67.4036 51.4062 67.7786 51.3906 68.1797L51.0469 68.3125C51.0469 67.7604 51.1042 67.2474 51.2188 66.7734C51.3333 66.2995 51.5078 65.8854 51.7422 65.5312C51.9818 65.1719 52.2812 64.8932 52.6406 64.6953C53.0052 64.4922 53.4323 64.3906 53.9219 64.3906C54.0417 64.3906 54.1589 64.401 54.2734 64.4219C54.3932 64.4375 54.4818 64.4583 54.5391 64.4844ZM59.1172 73.1562C58.5651 73.1562 58.0573 73.0547 57.5938 72.8516C57.1354 72.6484 56.7344 72.362 56.3906 71.9922C56.0521 71.6224 55.7891 71.1849 55.6016 70.6797C55.4193 70.1693 55.3281 69.612 55.3281 69.0078V68.6719C55.3281 68.0208 55.4245 67.4323 55.6172 66.9062C55.8099 66.3802 56.0755 65.9297 56.4141 65.5547C56.7526 65.1797 57.138 64.8932 57.5703 64.6953C58.0078 64.4922 58.4661 64.3906 58.9453 64.3906C59.4818 64.3906 59.9583 64.487 60.375 64.6797C60.7917 64.8672 61.1406 65.1354 61.4219 65.4844C61.7083 65.8281 61.9245 66.237 62.0703 66.7109C62.2161 67.1797 62.2891 67.6979 62.2891 68.2656V68.8359H55.8906V68.0391H61.3594V67.9297C61.349 67.4557 61.2526 67.013 61.0703 66.6016C60.8932 66.1849 60.6276 65.8464 60.2734 65.5859C59.9193 65.3255 59.4766 65.1953 58.9453 65.1953C58.5495 65.1953 58.1849 65.2786 57.8516 65.4453C57.5234 65.612 57.2396 65.8516 57 66.1641C56.7656 66.4714 56.5833 66.8385 56.4531 67.2656C56.3281 67.6875 56.2656 68.1562 56.2656 68.6719V69.0078C56.2656 69.4766 56.3333 69.9141 56.4688 70.3203C56.6094 70.7214 56.8073 71.0755 57.0625 71.3828C57.3229 71.6901 57.6302 71.9297 57.9844 72.1016C58.3385 72.2734 58.7292 72.3594 59.1562 72.3594C59.6562 72.3594 60.099 72.2682 60.4844 72.0859C60.8698 71.8984 61.2161 71.6042 61.5234 71.2031L62.1094 71.6562C61.9271 71.9271 61.6979 72.1771 61.4219 72.4062C61.151 72.6354 60.8255 72.8177 60.4453 72.9531C60.0651 73.0885 59.6224 73.1562 59.1172 73.1562ZM69.2734 71.4844V67.125C69.2734 66.724 69.1901 66.3776 69.0234 66.0859C68.8568 65.7943 68.612 65.5703 68.2891 65.4141C67.9661 65.2578 67.5677 65.1797 67.0938 65.1797C66.6562 65.1797 66.2656 65.2578 65.9219 65.4141C65.5833 65.5651 65.3151 65.7708 65.1172 66.0312C64.9245 66.2865 64.8281 66.5703 64.8281 66.8828L63.8906 66.875C63.8906 66.5573 63.9688 66.25 64.125 65.9531C64.2812 65.6562 64.5026 65.3906 64.7891 65.1562C65.0755 64.9219 65.4167 64.737 65.8125 64.6016C66.2135 64.4609 66.6536 64.3906 67.1328 64.3906C67.737 64.3906 68.2682 64.4922 68.7266 64.6953C69.1901 64.8984 69.5521 65.2031 69.8125 65.6094C70.0729 66.0156 70.2031 66.526 70.2031 67.1406V71.2266C70.2031 71.5182 70.224 71.8203 70.2656 72.1328C70.3125 72.4453 70.3776 72.7031 70.4609 72.9062V73H69.4688C69.4062 72.8125 69.3568 72.5781 69.3203 72.2969C69.2891 72.0104 69.2734 71.7396 69.2734 71.4844ZM69.4922 68.0781L69.5078 68.7969H67.6719C67.1927 68.7969 66.763 68.8411 66.3828 68.9297C66.0078 69.013 65.6901 69.138 65.4297 69.3047C65.1693 69.4661 64.9688 69.6615 64.8281 69.8906C64.6927 70.1198 64.625 70.3802 64.625 70.6719C64.625 70.974 64.7005 71.25 64.8516 71.5C65.0078 71.75 65.2266 71.9505 65.5078 72.1016C65.7943 72.2474 66.1328 72.3203 66.5234 72.3203C67.0443 72.3203 67.5026 72.224 67.8984 72.0312C68.2995 71.8385 68.6302 71.5859 68.8906 71.2734C69.151 70.9609 69.3255 70.6198 69.4141 70.25L69.8203 70.7891C69.7526 71.0495 69.6276 71.3177 69.4453 71.5938C69.2682 71.8646 69.0365 72.1198 68.75 72.3594C68.4635 72.5938 68.125 72.7865 67.7344 72.9375C67.349 73.0833 66.9115 73.1562 66.4219 73.1562C65.8698 73.1562 65.388 73.0521 64.9766 72.8438C64.5703 72.6354 64.2526 72.3516 64.0234 71.9922C63.7995 71.6276 63.6875 71.2161 63.6875 70.7578C63.6875 70.3411 63.776 69.9688 63.9531 69.6406C64.1302 69.3073 64.3854 69.026 64.7188 68.7969C65.0573 68.5625 65.4635 68.3854 65.9375 68.2656C66.4167 68.1406 66.9531 68.0781 67.5469 68.0781H69.4922ZM75.9062 64.5469V65.3125H71.6719V64.5469H75.9062ZM73.2266 62.375H74.1562V70.9453C74.1562 71.3359 74.2083 71.6302 74.3125 71.8281C74.4167 72.026 74.5521 72.1589 74.7188 72.2266C74.8854 72.2943 75.0651 72.3281 75.2578 72.3281C75.3984 72.3281 75.5339 72.3203 75.6641 72.3047C75.7943 72.2839 75.9115 72.263 76.0156 72.2422L76.0547 73.0312C75.9401 73.0677 75.7917 73.0964 75.6094 73.1172C75.4271 73.1432 75.2448 73.1562 75.0625 73.1562C74.7031 73.1562 74.3854 73.0911 74.1094 72.9609C73.8333 72.8255 73.6172 72.5964 73.4609 72.2734C73.3047 71.9453 73.2266 71.5 73.2266 70.9375V62.375ZM81.1328 73.1562C80.5807 73.1562 80.0729 73.0547 79.6094 72.8516C79.151 72.6484 78.75 72.362 78.4062 71.9922C78.0677 71.6224 77.8047 71.1849 77.6172 70.6797C77.4349 70.1693 77.3438 69.612 77.3438 69.0078V68.6719C77.3438 68.0208 77.4401 67.4323 77.6328 66.9062C77.8255 66.3802 78.0911 65.9297 78.4297 65.5547C78.7682 65.1797 79.1536 64.8932 79.5859 64.6953C80.0234 64.4922 80.4818 64.3906 80.9609 64.3906C81.4974 64.3906 81.974 64.487 82.3906 64.6797C82.8073 64.8672 83.1562 65.1354 83.4375 65.4844C83.724 65.8281 83.9401 66.237 84.0859 66.7109C84.2318 67.1797 84.3047 67.6979 84.3047 68.2656V68.8359H77.9062V68.0391H83.375V67.9297C83.3646 67.4557 83.2682 67.013 83.0859 66.6016C82.9089 66.1849 82.6432 65.8464 82.2891 65.5859C81.9349 65.3255 81.4922 65.1953 80.9609 65.1953C80.5651 65.1953 80.2005 65.2786 79.8672 65.4453C79.5391 65.612 79.2552 65.8516 79.0156 66.1641C78.7812 66.4714 78.599 66.8385 78.4688 67.2656C78.3438 67.6875 78.2812 68.1562 78.2812 68.6719V69.0078C78.2812 69.4766 78.349 69.9141 78.4844 70.3203C78.625 70.7214 78.8229 71.0755 79.0781 71.3828C79.3385 71.6901 79.6458 71.9297 80 72.1016C80.3542 72.2734 80.7448 72.3594 81.1719 72.3594C81.6719 72.3594 82.1146 72.2682 82.5 72.0859C82.8854 71.8984 83.2318 71.6042 83.5391 71.2031L84.125 71.6562C83.9427 71.9271 83.7135 72.1771 83.4375 72.4062C83.1667 72.6354 82.8411 72.8177 82.4609 72.9531C82.0807 73.0885 81.638 73.1562 81.1328 73.1562ZM95.5469 71.3594V61H96.4844V73H95.6094L95.5469 71.3594ZM89.6797 68.8594V68.6953C89.6797 68.0391 89.7552 67.4479 89.9062 66.9219C90.0573 66.3906 90.2734 65.9375 90.5547 65.5625C90.8411 65.1823 91.1849 64.8932 91.5859 64.6953C91.987 64.4922 92.4401 64.3906 92.9453 64.3906C93.4401 64.3906 93.8776 64.4714 94.2578 64.6328C94.638 64.7943 94.9635 65.026 95.2344 65.3281C95.5104 65.6302 95.7318 65.9896 95.8984 66.4062C96.0703 66.8229 96.1953 67.2865 96.2734 67.7969V69.8828C96.2109 70.362 96.0964 70.8021 95.9297 71.2031C95.763 71.599 95.5417 71.9453 95.2656 72.2422C94.9896 72.5339 94.6562 72.7604 94.2656 72.9219C93.8802 73.0781 93.4349 73.1562 92.9297 73.1562C92.4297 73.1562 91.9792 73.0521 91.5781 72.8438C91.1771 72.6354 90.8359 72.3411 90.5547 71.9609C90.2734 71.5755 90.0573 71.1198 89.9062 70.5938C89.7552 70.0677 89.6797 69.4896 89.6797 68.8594ZM90.6172 68.6953V68.8594C90.6172 69.3542 90.6667 69.8125 90.7656 70.2344C90.8646 70.6562 91.0156 71.0234 91.2188 71.3359C91.4219 71.6484 91.6797 71.8932 91.9922 72.0703C92.3047 72.2474 92.6745 72.3359 93.1016 72.3359C93.638 72.3359 94.0885 72.2344 94.4531 72.0312C94.8177 71.8229 95.1094 71.5495 95.3281 71.2109C95.5469 70.8672 95.7057 70.4922 95.8047 70.0859V67.6562C95.7422 67.3802 95.651 67.099 95.5312 66.8125C95.4115 66.526 95.2474 66.263 95.0391 66.0234C94.8359 65.7786 94.5755 65.5833 94.2578 65.4375C93.9453 65.2865 93.5651 65.2109 93.1172 65.2109C92.6849 65.2109 92.3125 65.2995 92 65.4766C91.6875 65.6536 91.4271 65.901 91.2188 66.2188C91.0156 66.5312 90.8646 66.8984 90.7656 67.3203C90.6667 67.7422 90.6172 68.2005 90.6172 68.6953ZM98.4297 68.9062V68.6484C98.4297 68.0339 98.5182 67.4661 98.6953 66.9453C98.8724 66.4245 99.125 65.974 99.4531 65.5938C99.7865 65.2135 100.185 64.9193 100.648 64.7109C101.112 64.4974 101.628 64.3906 102.195 64.3906C102.768 64.3906 103.286 64.4974 103.75 64.7109C104.214 64.9193 104.612 65.2135 104.945 65.5938C105.279 65.974 105.534 66.4245 105.711 66.9453C105.888 67.4661 105.977 68.0339 105.977 68.6484V68.9062C105.977 69.5208 105.888 70.0885 105.711 70.6094C105.534 71.125 105.279 71.5729 104.945 71.9531C104.617 72.3333 104.221 72.6302 103.758 72.8438C103.294 73.0521 102.779 73.1562 102.211 73.1562C101.638 73.1562 101.12 73.0521 100.656 72.8438C100.193 72.6302 99.7943 72.3333 99.4609 71.9531C99.1276 71.5729 98.8724 71.125 98.6953 70.6094C98.5182 70.0885 98.4297 69.5208 98.4297 68.9062ZM99.3594 68.6484V68.9062C99.3594 69.3698 99.4219 69.8099 99.5469 70.2266C99.6719 70.638 99.8542 71.0052 100.094 71.3281C100.333 71.6458 100.63 71.8958 100.984 72.0781C101.339 72.2604 101.747 72.3516 102.211 72.3516C102.669 72.3516 103.073 72.2604 103.422 72.0781C103.776 71.8958 104.073 71.6458 104.312 71.3281C104.552 71.0052 104.732 70.638 104.852 70.2266C104.977 69.8099 105.039 69.3698 105.039 68.9062V68.6484C105.039 68.1901 104.977 67.7552 104.852 67.3438C104.732 66.9323 104.549 66.5651 104.305 66.2422C104.065 65.9193 103.768 65.6641 103.414 65.4766C103.06 65.2891 102.654 65.1953 102.195 65.1953C101.737 65.1953 101.331 65.2891 100.977 65.4766C100.628 65.6641 100.331 65.9193 100.086 66.2422C99.8464 66.5651 99.6641 66.9323 99.5391 67.3438C99.4193 67.7552 99.3594 68.1901 99.3594 68.6484ZM111.109 64.5469V65.3125H106.875V64.5469H111.109ZM108.43 62.375H109.359V70.9453C109.359 71.3359 109.411 71.6302 109.516 71.8281C109.62 72.026 109.755 72.1589 109.922 72.2266C110.089 72.2943 110.268 72.3281 110.461 72.3281C110.602 72.3281 110.737 72.3203 110.867 72.3047C110.997 72.2839 111.115 72.263 111.219 72.2422L111.258 73.0312C111.143 73.0677 110.995 73.0964 110.812 73.1172C110.63 73.1432 110.448 73.1562 110.266 73.1562C109.906 73.1562 109.589 73.0911 109.312 72.9609C109.036 72.8255 108.82 72.5964 108.664 72.2734C108.508 71.9453 108.43 71.5 108.43 70.9375V62.375ZM116.266 64.5469V65.3125H112.031V64.5469H116.266ZM113.586 62.375H114.516V70.9453C114.516 71.3359 114.568 71.6302 114.672 71.8281C114.776 72.026 114.911 72.1589 115.078 72.2266C115.245 72.2943 115.424 72.3281 115.617 72.3281C115.758 72.3281 115.893 72.3203 116.023 72.3047C116.154 72.2839 116.271 72.263 116.375 72.2422L116.414 73.0312C116.299 73.0677 116.151 73.0964 115.969 73.1172C115.786 73.1432 115.604 73.1562 115.422 73.1562C115.062 73.1562 114.745 73.0911 114.469 72.9609C114.193 72.8255 113.977 72.5964 113.82 72.2734C113.664 71.9453 113.586 71.5 113.586 70.9375V62.375ZM121.492 73.1562C120.94 73.1562 120.432 73.0547 119.969 72.8516C119.51 72.6484 119.109 72.362 118.766 71.9922C118.427 71.6224 118.164 71.1849 117.977 70.6797C117.794 70.1693 117.703 69.612 117.703 69.0078V68.6719C117.703 68.0208 117.799 67.4323 117.992 66.9062C118.185 66.3802 118.451 65.9297 118.789 65.5547C119.128 65.1797 119.513 64.8932 119.945 64.6953C120.383 64.4922 120.841 64.3906 121.32 64.3906C121.857 64.3906 122.333 64.487 122.75 64.6797C123.167 64.8672 123.516 65.1354 123.797 65.4844C124.083 65.8281 124.299 66.237 124.445 66.7109C124.591 67.1797 124.664 67.6979 124.664 68.2656V68.8359H118.266V68.0391H123.734V67.9297C123.724 67.4557 123.628 67.013 123.445 66.6016C123.268 66.1849 123.003 65.8464 122.648 65.5859C122.294 65.3255 121.852 65.1953 121.32 65.1953C120.924 65.1953 120.56 65.2786 120.227 65.4453C119.898 65.612 119.615 65.8516 119.375 66.1641C119.141 66.4714 118.958 66.8385 118.828 67.2656C118.703 67.6875 118.641 68.1562 118.641 68.6719V69.0078C118.641 69.4766 118.708 69.9141 118.844 70.3203C118.984 70.7214 119.182 71.0755 119.438 71.3828C119.698 71.6901 120.005 71.9297 120.359 72.1016C120.714 72.2734 121.104 72.3594 121.531 72.3594C122.031 72.3594 122.474 72.2682 122.859 72.0859C123.245 71.8984 123.591 71.6042 123.898 71.2031L124.484 71.6562C124.302 71.9271 124.073 72.1771 123.797 72.4062C123.526 72.6354 123.201 72.8177 122.82 72.9531C122.44 73.0885 121.997 73.1562 121.492 73.1562ZM132 71.3594V61H132.938V73H132.062L132 71.3594ZM126.133 68.8594V68.6953C126.133 68.0391 126.208 67.4479 126.359 66.9219C126.51 66.3906 126.727 65.9375 127.008 65.5625C127.294 65.1823 127.638 64.8932 128.039 64.6953C128.44 64.4922 128.893 64.3906 129.398 64.3906C129.893 64.3906 130.331 64.4714 130.711 64.6328C131.091 64.7943 131.417 65.026 131.688 65.3281C131.964 65.6302 132.185 65.9896 132.352 66.4062C132.523 66.8229 132.648 67.2865 132.727 67.7969V69.8828C132.664 70.362 132.549 70.8021 132.383 71.2031C132.216 71.599 131.995 71.9453 131.719 72.2422C131.443 72.5339 131.109 72.7604 130.719 72.9219C130.333 73.0781 129.888 73.1562 129.383 73.1562C128.883 73.1562 128.432 73.0521 128.031 72.8438C127.63 72.6354 127.289 72.3411 127.008 71.9609C126.727 71.5755 126.51 71.1198 126.359 70.5938C126.208 70.0677 126.133 69.4896 126.133 68.8594ZM127.07 68.6953V68.8594C127.07 69.3542 127.12 69.8125 127.219 70.2344C127.318 70.6562 127.469 71.0234 127.672 71.3359C127.875 71.6484 128.133 71.8932 128.445 72.0703C128.758 72.2474 129.128 72.3359 129.555 72.3359C130.091 72.3359 130.542 72.2344 130.906 72.0312C131.271 71.8229 131.562 71.5495 131.781 71.2109C132 70.8672 132.159 70.4922 132.258 70.0859V67.6562C132.195 67.3802 132.104 67.099 131.984 66.8125C131.865 66.526 131.701 66.263 131.492 66.0234C131.289 65.7786 131.029 65.5833 130.711 65.4375C130.398 65.2865 130.018 65.2109 129.57 65.2109C129.138 65.2109 128.766 65.2995 128.453 65.4766C128.141 65.6536 127.88 65.901 127.672 66.2188C127.469 66.5312 127.318 66.8984 127.219 67.3203C127.12 67.7422 127.07 68.2005 127.07 68.6953ZM136.297 71.5234V72.6172C136.297 73.0964 136.198 73.5573 136 74C135.802 74.4479 135.534 74.8255 135.195 75.1328L134.648 74.7266C134.81 74.5078 134.945 74.2891 135.055 74.0703C135.164 73.8568 135.245 73.6328 135.297 73.3984C135.354 73.1641 135.383 72.9115 135.383 72.6406V71.5234H136.297ZM143.266 66.2969V73H142.328V64.5469H143.227L143.266 66.2969ZM143.094 68.25L142.641 68.0156C142.672 67.5156 142.766 67.0469 142.922 66.6094C143.083 66.1719 143.307 65.7865 143.594 65.4531C143.88 65.1198 144.224 64.8594 144.625 64.6719C145.026 64.4844 145.482 64.3906 145.992 64.3906C146.404 64.3906 146.776 64.4479 147.109 64.5625C147.448 64.6719 147.734 64.8464 147.969 65.0859C148.208 65.3203 148.393 65.6276 148.523 66.0078C148.654 66.388 148.719 66.8438 148.719 67.375V73H147.789V67.4062C147.789 66.8438 147.701 66.4036 147.523 66.0859C147.352 65.7682 147.109 65.5417 146.797 65.4062C146.49 65.2708 146.133 65.2031 145.727 65.2031C145.247 65.2031 144.841 65.3021 144.508 65.5C144.18 65.6927 143.911 65.9453 143.703 66.2578C143.5 66.5651 143.349 66.8958 143.25 67.25C143.151 67.599 143.099 67.9323 143.094 68.25ZM148.711 67.5156L148.086 67.5312C148.112 67.1198 148.206 66.7266 148.367 66.3516C148.534 65.9766 148.76 65.6432 149.047 65.3516C149.333 65.0547 149.674 64.8203 150.07 64.6484C150.471 64.4766 150.922 64.3906 151.422 64.3906C151.859 64.3906 152.25 64.4505 152.594 64.5703C152.938 64.6849 153.227 64.8698 153.461 65.125C153.701 65.375 153.883 65.6953 154.008 66.0859C154.133 66.4766 154.195 66.9453 154.195 67.4922V73H153.258V67.4844C153.258 66.8854 153.169 66.4219 152.992 66.0938C152.82 65.7604 152.581 65.5286 152.273 65.3984C151.966 65.2682 151.607 65.2031 151.195 65.2031C150.789 65.2083 150.432 65.2839 150.125 65.4297C149.818 65.5703 149.56 65.7578 149.352 65.9922C149.148 66.2214 148.992 66.4688 148.883 66.7344C148.779 67 148.721 67.2604 148.711 67.5156ZM161.711 71.4844V67.125C161.711 66.724 161.628 66.3776 161.461 66.0859C161.294 65.7943 161.049 65.5703 160.727 65.4141C160.404 65.2578 160.005 65.1797 159.531 65.1797C159.094 65.1797 158.703 65.2578 158.359 65.4141C158.021 65.5651 157.753 65.7708 157.555 66.0312C157.362 66.2865 157.266 66.5703 157.266 66.8828L156.328 66.875C156.328 66.5573 156.406 66.25 156.562 65.9531C156.719 65.6562 156.94 65.3906 157.227 65.1562C157.513 64.9219 157.854 64.737 158.25 64.6016C158.651 64.4609 159.091 64.3906 159.57 64.3906C160.174 64.3906 160.706 64.4922 161.164 64.6953C161.628 64.8984 161.99 65.2031 162.25 65.6094C162.51 66.0156 162.641 66.526 162.641 67.1406V71.2266C162.641 71.5182 162.661 71.8203 162.703 72.1328C162.75 72.4453 162.815 72.7031 162.898 72.9062V73H161.906C161.844 72.8125 161.794 72.5781 161.758 72.2969C161.727 72.0104 161.711 71.7396 161.711 71.4844ZM161.93 68.0781L161.945 68.7969H160.109C159.63 68.7969 159.201 68.8411 158.82 68.9297C158.445 69.013 158.128 69.138 157.867 69.3047C157.607 69.4661 157.406 69.6615 157.266 69.8906C157.13 70.1198 157.062 70.3802 157.062 70.6719C157.062 70.974 157.138 71.25 157.289 71.5C157.445 71.75 157.664 71.9505 157.945 72.1016C158.232 72.2474 158.57 72.3203 158.961 72.3203C159.482 72.3203 159.94 72.224 160.336 72.0312C160.737 71.8385 161.068 71.5859 161.328 71.2734C161.589 70.9609 161.763 70.6198 161.852 70.25L162.258 70.7891C162.19 71.0495 162.065 71.3177 161.883 71.5938C161.706 71.8646 161.474 72.1198 161.188 72.3594C160.901 72.5938 160.562 72.7865 160.172 72.9375C159.786 73.0833 159.349 73.1562 158.859 73.1562C158.307 73.1562 157.826 73.0521 157.414 72.8438C157.008 72.6354 156.69 72.3516 156.461 71.9922C156.237 71.6276 156.125 71.2161 156.125 70.7578C156.125 70.3411 156.214 69.9688 156.391 69.6406C156.568 69.3073 156.823 69.026 157.156 68.7969C157.495 68.5625 157.901 68.3854 158.375 68.2656C158.854 68.1406 159.391 68.0781 159.984 68.0781H161.93ZM166.078 65.9453V73H165.148V64.5469H166.055L166.078 65.9453ZM169.07 64.4844L169.047 65.3438C168.943 65.3281 168.841 65.3151 168.742 65.3047C168.643 65.2943 168.536 65.2891 168.422 65.2891C168.016 65.2891 167.659 65.3646 167.352 65.5156C167.049 65.6615 166.794 65.8672 166.586 66.1328C166.378 66.3932 166.219 66.7005 166.109 67.0547C166 67.4036 165.938 67.7786 165.922 68.1797L165.578 68.3125C165.578 67.7604 165.635 67.2474 165.75 66.7734C165.865 66.2995 166.039 65.8854 166.273 65.5312C166.513 65.1719 166.812 64.8932 167.172 64.6953C167.536 64.4922 167.964 64.3906 168.453 64.3906C168.573 64.3906 168.69 64.401 168.805 64.4219C168.924 64.4375 169.013 64.4583 169.07 64.4844ZM171.469 61V73H170.539V61H171.469ZM176.773 64.5469L172.82 68.4688L171.141 70.0938L171 69.1797L172.352 67.7188L175.594 64.5469H176.773ZM175.961 73L172.43 68.6094L172.945 67.8047L177.086 73H175.961ZM181.492 73.1562C180.94 73.1562 180.432 73.0547 179.969 72.8516C179.51 72.6484 179.109 72.362 178.766 71.9922C178.427 71.6224 178.164 71.1849 177.977 70.6797C177.794 70.1693 177.703 69.612 177.703 69.0078V68.6719C177.703 68.0208 177.799 67.4323 177.992 66.9062C178.185 66.3802 178.451 65.9297 178.789 65.5547C179.128 65.1797 179.513 64.8932 179.945 64.6953C180.383 64.4922 180.841 64.3906 181.32 64.3906C181.857 64.3906 182.333 64.487 182.75 64.6797C183.167 64.8672 183.516 65.1354 183.797 65.4844C184.083 65.8281 184.299 66.237 184.445 66.7109C184.591 67.1797 184.664 67.6979 184.664 68.2656V68.8359H178.266V68.0391H183.734V67.9297C183.724 67.4557 183.628 67.013 183.445 66.6016C183.268 66.1849 183.003 65.8464 182.648 65.5859C182.294 65.3255 181.852 65.1953 181.32 65.1953C180.924 65.1953 180.56 65.2786 180.227 65.4453C179.898 65.612 179.615 65.8516 179.375 66.1641C179.141 66.4714 178.958 66.8385 178.828 67.2656C178.703 67.6875 178.641 68.1562 178.641 68.6719V69.0078C178.641 69.4766 178.708 69.9141 178.844 70.3203C178.984 70.7214 179.182 71.0755 179.438 71.3828C179.698 71.6901 180.005 71.9297 180.359 72.1016C180.714 72.2734 181.104 72.3594 181.531 72.3594C182.031 72.3594 182.474 72.2682 182.859 72.0859C183.245 71.8984 183.591 71.6042 183.898 71.2031L184.484 71.6562C184.302 71.9271 184.073 72.1771 183.797 72.4062C183.526 72.6354 183.201 72.8177 182.82 72.9531C182.44 73.0885 181.997 73.1562 181.492 73.1562ZM192 71.3594V61H192.938V73H192.062L192 71.3594ZM186.133 68.8594V68.6953C186.133 68.0391 186.208 67.4479 186.359 66.9219C186.51 66.3906 186.727 65.9375 187.008 65.5625C187.294 65.1823 187.638 64.8932 188.039 64.6953C188.44 64.4922 188.893 64.3906 189.398 64.3906C189.893 64.3906 190.331 64.4714 190.711 64.6328C191.091 64.7943 191.417 65.026 191.688 65.3281C191.964 65.6302 192.185 65.9896 192.352 66.4062C192.523 66.8229 192.648 67.2865 192.727 67.7969V69.8828C192.664 70.362 192.549 70.8021 192.383 71.2031C192.216 71.599 191.995 71.9453 191.719 72.2422C191.443 72.5339 191.109 72.7604 190.719 72.9219C190.333 73.0781 189.888 73.1562 189.383 73.1562C188.883 73.1562 188.432 73.0521 188.031 72.8438C187.63 72.6354 187.289 72.3411 187.008 71.9609C186.727 71.5755 186.51 71.1198 186.359 70.5938C186.208 70.0677 186.133 69.4896 186.133 68.8594ZM187.07 68.6953V68.8594C187.07 69.3542 187.12 69.8125 187.219 70.2344C187.318 70.6562 187.469 71.0234 187.672 71.3359C187.875 71.6484 188.133 71.8932 188.445 72.0703C188.758 72.2474 189.128 72.3359 189.555 72.3359C190.091 72.3359 190.542 72.2344 190.906 72.0312C191.271 71.8229 191.562 71.5495 191.781 71.2109C192 70.8672 192.159 70.4922 192.258 70.0859V67.6562C192.195 67.3802 192.104 67.099 191.984 66.8125C191.865 66.526 191.701 66.263 191.492 66.0234C191.289 65.7786 191.029 65.5833 190.711 65.4375C190.398 65.2865 190.018 65.2109 189.57 65.2109C189.138 65.2109 188.766 65.2995 188.453 65.4766C188.141 65.6536 187.88 65.901 187.672 66.2188C187.469 66.5312 187.318 66.8984 187.219 67.3203C187.12 67.7422 187.07 68.2005 187.07 68.6953ZM196.297 71.5234V72.6172C196.297 73.0964 196.198 73.5573 196 74C195.802 74.4479 195.534 74.8255 195.195 75.1328L194.648 74.7266C194.81 74.5078 194.945 74.2891 195.055 74.0703C195.164 73.8568 195.245 73.6328 195.297 73.3984C195.354 73.1641 195.383 72.9115 195.383 72.6406V71.5234H196.297ZM207.523 71.4844V67.125C207.523 66.724 207.44 66.3776 207.273 66.0859C207.107 65.7943 206.862 65.5703 206.539 65.4141C206.216 65.2578 205.818 65.1797 205.344 65.1797C204.906 65.1797 204.516 65.2578 204.172 65.4141C203.833 65.5651 203.565 65.7708 203.367 66.0312C203.174 66.2865 203.078 66.5703 203.078 66.8828L202.141 66.875C202.141 66.5573 202.219 66.25 202.375 65.9531C202.531 65.6562 202.753 65.3906 203.039 65.1562C203.326 64.9219 203.667 64.737 204.062 64.6016C204.464 64.4609 204.904 64.3906 205.383 64.3906C205.987 64.3906 206.518 64.4922 206.977 64.6953C207.44 64.8984 207.802 65.2031 208.062 65.6094C208.323 66.0156 208.453 66.526 208.453 67.1406V71.2266C208.453 71.5182 208.474 71.8203 208.516 72.1328C208.562 72.4453 208.628 72.7031 208.711 72.9062V73H207.719C207.656 72.8125 207.607 72.5781 207.57 72.2969C207.539 72.0104 207.523 71.7396 207.523 71.4844ZM207.742 68.0781L207.758 68.7969H205.922C205.443 68.7969 205.013 68.8411 204.633 68.9297C204.258 69.013 203.94 69.138 203.68 69.3047C203.419 69.4661 203.219 69.6615 203.078 69.8906C202.943 70.1198 202.875 70.3802 202.875 70.6719C202.875 70.974 202.951 71.25 203.102 71.5C203.258 71.75 203.477 71.9505 203.758 72.1016C204.044 72.2474 204.383 72.3203 204.773 72.3203C205.294 72.3203 205.753 72.224 206.148 72.0312C206.549 71.8385 206.88 71.5859 207.141 71.2734C207.401 70.9609 207.576 70.6198 207.664 70.25L208.07 70.7891C208.003 71.0495 207.878 71.3177 207.695 71.5938C207.518 71.8646 207.286 72.1198 207 72.3594C206.714 72.5938 206.375 72.7865 205.984 72.9375C205.599 73.0833 205.161 73.1562 204.672 73.1562C204.12 73.1562 203.638 73.0521 203.227 72.8438C202.82 72.6354 202.503 72.3516 202.273 71.9922C202.049 71.6276 201.938 71.2161 201.938 70.7578C201.938 70.3411 202.026 69.9688 202.203 69.6406C202.38 69.3073 202.635 69.026 202.969 68.7969C203.307 68.5625 203.714 68.3854 204.188 68.2656C204.667 68.1406 205.203 68.0781 205.797 68.0781H207.742ZM211.891 66.3516V73H210.961V64.5469H211.852L211.891 66.3516ZM211.68 68.25L211.266 68.0156C211.297 67.5156 211.398 67.0469 211.57 66.6094C211.742 66.1719 211.974 65.7865 212.266 65.4531C212.562 65.1198 212.909 64.8594 213.305 64.6719C213.706 64.4844 214.148 64.3906 214.633 64.3906C215.055 64.3906 215.432 64.4479 215.766 64.5625C216.099 64.6771 216.383 64.8594 216.617 65.1094C216.852 65.3594 217.029 65.6797 217.148 66.0703C217.273 66.4609 217.336 66.9375 217.336 67.5V73H216.398V67.4922C216.398 66.9089 216.318 66.4531 216.156 66.125C215.995 65.7917 215.766 65.5547 215.469 65.4141C215.172 65.2734 214.82 65.2031 214.414 65.2031C213.966 65.2031 213.573 65.3021 213.234 65.5C212.901 65.6927 212.62 65.9453 212.391 66.2578C212.167 66.5651 211.995 66.8958 211.875 67.25C211.755 67.599 211.69 67.9323 211.68 68.25ZM225.25 71.3594V61H226.188V73H225.312L225.25 71.3594ZM219.383 68.8594V68.6953C219.383 68.0391 219.458 67.4479 219.609 66.9219C219.76 66.3906 219.977 65.9375 220.258 65.5625C220.544 65.1823 220.888 64.8932 221.289 64.6953C221.69 64.4922 222.143 64.3906 222.648 64.3906C223.143 64.3906 223.581 64.4714 223.961 64.6328C224.341 64.7943 224.667 65.026 224.938 65.3281C225.214 65.6302 225.435 65.9896 225.602 66.4062C225.773 66.8229 225.898 67.2865 225.977 67.7969V69.8828C225.914 70.362 225.799 70.8021 225.633 71.2031C225.466 71.599 225.245 71.9453 224.969 72.2422C224.693 72.5339 224.359 72.7604 223.969 72.9219C223.583 73.0781 223.138 73.1562 222.633 73.1562C222.133 73.1562 221.682 73.0521 221.281 72.8438C220.88 72.6354 220.539 72.3411 220.258 71.9609C219.977 71.5755 219.76 71.1198 219.609 70.5938C219.458 70.0677 219.383 69.4896 219.383 68.8594ZM220.32 68.6953V68.8594C220.32 69.3542 220.37 69.8125 220.469 70.2344C220.568 70.6562 220.719 71.0234 220.922 71.3359C221.125 71.6484 221.383 71.8932 221.695 72.0703C222.008 72.2474 222.378 72.3359 222.805 72.3359C223.341 72.3359 223.792 72.2344 224.156 72.0312C224.521 71.8229 224.812 71.5495 225.031 71.2109C225.25 70.8672 225.409 70.4922 225.508 70.0859V67.6562C225.445 67.3802 225.354 67.099 225.234 66.8125C225.115 66.526 224.951 66.263 224.742 66.0234C224.539 65.7786 224.279 65.5833 223.961 65.4375C223.648 65.2865 223.268 65.2109 222.82 65.2109C222.388 65.2109 222.016 65.2995 221.703 65.4766C221.391 65.6536 221.13 65.901 220.922 66.2188C220.719 66.5312 220.568 66.8984 220.469 67.3203C220.37 67.7422 220.32 68.2005 220.32 68.6953ZM233.484 66.3516V73H232.555V64.5469H233.445L233.484 66.3516ZM233.273 68.25L232.859 68.0156C232.891 67.5156 232.992 67.0469 233.164 66.6094C233.336 66.1719 233.568 65.7865 233.859 65.4531C234.156 65.1198 234.503 64.8594 234.898 64.6719C235.299 64.4844 235.742 64.3906 236.227 64.3906C236.648 64.3906 237.026 64.4479 237.359 64.5625C237.693 64.6771 237.977 64.8594 238.211 65.1094C238.445 65.3594 238.622 65.6797 238.742 66.0703C238.867 66.4609 238.93 66.9375 238.93 67.5V73H237.992V67.4922C237.992 66.9089 237.911 66.4531 237.75 66.125C237.589 65.7917 237.359 65.5547 237.062 65.4141C236.766 65.2734 236.414 65.2031 236.008 65.2031C235.56 65.2031 235.167 65.3021 234.828 65.5C234.495 65.6927 234.214 65.9453 233.984 66.2578C233.76 66.5651 233.589 66.8958 233.469 67.25C233.349 67.599 233.284 67.9323 233.273 68.25ZM246.766 71.0469V64.5469H247.703V73H246.805L246.766 71.0469ZM246.938 69.4844L247.422 69.4688C247.422 70 247.359 70.4896 247.234 70.9375C247.109 71.3854 246.914 71.776 246.648 72.1094C246.383 72.4427 246.039 72.7005 245.617 72.8828C245.195 73.0651 244.688 73.1562 244.094 73.1562C243.682 73.1562 243.305 73.099 242.961 72.9844C242.622 72.8646 242.331 72.6771 242.086 72.4219C241.841 72.1667 241.651 71.8359 241.516 71.4297C241.385 71.0234 241.32 70.5312 241.32 69.9531V64.5469H242.25V69.9688C242.25 70.4219 242.299 70.7995 242.398 71.1016C242.503 71.4036 242.643 71.6458 242.82 71.8281C243.003 72.0104 243.211 72.1406 243.445 72.2188C243.68 72.2969 243.932 72.3359 244.203 72.3359C244.891 72.3359 245.432 72.2031 245.828 71.9375C246.229 71.6719 246.513 71.3229 246.68 70.8906C246.852 70.4531 246.938 69.9844 246.938 69.4844ZM251.031 66.2969V73H250.094V64.5469H250.992L251.031 66.2969ZM250.859 68.25L250.406 68.0156C250.438 67.5156 250.531 67.0469 250.688 66.6094C250.849 66.1719 251.073 65.7865 251.359 65.4531C251.646 65.1198 251.99 64.8594 252.391 64.6719C252.792 64.4844 253.247 64.3906 253.758 64.3906C254.169 64.3906 254.542 64.4479 254.875 64.5625C255.214 64.6719 255.5 64.8464 255.734 65.0859C255.974 65.3203 256.159 65.6276 256.289 66.0078C256.419 66.388 256.484 66.8438 256.484 67.375V73H255.555V67.4062C255.555 66.8438 255.466 66.4036 255.289 66.0859C255.117 65.7682 254.875 65.5417 254.562 65.4062C254.255 65.2708 253.898 65.2031 253.492 65.2031C253.013 65.2031 252.607 65.3021 252.273 65.5C251.945 65.6927 251.677 65.9453 251.469 66.2578C251.266 66.5651 251.115 66.8958 251.016 67.25C250.917 67.599 250.865 67.9323 250.859 68.25ZM256.477 67.5156L255.852 67.5312C255.878 67.1198 255.971 66.7266 256.133 66.3516C256.299 65.9766 256.526 65.6432 256.812 65.3516C257.099 65.0547 257.44 64.8203 257.836 64.6484C258.237 64.4766 258.688 64.3906 259.188 64.3906C259.625 64.3906 260.016 64.4505 260.359 64.5703C260.703 64.6849 260.992 64.8698 261.227 65.125C261.466 65.375 261.648 65.6953 261.773 66.0859C261.898 66.4766 261.961 66.9453 261.961 67.4922V73H261.023V67.4844C261.023 66.8854 260.935 66.4219 260.758 66.0938C260.586 65.7604 260.346 65.5286 260.039 65.3984C259.732 65.2682 259.372 65.2031 258.961 65.2031C258.555 65.2083 258.198 65.2839 257.891 65.4297C257.583 65.5703 257.326 65.7578 257.117 65.9922C256.914 66.2214 256.758 66.4688 256.648 66.7344C256.544 67 256.487 67.2604 256.477 67.5156ZM267.602 73.1562C267.049 73.1562 266.542 73.0547 266.078 72.8516C265.62 72.6484 265.219 72.362 264.875 71.9922C264.536 71.6224 264.273 71.1849 264.086 70.6797C263.904 70.1693 263.812 69.612 263.812 69.0078V68.6719C263.812 68.0208 263.909 67.4323 264.102 66.9062C264.294 66.3802 264.56 65.9297 264.898 65.5547C265.237 65.1797 265.622 64.8932 266.055 64.6953C266.492 64.4922 266.951 64.3906 267.43 64.3906C267.966 64.3906 268.443 64.487 268.859 64.6797C269.276 64.8672 269.625 65.1354 269.906 65.4844C270.193 65.8281 270.409 66.237 270.555 66.7109C270.701 67.1797 270.773 67.6979 270.773 68.2656V68.8359H264.375V68.0391H269.844V67.9297C269.833 67.4557 269.737 67.013 269.555 66.6016C269.378 66.1849 269.112 65.8464 268.758 65.5859C268.404 65.3255 267.961 65.1953 267.43 65.1953C267.034 65.1953 266.669 65.2786 266.336 65.4453C266.008 65.612 265.724 65.8516 265.484 66.1641C265.25 66.4714 265.068 66.8385 264.938 67.2656C264.812 67.6875 264.75 68.1562 264.75 68.6719V69.0078C264.75 69.4766 264.818 69.9141 264.953 70.3203C265.094 70.7214 265.292 71.0755 265.547 71.3828C265.807 71.6901 266.115 71.9297 266.469 72.1016C266.823 72.2734 267.214 72.3594 267.641 72.3594C268.141 72.3594 268.583 72.2682 268.969 72.0859C269.354 71.8984 269.701 71.6042 270.008 71.2031L270.594 71.6562C270.411 71.9271 270.182 72.1771 269.906 72.4062C269.635 72.6354 269.31 72.8177 268.93 72.9531C268.549 73.0885 268.107 73.1562 267.602 73.1562ZM273.547 65.9453V73H272.617V64.5469H273.523L273.547 65.9453ZM276.539 64.4844L276.516 65.3438C276.411 65.3281 276.31 65.3151 276.211 65.3047C276.112 65.2943 276.005 65.2891 275.891 65.2891C275.484 65.2891 275.128 65.3646 274.82 65.5156C274.518 65.6615 274.263 65.8672 274.055 66.1328C273.846 66.3932 273.688 66.7005 273.578 67.0547C273.469 67.4036 273.406 67.7786 273.391 68.1797L273.047 68.3125C273.047 67.7604 273.104 67.2474 273.219 66.7734C273.333 66.2995 273.508 65.8854 273.742 65.5312C273.982 65.1719 274.281 64.8932 274.641 64.6953C275.005 64.4922 275.432 64.3906 275.922 64.3906C276.042 64.3906 276.159 64.401 276.273 64.4219C276.393 64.4375 276.482 64.4583 276.539 64.4844ZM279.047 64.5469V73H278.117V64.5469H279.047ZM277.953 62.1016C277.953 61.9245 278.008 61.776 278.117 61.6562C278.232 61.5312 278.388 61.4688 278.586 61.4688C278.784 61.4688 278.94 61.5312 279.055 61.6562C279.174 61.776 279.234 61.9245 279.234 62.1016C279.234 62.2734 279.174 62.4219 279.055 62.5469C278.94 62.6667 278.784 62.7266 278.586 62.7266C278.388 62.7266 278.232 62.6667 278.117 62.5469C278.008 62.4219 277.953 62.2734 277.953 62.1016ZM284.719 72.3516C285.115 72.3516 285.484 72.2786 285.828 72.1328C286.177 71.9818 286.464 71.7604 286.688 71.4688C286.917 71.1719 287.047 70.8099 287.078 70.3828H287.969C287.943 70.9193 287.779 71.3984 287.477 71.8203C287.18 72.237 286.789 72.5651 286.305 72.8047C285.826 73.0391 285.297 73.1562 284.719 73.1562C284.13 73.1562 283.609 73.0495 283.156 72.8359C282.708 72.6224 282.333 72.3255 282.031 71.9453C281.729 71.5599 281.5 71.112 281.344 70.6016C281.193 70.0859 281.117 69.5312 281.117 68.9375V68.6094C281.117 68.0156 281.193 67.4635 281.344 66.9531C281.5 66.4375 281.729 65.9896 282.031 65.6094C282.333 65.224 282.708 64.9245 283.156 64.7109C283.604 64.4974 284.122 64.3906 284.711 64.3906C285.315 64.3906 285.857 64.513 286.336 64.7578C286.82 65.0026 287.206 65.349 287.492 65.7969C287.784 66.2448 287.943 66.776 287.969 67.3906H287.078C287.052 66.9375 286.932 66.5469 286.719 66.2188C286.505 65.8906 286.224 65.638 285.875 65.4609C285.526 65.2839 285.138 65.1953 284.711 65.1953C284.232 65.1953 283.823 65.2891 283.484 65.4766C283.146 65.6589 282.87 65.9115 282.656 66.2344C282.448 66.5521 282.294 66.9167 282.195 67.3281C282.096 67.7344 282.047 68.1615 282.047 68.6094V68.9375C282.047 69.3906 282.094 69.8229 282.188 70.2344C282.286 70.6406 282.44 71.0026 282.648 71.3203C282.862 71.638 283.138 71.8906 283.477 72.0781C283.82 72.2604 284.234 72.3516 284.719 72.3516ZM294.797 61V73H293.867V61H294.797ZM298.391 64.5469V73H297.461V64.5469H298.391ZM297.297 62.1016C297.297 61.9245 297.352 61.776 297.461 61.6562C297.576 61.5312 297.732 61.4688 297.93 61.4688C298.128 61.4688 298.284 61.5312 298.398 61.6562C298.518 61.776 298.578 61.9245 298.578 62.1016C298.578 62.2734 298.518 62.4219 298.398 62.5469C298.284 62.6667 298.128 62.7266 297.93 62.7266C297.732 62.7266 297.576 62.6667 297.461 62.5469C297.352 62.4219 297.297 62.2734 297.297 62.1016ZM306.008 70.8438C306.008 70.6146 305.951 70.388 305.836 70.1641C305.721 69.9401 305.5 69.7344 305.172 69.5469C304.849 69.3594 304.372 69.2005 303.742 69.0703C303.273 68.9661 302.854 68.849 302.484 68.7188C302.12 68.5885 301.812 68.4323 301.562 68.25C301.312 68.0677 301.122 67.849 300.992 67.5938C300.862 67.3385 300.797 67.0365 300.797 66.6875C300.797 66.375 300.865 66.0807 301 65.8047C301.141 65.5234 301.339 65.2786 301.594 65.0703C301.854 64.8568 302.167 64.6901 302.531 64.5703C302.901 64.4505 303.315 64.3906 303.773 64.3906C304.424 64.3906 304.982 64.5026 305.445 64.7266C305.914 64.9453 306.271 65.2448 306.516 65.625C306.766 66.0052 306.891 66.4349 306.891 66.9141H305.961C305.961 66.6224 305.875 66.3464 305.703 66.0859C305.536 65.8255 305.289 65.612 304.961 65.4453C304.638 65.2786 304.242 65.1953 303.773 65.1953C303.289 65.1953 302.896 65.2682 302.594 65.4141C302.292 65.5599 302.07 65.7448 301.93 65.9688C301.794 66.1927 301.727 66.4245 301.727 66.6641C301.727 66.8516 301.755 67.0234 301.812 67.1797C301.875 67.3307 301.984 67.4714 302.141 67.6016C302.302 67.7318 302.531 67.8542 302.828 67.9688C303.125 68.0833 303.51 68.1953 303.984 68.3047C304.667 68.4557 305.224 68.6406 305.656 68.8594C306.094 69.0729 306.417 69.3385 306.625 69.6562C306.833 69.9688 306.938 70.349 306.938 70.7969C306.938 71.1458 306.865 71.4661 306.719 71.7578C306.573 72.0443 306.362 72.2917 306.086 72.5C305.815 72.7083 305.487 72.8698 305.102 72.9844C304.721 73.099 304.294 73.1562 303.82 73.1562C303.107 73.1562 302.503 73.0391 302.008 72.8047C301.518 72.5651 301.146 72.2526 300.891 71.8672C300.641 71.4766 300.516 71.0625 300.516 70.625H301.445C301.477 71.0625 301.615 71.4089 301.859 71.6641C302.104 71.9141 302.404 72.0911 302.758 72.1953C303.117 72.2995 303.471 72.3516 303.82 72.3516C304.299 72.3516 304.701 72.2812 305.023 72.1406C305.346 72 305.591 71.8151 305.758 71.5859C305.924 71.3568 306.008 71.1094 306.008 70.8438ZM312.25 64.5469V65.3125H308.016V64.5469H312.25ZM309.57 62.375H310.5V70.9453C310.5 71.3359 310.552 71.6302 310.656 71.8281C310.76 72.026 310.896 72.1589 311.062 72.2266C311.229 72.2943 311.409 72.3281 311.602 72.3281C311.742 72.3281 311.878 72.3203 312.008 72.3047C312.138 72.2839 312.255 72.263 312.359 72.2422L312.398 73.0312C312.284 73.0677 312.135 73.0964 311.953 73.1172C311.771 73.1432 311.589 73.1562 311.406 73.1562C311.047 73.1562 310.729 73.0911 310.453 72.9609C310.177 72.8255 309.961 72.5964 309.805 72.2734C309.648 71.9453 309.57 71.5 309.57 70.9375V62.375ZM319.273 70.8438C319.273 70.6146 319.216 70.388 319.102 70.1641C318.987 69.9401 318.766 69.7344 318.438 69.5469C318.115 69.3594 317.638 69.2005 317.008 69.0703C316.539 68.9661 316.12 68.849 315.75 68.7188C315.385 68.5885 315.078 68.4323 314.828 68.25C314.578 68.0677 314.388 67.849 314.258 67.5938C314.128 67.3385 314.062 67.0365 314.062 66.6875C314.062 66.375 314.13 66.0807 314.266 65.8047C314.406 65.5234 314.604 65.2786 314.859 65.0703C315.12 64.8568 315.432 64.6901 315.797 64.5703C316.167 64.4505 316.581 64.3906 317.039 64.3906C317.69 64.3906 318.247 64.5026 318.711 64.7266C319.18 64.9453 319.536 65.2448 319.781 65.625C320.031 66.0052 320.156 66.4349 320.156 66.9141H319.227C319.227 66.6224 319.141 66.3464 318.969 66.0859C318.802 65.8255 318.555 65.612 318.227 65.4453C317.904 65.2786 317.508 65.1953 317.039 65.1953C316.555 65.1953 316.161 65.2682 315.859 65.4141C315.557 65.5599 315.336 65.7448 315.195 65.9688C315.06 66.1927 314.992 66.4245 314.992 66.6641C314.992 66.8516 315.021 67.0234 315.078 67.1797C315.141 67.3307 315.25 67.4714 315.406 67.6016C315.568 67.7318 315.797 67.8542 316.094 67.9688C316.391 68.0833 316.776 68.1953 317.25 68.3047C317.932 68.4557 318.49 68.6406 318.922 68.8594C319.359 69.0729 319.682 69.3385 319.891 69.6562C320.099 69.9688 320.203 70.349 320.203 70.7969C320.203 71.1458 320.13 71.4661 319.984 71.7578C319.839 72.0443 319.628 72.2917 319.352 72.5C319.081 72.7083 318.753 72.8698 318.367 72.9844C317.987 73.099 317.56 73.1562 317.086 73.1562C316.372 73.1562 315.768 73.0391 315.273 72.8047C314.784 72.5651 314.411 72.2526 314.156 71.8672C313.906 71.4766 313.781 71.0625 313.781 70.625H314.711C314.742 71.0625 314.88 71.4089 315.125 71.6641C315.37 71.9141 315.669 72.0911 316.023 72.1953C316.383 72.2995 316.737 72.3516 317.086 72.3516C317.565 72.3516 317.966 72.2812 318.289 72.1406C318.612 72 318.857 71.8151 319.023 71.5859C319.19 71.3568 319.273 71.1094 319.273 70.8438ZM322.234 72.4297C322.234 72.2474 322.292 72.0938 322.406 71.9688C322.526 71.8385 322.688 71.7734 322.891 71.7734C323.099 71.7734 323.263 71.8359 323.383 71.9609C323.503 72.0859 323.562 72.2422 323.562 72.4297C323.562 72.6068 323.503 72.7578 323.383 72.8828C323.263 73.0078 323.099 73.0703 322.891 73.0703C322.688 73.0703 322.526 73.0078 322.406 72.8828C322.292 72.7578 322.234 72.6068 322.234 72.4297Z" fill="black"/>
<path d="M75.3018 11.8623L75.4932 13.1748L75.7734 11.9922L77.7422 5.04688H78.8496L80.7705 11.9922L81.0439 13.1953L81.2559 11.8555L82.8008 5.04688H84.1201L81.707 15H80.5107L78.46 7.74707L78.3027 6.98828L78.1455 7.74707L76.0195 15H74.8232L72.417 5.04688H73.7295L75.3018 11.8623ZM84.8311 11.2334C84.8311 10.5088 84.9723 9.8571 85.2549 9.27832C85.542 8.69954 85.9385 8.25293 86.4443 7.93848C86.9548 7.62402 87.5358 7.4668 88.1875 7.4668C89.1947 7.4668 90.0081 7.81543 90.6279 8.5127C91.2523 9.20996 91.5645 10.1374 91.5645 11.2949V11.3838C91.5645 12.1038 91.4255 12.751 91.1475 13.3252C90.874 13.8949 90.4798 14.3392 89.9648 14.6582C89.4544 14.9772 88.8665 15.1367 88.2012 15.1367C87.1986 15.1367 86.3851 14.7881 85.7607 14.0908C85.141 13.3936 84.8311 12.4707 84.8311 11.3223V11.2334ZM86.1025 11.3838C86.1025 12.2041 86.2917 12.8626 86.6699 13.3594C87.0527 13.8561 87.5632 14.1045 88.2012 14.1045C88.8438 14.1045 89.3542 13.8538 89.7324 13.3525C90.1107 12.8467 90.2998 12.1403 90.2998 11.2334C90.2998 10.4222 90.1061 9.76595 89.7188 9.26465C89.3359 8.75879 88.8255 8.50586 88.1875 8.50586C87.5632 8.50586 87.0596 8.75423 86.6768 9.25098C86.2939 9.74772 86.1025 10.4587 86.1025 11.3838ZM96.7256 8.73828C96.5342 8.70638 96.3268 8.69043 96.1035 8.69043C95.2741 8.69043 94.7113 9.04362 94.415 9.75V15H93.1504V7.60352H94.3809L94.4014 8.45801C94.8161 7.7972 95.404 7.4668 96.165 7.4668C96.4111 7.4668 96.598 7.4987 96.7256 7.5625V8.73828ZM99.959 11.5752L99.166 12.4023V15H97.9014V4.5H99.166V10.8506L99.8428 10.0371L102.146 7.60352H103.685L100.807 10.6934L104.02 15H102.536L99.959 11.5752Z" fill="#808080"/>
<rect x="39" y="3" width="100" height="16" rx="8" fill="#FFFCB2"/>
<path d="M76.4746 14.9268H81.1914V16H75.1553V6.04688H76.4746V14.9268ZM83.8643 16H82.5996V8.60352H83.8643V16ZM82.4971 6.6416C82.4971 6.43652 82.5586 6.26335 82.6816 6.12207C82.8092 5.98079 82.9961 5.91016 83.2422 5.91016C83.4883 5.91016 83.6751 5.98079 83.8027 6.12207C83.9303 6.26335 83.9941 6.43652 83.9941 6.6416C83.9941 6.84668 83.9303 7.01758 83.8027 7.1543C83.6751 7.29102 83.4883 7.35938 83.2422 7.35938C82.9961 7.35938 82.8092 7.29102 82.6816 7.1543C82.5586 7.01758 82.4971 6.84668 82.4971 6.6416ZM90.2012 14.0381C90.2012 13.6963 90.0713 13.432 89.8115 13.2451C89.5563 13.0537 89.1074 12.8896 88.4648 12.7529C87.8268 12.6162 87.3187 12.4521 86.9404 12.2607C86.5667 12.0693 86.2887 11.8415 86.1064 11.5771C85.9287 11.3128 85.8398 10.9984 85.8398 10.6338C85.8398 10.0277 86.0951 9.51497 86.6055 9.0957C87.1204 8.67643 87.7767 8.4668 88.5742 8.4668C89.4128 8.4668 90.0918 8.68327 90.6113 9.11621C91.1354 9.54915 91.3975 10.1029 91.3975 10.7773H90.126C90.126 10.431 89.9779 10.1325 89.6816 9.88184C89.39 9.63118 89.0208 9.50586 88.5742 9.50586C88.1139 9.50586 87.7539 9.60612 87.4941 9.80664C87.2344 10.0072 87.1045 10.2692 87.1045 10.5928C87.1045 10.8981 87.2253 11.1283 87.4668 11.2832C87.7083 11.4382 88.1436 11.5863 88.7725 11.7275C89.4059 11.8688 89.9186 12.0374 90.3105 12.2334C90.7025 12.4294 90.9919 12.6663 91.1787 12.9443C91.3701 13.2178 91.4658 13.5527 91.4658 13.9492C91.4658 14.61 91.2015 15.141 90.6729 15.542C90.1442 15.9385 89.4583 16.1367 88.6152 16.1367C88.0228 16.1367 87.4987 16.0319 87.043 15.8223C86.5872 15.6126 86.2295 15.321 85.9697 14.9473C85.7145 14.569 85.5869 14.1611 85.5869 13.7236H86.8516C86.8743 14.1475 87.043 14.4847 87.3574 14.7354C87.6764 14.9814 88.0957 15.1045 88.6152 15.1045C89.0938 15.1045 89.4766 15.0088 89.7637 14.8174C90.0553 14.6214 90.2012 14.3617 90.2012 14.0381ZM94.8291 6.8125V8.60352H96.21V9.58105H94.8291V14.168C94.8291 14.4642 94.8906 14.6875 95.0137 14.8379C95.1367 14.9837 95.3464 15.0566 95.6426 15.0566C95.7884 15.0566 95.9889 15.0293 96.2441 14.9746V16C95.9115 16.0911 95.5879 16.1367 95.2734 16.1367C94.7083 16.1367 94.2822 15.9658 93.9951 15.624C93.708 15.2822 93.5645 14.7969 93.5645 14.168V9.58105H92.2178V8.60352H93.5645V6.8125H94.8291ZM102 14.0381C102 13.6963 101.87 13.432 101.61 13.2451C101.355 13.0537 100.906 12.8896 100.264 12.7529C99.6257 12.6162 99.1175 12.4521 98.7393 12.2607C98.3656 12.0693 98.0876 11.8415 97.9053 11.5771C97.7275 11.3128 97.6387 10.9984 97.6387 10.6338C97.6387 10.0277 97.8939 9.51497 98.4043 9.0957C98.9193 8.67643 99.5755 8.4668 100.373 8.4668C101.212 8.4668 101.891 8.68327 102.41 9.11621C102.934 9.54915 103.196 10.1029 103.196 10.7773H101.925C101.925 10.431 101.777 10.1325 101.48 9.88184C101.189 9.63118 100.82 9.50586 100.373 9.50586C99.9128 9.50586 99.5527 9.60612 99.293 9.80664C99.0332 10.0072 98.9033 10.2692 98.9033 10.5928C98.9033 10.8981 99.0241 11.1283 99.2656 11.2832C99.5072 11.4382 99.9424 11.5863 100.571 11.7275C101.205 11.8688 101.717 12.0374 102.109 12.2334C102.501 12.4294 102.791 12.6663 102.978 12.9443C103.169 13.2178 103.265 13.5527 103.265 13.9492C103.265 14.61 103 15.141 102.472 15.542C101.943 15.9385 101.257 16.1367 100.414 16.1367C99.8216 16.1367 99.2975 16.0319 98.8418 15.8223C98.3861 15.6126 98.0283 15.321 97.7686 14.9473C97.5133 14.569 97.3857 14.1611 97.3857 13.7236H98.6504C98.6732 14.1475 98.8418 14.4847 99.1562 14.7354C99.4753 14.9814 99.8945 15.1045 100.414 15.1045C100.893 15.1045 101.275 15.0088 101.562 14.8174C101.854 14.6214 102 14.3617 102 14.0381Z" fill="#808080"/>
<defs>
<filter id="filter0_d_3447_252" x="0" y="0" width="358" height="117" filterUnits="userSpaceOnUse" color-interpolation-filters="sRGB">
<feFlood flood-opacity="0" result="BackgroundImageFix"/>
<feColorMatrix in="SourceAlpha" type="matrix" values="0 0 0 0 0 0 0 0 0 0 0 0 0 0 0 0 0 0 127 0" result="hardAlpha"/>
<feOffset dx="1" dy="1"/>
<feGaussianBlur stdDeviation="2"/>
<feColorMatrix type="matrix" values="0 0 0 0 0 0 0 0 0 0 0 0 0 0 0 0 0 0 0.25 0"/>
<feBlend mode="normal" in2="BackgroundImageFix" result="effect1_dropShadow_3447_252"/>
<feBlend mode="normal" in="SourceGraphic" in2="effect1_dropShadow_3447_252" result="shape"/>
</filter>
</defs>
</svg>
