<svg width="358" height="117" viewBox="0 0 358 117" fill="none" xmlns="http://www.w3.org/2000/svg">
<g filter="url(#filter0_d_3447_263)">
<rect x="3" y="3" width="350" height="109" rx="20" fill="#FFE9D0"/>
</g>
<path fill-rule="evenodd" clip-rule="evenodd" d="M23 3.00003C11.9543 3.00003 3 11.9543 3 23V91.9999C3 103.046 11.9543 112 23 112V3.00003Z" fill="#AFAFAF" fill-opacity="0.3"/>
<path d="M51.4316 40.2637C51.321 41.7936 50.7546 42.998 49.7324 43.877C48.7168 44.7559 47.3757 45.1953 45.709 45.1953C43.8861 45.1953 42.4505 44.5833 41.4023 43.3594C40.3607 42.1289 39.8398 40.4427 39.8398 38.3008V37.4316C39.8398 36.0645 40.0807 34.86 40.5625 33.8184C41.0443 32.7767 41.7311 31.9792 42.623 31.4258C43.5215 30.8659 44.5632 30.5859 45.748 30.5859C47.3887 30.5859 48.7103 31.0254 49.7129 31.9043C50.7155 32.7832 51.2949 34.0169 51.4512 35.6055H48.5215C48.4499 34.6875 48.1927 34.0234 47.75 33.6133C47.3138 33.1966 46.6465 32.9883 45.748 32.9883C44.7715 32.9883 44.0391 33.3398 43.5508 34.043C43.069 34.7396 42.8216 35.8236 42.8086 37.2949V38.3691C42.8086 39.9056 43.0397 41.0286 43.502 41.7383C43.9707 42.4479 44.7064 42.8027 45.709 42.8027C46.6139 42.8027 47.2878 42.5977 47.7305 42.1875C48.1797 41.7708 48.4368 41.1296 48.502 40.2637H51.4316ZM59.1074 37.0801C58.7233 37.028 58.3848 37.002 58.0918 37.002C57.0241 37.002 56.3242 37.3633 55.9922 38.0859V45H53.1699V34.4336H55.8359L55.9141 35.6934C56.4805 34.7233 57.265 34.2383 58.2676 34.2383C58.5801 34.2383 58.873 34.2806 59.1465 34.3652L59.1074 37.0801ZM65.1426 45.1953C63.5931 45.1953 62.3301 44.7201 61.3535 43.7695C60.3835 42.819 59.8984 41.5527 59.8984 39.9707V39.6973C59.8984 38.6361 60.1035 37.6888 60.5137 36.8555C60.9238 36.0156 61.5033 35.3711 62.252 34.9219C63.0072 34.4661 63.8665 34.2383 64.8301 34.2383C66.2754 34.2383 67.4115 34.694 68.2383 35.6055C69.0716 36.5169 69.4883 37.8092 69.4883 39.4824V40.6348H62.7598C62.8509 41.3249 63.1243 41.8783 63.5801 42.2949C64.0423 42.7116 64.625 42.9199 65.3281 42.9199C66.4154 42.9199 67.265 42.526 67.877 41.7383L69.2637 43.291C68.8405 43.89 68.2676 44.3587 67.5449 44.6973C66.8223 45.0293 66.0215 45.1953 65.1426 45.1953ZM64.8203 36.5234C64.2604 36.5234 63.8047 36.7122 63.4531 37.0898C63.1081 37.4674 62.8867 38.0078 62.7891 38.7109H66.7148V38.4863C66.7018 37.8613 66.5326 37.3796 66.207 37.041C65.8815 36.696 65.4193 36.5234 64.8203 36.5234ZM77.2227 45C77.0924 44.7461 76.998 44.4303 76.9395 44.0527C76.2559 44.8145 75.3672 45.1953 74.2734 45.1953C73.2383 45.1953 72.3789 44.8958 71.6953 44.2969C71.0182 43.6979 70.6797 42.9427 70.6797 42.0312C70.6797 40.9115 71.0931 40.0521 71.9199 39.4531C72.7533 38.8542 73.9544 38.5514 75.5234 38.5449H76.8223V37.9395C76.8223 37.4512 76.6953 37.0605 76.4414 36.7676C76.194 36.4746 75.8001 36.3281 75.2598 36.3281C74.7845 36.3281 74.4102 36.4421 74.1367 36.6699C73.8698 36.8978 73.7363 37.2103 73.7363 37.6074H70.9141C70.9141 36.9954 71.1029 36.429 71.4805 35.9082C71.8581 35.3874 72.3919 34.9805 73.082 34.6875C73.7721 34.388 74.5469 34.2383 75.4062 34.2383C76.7083 34.2383 77.7402 34.5671 78.502 35.2246C79.2702 35.8757 79.6543 36.7936 79.6543 37.9785V42.5586C79.6608 43.5612 79.8008 44.3197 80.0742 44.834V45H77.2227ZM74.8887 43.0371C75.3053 43.0371 75.6895 42.946 76.041 42.7637C76.3926 42.5749 76.653 42.3242 76.8223 42.0117V40.1953H75.7676C74.3548 40.1953 73.6029 40.6836 73.5117 41.6602L73.502 41.8262C73.502 42.1777 73.6257 42.4674 73.873 42.6953C74.1204 42.9232 74.459 43.0371 74.8887 43.0371ZM85.2012 31.8359V34.4336H87.0078V36.5039H85.2012V41.7773C85.2012 42.168 85.276 42.4479 85.4258 42.6172C85.5755 42.7865 85.862 42.8711 86.2852 42.8711C86.5977 42.8711 86.8743 42.8483 87.1152 42.8027V44.9414C86.5618 45.1107 85.9922 45.1953 85.4062 45.1953C83.4271 45.1953 82.418 44.196 82.3789 42.1973V36.5039H80.8359V34.4336H82.3789V31.8359H85.2012ZM93.4434 45.1953C91.8939 45.1953 90.6309 44.7201 89.6543 43.7695C88.6842 42.819 88.1992 41.5527 88.1992 39.9707V39.6973C88.1992 38.6361 88.4043 37.6888 88.8145 36.8555C89.2246 36.0156 89.804 35.3711 90.5527 34.9219C91.3079 34.4661 92.1673 34.2383 93.1309 34.2383C94.5762 34.2383 95.7122 34.694 96.5391 35.6055C97.3724 36.5169 97.7891 37.8092 97.7891 39.4824V40.6348H91.0605C91.1517 41.3249 91.4251 41.8783 91.8809 42.2949C92.3431 42.7116 92.9258 42.9199 93.6289 42.9199C94.7161 42.9199 95.5658 42.526 96.1777 41.7383L97.5645 43.291C97.1413 43.89 96.5684 44.3587 95.8457 44.6973C95.123 45.0293 94.3223 45.1953 93.4434 45.1953ZM93.1211 36.5234C92.5612 36.5234 92.1055 36.7122 91.7539 37.0898C91.4089 37.4674 91.1875 38.0078 91.0898 38.7109H95.0156V38.4863C95.0026 37.8613 94.8333 37.3796 94.5078 37.041C94.1823 36.696 93.7201 36.5234 93.1211 36.5234ZM111.461 32.1875C110.901 32.1224 110.38 32.0898 109.898 32.0898C108.622 32.0898 107.984 32.6335 107.984 33.7207V34.4336H110.084V36.5039H107.984V45H105.152V36.5039H103.58V34.4336H105.152V33.6133C105.165 32.3893 105.549 31.4486 106.305 30.791C107.06 30.127 108.128 29.7949 109.508 29.7949C110.491 29.7949 112.086 29.8991 114.293 30.1074V45H111.461V32.1875ZM121.51 45.1953C119.96 45.1953 118.697 44.7201 117.721 43.7695C116.751 42.819 116.266 41.5527 116.266 39.9707V39.6973C116.266 38.6361 116.471 37.6888 116.881 36.8555C117.291 36.0156 117.87 35.3711 118.619 34.9219C119.374 34.4661 120.234 34.2383 121.197 34.2383C122.643 34.2383 123.779 34.694 124.605 35.6055C125.439 36.5169 125.855 37.8092 125.855 39.4824V40.6348H119.127C119.218 41.3249 119.492 41.8783 119.947 42.2949C120.41 42.7116 120.992 42.9199 121.695 42.9199C122.783 42.9199 123.632 42.526 124.244 41.7383L125.631 43.291C125.208 43.89 124.635 44.3587 123.912 44.6973C123.189 45.0293 122.389 45.1953 121.51 45.1953ZM121.188 36.5234C120.628 36.5234 120.172 36.7122 119.82 37.0898C119.475 37.4674 119.254 38.0078 119.156 38.7109H123.082V38.4863C123.069 37.8613 122.9 37.3796 122.574 37.041C122.249 36.696 121.786 36.5234 121.188 36.5234ZM131.49 37.5879L133.268 34.4336H136.285L133.277 39.6094L136.412 45H133.385L131.5 41.6797L129.625 45H126.588L129.723 39.6094L126.725 34.4336H129.752L131.49 37.5879ZM140.621 45H137.789V34.4336H140.621V45ZM137.623 31.6992C137.623 31.276 137.763 30.9277 138.043 30.6543C138.329 30.3809 138.717 30.2441 139.205 30.2441C139.687 30.2441 140.071 30.3809 140.357 30.6543C140.644 30.9277 140.787 31.276 140.787 31.6992C140.787 32.1289 140.641 32.4805 140.348 32.7539C140.061 33.0273 139.68 33.1641 139.205 33.1641C138.73 33.1641 138.346 33.0273 138.053 32.7539C137.766 32.4805 137.623 32.1289 137.623 31.6992ZM152.477 39.8145C152.477 41.5072 152.115 42.8288 151.393 43.7793C150.67 44.7233 149.661 45.1953 148.365 45.1953C147.219 45.1953 146.305 44.7559 145.621 43.877L145.494 45H142.955V30H145.777V35.3809C146.428 34.6191 147.285 34.2383 148.346 34.2383C149.635 34.2383 150.644 34.7135 151.373 35.6641C152.109 36.6081 152.477 37.9395 152.477 39.6582V39.8145ZM149.654 39.6094C149.654 38.5417 149.485 37.7637 149.146 37.2754C148.808 36.7806 148.303 36.5332 147.633 36.5332C146.734 36.5332 146.116 36.901 145.777 37.6367V41.8066C146.122 42.5488 146.747 42.9199 147.652 42.9199C148.564 42.9199 149.163 42.4707 149.449 41.5723C149.586 41.1426 149.654 40.4883 149.654 39.6094ZM157.203 45H154.371V30H157.203V45ZM164.4 45.1953C162.851 45.1953 161.588 44.7201 160.611 43.7695C159.641 42.819 159.156 41.5527 159.156 39.9707V39.6973C159.156 38.6361 159.361 37.6888 159.771 36.8555C160.182 36.0156 160.761 35.3711 161.51 34.9219C162.265 34.4661 163.124 34.2383 164.088 34.2383C165.533 34.2383 166.669 34.694 167.496 35.6055C168.329 36.5169 168.746 37.8092 168.746 39.4824V40.6348H162.018C162.109 41.3249 162.382 41.8783 162.838 42.2949C163.3 42.7116 163.883 42.9199 164.586 42.9199C165.673 42.9199 166.523 42.526 167.135 41.7383L168.521 43.291C168.098 43.89 167.525 44.3587 166.803 44.6973C166.08 45.0293 165.279 45.1953 164.4 45.1953ZM164.078 36.5234C163.518 36.5234 163.062 36.7122 162.711 37.0898C162.366 37.4674 162.145 38.0078 162.047 38.7109H165.973V38.4863C165.96 37.8613 165.79 37.3796 165.465 37.041C165.139 36.696 164.677 36.5234 164.078 36.5234ZM181.461 45C181.331 44.7461 181.236 44.4303 181.178 44.0527C180.494 44.8145 179.605 45.1953 178.512 45.1953C177.477 45.1953 176.617 44.8958 175.934 44.2969C175.257 43.6979 174.918 42.9427 174.918 42.0312C174.918 40.9115 175.331 40.0521 176.158 39.4531C176.992 38.8542 178.193 38.5514 179.762 38.5449H181.061V37.9395C181.061 37.4512 180.934 37.0605 180.68 36.7676C180.432 36.4746 180.038 36.3281 179.498 36.3281C179.023 36.3281 178.648 36.4421 178.375 36.6699C178.108 36.8978 177.975 37.2103 177.975 37.6074H175.152C175.152 36.9954 175.341 36.429 175.719 35.9082C176.096 35.3874 176.63 34.9805 177.32 34.6875C178.01 34.388 178.785 34.2383 179.645 34.2383C180.947 34.2383 181.979 34.5671 182.74 35.2246C183.508 35.8757 183.893 36.7936 183.893 37.9785V42.5586C183.899 43.5612 184.039 44.3197 184.312 44.834V45H181.461ZM179.127 43.0371C179.544 43.0371 179.928 42.946 180.279 42.7637C180.631 42.5749 180.891 42.3242 181.061 42.0117V40.1953H180.006C178.593 40.1953 177.841 40.6836 177.75 41.6602L177.74 41.8262C177.74 42.1777 177.864 42.4674 178.111 42.6953C178.359 42.9232 178.697 43.0371 179.127 43.0371ZM192.389 43.9258C191.692 44.7721 190.729 45.1953 189.498 45.1953C188.365 45.1953 187.499 44.8698 186.9 44.2188C186.308 43.5677 186.005 42.6139 185.992 41.3574V34.4336H188.814V41.2598C188.814 42.36 189.316 42.9102 190.318 42.9102C191.275 42.9102 191.933 42.5781 192.291 41.9141V34.4336H195.123V45H192.467L192.389 43.9258ZM196.812 39.6387C196.812 37.9915 197.18 36.6797 197.916 35.7031C198.658 34.7266 199.671 34.2383 200.953 34.2383C201.982 34.2383 202.831 34.6224 203.502 35.3906V30H206.334V45H203.785L203.648 43.877C202.945 44.7559 202.04 45.1953 200.934 45.1953C199.69 45.1953 198.691 44.707 197.936 43.7305C197.187 42.7474 196.812 41.3835 196.812 39.6387ZM199.635 39.8438C199.635 40.8333 199.807 41.5918 200.152 42.1191C200.497 42.6465 200.999 42.9102 201.656 42.9102C202.529 42.9102 203.144 42.5423 203.502 41.8066V37.6367C203.15 36.901 202.542 36.5332 201.676 36.5332C200.315 36.5332 199.635 37.6367 199.635 39.8438ZM211.5 45H208.668V34.4336H211.5V45ZM208.502 31.6992C208.502 31.276 208.642 30.9277 208.922 30.6543C209.208 30.3809 209.596 30.2441 210.084 30.2441C210.566 30.2441 210.95 30.3809 211.236 30.6543C211.523 30.9277 211.666 31.276 211.666 31.6992C211.666 32.1289 211.52 32.4805 211.227 32.7539C210.94 33.0273 210.559 33.1641 210.084 33.1641C209.609 33.1641 209.225 33.0273 208.932 32.7539C208.645 32.4805 208.502 32.1289 208.502 31.6992ZM213.395 39.6191C213.395 38.571 213.596 37.6367 214 36.8164C214.404 35.9961 214.983 35.3613 215.738 34.9121C216.5 34.4629 217.382 34.2383 218.385 34.2383C219.811 34.2383 220.973 34.6745 221.871 35.5469C222.776 36.4193 223.281 37.6042 223.385 39.1016L223.404 39.8242C223.404 41.4453 222.952 42.7474 222.047 43.7305C221.142 44.707 219.928 45.1953 218.404 45.1953C216.881 45.1953 215.663 44.707 214.752 43.7305C213.847 42.7539 213.395 41.4258 213.395 39.7461V39.6191ZM216.217 39.8242C216.217 40.8268 216.406 41.5951 216.783 42.1289C217.161 42.6562 217.701 42.9199 218.404 42.9199C219.088 42.9199 219.622 42.6595 220.006 42.1387C220.39 41.6113 220.582 40.7715 220.582 39.6191C220.582 38.6361 220.39 37.8743 220.006 37.334C219.622 36.7936 219.081 36.5234 218.385 36.5234C217.695 36.5234 217.161 36.7936 216.783 37.334C216.406 37.8678 216.217 38.6979 216.217 39.8242ZM239.635 39.8145C239.635 41.4421 239.264 42.7474 238.521 43.7305C237.786 44.707 236.79 45.1953 235.533 45.1953C234.465 45.1953 233.603 44.8242 232.945 44.082V49.0625H230.123V34.4336H232.74L232.838 35.4688C233.521 34.6484 234.413 34.2383 235.514 34.2383C236.816 34.2383 237.828 34.7201 238.551 35.6836C239.273 36.6471 239.635 37.9753 239.635 39.668V39.8145ZM236.812 39.6094C236.812 38.6263 236.637 37.8678 236.285 37.334C235.94 36.8001 235.436 36.5332 234.771 36.5332C233.886 36.5332 233.277 36.8717 232.945 37.5488V41.875C233.29 42.5716 233.906 42.9199 234.791 42.9199C236.139 42.9199 236.812 41.8164 236.812 39.6094ZM244.371 45H241.539V30H244.371V45ZM252.828 45C252.698 44.7461 252.604 44.4303 252.545 44.0527C251.861 44.8145 250.973 45.1953 249.879 45.1953C248.844 45.1953 247.984 44.8958 247.301 44.2969C246.624 43.6979 246.285 42.9427 246.285 42.0312C246.285 40.9115 246.699 40.0521 247.525 39.4531C248.359 38.8542 249.56 38.5514 251.129 38.5449H252.428V37.9395C252.428 37.4512 252.301 37.0605 252.047 36.7676C251.799 36.4746 251.406 36.3281 250.865 36.3281C250.39 36.3281 250.016 36.4421 249.742 36.6699C249.475 36.8978 249.342 37.2103 249.342 37.6074H246.52C246.52 36.9954 246.708 36.429 247.086 35.9082C247.464 35.3874 247.997 34.9805 248.688 34.6875C249.378 34.388 250.152 34.2383 251.012 34.2383C252.314 34.2383 253.346 34.5671 254.107 35.2246C254.876 35.8757 255.26 36.7936 255.26 37.9785V42.5586C255.266 43.5612 255.406 44.3197 255.68 44.834V45H252.828ZM250.494 43.0371C250.911 43.0371 251.295 42.946 251.646 42.7637C251.998 42.5749 252.258 42.3242 252.428 42.0117V40.1953H251.373C249.96 40.1953 249.208 40.6836 249.117 41.6602L249.107 41.8262C249.107 42.1777 249.231 42.4674 249.479 42.6953C249.726 42.9232 250.064 43.0371 250.494 43.0371ZM261.217 41.0059L263.17 34.4336H266.197L261.949 46.6406L261.715 47.1973C261.083 48.5775 260.042 49.2676 258.59 49.2676C258.18 49.2676 257.763 49.2057 257.34 49.082V46.9434L257.77 46.9531C258.303 46.9531 258.701 46.8717 258.961 46.709C259.228 46.5462 259.436 46.276 259.586 45.8984L259.918 45.0293L256.217 34.4336H259.254L261.217 41.0059ZM270.289 45H267.457V30H270.289V45ZM275.602 45H272.77V34.4336H275.602V45ZM272.604 31.6992C272.604 31.276 272.743 30.9277 273.023 30.6543C273.31 30.3809 273.697 30.2441 274.186 30.2441C274.667 30.2441 275.051 30.3809 275.338 30.6543C275.624 30.9277 275.768 31.276 275.768 31.6992C275.768 32.1289 275.621 32.4805 275.328 32.7539C275.042 33.0273 274.661 33.1641 274.186 33.1641C273.71 33.1641 273.326 33.0273 273.033 32.7539C272.747 32.4805 272.604 32.1289 272.604 31.6992ZM283.658 42.0801C283.658 41.735 283.486 41.4648 283.141 41.2695C282.802 41.0677 282.255 40.8887 281.5 40.7324C278.987 40.2051 277.73 39.1374 277.73 37.5293C277.73 36.5918 278.118 35.8105 278.893 35.1855C279.674 34.554 280.693 34.2383 281.949 34.2383C283.29 34.2383 284.361 34.554 285.162 35.1855C285.969 35.8171 286.373 36.6374 286.373 37.6465H283.551C283.551 37.2428 283.421 36.9108 283.16 36.6504C282.9 36.3835 282.493 36.25 281.939 36.25C281.464 36.25 281.096 36.3574 280.836 36.5723C280.576 36.7871 280.445 37.0605 280.445 37.3926C280.445 37.7051 280.592 37.959 280.885 38.1543C281.184 38.3431 281.686 38.5091 282.389 38.6523C283.092 38.7891 283.684 38.9453 284.166 39.1211C285.657 39.668 286.402 40.6152 286.402 41.9629C286.402 42.9264 285.989 43.7077 285.162 44.3066C284.335 44.8991 283.268 45.1953 281.959 45.1953C281.074 45.1953 280.286 45.0391 279.596 44.7266C278.912 44.4076 278.375 43.9746 277.984 43.4277C277.594 42.8743 277.398 42.2786 277.398 41.6406H280.074C280.1 42.1419 280.286 42.526 280.631 42.793C280.976 43.0599 281.438 43.1934 282.018 43.1934C282.558 43.1934 282.965 43.0924 283.238 42.8906C283.518 42.6823 283.658 42.4121 283.658 42.0801ZM291.607 31.8359V34.4336H293.414V36.5039H291.607V41.7773C291.607 42.168 291.682 42.4479 291.832 42.6172C291.982 42.7865 292.268 42.8711 292.691 42.8711C293.004 42.8711 293.281 42.8483 293.521 42.8027V44.9414C292.968 45.1107 292.398 45.1953 291.812 45.1953C289.833 45.1953 288.824 44.196 288.785 42.1973V36.5039H287.242V34.4336H288.785V31.8359H291.607ZM300.709 42.0801C300.709 41.735 300.536 41.4648 300.191 41.2695C299.853 41.0677 299.306 40.8887 298.551 40.7324C296.038 40.2051 294.781 39.1374 294.781 37.5293C294.781 36.5918 295.169 35.8105 295.943 35.1855C296.725 34.554 297.743 34.2383 299 34.2383C300.341 34.2383 301.412 34.554 302.213 35.1855C303.02 35.8171 303.424 36.6374 303.424 37.6465H300.602C300.602 37.2428 300.471 36.9108 300.211 36.6504C299.951 36.3835 299.544 36.25 298.99 36.25C298.515 36.25 298.147 36.3574 297.887 36.5723C297.626 36.7871 297.496 37.0605 297.496 37.3926C297.496 37.7051 297.643 37.959 297.936 38.1543C298.235 38.3431 298.736 38.5091 299.439 38.6523C300.143 38.7891 300.735 38.9453 301.217 39.1211C302.708 39.668 303.453 40.6152 303.453 41.9629C303.453 42.9264 303.04 43.7077 302.213 44.3066C301.386 44.8991 300.318 45.1953 299.01 45.1953C298.124 45.1953 297.337 45.0391 296.646 44.7266C295.963 44.4076 295.426 43.9746 295.035 43.4277C294.645 42.8743 294.449 42.2786 294.449 41.6406H297.125C297.151 42.1419 297.337 42.526 297.682 42.793C298.027 43.0599 298.489 43.1934 299.068 43.1934C299.609 43.1934 300.016 43.0924 300.289 42.8906C300.569 42.6823 300.709 42.4121 300.709 42.0801Z" fill="black"/>
<path d="M41.4062 72.1875H47.0234V73H40.4375V61.625H41.4062V72.1875ZM49.7031 73H48.7656V64.5469H49.7031V73ZM48.6016 62.1016C48.6016 61.9245 48.6589 61.776 48.7734 61.6562C48.888 61.5312 49.0443 61.4688 49.2422 61.4688C49.4401 61.4688 49.5964 61.5312 49.7109 61.6562C49.8307 61.776 49.8906 61.9245 49.8906 62.1016C49.8906 62.2786 49.8307 62.4271 49.7109 62.5469C49.5964 62.6667 49.4401 62.7266 49.2422 62.7266C49.0443 62.7266 48.888 62.6667 48.7734 62.5469C48.6589 62.4271 48.6016 62.2786 48.6016 62.1016ZM57.3125 70.8516C57.3125 70.388 57.125 70.0156 56.75 69.7344C56.3802 69.4531 55.8203 69.2344 55.0703 69.0781C54.3203 68.9167 53.737 68.7344 53.3203 68.5312C52.9089 68.3229 52.6016 68.0703 52.3984 67.7734C52.2005 67.4766 52.1016 67.1172 52.1016 66.6953C52.1016 66.0286 52.3802 65.4792 52.9375 65.0469C53.4948 64.6094 54.2083 64.3906 55.0781 64.3906C56.0208 64.3906 56.776 64.625 57.3438 65.0938C57.9167 65.5573 58.2031 66.1641 58.2031 66.9141H57.2656C57.2656 66.4193 57.0573 66.0078 56.6406 65.6797C56.2292 65.3516 55.7083 65.1875 55.0781 65.1875C54.4635 65.1875 53.9688 65.3255 53.5938 65.6016C53.224 65.8724 53.0391 66.2266 53.0391 66.6641C53.0391 67.0859 53.1927 67.4141 53.5 67.6484C53.8125 67.8776 54.3776 68.0885 55.1953 68.2812C56.0182 68.474 56.6328 68.6797 57.0391 68.8984C57.4505 69.1172 57.7552 69.3802 57.9531 69.6875C58.151 69.9948 58.25 70.3672 58.25 70.8047C58.25 71.5182 57.9609 72.0885 57.3828 72.5156C56.8099 72.9427 56.0599 73.1562 55.1328 73.1562C54.1484 73.1562 53.349 72.9193 52.7344 72.4453C52.125 71.9661 51.8203 71.362 51.8203 70.6328H52.7578C52.7943 71.1797 53.0234 71.6068 53.4453 71.9141C53.8724 72.2161 54.4349 72.3672 55.1328 72.3672C55.7839 72.3672 56.3099 72.224 56.7109 71.9375C57.112 71.651 57.3125 71.2891 57.3125 70.8516ZM61.8125 62.3828V64.5469H63.5625V65.3125H61.8125V70.9453C61.8125 71.4141 61.8958 71.763 62.0625 71.9922C62.2344 72.2214 62.5182 72.3359 62.9141 72.3359C63.0703 72.3359 63.3229 72.3099 63.6719 72.2578L63.7109 73.0234C63.4661 73.112 63.1328 73.1562 62.7109 73.1562C62.0703 73.1562 61.6042 72.9714 61.3125 72.6016C61.0208 72.2266 60.875 71.6771 60.875 70.9531V65.3125H59.3203V64.5469H60.875V62.3828H61.8125ZM68.7734 73.1562C68.0547 73.1562 67.4036 72.9792 66.8203 72.625C66.2422 72.2708 65.7917 71.7786 65.4688 71.1484C65.1458 70.513 64.9844 69.8021 64.9844 69.0156V68.6797C64.9844 67.8672 65.1406 67.1354 65.4531 66.4844C65.7708 65.8333 66.2109 65.3229 66.7734 64.9531C67.3359 64.5781 67.9453 64.3906 68.6016 64.3906C69.6276 64.3906 70.4401 64.7422 71.0391 65.4453C71.6432 66.1432 71.9453 67.099 71.9453 68.3125V68.8359H65.9141V69.0156C65.9141 69.974 66.1875 70.7734 66.7344 71.4141C67.2865 72.0495 67.9792 72.3672 68.8125 72.3672C69.3125 72.3672 69.7526 72.276 70.1328 72.0938C70.5182 71.9115 70.8672 71.6198 71.1797 71.2188L71.7656 71.6641C71.0781 72.6589 70.0807 73.1562 68.7734 73.1562ZM68.6016 65.1875C67.8984 65.1875 67.3047 65.4453 66.8203 65.9609C66.3411 66.4766 66.0495 67.1693 65.9453 68.0391H71.0156V67.9375C70.9896 67.125 70.7578 66.4635 70.3203 65.9531C69.8828 65.4427 69.3099 65.1875 68.6016 65.1875ZM74.6562 64.5469L74.6875 65.9922C75.0052 65.4714 75.401 65.0755 75.875 64.8047C76.349 64.5286 76.8724 64.3906 77.4453 64.3906C78.3516 64.3906 79.026 64.6458 79.4688 65.1562C79.9115 65.6667 80.1354 66.4323 80.1406 67.4531V73H79.2109V67.4453C79.2057 66.6901 79.0443 66.1276 78.7266 65.7578C78.4141 65.388 77.9115 65.2031 77.2188 65.2031C76.6406 65.2031 76.1276 65.3854 75.6797 65.75C75.237 66.1094 74.9089 66.5964 74.6953 67.2109V73H73.7656V64.5469H74.6562ZM87.9062 62.3828V64.5469H89.6562V65.3125H87.9062V70.9453C87.9062 71.4141 87.9896 71.763 88.1562 71.9922C88.3281 72.2214 88.612 72.3359 89.0078 72.3359C89.1641 72.3359 89.4167 72.3099 89.7656 72.2578L89.8047 73.0234C89.5599 73.112 89.2266 73.1562 88.8047 73.1562C88.1641 73.1562 87.6979 72.9714 87.4062 72.6016C87.1146 72.2266 86.9688 71.6771 86.9688 70.9531V65.3125H85.4141V64.5469H86.9688V62.3828H87.9062ZM90.9219 68.6484C90.9219 67.8359 91.0781 67.1042 91.3906 66.4531C91.7083 65.8021 92.1536 65.2969 92.7266 64.9375C93.3047 64.5729 93.9583 64.3906 94.6875 64.3906C95.8125 64.3906 96.724 64.7865 97.4219 65.5781C98.1198 66.3646 98.4688 67.4089 98.4688 68.7109V68.9062C98.4688 69.724 98.3099 70.4609 97.9922 71.1172C97.6797 71.7682 97.237 72.2708 96.6641 72.625C96.0911 72.9792 95.4375 73.1562 94.7031 73.1562C93.5833 73.1562 92.6719 72.763 91.9688 71.9766C91.2708 71.1849 90.9219 70.138 90.9219 68.8359V68.6484ZM91.8594 68.9062C91.8594 69.9167 92.1198 70.7474 92.6406 71.3984C93.1667 72.0443 93.8542 72.3672 94.7031 72.3672C95.5469 72.3672 96.2292 72.0443 96.75 71.3984C97.276 70.7474 97.5391 69.8906 97.5391 68.8281V68.6484C97.5391 68.0026 97.4193 67.4115 97.1797 66.875C96.9401 66.3385 96.6042 65.9245 96.1719 65.6328C95.7396 65.3359 95.2448 65.1875 94.6875 65.1875C93.8542 65.1875 93.1745 65.5156 92.6484 66.1719C92.1224 66.8229 91.8594 67.6771 91.8594 68.7344V68.9062ZM105.148 64.5469L105.18 65.9219C105.492 65.4115 105.883 65.0286 106.352 64.7734C106.82 64.5182 107.341 64.3906 107.914 64.3906C109.247 64.3906 110.094 64.9375 110.453 66.0312C110.755 65.5052 111.159 65.1016 111.664 64.8203C112.169 64.5339 112.727 64.3906 113.336 64.3906C115.148 64.3906 116.073 65.3802 116.109 67.3594V73H115.172V67.4297C115.167 66.6745 115.003 66.1146 114.68 65.75C114.362 65.3854 113.841 65.2031 113.117 65.2031C112.445 65.2135 111.878 65.4323 111.414 65.8594C110.951 66.2812 110.693 66.7969 110.641 67.4062V73H109.703V67.3594C109.698 66.6354 109.526 66.0964 109.188 65.7422C108.854 65.3828 108.339 65.2031 107.641 65.2031C107.052 65.2031 106.547 65.3724 106.125 65.7109C105.703 66.0443 105.391 66.5417 105.188 67.2031V73H104.25V64.5469H105.148ZM123.922 71.9297C123.359 72.7474 122.461 73.1562 121.227 73.1562C120.326 73.1562 119.641 72.8958 119.172 72.375C118.703 71.849 118.464 71.0729 118.453 70.0469V64.5469H119.383V69.9297C119.383 71.5391 120.034 72.3438 121.336 72.3438C122.69 72.3438 123.547 71.7839 123.906 70.6641V64.5469H124.844V73H123.938L123.922 71.9297ZM132.344 70.8516C132.344 70.388 132.156 70.0156 131.781 69.7344C131.411 69.4531 130.852 69.2344 130.102 69.0781C129.352 68.9167 128.768 68.7344 128.352 68.5312C127.94 68.3229 127.633 68.0703 127.43 67.7734C127.232 67.4766 127.133 67.1172 127.133 66.6953C127.133 66.0286 127.411 65.4792 127.969 65.0469C128.526 64.6094 129.24 64.3906 130.109 64.3906C131.052 64.3906 131.807 64.625 132.375 65.0938C132.948 65.5573 133.234 66.1641 133.234 66.9141H132.297C132.297 66.4193 132.089 66.0078 131.672 65.6797C131.26 65.3516 130.74 65.1875 130.109 65.1875C129.495 65.1875 129 65.3255 128.625 65.6016C128.255 65.8724 128.07 66.2266 128.07 66.6641C128.07 67.0859 128.224 67.4141 128.531 67.6484C128.844 67.8776 129.409 68.0885 130.227 68.2812C131.049 68.474 131.664 68.6797 132.07 68.8984C132.482 69.1172 132.786 69.3802 132.984 69.6875C133.182 69.9948 133.281 70.3672 133.281 70.8047C133.281 71.5182 132.992 72.0885 132.414 72.5156C131.841 72.9427 131.091 73.1562 130.164 73.1562C129.18 73.1562 128.38 72.9193 127.766 72.4453C127.156 71.9661 126.852 71.362 126.852 70.6328H127.789C127.826 71.1797 128.055 71.6068 128.477 71.9141C128.904 72.2161 129.466 72.3672 130.164 72.3672C130.815 72.3672 131.341 72.224 131.742 71.9375C132.143 71.651 132.344 71.2891 132.344 70.8516ZM136.438 73H135.5V64.5469H136.438V73ZM135.336 62.1016C135.336 61.9245 135.393 61.776 135.508 61.6562C135.622 61.5312 135.779 61.4688 135.977 61.4688C136.174 61.4688 136.331 61.5312 136.445 61.6562C136.565 61.776 136.625 61.9245 136.625 62.1016C136.625 62.2786 136.565 62.4271 136.445 62.5469C136.331 62.6667 136.174 62.7266 135.977 62.7266C135.779 62.7266 135.622 62.6667 135.508 62.5469C135.393 62.4271 135.336 62.2786 135.336 62.1016ZM142.109 72.3672C142.76 72.3672 143.305 72.1849 143.742 71.8203C144.185 71.4505 144.424 70.974 144.461 70.3906H145.359C145.333 70.9062 145.172 71.3776 144.875 71.8047C144.578 72.2266 144.182 72.5573 143.688 72.7969C143.198 73.0365 142.672 73.1562 142.109 73.1562C141 73.1562 140.12 72.7708 139.469 72C138.823 71.2292 138.5 70.1927 138.5 68.8906V68.6094C138.5 67.776 138.646 67.0391 138.938 66.3984C139.229 65.7578 139.646 65.263 140.188 64.9141C140.734 64.5651 141.372 64.3906 142.102 64.3906C143.029 64.3906 143.792 64.6667 144.391 65.2188C144.995 65.7708 145.318 66.4974 145.359 67.3984H144.461C144.419 66.737 144.18 66.2031 143.742 65.7969C143.31 65.3906 142.763 65.1875 142.102 65.1875C141.258 65.1875 140.602 65.4922 140.133 66.1016C139.669 66.7109 139.438 67.5651 139.438 68.6641V68.9375C139.438 70.0156 139.669 70.8568 140.133 71.4609C140.602 72.0651 141.26 72.3672 142.109 72.3672ZM155.031 65.3438C154.833 65.3073 154.622 65.2891 154.398 65.2891C153.815 65.2891 153.32 65.4531 152.914 65.7812C152.513 66.1042 152.227 66.5755 152.055 67.1953V73H151.125V64.5469H152.039L152.055 65.8906C152.549 64.8906 153.344 64.3906 154.438 64.3906C154.698 64.3906 154.904 64.4245 155.055 64.4922L155.031 65.3438ZM157.562 73H156.625V64.5469H157.562V73ZM156.461 62.1016C156.461 61.9245 156.518 61.776 156.633 61.6562C156.747 61.5312 156.904 61.4688 157.102 61.4688C157.299 61.4688 157.456 61.5312 157.57 61.6562C157.69 61.776 157.75 61.9245 157.75 62.1016C157.75 62.2786 157.69 62.4271 157.57 62.5469C157.456 62.6667 157.299 62.7266 157.102 62.7266C156.904 62.7266 156.747 62.6667 156.633 62.5469C156.518 62.4271 156.461 62.2786 156.461 62.1016ZM159.734 68.6953C159.734 67.3724 160.026 66.3255 160.609 65.5547C161.198 64.7786 161.995 64.3906 163 64.3906C164.151 64.3906 165.026 64.849 165.625 65.7656L165.672 64.5469H166.547V72.8281C166.547 73.9167 166.242 74.7786 165.633 75.4141C165.023 76.0495 164.198 76.3672 163.156 76.3672C162.568 76.3672 162.005 76.2344 161.469 75.9688C160.938 75.7083 160.518 75.3594 160.211 74.9219L160.734 74.3594C161.396 75.1719 162.182 75.5781 163.094 75.5781C163.875 75.5781 164.484 75.3464 164.922 74.8828C165.359 74.4245 165.586 73.7865 165.602 72.9688V71.9062C165.003 72.7396 164.13 73.1562 162.984 73.1562C162.005 73.1562 161.219 72.7656 160.625 71.9844C160.031 71.2031 159.734 70.1484 159.734 68.8203V68.6953ZM160.68 68.8594C160.68 69.9375 160.896 70.7891 161.328 71.4141C161.76 72.0339 162.37 72.3438 163.156 72.3438C164.307 72.3438 165.122 71.8281 165.602 70.7969V66.8672C165.383 66.3255 165.068 65.9141 164.656 65.6328C164.245 65.3464 163.75 65.2031 163.172 65.2031C162.385 65.2031 161.773 65.513 161.336 66.1328C160.898 66.7474 160.68 67.6562 160.68 68.8594ZM169.914 65.9766C170.221 65.4714 170.615 65.0807 171.094 64.8047C171.573 64.5286 172.096 64.3906 172.664 64.3906C173.57 64.3906 174.245 64.6458 174.688 65.1562C175.13 65.6667 175.354 66.4323 175.359 67.4531V73H174.43V67.4453C174.424 66.6901 174.263 66.1276 173.945 65.7578C173.633 65.388 173.13 65.2031 172.438 65.2031C171.859 65.2031 171.346 65.3854 170.898 65.75C170.456 66.1094 170.128 66.5964 169.914 67.2109V73H168.984V61H169.914V65.9766ZM179.219 62.3828V64.5469H180.969V65.3125H179.219V70.9453C179.219 71.4141 179.302 71.763 179.469 71.9922C179.641 72.2214 179.924 72.3359 180.32 72.3359C180.477 72.3359 180.729 72.3099 181.078 72.2578L181.117 73.0234C180.872 73.112 180.539 73.1562 180.117 73.1562C179.477 73.1562 179.01 72.9714 178.719 72.6016C178.427 72.2266 178.281 71.6771 178.281 70.9531V65.3125H176.727V64.5469H178.281V62.3828H179.219ZM187.844 73H186.906V64.5469H187.844V73ZM186.742 62.1016C186.742 61.9245 186.799 61.776 186.914 61.6562C187.029 61.5312 187.185 61.4688 187.383 61.4688C187.581 61.4688 187.737 61.5312 187.852 61.6562C187.971 61.776 188.031 61.9245 188.031 62.1016C188.031 62.2786 187.971 62.4271 187.852 62.5469C187.737 62.6667 187.581 62.7266 187.383 62.7266C187.185 62.7266 187.029 62.6667 186.914 62.5469C186.799 62.4271 186.742 62.2786 186.742 62.1016ZM191.281 64.5469L191.312 65.9922C191.63 65.4714 192.026 65.0755 192.5 64.8047C192.974 64.5286 193.497 64.3906 194.07 64.3906C194.977 64.3906 195.651 64.6458 196.094 65.1562C196.536 65.6667 196.76 66.4323 196.766 67.4531V73H195.836V67.4453C195.831 66.6901 195.669 66.1276 195.352 65.7578C195.039 65.388 194.536 65.2031 193.844 65.2031C193.266 65.2031 192.753 65.3854 192.305 65.75C191.862 66.1094 191.534 66.5964 191.32 67.2109V73H190.391V64.5469H191.281ZM205.758 71.6562L208.227 64.5469H209.234L205.625 74.4375L205.438 74.875C204.974 75.901 204.258 76.4141 203.289 76.4141C203.065 76.4141 202.826 76.3776 202.57 76.3047L202.562 75.5312L203.047 75.5781C203.505 75.5781 203.875 75.4635 204.156 75.2344C204.443 75.0104 204.685 74.6224 204.883 74.0703L205.297 72.9297L202.109 64.5469H203.133L205.758 71.6562ZM210.047 68.6484C210.047 67.8359 210.203 67.1042 210.516 66.4531C210.833 65.8021 211.279 65.2969 211.852 64.9375C212.43 64.5729 213.083 64.3906 213.812 64.3906C214.938 64.3906 215.849 64.7865 216.547 65.5781C217.245 66.3646 217.594 67.4089 217.594 68.7109V68.9062C217.594 69.724 217.435 70.4609 217.117 71.1172C216.805 71.7682 216.362 72.2708 215.789 72.625C215.216 72.9792 214.562 73.1562 213.828 73.1562C212.708 73.1562 211.797 72.763 211.094 71.9766C210.396 71.1849 210.047 70.138 210.047 68.8359V68.6484ZM210.984 68.9062C210.984 69.9167 211.245 70.7474 211.766 71.3984C212.292 72.0443 212.979 72.3672 213.828 72.3672C214.672 72.3672 215.354 72.0443 215.875 71.3984C216.401 70.7474 216.664 69.8906 216.664 68.8281V68.6484C216.664 68.0026 216.544 67.4115 216.305 66.875C216.065 66.3385 215.729 65.9245 215.297 65.6328C214.865 65.3359 214.37 65.1875 213.812 65.1875C212.979 65.1875 212.299 65.5156 211.773 66.1719C211.247 66.8229 210.984 67.6771 210.984 68.7344V68.9062ZM224.969 71.9297C224.406 72.7474 223.508 73.1562 222.273 73.1562C221.372 73.1562 220.688 72.8958 220.219 72.375C219.75 71.849 219.51 71.0729 219.5 70.0469V64.5469H220.43V69.9297C220.43 71.5391 221.081 72.3438 222.383 72.3438C223.737 72.3438 224.594 71.7839 224.953 70.6641V64.5469H225.891V73H224.984L224.969 71.9297ZM232.234 65.3438C232.036 65.3073 231.826 65.2891 231.602 65.2891C231.018 65.2891 230.523 65.4531 230.117 65.7812C229.716 66.1042 229.43 66.5755 229.258 67.1953V73H228.328V64.5469H229.242L229.258 65.8906C229.753 64.8906 230.547 64.3906 231.641 64.3906C231.901 64.3906 232.107 64.4245 232.258 64.4922L232.234 65.3438ZM238.5 64.5469L238.531 65.9922C238.849 65.4714 239.245 65.0755 239.719 64.8047C240.193 64.5286 240.716 64.3906 241.289 64.3906C242.195 64.3906 242.87 64.6458 243.312 65.1562C243.755 65.6667 243.979 66.4323 243.984 67.4531V73H243.055V67.4453C243.049 66.6901 242.888 66.1276 242.57 65.7578C242.258 65.388 241.755 65.2031 241.062 65.2031C240.484 65.2031 239.971 65.3854 239.523 65.75C239.081 66.1094 238.753 66.5964 238.539 67.2109V73H237.609V64.5469H238.5ZM245.891 68.6484C245.891 67.8359 246.047 67.1042 246.359 66.4531C246.677 65.8021 247.122 65.2969 247.695 64.9375C248.273 64.5729 248.927 64.3906 249.656 64.3906C250.781 64.3906 251.693 64.7865 252.391 65.5781C253.089 66.3646 253.438 67.4089 253.438 68.7109V68.9062C253.438 69.724 253.279 70.4609 252.961 71.1172C252.648 71.7682 252.206 72.2708 251.633 72.625C251.06 72.9792 250.406 73.1562 249.672 73.1562C248.552 73.1562 247.641 72.763 246.938 71.9766C246.24 71.1849 245.891 70.138 245.891 68.8359V68.6484ZM246.828 68.9062C246.828 69.9167 247.089 70.7474 247.609 71.3984C248.135 72.0443 248.823 72.3672 249.672 72.3672C250.516 72.3672 251.198 72.0443 251.719 71.3984C252.245 70.7474 252.508 69.8906 252.508 68.8281V68.6484C252.508 68.0026 252.388 67.4115 252.148 66.875C251.909 66.3385 251.573 65.9245 251.141 65.6328C250.708 65.3359 250.214 65.1875 249.656 65.1875C248.823 65.1875 248.143 65.5156 247.617 66.1719C247.091 66.8229 246.828 67.6771 246.828 68.7344V68.9062ZM256.828 62.3828V64.5469H258.578V65.3125H256.828V70.9453C256.828 71.4141 256.911 71.763 257.078 71.9922C257.25 72.2214 257.534 72.3359 257.93 72.3359C258.086 72.3359 258.339 72.3099 258.688 72.2578L258.727 73.0234C258.482 73.112 258.148 73.1562 257.727 73.1562C257.086 73.1562 256.62 72.9714 256.328 72.6016C256.036 72.2266 255.891 71.6771 255.891 70.9531V65.3125H254.336V64.5469H255.891V62.3828H256.828ZM263.789 73.1562C263.07 73.1562 262.419 72.9792 261.836 72.625C261.258 72.2708 260.807 71.7786 260.484 71.1484C260.161 70.513 260 69.8021 260 69.0156V68.6797C260 67.8672 260.156 67.1354 260.469 66.4844C260.786 65.8333 261.227 65.3229 261.789 64.9531C262.352 64.5781 262.961 64.3906 263.617 64.3906C264.643 64.3906 265.456 64.7422 266.055 65.4453C266.659 66.1432 266.961 67.099 266.961 68.3125V68.8359H260.93V69.0156C260.93 69.974 261.203 70.7734 261.75 71.4141C262.302 72.0495 262.995 72.3672 263.828 72.3672C264.328 72.3672 264.768 72.276 265.148 72.0938C265.534 71.9115 265.883 71.6198 266.195 71.2188L266.781 71.6641C266.094 72.6589 265.096 73.1562 263.789 73.1562ZM263.617 65.1875C262.914 65.1875 262.32 65.4453 261.836 65.9609C261.357 66.4766 261.065 67.1693 260.961 68.0391H266.031V67.9375C266.005 67.125 265.773 66.4635 265.336 65.9531C264.898 65.4427 264.326 65.1875 263.617 65.1875ZM273.844 70.8516C273.844 70.388 273.656 70.0156 273.281 69.7344C272.911 69.4531 272.352 69.2344 271.602 69.0781C270.852 68.9167 270.268 68.7344 269.852 68.5312C269.44 68.3229 269.133 68.0703 268.93 67.7734C268.732 67.4766 268.633 67.1172 268.633 66.6953C268.633 66.0286 268.911 65.4792 269.469 65.0469C270.026 64.6094 270.74 64.3906 271.609 64.3906C272.552 64.3906 273.307 64.625 273.875 65.0938C274.448 65.5573 274.734 66.1641 274.734 66.9141H273.797C273.797 66.4193 273.589 66.0078 273.172 65.6797C272.76 65.3516 272.24 65.1875 271.609 65.1875C270.995 65.1875 270.5 65.3255 270.125 65.6016C269.755 65.8724 269.57 66.2266 269.57 66.6641C269.57 67.0859 269.724 67.4141 270.031 67.6484C270.344 67.8776 270.909 68.0885 271.727 68.2812C272.549 68.474 273.164 68.6797 273.57 68.8984C273.982 69.1172 274.286 69.3802 274.484 69.6875C274.682 69.9948 274.781 70.3672 274.781 70.8047C274.781 71.5182 274.492 72.0885 273.914 72.5156C273.341 72.9427 272.591 73.1562 271.664 73.1562C270.68 73.1562 269.88 72.9193 269.266 72.4453C268.656 71.9661 268.352 71.362 268.352 70.6328H269.289C269.326 71.1797 269.555 71.6068 269.977 71.9141C270.404 72.2161 270.966 72.3672 271.664 72.3672C272.315 72.3672 272.841 72.224 273.242 71.9375C273.643 71.651 273.844 71.2891 273.844 70.8516Z" fill="black"/>
<path d="M75.3018 11.8623L75.4932 13.1748L75.7734 11.9922L77.7422 5.04688H78.8496L80.7705 11.9922L81.0439 13.1953L81.2559 11.8555L82.8008 5.04688H84.1201L81.707 15H80.5107L78.46 7.74707L78.3027 6.98828L78.1455 7.74707L76.0195 15H74.8232L72.417 5.04688H73.7295L75.3018 11.8623ZM84.8311 11.2334C84.8311 10.5088 84.9723 9.8571 85.2549 9.27832C85.542 8.69954 85.9385 8.25293 86.4443 7.93848C86.9548 7.62402 87.5358 7.4668 88.1875 7.4668C89.1947 7.4668 90.0081 7.81543 90.6279 8.5127C91.2523 9.20996 91.5645 10.1374 91.5645 11.2949V11.3838C91.5645 12.1038 91.4255 12.751 91.1475 13.3252C90.874 13.8949 90.4798 14.3392 89.9648 14.6582C89.4544 14.9772 88.8665 15.1367 88.2012 15.1367C87.1986 15.1367 86.3851 14.7881 85.7607 14.0908C85.141 13.3936 84.8311 12.4707 84.8311 11.3223V11.2334ZM86.1025 11.3838C86.1025 12.2041 86.2917 12.8626 86.6699 13.3594C87.0527 13.8561 87.5632 14.1045 88.2012 14.1045C88.8438 14.1045 89.3542 13.8538 89.7324 13.3525C90.1107 12.8467 90.2998 12.1403 90.2998 11.2334C90.2998 10.4222 90.1061 9.76595 89.7188 9.26465C89.3359 8.75879 88.8255 8.50586 88.1875 8.50586C87.5632 8.50586 87.0596 8.75423 86.6768 9.25098C86.2939 9.74772 86.1025 10.4587 86.1025 11.3838ZM96.7256 8.73828C96.5342 8.70638 96.3268 8.69043 96.1035 8.69043C95.2741 8.69043 94.7113 9.04362 94.415 9.75V15H93.1504V7.60352H94.3809L94.4014 8.45801C94.8161 7.7972 95.404 7.4668 96.165 7.4668C96.4111 7.4668 96.598 7.4987 96.7256 7.5625V8.73828ZM99.959 11.5752L99.166 12.4023V15H97.9014V4.5H99.166V10.8506L99.8428 10.0371L102.146 7.60352H103.685L100.807 10.6934L104.02 15H102.536L99.959 11.5752Z" fill="#808080"/>
<rect x="39" y="3" width="100" height="16" rx="8" fill="#FFE0B2"/>
<path d="M72.8506 6.04688L76.1045 14.168L79.3584 6.04688H81.0605V16H79.748V12.124L79.8711 7.94043L76.6035 16H75.5986L72.3379 7.96094L72.4678 12.124V16H71.1553V6.04688H72.8506ZM87.7461 15.2686C87.2539 15.8473 86.5316 16.1367 85.5791 16.1367C84.7907 16.1367 84.1891 15.9089 83.7744 15.4531C83.3643 14.9928 83.1569 14.3138 83.1523 13.416V8.60352H84.417V13.3818C84.417 14.5029 84.8727 15.0635 85.7842 15.0635C86.7503 15.0635 87.3929 14.7035 87.7119 13.9834V8.60352H88.9766V16H87.7734L87.7461 15.2686ZM95.2109 14.0381C95.2109 13.6963 95.0811 13.432 94.8213 13.2451C94.5661 13.0537 94.1172 12.8896 93.4746 12.7529C92.8366 12.6162 92.3285 12.4521 91.9502 12.2607C91.5765 12.0693 91.2985 11.8415 91.1162 11.5771C90.9385 11.3128 90.8496 10.9984 90.8496 10.6338C90.8496 10.0277 91.1048 9.51497 91.6152 9.0957C92.1302 8.67643 92.7865 8.4668 93.584 8.4668C94.4225 8.4668 95.1016 8.68327 95.6211 9.11621C96.1452 9.54915 96.4072 10.1029 96.4072 10.7773H95.1357C95.1357 10.431 94.9876 10.1325 94.6914 9.88184C94.3997 9.63118 94.0306 9.50586 93.584 9.50586C93.1237 9.50586 92.7637 9.60612 92.5039 9.80664C92.2441 10.0072 92.1143 10.2692 92.1143 10.5928C92.1143 10.8981 92.235 11.1283 92.4766 11.2832C92.7181 11.4382 93.1533 11.5863 93.7822 11.7275C94.4157 11.8688 94.9284 12.0374 95.3203 12.2334C95.7122 12.4294 96.0016 12.6663 96.1885 12.9443C96.3799 13.2178 96.4756 13.5527 96.4756 13.9492C96.4756 14.61 96.2113 15.141 95.6826 15.542C95.154 15.9385 94.4681 16.1367 93.625 16.1367C93.0326 16.1367 92.5085 16.0319 92.0527 15.8223C91.597 15.6126 91.2393 15.321 90.9795 14.9473C90.7243 14.569 90.5967 14.1611 90.5967 13.7236H91.8613C91.8841 14.1475 92.0527 14.4847 92.3672 14.7354C92.6862 14.9814 93.1055 15.1045 93.625 15.1045C94.1035 15.1045 94.4863 15.0088 94.7734 14.8174C95.0651 14.6214 95.2109 14.3617 95.2109 14.0381ZM99.4971 16H98.2324V8.60352H99.4971V16ZM98.1299 6.6416C98.1299 6.43652 98.1914 6.26335 98.3145 6.12207C98.4421 5.98079 98.6289 5.91016 98.875 5.91016C99.1211 5.91016 99.3079 5.98079 99.4355 6.12207C99.5632 6.26335 99.627 6.43652 99.627 6.6416C99.627 6.84668 99.5632 7.01758 99.4355 7.1543C99.3079 7.29102 99.1211 7.35938 98.875 7.35938C98.6289 7.35938 98.4421 7.29102 98.3145 7.1543C98.1914 7.01758 98.1299 6.84668 98.1299 6.6416ZM104.494 15.1045C104.945 15.1045 105.34 14.9678 105.677 14.6943C106.014 14.4209 106.201 14.0791 106.237 13.6689H107.434C107.411 14.0928 107.265 14.4961 106.996 14.8789C106.727 15.2617 106.367 15.5671 105.916 15.7949C105.469 16.0228 104.995 16.1367 104.494 16.1367C103.487 16.1367 102.685 15.8018 102.088 15.1318C101.495 14.4574 101.199 13.5368 101.199 12.3701V12.1582C101.199 11.4382 101.331 10.7979 101.596 10.2373C101.86 9.67676 102.238 9.24154 102.73 8.93164C103.227 8.62174 103.813 8.4668 104.487 8.4668C105.317 8.4668 106.005 8.71517 106.552 9.21191C107.103 9.70866 107.397 10.3535 107.434 11.1465H106.237C106.201 10.668 106.019 10.276 105.69 9.9707C105.367 9.66081 104.966 9.50586 104.487 9.50586C103.845 9.50586 103.346 9.73828 102.99 10.2031C102.639 10.6634 102.464 11.3311 102.464 12.2061V12.4453C102.464 13.2975 102.639 13.9538 102.99 14.4141C103.341 14.8743 103.842 15.1045 104.494 15.1045Z" fill="#808080"/>
<defs>
<filter id="filter0_d_3447_263" x="0" y="0" width="358" height="117" filterUnits="userSpaceOnUse" color-interpolation-filters="sRGB">
<feFlood flood-opacity="0" result="BackgroundImageFix"/>
<feColorMatrix in="SourceAlpha" type="matrix" values="0 0 0 0 0 0 0 0 0 0 0 0 0 0 0 0 0 0 127 0" result="hardAlpha"/>
<feOffset dx="1" dy="1"/>
<feGaussianBlur stdDeviation="2"/>
<feColorMatrix type="matrix" values="0 0 0 0 0 0 0 0 0 0 0 0 0 0 0 0 0 0 0.25 0"/>
<feBlend mode="normal" in2="BackgroundImageFix" result="effect1_dropShadow_3447_263"/>
<feBlend mode="normal" in="SourceGraphic" in2="effect1_dropShadow_3447_263" result="shape"/>
</filter>
</defs>
</svg>
