<svg width="358" height="136" viewBox="0 0 358 136" fill="none" xmlns="http://www.w3.org/2000/svg">
<g filter="url(#filter0_d_3447_274)">
<rect x="3" y="3" width="350" height="128" rx="20" fill="#FFD0F3"/>
</g>
<path fill-rule="evenodd" clip-rule="evenodd" d="M23 3.00003C11.9543 3.00003 3 11.9543 3 23V111C3 122.046 11.9543 131 23 131V3.00003Z" fill="#AFAFAF" fill-opacity="0.3"/>
<path d="M48.5117 40.2832H51.4316C51.373 41.2402 51.1094 42.0898 50.6406 42.832C50.1784 43.5742 49.5306 44.1536 48.6973 44.5703C47.8704 44.987 46.8743 45.1953 45.709 45.1953C44.7975 45.1953 43.9805 45.0391 43.2578 44.7266C42.5352 44.4076 41.9167 43.9518 41.4023 43.3594C40.8945 42.7669 40.5072 42.0508 40.2402 41.2109C39.9733 40.3711 39.8398 39.4303 39.8398 38.3887V37.4023C39.8398 36.3607 39.9766 35.4199 40.25 34.5801C40.5299 33.7337 40.9271 33.0143 41.4414 32.4219C41.9622 31.8294 42.584 31.3737 43.3066 31.0547C44.0293 30.7357 44.8366 30.5762 45.7285 30.5762C46.9134 30.5762 47.9128 30.791 48.7266 31.2207C49.5469 31.6504 50.1816 32.2428 50.6309 32.998C51.0866 33.7533 51.36 34.6126 51.4512 35.5762H48.5215C48.4889 35.0033 48.375 34.5182 48.1797 34.1211C47.9844 33.7174 47.6882 33.4147 47.291 33.2129C46.9004 33.0046 46.3796 32.9004 45.7285 32.9004C45.2402 32.9004 44.8138 32.9915 44.4492 33.1738C44.0846 33.3561 43.7786 33.6328 43.5312 34.0039C43.2839 34.375 43.0983 34.8438 42.9746 35.4102C42.8574 35.9701 42.7988 36.6276 42.7988 37.3828V38.3887C42.7988 39.1243 42.8542 39.7721 42.9648 40.332C43.0755 40.8854 43.2448 41.3542 43.4727 41.7383C43.707 42.1159 44.0065 42.4023 44.3711 42.5977C44.7422 42.7865 45.1882 42.8809 45.709 42.8809C46.321 42.8809 46.8255 42.7832 47.2227 42.5879C47.6198 42.3926 47.9225 42.1029 48.1309 41.7188C48.3457 41.3346 48.4727 40.8561 48.5117 40.2832ZM55.9922 36.7383V45H53.1797V34.4336H55.8262L55.9922 36.7383ZM59.1758 34.3652L59.127 36.9727C58.9902 36.9531 58.8242 36.9368 58.6289 36.9238C58.4401 36.9043 58.2676 36.8945 58.1113 36.8945C57.7142 36.8945 57.3691 36.9466 57.0762 37.0508C56.7897 37.1484 56.5488 37.2949 56.3535 37.4902C56.1647 37.6855 56.0215 37.9232 55.9238 38.2031C55.8327 38.4831 55.7806 38.8021 55.7676 39.1602L55.2012 38.9844C55.2012 38.3008 55.2695 37.6725 55.4062 37.0996C55.543 36.5202 55.7415 36.0156 56.002 35.5859C56.2689 35.1562 56.5944 34.8242 56.9785 34.5898C57.3626 34.3555 57.8021 34.2383 58.2969 34.2383C58.4531 34.2383 58.6126 34.2513 58.7754 34.2773C58.9382 34.2969 59.0716 34.3262 59.1758 34.3652ZM65.1719 45.1953C64.3516 45.1953 63.6159 45.0651 62.9648 44.8047C62.3138 44.5378 61.7604 44.1699 61.3047 43.7012C60.8555 43.2324 60.5104 42.6888 60.2695 42.0703C60.0286 41.4453 59.9082 40.7812 59.9082 40.0781V39.6875C59.9082 38.8867 60.0221 38.1543 60.25 37.4902C60.4779 36.8262 60.8034 36.25 61.2266 35.7617C61.6562 35.2734 62.1771 34.8991 62.7891 34.6387C63.401 34.3717 64.0911 34.2383 64.8594 34.2383C65.6081 34.2383 66.2721 34.362 66.8516 34.6094C67.431 34.8568 67.916 35.2083 68.3066 35.6641C68.7038 36.1198 69.0033 36.6667 69.2051 37.3047C69.4069 37.9362 69.5078 38.6393 69.5078 39.4141V40.5859H61.1094V38.7109H66.7441V38.4961C66.7441 38.1055 66.6725 37.7572 66.5293 37.4512C66.3926 37.1387 66.1842 36.8913 65.9043 36.709C65.6243 36.5267 65.2663 36.4355 64.8301 36.4355C64.459 36.4355 64.14 36.5169 63.873 36.6797C63.6061 36.8424 63.388 37.0703 63.2188 37.3633C63.056 37.6562 62.9323 38.0013 62.8477 38.3984C62.7695 38.7891 62.7305 39.2188 62.7305 39.6875V40.0781C62.7305 40.5013 62.7891 40.8919 62.9062 41.25C63.0299 41.6081 63.2025 41.9173 63.4238 42.1777C63.6517 42.4382 63.9251 42.64 64.2441 42.7832C64.5697 42.9264 64.9375 42.998 65.3477 42.998C65.8555 42.998 66.3275 42.9004 66.7637 42.7051C67.2064 42.5033 67.5872 42.2005 67.9062 41.7969L69.2734 43.2812C69.0521 43.6003 68.7493 43.9062 68.3652 44.1992C67.9876 44.4922 67.5319 44.7331 66.998 44.9219C66.4642 45.1042 65.8555 45.1953 65.1719 45.1953ZM76.8125 42.6172V37.9102C76.8125 37.5716 76.7572 37.2819 76.6465 37.041C76.5358 36.7936 76.3633 36.6016 76.1289 36.4648C75.901 36.3281 75.6048 36.2598 75.2402 36.2598C74.9277 36.2598 74.6576 36.3151 74.4297 36.4258C74.2018 36.5299 74.026 36.6829 73.9023 36.8848C73.7786 37.0801 73.7168 37.3112 73.7168 37.5781H70.9043C70.9043 37.1289 71.0085 36.7025 71.2168 36.2988C71.4251 35.8952 71.7279 35.5404 72.125 35.2344C72.5221 34.9219 72.9941 34.6777 73.541 34.502C74.0944 34.3262 74.7129 34.2383 75.3965 34.2383C76.2168 34.2383 76.946 34.375 77.584 34.6484C78.222 34.9219 78.7233 35.332 79.0879 35.8789C79.459 36.4258 79.6445 37.1094 79.6445 37.9297V42.4512C79.6445 43.0306 79.6803 43.5059 79.752 43.877C79.8236 44.2415 79.9277 44.5605 80.0645 44.834V45H77.2227C77.0859 44.7135 76.9818 44.3555 76.9102 43.9258C76.8451 43.4896 76.8125 43.0534 76.8125 42.6172ZM77.1836 38.5645L77.2031 40.1562H75.6309C75.2598 40.1562 74.9375 40.1986 74.6641 40.2832C74.3906 40.3678 74.166 40.4883 73.9902 40.6445C73.8145 40.7943 73.6842 40.9701 73.5996 41.1719C73.5215 41.3737 73.4824 41.5951 73.4824 41.8359C73.4824 42.0768 73.5378 42.2949 73.6484 42.4902C73.7591 42.679 73.9186 42.8288 74.127 42.9395C74.3353 43.0436 74.5794 43.0957 74.8594 43.0957C75.2826 43.0957 75.6504 43.0111 75.9629 42.8418C76.2754 42.6725 76.5163 42.4642 76.6855 42.2168C76.8613 41.9694 76.9525 41.735 76.959 41.5137L77.7012 42.7051C77.597 42.972 77.4538 43.2487 77.2715 43.5352C77.0957 43.8216 76.8711 44.0918 76.5977 44.3457C76.3242 44.5931 75.9954 44.7982 75.6113 44.9609C75.2272 45.1172 74.7715 45.1953 74.2441 45.1953C73.5736 45.1953 72.9648 45.0618 72.418 44.7949C71.8776 44.5215 71.4479 44.1471 71.1289 43.6719C70.8164 43.1901 70.6602 42.6432 70.6602 42.0312C70.6602 41.4779 70.7643 40.9863 70.9727 40.5566C71.181 40.127 71.487 39.7656 71.8906 39.4727C72.3008 39.1732 72.8118 38.9486 73.4238 38.7988C74.0358 38.6426 74.7454 38.5645 75.5527 38.5645H77.1836ZM86.9883 34.4336V36.4258H80.8359V34.4336H86.9883ZM82.3594 31.8262H85.1719V41.8164C85.1719 42.1224 85.2109 42.3568 85.2891 42.5195C85.3737 42.6823 85.4974 42.7962 85.6602 42.8613C85.8229 42.9199 86.028 42.9492 86.2754 42.9492C86.4512 42.9492 86.6074 42.9427 86.7441 42.9297C86.8874 42.9102 87.0078 42.8906 87.1055 42.8711L87.1152 44.9414C86.8743 45.0195 86.6139 45.0814 86.334 45.127C86.054 45.1725 85.7448 45.1953 85.4062 45.1953C84.7878 45.1953 84.2474 45.0944 83.7852 44.8926C83.3294 44.6842 82.9779 44.3522 82.7305 43.8965C82.4831 43.4408 82.3594 42.8418 82.3594 42.0996V31.8262ZM93.4531 45.1953C92.6328 45.1953 91.8971 45.0651 91.2461 44.8047C90.5951 44.5378 90.0417 44.1699 89.5859 43.7012C89.1367 43.2324 88.7917 42.6888 88.5508 42.0703C88.3099 41.4453 88.1895 40.7812 88.1895 40.0781V39.6875C88.1895 38.8867 88.3034 38.1543 88.5312 37.4902C88.7591 36.8262 89.0846 36.25 89.5078 35.7617C89.9375 35.2734 90.4583 34.8991 91.0703 34.6387C91.6823 34.3717 92.3724 34.2383 93.1406 34.2383C93.8893 34.2383 94.5534 34.362 95.1328 34.6094C95.7122 34.8568 96.1973 35.2083 96.5879 35.6641C96.985 36.1198 97.2845 36.6667 97.4863 37.3047C97.6882 37.9362 97.7891 38.6393 97.7891 39.4141V40.5859H89.3906V38.7109H95.0254V38.4961C95.0254 38.1055 94.9538 37.7572 94.8105 37.4512C94.6738 37.1387 94.4655 36.8913 94.1855 36.709C93.9056 36.5267 93.5475 36.4355 93.1113 36.4355C92.7402 36.4355 92.4212 36.5169 92.1543 36.6797C91.8874 36.8424 91.6693 37.0703 91.5 37.3633C91.3372 37.6562 91.2135 38.0013 91.1289 38.3984C91.0508 38.7891 91.0117 39.2188 91.0117 39.6875V40.0781C91.0117 40.5013 91.0703 40.8919 91.1875 41.25C91.3112 41.6081 91.4837 41.9173 91.7051 42.1777C91.9329 42.4382 92.2064 42.64 92.5254 42.7832C92.8509 42.9264 93.2188 42.998 93.6289 42.998C94.1367 42.998 94.6087 42.9004 95.0449 42.7051C95.4876 42.5033 95.8685 42.2005 96.1875 41.7969L97.5547 43.2812C97.3333 43.6003 97.0306 43.9062 96.6465 44.1992C96.2689 44.4922 95.8132 44.7331 95.2793 44.9219C94.7454 45.1042 94.1367 45.1953 93.4531 45.1953ZM107.184 36.4648V49.0625H104.371V34.4336H106.979L107.184 36.4648ZM113.873 39.5996V39.8047C113.873 40.5729 113.782 41.2858 113.6 41.9434C113.424 42.6009 113.163 43.1738 112.818 43.6621C112.473 44.1439 112.044 44.5215 111.529 44.7949C111.021 45.0618 110.436 45.1953 109.771 45.1953C109.127 45.1953 108.567 45.0651 108.092 44.8047C107.617 44.5443 107.216 44.1797 106.891 43.7109C106.572 43.2357 106.314 42.6855 106.119 42.0605C105.924 41.4355 105.774 40.765 105.67 40.0488V39.5117C105.774 38.7435 105.924 38.0404 106.119 37.4023C106.314 36.7578 106.572 36.2012 106.891 35.7324C107.216 35.2572 107.613 34.8893 108.082 34.6289C108.557 34.3685 109.114 34.2383 109.752 34.2383C110.423 34.2383 111.012 34.3652 111.52 34.6191C112.034 34.873 112.464 35.2376 112.809 35.7129C113.16 36.1882 113.424 36.7546 113.6 37.4121C113.782 38.0697 113.873 38.7988 113.873 39.5996ZM111.051 39.8047V39.5996C111.051 39.1504 111.012 38.737 110.934 38.3594C110.862 37.9753 110.745 37.64 110.582 37.3535C110.426 37.0671 110.217 36.8457 109.957 36.6895C109.703 36.5267 109.394 36.4453 109.029 36.4453C108.645 36.4453 108.316 36.5072 108.043 36.6309C107.776 36.7546 107.558 36.9336 107.389 37.168C107.219 37.4023 107.092 37.6823 107.008 38.0078C106.923 38.3333 106.871 38.7012 106.852 39.1113V40.4688C106.884 40.9505 106.975 41.3835 107.125 41.7676C107.275 42.1452 107.506 42.4447 107.818 42.666C108.131 42.8874 108.541 42.998 109.049 42.998C109.42 42.998 109.732 42.9167 109.986 42.7539C110.24 42.5846 110.445 42.3535 110.602 42.0605C110.764 41.7676 110.878 41.429 110.943 41.0449C111.015 40.6608 111.051 40.2474 111.051 39.8047ZM118.59 30V45H115.768V30H118.59ZM126.617 42.6172V37.9102C126.617 37.5716 126.562 37.2819 126.451 37.041C126.34 36.7936 126.168 36.6016 125.934 36.4648C125.706 36.3281 125.41 36.2598 125.045 36.2598C124.732 36.2598 124.462 36.3151 124.234 36.4258C124.007 36.5299 123.831 36.6829 123.707 36.8848C123.583 37.0801 123.521 37.3112 123.521 37.5781H120.709C120.709 37.1289 120.813 36.7025 121.021 36.2988C121.23 35.8952 121.533 35.5404 121.93 35.2344C122.327 34.9219 122.799 34.6777 123.346 34.502C123.899 34.3262 124.518 34.2383 125.201 34.2383C126.021 34.2383 126.751 34.375 127.389 34.6484C128.027 34.9219 128.528 35.332 128.893 35.8789C129.264 36.4258 129.449 37.1094 129.449 37.9297V42.4512C129.449 43.0306 129.485 43.5059 129.557 43.877C129.628 44.2415 129.732 44.5605 129.869 44.834V45H127.027C126.891 44.7135 126.786 44.3555 126.715 43.9258C126.65 43.4896 126.617 43.0534 126.617 42.6172ZM126.988 38.5645L127.008 40.1562H125.436C125.064 40.1562 124.742 40.1986 124.469 40.2832C124.195 40.3678 123.971 40.4883 123.795 40.6445C123.619 40.7943 123.489 40.9701 123.404 41.1719C123.326 41.3737 123.287 41.5951 123.287 41.8359C123.287 42.0768 123.342 42.2949 123.453 42.4902C123.564 42.679 123.723 42.8288 123.932 42.9395C124.14 43.0436 124.384 43.0957 124.664 43.0957C125.087 43.0957 125.455 43.0111 125.768 42.8418C126.08 42.6725 126.321 42.4642 126.49 42.2168C126.666 41.9694 126.757 41.735 126.764 41.5137L127.506 42.7051C127.402 42.972 127.258 43.2487 127.076 43.5352C126.9 43.8216 126.676 44.0918 126.402 44.3457C126.129 44.5931 125.8 44.7982 125.416 44.9609C125.032 45.1172 124.576 45.1953 124.049 45.1953C123.378 45.1953 122.77 45.0618 122.223 44.7949C121.682 44.5215 121.253 44.1471 120.934 43.6719C120.621 43.1901 120.465 42.6432 120.465 42.0312C120.465 41.4779 120.569 40.9863 120.777 40.5566C120.986 40.127 121.292 39.7656 121.695 39.4727C122.105 39.1732 122.617 38.9486 123.229 38.7988C123.84 38.6426 124.55 38.5645 125.357 38.5645H126.988ZM134.596 43.8086L137.398 34.4336H140.416L136.168 46.5918C136.077 46.8587 135.953 47.1452 135.797 47.4512C135.647 47.7572 135.442 48.0469 135.182 48.3203C134.928 48.6003 134.605 48.8281 134.215 49.0039C133.831 49.1797 133.359 49.2676 132.799 49.2676C132.532 49.2676 132.314 49.2513 132.145 49.2188C131.975 49.1862 131.773 49.1406 131.539 49.082V47.0215C131.611 47.0215 131.686 47.0215 131.764 47.0215C131.842 47.028 131.917 47.0312 131.988 47.0312C132.359 47.0312 132.662 46.9889 132.896 46.9043C133.131 46.8197 133.32 46.6895 133.463 46.5137C133.606 46.3444 133.72 46.123 133.805 45.8496L134.596 43.8086ZM133.424 34.4336L135.719 42.0898L136.119 45.0684L134.205 45.2734L130.406 34.4336H133.424ZM144.508 30V45H141.686V30H144.508ZM149.801 34.4336V45H146.979V34.4336H149.801ZM146.803 31.6797C146.803 31.2695 146.946 30.931 147.232 30.6641C147.519 30.3971 147.903 30.2637 148.385 30.2637C148.86 30.2637 149.241 30.3971 149.527 30.6641C149.82 30.931 149.967 31.2695 149.967 31.6797C149.967 32.0898 149.82 32.4284 149.527 32.6953C149.241 32.9622 148.86 33.0957 148.385 33.0957C147.903 33.0957 147.519 32.9622 147.232 32.6953C146.946 32.4284 146.803 32.0898 146.803 31.6797ZM157.838 42.0801C157.838 41.8783 157.779 41.696 157.662 41.5332C157.545 41.3704 157.327 41.2207 157.008 41.084C156.695 40.9408 156.243 40.8105 155.65 40.6934C155.117 40.5762 154.618 40.4297 154.156 40.2539C153.701 40.0716 153.303 39.8535 152.965 39.5996C152.633 39.3457 152.372 39.0462 152.184 38.7012C151.995 38.3496 151.9 37.9492 151.9 37.5C151.9 37.0573 151.995 36.6406 152.184 36.25C152.379 35.8594 152.656 35.5143 153.014 35.2148C153.378 34.9089 153.821 34.6712 154.342 34.502C154.869 34.3262 155.462 34.2383 156.119 34.2383C157.037 34.2383 157.825 34.3848 158.482 34.6777C159.146 34.9707 159.654 35.3743 160.006 35.8887C160.364 36.3965 160.543 36.9759 160.543 37.627H157.73C157.73 37.3535 157.672 37.1094 157.555 36.8945C157.444 36.6732 157.268 36.5007 157.027 36.377C156.793 36.2467 156.487 36.1816 156.109 36.1816C155.797 36.1816 155.527 36.237 155.299 36.3477C155.071 36.4518 154.895 36.5951 154.771 36.7773C154.654 36.9531 154.596 37.1484 154.596 37.3633C154.596 37.526 154.628 37.6725 154.693 37.8027C154.765 37.9264 154.879 38.0404 155.035 38.1445C155.191 38.2487 155.393 38.3464 155.641 38.4375C155.895 38.5221 156.207 38.6003 156.578 38.6719C157.34 38.8281 158.02 39.0332 158.619 39.2871C159.218 39.5345 159.693 39.873 160.045 40.3027C160.396 40.7259 160.572 41.2826 160.572 41.9727C160.572 42.4414 160.468 42.8711 160.26 43.2617C160.051 43.6523 159.752 43.9941 159.361 44.2871C158.971 44.5736 158.502 44.7982 157.955 44.9609C157.415 45.1172 156.806 45.1953 156.129 45.1953C155.146 45.1953 154.312 45.0195 153.629 44.668C152.952 44.3164 152.438 43.8704 152.086 43.3301C151.741 42.7832 151.568 42.2233 151.568 41.6504H154.234C154.247 42.0345 154.345 42.3438 154.527 42.5781C154.716 42.8125 154.954 42.9818 155.24 43.0859C155.533 43.1901 155.849 43.2422 156.188 43.2422C156.552 43.2422 156.855 43.1934 157.096 43.0957C157.337 42.9915 157.519 42.8548 157.643 42.6855C157.773 42.5098 157.838 42.3079 157.838 42.0801ZM167.574 34.4336V36.4258H161.422V34.4336H167.574ZM162.945 31.8262H165.758V41.8164C165.758 42.1224 165.797 42.3568 165.875 42.5195C165.96 42.6823 166.083 42.7962 166.246 42.8613C166.409 42.9199 166.614 42.9492 166.861 42.9492C167.037 42.9492 167.193 42.9427 167.33 42.9297C167.473 42.9102 167.594 42.8906 167.691 42.8711L167.701 44.9414C167.46 45.0195 167.2 45.0814 166.92 45.127C166.64 45.1725 166.331 45.1953 165.992 45.1953C165.374 45.1953 164.833 45.0944 164.371 44.8926C163.915 44.6842 163.564 44.3522 163.316 43.8965C163.069 43.4408 162.945 42.8418 162.945 42.0996V31.8262ZM174.889 42.0801C174.889 41.8783 174.83 41.696 174.713 41.5332C174.596 41.3704 174.378 41.2207 174.059 41.084C173.746 40.9408 173.294 40.8105 172.701 40.6934C172.167 40.5762 171.669 40.4297 171.207 40.2539C170.751 40.0716 170.354 39.8535 170.016 39.5996C169.684 39.3457 169.423 39.0462 169.234 38.7012C169.046 38.3496 168.951 37.9492 168.951 37.5C168.951 37.0573 169.046 36.6406 169.234 36.25C169.43 35.8594 169.706 35.5143 170.064 35.2148C170.429 34.9089 170.872 34.6712 171.393 34.502C171.92 34.3262 172.512 34.2383 173.17 34.2383C174.088 34.2383 174.876 34.3848 175.533 34.6777C176.197 34.9707 176.705 35.3743 177.057 35.8887C177.415 36.3965 177.594 36.9759 177.594 37.627H174.781C174.781 37.3535 174.723 37.1094 174.605 36.8945C174.495 36.6732 174.319 36.5007 174.078 36.377C173.844 36.2467 173.538 36.1816 173.16 36.1816C172.848 36.1816 172.577 36.237 172.35 36.3477C172.122 36.4518 171.946 36.5951 171.822 36.7773C171.705 36.9531 171.646 37.1484 171.646 37.3633C171.646 37.526 171.679 37.6725 171.744 37.8027C171.816 37.9264 171.93 38.0404 172.086 38.1445C172.242 38.2487 172.444 38.3464 172.691 38.4375C172.945 38.5221 173.258 38.6003 173.629 38.6719C174.391 38.8281 175.071 39.0332 175.67 39.2871C176.269 39.5345 176.744 39.873 177.096 40.3027C177.447 40.7259 177.623 41.2826 177.623 41.9727C177.623 42.4414 177.519 42.8711 177.311 43.2617C177.102 43.6523 176.803 43.9941 176.412 44.2871C176.021 44.5736 175.553 44.7982 175.006 44.9609C174.465 45.1172 173.857 45.1953 173.18 45.1953C172.197 45.1953 171.363 45.0195 170.68 44.668C170.003 44.3164 169.488 43.8704 169.137 43.3301C168.792 42.7832 168.619 42.2233 168.619 41.6504H171.285C171.298 42.0345 171.396 42.3438 171.578 42.5781C171.767 42.8125 172.005 42.9818 172.291 43.0859C172.584 43.1901 172.9 43.2422 173.238 43.2422C173.603 43.2422 173.906 43.1934 174.146 43.0957C174.387 42.9915 174.57 42.8548 174.693 42.6855C174.824 42.5098 174.889 42.3079 174.889 42.0801Z" fill="black"/>
<path d="M47.5312 69.4531H48.4922C48.4141 70.2188 48.2031 70.8802 47.8594 71.4375C47.5156 71.9896 47.0469 72.4141 46.4531 72.7109C45.8594 73.0078 45.1432 73.1562 44.3047 73.1562C43.6589 73.1562 43.0729 73.0339 42.5469 72.7891C42.026 72.5443 41.5781 72.1979 41.2031 71.75C40.8281 71.2969 40.5391 70.7552 40.3359 70.125C40.1328 69.4948 40.0312 68.7943 40.0312 68.0234V66.6016C40.0312 65.8307 40.1328 65.1328 40.3359 64.5078C40.5391 63.8776 40.8307 63.3359 41.2109 62.8828C41.5911 62.4297 42.0469 62.0807 42.5781 61.8359C43.1094 61.5911 43.7083 61.4688 44.375 61.4688C45.1823 61.4688 45.8802 61.6172 46.4688 61.9141C47.0573 62.2057 47.5208 62.6276 47.8594 63.1797C48.2031 63.7318 48.4141 64.3984 48.4922 65.1797H47.5312C47.4583 64.5651 47.2969 64.0443 47.0469 63.6172C46.7969 63.1901 46.4505 62.8646 46.0078 62.6406C45.5703 62.4115 45.026 62.2969 44.375 62.2969C43.8438 62.2969 43.3698 62.3984 42.9531 62.6016C42.5365 62.8047 42.1823 63.0964 41.8906 63.4766C41.599 63.8516 41.375 64.3021 41.2188 64.8281C41.0677 65.3542 40.9922 65.9401 40.9922 66.5859V68.0234C40.9922 68.6484 41.0651 69.224 41.2109 69.75C41.3568 70.276 41.5703 70.7318 41.8516 71.1172C42.138 71.5026 42.487 71.8021 42.8984 72.0156C43.3099 72.2292 43.7786 72.3359 44.3047 72.3359C44.9766 72.3359 45.5365 72.2292 45.9844 72.0156C46.4375 71.7969 46.7891 71.474 47.0391 71.0469C47.2891 70.6198 47.4531 70.0885 47.5312 69.4531ZM51.5469 65.9453V73H50.6172V64.5469H51.5234L51.5469 65.9453ZM54.5391 64.4844L54.5156 65.3438C54.4115 65.3281 54.3099 65.3151 54.2109 65.3047C54.112 65.2943 54.0052 65.2891 53.8906 65.2891C53.4844 65.2891 53.1276 65.3646 52.8203 65.5156C52.5182 65.6615 52.263 65.8672 52.0547 66.1328C51.8464 66.3932 51.6875 66.7005 51.5781 67.0547C51.4688 67.4036 51.4062 67.7786 51.3906 68.1797L51.0469 68.3125C51.0469 67.7604 51.1042 67.2474 51.2188 66.7734C51.3333 66.2995 51.5078 65.8854 51.7422 65.5312C51.9818 65.1719 52.2812 64.8932 52.6406 64.6953C53.0052 64.4922 53.4323 64.3906 53.9219 64.3906C54.0417 64.3906 54.1589 64.401 54.2734 64.4219C54.3932 64.4375 54.4818 64.4583 54.5391 64.4844ZM59.1172 73.1562C58.5651 73.1562 58.0573 73.0547 57.5938 72.8516C57.1354 72.6484 56.7344 72.362 56.3906 71.9922C56.0521 71.6224 55.7891 71.1849 55.6016 70.6797C55.4193 70.1693 55.3281 69.612 55.3281 69.0078V68.6719C55.3281 68.0208 55.4245 67.4323 55.6172 66.9062C55.8099 66.3802 56.0755 65.9297 56.4141 65.5547C56.7526 65.1797 57.138 64.8932 57.5703 64.6953C58.0078 64.4922 58.4661 64.3906 58.9453 64.3906C59.4818 64.3906 59.9583 64.487 60.375 64.6797C60.7917 64.8672 61.1406 65.1354 61.4219 65.4844C61.7083 65.8281 61.9245 66.237 62.0703 66.7109C62.2161 67.1797 62.2891 67.6979 62.2891 68.2656V68.8359H55.8906V68.0391H61.3594V67.9297C61.349 67.4557 61.2526 67.013 61.0703 66.6016C60.8932 66.1849 60.6276 65.8464 60.2734 65.5859C59.9193 65.3255 59.4766 65.1953 58.9453 65.1953C58.5495 65.1953 58.1849 65.2786 57.8516 65.4453C57.5234 65.612 57.2396 65.8516 57 66.1641C56.7656 66.4714 56.5833 66.8385 56.4531 67.2656C56.3281 67.6875 56.2656 68.1562 56.2656 68.6719V69.0078C56.2656 69.4766 56.3333 69.9141 56.4688 70.3203C56.6094 70.7214 56.8073 71.0755 57.0625 71.3828C57.3229 71.6901 57.6302 71.9297 57.9844 72.1016C58.3385 72.2734 58.7292 72.3594 59.1562 72.3594C59.6562 72.3594 60.099 72.2682 60.4844 72.0859C60.8698 71.8984 61.2161 71.6042 61.5234 71.2031L62.1094 71.6562C61.9271 71.9271 61.6979 72.1771 61.4219 72.4062C61.151 72.6354 60.8255 72.8177 60.4453 72.9531C60.0651 73.0885 59.6224 73.1562 59.1172 73.1562ZM69.2734 71.4844V67.125C69.2734 66.724 69.1901 66.3776 69.0234 66.0859C68.8568 65.7943 68.612 65.5703 68.2891 65.4141C67.9661 65.2578 67.5677 65.1797 67.0938 65.1797C66.6562 65.1797 66.2656 65.2578 65.9219 65.4141C65.5833 65.5651 65.3151 65.7708 65.1172 66.0312C64.9245 66.2865 64.8281 66.5703 64.8281 66.8828L63.8906 66.875C63.8906 66.5573 63.9688 66.25 64.125 65.9531C64.2812 65.6562 64.5026 65.3906 64.7891 65.1562C65.0755 64.9219 65.4167 64.737 65.8125 64.6016C66.2135 64.4609 66.6536 64.3906 67.1328 64.3906C67.737 64.3906 68.2682 64.4922 68.7266 64.6953C69.1901 64.8984 69.5521 65.2031 69.8125 65.6094C70.0729 66.0156 70.2031 66.526 70.2031 67.1406V71.2266C70.2031 71.5182 70.224 71.8203 70.2656 72.1328C70.3125 72.4453 70.3776 72.7031 70.4609 72.9062V73H69.4688C69.4062 72.8125 69.3568 72.5781 69.3203 72.2969C69.2891 72.0104 69.2734 71.7396 69.2734 71.4844ZM69.4922 68.0781L69.5078 68.7969H67.6719C67.1927 68.7969 66.763 68.8411 66.3828 68.9297C66.0078 69.013 65.6901 69.138 65.4297 69.3047C65.1693 69.4661 64.9688 69.6615 64.8281 69.8906C64.6927 70.1198 64.625 70.3802 64.625 70.6719C64.625 70.974 64.7005 71.25 64.8516 71.5C65.0078 71.75 65.2266 71.9505 65.5078 72.1016C65.7943 72.2474 66.1328 72.3203 66.5234 72.3203C67.0443 72.3203 67.5026 72.224 67.8984 72.0312C68.2995 71.8385 68.6302 71.5859 68.8906 71.2734C69.151 70.9609 69.3255 70.6198 69.4141 70.25L69.8203 70.7891C69.7526 71.0495 69.6276 71.3177 69.4453 71.5938C69.2682 71.8646 69.0365 72.1198 68.75 72.3594C68.4635 72.5938 68.125 72.7865 67.7344 72.9375C67.349 73.0833 66.9115 73.1562 66.4219 73.1562C65.8698 73.1562 65.388 73.0521 64.9766 72.8438C64.5703 72.6354 64.2526 72.3516 64.0234 71.9922C63.7995 71.6276 63.6875 71.2161 63.6875 70.7578C63.6875 70.3411 63.776 69.9688 63.9531 69.6406C64.1302 69.3073 64.3854 69.026 64.7188 68.7969C65.0573 68.5625 65.4635 68.3854 65.9375 68.2656C66.4167 68.1406 66.9531 68.0781 67.5469 68.0781H69.4922ZM75.9062 64.5469V65.3125H71.6719V64.5469H75.9062ZM73.2266 62.375H74.1562V70.9453C74.1562 71.3359 74.2083 71.6302 74.3125 71.8281C74.4167 72.026 74.5521 72.1589 74.7188 72.2266C74.8854 72.2943 75.0651 72.3281 75.2578 72.3281C75.3984 72.3281 75.5339 72.3203 75.6641 72.3047C75.7943 72.2839 75.9115 72.263 76.0156 72.2422L76.0547 73.0312C75.9401 73.0677 75.7917 73.0964 75.6094 73.1172C75.4271 73.1432 75.2448 73.1562 75.0625 73.1562C74.7031 73.1562 74.3854 73.0911 74.1094 72.9609C73.8333 72.8255 73.6172 72.5964 73.4609 72.2734C73.3047 71.9453 73.2266 71.5 73.2266 70.9375V62.375ZM81.1328 73.1562C80.5807 73.1562 80.0729 73.0547 79.6094 72.8516C79.151 72.6484 78.75 72.362 78.4062 71.9922C78.0677 71.6224 77.8047 71.1849 77.6172 70.6797C77.4349 70.1693 77.3438 69.612 77.3438 69.0078V68.6719C77.3438 68.0208 77.4401 67.4323 77.6328 66.9062C77.8255 66.3802 78.0911 65.9297 78.4297 65.5547C78.7682 65.1797 79.1536 64.8932 79.5859 64.6953C80.0234 64.4922 80.4818 64.3906 80.9609 64.3906C81.4974 64.3906 81.974 64.487 82.3906 64.6797C82.8073 64.8672 83.1562 65.1354 83.4375 65.4844C83.724 65.8281 83.9401 66.237 84.0859 66.7109C84.2318 67.1797 84.3047 67.6979 84.3047 68.2656V68.8359H77.9062V68.0391H83.375V67.9297C83.3646 67.4557 83.2682 67.013 83.0859 66.6016C82.9089 66.1849 82.6432 65.8464 82.2891 65.5859C81.9349 65.3255 81.4922 65.1953 80.9609 65.1953C80.5651 65.1953 80.2005 65.2786 79.8672 65.4453C79.5391 65.612 79.2552 65.8516 79.0156 66.1641C78.7812 66.4714 78.599 66.8385 78.4688 67.2656C78.3438 67.6875 78.2812 68.1562 78.2812 68.6719V69.0078C78.2812 69.4766 78.349 69.9141 78.4844 70.3203C78.625 70.7214 78.8229 71.0755 79.0781 71.3828C79.3385 71.6901 79.6458 71.9297 80 72.1016C80.3542 72.2734 80.7448 72.3594 81.1719 72.3594C81.6719 72.3594 82.1146 72.2682 82.5 72.0859C82.8854 71.8984 83.2318 71.6042 83.5391 71.2031L84.125 71.6562C83.9427 71.9271 83.7135 72.1771 83.4375 72.4062C83.1667 72.6354 82.8411 72.8177 82.4609 72.9531C82.0807 73.0885 81.638 73.1562 81.1328 73.1562ZM92.5469 72.1016L95.2578 64.5469H96.2188L93.0547 73H92.375L92.5469 72.1016ZM90.0938 64.5469L92.8359 72.125L92.9844 73H92.2969L89.125 64.5469H90.0938ZM98.7969 64.5469V73H97.8672V64.5469H98.7969ZM97.7031 62.1016C97.7031 61.9245 97.7578 61.776 97.8672 61.6562C97.9818 61.5312 98.138 61.4688 98.3359 61.4688C98.5339 61.4688 98.6901 61.5312 98.8047 61.6562C98.9245 61.776 98.9844 61.9245 98.9844 62.1016C98.9844 62.2734 98.9245 62.4219 98.8047 62.5469C98.6901 62.6667 98.5339 62.7266 98.3359 62.7266C98.138 62.7266 97.9818 62.6667 97.8672 62.5469C97.7578 62.4219 97.7031 62.2734 97.7031 62.1016ZM106.844 71.3594V61H107.781V73H106.906L106.844 71.3594ZM100.977 68.8594V68.6953C100.977 68.0391 101.052 67.4479 101.203 66.9219C101.354 66.3906 101.57 65.9375 101.852 65.5625C102.138 65.1823 102.482 64.8932 102.883 64.6953C103.284 64.4922 103.737 64.3906 104.242 64.3906C104.737 64.3906 105.174 64.4714 105.555 64.6328C105.935 64.7943 106.26 65.026 106.531 65.3281C106.807 65.6302 107.029 65.9896 107.195 66.4062C107.367 66.8229 107.492 67.2865 107.57 67.7969V69.8828C107.508 70.362 107.393 70.8021 107.227 71.2031C107.06 71.599 106.839 71.9453 106.562 72.2422C106.286 72.5339 105.953 72.7604 105.562 72.9219C105.177 73.0781 104.732 73.1562 104.227 73.1562C103.727 73.1562 103.276 73.0521 102.875 72.8438C102.474 72.6354 102.133 72.3411 101.852 71.9609C101.57 71.5755 101.354 71.1198 101.203 70.5938C101.052 70.0677 100.977 69.4896 100.977 68.8594ZM101.914 68.6953V68.8594C101.914 69.3542 101.964 69.8125 102.062 70.2344C102.161 70.6562 102.312 71.0234 102.516 71.3359C102.719 71.6484 102.977 71.8932 103.289 72.0703C103.602 72.2474 103.971 72.3359 104.398 72.3359C104.935 72.3359 105.385 72.2344 105.75 72.0312C106.115 71.8229 106.406 71.5495 106.625 71.2109C106.844 70.8672 107.003 70.4922 107.102 70.0859V67.6562C107.039 67.3802 106.948 67.099 106.828 66.8125C106.708 66.526 106.544 66.263 106.336 66.0234C106.133 65.7786 105.872 65.5833 105.555 65.4375C105.242 65.2865 104.862 65.2109 104.414 65.2109C103.982 65.2109 103.609 65.2995 103.297 65.4766C102.984 65.6536 102.724 65.901 102.516 66.2188C102.312 66.5312 102.161 66.8984 102.062 67.3203C101.964 67.7422 101.914 68.2005 101.914 68.6953ZM113.508 73.1562C112.956 73.1562 112.448 73.0547 111.984 72.8516C111.526 72.6484 111.125 72.362 110.781 71.9922C110.443 71.6224 110.18 71.1849 109.992 70.6797C109.81 70.1693 109.719 69.612 109.719 69.0078V68.6719C109.719 68.0208 109.815 67.4323 110.008 66.9062C110.201 66.3802 110.466 65.9297 110.805 65.5547C111.143 65.1797 111.529 64.8932 111.961 64.6953C112.398 64.4922 112.857 64.3906 113.336 64.3906C113.872 64.3906 114.349 64.487 114.766 64.6797C115.182 64.8672 115.531 65.1354 115.812 65.4844C116.099 65.8281 116.315 66.237 116.461 66.7109C116.607 67.1797 116.68 67.6979 116.68 68.2656V68.8359H110.281V68.0391H115.75V67.9297C115.74 67.4557 115.643 67.013 115.461 66.6016C115.284 66.1849 115.018 65.8464 114.664 65.5859C114.31 65.3255 113.867 65.1953 113.336 65.1953C112.94 65.1953 112.576 65.2786 112.242 65.4453C111.914 65.612 111.63 65.8516 111.391 66.1641C111.156 66.4714 110.974 66.8385 110.844 67.2656C110.719 67.6875 110.656 68.1562 110.656 68.6719V69.0078C110.656 69.4766 110.724 69.9141 110.859 70.3203C111 70.7214 111.198 71.0755 111.453 71.3828C111.714 71.6901 112.021 71.9297 112.375 72.1016C112.729 72.2734 113.12 72.3594 113.547 72.3594C114.047 72.3594 114.49 72.2682 114.875 72.0859C115.26 71.8984 115.607 71.6042 115.914 71.2031L116.5 71.6562C116.318 71.9271 116.089 72.1771 115.812 72.4062C115.542 72.6354 115.216 72.8177 114.836 72.9531C114.456 73.0885 114.013 73.1562 113.508 73.1562ZM118.008 68.9062V68.6484C118.008 68.0339 118.096 67.4661 118.273 66.9453C118.451 66.4245 118.703 65.974 119.031 65.5938C119.365 65.2135 119.763 64.9193 120.227 64.7109C120.69 64.4974 121.206 64.3906 121.773 64.3906C122.346 64.3906 122.865 64.4974 123.328 64.7109C123.792 64.9193 124.19 65.2135 124.523 65.5938C124.857 65.974 125.112 66.4245 125.289 66.9453C125.466 67.4661 125.555 68.0339 125.555 68.6484V68.9062C125.555 69.5208 125.466 70.0885 125.289 70.6094C125.112 71.125 124.857 71.5729 124.523 71.9531C124.195 72.3333 123.799 72.6302 123.336 72.8438C122.872 73.0521 122.357 73.1562 121.789 73.1562C121.216 73.1562 120.698 73.0521 120.234 72.8438C119.771 72.6302 119.372 72.3333 119.039 71.9531C118.706 71.5729 118.451 71.125 118.273 70.6094C118.096 70.0885 118.008 69.5208 118.008 68.9062ZM118.938 68.6484V68.9062C118.938 69.3698 119 69.8099 119.125 70.2266C119.25 70.638 119.432 71.0052 119.672 71.3281C119.911 71.6458 120.208 71.8958 120.562 72.0781C120.917 72.2604 121.326 72.3516 121.789 72.3516C122.247 72.3516 122.651 72.2604 123 72.0781C123.354 71.8958 123.651 71.6458 123.891 71.3281C124.13 71.0052 124.31 70.638 124.43 70.2266C124.555 69.8099 124.617 69.3698 124.617 68.9062V68.6484C124.617 68.1901 124.555 67.7552 124.43 67.3438C124.31 66.9323 124.128 66.5651 123.883 66.2422C123.643 65.9193 123.346 65.6641 122.992 65.4766C122.638 65.2891 122.232 65.1953 121.773 65.1953C121.315 65.1953 120.909 65.2891 120.555 65.4766C120.206 65.6641 119.909 65.9193 119.664 66.2422C119.424 66.5651 119.242 66.9323 119.117 67.3438C118.997 67.7552 118.938 68.1901 118.938 68.6484ZM134.516 72.3516C134.911 72.3516 135.281 72.2786 135.625 72.1328C135.974 71.9818 136.26 71.7604 136.484 71.4688C136.714 71.1719 136.844 70.8099 136.875 70.3828H137.766C137.74 70.9193 137.576 71.3984 137.273 71.8203C136.977 72.237 136.586 72.5651 136.102 72.8047C135.622 73.0391 135.094 73.1562 134.516 73.1562C133.927 73.1562 133.406 73.0495 132.953 72.8359C132.505 72.6224 132.13 72.3255 131.828 71.9453C131.526 71.5599 131.297 71.112 131.141 70.6016C130.99 70.0859 130.914 69.5312 130.914 68.9375V68.6094C130.914 68.0156 130.99 67.4635 131.141 66.9531C131.297 66.4375 131.526 65.9896 131.828 65.6094C132.13 65.224 132.505 64.9245 132.953 64.7109C133.401 64.4974 133.919 64.3906 134.508 64.3906C135.112 64.3906 135.654 64.513 136.133 64.7578C136.617 65.0026 137.003 65.349 137.289 65.7969C137.581 66.2448 137.74 66.776 137.766 67.3906H136.875C136.849 66.9375 136.729 66.5469 136.516 66.2188C136.302 65.8906 136.021 65.638 135.672 65.4609C135.323 65.2839 134.935 65.1953 134.508 65.1953C134.029 65.1953 133.62 65.2891 133.281 65.4766C132.943 65.6589 132.667 65.9115 132.453 66.2344C132.245 66.5521 132.091 66.9167 131.992 67.3281C131.893 67.7344 131.844 68.1615 131.844 68.6094V68.9375C131.844 69.3906 131.891 69.8229 131.984 70.2344C132.083 70.6406 132.237 71.0026 132.445 71.3203C132.659 71.638 132.935 71.8906 133.273 72.0781C133.617 72.2604 134.031 72.3516 134.516 72.3516ZM139.133 68.9062V68.6484C139.133 68.0339 139.221 67.4661 139.398 66.9453C139.576 66.4245 139.828 65.974 140.156 65.5938C140.49 65.2135 140.888 64.9193 141.352 64.7109C141.815 64.4974 142.331 64.3906 142.898 64.3906C143.471 64.3906 143.99 64.4974 144.453 64.7109C144.917 64.9193 145.315 65.2135 145.648 65.5938C145.982 65.974 146.237 66.4245 146.414 66.9453C146.591 67.4661 146.68 68.0339 146.68 68.6484V68.9062C146.68 69.5208 146.591 70.0885 146.414 70.6094C146.237 71.125 145.982 71.5729 145.648 71.9531C145.32 72.3333 144.924 72.6302 144.461 72.8438C143.997 73.0521 143.482 73.1562 142.914 73.1562C142.341 73.1562 141.823 73.0521 141.359 72.8438C140.896 72.6302 140.497 72.3333 140.164 71.9531C139.831 71.5729 139.576 71.125 139.398 70.6094C139.221 70.0885 139.133 69.5208 139.133 68.9062ZM140.062 68.6484V68.9062C140.062 69.3698 140.125 69.8099 140.25 70.2266C140.375 70.638 140.557 71.0052 140.797 71.3281C141.036 71.6458 141.333 71.8958 141.688 72.0781C142.042 72.2604 142.451 72.3516 142.914 72.3516C143.372 72.3516 143.776 72.2604 144.125 72.0781C144.479 71.8958 144.776 71.6458 145.016 71.3281C145.255 71.0052 145.435 70.638 145.555 70.2266C145.68 69.8099 145.742 69.3698 145.742 68.9062V68.6484C145.742 68.1901 145.68 67.7552 145.555 67.3438C145.435 66.9323 145.253 66.5651 145.008 66.2422C144.768 65.9193 144.471 65.6641 144.117 65.4766C143.763 65.2891 143.357 65.1953 142.898 65.1953C142.44 65.1953 142.034 65.2891 141.68 65.4766C141.331 65.6641 141.034 65.9193 140.789 66.2422C140.549 66.5651 140.367 66.9323 140.242 67.3438C140.122 67.7552 140.062 68.1901 140.062 68.6484ZM149.5 66.2969V73H148.562V64.5469H149.461L149.5 66.2969ZM149.328 68.25L148.875 68.0156C148.906 67.5156 149 67.0469 149.156 66.6094C149.318 66.1719 149.542 65.7865 149.828 65.4531C150.115 65.1198 150.458 64.8594 150.859 64.6719C151.26 64.4844 151.716 64.3906 152.227 64.3906C152.638 64.3906 153.01 64.4479 153.344 64.5625C153.682 64.6719 153.969 64.8464 154.203 65.0859C154.443 65.3203 154.628 65.6276 154.758 66.0078C154.888 66.388 154.953 66.8438 154.953 67.375V73H154.023V67.4062C154.023 66.8438 153.935 66.4036 153.758 66.0859C153.586 65.7682 153.344 65.5417 153.031 65.4062C152.724 65.2708 152.367 65.2031 151.961 65.2031C151.482 65.2031 151.076 65.3021 150.742 65.5C150.414 65.6927 150.146 65.9453 149.938 66.2578C149.734 66.5651 149.583 66.8958 149.484 67.25C149.385 67.599 149.333 67.9323 149.328 68.25ZM154.945 67.5156L154.32 67.5312C154.346 67.1198 154.44 66.7266 154.602 66.3516C154.768 65.9766 154.995 65.6432 155.281 65.3516C155.568 65.0547 155.909 64.8203 156.305 64.6484C156.706 64.4766 157.156 64.3906 157.656 64.3906C158.094 64.3906 158.484 64.4505 158.828 64.5703C159.172 64.6849 159.461 64.8698 159.695 65.125C159.935 65.375 160.117 65.6953 160.242 66.0859C160.367 66.4766 160.43 66.9453 160.43 67.4922V73H159.492V67.4844C159.492 66.8854 159.404 66.4219 159.227 66.0938C159.055 65.7604 158.815 65.5286 158.508 65.3984C158.201 65.2682 157.841 65.2031 157.43 65.2031C157.023 65.2083 156.667 65.2839 156.359 65.4297C156.052 65.5703 155.794 65.7578 155.586 65.9922C155.383 66.2214 155.227 66.4688 155.117 66.7344C155.013 67 154.956 67.2604 154.945 67.5156ZM163.727 66.1719V76.25H162.789V64.5469H163.664L163.727 66.1719ZM169.602 68.6953V68.8594C169.602 69.4896 169.529 70.0677 169.383 70.5938C169.237 71.1198 169.026 71.5755 168.75 71.9609C168.479 72.3411 168.143 72.6354 167.742 72.8438C167.341 73.0521 166.885 73.1562 166.375 73.1562C165.87 73.1562 165.419 73.0781 165.023 72.9219C164.628 72.7656 164.286 72.5443 164 72.2578C163.719 71.9661 163.492 71.6276 163.32 71.2422C163.154 70.8516 163.036 70.4245 162.969 69.9609V67.7969C163.047 67.2865 163.174 66.8229 163.352 66.4062C163.529 65.9896 163.755 65.6302 164.031 65.3281C164.312 65.026 164.646 64.7943 165.031 64.6328C165.417 64.4714 165.857 64.3906 166.352 64.3906C166.867 64.3906 167.326 64.4922 167.727 64.6953C168.133 64.8932 168.474 65.1823 168.75 65.5625C169.031 65.9375 169.242 66.3906 169.383 66.9219C169.529 67.4479 169.602 68.0391 169.602 68.6953ZM168.664 68.8594V68.6953C168.664 68.2005 168.612 67.7422 168.508 67.3203C168.409 66.8984 168.255 66.5312 168.047 66.2188C167.844 65.901 167.583 65.6536 167.266 65.4766C166.953 65.2995 166.581 65.2109 166.148 65.2109C165.701 65.2109 165.318 65.2865 165 65.4375C164.688 65.5833 164.427 65.7786 164.219 66.0234C164.01 66.263 163.846 66.526 163.727 66.8125C163.607 67.099 163.518 67.3802 163.461 67.6562V70.1484C163.56 70.5443 163.719 70.9115 163.938 71.25C164.156 71.5833 164.448 71.8516 164.812 72.0547C165.182 72.2526 165.633 72.3516 166.164 72.3516C166.591 72.3516 166.961 72.263 167.273 72.0859C167.586 71.9089 167.844 71.6615 168.047 71.3438C168.255 71.026 168.409 70.6562 168.508 70.2344C168.612 69.8125 168.664 69.3542 168.664 68.8594ZM172.719 64.5469V73H171.789V64.5469H172.719ZM171.625 62.1016C171.625 61.9245 171.68 61.776 171.789 61.6562C171.904 61.5312 172.06 61.4688 172.258 61.4688C172.456 61.4688 172.612 61.5312 172.727 61.6562C172.846 61.776 172.906 61.9245 172.906 62.1016C172.906 62.2734 172.846 62.4219 172.727 62.5469C172.612 62.6667 172.456 62.7266 172.258 62.7266C172.06 62.7266 171.904 62.6667 171.789 62.5469C171.68 62.4219 171.625 62.2734 171.625 62.1016ZM176.312 61V73H175.383V61H176.312ZM184.008 71.4844V67.125C184.008 66.724 183.924 66.3776 183.758 66.0859C183.591 65.7943 183.346 65.5703 183.023 65.4141C182.701 65.2578 182.302 65.1797 181.828 65.1797C181.391 65.1797 181 65.2578 180.656 65.4141C180.318 65.5651 180.049 65.7708 179.852 66.0312C179.659 66.2865 179.562 66.5703 179.562 66.8828L178.625 66.875C178.625 66.5573 178.703 66.25 178.859 65.9531C179.016 65.6562 179.237 65.3906 179.523 65.1562C179.81 64.9219 180.151 64.737 180.547 64.6016C180.948 64.4609 181.388 64.3906 181.867 64.3906C182.471 64.3906 183.003 64.4922 183.461 64.6953C183.924 64.8984 184.286 65.2031 184.547 65.6094C184.807 66.0156 184.938 66.526 184.938 67.1406V71.2266C184.938 71.5182 184.958 71.8203 185 72.1328C185.047 72.4453 185.112 72.7031 185.195 72.9062V73H184.203C184.141 72.8125 184.091 72.5781 184.055 72.2969C184.023 72.0104 184.008 71.7396 184.008 71.4844ZM184.227 68.0781L184.242 68.7969H182.406C181.927 68.7969 181.497 68.8411 181.117 68.9297C180.742 69.013 180.424 69.138 180.164 69.3047C179.904 69.4661 179.703 69.6615 179.562 69.8906C179.427 70.1198 179.359 70.3802 179.359 70.6719C179.359 70.974 179.435 71.25 179.586 71.5C179.742 71.75 179.961 71.9505 180.242 72.1016C180.529 72.2474 180.867 72.3203 181.258 72.3203C181.779 72.3203 182.237 72.224 182.633 72.0312C183.034 71.8385 183.365 71.5859 183.625 71.2734C183.885 70.9609 184.06 70.6198 184.148 70.25L184.555 70.7891C184.487 71.0495 184.362 71.3177 184.18 71.5938C184.003 71.8646 183.771 72.1198 183.484 72.3594C183.198 72.5938 182.859 72.7865 182.469 72.9375C182.083 73.0833 181.646 73.1562 181.156 73.1562C180.604 73.1562 180.122 73.0521 179.711 72.8438C179.305 72.6354 178.987 72.3516 178.758 71.9922C178.534 71.6276 178.422 71.2161 178.422 70.7578C178.422 70.3411 178.51 69.9688 178.688 69.6406C178.865 69.3073 179.12 69.026 179.453 68.7969C179.792 68.5625 180.198 68.3854 180.672 68.2656C181.151 68.1406 181.688 68.0781 182.281 68.0781H184.227ZM190.641 64.5469V65.3125H186.406V64.5469H190.641ZM187.961 62.375H188.891V70.9453C188.891 71.3359 188.943 71.6302 189.047 71.8281C189.151 72.026 189.286 72.1589 189.453 72.2266C189.62 72.2943 189.799 72.3281 189.992 72.3281C190.133 72.3281 190.268 72.3203 190.398 72.3047C190.529 72.2839 190.646 72.263 190.75 72.2422L190.789 73.0312C190.674 73.0677 190.526 73.0964 190.344 73.1172C190.161 73.1432 189.979 73.1562 189.797 73.1562C189.438 73.1562 189.12 73.0911 188.844 72.9609C188.568 72.8255 188.352 72.5964 188.195 72.2734C188.039 71.9453 187.961 71.5 187.961 70.9375V62.375ZM193.641 64.5469V73H192.711V64.5469H193.641ZM192.547 62.1016C192.547 61.9245 192.602 61.776 192.711 61.6562C192.826 61.5312 192.982 61.4688 193.18 61.4688C193.378 61.4688 193.534 61.5312 193.648 61.6562C193.768 61.776 193.828 61.9245 193.828 62.1016C193.828 62.2734 193.768 62.4219 193.648 62.5469C193.534 62.6667 193.378 62.7266 193.18 62.7266C192.982 62.7266 192.826 62.6667 192.711 62.5469C192.602 62.4219 192.547 62.2734 192.547 62.1016ZM195.68 68.9062V68.6484C195.68 68.0339 195.768 67.4661 195.945 66.9453C196.122 66.4245 196.375 65.974 196.703 65.5938C197.036 65.2135 197.435 64.9193 197.898 64.7109C198.362 64.4974 198.878 64.3906 199.445 64.3906C200.018 64.3906 200.536 64.4974 201 64.7109C201.464 64.9193 201.862 65.2135 202.195 65.5938C202.529 65.974 202.784 66.4245 202.961 66.9453C203.138 67.4661 203.227 68.0339 203.227 68.6484V68.9062C203.227 69.5208 203.138 70.0885 202.961 70.6094C202.784 71.125 202.529 71.5729 202.195 71.9531C201.867 72.3333 201.471 72.6302 201.008 72.8438C200.544 73.0521 200.029 73.1562 199.461 73.1562C198.888 73.1562 198.37 73.0521 197.906 72.8438C197.443 72.6302 197.044 72.3333 196.711 71.9531C196.378 71.5729 196.122 71.125 195.945 70.6094C195.768 70.0885 195.68 69.5208 195.68 68.9062ZM196.609 68.6484V68.9062C196.609 69.3698 196.672 69.8099 196.797 70.2266C196.922 70.638 197.104 71.0052 197.344 71.3281C197.583 71.6458 197.88 71.8958 198.234 72.0781C198.589 72.2604 198.997 72.3516 199.461 72.3516C199.919 72.3516 200.323 72.2604 200.672 72.0781C201.026 71.8958 201.323 71.6458 201.562 71.3281C201.802 71.0052 201.982 70.638 202.102 70.2266C202.227 69.8099 202.289 69.3698 202.289 68.9062V68.6484C202.289 68.1901 202.227 67.7552 202.102 67.3438C201.982 66.9323 201.799 66.5651 201.555 66.2422C201.315 65.9193 201.018 65.6641 200.664 65.4766C200.31 65.2891 199.904 65.1953 199.445 65.1953C198.987 65.1953 198.581 65.2891 198.227 65.4766C197.878 65.6641 197.581 65.9193 197.336 66.2422C197.096 66.5651 196.914 66.9323 196.789 67.3438C196.669 67.7552 196.609 68.1901 196.609 68.6484ZM206.094 66.3516V73H205.164V64.5469H206.055L206.094 66.3516ZM205.883 68.25L205.469 68.0156C205.5 67.5156 205.602 67.0469 205.773 66.6094C205.945 66.1719 206.177 65.7865 206.469 65.4531C206.766 65.1198 207.112 64.8594 207.508 64.6719C207.909 64.4844 208.352 64.3906 208.836 64.3906C209.258 64.3906 209.635 64.4479 209.969 64.5625C210.302 64.6771 210.586 64.8594 210.82 65.1094C211.055 65.3594 211.232 65.6797 211.352 66.0703C211.477 66.4609 211.539 66.9375 211.539 67.5V73H210.602V67.4922C210.602 66.9089 210.521 66.4531 210.359 66.125C210.198 65.7917 209.969 65.5547 209.672 65.4141C209.375 65.2734 209.023 65.2031 208.617 65.2031C208.169 65.2031 207.776 65.3021 207.438 65.5C207.104 65.6927 206.823 65.9453 206.594 66.2578C206.37 66.5651 206.198 66.8958 206.078 67.25C205.958 67.599 205.893 67.9323 205.883 68.25ZM219.023 70.8438C219.023 70.6146 218.966 70.388 218.852 70.1641C218.737 69.9401 218.516 69.7344 218.188 69.5469C217.865 69.3594 217.388 69.2005 216.758 69.0703C216.289 68.9661 215.87 68.849 215.5 68.7188C215.135 68.5885 214.828 68.4323 214.578 68.25C214.328 68.0677 214.138 67.849 214.008 67.5938C213.878 67.3385 213.812 67.0365 213.812 66.6875C213.812 66.375 213.88 66.0807 214.016 65.8047C214.156 65.5234 214.354 65.2786 214.609 65.0703C214.87 64.8568 215.182 64.6901 215.547 64.5703C215.917 64.4505 216.331 64.3906 216.789 64.3906C217.44 64.3906 217.997 64.5026 218.461 64.7266C218.93 64.9453 219.286 65.2448 219.531 65.625C219.781 66.0052 219.906 66.4349 219.906 66.9141H218.977C218.977 66.6224 218.891 66.3464 218.719 66.0859C218.552 65.8255 218.305 65.612 217.977 65.4453C217.654 65.2786 217.258 65.1953 216.789 65.1953C216.305 65.1953 215.911 65.2682 215.609 65.4141C215.307 65.5599 215.086 65.7448 214.945 65.9688C214.81 66.1927 214.742 66.4245 214.742 66.6641C214.742 66.8516 214.771 67.0234 214.828 67.1797C214.891 67.3307 215 67.4714 215.156 67.6016C215.318 67.7318 215.547 67.8542 215.844 67.9688C216.141 68.0833 216.526 68.1953 217 68.3047C217.682 68.4557 218.24 68.6406 218.672 68.8594C219.109 69.0729 219.432 69.3385 219.641 69.6562C219.849 69.9688 219.953 70.349 219.953 70.7969C219.953 71.1458 219.88 71.4661 219.734 71.7578C219.589 72.0443 219.378 72.2917 219.102 72.5C218.831 72.7083 218.503 72.8698 218.117 72.9844C217.737 73.099 217.31 73.1562 216.836 73.1562C216.122 73.1562 215.518 73.0391 215.023 72.8047C214.534 72.5651 214.161 72.2526 213.906 71.8672C213.656 71.4766 213.531 71.0625 213.531 70.625H214.461C214.492 71.0625 214.63 71.4089 214.875 71.6641C215.12 71.9141 215.419 72.0911 215.773 72.1953C216.133 72.2995 216.487 72.3516 216.836 72.3516C217.315 72.3516 217.716 72.2812 218.039 72.1406C218.362 72 218.607 71.8151 218.773 71.5859C218.94 71.3568 219.023 71.1094 219.023 70.8438ZM227.578 73H226.648V63.5C226.648 62.9219 226.747 62.4349 226.945 62.0391C227.148 61.6432 227.435 61.3438 227.805 61.1406C228.18 60.9375 228.625 60.8359 229.141 60.8359C229.302 60.8359 229.469 60.8464 229.641 60.8672C229.812 60.8828 229.979 60.9167 230.141 60.9688L230.07 61.7578C229.94 61.7214 229.807 61.6979 229.672 61.6875C229.542 61.6719 229.388 61.6641 229.211 61.6641C228.872 61.6641 228.581 61.737 228.336 61.8828C228.091 62.0234 227.904 62.2292 227.773 62.5C227.643 62.7708 227.578 63.1042 227.578 63.5V73ZM229.594 64.5469V65.3125H225.25V64.5469H229.594ZM232.203 65.9453V73H231.273V64.5469H232.18L232.203 65.9453ZM235.195 64.4844L235.172 65.3438C235.068 65.3281 234.966 65.3151 234.867 65.3047C234.768 65.2943 234.661 65.2891 234.547 65.2891C234.141 65.2891 233.784 65.3646 233.477 65.5156C233.174 65.6615 232.919 65.8672 232.711 66.1328C232.503 66.3932 232.344 66.7005 232.234 67.0547C232.125 67.4036 232.062 67.7786 232.047 68.1797L231.703 68.3125C231.703 67.7604 231.76 67.2474 231.875 66.7734C231.99 66.2995 232.164 65.8854 232.398 65.5312C232.638 65.1719 232.938 64.8932 233.297 64.6953C233.661 64.4922 234.089 64.3906 234.578 64.3906C234.698 64.3906 234.815 64.401 234.93 64.4219C235.049 64.4375 235.138 64.4583 235.195 64.4844ZM235.992 68.9062V68.6484C235.992 68.0339 236.081 67.4661 236.258 66.9453C236.435 66.4245 236.688 65.974 237.016 65.5938C237.349 65.2135 237.747 64.9193 238.211 64.7109C238.674 64.4974 239.19 64.3906 239.758 64.3906C240.331 64.3906 240.849 64.4974 241.312 64.7109C241.776 64.9193 242.174 65.2135 242.508 65.5938C242.841 65.974 243.096 66.4245 243.273 66.9453C243.451 67.4661 243.539 68.0339 243.539 68.6484V68.9062C243.539 69.5208 243.451 70.0885 243.273 70.6094C243.096 71.125 242.841 71.5729 242.508 71.9531C242.18 72.3333 241.784 72.6302 241.32 72.8438C240.857 73.0521 240.341 73.1562 239.773 73.1562C239.201 73.1562 238.682 73.0521 238.219 72.8438C237.755 72.6302 237.357 72.3333 237.023 71.9531C236.69 71.5729 236.435 71.125 236.258 70.6094C236.081 70.0885 235.992 69.5208 235.992 68.9062ZM236.922 68.6484V68.9062C236.922 69.3698 236.984 69.8099 237.109 70.2266C237.234 70.638 237.417 71.0052 237.656 71.3281C237.896 71.6458 238.193 71.8958 238.547 72.0781C238.901 72.2604 239.31 72.3516 239.773 72.3516C240.232 72.3516 240.635 72.2604 240.984 72.0781C241.339 71.8958 241.635 71.6458 241.875 71.3281C242.115 71.0052 242.294 70.638 242.414 70.2266C242.539 69.8099 242.602 69.3698 242.602 68.9062V68.6484C242.602 68.1901 242.539 67.7552 242.414 67.3438C242.294 66.9323 242.112 66.5651 241.867 66.2422C241.628 65.9193 241.331 65.6641 240.977 65.4766C240.622 65.2891 240.216 65.1953 239.758 65.1953C239.299 65.1953 238.893 65.2891 238.539 65.4766C238.19 65.6641 237.893 65.9193 237.648 66.2422C237.409 66.5651 237.227 66.9323 237.102 67.3438C236.982 67.7552 236.922 68.1901 236.922 68.6484ZM246.359 66.2969V73H245.422V64.5469H246.32L246.359 66.2969ZM246.188 68.25L245.734 68.0156C245.766 67.5156 245.859 67.0469 246.016 66.6094C246.177 66.1719 246.401 65.7865 246.688 65.4531C246.974 65.1198 247.318 64.8594 247.719 64.6719C248.12 64.4844 248.576 64.3906 249.086 64.3906C249.497 64.3906 249.87 64.4479 250.203 64.5625C250.542 64.6719 250.828 64.8464 251.062 65.0859C251.302 65.3203 251.487 65.6276 251.617 66.0078C251.747 66.388 251.812 66.8438 251.812 67.375V73H250.883V67.4062C250.883 66.8438 250.794 66.4036 250.617 66.0859C250.445 65.7682 250.203 65.5417 249.891 65.4062C249.583 65.2708 249.227 65.2031 248.82 65.2031C248.341 65.2031 247.935 65.3021 247.602 65.5C247.273 65.6927 247.005 65.9453 246.797 66.2578C246.594 66.5651 246.443 66.8958 246.344 67.25C246.245 67.599 246.193 67.9323 246.188 68.25ZM251.805 67.5156L251.18 67.5312C251.206 67.1198 251.299 66.7266 251.461 66.3516C251.628 65.9766 251.854 65.6432 252.141 65.3516C252.427 65.0547 252.768 64.8203 253.164 64.6484C253.565 64.4766 254.016 64.3906 254.516 64.3906C254.953 64.3906 255.344 64.4505 255.688 64.5703C256.031 64.6849 256.32 64.8698 256.555 65.125C256.794 65.375 256.977 65.6953 257.102 66.0859C257.227 66.4766 257.289 66.9453 257.289 67.4922V73H256.352V67.4844C256.352 66.8854 256.263 66.4219 256.086 66.0938C255.914 65.7604 255.674 65.5286 255.367 65.3984C255.06 65.2682 254.701 65.2031 254.289 65.2031C253.883 65.2083 253.526 65.2839 253.219 65.4297C252.911 65.5703 252.654 65.7578 252.445 65.9922C252.242 66.2214 252.086 66.4688 251.977 66.7344C251.872 67 251.815 67.2604 251.805 67.5156ZM266.078 72.1562L268.711 64.5469H269.719L266.141 74.3594C266.068 74.5521 265.974 74.7656 265.859 75C265.75 75.2344 265.604 75.4583 265.422 75.6719C265.245 75.8906 265.021 76.0677 264.75 76.2031C264.484 76.3438 264.159 76.4141 263.773 76.4141C263.674 76.4141 263.547 76.401 263.391 76.375C263.24 76.3542 263.13 76.3333 263.062 76.3125L263.055 75.5234C263.112 75.5391 263.195 75.5521 263.305 75.5625C263.414 75.5729 263.49 75.5781 263.531 75.5781C263.87 75.5781 264.154 75.5208 264.383 75.4062C264.617 75.2917 264.812 75.1198 264.969 74.8906C265.125 74.6667 265.263 74.3854 265.383 74.0469L266.078 72.1562ZM263.617 64.5469L266.312 71.8047L266.562 72.7812L265.883 73.1641L262.602 64.5469H263.617ZM270.539 68.9062V68.6484C270.539 68.0339 270.628 67.4661 270.805 66.9453C270.982 66.4245 271.234 65.974 271.562 65.5938C271.896 65.2135 272.294 64.9193 272.758 64.7109C273.221 64.4974 273.737 64.3906 274.305 64.3906C274.878 64.3906 275.396 64.4974 275.859 64.7109C276.323 64.9193 276.721 65.2135 277.055 65.5938C277.388 65.974 277.643 66.4245 277.82 66.9453C277.997 67.4661 278.086 68.0339 278.086 68.6484V68.9062C278.086 69.5208 277.997 70.0885 277.82 70.6094C277.643 71.125 277.388 71.5729 277.055 71.9531C276.727 72.3333 276.331 72.6302 275.867 72.8438C275.404 73.0521 274.888 73.1562 274.32 73.1562C273.747 73.1562 273.229 73.0521 272.766 72.8438C272.302 72.6302 271.904 72.3333 271.57 71.9531C271.237 71.5729 270.982 71.125 270.805 70.6094C270.628 70.0885 270.539 69.5208 270.539 68.9062ZM271.469 68.6484V68.9062C271.469 69.3698 271.531 69.8099 271.656 70.2266C271.781 70.638 271.964 71.0052 272.203 71.3281C272.443 71.6458 272.74 71.8958 273.094 72.0781C273.448 72.2604 273.857 72.3516 274.32 72.3516C274.779 72.3516 275.182 72.2604 275.531 72.0781C275.885 71.8958 276.182 71.6458 276.422 71.3281C276.661 71.0052 276.841 70.638 276.961 70.2266C277.086 69.8099 277.148 69.3698 277.148 68.9062V68.6484C277.148 68.1901 277.086 67.7552 276.961 67.3438C276.841 66.9323 276.659 66.5651 276.414 66.2422C276.174 65.9193 275.878 65.6641 275.523 65.4766C275.169 65.2891 274.763 65.1953 274.305 65.1953C273.846 65.1953 273.44 65.2891 273.086 65.4766C272.737 65.6641 272.44 65.9193 272.195 66.2422C271.956 66.5651 271.773 66.9323 271.648 67.3438C271.529 67.7552 271.469 68.1901 271.469 68.6484ZM285.438 71.0469V64.5469H286.375V73H285.477L285.438 71.0469ZM285.609 69.4844L286.094 69.4688C286.094 70 286.031 70.4896 285.906 70.9375C285.781 71.3854 285.586 71.776 285.32 72.1094C285.055 72.4427 284.711 72.7005 284.289 72.8828C283.867 73.0651 283.359 73.1562 282.766 73.1562C282.354 73.1562 281.977 73.099 281.633 72.9844C281.294 72.8646 281.003 72.6771 280.758 72.4219C280.513 72.1667 280.323 71.8359 280.188 71.4297C280.057 71.0234 279.992 70.5312 279.992 69.9531V64.5469H280.922V69.9688C280.922 70.4219 280.971 70.7995 281.07 71.1016C281.174 71.4036 281.315 71.6458 281.492 71.8281C281.674 72.0104 281.883 72.1406 282.117 72.2188C282.352 72.2969 282.604 72.3359 282.875 72.3359C283.562 72.3359 284.104 72.2031 284.5 71.9375C284.901 71.6719 285.185 71.3229 285.352 70.8906C285.523 70.4531 285.609 69.9844 285.609 69.4844ZM289.75 65.9453V73H288.82V64.5469H289.727L289.75 65.9453ZM292.742 64.4844L292.719 65.3438C292.615 65.3281 292.513 65.3151 292.414 65.3047C292.315 65.2943 292.208 65.2891 292.094 65.2891C291.688 65.2891 291.331 65.3646 291.023 65.5156C290.721 65.6615 290.466 65.8672 290.258 66.1328C290.049 66.3932 289.891 66.7005 289.781 67.0547C289.672 67.4036 289.609 67.7786 289.594 68.1797L289.25 68.3125C289.25 67.7604 289.307 67.2474 289.422 66.7734C289.536 66.2995 289.711 65.8854 289.945 65.5312C290.185 65.1719 290.484 64.8932 290.844 64.6953C291.208 64.4922 291.635 64.3906 292.125 64.3906C292.245 64.3906 292.362 64.401 292.477 64.4219C292.596 64.4375 292.685 64.4583 292.742 64.4844ZM41.8281 92H40.8984V82.5C40.8984 81.9219 40.9974 81.4349 41.1953 81.0391C41.3984 80.6432 41.6849 80.3438 42.0547 80.1406C42.4297 79.9375 42.875 79.8359 43.3906 79.8359C43.5521 79.8359 43.7188 79.8464 43.8906 79.8672C44.0625 79.8828 44.2292 79.9167 44.3906 79.9688L44.3203 80.7578C44.1901 80.7214 44.0573 80.6979 43.9219 80.6875C43.7917 80.6719 43.638 80.6641 43.4609 80.6641C43.1224 80.6641 42.8307 80.737 42.5859 80.8828C42.3411 81.0234 42.1536 81.2292 42.0234 81.5C41.8932 81.7708 41.8281 82.1042 41.8281 82.5V92ZM43.8438 83.5469V84.3125H39.5V83.5469H43.8438ZM50.6641 90.4844V86.125C50.6641 85.724 50.5807 85.3776 50.4141 85.0859C50.2474 84.7943 50.0026 84.5703 49.6797 84.4141C49.3568 84.2578 48.9583 84.1797 48.4844 84.1797C48.0469 84.1797 47.6562 84.2578 47.3125 84.4141C46.974 84.5651 46.7057 84.7708 46.5078 85.0312C46.3151 85.2865 46.2188 85.5703 46.2188 85.8828L45.2812 85.875C45.2812 85.5573 45.3594 85.25 45.5156 84.9531C45.6719 84.6562 45.8932 84.3906 46.1797 84.1562C46.4661 83.9219 46.8073 83.737 47.2031 83.6016C47.6042 83.4609 48.0443 83.3906 48.5234 83.3906C49.1276 83.3906 49.6589 83.4922 50.1172 83.6953C50.5807 83.8984 50.9427 84.2031 51.2031 84.6094C51.4635 85.0156 51.5938 85.526 51.5938 86.1406V90.2266C51.5938 90.5182 51.6146 90.8203 51.6562 91.1328C51.7031 91.4453 51.7682 91.7031 51.8516 91.9062V92H50.8594C50.7969 91.8125 50.7474 91.5781 50.7109 91.2969C50.6797 91.0104 50.6641 90.7396 50.6641 90.4844ZM50.8828 87.0781L50.8984 87.7969H49.0625C48.5833 87.7969 48.1536 87.8411 47.7734 87.9297C47.3984 88.013 47.0807 88.138 46.8203 88.3047C46.5599 88.4661 46.3594 88.6615 46.2188 88.8906C46.0833 89.1198 46.0156 89.3802 46.0156 89.6719C46.0156 89.974 46.0911 90.25 46.2422 90.5C46.3984 90.75 46.6172 90.9505 46.8984 91.1016C47.1849 91.2474 47.5234 91.3203 47.9141 91.3203C48.4349 91.3203 48.8932 91.224 49.2891 91.0312C49.6901 90.8385 50.0208 90.5859 50.2812 90.2734C50.5417 89.9609 50.7161 89.6198 50.8047 89.25L51.2109 89.7891C51.1432 90.0495 51.0182 90.3177 50.8359 90.5938C50.6589 90.8646 50.4271 91.1198 50.1406 91.3594C49.8542 91.5938 49.5156 91.7865 49.125 91.9375C48.7396 92.0833 48.3021 92.1562 47.8125 92.1562C47.2604 92.1562 46.7786 92.0521 46.3672 91.8438C45.9609 91.6354 45.6432 91.3516 45.4141 90.9922C45.1901 90.6276 45.0781 90.2161 45.0781 89.7578C45.0781 89.3411 45.1667 88.9688 45.3438 88.6406C45.5208 88.3073 45.776 88.026 46.1094 87.7969C46.4479 87.5625 46.8542 87.3854 47.3281 87.2656C47.8073 87.1406 48.3438 87.0781 48.9375 87.0781H50.8828ZM56.4688 91.1016L59.1797 83.5469H60.1406L56.9766 92H56.2969L56.4688 91.1016ZM54.0156 83.5469L56.7578 91.125L56.9062 92H56.2188L53.0469 83.5469H54.0156ZM61.0391 87.9062V87.6484C61.0391 87.0339 61.1276 86.4661 61.3047 85.9453C61.4818 85.4245 61.7344 84.974 62.0625 84.5938C62.3958 84.2135 62.7943 83.9193 63.2578 83.7109C63.7214 83.4974 64.237 83.3906 64.8047 83.3906C65.3776 83.3906 65.8958 83.4974 66.3594 83.7109C66.8229 83.9193 67.2214 84.2135 67.5547 84.5938C67.888 84.974 68.1432 85.4245 68.3203 85.9453C68.4974 86.4661 68.5859 87.0339 68.5859 87.6484V87.9062C68.5859 88.5208 68.4974 89.0885 68.3203 89.6094C68.1432 90.125 67.888 90.5729 67.5547 90.9531C67.2266 91.3333 66.8307 91.6302 66.3672 91.8438C65.9036 92.0521 65.388 92.1562 64.8203 92.1562C64.2474 92.1562 63.7292 92.0521 63.2656 91.8438C62.8021 91.6302 62.4036 91.3333 62.0703 90.9531C61.737 90.5729 61.4818 90.125 61.3047 89.6094C61.1276 89.0885 61.0391 88.5208 61.0391 87.9062ZM61.9688 87.6484V87.9062C61.9688 88.3698 62.0312 88.8099 62.1562 89.2266C62.2812 89.638 62.4635 90.0052 62.7031 90.3281C62.9427 90.6458 63.2396 90.8958 63.5938 91.0781C63.9479 91.2604 64.3568 91.3516 64.8203 91.3516C65.2786 91.3516 65.6823 91.2604 66.0312 91.0781C66.3854 90.8958 66.6823 90.6458 66.9219 90.3281C67.1615 90.0052 67.3411 89.638 67.4609 89.2266C67.5859 88.8099 67.6484 88.3698 67.6484 87.9062V87.6484C67.6484 87.1901 67.5859 86.7552 67.4609 86.3438C67.3411 85.9323 67.1589 85.5651 66.9141 85.2422C66.6745 84.9193 66.3776 84.6641 66.0234 84.4766C65.6693 84.2891 65.263 84.1953 64.8047 84.1953C64.3464 84.1953 63.9401 84.2891 63.5859 84.4766C63.237 84.6641 62.9401 84.9193 62.6953 85.2422C62.4557 85.5651 62.2734 85.9323 62.1484 86.3438C62.0286 86.7552 61.9688 87.1901 61.9688 87.6484ZM71.4531 84.9453V92H70.5234V83.5469H71.4297L71.4531 84.9453ZM74.4453 83.4844L74.4219 84.3438C74.3177 84.3281 74.2161 84.3151 74.1172 84.3047C74.0182 84.2943 73.9115 84.2891 73.7969 84.2891C73.3906 84.2891 73.0339 84.3646 72.7266 84.5156C72.4245 84.6615 72.1693 84.8672 71.9609 85.1328C71.7526 85.3932 71.5938 85.7005 71.4844 86.0547C71.375 86.4036 71.3125 86.7786 71.2969 87.1797L70.9531 87.3125C70.9531 86.7604 71.0104 86.2474 71.125 85.7734C71.2396 85.2995 71.4141 84.8854 71.6484 84.5312C71.888 84.1719 72.1875 83.8932 72.5469 83.6953C72.9115 83.4922 73.3385 83.3906 73.8281 83.3906C73.9479 83.3906 74.0651 83.401 74.1797 83.4219C74.2995 83.4375 74.388 83.4583 74.4453 83.4844ZM76.9531 83.5469V92H76.0234V83.5469H76.9531ZM75.8594 81.1016C75.8594 80.9245 75.9141 80.776 76.0234 80.6562C76.138 80.5312 76.2943 80.4688 76.4922 80.4688C76.6901 80.4688 76.8464 80.5312 76.9609 80.6562C77.0807 80.776 77.1406 80.9245 77.1406 81.1016C77.1406 81.2734 77.0807 81.4219 76.9609 81.5469C76.8464 81.6667 76.6901 81.7266 76.4922 81.7266C76.2943 81.7266 76.138 81.6667 76.0234 81.5469C75.9141 81.4219 75.8594 81.2734 75.8594 81.1016ZM82.7031 83.5469V84.3125H78.4688V83.5469H82.7031ZM80.0234 81.375H80.9531V89.9453C80.9531 90.3359 81.0052 90.6302 81.1094 90.8281C81.2135 91.026 81.349 91.1589 81.5156 91.2266C81.6823 91.2943 81.862 91.3281 82.0547 91.3281C82.1953 91.3281 82.3307 91.3203 82.4609 91.3047C82.5911 91.2839 82.7083 91.263 82.8125 91.2422L82.8516 92.0312C82.737 92.0677 82.5885 92.0964 82.4062 92.1172C82.224 92.1432 82.0417 92.1562 81.8594 92.1562C81.5 92.1562 81.1823 92.0911 80.9062 91.9609C80.6302 91.8255 80.4141 91.5964 80.2578 91.2734C80.1016 90.9453 80.0234 90.5 80.0234 89.9375V81.375ZM87.9297 92.1562C87.3776 92.1562 86.8698 92.0547 86.4062 91.8516C85.9479 91.6484 85.5469 91.362 85.2031 90.9922C84.8646 90.6224 84.6016 90.1849 84.4141 89.6797C84.2318 89.1693 84.1406 88.612 84.1406 88.0078V87.6719C84.1406 87.0208 84.237 86.4323 84.4297 85.9062C84.6224 85.3802 84.888 84.9297 85.2266 84.5547C85.5651 84.1797 85.9505 83.8932 86.3828 83.6953C86.8203 83.4922 87.2786 83.3906 87.7578 83.3906C88.2943 83.3906 88.7708 83.487 89.1875 83.6797C89.6042 83.8672 89.9531 84.1354 90.2344 84.4844C90.5208 84.8281 90.737 85.237 90.8828 85.7109C91.0286 86.1797 91.1016 86.6979 91.1016 87.2656V87.8359H84.7031V87.0391H90.1719V86.9297C90.1615 86.4557 90.0651 86.013 89.8828 85.6016C89.7057 85.1849 89.4401 84.8464 89.0859 84.5859C88.7318 84.3255 88.2891 84.1953 87.7578 84.1953C87.362 84.1953 86.9974 84.2786 86.6641 84.4453C86.3359 84.612 86.0521 84.8516 85.8125 85.1641C85.5781 85.4714 85.3958 85.8385 85.2656 86.2656C85.1406 86.6875 85.0781 87.1562 85.0781 87.6719V88.0078C85.0781 88.4766 85.1458 88.9141 85.2812 89.3203C85.4219 89.7214 85.6198 90.0755 85.875 90.3828C86.1354 90.6901 86.4427 90.9297 86.7969 91.1016C87.151 91.2734 87.5417 91.3594 87.9688 91.3594C88.4688 91.3594 88.9115 91.2682 89.2969 91.0859C89.6823 90.8984 90.0286 90.6042 90.3359 90.2031L90.9219 90.6562C90.7396 90.9271 90.5104 91.1771 90.2344 91.4062C89.9635 91.6354 89.638 91.8177 89.2578 91.9531C88.8776 92.0885 88.4349 92.1562 87.9297 92.1562ZM99.3438 91.1016L102.055 83.5469H103.016L99.8516 92H99.1719L99.3438 91.1016ZM96.8906 83.5469L99.6328 91.125L99.7812 92H99.0938L95.9219 83.5469H96.8906ZM105.594 83.5469V92H104.664V83.5469H105.594ZM104.5 81.1016C104.5 80.9245 104.555 80.776 104.664 80.6562C104.779 80.5312 104.935 80.4688 105.133 80.4688C105.331 80.4688 105.487 80.5312 105.602 80.6562C105.721 80.776 105.781 80.9245 105.781 81.1016C105.781 81.2734 105.721 81.4219 105.602 81.5469C105.487 81.6667 105.331 81.7266 105.133 81.7266C104.935 81.7266 104.779 81.6667 104.664 81.5469C104.555 81.4219 104.5 81.2734 104.5 81.1016ZM113.641 90.3594V80H114.578V92H113.703L113.641 90.3594ZM107.773 87.8594V87.6953C107.773 87.0391 107.849 86.4479 108 85.9219C108.151 85.3906 108.367 84.9375 108.648 84.5625C108.935 84.1823 109.279 83.8932 109.68 83.6953C110.081 83.4922 110.534 83.3906 111.039 83.3906C111.534 83.3906 111.971 83.4714 112.352 83.6328C112.732 83.7943 113.057 84.026 113.328 84.3281C113.604 84.6302 113.826 84.9896 113.992 85.4062C114.164 85.8229 114.289 86.2865 114.367 86.7969V88.8828C114.305 89.362 114.19 89.8021 114.023 90.2031C113.857 90.599 113.635 90.9453 113.359 91.2422C113.083 91.5339 112.75 91.7604 112.359 91.9219C111.974 92.0781 111.529 92.1562 111.023 92.1562C110.523 92.1562 110.073 92.0521 109.672 91.8438C109.271 91.6354 108.93 91.3411 108.648 90.9609C108.367 90.5755 108.151 90.1198 108 89.5938C107.849 89.0677 107.773 88.4896 107.773 87.8594ZM108.711 87.6953V87.8594C108.711 88.3542 108.76 88.8125 108.859 89.2344C108.958 89.6562 109.109 90.0234 109.312 90.3359C109.516 90.6484 109.773 90.8932 110.086 91.0703C110.398 91.2474 110.768 91.3359 111.195 91.3359C111.732 91.3359 112.182 91.2344 112.547 91.0312C112.911 90.8229 113.203 90.5495 113.422 90.2109C113.641 89.8672 113.799 89.4922 113.898 89.0859V86.6562C113.836 86.3802 113.745 86.099 113.625 85.8125C113.505 85.526 113.341 85.263 113.133 85.0234C112.93 84.7786 112.669 84.5833 112.352 84.4375C112.039 84.2865 111.659 84.2109 111.211 84.2109C110.779 84.2109 110.406 84.2995 110.094 84.4766C109.781 84.6536 109.521 84.901 109.312 85.2188C109.109 85.5312 108.958 85.8984 108.859 86.3203C108.76 86.7422 108.711 87.2005 108.711 87.6953ZM120.305 92.1562C119.753 92.1562 119.245 92.0547 118.781 91.8516C118.323 91.6484 117.922 91.362 117.578 90.9922C117.24 90.6224 116.977 90.1849 116.789 89.6797C116.607 89.1693 116.516 88.612 116.516 88.0078V87.6719C116.516 87.0208 116.612 86.4323 116.805 85.9062C116.997 85.3802 117.263 84.9297 117.602 84.5547C117.94 84.1797 118.326 83.8932 118.758 83.6953C119.195 83.4922 119.654 83.3906 120.133 83.3906C120.669 83.3906 121.146 83.487 121.562 83.6797C121.979 83.8672 122.328 84.1354 122.609 84.4844C122.896 84.8281 123.112 85.237 123.258 85.7109C123.404 86.1797 123.477 86.6979 123.477 87.2656V87.8359H117.078V87.0391H122.547V86.9297C122.536 86.4557 122.44 86.013 122.258 85.6016C122.081 85.1849 121.815 84.8464 121.461 84.5859C121.107 84.3255 120.664 84.1953 120.133 84.1953C119.737 84.1953 119.372 84.2786 119.039 84.4453C118.711 84.612 118.427 84.8516 118.188 85.1641C117.953 85.4714 117.771 85.8385 117.641 86.2656C117.516 86.6875 117.453 87.1562 117.453 87.6719V88.0078C117.453 88.4766 117.521 88.9141 117.656 89.3203C117.797 89.7214 117.995 90.0755 118.25 90.3828C118.51 90.6901 118.818 90.9297 119.172 91.1016C119.526 91.2734 119.917 91.3594 120.344 91.3594C120.844 91.3594 121.286 91.2682 121.672 91.0859C122.057 90.8984 122.404 90.6042 122.711 90.2031L123.297 90.6562C123.115 90.9271 122.885 91.1771 122.609 91.4062C122.339 91.6354 122.013 91.8177 121.633 91.9531C121.253 92.0885 120.81 92.1562 120.305 92.1562ZM124.805 87.9062V87.6484C124.805 87.0339 124.893 86.4661 125.07 85.9453C125.247 85.4245 125.5 84.974 125.828 84.5938C126.161 84.2135 126.56 83.9193 127.023 83.7109C127.487 83.4974 128.003 83.3906 128.57 83.3906C129.143 83.3906 129.661 83.4974 130.125 83.7109C130.589 83.9193 130.987 84.2135 131.32 84.5938C131.654 84.974 131.909 85.4245 132.086 85.9453C132.263 86.4661 132.352 87.0339 132.352 87.6484V87.9062C132.352 88.5208 132.263 89.0885 132.086 89.6094C131.909 90.125 131.654 90.5729 131.32 90.9531C130.992 91.3333 130.596 91.6302 130.133 91.8438C129.669 92.0521 129.154 92.1562 128.586 92.1562C128.013 92.1562 127.495 92.0521 127.031 91.8438C126.568 91.6302 126.169 91.3333 125.836 90.9531C125.503 90.5729 125.247 90.125 125.07 89.6094C124.893 89.0885 124.805 88.5208 124.805 87.9062ZM125.734 87.6484V87.9062C125.734 88.3698 125.797 88.8099 125.922 89.2266C126.047 89.638 126.229 90.0052 126.469 90.3281C126.708 90.6458 127.005 90.8958 127.359 91.0781C127.714 91.2604 128.122 91.3516 128.586 91.3516C129.044 91.3516 129.448 91.2604 129.797 91.0781C130.151 90.8958 130.448 90.6458 130.688 90.3281C130.927 90.0052 131.107 89.638 131.227 89.2266C131.352 88.8099 131.414 88.3698 131.414 87.9062V87.6484C131.414 87.1901 131.352 86.7552 131.227 86.3438C131.107 85.9323 130.924 85.5651 130.68 85.2422C130.44 84.9193 130.143 84.6641 129.789 84.4766C129.435 84.2891 129.029 84.1953 128.57 84.1953C128.112 84.1953 127.706 84.2891 127.352 84.4766C127.003 84.6641 126.706 84.9193 126.461 85.2422C126.221 85.5651 126.039 85.9323 125.914 86.3438C125.794 86.7552 125.734 87.1901 125.734 87.6484ZM139.352 89.8438C139.352 89.6146 139.294 89.388 139.18 89.1641C139.065 88.9401 138.844 88.7344 138.516 88.5469C138.193 88.3594 137.716 88.2005 137.086 88.0703C136.617 87.9661 136.198 87.849 135.828 87.7188C135.464 87.5885 135.156 87.4323 134.906 87.25C134.656 87.0677 134.466 86.849 134.336 86.5938C134.206 86.3385 134.141 86.0365 134.141 85.6875C134.141 85.375 134.208 85.0807 134.344 84.8047C134.484 84.5234 134.682 84.2786 134.938 84.0703C135.198 83.8568 135.51 83.6901 135.875 83.5703C136.245 83.4505 136.659 83.3906 137.117 83.3906C137.768 83.3906 138.326 83.5026 138.789 83.7266C139.258 83.9453 139.615 84.2448 139.859 84.625C140.109 85.0052 140.234 85.4349 140.234 85.9141H139.305C139.305 85.6224 139.219 85.3464 139.047 85.0859C138.88 84.8255 138.633 84.612 138.305 84.4453C137.982 84.2786 137.586 84.1953 137.117 84.1953C136.633 84.1953 136.24 84.2682 135.938 84.4141C135.635 84.5599 135.414 84.7448 135.273 84.9688C135.138 85.1927 135.07 85.4245 135.07 85.6641C135.07 85.8516 135.099 86.0234 135.156 86.1797C135.219 86.3307 135.328 86.4714 135.484 86.6016C135.646 86.7318 135.875 86.8542 136.172 86.9688C136.469 87.0833 136.854 87.1953 137.328 87.3047C138.01 87.4557 138.568 87.6406 139 87.8594C139.438 88.0729 139.76 88.3385 139.969 88.6562C140.177 88.9688 140.281 89.349 140.281 89.7969C140.281 90.1458 140.208 90.4661 140.062 90.7578C139.917 91.0443 139.706 91.2917 139.43 91.5C139.159 91.7083 138.831 91.8698 138.445 91.9844C138.065 92.099 137.638 92.1562 137.164 92.1562C136.451 92.1562 135.846 92.0391 135.352 91.8047C134.862 91.5651 134.49 91.2526 134.234 90.8672C133.984 90.4766 133.859 90.0625 133.859 89.625H134.789C134.82 90.0625 134.958 90.4089 135.203 90.6641C135.448 90.9141 135.747 91.0911 136.102 91.1953C136.461 91.2995 136.815 91.3516 137.164 91.3516C137.643 91.3516 138.044 91.2812 138.367 91.1406C138.69 91 138.935 90.8151 139.102 90.5859C139.268 90.3568 139.352 90.1094 139.352 89.8438ZM142.312 91.4297C142.312 91.2474 142.37 91.0938 142.484 90.9688C142.604 90.8385 142.766 90.7734 142.969 90.7734C143.177 90.7734 143.341 90.8359 143.461 90.9609C143.581 91.0859 143.641 91.2422 143.641 91.4297C143.641 91.6068 143.581 91.7578 143.461 91.8828C143.341 92.0078 143.177 92.0703 142.969 92.0703C142.766 92.0703 142.604 92.0078 142.484 91.8828C142.37 91.7578 142.312 91.6068 142.312 91.4297Z" fill="black"/>
<path d="M75.3018 11.8623L75.4932 13.1748L75.7734 11.9922L77.7422 5.04688H78.8496L80.7705 11.9922L81.0439 13.1953L81.2559 11.8555L82.8008 5.04688H84.1201L81.707 15H80.5107L78.46 7.74707L78.3027 6.98828L78.1455 7.74707L76.0195 15H74.8232L72.417 5.04688H73.7295L75.3018 11.8623ZM84.8311 11.2334C84.8311 10.5088 84.9723 9.8571 85.2549 9.27832C85.542 8.69954 85.9385 8.25293 86.4443 7.93848C86.9548 7.62402 87.5358 7.4668 88.1875 7.4668C89.1947 7.4668 90.0081 7.81543 90.6279 8.5127C91.2523 9.20996 91.5645 10.1374 91.5645 11.2949V11.3838C91.5645 12.1038 91.4255 12.751 91.1475 13.3252C90.874 13.8949 90.4798 14.3392 89.9648 14.6582C89.4544 14.9772 88.8665 15.1367 88.2012 15.1367C87.1986 15.1367 86.3851 14.7881 85.7607 14.0908C85.141 13.3936 84.8311 12.4707 84.8311 11.3223V11.2334ZM86.1025 11.3838C86.1025 12.2041 86.2917 12.8626 86.6699 13.3594C87.0527 13.8561 87.5632 14.1045 88.2012 14.1045C88.8438 14.1045 89.3542 13.8538 89.7324 13.3525C90.1107 12.8467 90.2998 12.1403 90.2998 11.2334C90.2998 10.4222 90.1061 9.76595 89.7188 9.26465C89.3359 8.75879 88.8255 8.50586 88.1875 8.50586C87.5632 8.50586 87.0596 8.75423 86.6768 9.25098C86.2939 9.74772 86.1025 10.4587 86.1025 11.3838ZM96.7256 8.73828C96.5342 8.70638 96.3268 8.69043 96.1035 8.69043C95.2741 8.69043 94.7113 9.04362 94.415 9.75V15H93.1504V7.60352H94.3809L94.4014 8.45801C94.8161 7.7972 95.404 7.4668 96.165 7.4668C96.4111 7.4668 96.598 7.4987 96.7256 7.5625V8.73828ZM99.959 11.5752L99.166 12.4023V15H97.9014V4.5H99.166V10.8506L99.8428 10.0371L102.146 7.60352H103.685L100.807 10.6934L104.02 15H102.536L99.959 11.5752Z" fill="#808080"/>
<rect x="39" y="3" width="100" height="16" rx="8" fill="#FFB2EE"/>
<path d="M75.4502 14.2568L78.2939 6.04688H79.7295L76.0381 16H74.876L71.1914 6.04688H72.6201L75.4502 14.2568ZM82.2451 16H80.9805V8.60352H82.2451V16ZM80.8779 6.6416C80.8779 6.43652 80.9395 6.26335 81.0625 6.12207C81.1901 5.98079 81.377 5.91016 81.623 5.91016C81.8691 5.91016 82.056 5.98079 82.1836 6.12207C82.3112 6.26335 82.375 6.43652 82.375 6.6416C82.375 6.84668 82.3112 7.01758 82.1836 7.1543C82.056 7.29102 81.8691 7.35938 81.623 7.35938C81.377 7.35938 81.1901 7.29102 81.0625 7.1543C80.9395 7.01758 80.8779 6.84668 80.8779 6.6416ZM83.9678 12.2402C83.9678 11.1055 84.2367 10.194 84.7744 9.50586C85.3122 8.81315 86.0163 8.4668 86.8867 8.4668C87.7526 8.4668 88.4385 8.76302 88.9443 9.35547V5.5H90.209V16H89.0469L88.9854 15.207C88.4795 15.8268 87.7754 16.1367 86.873 16.1367C86.0163 16.1367 85.3167 15.7858 84.7744 15.084C84.2367 14.3822 83.9678 13.4661 83.9678 12.3359V12.2402ZM85.2324 12.3838C85.2324 13.2223 85.4056 13.8786 85.752 14.3525C86.0983 14.8265 86.5768 15.0635 87.1875 15.0635C87.9896 15.0635 88.5752 14.7035 88.9443 13.9834V10.5859C88.5661 9.88867 87.985 9.54004 87.2012 9.54004C86.5814 9.54004 86.0983 9.7793 85.752 10.2578C85.4056 10.7363 85.2324 11.445 85.2324 12.3838ZM95.2471 16.1367C94.2445 16.1367 93.4287 15.8086 92.7998 15.1523C92.1709 14.4915 91.8564 13.6097 91.8564 12.5068V12.2744C91.8564 11.5407 91.9954 10.8867 92.2734 10.3125C92.556 9.73372 92.9479 9.28255 93.4492 8.95898C93.9551 8.63086 94.502 8.4668 95.0898 8.4668C96.0514 8.4668 96.7988 8.78353 97.332 9.41699C97.8652 10.0505 98.1318 10.9574 98.1318 12.1377V12.6641H93.1211C93.1393 13.3932 93.3512 13.9834 93.7568 14.4346C94.167 14.8812 94.6865 15.1045 95.3154 15.1045C95.762 15.1045 96.1403 15.0133 96.4502 14.8311C96.7601 14.6488 97.0312 14.4072 97.2637 14.1064L98.0361 14.708C97.4163 15.6605 96.4867 16.1367 95.2471 16.1367ZM95.0898 9.50586C94.5794 9.50586 94.151 9.69271 93.8047 10.0664C93.4583 10.4355 93.2441 10.9551 93.1621 11.625H96.8672V11.5293C96.8307 10.8867 96.6576 10.39 96.3477 10.0391C96.0378 9.68359 95.6185 9.50586 95.0898 9.50586ZM99.2666 12.2334C99.2666 11.5088 99.4079 10.8571 99.6904 10.2783C99.9775 9.69954 100.374 9.25293 100.88 8.93848C101.39 8.62402 101.971 8.4668 102.623 8.4668C103.63 8.4668 104.444 8.81543 105.063 9.5127C105.688 10.21 106 11.1374 106 12.2949V12.3838C106 13.1038 105.861 13.751 105.583 14.3252C105.31 14.8949 104.915 15.3392 104.4 15.6582C103.89 15.9772 103.302 16.1367 102.637 16.1367C101.634 16.1367 100.821 15.7881 100.196 15.0908C99.5765 14.3936 99.2666 13.4707 99.2666 12.3223V12.2334ZM100.538 12.3838C100.538 13.2041 100.727 13.8626 101.105 14.3594C101.488 14.8561 101.999 15.1045 102.637 15.1045C103.279 15.1045 103.79 14.8538 104.168 14.3525C104.546 13.8467 104.735 13.1403 104.735 12.2334C104.735 11.4222 104.542 10.766 104.154 10.2646C103.771 9.75879 103.261 9.50586 102.623 9.50586C101.999 9.50586 101.495 9.75423 101.112 10.251C100.729 10.7477 100.538 11.4587 100.538 12.3838Z" fill="#808080"/>
<defs>
<filter id="filter0_d_3447_274" x="0" y="0" width="358" height="136" filterUnits="userSpaceOnUse" color-interpolation-filters="sRGB">
<feFlood flood-opacity="0" result="BackgroundImageFix"/>
<feColorMatrix in="SourceAlpha" type="matrix" values="0 0 0 0 0 0 0 0 0 0 0 0 0 0 0 0 0 0 127 0" result="hardAlpha"/>
<feOffset dx="1" dy="1"/>
<feGaussianBlur stdDeviation="2"/>
<feColorMatrix type="matrix" values="0 0 0 0 0 0 0 0 0 0 0 0 0 0 0 0 0 0 0.25 0"/>
<feBlend mode="normal" in2="BackgroundImageFix" result="effect1_dropShadow_3447_274"/>
<feBlend mode="normal" in="SourceGraphic" in2="effect1_dropShadow_3447_274" result="shape"/>
</filter>
</defs>
</svg>
