<svg width="19" height="24" viewBox="0 0 19 24" fill="none" xmlns="http://www.w3.org/2000/svg">
<path fill-rule="evenodd" clip-rule="evenodd" d="M7.5358 0.0014134C7.31778 0.00994514 7.10279 0.0570288 6.90086 0.140671C6.67665 0.233541 6.47293 0.369664 6.30133 0.541267C6.12973 0.71287 5.9936 0.916592 5.90073 1.1408C5.81074 1.35805 5.76307 1.59042 5.7602 1.82542H1.248V1.82475C1.23436 1.82475 1.22074 1.82497 1.20713 1.82542H1.15172V1.82847C1.0208 1.8386 0.892096 1.86934 0.770411 1.91975C0.618997 1.98247 0.481418 2.07439 0.365531 2.19028C0.249643 2.30617 0.157716 2.44375 0.0949984 2.59516C0.0322845 2.74656 4.16351e-06 2.90884 0 3.07272V3.07275V3.69672H18.144V3.07272H18.1436C18.1435 2.90907 18.1113 2.74703 18.0486 2.59583C17.9859 2.44442 17.894 2.30684 17.7781 2.19095C17.6622 2.07506 17.5246 1.98313 17.3732 1.92042C17.2218 1.85771 17.0596 1.82543 16.8957 1.82542H16.8956H12.4317C12.4288 1.5905 12.3811 1.35822 12.2912 1.14105C12.1983 0.916836 12.0622 0.713114 11.8906 0.541511C11.719 0.369909 11.5153 0.233786 11.2911 0.140915C11.0742 0.0510995 10.8423 0.00343814 10.6078 0.00039969V0.000244617H10.5839H7.60806V0L7.578 0.000244617H7.5358V0.0014134ZM16.3677 4.51191H1.24767V4.51245L1.05614 4.51245L2.30502 21.2048C2.34883 22.7245 3.56986 23.9491 5.08807 23.9987V24H5.14184C5.15581 24.0002 5.1698 24.0003 5.18381 24.0003L5.19901 24.0002L5.22577 24H12.9182C12.9322 24.0002 12.9462 24.0003 12.9602 24.0003L12.9827 24.0002L13.0022 24H13.0561V23.9987C14.6023 23.9481 15.8402 22.6788 15.8402 21.1203V21.1201L15.8403 21.1201L17.0879 4.5121H16.3677V4.51191ZM7.91655 22.0319L7.91652 22.032H8.62714C8.74786 22.1402 8.90736 22.206 9.08223 22.206C9.2571 22.206 9.4166 22.1402 9.53732 22.032H10.2275L10.2275 22.0319H9.53744C9.67673 21.907 9.76437 21.7256 9.76437 21.5238V6.97158C9.76437 6.59484 9.45897 6.28944 9.08223 6.28944C8.7055 6.28944 8.4001 6.59484 8.4001 6.97158V21.5238C8.4001 21.7256 8.48773 21.907 8.62703 22.0319H7.91655ZM4.66509 6.27531C4.28885 6.29444 3.99934 6.61496 4.01847 6.9912L4.7574 21.5247C4.77653 21.9009 5.09705 22.1904 5.4733 22.1713C5.84954 22.1522 6.13905 21.8316 6.11992 21.4554L5.38099 6.92193C5.36186 6.54568 5.04134 6.25618 4.66509 6.27531ZM13.4893 6.37094C13.1131 6.35182 12.7926 6.64132 12.7734 7.01757L12.0346 21.5511C12.0155 21.9273 12.305 22.2478 12.6813 22.2669C13.0575 22.2861 13.378 21.9966 13.3972 21.6203L14.1359 7.08683C14.1551 6.71058 13.8656 6.39007 13.4893 6.37094Z" fill="#EBFFEC"/>
</svg>
