<svg width="24" height="24" viewBox="0 0 24 24" fill="none" xmlns="http://www.w3.org/2000/svg">
<path fill-rule="evenodd" clip-rule="evenodd" d="M7.43575 3.20265L10.9389 0.323837C11.0588 0.215891 11.4462 0 12.0363 0C12.6264 0 13.0019 0.215891 13.1158 0.323837L16.6189 3.20265H21.9854V3.7062H21.9855V7.61309L23.9932 9.30198L23.9788 9.31911H24V9.3913H24.0001V10.9025H24L24 21.2293V21.6249V23.2443H1.79916V23.2439H6.7596e-05V10.8308V10.6143V9.32656L0 9.32648L6.7596e-05 9.32642V9.31956H0.00821877L2.0512 7.60089V3.20277H3.34681V3.20265H7.43575ZM19.9702 10.8534V9.3913H19.9705V5.21764L4.06618 5.21764V9.46362H4.03004V10.8184L12.0213 17.2412L19.9702 10.8534ZM2.01505 21.2293V11.2376L12.0237 19.2819L12.059 19.2379L12.0646 19.245L21.985 11.2729L21.985 21.2293L2.01505 21.2293Z" fill="#EBFFEC"/>
</svg>
