<svg width="15" height="24" viewBox="0 0 15 24" fill="none" xmlns="http://www.w3.org/2000/svg">
<path d="M0.887248 11.9429L2.45692 12.1977C2.49898 13.0389 2.51665 13.8654 2.59446 14.6868C2.72989 16.1114 3.02852 17.4981 3.73008 18.7666C4.12334 19.4775 4.63941 20.0772 5.35863 20.4806C5.44622 20.5326 5.54259 20.5681 5.64296 20.5853C5.55505 20.4667 5.46084 20.3519 5.37966 20.2287C4.88798 19.4821 4.66464 18.6371 4.49052 17.7757C4.14815 16.0651 4.05772 14.3268 3.9757 12.5918C3.97895 12.5701 3.98459 12.5488 3.99253 12.5283C7.35199 12.7948 10.7325 12.5264 14.0078 11.7334C14.0188 12.1847 14.0373 12.6019 14.0364 13.0187C14.0343 14.6254 13.8652 16.2069 13.3281 17.7349C12.6358 19.705 11.3513 21.1552 9.51793 22.1369C9.32067 22.2429 9.13014 22.3619 8.9291 22.4566C8.69861 22.5647 8.55687 22.7426 8.45508 22.9668C8.35666 23.1829 8.25656 23.3987 8.1451 23.6086C8.00588 23.8719 7.78969 24.0182 7.48055 23.9976C7.16006 23.9766 6.91106 23.8294 6.78699 23.5329C6.70041 23.3116 6.63163 23.0837 6.58131 22.8515C6.52537 22.6155 6.41055 22.4641 6.17123 22.3712C5.18493 21.9872 4.27853 21.4618 3.49117 20.7494C2.37112 19.737 1.62161 18.4928 1.19807 17.0481C0.707652 15.377 0.688725 13.6778 0.887248 11.9429Z" fill="#EBFFEC"/>
<path d="M7.59812 4.27241C7.88076 3.31302 7.47615 2.38728 6.60214 1.95911C6.31137 1.82284 6.00416 1.72487 5.68818 1.66764C5.36642 1.60581 5.13846 1.47753 5.0535 1.14778C4.96012 0.788586 5.07663 0.384391 5.33109 0.191757C5.61163 -0.0206453 5.99017 -0.0669117 6.25641 0.105113C7.4282 0.862191 8.43385 2.34186 8.0612 4.07893C8.0511 4.12562 8.04564 4.17314 8.04185 4.19544C8.68579 4.29344 9.3272 4.36578 9.95768 4.49238C11.0323 4.70773 12.0426 5.09594 12.9258 5.76301C14.1973 6.72281 14.7765 8.03045 14.8068 9.59887C14.8118 9.8445 14.6293 10.0018 14.445 10.1364C14.0068 10.4565 13.5004 10.6213 12.9826 10.7513C11.6367 11.0878 10.258 11.1883 8.8759 11.2291C6.86964 11.2884 4.86549 11.2712 2.8748 10.9667C2.18796 10.8619 1.50448 10.7273 0.874007 10.4253C0.60768 10.2897 0.361283 10.118 0.141744 9.91516C0.0487919 9.83104 -0.000417925 9.65397 2.67376e-06 9.51937C0.00883525 7.55181 0.941723 6.15458 2.66912 5.26544C4.08233 4.53864 5.60658 4.27661 7.17752 4.2295C7.32473 4.22698 7.47068 4.25895 7.59812 4.27241Z" fill="#EBFFEC"/>
</svg>
