<svg width="26" height="24" viewBox="0 0 26 24" fill="none" xmlns="http://www.w3.org/2000/svg">
<rect x="1.72754" y="1" width="17.6364" height="22" rx="3" fill="#303030" stroke="#EBFFEC" stroke-width="2"/>
<rect x="4" y="4.36328" width="12.5455" height="1.63636" rx="0.818182" fill="#EBFFEC"/>
<rect x="4" y="7.63672" width="11.4545" height="1.63636" rx="0.818182" fill="#EBFFEC"/>
<path d="M4 11.7264C4 11.2745 4.36631 10.9082 4.81818 10.9082H13.5455C13.9973 10.9082 14.3636 11.2745 14.3636 11.7264C14.3636 12.1783 13.9973 12.5446 13.5455 12.5446H4.81818C4.36631 12.5446 4 12.1783 4 11.7264Z" fill="#EBFFEC"/>
<rect x="4" y="14.25" width="7.635" height="1.635" rx="0.8175" fill="#EBFFEC"/>
<rect x="4" y="17.4551" width="7.63636" height="1.63636" rx="0.818182" fill="#EBFFEC"/>
<path d="M13.9278 14.0162L13.2303 14.7328L14.0183 15.3484L15.8285 16.7625L16.6166 17.3781L17.3141 16.6615L24.1683 9.61982C24.996 8.76952 24.9089 7.48805 23.9738 6.75758C23.0386 6.0271 21.6096 6.12424 20.782 6.97454L13.9278 14.0162Z" fill="#EBFFEC" stroke="#303030" stroke-width="2"/>
<path d="M14.5692 17.2144C14.1726 17.355 13.7698 17.0404 13.8713 16.6693L14.184 15.5251C14.2786 15.179 14.7475 15.0415 15.0437 15.2729L15.9537 15.9838C16.25 16.2152 16.1617 16.65 15.7919 16.7811L14.5692 17.2144Z" fill="#EBFFEC"/>
</svg>
