<svg width="16" height="16" viewBox="0 0 16 16" fill="none" xmlns="http://www.w3.org/2000/svg">
<path fill-rule="evenodd" clip-rule="evenodd" d="M4 0C1.79086 0 0 1.79086 0 4V12C0 14.2091 1.79086 16 4 16H12C14.2091 16 16 14.2091 16 12V4C16 1.79086 14.2091 0 12 0H4ZM9.50977 9.53418C9.76042 9.73014 9.88574 10.0036 9.88574 10.3545C9.88574 10.6644 9.76953 10.9059 9.53711 11.0791C9.30925 11.2477 8.99707 11.332 8.60059 11.332C7.98079 11.332 7.5319 11.2067 7.25391 10.9561C6.98047 10.7008 6.84375 10.3066 6.84375 9.77344H4.4375C4.4375 10.4297 4.60156 11.0107 4.92969 11.5166C5.26237 12.0179 5.75456 12.4144 6.40625 12.7061C7.0625 12.9932 7.79395 13.1367 8.60059 13.1367C9.74447 13.1367 10.6445 12.8883 11.3008 12.3916C11.957 11.8949 12.2852 11.2113 12.2852 10.3408C12.2852 9.25163 11.7474 8.39714 10.6719 7.77734C10.2298 7.52214 9.66471 7.28516 8.97656 7.06641C8.28841 6.8431 7.80762 6.62891 7.53418 6.42383C7.26074 6.21419 7.12402 5.98177 7.12402 5.72656C7.12402 5.4349 7.24707 5.19564 7.49316 5.00879C7.74381 4.81738 8.08333 4.72168 8.51172 4.72168C8.93555 4.72168 9.27051 4.83333 9.5166 5.05664C9.76725 5.27995 9.89258 5.5944 9.89258 6H12.2852C12.2852 5.39388 12.1279 4.85612 11.8135 4.38672C11.499 3.91276 11.057 3.54818 10.4873 3.29297C9.9222 3.03776 9.2819 2.91016 8.56641 2.91016C7.83268 2.91016 7.17188 3.02865 6.58398 3.26562C5.99609 3.49805 5.54036 3.82617 5.2168 4.25C4.89779 4.66927 4.73828 5.15462 4.73828 5.70605C4.73828 6.81348 5.38314 7.68392 6.67285 8.31738C7.06934 8.51335 7.57975 8.71615 8.2041 8.92578C8.82845 9.13542 9.26367 9.33822 9.50977 9.53418Z" fill="#EBFFEC"/>
</svg>
