<svg width="20" height="24" viewBox="0 0 20 24" fill="none" xmlns="http://www.w3.org/2000/svg">
<path d="M9.95135 1.78033C12.3084 1.78033 14.2259 3.71376 14.2259 6.0905C14.2259 8.46724 12.3084 10.4013 9.95135 10.4013C7.59427 10.4013 5.67624 8.46724 5.67624 6.0905C5.67624 3.71376 7.59427 1.78033 9.95135 1.78033ZM9.95135 0C6.61495 0 3.91064 2.72687 3.91064 6.0905C3.91064 9.45472 6.61495 12.1816 9.95135 12.1816C13.2872 12.1816 15.9915 9.45472 15.9915 6.0905C15.9915 2.72687 13.2872 0 9.95135 0Z" fill="#484848"/>
<path d="M19.0196 23.9999C18.5323 23.9999 18.1368 23.6011 18.1368 23.1097C18.1368 22.9026 18.1292 22.6967 18.1139 22.4991C17.9909 20.8404 17.3729 19.2719 16.3265 17.961C14.7522 15.9878 12.4287 14.8555 9.95151 14.8555C5.43805 14.8555 1.7656 18.5586 1.7656 23.1097C1.7656 23.6011 1.37011 23.9999 0.8828 23.9999C0.395495 23.9999 0 23.6011 0 23.1097C0 20.4458 1.03935 17.9301 2.92737 16.027C4.81538 14.1238 7.30959 13.0752 9.95151 13.0752C12.9666 13.0752 15.7915 14.449 17.7025 16.8447C18.9737 18.4375 19.7253 20.3466 19.8748 22.3644C19.893 22.6059 19.9024 22.8569 19.9024 23.1097C19.9024 23.6011 19.5069 23.9999 19.0196 23.9999Z" fill="#484848"/>
</svg>
