<svg width="85" height="77" viewBox="0 0 85 77" fill="none" xmlns="http://www.w3.org/2000/svg">
<rect x="9.75085" y="1" width="61" height="75" rx="3" fill="#FBFBFB" stroke="#484848" stroke-width="2"/>
<rect x="1.14583" y="13.9788" width="17.875" height="2.29167" rx="1.14583" stroke="#FBFBFB" stroke-width="2.29167"/>
<rect x="1.14583" y="24.9798" width="19.7083" height="2.29167" rx="1.14583" stroke="#FBFBFB" stroke-width="2.29167"/>
<rect x="1.14583" y="35.9798" width="19.7083" height="2.29167" rx="1.14583" stroke="#FBFBFB" stroke-width="2.29167"/>
<rect x="1.14583" y="46.9808" width="17.875" height="2.29167" rx="1.14583" stroke="#FBFBFB" stroke-width="2.29167"/>
<rect x="1.14583" y="57.9808" width="19.7083" height="2.29167" rx="1.14583" stroke="#FBFBFB" stroke-width="2.29167"/>
<rect x="19.25" y="13.999" width="40.25" height="5.25" rx="2.625" fill="#484848"/>
<rect x="19.25" y="24.501" width="36.75" height="5.25" rx="2.625" fill="#484848"/>
<path d="M19.25 37.6221C19.25 36.1723 20.4253 34.9971 21.875 34.9971H49.875C51.3247 34.9971 52.5 36.1723 52.5 37.6221V37.6221C52.5 39.0718 51.3247 40.2471 49.875 40.2471H21.875C20.4253 40.2471 19.25 39.0718 19.25 37.6221V37.6221Z" fill="#484848"/>
<rect x="19.25" y="45.7188" width="24.4956" height="5.24563" rx="2.62281" fill="#484848"/>
<rect x="19.25" y="56.002" width="24.5" height="5.25" rx="2.625" fill="#484848"/>
<path d="M52.8427 46.3278L52.1452 47.0443L52.9332 47.6599L58.7411 52.1968L59.5291 52.8124L60.2266 52.0958L82.2172 29.5037C84.0219 27.6496 83.832 24.8554 81.793 23.2626C79.754 21.6698 76.638 21.8816 74.8333 23.7357L52.8427 46.3278Z" fill="#484848" stroke="#FBFBFB" stroke-width="2"/>
<path d="M51.0893 55.9633C50.6927 56.1038 50.2899 55.7892 50.3914 55.4181L52.3841 48.1285C52.4787 47.7825 52.9475 47.645 53.2438 47.8764L59.0412 52.4051C59.3375 52.6365 59.2493 53.0713 58.8794 53.2024L51.0893 55.9633Z" fill="#484848"/>
</svg>
