<svg width="60" height="98" viewBox="0 0 60 98" fill="none" xmlns="http://www.w3.org/2000/svg">
<path d="M3.59422 48.3947L9.95482 49.4275C10.1253 52.8362 10.1968 56.1852 10.5121 59.5138C11.0609 65.2864 12.271 70.9056 15.1139 76.0459C16.7074 78.9262 18.7986 81.3566 21.7131 82.991C22.068 83.2016 22.4585 83.3455 22.8652 83.4154C22.509 82.9348 22.1272 82.4695 21.7983 81.9701C19.8059 78.9449 18.9009 75.5209 18.1953 72.0304C16.808 65.0989 16.4415 58.0549 16.1092 51.0245C16.1223 50.9364 16.1452 50.8501 16.1774 50.7671C29.7905 51.8467 43.4887 50.7595 56.7611 47.5459C56.8054 49.3747 56.8804 51.0654 56.877 52.7544C56.8685 59.2649 56.1833 65.6733 54.0069 71.8651C51.2015 79.8482 45.9965 85.7248 38.5673 89.7027C37.7679 90.1322 36.9959 90.6146 36.1812 90.998C35.2472 91.4361 34.6729 92.157 34.2604 93.0654C33.8616 93.9414 33.456 94.8158 33.0043 95.6662C32.4402 96.7331 31.5641 97.3262 30.3115 97.2427C29.0127 97.1575 28.0038 96.561 27.501 95.3594C27.1502 94.4627 26.8715 93.5395 26.6676 92.5984C26.4409 91.6423 25.9756 91.0287 25.0058 90.6521C21.0092 89.096 17.3363 86.9673 14.1458 84.0801C9.60713 79.9778 6.57 74.9363 4.85373 69.0819C2.86647 62.3106 2.78977 55.4251 3.59422 48.3947Z" fill="black"/>
<path d="M30.7889 17.3125C31.9342 13.4249 30.2946 9.67369 26.753 7.93867C25.5748 7.38648 24.3299 6.98946 23.0495 6.75756C21.7457 6.50702 20.8219 5.9872 20.4777 4.651C20.0993 3.19549 20.5714 1.55762 21.6025 0.777033C22.7393 -0.0836585 24.2732 -0.271138 25.3521 0.425937C30.1003 3.49375 34.1754 9.48962 32.6654 16.5285C32.6245 16.7177 32.6023 16.9103 32.587 17.0006C35.1963 17.3977 37.7954 17.6909 40.3502 18.2039C44.7048 19.0765 48.7987 20.6496 52.3778 23.3527C57.53 27.242 59.8769 32.5408 59.9996 38.8963C60.02 39.8916 59.2803 40.529 58.5338 41.0744C56.7579 42.3714 54.7059 43.0395 52.6079 43.5662C47.154 44.9296 41.5672 45.337 35.9667 45.5023C27.837 45.7426 19.7158 45.6727 11.6492 44.4388C8.86599 44.0144 6.09643 43.469 3.54163 42.2453C2.46243 41.6955 1.46398 40.9999 0.574372 40.178C0.197713 39.8371 -0.00169351 39.1196 1.08345e-05 38.5742C0.035802 30.6013 3.81603 24.9395 10.8157 21.3365C16.5423 18.3914 22.7189 17.3296 29.0846 17.1387C29.6811 17.1285 30.2725 17.258 30.7889 17.3125Z" fill="black"/>
</svg>
