<svg width="172" height="83" viewBox="0 0 172 83" fill="none" xmlns="http://www.w3.org/2000/svg">
<path d="M21.2514 7.64453C17.1523 15.1021 14.8312 23.4393 14.4757 31.9818L27.3026 29.5313C17.5735 43.502 12.7778 60.427 13.6997 77.5393C8.09639 66.0515 6.4525 52.9718 9.03356 40.4132C6.46342 41.2551 4.11912 42.6924 2.1842 44.6127C5.32871 30.8255 11.8956 18.0951 21.2539 7.64453H21.2514Z" fill="#FFDC45"/>
<path d="M15.367 83L12.9008 78.1029C7.30293 67.0534 5.43955 54.5367 7.58181 42.3745C7.08856 42.5968 6.60548 42.8417 6.13766 43.1065C4.92512 43.7974 3.80316 44.6314 2.79678 45.59L0 48.2609L0.874629 44.5157C4.17484 30.58 11.0672 17.7128 20.8894 7.15069L27.5533 0L22.7403 8.45741C18.8231 15.3212 16.5038 22.9533 15.9493 30.8039L30.5789 28.1006L28.939 30.3717C19.012 44.0981 14.1203 60.7292 15.0645 77.5433L15.367 83ZM10.6125 38.9191L10.2108 40.8129C7.99179 51.2237 8.84839 62.041 12.6796 71.9891C12.9588 57.516 17.4064 43.4169 25.5066 31.3261L13.5237 33.5423L13.5847 32.1256C13.8312 26.3998 14.9823 20.7465 16.9968 15.3682C11.0514 23.3194 6.63222 32.2699 3.95617 41.7798C4.29432 41.56 4.64011 41.3476 4.99352 41.1477C6.18016 40.4738 7.43647 39.926 8.7412 39.5137L10.6125 38.9191Z" fill="#F9D854"/>
<path d="M150.199 7.64453C154.296 15.1028 156.618 23.4395 156.976 31.9818L144.158 29.5313C153.888 43.5009 158.685 60.4266 157.762 77.5393C163.365 66.0515 165.008 52.9718 162.428 40.4132C164.997 41.2566 167.341 42.6938 169.276 44.6127C166.13 30.8241 159.561 18.0933 150.199 7.64453Z" fill="#FFDC45"/>
<path d="M156.095 83L156.395 77.5433C157.342 60.7288 152.45 44.0967 142.521 30.3717L140.882 28.1006L155.51 30.8039C154.959 22.9531 152.64 15.3205 148.722 8.45741L143.909 0L150.565 7.16319C160.384 17.7264 167.275 30.5933 170.576 44.5282L171.461 48.2584L168.664 45.59C167.659 44.6295 166.537 43.7953 165.323 43.1065C164.856 42.8417 164.375 42.5977 163.882 42.3745C166.02 54.5368 164.157 67.0524 158.563 78.1029L156.095 83ZM145.959 31.3261C154.059 43.4165 158.505 57.5159 158.782 71.9891C162.616 62.0417 163.473 51.2235 161.251 40.8129L160.849 38.9191L162.723 39.5137C164.027 39.927 165.283 40.4747 166.47 41.1477C166.821 41.3476 167.167 41.56 167.507 41.7798C164.829 32.2702 160.41 23.32 154.465 15.3682C156.479 20.7465 157.63 26.3998 157.877 32.1256L157.941 33.5423L145.959 31.3261Z" fill="#F9D854"/>
<path d="M42.9581 44.7153C44.6191 44.7153 45.8833 45.2313 46.7508 46.2634C47.6182 47.2954 48.0519 48.9089 48.0519 51.1037C48.0626 52.2191 47.9529 53.3323 47.7248 54.4218C47.5438 55.314 47.1905 56.1578 46.6868 56.9013C46.2164 57.5692 45.5929 58.1016 44.8741 58.4494C44.0355 58.8215 43.1303 58.9992 42.2202 58.9706H32.2957L29.4868 54.9843H42.5473C42.7875 54.9876 43.0243 54.925 43.2344 54.8028C43.4445 54.6807 43.6205 54.5031 43.7451 54.2876C44.0436 53.8266 44.2247 52.9864 44.2887 51.7668C44.2247 50.6281 44.0436 49.8773 43.7451 49.5143C43.5975 49.3348 43.413 49.1926 43.2056 49.0983C42.9982 49.004 42.7732 48.9602 42.5473 48.9699H35.139C34.3689 48.9874 33.601 48.8768 32.8638 48.6422C32.2226 48.4203 31.6659 47.989 31.2749 47.4115C30.827 46.7579 30.5069 46.0178 30.3329 45.2339C30.1231 44.3128 30.0215 43.3684 30.0304 42.4215C30.0198 41.3857 30.1322 40.3526 30.3649 39.346C30.5561 38.4962 30.9092 37.6958 31.4028 36.9929C31.8779 36.34 32.5011 35.822 33.2156 35.4861C34.0538 35.1083 34.96 34.9252 35.8719 34.9494H44.1288L47.5723 39.3563H35.5374C35.1285 39.4276 34.7515 39.6326 34.4601 39.942C34.2142 40.2206 34.0641 41.0205 33.9879 42.3364C33.9879 43.1414 34.1051 43.6944 34.3396 43.9954C34.6631 44.3532 35.0796 44.6035 35.5374 44.7153H42.9581Z" fill="black"/>
<path d="M66.8366 34.9473L69.8947 39.3561H62.5763V58.9736H58.0591V39.3561H53.1527L50.2368 34.9473H66.8366Z" fill="black"/>
<path d="M82.9987 34.9473C86.2713 34.9473 88.7274 35.9094 90.367 37.8337C92.0066 39.758 92.8273 42.7934 92.8289 46.9401C92.8289 51.1207 92.0108 54.1697 90.3745 56.0872C88.7382 58.0047 86.2796 58.9668 82.9987 58.9736C79.7062 58.9736 77.2451 58.0114 75.6155 56.0872C73.9858 54.1629 73.171 51.1139 73.171 46.9401C73.171 42.7934 73.9883 39.758 75.6229 37.8337C77.2576 35.9094 79.7162 34.9473 82.9987 34.9473ZM82.9987 54.7431C83.9227 54.7724 84.8382 54.5561 85.6552 54.1155C86.3631 53.7081 86.9625 53.1307 87.4012 52.4334C87.8364 51.7608 88.1647 51.0225 88.374 50.2458C88.7731 48.2933 88.7731 46.278 88.374 44.3256C87.9652 42.767 86.9896 41.4253 85.6452 40.5727C84.8346 40.1079 83.9202 39.8637 82.99 39.8637C82.0598 39.8637 81.1453 40.1079 80.3348 40.5727C78.9876 41.4222 78.011 42.7652 77.6059 44.3256C77.2068 46.278 77.2068 48.2933 77.6059 50.2458C77.8155 51.022 78.1429 51.7602 78.5763 52.4334C79.0198 53.1311 79.6233 53.7084 80.3348 54.1155C81.1537 54.5581 82.0722 54.7744 82.9987 54.7431Z" fill="black"/>
<path d="M113.351 43.5763C113.084 44.5838 112.63 45.5242 112.016 46.3423C111.434 47.1057 110.7 47.722 109.867 48.1468C108.971 48.5953 107.989 48.8193 106.999 48.8015L113.526 58.9736H109.138L102.531 48.817H100.377V58.9478H96.0986V44.8394H107.406C108.038 44.7798 108.633 44.5008 109.102 44.0455C109.515 43.6158 109.744 42.9602 109.787 42.0786C109.787 41.13 109.559 40.4099 109.102 39.9184C108.882 39.6781 108.618 39.4888 108.326 39.3624C108.034 39.2359 107.721 39.1751 107.406 39.1837H98.3009L95.0132 34.9484H107.013C108.011 34.9293 108.999 35.1588 109.899 35.6186C110.732 36.0544 111.461 36.6865 112.031 37.4669C112.636 38.3146 113.084 39.2768 113.351 40.3025C113.655 41.3698 113.655 42.509 113.351 43.5763Z" fill="black"/>
<path d="M130.522 52.6027C128.412 50.4326 126.301 48.2633 124.189 46.095V58.9736H119.039V34.9473L130.507 45.3845L141.974 34.9473V58.9736H136.837V46.082L130.507 52.5924" fill="black"/>
</svg>
