<svg width="16" height="16" viewBox="0 0 16 16" fill="none" xmlns="http://www.w3.org/2000/svg">
<rect width="16" height="16" rx="4" fill="#DADADA"/>
<path d="M9.88574 10.3545C9.88574 10.0036 9.76042 9.73014 9.50977 9.53418C9.26367 9.33822 8.82845 9.13542 8.2041 8.92578C7.57975 8.71615 7.06934 8.51335 6.67285 8.31738C5.38314 7.68392 4.73828 6.81348 4.73828 5.70605C4.73828 5.15462 4.89779 4.66927 5.2168 4.25C5.54036 3.82617 5.99609 3.49805 6.58398 3.26562C7.17188 3.02865 7.83268 2.91016 8.56641 2.91016C9.2819 2.91016 9.9222 3.03776 10.4873 3.29297C11.057 3.54818 11.499 3.91276 11.8135 4.38672C12.1279 4.85612 12.2852 5.39388 12.2852 6H9.89258C9.89258 5.5944 9.76725 5.27995 9.5166 5.05664C9.27051 4.83333 8.93555 4.72168 8.51172 4.72168C8.08333 4.72168 7.74382 4.81738 7.49316 5.00879C7.24707 5.19564 7.12402 5.4349 7.12402 5.72656C7.12402 5.98177 7.26074 6.21419 7.53418 6.42383C7.80762 6.62891 8.28841 6.8431 8.97656 7.06641C9.66471 7.28516 10.2298 7.52214 10.6719 7.77734C11.7474 8.39714 12.2852 9.25163 12.2852 10.3408C12.2852 11.2113 11.957 11.8949 11.3008 12.3916C10.6445 12.8883 9.74447 13.1367 8.60059 13.1367C7.79395 13.1367 7.0625 12.9932 6.40625 12.7061C5.75456 12.4144 5.26237 12.0179 4.92969 11.5166C4.60156 11.0107 4.4375 10.4297 4.4375 9.77344H6.84375C6.84375 10.3066 6.98047 10.7008 7.25391 10.9561C7.5319 11.2067 7.98079 11.332 8.60059 11.332C8.99707 11.332 9.30924 11.2477 9.53711 11.0791C9.76953 10.9059 9.88574 10.6644 9.88574 10.3545Z" fill="#303030"/>
</svg>
