<svg width="18" height="11" viewBox="0 0 18 11" fill="none" xmlns="http://www.w3.org/2000/svg">
<path d="M8.9962 3.55347L15.7302 10.2872C15.9152 10.4726 16.1625 10.5746 16.4262 10.5746C16.6901 10.5746 16.9373 10.4726 17.1225 10.2872L17.7123 9.69718C17.8979 9.51205 18 9.26459 18 9.00088C18 8.73718 17.8979 8.49001 17.7123 8.30474L9.69483 0.287126C9.50898 0.101125 9.26063 -0.000728169 8.99663 3.52713e-06C8.73146 -0.000728192 8.48341 0.100979 8.29741 0.287125L0.287708 8.29727C0.102147 8.48254 2.88964e-07 8.72971 2.77431e-07 8.99356C2.65904e-07 9.25727 0.102147 9.50444 0.287708 9.68986L0.877464 10.2798C1.26132 10.6636 1.8862 10.6636 2.2699 10.2798L8.9962 3.55347Z" fill="#484848"/>
</svg>
