<svg id="Слой_8" data-name="Слой 8" xmlns="http://www.w3.org/2000/svg" viewBox="0 0 673.37 179.78"><defs><style>.cls-1{fill:#ebffec;}</style></defs><title>logo-without-squirell</title><path class="cls-1" d="M423.26,443.25v86H394.59V375.07l92.33,87.61V375.61h28.77V529.67Z" transform="translate(-394.59 -349.89)"/><path class="cls-1" d="M918.08,375.39l20.29,28.24H889.85V529.35h-30V403.63H827.36L808,375.39Z" transform="translate(-394.59 -349.89)"/><path class="cls-1" d="M1033.71,438q16.76,0,25.5,9.87t8.75,31a94.43,94.43,0,0,1-2.2,21.26,42.71,42.71,0,0,1-7,15.89,31.38,31.38,0,0,1-12.19,9.87q-7.41,3.45-17.93,3.44H962L943.1,503.8h87.82a9.28,9.28,0,0,0,8-4.46q3-4.45,3.65-16.16-.64-10.95-3.65-14.44a10.1,10.1,0,0,0-8-3.48H981.1a49.27,49.27,0,0,1-15.3-2.1,21.36,21.36,0,0,1-10.68-7.89,39.11,39.11,0,0,1-6.33-14,74.27,74.27,0,0,1-2-18,80,80,0,0,1,2.25-19.7,41.72,41.72,0,0,1,7-15.09,31.56,31.56,0,0,1,12.19-9.66A42.45,42.45,0,0,1,986,375.39h55.51l23.19,28.24h-81a13.37,13.37,0,0,0-7.25,3.76q-2.41,2.69-3.17,15.35,0,7.72,2.37,10.63t8,4.62Z" transform="translate(-394.59 -349.89)"/><g id="Слой_6" data-name="Слой 6"><path class="cls-1" d="M598,529.35A114.82,114.82,0,0,1,563.56,501a90.26,90.26,0,0,1-20.65-44c-.93-5.19-1-11.75-1-24.87,0-3.51-.15-7.1,2.27-9.53,2.14-2.17,5.19-2.38,6.39-2.45,15-.85,44.24-.6,44.24-.6,8.43.07,39.73-.5,50.72.49a9,9,0,0,1,4.73,1.68c3.54,2.75,3.77,8,3.82,10.82.35,22.84-4.09,35.85-4.09,35.85A108.48,108.48,0,0,1,598,529.35Z" transform="translate(-394.59 -349.89)"/><path class="cls-1" d="M552.28,416.14c-3.47,0-11.33-2.25-8-14s12.59-17.78,15.23-19.3A24.54,24.54,0,0,1,569.89,380h55.43c7.45,0,13.18,4.09,16.36,6.49,2.08,2.09,6.41,4.86,10.5,17.49,1.37,4.17.08,12.14-8.9,12.14Z" transform="translate(-394.59 -349.89)"/><path class="cls-1" d="M595.16,380c-1.2-3.45-3.69-8.82-7.46-12.51A68.14,68.14,0,0,0,577,359.17c-1.41-.77-2.93-1.86-2.93-4.23s-.28-2.85,1-3.81,1.07-1.24,3.54-1.24,3.42.11,5.12,1.2a25.85,25.85,0,0,1,7.67,7.57,102.34,102.34,0,0,1,8.66,17.19c.61,2.08,1,3.18,1.2,4.17" transform="translate(-394.59 -349.89)"/></g><g id="Слой_6-2" data-name="Слой 6"><path class="cls-1" d="M736.41,529.35A114.82,114.82,0,0,1,702,501a90.26,90.26,0,0,1-20.65-44c-.93-5.19-1-11.75-1.05-24.87,0-3.51-.14-7.1,2.27-9.53,2.14-2.17,5.19-2.38,6.39-2.45,15-.85,44.24-.6,44.24-.6,8.44.07,39.73-.5,50.72.49a9,9,0,0,1,4.73,1.68c3.54,2.75,3.78,8,3.82,10.82.36,22.84-4.09,35.85-4.09,35.85A108.48,108.48,0,0,1,736.41,529.35Z" transform="translate(-394.59 -349.89)"/><path class="cls-1" d="M690.72,416.14c-3.47,0-11.33-2.25-8-14s12.59-17.78,15.24-19.3A24.45,24.45,0,0,1,708.33,380h55.43c7.46,0,13.18,4.09,16.36,6.49,2.09,2.09,6.41,4.86,10.51,17.49,1.36,4.17.08,12.14-8.91,12.14Z" transform="translate(-394.59 -349.89)"/><path class="cls-1" d="M733.6,380c-1.2-3.45-3.69-8.82-7.45-12.51a68.56,68.56,0,0,0-10.67-8.34c-1.41-.77-2.93-1.86-2.93-4.23s-.28-2.85,1-3.81,1.07-1.24,3.54-1.24,3.42.11,5.12,1.2a25.85,25.85,0,0,1,7.67,7.57,101.57,101.57,0,0,1,8.66,17.19c.62,2.08,1,3.18,1.21,4.17" transform="translate(-394.59 -349.89)"/></g></svg>