<svg id="Слой_8" data-name="Слой 8" xmlns="http://www.w3.org/2000/svg" viewBox="0 0 836.39 179.78"><defs><style>.cls-1{fill:#ebffec;}</style></defs><title>logo</title><path class="cls-1" d="M423.26,443.25v86H394.59V375.07l92.33,87.61V375.61h28.77V529.67Z" transform="translate(-231.57 -349.89)"/><path class="cls-1" d="M918.08,375.39l20.29,28.24H889.85V529.35h-30V403.63H827.36L808,375.39Z" transform="translate(-231.57 -349.89)"/><path class="cls-1" d="M1033.71,438q16.76,0,25.5,9.87t8.75,31a94.43,94.43,0,0,1-2.2,21.26,42.71,42.71,0,0,1-7,15.89,31.38,31.38,0,0,1-12.19,9.87q-7.41,3.45-17.93,3.44H962L943.1,503.8h87.82a9.28,9.28,0,0,0,8-4.46q3-4.45,3.65-16.16-.64-10.95-3.65-14.44a10.1,10.1,0,0,0-8-3.48H981.1a49.27,49.27,0,0,1-15.3-2.1,21.36,21.36,0,0,1-10.68-7.89,39.11,39.11,0,0,1-6.33-14,74.27,74.27,0,0,1-2-18,80,80,0,0,1,2.25-19.7,41.72,41.72,0,0,1,7-15.09,31.56,31.56,0,0,1,12.19-9.66A42.45,42.45,0,0,1,986,375.39h55.51l23.19,28.24h-81a13.37,13.37,0,0,0-7.25,3.76q-2.41,2.69-3.17,15.35,0,7.72,2.37,10.63t8,4.62Z" transform="translate(-231.57 -349.89)"/><g id="Слой_6" data-name="Слой 6"><path class="cls-1" d="M598,529.35A114.82,114.82,0,0,1,563.56,501a90.26,90.26,0,0,1-20.65-44c-.93-5.19-1-11.75-1-24.87,0-3.51-.15-7.1,2.27-9.53,2.14-2.17,5.19-2.38,6.39-2.45,15-.85,44.24-.6,44.24-.6,8.43.07,39.73-.5,50.72.49a9,9,0,0,1,4.73,1.68c3.54,2.75,3.77,8,3.82,10.82.35,22.84-4.09,35.85-4.09,35.85A108.48,108.48,0,0,1,598,529.35Z" transform="translate(-231.57 -349.89)"/><path class="cls-1" d="M552.28,416.14c-3.47,0-11.33-2.25-8-14s12.59-17.78,15.23-19.3A24.54,24.54,0,0,1,569.89,380h55.43c7.45,0,13.18,4.09,16.36,6.49,2.08,2.09,6.41,4.86,10.5,17.49,1.37,4.17.08,12.14-8.9,12.14Z" transform="translate(-231.57 -349.89)"/><path class="cls-1" d="M595.16,380c-1.2-3.45-3.69-8.82-7.46-12.51A68.14,68.14,0,0,0,577,359.17c-1.41-.77-2.93-1.86-2.93-4.23s-.28-2.85,1-3.81,1.07-1.24,3.54-1.24,3.42.11,5.12,1.2a25.85,25.85,0,0,1,7.67,7.57,102.34,102.34,0,0,1,8.66,17.19c.61,2.08,1,3.18,1.2,4.17" transform="translate(-231.57 -349.89)"/></g><g id="Слой_6-2" data-name="Слой 6"><path class="cls-1" d="M736.41,529.35A114.82,114.82,0,0,1,702,501a90.26,90.26,0,0,1-20.65-44c-.93-5.19-1-11.75-1.05-24.87,0-3.51-.14-7.1,2.27-9.53,2.14-2.17,5.19-2.38,6.39-2.45,15-.85,44.24-.6,44.24-.6,8.44.07,39.73-.5,50.72.49a9,9,0,0,1,4.73,1.68c3.54,2.75,3.78,8,3.82,10.82.36,22.84-4.09,35.85-4.09,35.85A108.48,108.48,0,0,1,736.41,529.35Z" transform="translate(-231.57 -349.89)"/><path class="cls-1" d="M690.72,416.14c-3.47,0-11.33-2.25-8-14s12.59-17.78,15.24-19.3A24.45,24.45,0,0,1,708.33,380h55.43c7.46,0,13.18,4.09,16.36,6.49,2.09,2.09,6.41,4.86,10.51,17.49,1.36,4.17.08,12.14-8.91,12.14Z" transform="translate(-231.57 -349.89)"/><path class="cls-1" d="M733.6,380c-1.2-3.45-3.69-8.82-7.45-12.51a68.56,68.56,0,0,0-10.67-8.34c-1.41-.77-2.93-1.86-2.93-4.23s-.28-2.85,1-3.81,1.07-1.24,3.54-1.24,3.42.11,5.12,1.2a25.85,25.85,0,0,1,7.67,7.57,101.57,101.57,0,0,1,8.66,17.19c.62,2.08,1,3.18,1.21,4.17" transform="translate(-231.57 -349.89)"/></g><path class="cls-1" d="M242.28,410c4.92-3.05,10-5.74,14.61-9.15,8.38-6.24,11.05-14.77,8.79-24.92a11.41,11.41,0,0,1-.31-3.58c.22-2,1.65-2.83,3.48-2a9.62,9.62,0,0,1,3.06,2.07,31.94,31.94,0,0,1,7.94,14.51,1.71,1.71,0,0,0,.15.42,100.39,100.39,0,0,1,3.31-10.08c4.33-9.79,11.77-16.69,21.14-21.57a45.17,45.17,0,0,1,23.82-5.42A34,34,0,0,1,340.74,354c5.65,2.63,10.92,5.81,15,10.69a18.36,18.36,0,0,1,2,3,17.65,17.65,0,0,0-7.84-1.1c6.57,5.08,11.33,11.18,13.06,19.25s-.37,15.57-4.37,22.87a26.73,26.73,0,0,0-4.21-8.58,15.52,15.52,0,0,0-1.56-1.73c2.34,7.25-1.22,12.51-5.76,17.46a8.23,8.23,0,0,0,.15-6.63,10.52,10.52,0,0,0-4.36-5.21,10.35,10.35,0,0,0-11-.12c-4.25,2.29-7,6-9.36,10.08-3.89,6.68-3.67,13.46-.88,20.48A39.12,39.12,0,0,0,328,444.75a86,86,0,0,1,13.72,22.32c5.63,13.89,4.73,27.46-1.56,40.95-4.52,9.69-12.38,15.05-22.16,18.15a82.27,82.27,0,0,1-23.54,3.49,148.86,148.86,0,0,1-18-.94,47,47,0,0,0-14.24.75c-2.19.44-5.74-1.91-6-4.16a3.68,3.68,0,0,1,.81-2.39c3.64-4.64,6.35-6.34,12.81-8.22-.42-.3-.77-.53-1.09-.78l-6.06-4.83a12.42,12.42,0,0,0-1.28-.91,26,26,0,0,1-7.35-6.06c-4.73-6-3.49-13.38,3-17.43a1.85,1.85,0,0,0,1-1.92c-.07-2.46,0-4.92,0-7.65l-3.58,1.17c-.47-2.41.12-6.64,2-13.73-1.15.13-2.25.31-3.36.35a2.56,2.56,0,0,1-1.32-.48c-.66-.43-1.24-1-1.88-1.43-1.8-1.29-3.66-2.49-5.39-3.86a4.92,4.92,0,0,1-1-2c-.37-.91-.58-1.89-1-2.76-.58-1.16-1.35-2.21-1.95-3.35-.88-1.67-1.7-3.2-3.63-4.11a4.74,4.74,0,0,1-1.8-6.52,1.7,1.7,0,0,0,0-1.33,52.54,52.54,0,0,1-3.5-20.52c.16-6,.38-12,1.92-17.91a13.08,13.08,0,0,1,2.07-4.18c1-1.44,2.36-1.14,2.75.59s.44,3.36.66,5a28.45,28.45,0,0,0,2.86,9.21A7.82,7.82,0,0,0,242.28,410Zm63.94-5.38c5.6-12.11,18.56-15.55,20.58-16.05,9.77-2.37,18,.85,20.67,1.94a36,36,0,0,1,10,6.19,21.21,21.21,0,0,0-.51-11.83,21.64,21.64,0,0,0-8.21-10.62c-8.37-6-17.91-4.1-19.65-3.72a17.62,17.62,0,0,1,7.37-8.34c-.41-.2-.64-.35-.89-.44a35.61,35.61,0,0,0-19.09-1.67c-7.8,1.5-14.11,5.56-19.46,11.31a33.47,33.47,0,0,0-9.4,25.65,54.77,54.77,0,0,0,6.82,23.57,99.06,99.06,0,0,1,10,25,68.78,68.78,0,0,1,1.51,26C304,485,297.66,496,287.55,505a7.14,7.14,0,0,1-.77.55,1,1,0,0,1,.26-.63c11.21-13.35,15.19-28.81,13.27-45.91a76.57,76.57,0,0,0-8.88-27.28c-.69-1.32-1.44-2.62-2.16-3.93a17.74,17.74,0,0,1-2.38,9.19c-3.15,5.22-7.92,6.13-15.89,12.86,0,0-4.7,4-5.58,8.28a1,1,0,0,0,0,.17A2.79,2.79,0,0,1,264,460c-.59.33-1.43.6-1.66,1.12-1.19,2.66-2.22,5.39-3.35,8.23l4.68-1.27a28.51,28.51,0,0,0-1.12,13.22,37,37,0,0,0,4.28-6.94,37.63,37.63,0,0,0,2.57-7.21,18.72,18.72,0,0,1-1.27,12,28,28,0,0,1-8,9.62,16.81,16.81,0,0,0-3.55,4,4.18,4.18,0,0,0,1.09,5.94,40.81,40.81,0,0,1,2.29-5.14,18.16,18.16,0,0,1,9.35-7.21,13.7,13.7,0,0,0,7.79-7.84c.17-.39.36-.78.54-1.16a8.5,8.5,0,0,1,5.13,3.72c3.11-4.55,3.73-9.5,3.55-14.63a61.2,61.2,0,0,0-2.72-14.92,43.8,43.8,0,0,1,2.84,5.26,42.54,42.54,0,0,1,2.24,6.22,31,31,0,0,1-.68,19,28.2,28.2,0,0,1-3.75,6.78l-.93-2.62c-2,4.32-5.44,6.31-9.49,7.43l1-3.16-.35-.23c-1.08.32-2.19.56-3.23,1-5.46,2.09-7.16,6.48-4.58,11.7a19.74,19.74,0,0,0,5.69,6.69c3.23,2.54,6.62,4.85,10.81,5.43a38.44,38.44,0,0,0,13.85-.83c6.13-1.42,11.74-3.89,16.21-8.48a20.79,20.79,0,0,0,5.56-10.36l-5.63,1.71-.16-.34.63-.83a42.05,42.05,0,0,0,3.56-47.14c-.78-1.4-.51-.77-3.22-5.28-2.84-4.72-5-8.46-5.29-9.08C299.85,418.42,306.22,404.63,306.22,404.63Zm-36.85-26.55c.09.84.2,1.67.28,2.51a24.17,24.17,0,0,1,.14,2.54c-.35,10.42-5.46,17.82-14.44,22.77-2.79,1.54-5.67,2.94-8.36,4.65a18.56,18.56,0,0,0-8.46,11.26c-2.81,10.89-.12,20.76,5.65,30a1.24,1.24,0,0,0,1.15.28c2-.73,3.95-1.46,5.84-2.37a1.9,1.9,0,0,1,2.78.73,6.92,6.92,0,0,1,.77,2.43,10.85,10.85,0,0,1-.12,2c0,.78-.06,1.18.14,1.4s.86.32,1.47.29,1.86-.09,3.32-.1c5.05-5.45,9.26-9.74,12.18-12.65,5.62-5.6,10.38-10,11.09-15.54a10.48,10.48,0,0,0-.89-6.25,9.65,9.65,0,0,0-2.93-3.39c-3.2-2.37-6.72-2.31-10.18-.5s-5.63,4.89-7.93,7.81c2.34,4.05,2,6.46-1.44,9.48-1.3,1.13-2.86,2-4.23,3a3.4,3.4,0,0,0-1.2,1.52c-.6,1.85-1.05,3.75-1.56,5.67a1.19,1.19,0,0,1-.09-.27c0-.24,0-.49,0-.73.61-8.13,2.58-15.87,6.81-22.9,3-5,6.19-9.95,9.31-14.91a28.16,28.16,0,0,0,.88-28.83Zm10.94,22.06c-2,3.19-2.26,7-.56,9.74a8.07,8.07,0,0,0,3.57,3.07Q281.81,406.55,280.31,400.14Zm-29,51.15c-1.75.73-3.47,1.5-5.23,2.15-1.07.39-1.49,1-1,2.16,1.66-.61,3.29-1.32,5-1.8C251.4,453.41,251.68,452.65,251.27,451.29Z" transform="translate(-231.57 -349.89)"/></svg>