<svg width="41" height="44" viewBox="0 0 41 44" fill="none" xmlns="http://www.w3.org/2000/svg">
<path fill-rule="evenodd" clip-rule="evenodd" d="M22.6142 2.58097C22.6142 2.87107 22.5663 3.15 22.4781 3.41028C28.9823 4.56541 33.9213 10.2478 33.9213 17.0839C33.9213 17.1246 33.9211 17.1653 33.9208 17.206H33.9211V24.9321L39.6066 32.2592C39.8918 32.5662 40.0663 32.9777 40.0663 33.4298C40.0663 34.38 39.2962 35.1502 38.3461 35.1505V35.1524H1.47508V35.1331C0.641117 35.0139 0 34.2967 0 33.4298C0 32.9797 0.172861 32.5699 0.455824 32.2633L6.14515 25.0074V17.0839V16.7152H6.14995C6.32377 10.0444 11.2014 4.54459 17.5884 3.41028C17.5001 3.15 17.4522 2.87107 17.4522 2.58097C17.4522 1.15554 18.6078 0 20.0332 0C21.4587 0 22.6142 1.15554 22.6142 2.58097ZM30.726 30.9716V30.9719H31.4636V30.9716H30.726ZM3.42389 33.1842H36.6424L36.6421 33.186H3.42414L3.42389 33.1842ZM24.6393 42.0916C25.8609 40.87 26.5472 39.2132 26.5472 37.4856H20.0333L13.5194 37.4856C13.5194 39.2132 14.2057 40.87 15.4273 42.0916C16.6489 43.3132 18.3057 43.9994 20.0333 43.9994C21.7609 43.9994 23.4177 43.3132 24.6393 42.0916Z" fill="#FBFBFB"/>
</svg>
