<svg width="17" height="15" viewBox="0 0 17 15" fill="none" xmlns="http://www.w3.org/2000/svg">
<path d="M8.33335 11.0003C9.80611 11.0003 11 9.80642 11 8.33366C11 6.8609 9.80611 5.66699 8.33335 5.66699C6.86059 5.66699 5.66669 6.8609 5.66669 8.33366C5.66669 9.80642 6.86059 11.0003 8.33335 11.0003Z" fill="#383838"/>
<path d="M5.83333 0L4.33333 1.66667H1.66667C0.75 1.66667 0 2.41667 0 3.33333V13.3333C0 14.25 0.75 15 1.66667 15H15C15.9167 15 16.6667 14.25 16.6667 13.3333V3.33333C16.6667 2.41667 15.9167 1.66667 15 1.66667H12.3333L10.8333 0H5.83333ZM8.33333 12.5C6 12.5 4.16667 10.6667 4.16667 8.33333C4.16667 6 6 4.16667 8.33333 4.16667C10.6667 4.16667 12.5 6 12.5 8.33333C12.5 10.6667 10.6667 12.5 8.33333 12.5Z" fill="#414141"/>
</svg>
