<svg width="33" height="33" viewBox="0 0 33 33" fill="none" xmlns="http://www.w3.org/2000/svg">
<path fill-rule="evenodd" clip-rule="evenodd" 
d="M32.1267 12.2558C32.1267 19.0245 26.6396 24.5116 19.8708 24.5116C17.4946 24.5116 15.2763 23.8354 13.3979 22.6648L3.69706 32.3656C2.85131 33.2114 1.48007 33.2114 0.634315 32.3656C-0.211438 31.5199 -0.211438 30.1486 0.634315 29.3029L10.1789 19.7583C8.57172 17.685 7.61502 15.0821 7.61502 12.2558C7.61502 5.48712 13.1021 0 19.8708 0C26.6396 0 32.1267 5.48712 32.1267 12.2558ZM28.3844 12.2566C28.3844 16.9593 24.5721 20.7717 19.8693 20.7717C15.1666 20.7717 11.3542 16.9593 11.3542 12.2566C11.3542 7.55383 15.1666 3.74149 19.8693 3.74149C24.5721 3.74149 28.3844 7.55383 28.3844 12.2566Z" 
fill="#ffffff"/>
</svg>
