<svg width="14" height="18" viewBox="0 0 14 18" fill="none" xmlns="http://www.w3.org/2000/svg">
<rect x="3.85742" width="6.10729" height="10.9288" rx="3.05364" fill="#484848"/>
<path d="M13.5003 7.39274C13.5003 8.27918 13.3257 9.15694 12.9865 9.97591C12.6473 10.7949 12.1501 11.539 11.5232 12.1658C10.8964 12.7926 10.1523 13.2898 9.33333 13.6291C8.51437 13.9683 7.6366 14.1429 6.75016 14.1429C5.86371 14.1429 4.98595 13.9683 4.16698 13.6291C3.34802 13.2898 2.60389 12.7926 1.97708 12.1658C1.35027 11.539 0.853052 10.7949 0.513825 9.97591C0.174598 9.15694 -7.74953e-08 8.27918 0 7.39274L1.42894 7.39274C1.42894 8.09153 1.56658 8.78348 1.834 9.42908C2.10141 10.0747 2.49337 10.6613 2.98749 11.1554C3.48161 11.6495 4.06822 12.0415 4.71382 12.3089C5.35942 12.5763 6.05137 12.714 6.75016 12.714C7.44895 12.714 8.1409 12.5763 8.7865 12.3089C9.4321 12.0415 10.0187 11.6495 10.5128 11.1554C11.0069 10.6613 11.3989 10.0747 11.6663 9.42908C11.9337 8.78348 12.0714 8.09153 12.0714 7.39274L13.5003 7.39274Z" fill="#484848"/>
<rect x="6.10742" y="13.8223" width="1.28574" height="3.5358" fill="#484848"/>
<rect x="9.64331" y="16.7148" width="1.28574" height="5.46441" transform="rotate(90 9.64331 16.7148)" fill="#484848"/>
</svg>
