<svg width="18" height="18" viewBox="0 0 18 18" fill="none" xmlns="http://www.w3.org/2000/svg">
<path d="M16.3121 4.46005L11.9596 0.107613C11.8907 0.038707 11.7973 0 11.6999 0H3.36513C2.38069 0 1.57983 0.800928 1.57983 1.78537V16.2147C1.57983 17.1991 2.38073 18 3.36517 18H14.6344C15.6188 18 16.4197 17.1991 16.4197 16.2147V4.71982C16.4197 4.62241 16.381 4.52896 16.3121 4.46005ZM12.0673 1.25434L15.1655 4.35251H13.118C12.8373 4.35251 12.5734 4.24321 12.375 4.04479C12.1766 3.8464 12.0673 3.58256 12.0673 3.3019V1.25434ZM15.685 16.2146C15.685 16.794 15.2137 17.2653 14.6344 17.2653H3.36513C2.7858 17.2653 2.31449 16.794 2.31449 16.2146V1.78537C2.31453 1.20603 2.78583 0.734694 3.36513 0.734694H11.3326V3.30183C11.3325 3.77873 11.5182 4.22707 11.8554 4.56426C12.1926 4.90148 12.641 5.08717 13.1179 5.08717H15.685V16.2146H15.685Z" fill="#484848"/>
<path d="M9.67121 12.3574H9.50675C9.3039 12.3574 9.1394 12.5219 9.1394 12.7248C9.1394 12.9277 9.3039 13.0921 9.50675 13.0921H9.67121C9.87406 13.0921 10.0386 12.9277 10.0386 12.7248C10.0386 12.5219 9.87406 12.3574 9.67121 12.3574Z" fill="#484848"/>
<path d="M8.31823 12.3574H4.75016C4.54731 12.3574 4.38281 12.5219 4.38281 12.7248C4.38281 12.9277 4.54731 13.0921 4.75016 13.0921H8.31823C8.52108 13.0921 8.68558 12.9277 8.68558 12.7248C8.68558 12.5219 8.52112 12.3574 8.31823 12.3574Z" fill="#484848"/>
<path d="M13.2499 10.6787H4.7504C4.54755 10.6787 4.38306 10.8432 4.38306 11.0461C4.38306 11.2489 4.54755 11.4134 4.7504 11.4134H13.2499C13.4527 11.4134 13.6172 11.2489 13.6172 11.0461C13.6172 10.8432 13.4527 10.6787 13.2499 10.6787Z" fill="#484848"/>
<path d="M13.2499 9H4.7504C4.54755 9 4.38306 9.16446 4.38306 9.36735C4.38306 9.57023 4.54755 9.73469 4.7504 9.73469H13.2499C13.4527 9.73469 13.6172 9.57023 13.6172 9.36735C13.6172 9.16446 13.4527 9 13.2499 9Z" fill="#484848"/>
<path d="M13.2499 7.32129H4.7504C4.54755 7.32129 4.38306 7.48575 4.38306 7.68864C4.38306 7.89152 4.54755 8.05598 4.7504 8.05598H13.2499C13.4527 8.05598 13.6172 7.89152 13.6172 7.68864C13.6172 7.48575 13.4527 7.32129 13.2499 7.32129Z" fill="#484848"/>
</svg>
