<svg width="18" height="11" viewBox="0 0 18 11" fill="none" xmlns="http://www.w3.org/2000/svg">
<path d="M9.0038 7.02075L2.26976 0.286993C2.08478 0.101579 1.83746 -0.000420898 1.57376 -0.000420887C1.3099 -0.000420875 1.06273 0.101579 0.877463 0.286993L0.287707 0.877042C0.102146 1.06216 -4.04968e-07 1.30963 -3.93441e-07 1.57334C-3.81914e-07 1.83704 0.102146 2.08421 0.287707 2.26948L8.30517 10.2871C8.49102 10.4731 8.73937 10.5749 9.00337 10.5742C9.26854 10.5749 9.51659 10.4732 9.70259 10.2871L17.7123 2.27694C17.8979 2.09168 18 1.84451 18 1.58065C18 1.31694 17.8979 1.06977 17.7123 0.884359L17.1225 0.294456C16.7387 -0.0893972 16.1138 -0.0893972 15.7301 0.294457L9.0038 7.02075Z" fill="#484848"/>
</svg>
