<svg width="289" height="203" viewBox="0 0 289 203" fill="none" xmlns="http://www.w3.org/2000/svg">
<path d="M279 0H11C5.47715 0 1 4.47715 1 9.99999V40.6976C1 46.2205 5.47715 50.6976 11 50.6976H279C284.523 50.6976 289 46.2205 289 40.6976V10C289 4.47715 284.523 0 279 0Z" fill="white"/>
<path d="M191.716 20H25C23.3431 20 22 21.3431 22 23V27.3114C22 28.9682 23.3431 30.3114 25 30.3114H191.716C193.372 30.3114 194.716 28.9682 194.716 27.3114V23C194.716 21.3431 193.372 20 191.716 20Z" fill="#D2D2D2"/>
<path d="M221.536 28.5355C223.488 30.4882 226.654 30.4882 228.607 28.5355C230.559 26.5829 230.559 23.4171 228.607 21.4645C226.654 19.5118 223.488 19.5118 221.536 21.4645C219.583 23.4171 219.583 26.5829 221.536 28.5355Z" fill="#4A85DF"/>
<path d="M266.727 20.3431L261.07 26L266.727 31.6569L272.384 26L266.727 20.3431Z" fill="#4A85DF"/>
<line x1="246.57" y1="15" x2="246.57" y2="35" stroke="#C6C6C6"/>
<path d="M278 75.6973H10C4.47715 75.6973 0 80.1744 0 85.6973V116.395C0 121.918 4.47715 126.395 10 126.395H278C283.523 126.395 288 121.918 288 116.395V85.6973C288 80.1744 283.523 75.6973 278 75.6973Z" fill="white"/>
<path d="M190.716 95.6973H24C22.3431 95.6973 21 97.0404 21 98.6973V103.009C21 104.665 22.3431 106.009 24 106.009H190.716C192.372 106.009 193.716 104.665 193.716 103.009V98.6973C193.716 97.0404 192.372 95.6973 190.716 95.6973Z" fill="#D2D2D2"/>
<path d="M220.536 104.233C222.488 106.185 225.654 106.185 227.607 104.233C229.559 102.28 229.559 99.1144 227.607 97.1617C225.654 95.2091 222.488 95.2091 220.536 97.1617C218.583 99.1144 218.583 102.28 220.536 104.233Z" fill="#4A85DF"/>
<path d="M265.727 96.0404L260.07 101.697L265.727 107.354L271.384 101.697L265.727 96.0404Z" fill="#4A85DF"/>
<line x1="245.57" y1="90.6973" x2="245.57" y2="110.697" stroke="#C6C6C6"/>
<path d="M278 151.395H10C4.47715 151.395 0 155.872 0 161.395V192.092C0 197.615 4.47715 202.092 10 202.092H278C283.523 202.092 288 197.615 288 192.092V161.395C288 155.872 283.523 151.395 278 151.395Z" fill="white"/>
<path d="M190.716 171.395H24C22.3431 171.395 21 172.738 21 174.395V178.706C21 180.363 22.3431 181.706 24 181.706H190.716C192.372 181.706 193.716 180.363 193.716 178.706V174.395C193.716 172.738 192.372 171.395 190.716 171.395Z" fill="#D2D2D2"/>
<path d="M220.536 179.93C222.488 181.883 225.654 181.883 227.607 179.93C229.559 177.977 229.559 174.812 227.607 172.859C225.654 170.906 222.488 170.906 220.536 172.859C218.583 174.812 218.583 177.977 220.536 179.93Z" fill="#4A85DF"/>
<path d="M265.727 171.738L260.07 177.395L265.727 183.051L271.384 177.395L265.727 171.738Z" fill="#4A85DF"/>
<line x1="245.57" y1="166.395" x2="245.57" y2="186.395" stroke="#C6C6C6"/>
</svg>
