<svg width="19" height="16" viewBox="0 0 19 16" xmlns="http://www.w3.org/2000/svg">
<path fill-rule="evenodd" clip-rule="evenodd" d="M14.6475 16C16.1953 16 17.3782 14.68 17.3782 13.1429V4.57143H1.15855V13.1429C1.15855 14.68 2.34143 16 3.88925 16H14.6475ZM6.95129 6.85714C6.79766 6.85714 6.65032 6.91735 6.54168 7.02451C6.43305 7.13167 6.37202 7.27702 6.37202 7.42857C6.37202 7.58012 6.43305 7.72547 6.54168 7.83263C6.65032 7.9398 6.79766 8 6.95129 8H11.5855C11.7391 8 11.8865 7.9398 11.9951 7.83263C12.1037 7.72547 12.1648 7.58012 12.1648 7.42857C12.1648 7.27702 12.1037 7.13167 11.9951 7.02451C11.8865 6.91735 11.7391 6.85714 11.5855 6.85714H6.95129ZM0.926839 0C0.681026 0 0.445281 0.0963262 0.271465 0.267788C0.0976488 0.43925 0 0.671802 0 0.914286L0 2.28571C0 2.5282 0.0976488 2.76075 0.271465 2.93221C0.445281 3.10367 0.681026 3.2 0.926839 3.2H17.6099C17.8557 3.2 18.0915 3.10367 18.2653 2.93221C18.4391 2.76075 18.5368 2.5282 18.5368 2.28571V0.914286C18.5368 0.671802 18.4391 0.43925 18.2653 0.267788C18.0915 0.0963262 17.8557 0 17.6099 0H0.926839Z"/>
</svg>
