<svg width="404" height="284" viewBox="0 0 404 284" fill="none" xmlns="http://www.w3.org/2000/svg">
<g filter="url(#filter0_d)">
<path d="M52.5391 93.3391L186.59 71.5254V198.439L59.2242 191.771L52.5391 93.3391Z" fill="#4A85DF"/>
<path opacity="0.05" d="M52.5391 93.3391L186.59 71.5254V198.439L59.2242 191.771L52.5391 93.3391Z" fill="black"/>
<path d="M186.59 71.5254L347.346 83.5552L338.45 193.999L186.59 198.439V71.5254Z" fill="#4A85DF"/>
<path opacity="0.1" d="M186.59 71.5254L347.346 83.5552L338.45 193.999L186.59 198.439V71.5254Z" fill="black"/>
<path d="M236.015 32.793L186.59 71.5285L347.347 83.5582L373.617 43.9175L236.015 32.793Z" fill="#4A85DF"/>
<path d="M4 51.0352L124.681 36.3418L186.588 71.5258L52.5369 93.3395L4 51.0352Z" fill="#4A85DF"/>
<path d="M189.628 103.704L126.15 30.0243C120.743 23.748 111.976 23.748 106.569 30.0243L69.534 73.0107C64.1268 79.2869 64.1268 89.4627 69.534 95.7389L133.012 169.418C138.419 175.695 147.186 175.695 152.593 169.418L189.628 126.432C195.035 120.156 195.035 109.98 189.628 103.704Z" fill="white"/>
<path d="M109.467 58.4028C110.278 59.3442 111.593 59.3442 112.404 58.4028C113.215 57.4614 113.215 55.9351 112.404 54.9937C111.593 54.0522 110.278 54.0522 109.467 54.9937C108.656 55.9351 108.656 57.4614 109.467 58.4028Z" fill="#4A85DF"/>
<path d="M100.311 69.028C101.122 69.9695 102.437 69.9695 103.248 69.028C104.059 68.0866 104.059 66.5602 103.248 65.6187C102.437 64.6773 101.122 64.6773 100.311 65.6187C99.4997 66.5602 99.4997 68.0866 100.311 69.028Z" fill="#4A85DF"/>
<path d="M90.8204 80.0453C91.6315 80.9867 92.9466 80.9867 93.7577 80.0453C94.5688 79.1039 94.5688 77.5776 93.7577 76.6362C92.9466 75.6948 91.6315 75.6948 90.8204 76.6362C90.0093 77.5776 90.0093 79.1039 90.8204 80.0453Z" fill="#4A85DF"/>
<path d="M168.569 122.548L122.463 69.0312L120.768 70.9988L166.874 124.515L168.569 122.548Z" fill="#D2D2D2"/>
<path d="M159.413 133.17L113.307 79.6543L111.612 81.6218L157.718 135.138L159.413 133.17Z" fill="#D2D2D2"/>
<path d="M150.599 143.403L104.492 89.8867L102.458 92.2477L148.565 145.764L150.599 143.403Z" fill="#D2D2D2"/>
<path d="M179.49 105.318L124.757 41.7885C123.676 40.5332 121.922 40.5332 120.841 41.7884L118.316 44.7193C117.234 45.9745 117.234 48.0097 118.316 49.265L173.049 112.795C174.131 114.05 175.884 114.05 176.965 112.795L179.49 109.864C180.572 108.609 180.572 106.574 179.49 105.318Z" fill="#D2D2D2"/>
<path d="M332.603 99.0395L269.125 25.3602C263.717 19.084 254.951 19.084 249.543 25.3602L212.509 68.3465C207.101 74.6227 207.101 84.7985 212.509 91.0747L275.987 164.754C281.394 171.03 290.161 171.03 295.568 164.754L332.603 121.768C338.01 115.492 338.01 105.316 332.603 99.0395Z" fill="white"/>
<path d="M252.443 53.7388C253.255 54.6802 254.57 54.6802 255.381 53.7388C256.192 52.7973 256.192 51.271 255.381 50.3296C254.57 49.3882 253.255 49.3882 252.443 50.3296C251.632 51.271 251.632 52.7973 252.443 53.7388Z" fill="#4A85DF"/>
<path d="M243.285 64.3621C244.096 65.3036 245.411 65.3036 246.222 64.3621C247.033 63.4206 247.033 61.8942 246.222 60.9527C245.411 60.0113 244.096 60.0113 243.285 60.9527C242.474 61.8942 242.474 63.4206 243.285 64.3621Z" fill="#4A85DF"/>
<path d="M233.795 75.3813C234.606 76.3228 235.921 76.3228 236.732 75.3813C237.543 74.4399 237.543 72.9136 236.732 71.9722C235.921 71.0307 234.606 71.0307 233.795 71.9722C232.984 72.9136 232.984 74.4399 233.795 75.3813Z" fill="#4A85DF"/>
<path d="M311.544 117.881L265.438 64.3652L263.742 66.3327L309.848 119.849L311.544 117.881Z" fill="#D2D2D2"/>
<path d="M302.39 128.506L256.283 74.9902L254.588 76.9577L300.695 130.474L302.39 128.506Z" fill="#D2D2D2"/>
<path d="M293.574 138.737L247.467 85.2207L245.433 87.5817L291.539 141.098L293.574 138.737Z" fill="#D2D2D2"/>
<path d="M322.465 100.654L267.732 37.1244C266.65 35.8691 264.897 35.8691 263.815 37.1244L261.29 40.0552C260.209 41.3105 260.209 43.3456 261.29 44.6009L316.024 108.131C317.105 109.386 318.859 109.386 319.94 108.131L322.465 105.2C323.547 103.945 323.547 101.909 322.465 100.654Z" fill="#D2D2D2"/>
<g filter="url(#filter1_d)">
<path d="M261.98 85.0434L198.502 11.3641C193.094 5.08788 184.328 5.08787 178.92 11.3641L141.886 54.3504C136.478 60.6266 136.478 70.8024 141.886 77.0786L205.364 150.758C210.771 157.034 219.538 157.034 224.945 150.758L261.98 107.772C267.387 101.495 267.387 91.3197 261.98 85.0434Z" fill="white"/>
<path d="M181.703 39.8711C182.514 40.8125 183.854 40.7829 184.697 39.8049C185.539 38.827 185.565 37.271 184.754 36.3296C183.943 35.3882 182.602 35.4178 181.76 36.3958C180.917 37.3737 180.891 38.9297 181.703 39.8711Z" fill="#4A85DF"/>
<path d="M172.548 50.4983C173.359 51.4398 174.7 51.4101 175.542 50.4321C176.385 49.4541 176.41 47.8981 175.599 46.9566C174.788 46.0152 173.448 46.0448 172.605 47.0228C171.763 48.0008 171.737 49.5568 172.548 50.4983Z" fill="#4A85DF"/>
<path d="M163.058 61.5176C163.869 62.459 165.21 62.4294 166.052 61.4514C166.895 60.4735 166.92 58.9175 166.109 57.9761C165.298 57.0347 163.958 57.0643 163.115 58.0422C162.272 59.0202 162.247 60.5762 163.058 61.5176Z" fill="#4A85DF"/>
<path d="M240.919 103.885L194.812 50.3691L193.117 52.3366L239.223 105.853L240.919 103.885Z" fill="#D2D2D2"/>
<path d="M231.765 114.51L185.658 60.9941L183.963 62.9616L230.07 116.478L231.765 114.51Z" fill="#D2D2D2"/>
<path d="M222.951 124.741L176.844 71.2246L174.81 73.5856L220.916 127.102L222.951 124.741Z" fill="#D2D2D2"/>
<path d="M251.842 86.656L197.109 23.1263C196.027 21.8711 194.274 21.8711 193.192 23.1263L190.667 26.0572C189.586 27.3124 189.586 29.3476 190.667 30.6028L245.401 94.1324C246.482 95.3877 248.236 95.3877 249.317 94.1324L251.842 91.2016C252.923 89.9463 252.923 87.9112 251.842 86.656Z" fill="#D2D2D2"/>
</g>
<path d="M215.977 104.48V277.997L153.182 271.556L125.867 268.771L117.545 267.9L90.2474 265.097L52.5391 261.232V93.3379L186.573 102.46L215.977 104.48Z" fill="#4A85DF"/>
<path d="M347.345 83.5566V252.774L297.015 262.436L272.537 267.137L215.975 278V104.483L347.345 83.5566Z" fill="#4A85DF"/>
<path opacity="0.05" d="M347.345 83.5566V252.774L297.015 262.436L272.537 267.137L215.975 278V104.483L347.345 83.5566Z" fill="black"/>
<path d="M4 129.862L52.5369 93.3379L215.975 104.48L191.915 145.008L4 129.862Z" fill="#4A85DF"/>
<path opacity="0.1" d="M4 129.862L52.5369 93.3379L215.975 104.48L191.915 145.008L4 129.862Z" fill="white"/>
<path d="M347.345 83.5566L215.975 104.483L258.732 142.783L399.45 119.176L347.345 83.5566Z" fill="#4A85DF"/>
<path opacity="0.1" d="M347.345 83.5566L215.975 104.483L258.732 142.783L399.45 119.176L347.345 83.5566Z" fill="white"/>
<path opacity="0.1" d="M297.015 262.434L272.537 267.134V230.975L295.465 225.195L297.015 262.434Z" fill="white"/>
<path opacity="0.1" d="M153.178 247.637V271.557L125.863 268.772V247.637H153.178Z" fill="white"/>
<path opacity="0.1" d="M117.542 255.174V267.9L90.2441 265.097V255.174H117.542Z" fill="white"/>
</g>
<defs>
<filter id="filter0_d" x="0" y="4.65625" width="403.45" height="279.344" filterUnits="userSpaceOnUse" color-interpolation-filters="sRGB">
<feFlood flood-opacity="0" result="BackgroundImageFix"/>
<feColorMatrix in="SourceAlpha" type="matrix" values="0 0 0 0 0 0 0 0 0 0 0 0 0 0 0 0 0 0 127 0" result="hardAlpha"/>
<feOffset dy="2"/>
<feGaussianBlur stdDeviation="2"/>
<feColorMatrix type="matrix" values="0 0 0 0 0 0 0 0 0 0 0 0 0 0 0 0 0 0 0.25 0"/>
<feBlend mode="normal" in2="BackgroundImageFix" result="effect1_dropShadow"/>
<feBlend mode="normal" in="SourceGraphic" in2="effect1_dropShadow" result="shape"/>
</filter>
<filter id="filter1_d" x="133.83" y="2.65625" width="136.205" height="156.808" filterUnits="userSpaceOnUse" color-interpolation-filters="sRGB">
<feFlood flood-opacity="0" result="BackgroundImageFix"/>
<feColorMatrix in="SourceAlpha" type="matrix" values="0 0 0 0 0 0 0 0 0 0 0 0 0 0 0 0 0 0 127 0" result="hardAlpha"/>
<feOffset/>
<feGaussianBlur stdDeviation="2"/>
<feColorMatrix type="matrix" values="0 0 0 0 0 0 0 0 0 0 0 0 0 0 0 0 0 0 0.1 0"/>
<feBlend mode="normal" in2="BackgroundImageFix" result="effect1_dropShadow"/>
<feBlend mode="normal" in="SourceGraphic" in2="effect1_dropShadow" result="shape"/>
</filter>
</defs>
</svg>
