<svg width="404" height="286" viewBox="0 0 404 286" fill="none" xmlns="http://www.w3.org/2000/svg">
<g filter="url(#filter0_d)">
<path d="M55.5391 93.3391L189.59 71.5254V198.439L62.2242 191.771L55.5391 93.3391Z" fill="#4A85DF"/>
<path opacity="0.05" d="M55.5391 93.3391L189.59 71.5254V198.439L62.2242 191.771L55.5391 93.3391Z" fill="black"/>
<path d="M189.59 71.5254L350.346 83.5552L341.45 193.999L189.59 198.439V71.5254Z" fill="#4A85DF"/>
<path opacity="0.1" d="M189.59 71.5254L350.346 83.5552L341.45 193.999L189.59 198.439V71.5254Z" fill="black"/>
<path d="M239.015 32.793L189.59 71.5285L350.347 83.5582L376.617 43.9175L239.015 32.793Z" fill="#4A85DF"/>
<path d="M7 51.0352L127.681 36.3418L189.588 71.5258L55.5369 93.3395L7 51.0352Z" fill="#4A85DF"/>
<path d="M192.628 103.704L129.15 30.0243C123.743 23.748 114.976 23.748 109.569 30.0243L72.534 73.0107C67.1268 79.2869 67.1268 89.4627 72.534 95.7389L136.012 169.418C141.419 175.695 150.186 175.695 155.593 169.418L192.628 126.432C198.035 120.156 198.035 109.98 192.628 103.704Z" fill="white"/>
<path d="M112.467 58.4028C113.278 59.3442 114.593 59.3442 115.404 58.4028C116.215 57.4614 116.215 55.9351 115.404 54.9937C114.593 54.0522 113.278 54.0522 112.467 54.9937C111.656 55.9351 111.656 57.4614 112.467 58.4028Z" fill="#4A85DF"/>
<path d="M103.311 69.028C104.122 69.9695 105.437 69.9695 106.248 69.028C107.059 68.0866 107.059 66.5602 106.248 65.6187C105.437 64.6773 104.122 64.6773 103.311 65.6187C102.5 66.5602 102.5 68.0866 103.311 69.028Z" fill="#4A85DF"/>
<path d="M93.8204 80.0453C94.6315 80.9867 95.9466 80.9867 96.7577 80.0453C97.5688 79.1039 97.5688 77.5776 96.7577 76.6362C95.9466 75.6948 94.6315 75.6948 93.8204 76.6362C93.0093 77.5776 93.0093 79.1039 93.8204 80.0453Z" fill="#4A85DF"/>
<path d="M170.721 121.564L126.31 70.015C125.842 69.4717 125.083 69.4717 124.615 70.015C124.147 70.5583 124.147 71.4392 124.615 71.9825L169.026 123.531C169.494 124.075 170.253 124.075 170.721 123.531C171.189 122.988 171.189 122.107 170.721 121.564Z" fill="#D2D2D2"/>
<path d="M161.566 132.187L117.154 80.638C116.686 80.0947 115.927 80.0947 115.459 80.638C114.991 81.1814 114.991 82.0622 115.459 82.6056L159.871 134.154C160.339 134.697 161.098 134.697 161.566 134.154C162.034 133.611 162.034 132.73 161.566 132.187Z" fill="#D2D2D2"/>
<path d="M152.582 142.222L108.509 91.0672C107.948 90.4152 107.037 90.4152 106.475 91.0672C105.913 91.7192 105.913 92.7762 106.475 93.4282L150.548 144.583C151.109 145.235 152.02 145.235 152.582 144.583C153.144 143.931 153.144 142.874 152.582 142.222Z" fill="#D2D2D2"/>
<path d="M182.49 105.318L127.757 41.7885C126.676 40.5332 124.922 40.5332 123.841 41.7884L121.316 44.7193C120.234 45.9745 120.234 48.0097 121.316 49.265L176.049 112.795C177.131 114.05 178.884 114.05 179.965 112.795L182.49 109.864C183.572 108.609 183.572 106.574 182.49 105.318Z" fill="#D2D2D2"/>
<path d="M335.603 99.0395L272.125 25.3602C266.717 19.084 257.951 19.084 252.543 25.3602L215.509 68.3465C210.101 74.6227 210.101 84.7985 215.509 91.0747L278.987 164.754C284.394 171.03 293.161 171.03 298.568 164.754L335.603 121.768C341.01 115.492 341.01 105.316 335.603 99.0395Z" fill="white"/>
<path d="M255.443 53.7388C256.255 54.6802 257.57 54.6802 258.381 53.7388C259.192 52.7973 259.192 51.271 258.381 50.3296C257.57 49.3882 256.255 49.3882 255.443 50.3296C254.632 51.271 254.632 52.7973 255.443 53.7388Z" fill="#4A85DF"/>
<path d="M246.285 64.3621C247.096 65.3036 248.411 65.3036 249.222 64.3621C250.033 63.4206 250.033 61.8942 249.222 60.9527C248.411 60.0113 247.096 60.0113 246.285 60.9527C245.474 61.8942 245.474 63.4206 246.285 64.3621Z" fill="#4A85DF"/>
<path d="M236.795 75.3813C237.606 76.3228 238.921 76.3228 239.732 75.3813C240.543 74.4399 240.543 72.9136 239.732 71.9722C238.921 71.0307 237.606 71.0307 236.795 71.9722C235.984 72.9136 235.984 74.4399 236.795 75.3813Z" fill="#4A85DF"/>
<path d="M313.696 116.898L269.285 65.349C268.817 64.8057 268.058 64.8057 267.59 65.349C267.122 65.8923 267.122 66.7732 267.59 67.3165L312.001 118.865C312.469 119.408 313.228 119.408 313.696 118.865C314.164 118.322 314.164 117.441 313.696 116.898Z" fill="#D2D2D2"/>
<path d="M304.542 127.522L260.131 75.974C259.663 75.4307 258.904 75.4307 258.436 75.974C257.968 76.5173 257.968 77.3982 258.436 77.9415L302.847 129.49C303.315 130.033 304.074 130.033 304.542 129.49C305.01 128.946 305.01 128.066 304.542 127.522Z" fill="#D2D2D2"/>
<path d="M296.574 138.737L250.467 85.2207L248.433 87.5817L294.539 141.098L296.574 138.737Z" fill="#D2D2D2"/>
<path d="M325.465 100.654L270.732 37.1244C269.65 35.8691 267.897 35.8691 266.815 37.1244L264.29 40.0552C263.209 41.3105 263.209 43.3456 264.29 44.6009L319.024 108.131C320.105 109.386 321.859 109.386 322.94 108.131L325.465 105.2C326.547 103.945 326.547 101.909 325.465 100.654Z" fill="#D2D2D2"/>
<g filter="url(#filter1_dd)">
<path d="M264.98 85.0434L201.502 11.3641C196.094 5.08788 187.328 5.08787 181.92 11.3641L144.886 54.3504C139.478 60.6266 139.478 70.8024 144.886 77.0786L208.364 150.758C213.771 157.034 222.538 157.034 227.945 150.758L264.98 107.772C270.387 101.495 270.387 91.3197 264.98 85.0434Z" fill="white"/>
<path d="M184.703 39.8711C185.514 40.8125 186.854 40.7829 187.697 39.8049C188.539 38.827 188.565 37.271 187.754 36.3296C186.943 35.3882 185.602 35.4178 184.76 36.3958C183.917 37.3737 183.891 38.9297 184.703 39.8711Z" fill="#4A85DF"/>
<path d="M175.548 50.4983C176.359 51.4398 177.7 51.4101 178.542 50.4321C179.385 49.4541 179.41 47.8981 178.599 46.9566C177.788 46.0152 176.448 46.0448 175.605 47.0228C174.763 48.0008 174.737 49.5568 175.548 50.4983Z" fill="#4A85DF"/>
<path d="M166.058 61.5176C166.869 62.459 168.21 62.4294 169.052 61.4514C169.895 60.4735 169.92 58.9175 169.109 57.9761C168.298 57.0347 166.958 57.0643 166.115 58.0422C165.272 59.0202 165.247 60.5762 166.058 61.5176Z" fill="#4A85DF"/>
<path d="M243.071 102.901L198.66 51.3529C198.192 50.8096 197.433 50.8096 196.965 51.3529C196.497 51.8962 196.497 52.7771 196.965 53.3204L241.376 104.869C241.844 105.412 242.603 105.412 243.071 104.869C243.539 104.326 243.539 103.445 243.071 102.901Z" fill="#D2D2D2"/>
<path d="M233.917 113.526L189.506 61.9779C189.038 61.4346 188.279 61.4346 187.811 61.9779C187.343 62.5212 187.343 63.4021 187.811 63.9454L232.222 115.494C232.69 116.037 233.449 116.037 233.917 115.494C234.385 114.951 234.385 114.07 233.917 113.526Z" fill="#D2D2D2"/>
<path d="M224.933 123.56L180.861 72.4051C180.299 71.7531 179.388 71.7531 178.827 72.4051C178.265 73.0571 178.265 74.1141 178.827 74.7661L222.899 125.921C223.461 126.573 224.372 126.573 224.933 125.921C225.495 125.269 225.495 124.212 224.933 123.56Z" fill="#D2D2D2"/>
<path d="M254.842 86.656L200.109 23.1263C199.027 21.8711 197.274 21.8711 196.192 23.1263L193.667 26.0572C192.586 27.3124 192.586 29.3476 193.667 30.6028L248.401 94.1324C249.482 95.3877 251.236 95.3877 252.317 94.1324L254.842 91.2016C255.923 89.9463 255.923 87.9112 254.842 86.656Z" fill="#D2D2D2"/>
</g>
<path d="M218.977 104.48V277.997L156.182 271.556L128.867 268.771L120.545 267.9L93.2474 265.097L55.5391 261.232V93.3379L189.573 102.46L218.977 104.48Z" fill="#4A85DF"/>
<path d="M350.345 83.5566V252.774L300.015 262.436L275.537 267.137L218.975 278V104.483L350.345 83.5566Z" fill="#4A85DF"/>
<path opacity="0.05" d="M350.345 83.5566V252.774L300.015 262.436L275.537 267.137L218.975 278V104.483L350.345 83.5566Z" fill="black"/>
<path d="M7 129.862L55.5369 93.3379L218.975 104.48L194.915 145.008L7 129.862Z" fill="#4A85DF"/>
<path opacity="0.1" d="M7 129.862L55.5369 93.3379L218.975 104.48L194.915 145.008L7 129.862Z" fill="white"/>
<path d="M350.345 83.5566L218.975 104.483L261.732 142.783L402.45 119.176L350.345 83.5566Z" fill="#4A85DF"/>
<path opacity="0.1" d="M350.345 83.5566L218.975 104.483L261.732 142.783L402.45 119.176L350.345 83.5566Z" fill="white"/>
<path opacity="0.1" d="M300.015 262.434L275.537 267.134V230.975L298.465 225.195L300.015 262.434Z" fill="white"/>
<path opacity="0.1" d="M156.178 247.637V271.557L128.863 268.772V247.637H156.178Z" fill="white"/>
<path opacity="0.1" d="M120.542 255.174V267.9L93.2441 265.097V255.174H120.542Z" fill="white"/>
</g>
<defs>
<filter id="filter0_d" x="0" y="6.65625" width="403.45" height="279.344" filterUnits="userSpaceOnUse" color-interpolation-filters="sRGB">
<feFlood flood-opacity="0" result="BackgroundImageFix"/>
<feColorMatrix in="SourceAlpha" type="matrix" values="0 0 0 0 0 0 0 0 0 0 0 0 0 0 0 0 0 0 127 0"/>
<feOffset dx="-3" dy="4"/>
<feGaussianBlur stdDeviation="2"/>
<feColorMatrix type="matrix" values="0 0 0 0 0 0 0 0 0 0 0 0 0 0 0 0 0 0 0.25 0"/>
<feBlend mode="normal" in2="BackgroundImageFix" result="effect1_dropShadow"/>
<feBlend mode="normal" in="SourceGraphic" in2="effect1_dropShadow" result="shape"/>
</filter>
<filter id="filter1_dd" x="136.83" y="2.65625" width="138.205" height="160.808" filterUnits="userSpaceOnUse" color-interpolation-filters="sRGB">
<feFlood flood-opacity="0" result="BackgroundImageFix"/>
<feColorMatrix in="SourceAlpha" type="matrix" values="0 0 0 0 0 0 0 0 0 0 0 0 0 0 0 0 0 0 127 0"/>
<feOffset dx="2"/>
<feGaussianBlur stdDeviation="2"/>
<feColorMatrix type="matrix" values="0 0 0 0 0 0 0 0 0 0 0 0 0 0 0 0 0 0 0.25 0"/>
<feBlend mode="normal" in2="BackgroundImageFix" result="effect1_dropShadow"/>
<feColorMatrix in="SourceAlpha" type="matrix" values="0 0 0 0 0 0 0 0 0 0 0 0 0 0 0 0 0 0 127 0"/>
<feOffset dy="4"/>
<feGaussianBlur stdDeviation="2"/>
<feColorMatrix type="matrix" values="0 0 0 0 0 0 0 0 0 0 0 0 0 0 0 0 0 0 0.25 0"/>
<feBlend mode="normal" in2="effect1_dropShadow" result="effect2_dropShadow"/>
<feBlend mode="normal" in="SourceGraphic" in2="effect2_dropShadow" result="shape"/>
</filter>
</defs>
</svg>
