<svg width="404" height="293" viewBox="0 0 404 293" fill="none" xmlns="http://www.w3.org/2000/svg">
<g filter="url(#filter0_d)">
<path d="M55.5391 100.335L189.59 78.5215V205.435L62.2242 198.767L55.5391 100.335Z" fill="#4A85DF"/>
<path opacity="0.05" d="M55.5391 100.335L189.59 78.5215V205.435L62.2242 198.767L55.5391 100.335Z" fill="black"/>
<path d="M189.59 78.5215L350.346 90.5513L341.45 200.995L189.59 205.435V78.5215Z" fill="#4A85DF"/>
<path opacity="0.1" d="M189.59 78.5215L350.346 90.5513L341.45 200.995L189.59 205.435V78.5215Z" fill="black"/>
<path d="M239.015 39.7891L189.59 78.5246L350.347 90.5543L376.617 50.9136L239.015 39.7891Z" fill="#4A85DF"/>
<path d="M7 58.0332L127.681 43.3398L189.588 78.5238L55.5369 100.338L7 58.0332Z" fill="#4A85DF"/>
<path d="M173.601 77.3569L137.662 35.6414C132.255 29.3652 123.488 29.3652 118.08 35.6414L81.0457 78.6279C75.6385 84.9041 75.6385 95.0799 81.0457 101.356L116.985 143.071C122.393 149.348 131.159 149.348 136.567 143.071L173.601 100.085C179.009 93.8088 179.009 83.6331 173.601 77.3569Z" fill="#DFDFDF"/>
<g filter="url(#filter1_d)">
<path d="M188.886 108.983L125.408 35.3036C120.001 29.0273 111.234 29.0273 105.827 35.3036L74.2672 71.9347C68.86 78.2109 68.86 88.3866 74.2672 94.6629L137.745 168.342C143.153 174.619 151.919 174.619 157.327 168.342L188.886 131.711C194.293 125.435 194.293 115.259 188.886 108.983Z" fill="white"/>
</g>
<path d="M108.723 63.6821C109.534 64.6235 110.849 64.6235 111.66 63.6821C112.471 62.7407 112.471 61.2144 111.66 60.2729C110.849 59.3315 109.534 59.3315 108.723 60.2729C107.912 61.2144 107.912 62.7407 108.723 63.6821Z" fill="#4A85DF"/>
<path d="M99.5666 74.3073C100.378 75.2488 101.693 75.2488 102.504 74.3073C103.315 73.3659 103.315 71.8395 102.504 70.898C101.693 69.9566 100.378 69.9566 99.5666 70.898C98.7555 71.8395 98.7555 73.3659 99.5666 74.3073Z" fill="#4A85DF"/>
<path d="M90.0782 85.3246C90.8893 86.266 92.2044 86.266 93.0155 85.3246C93.8267 84.3832 93.8267 82.8569 93.0155 81.9155C92.2044 80.9741 90.8893 80.9741 90.0782 81.9155C89.2671 82.8569 89.2671 84.3832 90.0782 85.3246Z" fill="#4A85DF"/>
<path d="M166.981 126.843L122.57 75.2943C122.102 74.751 121.343 74.751 120.875 75.2943C120.407 75.8376 120.407 76.7185 120.875 77.2618L165.286 128.811C165.754 129.354 166.513 129.354 166.981 128.811C167.449 128.267 167.449 127.386 166.981 126.843Z" fill="#D2D2D2"/>
<path d="M157.822 137.466L113.41 85.9173C112.942 85.374 112.183 85.374 111.715 85.9173C111.247 86.4607 111.247 87.3415 111.715 87.8848L156.126 139.433C156.595 139.977 157.353 139.977 157.822 139.433C158.29 138.89 158.29 138.009 157.822 137.466Z" fill="#D2D2D2"/>
<path d="M148.84 147.501L104.767 96.3465C104.205 95.6945 103.295 95.6945 102.733 96.3465C102.171 96.9985 102.171 98.0555 102.733 98.7075L146.806 149.862C147.367 150.514 148.278 150.514 148.84 149.862C149.401 149.21 149.401 148.153 148.84 147.501Z" fill="#D2D2D2"/>
<path d="M164.485 94.0375L124.017 47.0658C122.935 45.8105 121.182 45.8105 120.1 47.0658L117.575 49.9966C116.494 51.2519 116.494 53.287 117.575 54.5423L158.043 101.514C159.125 102.769 160.878 102.769 161.96 101.514L164.485 98.5831C165.566 97.3279 165.566 95.2927 164.485 94.0375Z" fill="#D2D2D2"/>
<path d="M337.982 89.1297L289.685 33.0711C284.278 26.7949 275.511 26.7949 270.104 33.0711L233.069 76.0575C227.662 82.3337 227.662 92.5094 233.069 98.7856L281.366 154.844C286.773 161.12 295.54 161.12 300.948 154.844L337.982 111.858C343.389 105.582 343.389 95.4059 337.982 89.1297Z" fill="#DFDFDF"/>
<g filter="url(#filter2_d)">
<path d="M339.882 104.745L276.404 31.0653C270.997 24.789 262.23 24.789 256.823 31.0653L219.788 74.0516C214.381 80.3278 214.381 90.5036 219.788 96.7798L283.266 170.459C288.673 176.735 297.44 176.735 302.847 170.459L339.882 127.473C345.289 121.197 345.289 111.021 339.882 104.745Z" fill="white"/>
</g>
<path d="M259.723 59.4438C260.534 60.3853 261.849 60.3853 262.66 59.4438C263.471 58.5024 263.471 56.9761 262.66 56.0347C261.849 55.0932 260.534 55.0932 259.723 56.0347C258.912 56.9761 258.912 58.5024 259.723 59.4438Z" fill="#4A85DF"/>
<path d="M250.567 70.0672C251.378 71.0086 252.693 71.0086 253.504 70.0672C254.315 69.1257 254.315 67.5993 253.504 66.6578C252.693 65.7163 251.378 65.7163 250.567 66.6578C249.756 67.5993 249.756 69.1257 250.567 70.0672Z" fill="#4A85DF"/>
<path d="M241.078 81.0864C241.889 82.0278 243.204 82.0278 244.016 81.0864C244.827 80.145 244.827 78.6187 244.016 77.6772C243.204 76.7358 241.889 76.7358 241.078 77.6772C240.267 78.6187 240.267 80.145 241.078 81.0864Z" fill="#4A85DF"/>
<path d="M317.977 122.603L273.566 71.0541C273.098 70.5108 272.339 70.5108 271.871 71.0541C271.403 71.5974 271.403 72.4783 271.871 73.0216L316.282 124.57C316.75 125.113 317.509 125.113 317.977 124.57C318.445 124.027 318.445 123.146 317.977 122.603Z" fill="#D2D2D2"/>
<path d="M309.669 134.211L263.562 80.6953L261.867 82.6628L307.974 136.179L309.669 134.211Z" fill="#D2D2D2"/>
<path d="M300.853 144.442L254.746 90.9258L252.712 93.2868L298.819 146.803L300.853 144.442Z" fill="#D2D2D2"/>
<path d="M315.481 89.8012L275.013 42.8295C273.931 41.5742 272.178 41.5742 271.097 42.8295L268.572 45.7603C267.49 47.0156 267.49 49.0507 268.572 50.306L309.04 97.2777C310.121 98.5329 311.874 98.5329 312.956 97.2777L315.481 94.3468C316.562 93.0916 316.562 91.0564 315.481 89.8012Z" fill="#D2D2D2"/>
<g filter="url(#filter3_d)">
<path d="M276.886 93.0415L213.408 19.3621C208.001 13.0859 199.234 13.0859 193.827 19.3621L156.801 62.3376C151.394 68.6138 151.394 78.7895 156.801 85.0658L220.279 158.745C225.687 165.021 234.453 165.021 239.861 158.745L276.886 115.77C282.293 109.493 282.293 99.3177 276.886 93.0415Z" fill="#DFDFDF"/>
<g filter="url(#filter4_d)">
<path d="M264.984 92.0415L201.506 18.3621C196.098 12.0859 187.331 12.0859 181.924 18.3621L150.24 55.1378C144.833 61.414 144.833 71.5898 150.24 77.866L213.718 151.545C219.126 157.822 227.892 157.822 233.3 151.545L264.984 114.77C270.391 108.493 270.391 98.3177 264.984 92.0415Z" fill="white"/>
</g>
<path d="M184.706 46.8652C185.518 47.8067 186.858 47.777 187.701 46.7991C188.543 45.8211 188.569 44.2651 187.758 43.3237C186.947 42.3823 185.606 42.4119 184.763 43.3899C183.921 44.3679 183.895 45.9238 184.706 46.8652Z" fill="#4A85DF"/>
<path d="M175.558 57.4924C176.369 58.4339 177.71 58.4043 178.552 57.4263C179.395 56.4483 179.42 54.8922 178.609 53.9508C177.798 53.0093 176.458 53.0389 175.615 54.0169C174.773 54.9949 174.747 56.551 175.558 57.4924Z" fill="#4A85DF"/>
<path d="M166.066 68.5059C166.877 69.4473 168.217 69.4177 169.06 68.4397C169.903 67.4617 169.928 65.9058 169.117 64.9644C168.306 64.0229 166.965 64.0526 166.123 65.0305C165.28 66.0085 165.255 67.5644 166.066 68.5059Z" fill="#4A85DF"/>
<path d="M243.075 109.896L198.664 58.347C198.196 57.8037 197.437 57.8037 196.969 58.347C196.501 58.8903 196.501 59.7712 196.969 60.3145L241.38 111.863C241.848 112.406 242.607 112.406 243.075 111.863C243.543 111.32 243.543 110.439 243.075 109.896Z" fill="#D2D2D2"/>
<path d="M233.923 120.517L189.512 68.9681C189.044 68.4248 188.285 68.4248 187.817 68.9681C187.348 69.5114 187.348 70.3923 187.817 70.9356L232.228 122.484C232.696 123.027 233.455 123.027 233.923 122.484C234.391 121.941 234.391 121.06 233.923 120.517Z" fill="#D2D2D2"/>
<path d="M224.941 130.552L180.869 79.3973C180.307 78.7453 179.396 78.7453 178.835 79.3973C178.273 80.0493 178.273 81.1063 178.835 81.7583L222.907 132.913C223.469 133.565 224.38 133.565 224.941 132.913C225.503 132.261 225.503 131.204 224.941 130.552Z" fill="#D2D2D2"/>
<path d="M240.579 77.0921L200.11 30.1205C199.029 28.8652 197.276 28.8652 196.194 30.1205L193.67 33.0501C192.589 34.3053 192.589 36.3405 193.67 37.5957L234.138 84.5673C235.22 85.8226 236.973 85.8226 238.055 84.5673L240.579 81.6378C241.66 80.3825 241.66 78.3474 240.579 77.0921Z" fill="#D2D2D2"/>
</g>
<path d="M218.977 111.478V284.995L156.182 278.554L128.867 275.769L120.545 274.898L93.2474 272.095L55.5391 268.23V100.336L189.573 109.458L218.977 111.478Z" fill="#4A85DF"/>
<path d="M350.343 90.5547V259.772L300.013 269.434L275.535 274.135L218.973 284.998V111.481L350.343 90.5547Z" fill="#4A85DF"/>
<path opacity="0.05" d="M350.343 90.5547V259.772L300.013 269.434L275.535 274.135L218.973 284.998V111.481L350.343 90.5547Z" fill="black"/>
<path d="M7 136.86L55.5369 100.336L218.975 111.478L194.915 152.007L7 136.86Z" fill="#4A85DF"/>
<path opacity="0.1" d="M7 136.86L55.5369 100.336L218.975 111.478L194.915 152.007L7 136.86Z" fill="white"/>
<path d="M350.343 90.5547L218.973 111.481L261.73 149.781L402.448 126.174L350.343 90.5547Z" fill="#4A85DF"/>
<path opacity="0.1" d="M350.343 90.5547L218.973 111.481L261.73 149.781L402.448 126.174L350.343 90.5547Z" fill="white"/>
<path opacity="0.1" d="M300.013 269.432L275.535 274.132V237.973L298.463 232.193L300.013 269.432Z" fill="white"/>
<path opacity="0.1" d="M156.178 254.635V278.555L128.863 275.77V254.635H156.178Z" fill="white"/>
<path opacity="0.1" d="M120.544 262.172V274.898L93.2461 272.095V262.172H120.544Z" fill="white"/>
</g>
<defs>
<filter id="filter0_d" x="0" y="13.6543" width="403.448" height="279.344" filterUnits="userSpaceOnUse" color-interpolation-filters="sRGB">
<feFlood flood-opacity="0" result="BackgroundImageFix"/>
<feColorMatrix in="SourceAlpha" type="matrix" values="0 0 0 0 0 0 0 0 0 0 0 0 0 0 0 0 0 0 127 0"/>
<feOffset dx="-3" dy="4"/>
<feGaussianBlur stdDeviation="2"/>
<feColorMatrix type="matrix" values="0 0 0 0 0 0 0 0 0 0 0 0 0 0 0 0 0 0 0.25 0"/>
<feBlend mode="normal" in2="BackgroundImageFix" result="effect1_dropShadow"/>
<feBlend mode="normal" in="SourceGraphic" in2="effect1_dropShadow" result="shape"/>
</filter>
<filter id="filter1_d" x="64.2109" y="23.5957" width="130.73" height="150.453" filterUnits="userSpaceOnUse" color-interpolation-filters="sRGB">
<feFlood flood-opacity="0" result="BackgroundImageFix"/>
<feColorMatrix in="SourceAlpha" type="matrix" values="0 0 0 0 0 0 0 0 0 0 0 0 0 0 0 0 0 0 127 0"/>
<feOffset dx="-2" dy="-3"/>
<feGaussianBlur stdDeviation="2"/>
<feColorMatrix type="matrix" values="0 0 0 0 0 0 0 0 0 0 0 0 0 0 0 0 0 0 0.1 0"/>
<feBlend mode="normal" in2="BackgroundImageFix" result="effect1_dropShadow"/>
<feBlend mode="normal" in="SourceGraphic" in2="effect1_dropShadow" result="shape"/>
</filter>
<filter id="filter2_d" x="209.734" y="19.3574" width="136.205" height="156.808" filterUnits="userSpaceOnUse" color-interpolation-filters="sRGB">
<feFlood flood-opacity="0" result="BackgroundImageFix"/>
<feColorMatrix in="SourceAlpha" type="matrix" values="0 0 0 0 0 0 0 0 0 0 0 0 0 0 0 0 0 0 127 0"/>
<feOffset dx="-2" dy="-3"/>
<feGaussianBlur stdDeviation="2"/>
<feColorMatrix type="matrix" values="0 0 0 0 0 0 0 0 0 0 0 0 0 0 0 0 0 0 0.1 0"/>
<feBlend mode="normal" in2="BackgroundImageFix" result="effect1_dropShadow"/>
<feBlend mode="normal" in="SourceGraphic" in2="effect1_dropShadow" result="shape"/>
</filter>
<filter id="filter3_d" x="144.184" y="6.6543" width="142.758" height="157.797" filterUnits="userSpaceOnUse" color-interpolation-filters="sRGB">
<feFlood flood-opacity="0" result="BackgroundImageFix"/>
<feColorMatrix in="SourceAlpha" type="matrix" values="0 0 0 0 0 0 0 0 0 0 0 0 0 0 0 0 0 0 127 0"/>
<feOffset dx="2" dy="-3"/>
<feGaussianBlur stdDeviation="2"/>
<feColorMatrix type="matrix" values="0 0 0 0 0 0 0 0 0 0 0 0 0 0 0 0 0 0 0.1 0"/>
<feBlend mode="normal" in2="BackgroundImageFix" result="effect1_dropShadow"/>
<feBlend mode="normal" in="SourceGraphic" in2="effect1_dropShadow" result="shape"/>
</filter>
<filter id="filter4_d" x="140.184" y="6.6543" width="130.854" height="150.598" filterUnits="userSpaceOnUse" color-interpolation-filters="sRGB">
<feFlood flood-opacity="0" result="BackgroundImageFix"/>
<feColorMatrix in="SourceAlpha" type="matrix" values="0 0 0 0 0 0 0 0 0 0 0 0 0 0 0 0 0 0 127 0"/>
<feOffset dx="-2" dy="-3"/>
<feGaussianBlur stdDeviation="2"/>
<feColorMatrix type="matrix" values="0 0 0 0 0 0 0 0 0 0 0 0 0 0 0 0 0 0 0.1 0"/>
<feBlend mode="normal" in2="BackgroundImageFix" result="effect1_dropShadow"/>
<feBlend mode="normal" in="SourceGraphic" in2="effect1_dropShadow" result="shape"/>
</filter>
</defs>
</svg>
