<svg width="8" height="7" viewBox="0 0 8 7" fill="none" xmlns="http://www.w3.org/2000/svg">
<path d="M3.09426 5.95917L1.03743 3.68376C1.02557 3.67064 1.01615 3.65505 1.00973 3.63787C1.00331 3.62069 1 3.60226 1 3.58366C1 3.56505 1.00331 3.54663 1.00973 3.52945C1.01615 3.51227 1.02557 3.49668 1.03743 3.48356L1.55668 2.9054C1.6063 2.85021 1.6865 2.85021 1.73612 2.9054L3.09022 4.40245C3.13984 4.45763 3.22061 4.45699 3.27023 4.40181L6.2623 1.04195C6.31191 0.986124 6.39269 0.986124 6.44288 1.04131L6.96271 1.61947C7.01233 1.67465 7.01233 1.76384 6.96329 1.81903L3.70352 5.47727L3.7041 5.47791L3.27427 5.95853C3.22465 6.01372 3.14388 6.01372 3.09426 5.95917Z" fill="#40C0E7" stroke="#40C0E7" stroke-miterlimit="10"/>
</svg>
