<svg width="9" height="12" viewBox="0 0 9 12" fill="none" xmlns="http://www.w3.org/2000/svg">
<path d="M0 0H3.64003C5.34196 0 6.57799 0.241761 7.3481 0.725283C8.11661 1.20961 8.50087 1.97972 8.50087 3.03642C8.50087 3.7537 8.33276 4.34129 7.99653 4.8016C7.66031 5.26111 7.21201 5.53809 6.65324 5.63095V5.71341C7.41374 5.88312 7.96371 6.20013 8.29993 6.66604C8.63616 7.13035 8.80427 7.74676 8.80427 8.51928C8.80427 9.61361 8.40881 10.4678 7.61788 11.081C6.82535 11.6934 5.75103 12 4.39413 12H0V0ZM2.4016 4.75197H4.02428C4.71434 4.75197 5.21388 4.6455 5.52288 4.43175C5.83189 4.21801 5.98559 3.86498 5.98559 3.37265C5.98559 2.91314 5.81748 2.58332 5.48125 2.38319C5.14503 2.18306 4.61107 2.08379 3.88339 2.08379H2.4016V4.75197ZM2.4016 6.77171V9.8978H4.2052C4.90647 9.8978 5.42201 9.76411 5.75824 9.49593C6.09126 9.22775 6.25857 8.81708 6.25857 8.26311C6.25857 7.26805 5.5461 6.77091 4.12275 6.77091H2.4016V6.77171Z" fill="black"/>
</svg>
