<svg width="10" height="10" viewBox="0 0 10 10" fill="none" xmlns="http://www.w3.org/2000/svg">
<path fill-rule="evenodd" clip-rule="evenodd" d="M2.49502 0.832514C2.03604 0.373537 1.29189 0.373537 0.832912 0.832514C0.373934 1.29149 0.373936 2.03564 0.832913 2.49462L3.32638 4.98808L0.832514 7.48194C0.373537 7.94092 0.373537 8.68507 0.832514 9.14405C1.29149 9.60303 2.03564 9.60302 2.49462 9.14405L4.98848 6.65019L7.48133 9.14303C7.9403 9.60201 8.68445 9.60201 9.14343 9.14303C9.60241 8.68406 9.60241 7.93991 9.14343 7.48093L6.65058 4.98808L9.14303 2.49563C9.60201 2.03666 9.60201 1.29251 9.14303 0.833529C8.68406 0.374552 7.93991 0.374553 7.48093 0.83353L4.98848 3.32598L2.49502 0.832514Z" fill="#505050"/>
</svg>
