<svg width="9" height="9" viewBox="0 0 9 9" xmlns="http://www.w3.org/2000/svg">
<path fill-rule="evenodd" clip-rule="evenodd" d="M8.63184 0.146484C8.43652 -0.0488281 8.12012 -0.0488281 7.9248 0.146484L4.38965 3.68164L0.854492 0.146484C0.65918 -0.0488281 0.342773 -0.0488281 0.147461 0.146484C0.0302734 0.263672 -0.0166016 0.424805 0.00683594 0.577148C0.0224609 0.678711 0.0693359 0.775391 0.147461 0.853516L3.68262 4.38867L0.146484 7.9248C-0.0488281 8.12012 -0.0488281 8.43652 0.146484 8.63184C0.231445 8.7168 0.339844 8.76465 0.451172 8.77539C0.595703 8.79004 0.743164 8.74219 0.853516 8.63184L4.38965 5.0957L7.92578 8.63184C8.12109 8.82715 8.4375 8.82715 8.63281 8.63184C8.82812 8.43652 8.82812 8.12012 8.63281 7.9248L5.09668 4.38867L8.63184 0.853516C8.82715 0.658203 8.82715 0.341797 8.63184 0.146484Z"/>
</svg>
