<svg width="14" height="16" viewBox="0 0 14 16" xmlns="http://www.w3.org/2000/svg">
<path fill-rule="evenodd" clip-rule="evenodd" d="M11.1153 0C12.1756 0 13.0352 0.859611 13.0352 1.91999V11.6937C13.0352 12.754 12.1756 13.6137 11.1153 13.6137H9.67021V14.08C9.67021 15.1404 8.8106 16 7.75021 16H2.47566C1.41528 16 0.555664 15.1404 0.555664 14.08V4.30634C0.555664 3.24596 1.41528 2.38635 2.47566 2.38635H3.9207V1.92C3.9207 0.859613 4.78031 0 5.84069 0H11.1153ZM3.9207 3.93181C2.90532 3.98226 2.09756 4.8215 2.09756 5.84941V12.5354C2.09756 13.5958 2.95717 14.4554 4.01755 14.4554H6.20719C6.86788 14.4554 7.45063 14.1217 7.79607 13.6137H5.84069C4.78031 13.6137 3.9207 12.754 3.9207 11.6937V3.93181ZM8.12718 12.07H7.38263C6.32225 12.07 5.46264 11.2104 5.46264 10.15V3.92941H6.20719C7.26757 3.92941 8.12718 4.78902 8.12718 5.84941V12.07ZM9.67021 12.0676V4.30634C9.67021 3.24596 8.8106 2.38635 7.75021 2.38635H5.79338C6.13877 1.87798 6.7217 1.54402 7.38263 1.54402H9.57227C10.6327 1.54402 11.4923 2.40364 11.4923 3.46402V10.1501C11.4923 11.1776 10.6851 12.0166 9.67021 12.0676Z"/>
</svg>
