<svg width="365" height="373" viewBox="0 0 365 373" fill="none" xmlns="http://www.w3.org/2000/svg">
<g filter="url(#filter0_d)">
<rect x="173.211" y="195.893" width="105" height="65" rx="10" transform="rotate(10.1 173.211 195.893)" fill="#DFDFDF"/>
</g>
<g filter="url(#filter1_d)">
<rect x="161.402" y="200.652" width="115" height="65" rx="10" transform="rotate(10.1 161.402 200.652)" fill="white"/>
</g>
<path d="M172.385 233.082C173.745 233.324 175.043 232.418 175.285 231.059C175.527 229.699 174.621 228.401 173.262 228.159C171.903 227.917 170.604 228.823 170.362 230.182C170.12 231.541 171.026 232.84 172.385 233.082Z" fill="#4A85DF"/>
<path d="M170.104 245.88C171.463 246.123 172.762 245.217 173.004 243.858C173.246 242.498 172.34 241.2 170.981 240.958C169.621 240.716 168.323 241.621 168.081 242.981C167.839 244.34 168.745 245.638 170.104 245.88Z" fill="#4A85DF"/>
<path d="M167.827 258.677C169.186 258.919 170.484 258.014 170.726 256.654C170.968 255.295 170.063 253.997 168.703 253.755C167.344 253.513 166.046 254.418 165.804 255.778C165.562 257.137 166.467 258.435 167.827 258.677Z" fill="#4A85DF"/>
<path d="M256.45 242.978L189.504 231.053L188.802 234.991L255.749 246.916L256.45 242.978Z" fill="#D2D2D2"/>
<path d="M254.173 255.777L187.227 243.852L186.525 247.79L253.471 259.715L254.173 255.777Z" fill="#D2D2D2"/>
<path d="M251.892 268.573L184.945 256.648L184.244 260.586L251.19 272.511L251.892 268.573Z" fill="#D2D2D2"/>
<path d="M238.583 223.543L175.574 212.319C174.487 212.126 173.448 212.85 173.255 213.938L172.553 217.876C172.36 218.963 173.084 220.002 174.172 220.196L237.18 231.419C238.267 231.613 239.306 230.888 239.499 229.801L240.201 225.863C240.395 224.775 239.67 223.737 238.583 223.543Z" fill="#D2D2D2"/>
<g filter="url(#filter2_d)">
<rect x="167.723" y="277.086" width="105" height="65" rx="10" transform="rotate(-6.61 167.723 277.086)" fill="#DFDFDF"/>
</g>
<g filter="url(#filter3_d)">
<rect x="157.777" y="285.041" width="115" height="65" rx="10" transform="rotate(-6.61 157.777 285.041)" fill="white"/>
</g>
<path d="M177.621 312.941C178.993 312.782 179.976 311.541 179.817 310.17C179.658 308.798 178.417 307.815 177.046 307.974C175.674 308.133 174.691 309.374 174.85 310.745C175.009 312.117 176.25 313.1 177.621 312.941Z" fill="#4A85DF"/>
<path d="M179.118 325.855C180.489 325.696 181.472 324.455 181.313 323.084C181.154 321.712 179.914 320.729 178.542 320.888C177.17 321.047 176.187 322.288 176.346 323.659C176.505 325.031 177.746 326.014 179.118 325.855Z" fill="#4A85DF"/>
<path d="M180.614 338.769C181.985 338.61 182.968 337.369 182.809 335.998C182.65 334.626 181.41 333.643 180.038 333.802C178.667 333.961 177.684 335.202 177.842 336.573C178.001 337.945 179.242 338.928 180.614 338.769Z" fill="#4A85DF"/>
<path d="M260.985 298.249L193.438 306.076L193.898 310.05L261.446 302.222L260.985 298.249Z" fill="#D2D2D2"/>
<path d="M262.482 311.161L194.934 318.988L195.394 322.962L262.942 315.134L262.482 311.161Z" fill="#D2D2D2"/>
<path d="M263.978 324.075L196.43 331.902L196.89 335.876L264.438 328.048L263.978 324.075Z" fill="#D2D2D2"/>
<path d="M238.284 284.772L174.709 292.139C173.612 292.266 172.826 293.259 172.953 294.356L173.413 298.329C173.54 299.426 174.533 300.213 175.63 300.086L239.205 292.719C240.302 292.592 241.088 291.599 240.961 290.502L240.501 286.528C240.374 285.431 239.381 284.645 238.284 284.772Z" fill="#D2D2D2"/>
<g filter="url(#filter4_d)">
<path fill-rule="evenodd" clip-rule="evenodd" d="M344.338 163.948C342.86 165.884 341.027 167.517 338.937 168.76L362.242 209.126L351.035 215.597L351.036 215.598L362.243 209.127C363.098 210.609 363.656 212.244 363.883 213.939C364.111 215.633 364.003 217.354 363.568 219.003C363.132 220.652 362.377 222.197 361.344 223.549C360.312 224.901 359.023 226.034 357.552 226.884L357.553 226.887L351.95 230.122L257.216 66.0384L262.816 62.8054L262.82 62.8031C264.291 61.9546 265.915 61.4059 267.601 61.1883C269.288 60.9704 271.004 61.0884 272.649 61.5356C274.295 61.9827 275.839 62.7503 277.193 63.7944C278.28 64.6332 279.228 65.6374 280.003 66.7684L280.04 66.7471L304.1 108.42C306.22 107.233 308.55 106.463 310.964 106.151C313.463 105.829 316.003 106.003 318.44 106.666C320.877 107.328 323.163 108.464 325.168 110.01C326.974 111.404 328.521 113.106 329.736 115.035L329.752 115.025L345.668 142.593L345.792 142.807L345.791 142.807C346.989 144.945 347.772 147.29 348.098 149.717C348.434 152.227 348.275 154.775 347.63 157.216C346.985 159.658 345.867 161.945 344.338 163.948ZM288.381 335.131L288.383 335.131L301.412 162.912L290.134 162.912L290.134 162.914H136.011V162.917L134 162.917L147.085 336.953C147.103 337.246 147.125 337.539 147.151 337.83L147.205 338.553L147.225 338.552C148.894 353.114 161.111 364.497 176.102 364.985V364.999H176.799L177.104 365.001L177.41 364.999H258.002L258.307 365.001L258.613 364.999H259.308V364.985C275.454 364.461 288.381 351.298 288.381 335.136V335.131ZM164.94 188.629C164.74 184.72 167.763 181.39 171.692 181.191C175.621 180.993 178.968 184.001 179.168 187.911L186.883 338.589C187.083 342.498 184.06 345.828 180.132 346.027C176.203 346.225 172.855 343.217 172.655 339.307L164.94 188.629ZM263.836 182.183C259.907 181.985 256.56 184.993 256.36 188.902L248.646 339.581C248.446 343.49 251.469 346.82 255.398 347.018C259.327 347.217 262.674 344.208 262.874 340.299L270.587 189.621C270.788 185.711 267.765 182.381 263.836 182.183ZM210.679 188.423C210.679 184.509 213.868 181.336 217.802 181.336C221.736 181.336 224.925 184.509 224.925 188.423V339.296C224.925 343.211 221.736 346.384 217.802 346.384C213.868 346.384 210.679 343.211 210.679 339.296V188.423Z" fill="#4A85DF"/>
</g>
<g filter="url(#filter5_d)">
<rect x="47.5938" y="7.29492" width="160" height="90" rx="10" transform="rotate(11.8 47.5938 7.29492)" fill="#DFDFDF"/>
</g>
<g filter="url(#filter6_d)">
<rect x="25.4023" y="10.8301" width="170" height="90" rx="10" transform="rotate(11.8 25.4023 10.8301)" fill="white"/>
</g>
<path d="M39.0883 50.4662C40.9805 50.8615 42.8348 49.6481 43.2301 47.7559C43.6254 45.8638 42.4119 44.0095 40.5198 43.6142C38.6276 43.2189 36.7733 44.4323 36.378 46.3245C35.9827 48.2166 37.1962 50.071 39.0883 50.4662Z" fill="#4A85DF"/>
<path d="M35.4047 68.0873C37.2969 68.4826 39.1512 67.2692 39.5465 65.377C39.9418 63.4849 38.7283 61.6306 36.8362 61.2353C34.944 60.84 33.0897 62.0534 32.6944 63.9456C32.2991 65.8377 33.5126 67.692 35.4047 68.0873Z" fill="#4A85DF"/>
<path d="M31.725 85.7065C33.6172 86.1018 35.4715 84.8883 35.8668 82.9962C36.2621 81.104 35.0487 79.2497 33.1565 78.8544C31.2644 78.4591 29.41 79.6726 29.0147 81.5647C28.6194 83.4569 29.8329 85.3112 31.725 85.7065Z" fill="#4A85DF"/>
<path d="M147.608 67.0083L60.3789 48.7852L59.5882 52.5699L146.818 70.7931L147.608 67.0083Z" fill="#D2D2D2"/>
<path d="M144.089 84.5962L56.8594 66.373L56.0687 70.1578L143.298 88.3809L144.089 84.5962Z" fill="#D2D2D2"/>
<path d="M140.401 102.249L53.1719 84.0254L52.3812 87.8101L139.61 106.033L140.401 102.249Z" fill="#D2D2D2"/>
<path d="M125.159 41.8874L42.9343 24.7098C41.8531 24.4839 40.7935 25.1773 40.5676 26.2585L39.7496 30.174C39.5237 31.2552 40.2171 32.3148 41.2983 32.5407L123.523 49.7184C124.604 49.9443 125.664 49.2509 125.89 48.1696L126.708 44.2542C126.934 43.1729 126.24 42.1133 125.159 41.8874Z" fill="#D2D2D2"/>
<g filter="url(#filter7_d)">
<path fill-rule="evenodd" clip-rule="evenodd" d="M344.338 163.948C342.86 165.884 341.027 167.517 338.937 168.76L362.242 209.126L351.035 215.597L351.036 215.598L362.243 209.127C363.098 210.609 363.656 212.244 363.883 213.939C364.111 215.633 364.003 217.354 363.568 219.003C363.132 220.652 362.377 222.197 361.344 223.549C360.312 224.901 359.023 226.034 357.552 226.884L357.553 226.887L351.95 230.122L257.216 66.0384L262.816 62.8054L262.82 62.8031C264.291 61.9546 265.915 61.4059 267.601 61.1883C269.288 60.9704 271.004 61.0884 272.649 61.5356C274.295 61.9827 275.839 62.7503 277.193 63.7944C278.28 64.6332 279.228 65.6374 280.003 66.7684L280.04 66.7471L304.1 108.42C306.22 107.233 308.55 106.463 310.964 106.151C313.463 105.829 316.003 106.003 318.44 106.666C320.877 107.328 323.163 108.464 325.168 110.01C326.974 111.404 328.521 113.106 329.736 115.035L329.752 115.025L345.668 142.593L345.792 142.807L345.791 142.807C346.989 144.945 347.772 147.29 348.098 149.717C348.434 152.227 348.275 154.775 347.63 157.216C346.985 159.658 345.867 161.945 344.338 163.948ZM288.381 335.131L288.383 335.131L301.412 162.912L290.134 162.912L290.134 162.914H136.011V162.917L134 162.917L147.085 336.953C147.103 337.246 147.125 337.539 147.151 337.83L147.205 338.553L147.225 338.552C148.894 353.114 161.111 364.497 176.102 364.985V364.999H176.799L177.104 365.001L177.41 364.999H258.002L258.307 365.001L258.613 364.999H259.308V364.985C275.454 364.461 288.381 351.298 288.381 335.136V335.131ZM164.94 188.629C164.74 184.72 167.763 181.39 171.692 181.191C175.621 180.993 178.968 184.001 179.168 187.911L186.883 338.589C187.083 342.498 184.06 345.828 180.132 346.027C176.203 346.225 172.855 343.217 172.655 339.307L164.94 188.629ZM263.836 182.183C259.907 181.985 256.56 184.993 256.36 188.902L248.646 339.581C248.446 343.49 251.469 346.82 255.398 347.018C259.327 347.217 262.674 344.208 262.874 340.299L270.587 189.621C270.788 185.711 267.765 182.381 263.836 182.183ZM210.679 188.423C210.679 184.509 213.868 181.336 217.802 181.336C221.736 181.336 224.925 184.509 224.925 188.423V339.296C224.925 343.211 221.736 346.384 217.802 346.384C213.868 346.384 210.679 343.211 210.679 339.296V188.423Z" fill="#4A85DF"/>
</g>
<g filter="url(#filter8_d)">
<rect x="47.5938" y="7.29492" width="160" height="90" rx="10" transform="rotate(11.8 47.5938 7.29492)" fill="#DFDFDF"/>
</g>
<g filter="url(#filter9_d)">
<rect x="25.4023" y="10.8301" width="170" height="90" rx="10" transform="rotate(11.8 25.4023 10.8301)" fill="white"/>
</g>
<path d="M39.0883 50.4662C40.9805 50.8615 42.8348 49.6481 43.2301 47.7559C43.6254 45.8638 42.4119 44.0095 40.5198 43.6142C38.6276 43.2189 36.7733 44.4323 36.378 46.3245C35.9827 48.2166 37.1962 50.071 39.0883 50.4662Z" fill="#4A85DF"/>
<path d="M35.4047 68.0873C37.2969 68.4826 39.1512 67.2692 39.5465 65.377C39.9418 63.4849 38.7283 61.6306 36.8362 61.2353C34.944 60.84 33.0897 62.0534 32.6944 63.9456C32.2991 65.8377 33.5126 67.692 35.4047 68.0873Z" fill="#4A85DF"/>
<path d="M31.725 85.7065C33.6172 86.1018 35.4715 84.8883 35.8668 82.9962C36.2621 81.104 35.0487 79.2497 33.1565 78.8544C31.2644 78.4591 29.41 79.6726 29.0147 81.5647C28.6194 83.4569 29.8329 85.3112 31.725 85.7065Z" fill="#4A85DF"/>
<path d="M145.716 66.613L62.2713 49.1805C61.2262 48.9622 60.2019 49.6324 59.9836 50.6775C59.7652 51.7227 60.4355 52.7469 61.4806 52.9652L144.925 70.3977C145.97 70.6161 146.995 69.9458 147.213 68.9007C147.431 67.8556 146.761 66.8313 145.716 66.613Z" fill="#D2D2D2"/>
<path d="M142.196 84.2009L58.7518 66.7684C57.7066 66.55 56.6824 67.2203 56.464 68.2654C56.2457 69.3106 56.9159 70.3348 57.9611 70.5531L141.406 87.9856C142.451 88.204 143.475 87.5337 143.693 86.4886C143.912 85.4434 143.241 84.4192 142.196 84.2009Z" fill="#D2D2D2"/>
<path d="M138.509 101.853L55.0643 84.4207C54.0191 84.2024 52.9949 84.8726 52.7765 85.9178C52.5582 86.9629 53.2284 87.9871 54.2736 88.2055L137.718 105.638C138.763 105.856 139.787 105.186 140.006 104.141C140.224 103.096 139.554 102.072 138.509 101.853Z" fill="#D2D2D2"/>
<path d="M125.159 41.8874L42.9343 24.7098C41.8531 24.4839 40.7935 25.1773 40.5676 26.2585L39.7496 30.174C39.5237 31.2552 40.2171 32.3148 41.2983 32.5407L123.523 49.7184C124.604 49.9443 125.664 49.2509 125.89 48.1696L126.708 44.2542C126.934 43.1729 126.24 42.1133 125.159 41.8874Z" fill="#D2D2D2"/>
<defs>
<filter id="filter0_d" x="158.41" y="192.49" width="119.578" height="87.2122" filterUnits="userSpaceOnUse" color-interpolation-filters="sRGB">
<feFlood flood-opacity="0" result="BackgroundImageFix"/>
<feColorMatrix in="SourceAlpha" type="matrix" values="0 0 0 0 0 0 0 0 0 0 0 0 0 0 0 0 0 0 127 0"/>
<feOffset dx="-1" dy="-1"/>
<feGaussianBlur stdDeviation="2"/>
<feColorMatrix type="matrix" values="0 0 0 0 0 0 0 0 0 0 0 0 0 0 0 0 0 0 0.25 0"/>
<feBlend mode="normal" in2="BackgroundImageFix" result="effect1_dropShadow"/>
<feBlend mode="normal" in="SourceGraphic" in2="effect1_dropShadow" result="shape"/>
</filter>
<filter id="filter1_d" x="146.602" y="197.25" width="129.423" height="88.9659" filterUnits="userSpaceOnUse" color-interpolation-filters="sRGB">
<feFlood flood-opacity="0" result="BackgroundImageFix"/>
<feColorMatrix in="SourceAlpha" type="matrix" values="0 0 0 0 0 0 0 0 0 0 0 0 0 0 0 0 0 0 127 0"/>
<feOffset dx="-1" dy="-1"/>
<feGaussianBlur stdDeviation="2"/>
<feColorMatrix type="matrix" values="0 0 0 0 0 0 0 0 0 0 0 0 0 0 0 0 0 0 0.25 0"/>
<feBlend mode="normal" in2="BackgroundImageFix" result="effect1_dropShadow"/>
<feBlend mode="normal" in="SourceGraphic" in2="effect1_dropShadow" result="shape"/>
</filter>
<filter id="filter2_d" x="163.805" y="261.084" width="117.617" height="82.4871" filterUnits="userSpaceOnUse" color-interpolation-filters="sRGB">
<feFlood flood-opacity="0" result="BackgroundImageFix"/>
<feColorMatrix in="SourceAlpha" type="matrix" values="0 0 0 0 0 0 0 0 0 0 0 0 0 0 0 0 0 0 127 0"/>
<feOffset dx="-1" dy="-1"/>
<feGaussianBlur stdDeviation="2"/>
<feColorMatrix type="matrix" values="0 0 0 0 0 0 0 0 0 0 0 0 0 0 0 0 0 0 0.25 0"/>
<feBlend mode="normal" in2="BackgroundImageFix" result="effect1_dropShadow"/>
<feBlend mode="normal" in="SourceGraphic" in2="effect1_dropShadow" result="shape"/>
</filter>
<filter id="filter3_d" x="153.859" y="267.887" width="127.55" height="83.6383" filterUnits="userSpaceOnUse" color-interpolation-filters="sRGB">
<feFlood flood-opacity="0" result="BackgroundImageFix"/>
<feColorMatrix in="SourceAlpha" type="matrix" values="0 0 0 0 0 0 0 0 0 0 0 0 0 0 0 0 0 0 127 0"/>
<feOffset dx="-1" dy="-1"/>
<feGaussianBlur stdDeviation="2"/>
<feColorMatrix type="matrix" values="0 0 0 0 0 0 0 0 0 0 0 0 0 0 0 0 0 0 0.25 0"/>
<feBlend mode="normal" in2="BackgroundImageFix" result="effect1_dropShadow"/>
<feBlend mode="normal" in="SourceGraphic" in2="effect1_dropShadow" result="shape"/>
</filter>
<filter id="filter4_d" x="127" y="61.082" width="237.999" height="311.919" filterUnits="userSpaceOnUse" color-interpolation-filters="sRGB">
<feFlood flood-opacity="0" result="BackgroundImageFix"/>
<feColorMatrix in="SourceAlpha" type="matrix" values="0 0 0 0 0 0 0 0 0 0 0 0 0 0 0 0 0 0 127 0"/>
<feOffset dx="-3" dy="4"/>
<feGaussianBlur stdDeviation="2"/>
<feColorMatrix type="matrix" values="0 0 0 0 0 0 0 0 0 0 0 0 0 0 0 0 0 0 0.25 0"/>
<feBlend mode="normal" in2="BackgroundImageFix" result="effect1_dropShadow"/>
<feBlend mode="normal" in="SourceGraphic" in2="effect1_dropShadow" result="shape"/>
</filter>
<filter id="filter5_d" x="25.1875" y="3.29492" width="183.023" height="128.817" filterUnits="userSpaceOnUse" color-interpolation-filters="sRGB">
<feFlood flood-opacity="0" result="BackgroundImageFix"/>
<feColorMatrix in="SourceAlpha" type="matrix" values="0 0 0 0 0 0 0 0 0 0 0 0 0 0 0 0 0 0 127 0"/>
<feOffset/>
<feGaussianBlur stdDeviation="2"/>
<feColorMatrix type="matrix" values="0 0 0 0 0 0 0 0 0 0 0 0 0 0 0 0 0 0 0.25 0"/>
<feBlend mode="normal" in2="BackgroundImageFix" result="effect1_dropShadow"/>
<feBlend mode="normal" in="SourceGraphic" in2="effect1_dropShadow" result="shape"/>
</filter>
<filter id="filter6_d" x="0.996094" y="3.83008" width="192.812" height="130.862" filterUnits="userSpaceOnUse" color-interpolation-filters="sRGB">
<feFlood flood-opacity="0" result="BackgroundImageFix"/>
<feColorMatrix in="SourceAlpha" type="matrix" values="0 0 0 0 0 0 0 0 0 0 0 0 0 0 0 0 0 0 127 0"/>
<feOffset dx="-2" dy="-3"/>
<feGaussianBlur stdDeviation="2"/>
<feColorMatrix type="matrix" values="0 0 0 0 0 0 0 0 0 0 0 0 0 0 0 0 0 0 0.1 0"/>
<feBlend mode="normal" in2="BackgroundImageFix" result="effect1_dropShadow"/>
<feBlend mode="normal" in="SourceGraphic" in2="effect1_dropShadow" result="shape"/>
</filter>
<filter id="filter7_d" x="127" y="61.082" width="237.999" height="311.919" filterUnits="userSpaceOnUse" color-interpolation-filters="sRGB">
<feFlood flood-opacity="0" result="BackgroundImageFix"/>
<feColorMatrix in="SourceAlpha" type="matrix" values="0 0 0 0 0 0 0 0 0 0 0 0 0 0 0 0 0 0 127 0"/>
<feOffset dx="-3" dy="4"/>
<feGaussianBlur stdDeviation="2"/>
<feColorMatrix type="matrix" values="0 0 0 0 0 0 0 0 0 0 0 0 0 0 0 0 0 0 0.25 0"/>
<feBlend mode="normal" in2="BackgroundImageFix" result="effect1_dropShadow"/>
<feBlend mode="normal" in="SourceGraphic" in2="effect1_dropShadow" result="shape"/>
</filter>
<filter id="filter8_d" x="23.1875" y="0.294922" width="183.023" height="128.817" filterUnits="userSpaceOnUse" color-interpolation-filters="sRGB">
<feFlood flood-opacity="0" result="BackgroundImageFix"/>
<feColorMatrix in="SourceAlpha" type="matrix" values="0 0 0 0 0 0 0 0 0 0 0 0 0 0 0 0 0 0 127 0"/>
<feOffset dx="-2" dy="-3"/>
<feGaussianBlur stdDeviation="2"/>
<feColorMatrix type="matrix" values="0 0 0 0 0 0 0 0 0 0 0 0 0 0 0 0 0 0 0.1 0"/>
<feBlend mode="normal" in2="BackgroundImageFix" result="effect1_dropShadow"/>
<feBlend mode="normal" in="SourceGraphic" in2="effect1_dropShadow" result="shape"/>
</filter>
<filter id="filter9_d" x="0.996094" y="3.83008" width="192.812" height="130.862" filterUnits="userSpaceOnUse" color-interpolation-filters="sRGB">
<feFlood flood-opacity="0" result="BackgroundImageFix"/>
<feColorMatrix in="SourceAlpha" type="matrix" values="0 0 0 0 0 0 0 0 0 0 0 0 0 0 0 0 0 0 127 0"/>
<feOffset dx="-2" dy="-3"/>
<feGaussianBlur stdDeviation="2"/>
<feColorMatrix type="matrix" values="0 0 0 0 0 0 0 0 0 0 0 0 0 0 0 0 0 0 0.1 0"/>
<feBlend mode="normal" in2="BackgroundImageFix" result="effect1_dropShadow"/>
<feBlend mode="normal" in="SourceGraphic" in2="effect1_dropShadow" result="shape"/>
</filter>
</defs>
</svg>
