<svg width="13" height="16" viewBox="0 0 13 16" xmlns="http://www.w3.org/2000/svg">
<path fill-rule="evenodd" clip-rule="evenodd" d="M8.35077 0.759228C8.41179 0.903512 8.44417 1.05781 8.44624 1.21387H11.4789C11.5902 1.21387 11.7005 1.23536 11.8033 1.2771C11.9062 1.31884 11.9997 1.38002 12.0784 1.45714C12.1571 1.53427 12.2196 1.62583 12.2622 1.7266C12.3048 1.82735 12.327 1.93534 12.327 2.0444V2.45969H0V2.0444C3.90884e-05 1.93543 0.0219692 1.82753 0.0645415 1.72685C0.107152 1.62608 0.169607 1.53452 0.24834 1.45739C0.327074 1.38027 0.420544 1.31909 0.523414 1.27735C0.60606 1.24381 0.693474 1.22335 0.782389 1.2166V1.21387H3.91314C3.91525 1.05791 3.94763 0.90371 4.0086 0.759514C4.0717 0.610298 4.16418 0.474716 4.28077 0.360511C4.39735 0.246306 4.53576 0.155713 4.68809 0.0939056C4.82538 0.0381981 4.97156 0.00685767 5.1198 0.00121402V0H7.19082L7.2069 0.000100838C7.3663 0.00210047 7.52392 0.0338216 7.67129 0.0936194C7.82362 0.155427 7.96202 0.24602 8.07861 0.360225C8.1952 0.47443 8.28768 0.610012 8.35077 0.759228ZM11.6098 3.03027L10.762 14.0833C10.762 15.1205 9.92093 15.9666 8.87043 16.0002H8.82521L8.80534 16.0003L8.78546 16.0002H3.54207L3.5222 16.0003L3.50232 16.0002L3.457 15.9993C2.48162 15.968 1.68682 15.2374 1.57819 14.3028L1.57693 14.3029L1.57338 14.2565C1.57168 14.2378 1.57025 14.219 1.5691 14.2002L0.717773 3.0306L0.84864 3.03041L10.876 3.03027L11.6098 3.03027Z"/>
</svg>
