<svg width="357" height="391" viewBox="0 0 357 391" fill="none" xmlns="http://www.w3.org/2000/svg">
<g filter="url(#filter0_d)">
<path d="M248.328 269.098L156.939 279.688C148.71 280.641 142.812 288.085 143.766 296.314L149.981 349.955C150.935 358.185 158.379 364.083 166.608 363.129L257.996 352.54C266.226 351.587 272.124 344.142 271.17 335.913L264.955 282.272C264.001 274.043 256.557 268.145 248.328 269.098Z" fill="white"/>
</g>
<path d="M166.28 316.859C167.926 316.668 169.106 315.179 168.915 313.534C168.724 311.888 167.235 310.708 165.589 310.899C163.944 311.09 162.764 312.578 162.955 314.224C163.145 315.87 164.634 317.05 166.28 316.859Z" fill="#4A85DF"/>
<path d="M168.122 332.753C169.768 332.563 170.947 331.074 170.757 329.428C170.566 327.782 169.077 326.603 167.431 326.793C165.785 326.984 164.606 328.473 164.796 330.119C164.987 331.765 166.476 332.944 168.122 332.753Z" fill="#4A85DF"/>
<path d="M169.964 348.646C171.609 348.455 172.789 346.967 172.598 345.321C172.408 343.675 170.919 342.495 169.273 342.686C167.627 342.877 166.448 344.365 166.638 346.011C166.829 347.657 168.318 348.837 169.964 348.646Z" fill="#4A85DF"/>
<path d="M250.141 302.109L179.613 310.281L180.074 314.255L250.602 306.083L250.141 302.109Z" fill="#D2D2D2"/>
<path d="M252.018 318.322L181.49 326.494L181.951 330.468L252.479 322.295L252.018 318.322Z" fill="#D2D2D2"/>
<path d="M253.843 334.056L183.314 342.229L183.775 346.202L254.303 338.03L253.843 334.056Z" fill="#D2D2D2"/>
<path d="M244.974 283.58L163.519 293.018C161.873 293.209 160.694 294.698 160.884 296.343L161.345 300.317C161.535 301.963 163.024 303.142 164.67 302.952L246.125 293.513C247.771 293.323 248.951 291.834 248.76 290.188L248.3 286.215C248.109 284.569 246.62 283.389 244.974 283.58Z" fill="#D2D2D2"/>
<g filter="url(#filter1_d)">
<path d="M258.118 208.144L167.545 192.003C159.389 190.549 151.599 195.983 150.146 204.138L140.671 257.301C139.218 265.457 144.651 273.246 152.807 274.7L243.38 290.841C251.536 292.295 259.325 286.861 260.779 278.706L270.253 225.543C271.707 217.388 266.273 209.598 258.118 208.144Z" fill="white"/>
</g>
<path d="M165.799 230.291C167.43 230.581 168.988 229.495 169.279 227.864C169.57 226.232 168.483 224.674 166.852 224.384C165.221 224.093 163.663 225.18 163.372 226.811C163.081 228.442 164.168 230 165.799 230.291Z" fill="#4A85DF"/>
<path d="M162.993 246.043C164.624 246.333 166.182 245.247 166.472 243.616C166.763 241.984 165.676 240.426 164.045 240.136C162.414 239.845 160.856 240.932 160.565 242.563C160.275 244.194 161.361 245.752 162.993 246.043Z" fill="#4A85DF"/>
<path d="M160.186 261.795C161.817 262.085 163.375 260.999 163.666 259.367C163.956 257.736 162.87 256.178 161.239 255.888C159.607 255.597 158.05 256.684 157.759 258.315C157.468 259.946 158.555 261.504 160.186 261.795Z" fill="#4A85DF"/>
<path d="M250.36 240.283L180.461 227.826L179.759 231.764L249.658 244.221L250.36 240.283Z" fill="#D2D2D2"/>
<path d="M247.494 256.35L177.596 243.893L176.894 247.831L246.793 260.287L247.494 256.35Z" fill="#D2D2D2"/>
<path d="M244.717 271.943L174.818 259.486L174.117 263.424L244.015 275.881L244.717 271.943Z" fill="#D2D2D2"/>
<path d="M250.74 221.05L170.012 206.663C168.381 206.372 166.823 207.459 166.532 209.09L165.83 213.028C165.54 214.659 166.626 216.217 168.258 216.508L248.986 230.895C250.617 231.186 252.175 230.099 252.465 228.468L253.167 224.53C253.458 222.899 252.371 221.341 250.74 221.05Z" fill="#D2D2D2"/>
<g filter="url(#filter2_d)">
<path fill-rule="evenodd" clip-rule="evenodd" d="M335.378 181.319C333.9 183.255 332.066 184.888 329.977 186.131L353.282 226.498L342.075 232.968L342.076 232.969L353.283 226.498C354.138 227.981 354.696 229.616 354.923 231.31C355.15 233.004 355.043 234.725 354.607 236.374C354.172 238.023 353.416 239.568 352.384 240.92C351.352 242.272 350.063 243.405 348.592 244.255L348.593 244.258L342.99 247.493L248.256 83.4095L253.856 80.1764L253.86 80.1742C255.33 79.3257 256.955 78.777 258.641 78.5593C260.328 78.3415 262.043 78.4595 263.689 78.9067C265.335 79.3538 266.879 80.1214 268.233 81.1655C269.32 82.0043 270.268 83.0085 271.042 84.1395L271.079 84.1182L295.139 125.792C297.26 124.605 299.59 123.834 302.004 123.522C304.502 123.2 307.043 123.375 309.48 124.037C311.917 124.699 314.203 125.835 316.207 127.382C318.014 128.775 319.56 130.477 320.776 132.406L320.792 132.396L336.708 159.964L336.832 160.178L336.83 160.179C338.028 162.316 338.812 164.661 339.137 167.089C339.474 169.598 339.315 172.146 338.67 174.587C338.025 177.029 336.906 179.316 335.378 181.319ZM279.423 352.502C279.423 352.501 279.423 352.501 279.423 352.501L292.045 185.66C292.264 182.759 289.969 180.283 287.059 180.283H281.175C281.174 180.283 281.174 180.284 281.174 180.284C281.174 180.285 281.173 180.285 281.173 180.285H127.053C127.052 180.285 127.051 180.286 127.051 180.287C127.051 180.287 127.051 180.288 127.05 180.288L126.083 180.288C125.52 180.288 125.076 180.767 125.118 181.329L138.125 354.324C138.142 354.617 138.164 354.91 138.191 355.201L138.244 355.915C138.245 355.92 138.25 355.924 138.255 355.924C138.26 355.923 138.265 355.927 138.266 355.933C139.939 370.488 152.15 381.865 167.135 382.356C167.139 382.356 167.142 382.359 167.142 382.363C167.142 382.367 167.146 382.371 167.15 382.371H167.839L168.144 382.372L168.45 382.371H249.041L249.347 382.372L249.652 382.371H250.34C250.344 382.371 250.347 382.367 250.347 382.363C250.347 382.359 250.351 382.356 250.355 382.356C266.498 381.828 279.421 368.666 279.421 352.507V352.503C279.421 352.502 279.422 352.502 279.422 352.502C279.422 352.502 279.423 352.502 279.423 352.502ZM155.98 206C155.78 202.091 158.803 198.761 162.732 198.562C166.661 198.364 170.008 201.372 170.208 205.282L177.923 355.96C178.123 359.87 175.1 363.199 171.171 363.398C167.242 363.596 163.895 360.588 163.695 356.679L155.98 206ZM254.876 199.554C250.947 199.356 247.599 202.364 247.399 206.273L239.686 356.952C239.486 360.861 242.509 364.191 246.438 364.39C250.367 364.588 253.714 361.579 253.914 357.67L261.627 206.992C261.827 203.082 258.805 199.752 254.876 199.554ZM201.719 205.794C201.719 201.88 204.908 198.707 208.842 198.707C212.776 198.707 215.965 201.88 215.965 205.794V356.667C215.965 360.582 212.776 363.755 208.842 363.755C204.908 363.755 201.719 360.582 201.719 356.667V205.794Z" fill="#4A85DF"/>
</g>
<g filter="url(#filter3_d)">
<path d="M193.395 41.1481L44.6069 10.0672C36.4977 8.37323 28.5506 13.5738 26.8566 21.6831L9.06688 106.845C7.37291 114.954 12.5735 122.901 20.6827 124.595L169.471 155.676C177.58 157.37 185.527 152.169 187.221 144.06L205.011 58.8984C206.705 50.7892 201.504 42.8421 193.395 41.1481Z" fill="white"/>
</g>
<path d="M49.0222 67.1761C50.6441 67.5149 52.2335 66.4748 52.5723 64.8529C52.9111 63.2311 51.871 61.6417 50.2491 61.3029C48.6273 60.9641 47.0379 62.0042 46.6991 63.6261C46.3603 65.2479 47.4004 66.8373 49.0222 67.1761Z" fill="#4A85DF"/>
<path d="M44.9324 86.7542C46.5542 87.093 48.1436 86.0529 48.4824 84.4311C48.8212 82.8092 47.7811 81.2198 46.1593 80.881C44.5374 80.5422 42.948 81.5823 42.6092 83.2042C42.2704 84.826 43.3105 86.4154 44.9324 86.7542Z" fill="#4A85DF"/>
<path d="M40.4343 108.289C42.0562 108.628 43.6456 107.588 43.9844 105.966C44.3232 104.344 43.2831 102.755 41.6612 102.416C40.0394 102.077 38.45 103.117 38.1112 104.739C37.7724 106.361 38.8125 107.951 40.4343 108.289Z" fill="#4A85DF"/>
<path d="M168.488 87.0234L74.5163 67.3933C73.4351 67.1675 72.3755 67.8609 72.1496 68.9421C71.9238 70.0233 72.6172 71.083 73.6984 71.3088L167.67 90.9389C168.751 91.1647 169.811 90.4713 170.037 89.3901C170.263 88.3089 169.569 87.2493 168.488 87.0234Z" fill="#D2D2D2"/>
<path d="M164.398 106.602L70.4265 86.9715C69.3453 86.7456 68.2857 87.439 68.0598 88.5202C67.8339 89.6015 68.5273 90.6611 69.6086 90.8869L163.58 110.517C164.661 110.743 165.721 110.049 165.947 108.968C166.173 107.887 165.479 106.827 164.398 106.602Z" fill="#D2D2D2"/>
<path d="M159.9 128.137L65.9284 108.507C64.8472 108.281 63.7876 108.974 63.5617 110.055C63.3359 111.137 64.0293 112.196 65.1105 112.422L159.082 132.052C160.163 132.278 161.223 131.585 161.449 130.503C161.675 129.422 160.981 128.363 159.9 128.137Z" fill="#D2D2D2"/>
<path d="M174.053 55.4948L56.589 30.9572C54.9671 30.6184 53.3777 31.6585 53.0389 33.2804L51.4031 41.1113C51.0643 42.7332 52.1044 44.3226 53.7262 44.6614L171.191 69.199C172.813 69.5378 174.402 68.4976 174.741 66.8758L176.377 59.0448C176.715 57.423 175.675 55.8336 174.053 55.4948Z" fill="#D2D2D2"/>
<defs>
<filter id="filter0_d" x="139.664" y="261.998" width="135.607" height="102.233" filterUnits="userSpaceOnUse" color-interpolation-filters="sRGB">
<feFlood flood-opacity="0" result="BackgroundImageFix"/>
<feColorMatrix in="SourceAlpha" type="matrix" values="0 0 0 0 0 0 0 0 0 0 0 0 0 0 0 0 0 0 127 0"/>
<feOffset dy="-3"/>
<feGaussianBlur stdDeviation="2"/>
<feColorMatrix type="matrix" values="0 0 0 0 0 0 0 0 0 0 0 0 0 0 0 0 0 0 0.25 0"/>
<feBlend mode="normal" in2="BackgroundImageFix" result="effect1_dropShadow"/>
<feBlend mode="normal" in="SourceGraphic" in2="effect1_dropShadow" result="shape"/>
</filter>
<filter id="filter1_d" x="136.436" y="190.768" width="138.052" height="107.309" filterUnits="userSpaceOnUse" color-interpolation-filters="sRGB">
<feFlood flood-opacity="0" result="BackgroundImageFix"/>
<feColorMatrix in="SourceAlpha" type="matrix" values="0 0 0 0 0 0 0 0 0 0 0 0 0 0 0 0 0 0 127 0"/>
<feOffset dy="3"/>
<feGaussianBlur stdDeviation="2"/>
<feColorMatrix type="matrix" values="0 0 0 0 0 0 0 0 0 0 0 0 0 0 0 0 0 0 0.25 0"/>
<feBlend mode="normal" in2="BackgroundImageFix" result="effect1_dropShadow"/>
<feBlend mode="normal" in="SourceGraphic" in2="effect1_dropShadow" result="shape"/>
</filter>
<filter id="filter2_d" x="118.115" y="78.4531" width="237.924" height="311.919" filterUnits="userSpaceOnUse" color-interpolation-filters="sRGB">
<feFlood flood-opacity="0" result="BackgroundImageFix"/>
<feColorMatrix in="SourceAlpha" type="matrix" values="0 0 0 0 0 0 0 0 0 0 0 0 0 0 0 0 0 0 127 0"/>
<feOffset dx="-3" dy="4"/>
<feGaussianBlur stdDeviation="2"/>
<feColorMatrix type="matrix" values="0 0 0 0 0 0 0 0 0 0 0 0 0 0 0 0 0 0 0.25 0"/>
<feBlend mode="normal" in2="BackgroundImageFix" result="effect1_dropShadow"/>
<feBlend mode="normal" in="SourceGraphic" in2="effect1_dropShadow" result="shape"/>
</filter>
<filter id="filter3_d" x="0" y="0" width="210.079" height="159.743" filterUnits="userSpaceOnUse" color-interpolation-filters="sRGB">
<feFlood flood-opacity="0" result="BackgroundImageFix"/>
<feColorMatrix in="SourceAlpha" type="matrix" values="0 0 0 0 0 0 0 0 0 0 0 0 0 0 0 0 0 0 127 0"/>
<feOffset dx="-2" dy="-3"/>
<feGaussianBlur stdDeviation="2"/>
<feColorMatrix type="matrix" values="0 0 0 0 0 0 0 0 0 0 0 0 0 0 0 0 0 0 0.25 0"/>
<feBlend mode="normal" in2="BackgroundImageFix" result="effect1_dropShadow"/>
<feBlend mode="normal" in="SourceGraphic" in2="effect1_dropShadow" result="shape"/>
</filter>
</defs>
</svg>
