<svg width="19" height="16" viewBox="0 0 19 16" fill="none" xmlns="http://www.w3.org/2000/svg">
<path fill-rule="evenodd" clip-rule="evenodd" d="M18.5283 6.94361C18.5527 7.00903 18.5771 7.07446 18.5771 7.13989C18.6357 7.43091 18.666 7.72778 18.667 8.02564C18.6641 8.302 18.6367 8.57739 18.5859 8.84986C18.5762 8.89966 18.5576 8.94653 18.543 8.99439C18.5322 9.03052 18.5234 9.06763 18.5234 9.10669C18.4922 9.22681 18.457 9.34595 18.417 9.46411L18.3613 9.62036L18.2539 9.8772C18.1748 10.0481 18.085 10.2141 17.9844 10.3733L17.8584 10.5686C17.8457 10.593 17.8301 10.6174 17.8135 10.6399L17.7686 10.6838C17.3506 11.2336 16.8076 11.6809 16.1846 11.9885C15.5605 12.2961 14.873 12.4563 14.1758 12.4563C14.1533 12.0276 13.9746 11.6213 13.6729 11.3127C13.4893 11.1292 13.2705 10.9885 13.0312 10.8967C12.8252 10.8176 12.6045 10.7747 12.3789 10.7727C12.3018 10.7727 12.2246 10.7776 12.1475 10.7874C12.0801 10.7961 12.0127 10.8088 11.9473 10.8254C11.7842 10.8655 11.627 10.928 11.4805 11.012V8.02564C11.4805 7.55591 11.292 7.10474 10.9551 6.77271C10.6182 6.4397 10.1611 6.25318 9.68457 6.25318C9.38867 6.25318 9.09961 6.32544 8.84277 6.46021C8.68652 6.54224 8.54199 6.64673 8.41406 6.77271L8.35059 6.83911C8.18262 7.02271 8.05664 7.23657 7.97852 7.46802C7.91895 7.64673 7.8877 7.83423 7.8877 8.02564V10.9231C7.75879 10.8469 7.62109 10.7893 7.47754 10.7493C7.40137 10.7278 7.32422 10.7112 7.24609 10.7004C7.16113 10.6887 7.07617 10.6829 6.99023 10.6838C6.66309 10.6848 6.34668 10.7737 6.07227 10.9368C5.94629 11.012 5.8291 11.1018 5.72363 11.2063C5.38574 11.5374 5.19531 11.9866 5.19336 12.4563C4.49609 12.4563 3.80859 12.2961 3.18457 11.9885C2.56152 11.6809 2.01855 11.2336 1.60059 10.6838L1.55566 10.6213L1.54297 10.6038C1.53027 10.5881 1.52051 10.5696 1.51074 10.551L1.38477 10.3557C1.33496 10.2776 1.28809 10.1965 1.24414 10.1155L1.22754 10.0852C1.20312 10.0393 1.17871 9.99243 1.15625 9.94556L1.11523 9.85962L1.00781 9.60278C0.946289 9.4397 0.893555 9.27271 0.849609 9.10474L0.845703 9.08911L0.834961 9.04517L0.816406 8.98364L0.804688 8.94946C0.792969 8.9104 0.783203 8.87232 0.783203 8.83228C0.769531 8.75903 0.756836 8.68482 0.74707 8.61157C0.735352 8.52759 0.726562 8.44458 0.719727 8.3606C0.709961 8.24927 0.704102 8.13794 0.702148 8.02564C0.706055 7.74243 0.736328 7.46118 0.791992 7.18384L0.801758 7.14282C0.805664 7.12818 0.811523 7.11353 0.817383 7.09888L0.831055 7.06079L0.84375 7.02564L0.852539 6.99927C0.859375 6.97876 0.864258 6.95923 0.868164 6.93872C0.871094 6.9231 0.873047 6.90747 0.873047 6.89185C0.914062 6.719 0.96875 6.55103 1.03418 6.38599C1.05566 6.33521 1.07715 6.28833 1.10254 6.23853C1.12891 6.18482 1.15918 6.12818 1.19629 6.05884L1.24512 5.96802L1.2627 5.93579C1.3125 5.84204 1.3623 5.74829 1.41211 5.66821C1.45312 5.60083 1.49512 5.54028 1.54102 5.47974C1.57324 5.43677 1.6084 5.39478 1.64551 5.34986L1.72949 5.24829L1.80371 5.15943C1.84473 5.1106 1.88477 5.06372 1.92383 5.02173C1.98926 4.95044 2.05957 4.88892 2.13184 4.82739L2.21094 4.75611L2.54395 4.48169L2.86719 4.17114C2.99414 4.09497 3.12598 4.02661 3.26172 3.96704L3.6123 3.80786C3.75879 3.75415 3.90918 3.71021 4.06152 3.67505C4.18262 3.63989 4.30566 3.61353 4.42969 3.59497H4.5918C4.77051 3.07935 5.02832 2.59595 5.35254 2.16236C5.69238 1.70728 6.10547 1.30689 6.57812 0.976808C7.50293 0.3313 8.61035 -0.0104965 9.74219 0.000245666C10.875 0.0109879 11.9756 0.374269 12.8877 1.03638C13.1641 1.23755 13.4189 1.46314 13.6494 1.70923C14.1797 2.27564 14.5811 2.95142 14.8223 3.69263H14.9844C15.0488 3.70239 15.1123 3.71411 15.1758 3.72876C15.2354 3.74146 15.2939 3.75611 15.3525 3.77271C15.5049 3.80689 15.6543 3.85181 15.8018 3.90552L16.1514 4.0647C16.2051 4.08814 16.2568 4.11255 16.3086 4.13794C16.3896 4.17798 16.4697 4.22193 16.5469 4.2688L16.8701 4.48169L17.2031 4.77368C17.3018 4.86255 17.3916 4.93286 17.4902 5.03931L17.582 5.13208L17.6211 5.17114C17.6973 5.24732 17.7686 5.32251 17.7686 5.36743C17.7686 5.40845 17.8047 5.44653 17.8506 5.49536C17.8838 5.53052 17.9229 5.57153 17.957 5.62427C18.0381 5.74829 18.1191 5.89868 18.1729 6.01392L18.1973 6.0647L18.2344 6.13696L18.2461 6.1604C18.2783 6.2229 18.3096 6.28247 18.335 6.34204C18.4004 6.50611 18.4541 6.67505 18.4961 6.84693L18.501 6.86548C18.5078 6.88794 18.5166 6.90943 18.5254 6.93189L18.5283 6.94361ZM10.582 13.0237L11.7588 11.9065C11.8408 11.8167 11.9414 11.7434 12.0547 11.6926C12.167 11.6428 12.2881 11.6155 12.4121 11.6135C12.5361 11.6116 12.6582 11.635 12.7725 11.6819C12.8867 11.7288 12.9893 11.7981 13.0752 11.886C13.1602 11.9749 13.2266 12.0784 13.2695 12.1936C13.3115 12.3079 13.3301 12.4299 13.3232 12.551C13.3232 12.5549 13.3223 12.5588 13.3223 12.5627C13.3135 12.6809 13.2812 12.7952 13.2275 12.9006C13.1914 12.97 13.1475 13.0344 13.0947 13.092C13.0654 13.1243 13.0332 13.1545 12.998 13.1829L10.3037 15.7522C10.2207 15.8313 10.124 15.8928 10.0195 15.9348C9.99609 15.9436 9.97266 15.9524 9.94922 15.9592C9.86426 15.9856 9.77441 16.0002 9.68359 16.0002C9.60938 16.0012 9.53613 15.9924 9.46484 15.9749C9.44336 15.97 9.4248 15.9651 9.40332 15.9583C9.38281 15.9514 9.35938 15.9426 9.33887 15.9348C9.22949 15.8909 9.12988 15.8254 9.0459 15.7434L6.35156 13.0852C6.26758 13.0032 6.20117 12.9045 6.15527 12.7971C6.11035 12.6887 6.08691 12.5735 6.08691 12.4563C6.08691 12.3391 6.11035 12.2239 6.15527 12.1155C6.17285 12.0754 6.19238 12.0364 6.21484 11.9993C6.25293 11.9368 6.29883 11.8792 6.35156 11.8274C6.43457 11.7444 6.53418 11.679 6.64355 11.634C6.75293 11.5901 6.87012 11.5667 6.98926 11.5667C7.10742 11.5667 7.22461 11.5901 7.33398 11.634C7.44336 11.679 7.54297 11.7444 7.62695 11.8274L8.78516 12.9788V8.02564C8.78516 7.88501 8.81934 7.74732 8.88379 7.62329C8.90234 7.58716 8.92383 7.552 8.94727 7.5188C8.97656 7.47681 9.01074 7.43677 9.04883 7.39966C9.2168 7.23364 9.44531 7.13989 9.68359 7.13989C9.92188 7.13989 10.1504 7.23364 10.3184 7.39966C10.4873 7.56568 10.582 7.79126 10.582 8.02564V13.0237Z" fill="white"/>
</svg>
