<svg width="8" height="6" viewBox="0 0 8 6" xmlns="http://www.w3.org/2000/svg">
<path d="M0.486138 0.972275H6.96798C7.23646 0.972275 7.45412 0.754615 7.45412 0.486138C7.45412 0.21766 7.23646 0 6.96798 0H0.486138C0.21766 0 0 0.21766 0 0.486138C0 0.754615 0.21766 0.972275 0.486138 0.972275Z" fill="#888888"/>
<path d="M0.486138 3.48595H6.96798C7.23646 3.48595 7.45412 3.26829 7.45412 2.99981C7.45412 2.73133 7.23646 2.51367 6.96798 2.51367H0.486138C0.21766 2.51367 0 2.73133 0 2.99981C0 3.26829 0.21766 3.48595 0.486138 3.48595Z" fill="#888888"/>
<path d="M0.486138 6.00011H6.96798C7.23646 6.00011 7.45412 5.78245 7.45412 5.51397C7.45412 5.24549 7.23646 5.02783 6.96798 5.02783H0.486138C0.21766 5.02783 0 5.24549 0 5.51397C0 5.78245 0.21766 6.00011 0.486138 6.00011Z" fill="#888888"/>
</svg>
