<svg width="10" height="12" viewBox="0 0 10 12" xmlns="http://www.w3.org/2000/svg">
<path d="M9.80268 3.00938C9.88304 3.08973 9.92857 3.19821 9.92857 3.31205V11.5714C9.92857 11.8085 9.73705 12 9.5 12H0.928571C0.691518 12 0.5 11.8085 0.5 11.5714V0.428571C0.5 0.191518 0.691518 0 0.928571 0H6.61652C6.73036 0 6.84018 0.0455357 6.92054 0.125893L9.80268 3.00938V3.00938ZM8.94018 3.50893L6.41964 0.988393V3.50893H8.94018ZM2.64286 5.59821C2.61444 5.59821 2.58719 5.6095 2.5671 5.6296C2.547 5.64969 2.53571 5.67694 2.53571 5.70536V6.34821C2.53571 6.37663 2.547 6.40388 2.5671 6.42398C2.58719 6.44407 2.61444 6.45536 2.64286 6.45536H7.78571C7.81413 6.45536 7.84138 6.44407 7.86148 6.42398C7.88157 6.40388 7.89286 6.37663 7.89286 6.34821V5.70536C7.89286 5.67694 7.88157 5.64969 7.86148 5.6296C7.84138 5.6095 7.81413 5.59821 7.78571 5.59821H2.64286ZM2.64286 7.41964C2.61444 7.41964 2.58719 7.43093 2.5671 7.45102C2.547 7.47112 2.53571 7.49837 2.53571 7.52679V8.16964C2.53571 8.19806 2.547 8.22531 2.5671 8.2454C2.58719 8.2655 2.61444 8.27679 2.64286 8.27679H5.10714C5.13556 8.27679 5.16281 8.2655 5.1829 8.2454C5.203 8.22531 5.21429 8.19806 5.21429 8.16964V7.52679C5.21429 7.49837 5.203 7.47112 5.1829 7.45102C5.16281 7.43093 5.13556 7.41964 5.10714 7.41964H2.64286Z"/>
</svg>
