<svg width="18" height="19" viewBox="0 0 18 19" fill="none" xmlns="http://www.w3.org/2000/svg">
<path fill-rule="evenodd" clip-rule="evenodd" d="M14.0769 0C14.6292 0 15.0769 0.447715 15.0769 1V1.96154H16.6923C17.2446 1.96154 17.6923 2.40925 17.6923 2.96154C17.6923 3.51382 17.2446 3.96154 16.6923 3.96154H15.0769V4.92308C15.0769 5.47536 14.6292 5.92308 14.0769 5.92308C13.5246 5.92308 13.0769 5.47536 13.0769 4.92308V3.96154H1C0.447715 3.96154 0 3.51382 0 2.96154C0 2.40925 0.447715 1.96154 1 1.96154H13.0769V1C13.0769 0.447715 13.5246 0 14.0769 0ZM3.61538 6.53846C4.16767 6.53846 4.61538 6.98618 4.61538 7.53846V8.5H16.6923C17.2446 8.5 17.6923 8.94772 17.6923 9.5C17.6923 10.0523 17.2446 10.5 16.6923 10.5H4.61538V11.4615C4.61538 12.0138 4.16767 12.4615 3.61538 12.4615C3.0631 12.4615 2.61538 12.0138 2.61538 11.4615V10.5H1C0.447715 10.5 0 10.0523 0 9.5C0 8.94772 0.447715 8.5 1 8.5H2.61538V7.53846C2.61538 6.98618 3.0631 6.53846 3.61538 6.53846ZM11.4615 13.0769C12.0138 13.0769 12.4615 13.5246 12.4615 14.0769V15.0385H16.6923C17.2446 15.0385 17.6923 15.4862 17.6923 16.0385C17.6923 16.5907 17.2446 17.0385 16.6923 17.0385H12.4615V18C12.4615 18.5523 12.0138 19 11.4615 19C10.9093 19 10.4615 18.5523 10.4615 18V17.0385H1C0.447715 17.0385 0 16.5907 0 16.0385C0 15.4862 0.447715 15.0385 1 15.0385H10.4615V14.0769C10.4615 13.5246 10.9093 13.0769 11.4615 13.0769Z" fill="white"/>
</svg>
