<svg width="14" height="14" viewBox="0 0 14 14" xmlns="http://www.w3.org/2000/svg">
<path fill-rule="evenodd" clip-rule="evenodd" d="M1.91992 5.95996V1.19043C1.91992 0.790039 1.83008 0.480469 1.65039 0.290039C1.46973 0.0996094 1.24023 0 0.950195 0C0.783203 0 0.636719 0.0332031 0.509766 0.0986328C0.416016 0.147461 0.332031 0.214844 0.259766 0.299805C0.0898438 0.5 0 0.790039 0 1.19043V12.8096C0 13.2002 0.0898438 13.5 0.259766 13.7002C0.363281 13.8213 0.488281 13.9062 0.635742 13.9541C0.731445 13.9844 0.835938 14 0.950195 14C1.24023 14 1.46973 13.9004 1.65039 13.7002C1.83008 13.5 1.91992 13.2002 1.91992 12.7998V7.5498H7.08008V12.8096C7.08008 13.2002 7.16992 13.5 7.33984 13.7002C7.50977 13.9004 7.74023 14 8.03027 14C8.16309 14 8.28711 13.9795 8.39941 13.9365C8.52441 13.8896 8.63574 13.8154 8.73047 13.71C8.91016 13.5098 9 13.21 9 12.8096V1.19043C9 0.790039 8.91016 0.490234 8.73047 0.290039C8.5498 0.0996094 8.32031 0 8.03027 0C7.74023 0 7.50977 0.0996094 7.33008 0.299805C7.16016 0.5 7.07031 0.790039 7.07031 1.19043V5.95996H1.91992ZM12.8428 13.2305V9L11.3604 9.43262C11.2139 9.4707 11.1113 9.5293 11.0684 9.58691C11.0254 9.64453 11 9.7207 11 9.82715C11 9.94238 11.0342 10.0381 11.0947 10.1152C11.1543 10.1924 11.2314 10.2305 11.3174 10.2305C11.3682 10.2305 11.4453 10.2119 11.54 10.1826L12.1572 10.0098V13.2305H11.4629C11.2998 13.2305 11.1719 13.2598 11.1025 13.3369C11.0342 13.4131 11 13.5 11 13.6152C11 13.7305 11.043 13.8174 11.1113 13.8945C11.1797 13.9619 11.2998 14 11.4629 14H13.5371C13.709 14 13.8203 13.9619 13.8975 13.8945C13.9658 13.8174 14 13.7305 14 13.6152C14 13.5 13.9658 13.4043 13.8887 13.3369C13.8535 13.3018 13.8047 13.2744 13.7432 13.2559C13.6855 13.2393 13.6162 13.2305 13.5371 13.2305H12.8428Z"/>
</svg>
