<svg width="14" height="14" viewBox="0 0 14 14" xmlns="http://www.w3.org/2000/svg">
<path fill-rule="evenodd" clip-rule="evenodd" d="M1.92 5.96V1.19C1.92 0.79 1.83 0.48 1.65 0.29C1.47 0.1 1.24 0 0.95 0C0.66 0 0.43 0.1 0.26 0.3C0.09 0.5 0 0.79 0 1.19V12.81C0 13.2 0.09 13.5 0.26 13.7C0.43 13.9 0.66 14 0.95 14C1.24 14 1.47 13.9 1.65 13.7C1.83 13.5 1.92 13.2 1.92 12.8V7.55H7.08V12.81C7.08 13.2 7.17 13.5 7.34 13.7C7.51 13.9 7.74 14 8.03 14C8.31 14 8.55 13.91 8.73 13.71C8.91 13.51 9 13.21 9 12.81V1.19C9 0.79 8.91 0.49 8.73 0.29C8.55 0.1 8.32 0 8.03 0C7.74 0 7.51 0.0999999 7.33 0.3C7.16 0.5 7.07 0.79 7.07 1.19V5.96H1.92ZM13.4475 13.2276H12.0054C12.6627 12.572 13.1049 12.1173 13.3319 11.8636C13.621 11.5421 13.803 11.2909 13.8779 11.11C13.955 10.9267 13.9936 10.7282 13.9936 10.5147C13.9936 10.0952 13.8608 9.73851 13.5953 9.44461C13.3298 9.1482 12.9893 9 12.5739 9C12.3062 9 12.0578 9.06782 11.8287 9.20347C11.6017 9.33911 11.4283 9.51997 11.3084 9.74604C11.1906 9.97212 11.1317 10.1605 11.1317 10.3112C11.1317 10.4117 11.1638 10.4996 11.2281 10.575C11.2944 10.6503 11.3726 10.688 11.4625 10.688C11.5396 10.688 11.6039 10.6654 11.6552 10.6202C11.7088 10.575 11.7505 10.4996 11.7805 10.3941C11.8298 10.2258 11.8951 10.099 11.9764 10.0136C12.1328 9.8528 12.3287 9.77242 12.5642 9.77242C12.7976 9.77242 12.9839 9.84527 13.1231 9.99096C13.2645 10.1341 13.3351 10.2999 13.3351 10.4883C13.3351 10.639 13.273 10.7985 13.1488 10.9668C12.9026 11.2959 12.1863 12.0344 11 13.1824V14H14V13.6307C14 13.4424 13.97 13.3092 13.9101 13.2313C13.8522 13.1535 13.773 13.1145 13.6724 13.1145C13.6017 13.1145 13.5268 13.1522 13.4475 13.2276Z"/>
</svg>
