<svg xmlns="http://www.w3.org/2000/svg" viewBox="0 0 24 24">    <path d="M 1 5 L 1 19 L 4 19 L 4 13 L 8 13 L 8 19 L 11 19 L 11 5 L 8 5 L 8 10 L 4 10 L 4 5 L 1 5 z M 17.919922 5 C 16.991922 5 16.150437 5.2034219 15.398438 5.6074219 C 14.646437 6.0114219 14.057766 6.5720625 13.634766 7.2890625 C 13.211766 8.0060625 13 8.7877656 13 9.6347656 L 13 10 L 16 10 L 16.058594 9.4902344 C 16.058594 8.0002344 17.06275 7.4648438 17.84375 7.4648438 C 19.46875 7.4648438 19.59375 8.6892031 19.59375 9.2832031 C 19.59375 10.016203 18.813703 11.006953 17.720703 12.251953 L 13 16.914062 L 13 19 L 23 19 L 23 16.535156 L 17.482422 16.535156 C 17.482422 16.535156 20.899172 12.774984 21.326172 12.208984 C 21.752172 11.642984 22.067531 11.102891 22.269531 10.587891 C 22.471531 10.072891 22.572266 9.543 22.572266 9 C 22.572266 7.711 22.168281 6.7222031 21.363281 6.0332031 C 20.558281 5.3442031 19.410922 5 17.919922 5 z"></path></svg>