<svg width="22" height="12" viewBox="0 0 22 12" fill="none" xmlns="http://www.w3.org/2000/svg">
<path d="M7.19965 0.00058146H9.59953V12H7.19965V7.20023H2.39988V12H0V0.00058146H2.39988V4.80035H7.19965V0.00058146ZM16.7992 9.60012C17.4112 9.10814 17.5192 8.85615 18.0711 8.34018C18.5955 7.8602 19.0887 7.34663 19.5471 6.80425C19.9478 6.33627 20.291 5.8203 20.567 5.26833C20.807 4.80035 20.933 4.28197 20.939 3.7564C20.9449 3.22686 20.8343 2.70251 20.615 2.22047C20.4023 1.75872 20.091 1.34914 19.703 1.02053C19.2879 0.680831 18.8112 0.424178 18.2991 0.264568C17.7171 0.0809998 17.1094 -0.00812533 16.4992 0.00058146C16.0672 0.00058146 15.6388 0.0401794 15.2153 0.120576C14.8037 0.192572 14.4017 0.310166 14.0153 0.468559C13.6502 0.624928 13.304 0.822178 12.9834 1.05653C12.6394 1.30858 12.3108 1.58106 11.9994 1.87249L13.4873 3.33642C13.8568 3.01521 14.259 2.73368 14.6873 2.49646C15.1073 2.25647 15.5836 2.13168 16.0672 2.13648C16.6132 2.10048 17.1544 2.26367 17.5911 2.59246C17.9631 2.92604 18.1635 3.41322 18.1311 3.91239C18.1143 4.38757 17.9631 4.84835 17.6991 5.24433C17.3572 5.78806 16.9546 6.29125 16.4992 6.74425C15.9712 7.26023 15.3233 7.8482 14.5913 8.46017C13.8593 9.07214 12.8994 9.73211 11.9994 10.4401V12H21.599V9.60012H16.7992Z" fill="black"/>
</svg>
