<svg xmlns="http://www.w3.org/2000/svg" viewBox="0 0 24 24">    <path d="M 2 6 L 2 18 L 5 18 L 5 13 L 9 13 L 9 18 L 12 18 L 12 6 L 9 6 L 9 10 L 5 10 L 5 6 L 2 6 z M 17.898438 6 C 17.898438 6 14 5.9991094 14 9.5371094 L 14 10 L 16.75 10 C 16.75 10 16.687 8.875 18 8.875 C 19.188 8.875 19.1875 10 19.1875 10 C 19.1875 10.662 18.602 11 18 11 L 17 11 L 17 12 L 17 13 L 18 13 C 18.602 13 19.1875 13.338 19.1875 14 C 19.1875 14 19.219 15.1875 18 15.1875 C 16.75 15.1875 16.75 14 16.75 14 L 14 14 L 14 14.462891 C 14 18.000891 17.898438 18 17.898438 18 C 17.898438 18 22 18.000937 22 14.460938 C 22 13.000937 21.247 12.209 21 12 C 21.247 11.791 22 10.999063 22 9.5390625 C 22 5.9990625 17.898438 6 17.898438 6 z"></path></svg>