<svg width="14" height="14" viewBox="0 0 14 14"  xmlns="http://www.w3.org/2000/svg">
<path fill-rule="evenodd" clip-rule="evenodd" d="M1.92 5.96V1.19C1.92 0.79 1.83 0.48 1.65 0.29C1.47 0.1 1.24 0 0.95 0C0.66 0 0.43 0.1 0.26 0.3C0.09 0.5 0 0.79 0 1.19V12.81C0 13.2 0.09 13.5 0.26 13.7C0.43 13.9 0.66 14 0.95 14C1.24 14 1.47 13.9 1.65 13.7C1.83 13.5 1.92 13.2 1.92 12.8V7.55H7.08V12.81C7.08 13.2 7.17 13.5 7.34 13.7C7.51 13.9 7.74 14 8.03 14C8.31 14 8.55 13.91 8.73 13.71C8.91 13.51 9 13.21 9 12.81V1.19C9 0.79 8.91 0.49 8.73 0.29C8.55 0.1 8.32 0 8.03 0C7.74 0 7.51 0.0999999 7.33 0.3C7.16 0.5 7.07 0.79 7.07 1.19V5.96H1.92ZM13.8583 11.8961C13.7639 11.6947 13.6212 11.5178 13.4302 11.3655C13.5729 11.223 13.68 11.0683 13.7513 10.9013C13.8227 10.7318 13.8583 10.55 13.8583 10.3559C13.8583 9.98256 13.7377 9.66323 13.4963 9.39794C13.255 9.13265 12.9349 9 12.5362 9C12.1144 9 11.7629 9.11668 11.4816 9.35004C11.2886 9.5097 11.192 9.67428 11.192 9.84377C11.192 9.95185 11.2235 10.0427 11.2865 10.1164C11.3494 10.1901 11.425 10.227 11.5131 10.227C11.5677 10.227 11.617 10.2135 11.6611 10.1864C11.6905 10.1692 11.7293 10.1299 11.7775 10.0685C11.9412 9.85728 12.1784 9.75166 12.489 9.75166C12.7303 9.75166 12.9108 9.81061 13.0304 9.92852C13.1522 10.044 13.213 10.1815 13.213 10.3412C13.213 10.4419 13.1868 10.5402 13.1343 10.636C13.0839 10.7293 13.0168 10.803 12.9328 10.857C12.8489 10.9111 12.765 10.943 12.681 10.9528C12.6663 10.9553 12.5519 10.9565 12.3379 10.9565C12.2413 10.9565 12.1616 10.9934 12.0986 11.0671C12.0357 11.1408 12.0042 11.2316 12.0042 11.3397C12.0042 11.4429 12.0325 11.5301 12.0892 11.6013C12.148 11.6701 12.2309 11.7082 12.3379 11.7155C12.5624 11.7327 12.7219 11.7634 12.8164 11.8077C12.9801 11.8863 13.1102 11.998 13.2067 12.143C13.3054 12.2854 13.3547 12.434 13.3547 12.5888C13.3547 12.7976 13.2707 12.9597 13.1028 13.0752C12.9349 13.1882 12.6632 13.2447 12.2875 13.2447C12.0672 13.2447 11.894 13.2275 11.7681 13.1931C11.6863 13.1685 11.5992 13.1194 11.5068 13.0457C11.4418 12.9966 11.3788 12.972 11.3179 12.972C11.2298 12.972 11.1543 13.0101 11.0913 13.0862C11.0304 13.1599 11 13.2508 11 13.3589C11 13.5014 11.0703 13.6242 11.2109 13.7273C11.4627 13.9091 11.8384 14 12.3379 14C12.7219 14 13.0325 13.9423 13.2697 13.8268C13.5068 13.7089 13.6873 13.537 13.8111 13.311C13.937 13.0825 14 12.8344 14 12.5667C14 12.3186 13.9528 12.0951 13.8583 11.8961Z" />
</svg>
