<svg width="22" height="12" viewBox="0 0 22 12" fill="none" xmlns="http://www.w3.org/2000/svg">
<path d="M13.3285 8.66244C13.7544 9.00676 14.2283 9.28988 14.7322 9.50223C15.2528 9.71817 15.8119 9.82974 16.3758 9.82614C16.9564 9.84654 17.5335 9.72297 18.0553 9.46624C18.2512 9.38036 18.4179 9.23937 18.535 9.06044C18.6522 8.88151 18.7148 8.67237 18.7151 8.4585C18.7179 8.2147 18.6558 7.97456 18.5352 7.76268C18.3876 7.53474 18.1753 7.35478 17.9234 7.24681C17.5408 7.08251 17.1369 6.97345 16.7237 6.92289C16.1199 6.83559 15.5102 6.79547 14.9001 6.80293V4.91941C15.7898 4.98262 16.6818 4.83464 17.5035 4.48753C17.7213 4.39103 17.9077 4.23528 18.0413 4.03802C18.1749 3.84075 18.2505 3.60992 18.2593 3.37181C18.2742 3.18419 18.2401 2.99591 18.1601 2.82551C18.0802 2.65511 17.9572 2.50848 17.8034 2.40007C17.3955 2.15653 16.9228 2.04016 16.4477 2.06415C15.9734 2.07952 15.5076 2.19394 15.0801 2.40007C14.6302 2.60064 14.2038 2.85007 13.8084 3.14387L12.3448 1.47631C12.9446 1.02402 13.6081 0.660518 14.3123 0.396586C15.0419 0.127745 15.8142 -0.00639663 16.5917 0.000689079C17.2215 -0.00770874 17.8514 0.0606736 18.4632 0.204636C18.9791 0.324605 19.471 0.53695 19.9148 0.828475C20.3047 1.08041 20.6287 1.42232 20.8626 1.82422C21.0905 2.23451 21.2069 2.69999 21.1985 3.16787C21.2105 3.74372 20.9862 4.29917 20.5747 4.70347C20.074 5.17223 19.4759 5.52454 18.8231 5.7352V5.80718C19.5535 5.97492 20.2326 6.31651 20.8026 6.80293C21.3269 7.26121 21.6184 7.93063 21.5944 8.62645C21.6004 9.13032 21.4588 9.62819 21.1865 10.0541C20.9106 10.4824 20.5411 10.8423 20.1068 11.1098C19.6173 11.4133 19.0835 11.6377 18.5232 11.7696C17.9072 11.9233 17.2745 11.9999 16.6397 11.9976C15.6965 12.0213 14.757 11.8708 13.8684 11.5537C13.1603 11.2965 12.5174 10.8869 11.9849 10.354L13.3285 8.66244V8.66244ZM7.19813 4.80184H2.39938V0.00308828H0V12H2.39938V7.20122H7.19813V12H9.59751V0.00308828H7.19813V4.80184Z" fill="black"/>
</svg>
