<svg width="14" height="14" viewBox="0 0 14 14" xmlns="http://www.w3.org/2000/svg">
<path fill-rule="evenodd" clip-rule="evenodd" d="M1.92 5.96V1.19C1.92 0.79 1.83 0.48 1.65 0.29C1.47 0.1 1.24 0 0.95 0C0.66 0 0.43 0.1 0.26 0.3C0.09 0.5 0 0.79 0 1.19V12.81C0 13.2 0.09 13.5 0.26 13.7C0.43 13.9 0.66 14 0.95 14C1.24 14 1.47 13.9 1.65 13.7C1.83 13.5 1.92 13.2 1.92 12.8V7.55H7.08V12.81C7.08 13.2 7.17 13.5 7.34 13.7C7.51 13.9 7.74 14 8.03 14C8.31 14 8.55 13.91 8.73 13.71C8.91 13.51 9 13.21 9 12.81V1.19C9 0.79 8.91 0.49 8.73 0.29C8.55 0.1 8.32 0 8.03 0C7.74 0 7.51 0.0999999 7.33 0.3C7.16 0.5 7.07 0.79 7.07 1.19V5.96H1.92ZM13.5714 12.0989V9H12.6569L11 12.2303V12.891H12.8796V13.2079H12.6097C12.4432 13.2079 12.324 13.2452 12.252 13.3199C12.1822 13.3921 12.1474 13.4861 12.1474 13.602C12.1474 13.7205 12.1822 13.8171 12.252 13.8918C12.324 13.9639 12.4432 14 12.6097 14H13.5377C13.7042 14 13.8223 13.9639 13.892 13.8918C13.964 13.8171 14 13.7218 14 13.6059C14 13.49 13.9651 13.3946 13.8954 13.3199C13.8256 13.2452 13.7177 13.2079 13.5714 13.2079V12.891C13.7154 12.891 13.8223 12.8537 13.892 12.779C13.964 12.7043 14 12.609 14 12.493C14 12.3771 13.9651 12.2831 13.8954 12.211C13.8256 12.1363 13.7177 12.0989 13.5714 12.0989ZM12.8796 10.1515V12.0989H11.8774L12.8796 10.1515Z"/>
</svg>
