<svg width="328" height="248" viewBox="0 0 328 248" fill="none" xmlns="http://www.w3.org/2000/svg">
<path d="M5.93923 0C4.36462 0.00156872 2.85503 0.532205 1.7416 1.47551C0.628184 2.41881 0.00185163 3.69776 0 5.03179V60.9682C0.00185163 62.3022 0.628184 63.5812 1.7416 64.5245C2.85503 65.4678 4.36462 65.9984 5.93923 66H322.061C323.635 65.9984 325.145 65.4678 326.258 64.5245C327.372 63.5812 327.998 62.3022 328 60.9682V5.03179C327.998 3.69776 327.372 2.41881 326.258 1.47551C325.145 0.532205 323.635 0.00156872 322.061 0H5.93923Z" fill="#E6E6E6"/>
<path d="M7.45778 4C6.54112 4.00079 5.66224 4.30758 5.014 4.85307C4.36577 5.39856 4.0011 6.1382 4 6.90971V59.0903C4.0011 59.8618 4.36578 60.6014 5.014 61.1469C5.66223 61.6924 6.54105 61.9992 7.4577 62H320.543C321.46 61.9992 322.339 61.6923 322.987 61.1468C323.635 60.6013 323.999 59.8617 324 59.0903V6.90971C323.999 6.13831 323.635 5.39869 322.987 4.85318C322.339 4.30767 321.46 4.00083 320.543 4H7.45778Z" fill="white"/>
<path d="M207.5 38C209.985 38 212 35.9853 212 33.5C212 31.0147 209.985 29 207.5 29C205.015 29 203 31.0147 203 33.5C203 35.9853 205.015 38 207.5 38Z" fill="#6C63FF"/>
<path d="M220.5 38C222.985 38 225 35.9853 225 33.5C225 31.0147 222.985 29 220.5 29C218.015 29 216 31.0147 216 33.5C216 35.9853 218.015 38 220.5 38Z" fill="#6C63FF"/>
<path d="M233.5 38C235.985 38 238 35.9853 238 33.5C238 31.0147 235.985 29 233.5 29C231.015 29 229 31.0147 229 33.5C229 35.9853 231.015 38 233.5 38Z" fill="#6C63FF"/>
<rect x="24" y="29" width="152" height="9" rx="4.5" fill="#E6E6E6"/>
<rect x="266" y="29" width="38" height="9" rx="2" fill="#E6E6E6"/>
<path d="M5.93923 91C4.36462 91.0016 2.85503 91.5322 1.7416 92.4755C0.628184 93.4188 0.00185163 94.6978 0 96.0318V151.968C0.00185163 153.302 0.628184 154.581 1.7416 155.524C2.85503 156.468 4.36462 156.998 5.93923 157H322.061C323.635 156.998 325.145 156.468 326.258 155.524C327.372 154.581 327.998 153.302 328 151.968V96.0318C327.998 94.6978 327.372 93.4188 326.258 92.4755C325.145 91.5322 323.635 91.0016 322.061 91H5.93923Z" fill="#E6E6E6"/>
<path d="M7.45778 95C6.54112 95.0008 5.66224 95.3076 5.014 95.8531C4.36577 96.3986 4.0011 97.1382 4 97.9097V150.09C4.0011 150.862 4.36578 151.601 5.014 152.147C5.66223 152.692 6.54105 152.999 7.4577 153H320.543C321.46 152.999 322.339 152.692 322.987 152.147C323.635 151.601 323.999 150.862 324 150.09V97.9097C323.999 97.1383 323.635 96.3987 322.987 95.8532C322.339 95.3077 321.46 95.0008 320.543 95H7.45778Z" fill="white"/>
<path d="M207.5 129C209.985 129 212 126.985 212 124.5C212 122.015 209.985 120 207.5 120C205.015 120 203 122.015 203 124.5C203 126.985 205.015 129 207.5 129Z" fill="#6C63FF"/>
<path d="M220.5 129C222.985 129 225 126.985 225 124.5C225 122.015 222.985 120 220.5 120C218.015 120 216 122.015 216 124.5C216 126.985 218.015 129 220.5 129Z" fill="#6C63FF"/>
<path d="M233.5 129C235.985 129 238 126.985 238 124.5C238 122.015 235.985 120 233.5 120C231.015 120 229 122.015 229 124.5C229 126.985 231.015 129 233.5 129Z" fill="#6C63FF"/>
<rect x="24" y="120" width="152" height="9" rx="4.5" fill="#E6E6E6"/>
<rect x="266" y="120" width="38" height="9" rx="2" fill="#E6E6E6"/>
<path d="M5.93923 182C4.36462 182.002 2.85503 182.532 1.7416 183.476C0.628184 184.419 0.00185163 185.698 0 187.032V242.968C0.00185163 244.302 0.628184 245.581 1.7416 246.524C2.85503 247.468 4.36462 247.998 5.93923 248H322.061C323.635 247.998 325.145 247.468 326.258 246.524C327.372 245.581 327.998 244.302 328 242.968V187.032C327.998 185.698 327.372 184.419 326.258 183.476C325.145 182.532 323.635 182.002 322.061 182H5.93923Z" fill="#E6E6E6"/>
<path d="M7.45778 186C6.54112 186.001 5.66224 186.308 5.014 186.853C4.36577 187.399 4.0011 188.138 4 188.91V241.09C4.0011 241.862 4.36578 242.601 5.014 243.147C5.66223 243.692 6.54105 243.999 7.4577 244H320.543C321.46 243.999 322.339 243.692 322.987 243.147C323.635 242.601 323.999 241.862 324 241.09V188.91C323.999 188.138 323.635 187.399 322.987 186.853C322.339 186.308 321.46 186.001 320.543 186H7.45778Z" fill="white"/>
<path d="M207.5 220C209.985 220 212 217.985 212 215.5C212 213.015 209.985 211 207.5 211C205.015 211 203 213.015 203 215.5C203 217.985 205.015 220 207.5 220Z" fill="#6C63FF"/>
<path d="M220.5 220C222.985 220 225 217.985 225 215.5C225 213.015 222.985 211 220.5 211C218.015 211 216 213.015 216 215.5C216 217.985 218.015 220 220.5 220Z" fill="#6C63FF"/>
<path d="M233.5 220C235.985 220 238 217.985 238 215.5C238 213.015 235.985 211 233.5 211C231.015 211 229 213.015 229 215.5C229 217.985 231.015 220 233.5 220Z" fill="#6C63FF"/>
<rect x="24" y="211" width="152" height="9" rx="4.5" fill="#E6E6E6"/>
<rect x="266" y="211" width="38" height="9" rx="2" fill="#E6E6E6"/>
</svg>
