<svg width="13" height="12" viewBox="0 0 13 12" fill="none" xmlns="http://www.w3.org/2000/svg">
<path d="M12.5 1.5V10.5C12.5 10.8978 12.342 11.2794 12.0607 11.5607C11.7794 11.842 11.3978 12 11 12H2C1.60218 12 1.22064 11.842 0.93934 11.5607C0.658035 11.2794 0.5 10.8978 0.5 10.5V1.5C0.5 1.10218 0.658035 0.720644 0.93934 0.43934C1.22064 0.158035 1.60218 0 2 0H11C11.3978 0 11.7794 0.158035 12.0607 0.43934C12.342 0.720644 12.5 1.10218 12.5 1.5ZM11 1.5H2V6.285L3.6425 4.6425L7.565 8.565L8.315 7.815C8.54311 7.63256 8.83024 7.54017 9.12194 7.55538C9.41363 7.57059 9.6896 7.69232 9.8975 7.8975L11 9V1.5ZM7.25 4.125C7.25005 3.97721 7.27921 3.83088 7.33581 3.69437C7.39241 3.55785 7.47534 3.43382 7.57988 3.32935C7.68442 3.22488 7.8085 3.14203 7.94506 3.08552C8.08161 3.02901 8.22796 2.99995 8.37575 3C8.52354 3.00005 8.66987 3.02921 8.80638 3.08581C8.9429 3.14241 9.06693 3.22534 9.1714 3.32988C9.27587 3.43442 9.35872 3.5585 9.41523 3.69506C9.47174 3.83161 9.5008 3.97796 9.50075 4.12575C9.50065 4.42422 9.38199 4.71042 9.17087 4.9214C8.95975 5.13238 8.67347 5.25085 8.375 5.25075C8.07653 5.25065 7.79033 5.13199 7.57935 4.92087C7.36837 4.70975 7.2499 4.42347 7.25 4.125V4.125Z" fill="black"/>
</svg>
