<svg width="13" height="12" viewBox="0 0 13 12" xmlns="http://www.w3.org/2000/svg">
<path d="M4.7836 8.92483L1.70843 12L0 10.2916L0.724374 9.5672L1.70843 10.5513L4.05923 8.20046L4.7836 8.92483ZM5.12528 1.74943V3.11617H12.6424V1.74943H5.12528ZM5.12528 11.3166H12.6424V9.94989H5.12528V11.3166ZM5.12528 7.2164H12.6424V5.84966H5.12528V7.2164ZM4.05923 4.10023L1.70843 6.45103L0.724374 5.46697L0 6.19134L1.70843 7.89977L4.7836 4.8246L4.05923 4.10023ZM4.05923 0L1.70843 2.3508L0.724374 1.36674L0 2.09112L1.70843 3.79954L4.7836 0.724374L4.05923 0V0Z"/>
</svg>
