<svg width="14" height="12" viewBox="0 0 14 12" xmlns="http://www.w3.org/2000/svg">
<path d="M4.39971 11.5992H13.9991V9.99933H4.39971V11.5992ZM4.39971 6.79955H13.9991V5.19965H4.39971V6.79955ZM4.39971 0.399973V1.99987H13.9991V0.399973H4.39971ZM1.19992 6.6728e-08C1.04229 5.25887e-05 0.886218 0.0311517 0.740608 0.0915219C0.594999 0.151892 0.462706 0.240351 0.351283 0.351849C0.23986 0.463346 0.151489 0.595697 0.091216 0.741347C0.0309428 0.886997 -5.24586e-05 1.04309 6.66464e-08 1.20072C5.25919e-05 1.35835 0.0311518 1.51442 0.0915221 1.66003C0.151892 1.80564 0.240351 1.93793 0.351849 2.04936C0.463346 2.16078 0.595697 2.24915 0.741347 2.30942C0.886997 2.3697 1.04309 2.40069 1.20072 2.40064C1.51906 2.40053 1.82433 2.27397 2.04936 2.04879C2.27439 1.82361 2.40075 1.51826 2.40064 1.19992C2.40053 0.881576 2.27397 0.576311 2.04879 0.351283C1.82361 0.126254 1.51826 -0.000106006 1.19992 6.6728e-08V6.6728e-08ZM1.19992 4.79968C1.04229 4.79973 0.886218 4.83083 0.740608 4.8912C0.594999 4.95157 0.462706 5.04003 0.351283 5.15153C0.23986 5.26303 0.151489 5.39538 0.0912158 5.54103C0.0309426 5.68668 -5.24586e-05 5.84277 6.66464e-08 6.0004C5.25919e-05 6.15803 0.0311518 6.3141 0.0915221 6.45971C0.151892 6.60532 0.240351 6.73762 0.351849 6.84904C0.463346 6.96046 0.595697 7.04883 0.741347 7.1091C0.886997 7.16938 1.04309 7.20037 1.20072 7.20032C1.51906 7.20021 1.82433 7.07365 2.04936 6.84847C2.27439 6.62329 2.40075 6.31795 2.40064 5.9996C2.40053 5.68126 2.27397 5.37599 2.04879 5.15096C1.82361 4.92593 1.51826 4.79957 1.19992 4.79968V4.79968ZM1.19992 9.59936C1.04229 9.59941 0.886218 9.63051 0.740608 9.69088C0.594999 9.75125 0.462706 9.83971 0.351283 9.95121C0.23986 10.0627 0.151489 10.1951 0.0912158 10.3407C0.0309426 10.4864 -5.24586e-05 10.6425 6.66464e-08 10.8001C5.25919e-05 10.9577 0.0311518 11.1138 0.0915221 11.2594C0.151892 11.405 0.240351 11.5373 0.351849 11.6487C0.463346 11.7601 0.595697 11.8485 0.741347 11.9088C0.886997 11.9691 1.04309 12.0001 1.20072 12C1.51906 11.9999 1.82433 11.8733 2.04936 11.6482C2.27439 11.423 2.40075 11.1176 2.40064 10.7993C2.40053 10.4809 2.27397 10.1757 2.04879 9.95064C1.82361 9.72561 1.51826 9.59925 1.19992 9.59936V9.59936Z"/>
</svg>
