<svg width="15" height="12" viewBox="0 0 15 12" fill="none" xmlns="http://www.w3.org/2000/svg">
<path d="M5.00498 11.2224H14.5509V9.75376H5.00498V11.2224ZM5.00498 6.81655H14.5509V5.34794H5.00498V6.81655ZM5.00498 0.942112V2.41072H14.5509V0.942112H5.00498ZM1.75568 1.12716C1.83425 1.05666 1.90034 0.989108 1.95394 0.925224C1.9444 1.09264 1.93926 1.27769 1.93926 1.48036V3.14503H2.8028V0H2.03839L0.956758 0.879697L1.39734 1.42161L1.75495 1.12789L1.75568 1.12716ZM2.00094 6.8283C2.349 6.51548 2.57663 6.30327 2.68384 6.19165C2.79032 6.07931 2.87476 5.97283 2.94085 5.8715C3.00473 5.77016 3.05246 5.66736 3.0833 5.56309C3.11414 5.45808 3.12956 5.34427 3.12956 5.2209C3.12956 5.05568 3.08551 4.90736 2.99739 4.77445C2.90927 4.64154 2.78444 4.53947 2.6251 4.46824C2.45351 4.39292 2.26759 4.35584 2.08024 4.35956C1.9187 4.35956 1.77184 4.37572 1.6426 4.40876C1.51336 4.44181 1.39293 4.48954 1.28279 4.55195C1.17264 4.61437 1.03533 4.7179 0.873047 4.86256L1.34006 5.40889C1.46783 5.29874 1.58238 5.21503 1.68298 5.15922C1.77409 5.10473 1.87791 5.07511 1.98405 5.07331C2.07951 5.07331 2.15441 5.09681 2.20728 5.14454C2.26088 5.19153 2.28805 5.25615 2.28805 5.33839C2.28805 5.40448 2.27337 5.46763 2.24766 5.52784C2.22123 5.58806 2.17423 5.66002 2.10668 5.74373C2.03912 5.82744 1.89593 5.98458 1.67638 6.21368L0.907559 6.99131V7.55085H3.19125V6.84959H2.00167V6.82756L2.00094 6.8283ZM2.39012 10.3133V10.3001C2.61482 10.2369 2.78664 10.1349 2.9056 9.99608C3.02456 9.85657 3.08404 9.68768 3.08404 9.49309C3.08404 9.26545 2.99151 9.08922 2.80647 8.95925C2.62143 8.83001 2.36589 8.76539 2.04059 8.76539C1.81516 8.76539 1.61469 8.78962 1.4414 8.83882C1.2681 8.88802 1.09628 8.96953 0.930323 9.08408L1.28279 9.6517C1.49794 9.51732 1.70575 9.4505 1.90695 9.4505C2.01489 9.4505 2.10007 9.47032 2.16395 9.51071C2.22784 9.5511 2.25941 9.61351 2.25941 9.69575C2.25941 9.91605 2.04353 10.0262 1.61176 10.0262H1.41349V10.665H1.60735C1.7667 10.665 1.89593 10.6775 1.99433 10.7018C2.0942 10.7238 2.16542 10.7605 2.21021 10.8068C2.2571 10.8618 2.28079 10.9329 2.2763 11.005C2.2763 11.1174 2.23445 11.1996 2.14927 11.2525C2.06482 11.3039 1.92898 11.3303 1.74246 11.3303C1.62204 11.3303 1.4906 11.3142 1.34741 11.2789C1.20137 11.2449 1.06006 11.1931 0.926651 11.1247V11.8296C1.09407 11.8943 1.24975 11.9383 1.3944 11.9633C1.53833 11.9875 1.69547 12 1.86436 12C2.27557 12 2.59719 11.9163 2.82923 11.7481C3.06054 11.5807 3.17656 11.3501 3.17656 11.0579C3.17803 10.6283 2.91515 10.3801 2.39085 10.314L2.39012 10.3133Z" fill="black"/>
</svg>
