<svg width="9" height="12" viewBox="0 0 9 12" fill="none" xmlns="http://www.w3.org/2000/svg">
<path d="M8.9 4.2C8.9 3.64845 8.79136 3.1023 8.58029 2.59273C8.36922 2.08316 8.05985 1.62016 7.66985 1.23015C7.27984 0.840145 6.81684 0.530776 6.30727 0.319706C5.7977 0.108636 5.25155 0 4.7 0C4.14845 0 3.6023 0.108636 3.09273 0.319706C2.58316 0.530776 2.12016 0.840145 1.73015 1.23015C1.34015 1.62016 1.03078 2.08316 0.819706 2.59273C0.608636 3.1023 0.5 3.64845 0.5 4.2C0.5 5.0322 0.746 5.8062 1.163 6.459H1.1582C2.5742 8.676 4.7 12 4.7 12L8.2418 6.459H8.2376C8.66985 5.78482 8.89973 5.00085 8.9 4.2V4.2ZM4.7 6C4.22261 6 3.76477 5.81036 3.42721 5.47279C3.08964 5.13523 2.9 4.67739 2.9 4.2C2.9 3.72261 3.08964 3.26477 3.42721 2.92721C3.76477 2.58964 4.22261 2.4 4.7 2.4C5.17739 2.4 5.63523 2.58964 5.97279 2.92721C6.31036 3.26477 6.5 3.72261 6.5 4.2C6.5 4.67739 6.31036 5.13523 5.97279 5.47279C5.63523 5.81036 5.17739 6 4.7 6Z" fill="black"/>
</svg>
