<svg width="14" height="16" viewBox="0 0 14 16" xmlns="http://www.w3.org/2000/svg">
<path fill-rule="evenodd" clip-rule="evenodd" d="M11.0111 1.56093C11.9864 2.56038 12.5344 3.91592 12.5344 5.32935V6.85202H12.6042C13.3752 6.85202 14.0003 7.49448 14.0003 8.287V14.565C14.0003 15.3575 13.3752 16 12.6042 16H2.06315C1.29207 16 0.666992 15.3575 0.666992 14.565V8.287C0.666992 7.49448 1.29207 6.85202 2.06315 6.85202H2.13296V5.32935C2.13296 3.91592 2.68089 2.56038 3.65621 1.56093C4.63153 0.561483 5.95435 0 7.33366 0C8.71297 0 10.0358 0.561483 11.0111 1.56093ZM3.61776 6.85202H11.0484L11.0496 5.32935C11.0496 4.31945 10.6581 3.35092 9.9612 2.63681C9.26433 1.92271 8.31918 1.52153 7.33366 1.52153C6.34814 1.52153 5.40299 1.92271 4.70612 2.63681C4.00926 3.35092 3.61776 4.31945 3.61776 5.32935V6.85202ZM7.33366 9.07623C6.7168 9.07623 6.21673 9.5902 6.21673 10.2242V10.2601C6.21673 10.5422 6.31574 10.8005 6.47998 11.0004L6.21673 13.7399H8.45059L8.18734 11.0004C8.35158 10.8005 8.45059 10.5422 8.45059 10.2601V10.2242C8.45059 9.5902 7.95052 9.07623 7.33366 9.07623Z"/>
</svg>
