<svg width="16" height="16" viewBox="0 0 16 16" fill="none" xmlns="http://www.w3.org/2000/svg">
<path fill-rule="evenodd" clip-rule="evenodd" d="M3 2H13C13.5523 2 14 2.44772 14 3V13C14 13.5523 13.5523 14 13 14H3C2.44772 14 2 13.5523 2 13V10.6667H0V13C0 14.6569 1.34315 16 3 16H13C14.6569 16 16 14.6569 16 13V3C16 1.34315 14.6569 0 13 0H3C1.34315 0 0 1.34315 0 3V5.33333H2V3C2 2.44772 2.44772 2 3 2ZM8.49231 8.8577H0.425409V6.8577H8.23217L7.1512 5.77674L8.56542 4.36252L10.7765 6.57356L12.1907 7.98777L10.7765 9.40199L8.59186 11.5866L7.17765 10.1724L8.49231 8.8577Z" fill="white"/>
</svg>
