<svg width="35" height="55" viewBox="0 0 35 55" fill="none" xmlns="http://www.w3.org/2000/svg">
<path d="M17.1047 54.8993C13.0785 52.7282 9.51582 49.7855 6.61866 46.2378C3.33253 42.4098 1.1546 37.7513 0.321488 32.7684C0.0361535 31.1777 0.0242655 29.1893 0.000487678 25.1608C0.000487678 24.0871 -0.043105 22.9895 0.694008 22.2458C1.22877 21.7647 1.92163 21.4985 2.63984 21.4982C7.20519 21.2357 16.114 21.3112 16.114 21.3112C18.682 21.3351 28.2248 21.1601 31.5696 21.4624C32.0896 21.4937 32.5899 21.673 33.0121 21.9793C34.09 22.8185 34.1653 24.4291 34.1772 25.2881C34.2842 32.2753 32.9289 36.2521 32.9289 36.2521C30.2171 44.2656 24.5563 50.9363 17.1047 54.8993V54.8993Z" fill="white"/>
<path d="M3.17932 20.2497C2.1212 20.2497 -0.2764 19.5617 0.750011 15.9627C1.50518 13.4803 3.16315 11.3736 5.39463 10.0611C6.36886 9.54521 7.44472 9.25187 8.54518 9.20215H25.4433C27.7181 9.20215 29.4618 10.4509 30.4327 11.1906C31.0668 11.8308 32.3864 12.6779 33.6348 16.5394C34.0311 17.8159 33.6586 20.2537 30.9202 20.2537L3.17932 20.2497Z" fill="white"/>
<path d="M16.2547 9.21824C15.7783 7.79304 15.0025 6.48706 13.9799 5.38858C12.9822 4.43286 11.8923 3.57896 10.7263 2.83944C10.4668 2.73583 10.2436 2.55741 10.0849 2.3267C9.92621 2.09599 9.83914 1.8233 9.83466 1.543C9.83466 0.819224 9.74748 0.672085 10.1319 0.377801C10.5163 0.0835177 10.4569 0 11.2138 0C11.9707 0 12.256 0.0318236 12.7712 0.369852C13.7072 0.96533 14.5056 1.7544 15.1133 2.68434C16.1549 4.35018 17.0385 6.11032 17.7527 7.94168C17.9389 8.57797 18.0539 8.916 18.1212 9.21824" fill="white"/>
</svg>
