<svg width="206" height="55" viewBox="0 0 206 55" fill="none" xmlns="http://www.w3.org/2000/svg">
<path fill-rule="evenodd" clip-rule="evenodd" d="M70.3397 9.20218H63.0088C62.9645 9.00753 62.9005 8.79627 62.8105 8.49921C62.7626 8.34113 62.7074 8.15876 62.6438 7.94168C61.9314 6.10957 61.0476 4.34927 60.0045 2.68434C59.3968 1.75574 58.6 0.966919 57.6664 0.369852C57.1472 0.0318237 56.8579 0 56.105 0C55.4833 0 55.4154 0.0569346 55.1943 0.242426L55.1942 0.242458L55.1941 0.242587L55.1941 0.242592C55.1474 0.281721 55.094 0.326567 55.027 0.377801C54.7078 0.622158 54.7111 0.765062 54.7214 1.22088C54.7235 1.31401 54.7258 1.42021 54.7258 1.543C54.7303 1.8233 54.8174 2.09599 54.9761 2.3267C55.1348 2.55741 55.3579 2.73583 55.6175 2.83944C56.7835 3.57896 57.8734 4.43286 58.8711 5.38858C59.8899 6.48293 60.6636 7.78323 61.1404 9.20218H53.4416C52.341 9.25085 51.2649 9.54425 50.2911 10.0612C48.0596 11.3736 46.4017 13.4803 45.6465 15.9627C44.6161 19.5618 47.0137 20.2497 48.0718 20.2497L75.8125 20.2537C78.5509 20.2537 78.9234 17.8159 78.5272 16.5394C77.4287 13.1414 76.278 12.0776 75.5829 11.4349L75.5826 11.4347C75.4879 11.3471 75.4016 11.2674 75.3251 11.1906C74.3581 10.4509 72.6105 9.20218 70.3397 9.20218ZM8.73836 28.5582V54.8688H0V7.70384L28.1371 34.5035V7.85893H36.9112V55L8.73836 28.5582ZM159.58 7.80376L165.767 16.4414H150.981V54.901H141.866V16.4414H131.959L126.038 7.80376H159.58ZM202.626 29.9751C200.846 27.9602 198.254 26.9527 194.851 26.9527H179.617C178.46 26.6028 177.648 26.1335 177.164 25.5409C176.681 24.9484 176.443 23.8786 176.443 22.2879C176.596 19.7056 176.919 18.1401 177.41 17.5913C178.007 16.9845 178.779 16.5823 179.617 16.442H204.299L197.229 7.8044H180.303C178.432 7.75571 176.574 8.11386 174.854 8.85427C173.39 9.51371 172.114 10.5293 171.141 11.809C170.131 13.19 169.408 14.7599 169.013 16.4261C168.537 18.3982 168.307 20.422 168.327 22.451C168.308 24.3095 168.517 26.1634 168.949 27.9708C169.306 29.5082 169.962 30.9597 170.879 32.2419C171.683 33.3721 172.824 34.2173 174.137 34.6558C175.649 35.1127 177.223 35.3287 178.801 35.296H193.987C194.45 35.277 194.91 35.3629 195.335 35.5475C195.76 35.732 196.138 36.0104 196.44 36.3618C197.051 37.0724 197.422 38.5451 197.554 40.7801C197.422 43.1661 197.051 44.8139 196.44 45.7232C196.184 46.1442 195.823 46.491 195.393 46.7294C194.963 46.9679 194.479 47.0899 193.987 47.0833H167.213L172.976 54.9017H193.313C195.189 54.954 197.054 54.5957 198.778 53.8518C200.253 53.1768 201.532 52.1368 202.496 50.8295C203.53 49.3733 204.254 47.7191 204.624 45.9698C205.091 43.8334 205.316 41.6508 205.293 39.4637C205.296 35.1529 204.407 31.99 202.626 29.9751ZM62.0011 54.8995C57.9729 52.7297 54.4087 49.7868 51.5111 46.238C48.225 42.41 46.0471 37.7515 45.214 32.7686C44.9286 31.1779 44.9167 29.1895 44.893 25.161L44.8927 24.9905C44.8905 23.9722 44.8883 22.9503 45.5865 22.246C46.1223 21.7639 46.8167 21.4977 47.5363 21.4983C52.0977 21.2359 61.0104 21.3114 61.0104 21.3114C61.6811 21.3177 62.8256 21.3104 64.2104 21.3015C68.1361 21.2765 73.9934 21.2391 76.466 21.4625C76.987 21.4949 77.4884 21.6741 77.9124 21.9795C78.9904 22.8186 79.0617 24.4292 79.0736 25.2882C79.1846 32.2755 77.8292 36.2523 77.8292 36.2523C75.1151 44.2656 69.4532 50.936 62.0011 54.8995ZM93.7174 46.238C96.6146 49.7856 100.177 52.7284 104.203 54.8995C111.655 50.9364 117.316 44.2657 120.028 36.2523C120.028 36.2523 121.383 32.2755 121.276 25.2882C121.264 24.4292 121.189 22.8186 120.111 21.9795C119.689 21.6732 119.188 21.4939 118.668 21.4625C116.196 21.2391 110.335 21.2765 106.41 21.3015H106.41C105.026 21.3104 103.882 21.3177 103.213 21.3114C103.213 21.3114 94.3039 21.2359 89.7386 21.4983C89.0204 21.4987 88.3275 21.7649 87.7928 22.246C87.0946 22.9503 87.0968 23.9722 87.099 24.9905L87.0992 25.161C87.123 29.1895 87.1349 31.1779 87.4202 32.7686C88.2533 37.7515 90.4313 42.41 93.7174 46.238ZM90.2782 20.2497C89.2201 20.2497 86.8225 19.5618 87.8489 15.9627C88.6041 13.4803 90.2621 11.3736 92.4935 10.0612C93.4678 9.54524 94.5436 9.2519 95.6441 9.20218H103.348C102.871 7.78323 102.097 6.48293 101.078 5.38858C100.081 4.43286 98.9906 3.57896 97.8247 2.83944C97.5651 2.73583 97.3419 2.55741 97.1832 2.3267C97.0246 2.09599 96.9375 1.8233 96.933 1.543C96.933 1.41573 96.9303 1.30629 96.928 1.21074C96.9169 0.762927 96.9134 0.620337 97.2302 0.377801C97.297 0.326705 97.3503 0.281963 97.3969 0.242908C97.6186 0.0570333 97.6866 0 98.3121 0C99.0691 0 99.3544 0.0318237 99.8696 0.369852C100.806 0.96533 101.604 1.7544 102.212 2.68434C103.253 4.35018 104.137 6.11032 104.851 7.94168C104.915 8.1588 104.97 8.3412 105.018 8.49929C105.108 8.79631 105.172 9.00755 105.216 9.20218H112.542C114.817 9.20218 116.561 10.4509 117.532 11.1906C117.609 11.2688 117.697 11.3501 117.793 11.4397C118.487 12.0829 119.638 13.1498 120.734 16.5394C121.13 17.8159 120.757 20.2537 118.019 20.2537L90.2782 20.2497Z" fill="white"/>
</svg>
