<svg width="40" height="40" viewBox="0 0 40 40" fill="none" xmlns="http://www.w3.org/2000/svg">
<path fill-rule="evenodd" clip-rule="evenodd" d="M20.0002 10C19.4479 10 19.0002 10.4477 19.0002 11V19.29H11C10.4477 19.29 10 19.7378 10 20.29C10 20.8423 10.4477 21.29 11 21.29H19.0002V28.9074C19.0002 29.4597 19.4479 29.9074 20.0002 29.9074C20.5525 29.9074 21.0002 29.4597 21.0002 28.9074V21.29H28.9074C29.4597 21.29 29.9074 20.8423 29.9074 20.29C29.9074 19.7378 29.4597 19.29 28.9074 19.29H21.0002V11C21.0002 10.4477 20.5525 10 20.0002 10Z" fill="white"/>
<circle cx="20" cy="20" r="19.5" stroke="white"/>
</svg>
