<svg width="25" height="23" viewBox="0 0 25 23" fill="none" xmlns="http://www.w3.org/2000/svg">
<path fill-rule="evenodd" clip-rule="evenodd" d="M6.5 2.5L8.75 0H16.25L18.5 2.5H22.5C23.875 2.5 25 3.625 25 5V20C25 21.375 23.875 22.5 22.5 22.5H2.5C1.125 22.5 0 21.375 0 20V5C0 3.625 1.125 2.5 2.5 2.5H6.5ZM6.25 12.5C6.25 16 9 18.75 12.5 18.75C16 18.75 18.75 16 18.75 12.5C18.75 9 16 6.25 12.5 6.25C9 6.25 6.25 9 6.25 12.5ZM16.5003 12.5003C16.5003 14.7094 14.7094 16.5003 12.5003 16.5003C10.2911 16.5003 8.50028 14.7094 8.50028 12.5003C8.50028 10.2911 10.2911 8.50028 12.5003 8.50028C14.7094 8.50028 16.5003 10.2911 16.5003 12.5003Z" fill="#414141"/>
</svg>
