<svg width="584" height="507" viewBox="0 0 584 507" fill="none" xmlns="http://www.w3.org/2000/svg">
<path d="M428.169 384.598L106.067 473.429L0 88.8313L322.102 0L428.169 384.598Z" fill="white"/>
<path d="M428.169 384.598L106.067 473.429L0 88.8313L322.102 0L428.169 384.598ZM110.182 466.18L420.92 380.482L317.987 7.24948L7.24953 92.9466L110.182 466.18Z" fill="#F1F1F1"/>
<path d="M252.006 172.294L171.265 194.562C170.126 194.874 168.909 194.723 167.882 194.139C166.855 193.556 166.101 192.59 165.786 191.451L143.519 110.71C143.206 109.571 143.358 108.355 143.941 107.328C144.524 106.3 145.491 105.546 146.629 105.231L227.37 82.9639C228.509 82.6511 229.725 82.803 230.753 83.3861C231.78 83.9692 232.534 84.9359 232.849 86.0742L255.116 166.815C255.429 167.954 255.277 169.171 254.694 170.198C254.111 171.225 253.144 171.979 252.006 172.294V172.294ZM147.103 106.949C146.42 107.138 145.84 107.591 145.49 108.207C145.14 108.823 145.049 109.553 145.236 110.237L167.504 190.978C167.693 191.661 168.145 192.241 168.761 192.59C169.378 192.94 170.108 193.031 170.791 192.844L251.532 170.577C252.215 170.387 252.795 169.935 253.145 169.319C253.495 168.702 253.586 167.972 253.398 167.289L231.131 86.548C230.942 85.8651 230.49 85.285 229.873 84.9351C229.257 84.5853 228.527 84.4942 227.844 84.6818L147.103 106.949Z" fill="#E5E5E5"/>
<path d="M231.54 188.568L150.799 210.835C149.774 211.117 148.679 210.98 147.754 210.455C146.83 209.93 146.151 209.06 145.868 208.036L123.6 127.295C123.319 126.27 123.455 125.175 123.98 124.25C124.505 123.326 125.375 122.647 126.4 122.364L207.141 100.096C208.166 99.8149 209.261 99.9516 210.185 100.476C211.109 101.001 211.788 101.871 212.072 102.896L234.339 183.637C234.621 184.662 234.484 185.757 233.959 186.681C233.434 187.606 232.564 188.284 231.54 188.568V188.568Z" fill="#6C63FF"/>
<path d="M323.146 200.121L101.686 261.197C100.621 261.49 99.9959 262.592 100.29 263.657L101.627 268.508C101.921 269.572 103.022 270.197 104.087 269.904L325.548 208.828C326.613 208.534 327.238 207.433 326.944 206.368L325.606 201.517C325.313 200.453 324.211 199.827 323.146 200.121Z" fill="#F1F1F1"/>
<path d="M329.404 222.824L107.944 283.9C106.879 284.194 106.254 285.295 106.547 286.36L107.885 291.211C108.179 292.275 109.28 292.901 110.345 292.607L331.806 231.531C332.87 231.238 333.496 230.136 333.202 229.071L331.864 224.22C331.57 223.156 330.469 222.531 329.404 222.824Z" fill="#F1F1F1"/>
<path d="M335.666 245.525L114.205 306.601C113.141 306.895 112.515 307.996 112.809 309.061L114.147 313.912C114.441 314.977 115.542 315.602 116.607 315.308L338.067 254.232C339.132 253.939 339.757 252.837 339.464 251.773L338.126 246.922C337.832 245.857 336.731 245.232 335.666 245.525Z" fill="#F1F1F1"/>
<path d="M346.686 285.48L125.225 346.556C124.16 346.85 123.535 347.951 123.829 349.016L125.166 353.867C125.46 354.932 126.561 355.557 127.626 355.263L349.087 294.187C350.152 293.894 350.777 292.793 350.483 291.728L349.145 286.877C348.852 285.812 347.75 285.187 346.686 285.48Z" fill="#F1F1F1"/>
<path d="M352.947 308.184L131.487 369.259C130.422 369.553 129.797 370.654 130.09 371.719L131.428 376.57C131.722 377.635 132.823 378.26 133.888 377.966L355.349 316.891C356.413 316.597 357.039 315.496 356.745 314.431L355.407 309.58C355.113 308.515 354.012 307.89 352.947 308.184Z" fill="#F1F1F1"/>
<path d="M359.209 330.885L137.748 391.96C136.684 392.254 136.058 393.355 136.352 394.42L137.69 399.271C137.984 400.336 139.085 400.961 140.15 400.668L361.61 339.592C362.675 339.298 363.3 338.197 363.007 337.132L361.669 332.281C361.375 331.216 360.274 330.591 359.209 330.885Z" fill="#F1F1F1"/>
<path d="M531.276 472.145H197.148V73.1895H531.276V472.145Z" fill="white"/>
<path d="M531.276 472.145H197.148V73.1895H531.276V472.145ZM203.043 466.251H525.381V79.084H203.043V466.251Z" fill="#E5E5E5"/>
<path d="M468.44 244.695H281.406C280.302 244.695 279.406 245.591 279.406 246.695V251.727C279.406 252.832 280.302 253.727 281.406 253.727H468.44C469.545 253.727 470.44 252.832 470.44 251.727V246.695C470.44 245.591 469.545 244.695 468.44 244.695Z" fill="#6C63FF"/>
<path d="M468.44 268.178H281.406C280.302 268.178 279.406 269.073 279.406 270.178V275.21C279.406 276.314 280.302 277.21 281.406 277.21H468.44C469.545 277.21 470.44 276.314 470.44 275.21V270.178C470.44 269.073 469.545 268.178 468.44 268.178Z" fill="#6C63FF"/>
<path d="M468.44 291.662H281.406C280.302 291.662 279.406 292.558 279.406 293.662V298.694C279.406 299.799 280.302 300.694 281.406 300.694H468.44C469.545 300.694 470.44 299.799 470.44 298.694V293.662C470.44 292.558 469.545 291.662 468.44 291.662Z" fill="#6C63FF"/>
<path d="M263.879 256.428C267.134 256.428 269.773 253.789 269.773 250.533C269.773 247.278 267.134 244.639 263.879 244.639C260.623 244.639 257.984 247.278 257.984 250.533C257.984 253.789 260.623 256.428 263.879 256.428Z" fill="#6C63FF"/>
<path d="M468.44 143.506H281.406C280.302 143.506 279.406 144.401 279.406 145.506V150.538C279.406 151.643 280.302 152.538 281.406 152.538H468.44C469.545 152.538 470.44 151.643 470.44 150.538V145.506C470.44 144.401 469.545 143.506 468.44 143.506Z" fill="#E5E5E5"/>
<path d="M468.44 166.988H281.406C280.302 166.988 279.406 167.884 279.406 168.988V174.02C279.406 175.125 280.302 176.02 281.406 176.02H468.44C469.545 176.02 470.44 175.125 470.44 174.02V168.988C470.44 167.884 469.545 166.988 468.44 166.988Z" fill="#E5E5E5"/>
<path d="M468.44 190.473H281.406C280.302 190.473 279.406 191.368 279.406 192.473V197.505C279.406 198.609 280.302 199.505 281.406 199.505H468.44C469.545 199.505 470.44 198.609 470.44 197.505V192.473C470.44 191.368 469.545 190.473 468.44 190.473Z" fill="#E5E5E5"/>
<path d="M263.879 154.256C267.134 154.256 269.773 151.617 269.773 148.361C269.773 145.106 267.134 142.467 263.879 142.467C260.623 142.467 257.984 145.106 257.984 148.361C257.984 151.617 260.623 154.256 263.879 154.256Z" fill="#E5E5E5"/>
<path d="M468.44 346.867H281.406C280.302 346.867 279.406 347.763 279.406 348.867V353.899C279.406 355.004 280.302 355.899 281.406 355.899H468.44C469.545 355.899 470.44 355.004 470.44 353.899V348.867C470.44 347.763 469.545 346.867 468.44 346.867Z" fill="#E5E5E5"/>
<path d="M468.44 370.35H281.406C280.302 370.35 279.406 371.245 279.406 372.35V377.382C279.406 378.486 280.302 379.382 281.406 379.382H468.44C469.545 379.382 470.44 378.486 470.44 377.382V372.35C470.44 371.245 469.545 370.35 468.44 370.35Z" fill="#E5E5E5"/>
<path d="M468.44 393.834H281.406C280.302 393.834 279.406 394.729 279.406 395.834V400.866C279.406 401.971 280.302 402.866 281.406 402.866H468.44C469.545 402.866 470.44 401.971 470.44 400.866V395.834C470.44 394.729 469.545 393.834 468.44 393.834Z" fill="#E5E5E5"/>
<path d="M263.879 357.617C267.134 357.617 269.773 354.978 269.773 351.723C269.773 348.467 267.134 345.828 263.879 345.828C260.623 345.828 257.984 348.467 257.984 351.723C257.984 354.978 260.623 357.617 263.879 357.617Z" fill="#E5E5E5"/>
<path d="M515.676 506.499C553.394 506.499 583.97 475.923 583.97 438.205C583.97 400.488 553.394 369.912 515.676 369.912C477.959 369.912 447.383 400.488 447.383 438.205C447.383 475.923 477.959 506.499 515.676 506.499Z" fill="#6C63FF"/>
<path d="M534.597 433.848V420.781C534.599 418.295 534.111 415.833 533.161 413.536C532.211 411.238 530.818 409.151 529.06 407.392C527.303 405.634 525.217 404.239 522.92 403.287C520.624 402.336 518.162 401.846 515.676 401.846C513.19 401.846 510.729 402.336 508.432 403.287C506.136 404.239 504.049 405.634 502.292 407.392C500.535 409.151 499.141 411.238 498.191 413.536C497.241 415.833 496.753 418.295 496.755 420.781V433.848C494.226 433.962 491.838 435.046 490.088 436.876C488.338 438.706 487.361 441.139 487.359 443.671V474.55H543.993V443.671C543.992 441.139 543.014 438.706 541.264 436.876C539.515 435.046 537.127 433.962 534.597 433.848V433.848ZM515.676 408.521C518.926 408.525 522.042 409.818 524.34 412.116C526.638 414.415 527.931 417.531 527.935 420.781V433.825H503.418V420.781C503.421 417.531 504.714 414.415 507.012 412.116C509.31 409.818 512.426 408.525 515.676 408.521Z" fill="white"/>
<path d="M520.767 449.098C520.767 448.22 520.541 447.358 520.109 446.593C519.678 445.829 519.056 445.189 518.304 444.736C517.552 444.283 516.696 444.032 515.819 444.008C514.941 443.983 514.072 444.186 513.297 444.596C512.521 445.007 511.864 445.611 511.39 446.35C510.917 447.089 510.642 447.938 510.594 448.814C510.545 449.691 510.724 450.565 511.113 451.352C511.501 452.138 512.087 452.811 512.813 453.305V464.37H518.539V453.305C519.226 452.839 519.788 452.212 520.176 451.479C520.564 450.745 520.767 449.928 520.767 449.098V449.098Z" fill="#6C63FF"/>
</svg>
