<svg width="854" height="659" viewBox="0 0 854 659" fill="none" xmlns="http://www.w3.org/2000/svg">
<g filter="url(#filter0_d)">
<path d="M667.219 638.758H143.789V259.242H210.729L238.269 298.729H667.219V638.758Z" fill="#3273D6"/>
<path opacity="0.1" d="M667.219 638.758H143.789V259.242H210.729L238.269 298.729H667.219V638.758Z" fill="black"/>
<path d="M492.597 321.027L346.152 381.721L351.287 398.412L497.731 337.719L492.597 321.027Z" fill="white"/>
<path d="M503.569 356.687L357.125 417.381L362.26 434.073L508.704 373.379L503.569 356.687Z" fill="white"/>
<path d="M514.542 392.357L368.098 453.051L373.233 469.743L519.677 409.049L514.542 392.357Z" fill="white"/>
<path d="M543.064 451.548L505.148 467.262L518.687 511.271L556.603 495.557L543.064 451.548Z" fill="white"/>
<path d="M383.448 326.484L304.012 481.646L317.139 490.701L396.575 335.538L383.448 326.484Z" fill="white"/>
<path d="M437.595 350.31L417.062 390.498L451.686 414.33L472.219 374.143L437.595 350.31Z" fill="white"/>
<path opacity="0.1" d="M458.461 453.498H342.461V476.712H458.461V453.498Z" fill="black"/>
<g filter="url(#filter1_d)">
<path d="M592.283 469.258L476.268 82.7501C473.883 74.8045 465.81 71.1149 458.236 74.5093L226.206 178.501C218.633 181.896 214.426 191.089 216.811 199.034L332.827 585.542C335.212 593.488 343.285 597.177 350.858 593.783L582.888 489.791C590.462 486.396 594.668 477.204 592.283 469.258Z" fill="white"/>
<path d="M393.024 177.739C394.277 181.918 398.394 183.914 402.221 182.197C406.047 180.48 408.133 175.701 406.88 171.522C405.627 167.343 401.509 165.347 397.683 167.064C393.857 168.78 391.77 173.56 393.024 177.739Z" fill="#4A85DF"/>
<path d="M352.644 194.927C353.897 199.106 358.015 201.102 361.842 199.385C365.668 197.668 367.755 192.889 366.501 188.71C365.248 184.53 361.13 182.534 357.304 184.251C353.477 185.968 351.391 190.747 352.644 194.927Z" fill="#4A85DF"/>
<path d="M310.771 212.749C312.024 216.928 316.142 218.924 319.969 217.207C323.795 215.491 325.882 210.711 324.628 206.532C323.375 202.353 319.257 200.357 315.431 202.073C311.604 203.79 309.518 208.57 310.771 212.749Z" fill="#4A85DF"/>
<path d="M494.613 465.768L420.826 230.088L412.543 233.647L486.329 469.328L494.613 465.768Z" fill="#DFDFDF"/>
<path d="M454.232 482.955L380.445 247.275L372.162 250.835L445.948 486.515L454.232 482.955Z" fill="#DFDFDF"/>
<path d="M415.354 499.435L341.709 263.828L331.788 268.098L405.433 503.705L415.354 499.435Z" fill="#DFDFDF"/>
<path d="M550.548 437.691L459.986 144.538C459.496 142.954 457.867 142.207 456.347 142.869L430.886 153.956C429.366 154.618 428.53 156.439 429.02 158.023L519.582 451.175C520.071 452.759 521.7 453.507 523.22 452.845L548.681 441.757C550.201 441.095 551.037 439.275 550.548 437.691Z" fill="#DFDFDF"/>
</g>
<g filter="url(#filter2_d)">
<path d="M840.361 287.415L567.485 10.6907C561.663 4.78637 552.897 5.36688 547.906 11.9873L393.083 217.347C388.091 223.968 388.765 234.121 394.587 240.025L667.463 516.75C673.285 522.654 682.051 522.074 687.043 515.453L841.866 310.093C846.857 303.473 846.183 293.32 840.361 287.415Z" fill="white"/>
</g>
<path d="M545.261 134.996C548.259 138.039 552.788 137.721 555.375 134.287C557.963 130.852 557.63 125.602 554.632 122.56C551.634 119.517 547.105 119.835 544.518 123.269C541.93 126.703 542.263 131.954 545.261 134.996Z" fill="#4A85DF"/>
<path d="M516.073 173.22C519.072 176.263 523.6 175.945 526.188 172.511C528.776 169.077 528.443 163.826 525.445 160.784C522.446 157.742 517.918 158.059 515.33 161.494C512.742 164.928 513.075 170.178 516.073 173.22Z" fill="#4A85DF"/>
<path d="M485.804 212.859C488.802 215.901 493.331 215.584 495.918 212.15C498.506 208.715 498.173 203.465 495.175 200.423C492.177 197.38 487.648 197.698 485.061 201.132C482.473 204.566 482.806 209.817 485.804 212.859Z" fill="#4A85DF"/>
<path d="M750.233 325.864L589.643 164.947L584.572 171.601L745.162 332.518L750.233 325.864Z" fill="#DFDFDF"/>
<path d="M721.043 364.091L560.451 203.174L555.38 209.828L715.972 370.744L721.043 364.091Z" fill="#DFDFDF"/>
<path d="M692.927 400.987L532.301 239.975L526.213 247.965L686.839 408.977L692.927 400.987Z" fill="#DFDFDF"/>
<path d="M789.004 271.076L588.507 69.5241C587.338 68.3491 585.578 68.4662 584.575 69.7858L568.87 90.4528C567.867 91.7724 568.002 93.7947 569.171 94.9698L769.668 296.522C770.837 297.697 772.597 297.58 773.6 296.26L789.305 275.593C790.308 274.274 790.173 272.251 789.004 271.076Z" fill="#DFDFDF"/>
<g filter="url(#filter3_d)">
<path d="M462.08 314.235L141.969 95.5891C135.12 90.9113 126.62 93.1604 122.983 100.613L10.1115 331.897C6.47458 339.35 9.07823 349.183 15.9269 353.861L336.038 572.507C342.886 577.184 351.387 574.935 355.023 567.483L467.895 336.198C471.532 328.746 468.928 318.913 462.08 314.235Z" fill="white"/>
<path d="M143.981 222.023C147.501 224.43 151.885 223.243 153.772 219.373C155.659 215.502 154.335 210.414 150.815 208.008C147.295 205.601 142.912 206.788 141.024 210.658C139.137 214.529 140.461 219.617 143.981 222.023Z" fill="#4A85DF"/>
<path d="M122.477 265.255C125.997 267.662 130.381 266.475 132.268 262.605C134.155 258.734 132.832 253.646 129.311 251.24C125.791 248.834 121.408 250.02 119.52 253.89C117.633 257.761 118.957 262.849 122.477 265.255Z" fill="#4A85DF"/>
<path d="M100.174 310.083C103.695 312.489 108.078 311.303 109.965 307.432C111.853 303.562 110.529 298.474 107.009 296.068C103.488 293.662 99.1049 294.848 97.2176 298.718C95.3304 302.589 96.6542 307.677 100.174 310.083Z" fill="#4A85DF"/>
<path d="M381.023 368.917L193.145 242.66L189.441 250.126L377.32 376.382L381.023 368.917Z" fill="#DFDFDF"/>
<path d="M359.516 412.147L171.637 285.891L167.934 293.356L355.813 419.613L359.516 412.147Z" fill="#DFDFDF"/>
<path d="M338.812 453.877L150.879 327.52L146.434 336.485L334.367 462.843L338.812 453.877Z" fill="#DFDFDF"/>
<path d="M408.794 307.702L174.111 149.294C172.737 148.367 171.028 148.82 170.294 150.306L158.841 173.498C158.107 174.985 158.626 176.941 160 177.868L394.683 336.276C396.057 337.203 397.766 336.75 398.499 335.264L409.953 312.072C410.687 310.586 410.168 308.629 408.794 307.702Z" fill="#DFDFDF"/>
</g>
<path d="M667.219 654.867H143.789V275.352H210.729L238.269 314.839H667.219V654.867Z" fill="#4A85DF"/>
<path opacity="0.1" d="M463.48 451.152H347.48V474.366H463.48V451.152Z" fill="black"/>
</g>
<defs>
<filter id="filter0_d" x="4.46875" y="2.61523" width="844.74" height="656.252" filterUnits="userSpaceOnUse" color-interpolation-filters="sRGB">
<feFlood flood-opacity="0" result="BackgroundImageFix"/>
<feColorMatrix in="SourceAlpha" type="matrix" values="0 0 0 0 0 0 0 0 0 0 0 0 0 0 0 0 0 0 127 0" result="hardAlpha"/>
<feOffset/>
<feGaussianBlur stdDeviation="2"/>
<feComposite in2="hardAlpha" operator="out"/>
<feColorMatrix type="matrix" values="0 0 0 0 0 0 0 0 0 0 0 0 0 0 0 0 0 0 0.1 0"/>
<feBlend mode="normal" in2="BackgroundImageFix" result="effect1_dropShadow"/>
<feBlend mode="normal" in="SourceGraphic" in2="effect1_dropShadow" result="shape"/>
</filter>
<filter id="filter1_d" x="212.145" y="69.248" width="384.807" height="529.797" filterUnits="userSpaceOnUse" color-interpolation-filters="sRGB">
<feFlood flood-opacity="0" result="BackgroundImageFix"/>
<feColorMatrix in="SourceAlpha" type="matrix" values="0 0 0 0 0 0 0 0 0 0 0 0 0 0 0 0 0 0 127 0" result="hardAlpha"/>
<feOffset/>
<feGaussianBlur stdDeviation="2"/>
<feComposite in2="hardAlpha" operator="out"/>
<feColorMatrix type="matrix" values="0 0 0 0 0 0 0 0 0 0 0 0 0 0 0 0 0 0 0.1 0"/>
<feBlend mode="normal" in2="BackgroundImageFix" result="effect1_dropShadow"/>
<feBlend mode="normal" in="SourceGraphic" in2="effect1_dropShadow" result="shape"/>
</filter>
<filter id="filter2_d" x="385.738" y="2.61523" width="463.471" height="522.209" filterUnits="userSpaceOnUse" color-interpolation-filters="sRGB">
<feFlood flood-opacity="0" result="BackgroundImageFix"/>
<feColorMatrix in="SourceAlpha" type="matrix" values="0 0 0 0 0 0 0 0 0 0 0 0 0 0 0 0 0 0 127 0" result="hardAlpha"/>
<feOffset/>
<feGaussianBlur stdDeviation="2"/>
<feComposite in2="hardAlpha" operator="out"/>
<feColorMatrix type="matrix" values="0 0 0 0 0 0 0 0 0 0 0 0 0 0 0 0 0 0 0.1 0"/>
<feBlend mode="normal" in2="BackgroundImageFix" result="effect1_dropShadow"/>
<feBlend mode="normal" in="SourceGraphic" in2="effect1_dropShadow" result="shape"/>
</filter>
<filter id="filter3_d" x="4.46875" y="89.1484" width="469.069" height="489.798" filterUnits="userSpaceOnUse" color-interpolation-filters="sRGB">
<feFlood flood-opacity="0" result="BackgroundImageFix"/>
<feColorMatrix in="SourceAlpha" type="matrix" values="0 0 0 0 0 0 0 0 0 0 0 0 0 0 0 0 0 0 127 0" result="hardAlpha"/>
<feOffset/>
<feGaussianBlur stdDeviation="2"/>
<feComposite in2="hardAlpha" operator="out"/>
<feColorMatrix type="matrix" values="0 0 0 0 0 0 0 0 0 0 0 0 0 0 0 0 0 0 0.1 0"/>
<feBlend mode="normal" in2="BackgroundImageFix" result="effect1_dropShadow"/>
<feBlend mode="normal" in="SourceGraphic" in2="effect1_dropShadow" result="shape"/>
</filter>
</defs>
</svg>
