<svg width="30" height="32" viewBox="0 0 30 32" xmlns="http://www.w3.org/2000/svg">
<path fill-rule="evenodd" clip-rule="evenodd" d="M5.22464 2.66667H20.4236C21.8663 2.66667 23.0359 3.86058 23.0359 5.33333V10.6667V10.7124L25.165 8.47949C25.3162 8.32094 25.4779 8.1758 25.6482 8.04418V8V5.33333C25.6482 2.38781 23.3091 0 20.4236 0H5.22464C2.33926 0 0.000172678 2.38764 0 5.33301H2.61232C2.61249 3.8604 3.782 2.66667 5.22464 2.66667ZM23.0359 18.8764V18.878L25.6482 16.1384V16.1368L29.6029 11.9894C30.1821 11.382 30.1212 10.4666 29.4668 9.94474C28.8124 9.42292 27.8123 9.49231 27.2331 10.0997L18.2603 19.5098L20.6301 21.3994L23.0359 18.8764ZM23.0359 26.6667V22.6786L25.6482 19.939V26.6667C25.6482 29.6122 23.3091 32 20.4236 32H5.22464C2.33915 32 0 29.6122 0 26.6667V25.5249H2.61232V26.6667C2.61232 28.1394 3.78189 29.3333 5.22464 29.3333H20.4236C21.8663 29.3333 23.0359 28.1394 23.0359 26.6667ZM0 23.6201H2.61232V20.9526H0V23.6201ZM2.61232 16.3823V19.0479H0V16.3823H2.61232ZM0 14.4775H2.61232V11.81H0V14.4775ZM2.61232 7.23777V9.90527H0V7.23777H2.61232ZM18.0806 22.9523C17.5626 23.1397 17.0366 22.7202 17.1691 22.2254L17.5776 20.6998C17.7012 20.2384 18.3135 20.0551 18.7005 20.3636L19.8891 21.3114C20.276 21.62 20.1608 22.1997 19.6777 22.3745L18.0806 22.9523ZM5.34381 5.81738C4.7536 5.81738 4.27514 6.3058 4.27514 6.90829C4.27514 7.51078 4.7536 7.9992 5.34381 7.9992H19.5928C20.183 7.9992 20.6615 7.51078 20.6615 6.90829C20.6615 6.3058 20.183 5.81738 19.5928 5.81738H5.34381ZM5.34381 10.1826C4.7536 10.1826 4.27514 10.671 4.27514 11.2735C4.27514 11.876 4.7536 12.3644 5.34381 12.3644H18.1679C18.7581 12.3644 19.2366 11.876 19.2366 11.2735C19.2366 10.671 18.7581 10.1826 18.1679 10.1826H5.34381ZM4.27514 15.6349C4.27514 15.0324 4.7536 14.5439 5.34381 14.5439H16.743C17.3332 14.5439 17.8117 15.0324 17.8117 15.6349C17.8117 16.2373 17.3332 16.7258 16.743 16.7258H5.34381C4.7536 16.7258 4.27514 16.2373 4.27514 15.6349ZM5.34292 19C4.7532 19 4.27514 19.488 4.27514 20.09C4.27514 20.692 4.7532 21.18 5.34292 21.18H13.1799C13.7696 21.18 14.2477 20.692 14.2477 20.09C14.2477 19.488 13.7696 19 13.1799 19H5.34292ZM4.27514 24.3634C4.27514 23.7609 4.7536 23.2725 5.34381 23.2725H13.1808C13.771 23.2725 14.2494 23.7609 14.2494 24.3634C14.2494 24.9659 13.771 25.4543 13.1808 25.4543H5.34381C4.7536 25.4543 4.27514 24.9659 4.27514 24.3634Z"/>
<defs>
<linearGradient id="gradient" x1="0" y1="0" x2="30" y2="32.5" gradientUnits="userSpaceOnUse">
<stop stop-color="#CDEEFF"/>
<stop offset="1" stop-color="#FFCDCD"/>
</linearGradient>
</defs>
</svg>
