<svg width="20" height="22" viewBox="0 0 20 22" fill="none" xmlns="http://www.w3.org/2000/svg">
<path fill-rule="evenodd" clip-rule="evenodd" d="M10.929 1.29052C10.929 1.43582 10.9058 1.5755 10.863 1.70583C14.005 2.28417 16.3906 5.12504 16.3906 8.54248L16.3903 8.60215H16.3907V12.4714L19.1133 16.1023C19.2666 16.2584 19.3617 16.4755 19.3617 16.7156C19.3617 17.1908 18.9894 17.576 18.5302 17.576H18.5294V17.5776H0.713281V17.5673C0.310054 17.508 0 17.1493 0 16.7156C0 16.4818 0.0901279 16.2698 0.236393 16.1147L2.96914 12.5082V8.54248V8.35722H2.97148C3.05591 5.02142 5.41364 2.27142 8.50052 1.70513C8.45788 1.575 8.43476 1.43556 8.43476 1.29052C8.43476 0.577787 8.99312 0 9.68189 0C10.3707 0 10.929 0.577787 10.929 1.29052ZM15.2023 15.4849V15.4857H14.846V15.4849H15.2023ZM1.6543 16.5919H17.7074L17.707 16.5943H1.65464L1.6543 16.5919ZM11.9044 21.046C12.4947 20.4352 12.8263 19.6068 12.8263 18.743H9.67876H6.53125C6.53125 19.6068 6.86286 20.4352 7.45313 21.046C8.0434 21.6568 8.84398 22 9.67876 22C10.5135 22 11.3141 21.6568 11.9044 21.046Z" fill="white"/>
</svg>
