<svg width="27" height="32" viewBox="0 0 27 32" xmlns="http://www.w3.org/2000/svg">
<path d="M13.5 16C17.8523 16 21.375 12.4214 21.375 8C21.375 3.57857 17.8523 0 13.5 0C9.14766 0 5.625 3.57857 5.625 8C5.625 12.4214 9.14766 16 13.5 16ZM18.9 18.2857H18.3164C16.8539 19 15.2297 19.4286 13.5 19.4286C11.7703 19.4286 10.1531 19 8.68359 18.2857H8.1C3.62813 18.2857 0 21.9714 0 26.5143V28.5714C0 30.4643 1.51172 32 3.375 32H23.625C25.4883 32 27 30.4643 27 28.5714V26.5143C27 21.9714 23.3719 18.2857 18.9 18.2857Z"/>
</svg>
