<svg width="16" height="16" viewBox="0 0 16 16" fill="none" xmlns="http://www.w3.org/2000/svg">
<path fill-rule="evenodd" clip-rule="evenodd" d="M10.2118 1.33333H2.61232C1.891 1.33333 1.30625 1.9302 1.30616 2.6665H0C8.63388e-05 1.19382 1.16963 0 2.61232 0H10.2118C11.6545 0 12.8241 1.19391 12.8241 2.66667V4V7.69775C12.4853 7.56831 12.1213 7.5 11.75 7.5C11.6723 7.5 11.5949 7.50299 11.5179 7.50891V5.33333V2.66667C11.5179 1.93029 10.9332 1.33333 10.2118 1.33333ZM8 15.2377C8 15.6587 8.15205 16 8.58579 16H2.61232C1.16958 16 0 14.8061 0 13.3333V12.7624H1.30616V13.3333C1.30616 14.0697 1.89095 14.6667 2.61232 14.6667H8V15.2377ZM1.30616 11.8101H0V10.4763H1.30616V11.8101ZM1.30616 9.52393V8.19115H0V9.52393H1.30616ZM1.30616 7.23877H0V5.90502H1.30616V7.23877ZM1.30616 4.95264V3.61889H0V4.95264H1.30616ZM2.67203 2.90869C2.37693 2.90869 2.1377 3.1529 2.1377 3.45415C2.1377 3.75539 2.37693 3.9996 2.67203 3.9996H9.79654C10.0916 3.9996 10.3309 3.75539 10.3309 3.45415C10.3309 3.1529 10.0916 2.90869 9.79654 2.90869H2.67203ZM2.67203 5.09131C2.37693 5.09131 2.1377 5.33552 2.1377 5.63676C2.1377 5.93801 2.37693 6.18222 2.67203 6.18222H9.08409C9.37919 6.18222 9.61842 5.93801 9.61842 5.63676C9.61842 5.33552 9.37919 5.09131 9.08409 5.09131H2.67203ZM2.1377 7.81743C2.1377 7.51618 2.37693 7.27197 2.67203 7.27197H8.37164C8.66674 7.27197 8.90597 7.51618 8.90597 7.81743C8.90597 8.11867 8.66674 8.36288 8.37164 8.36288H2.67203C2.37693 8.36288 2.1377 8.11867 2.1377 7.81743ZM2.67159 9.5C2.37673 9.5 2.1377 9.74401 2.1377 10.045C2.1377 10.346 2.37673 10.59 2.67159 10.59H6.59006C6.88492 10.59 7.12396 10.346 7.12396 10.045C7.12396 9.74401 6.88492 9.5 6.59006 9.5H2.67159ZM2.1377 12.1817C2.1377 11.8804 2.37693 11.6362 2.67203 11.6362H6.59051C6.88562 11.6362 7.12485 11.8804 7.12485 12.1817C7.12485 12.4829 6.88562 12.7271 6.59051 12.7271H2.67203C2.37693 12.7271 2.1377 12.4829 2.1377 12.1817ZM14.4337 10.6647C14.4337 9.95796 14.1597 9.28019 13.6721 8.78047C13.1844 8.28074 12.523 8 11.8333 8C11.1437 8 10.4823 8.28074 9.99461 8.78046C9.50695 9.28019 9.23298 9.95796 9.23298 10.6647V11.426H9.19808C8.81254 11.426 8.5 11.7472 8.5 12.1435V15.2825C8.5 15.6788 8.81254 16 9.19808 16H14.4686C14.8541 16 15.1667 15.6788 15.1667 15.2825V12.1435C15.1667 11.7472 14.8541 11.426 14.4686 11.426H14.4337V10.6647ZM13.6907 11.426H9.97538V10.6647C9.97538 10.1597 10.1711 9.67546 10.5196 9.31841C10.868 8.96135 11.3406 8.76076 11.8333 8.76076C12.3261 8.76076 12.7987 8.96135 13.1471 9.31841C13.4955 9.67546 13.6913 10.1597 13.6913 10.6647L13.6907 11.426ZM11.2749 13.1121C11.2749 12.7951 11.5249 12.5381 11.8333 12.5381C12.1418 12.5381 12.3918 12.7951 12.3918 13.1121V13.13C12.3918 13.2711 12.3423 13.4003 12.2602 13.5002L12.3918 14.87H11.2749L11.4065 13.5002C11.3244 13.4003 11.2749 13.2711 11.2749 13.13V13.1121Z" fill="white"/>
</svg>
