<svg width="32" height="32" viewBox="0 0 32 32" xmlns="http://www.w3.org/2000/svg">
<path fill-rule="evenodd" clip-rule="evenodd" d="M4 0C1.79086 0 2.23588e-06 1.79086 2.01348e-06 4L0 24C0 26.2091 1.79086 28 4 28H4.10547H17.8948C17.9299 28 17.965 27.9996 18 27.9986V23.8049C18 22.9629 18.7032 22.2803 19.5707 22.2803H19.6492V20.6624C19.6492 19.1607 20.2656 17.7204 21.3629 16.6585C21.5313 16.4954 21.709 16.3434 21.8948 16.2027L21.8948 4C21.8948 1.79086 20.1039 0 17.8948 0H4ZM17.8948 29C17.9299 29 17.965 28.9996 18 28.9989V30.4753C18 31.3174 18.7032 32 19.5707 32H20.3613C19.6095 32 19 31.3575 19 30.565V24.287C19 23.4945 19.6095 22.852 20.3613 22.852H20.4293V21.3293C20.4293 19.9159 20.9635 18.5604 21.9145 17.5609C22.8654 16.5615 24.1552 16 25.5 16C26.8448 16 28.1346 16.5615 29.0855 17.5609C30.0365 18.5604 30.5707 19.9159 30.5707 21.3293V22.852H30.6387C31.3905 22.852 32 23.4945 32 24.287V30.565C32 31.3575 31.3905 32 30.6387 32H22.0081L22.0002 32H8.10546C6.11757 32 4.46837 30.5499 4.15797 28.6498C4.72801 28.8758 5.3495 29 5.99999 29H17.8948ZM26.0002 8V15.0207C25.8345 15.007 25.6676 15 25.5 15C24.5874 15 23.6968 15.2063 22.8948 15.5923L22.8948 6C22.8948 5.30044 22.7511 4.63444 22.4917 4.02989C24.469 4.27212 26.0002 5.95724 26.0002 8ZM29.1219 22.852H21.877V21.3293C21.877 20.3195 22.2587 19.3509 22.9382 18.6368C23.6176 17.9227 24.5391 17.5215 25.5 17.5215C26.4609 17.5215 27.3824 17.9227 28.0618 18.6368C28.7413 19.3509 29.123 20.3195 29.123 21.3293L29.1219 22.852ZM24.411 26.2242C24.411 25.5902 24.8986 25.0762 25.5 25.0762C26.1014 25.0762 26.589 25.5902 26.589 26.2242V26.2601C26.589 26.5422 26.4925 26.8005 26.3323 27.0004L26.589 29.7399H24.411L24.6677 27.0004C24.5075 26.8005 24.411 26.5422 24.411 26.2601V26.2242Z"/>
</svg>
