<svg width="339" height="285" viewBox="0 0 339 285" fill="none" xmlns="http://www.w3.org/2000/svg">
<g filter="url(#filter0_d)">
<path d="M188 8H26C17.7157 8 11 14.7157 11 23V145C11 153.284 17.7157 160 26 160H188C196.284 160 203 153.284 203 145V23C203 14.7157 196.284 8 188 8Z" fill="white"/>
</g>
<path d="M41.5 62.8398C43.433 62.8398 45 61.2728 45 59.3398C45 57.4069 43.433 55.8398 41.5 55.8398C39.567 55.8398 38 57.4069 38 59.3398C38 61.2728 39.567 62.8398 41.5 62.8398Z" fill="#4A85DF"/>
<path d="M41.5 87.3164C43.433 87.3164 45 85.7494 45 83.8164C45 81.8834 43.433 80.3164 41.5 80.3164C39.567 80.3164 38 81.8834 38 83.8164C38 85.7494 39.567 87.3164 41.5 87.3164Z" fill="#4A85DF"/>
<path d="M41.5 111.793C43.433 111.793 45 110.226 45 108.293C45 106.36 43.433 104.793 41.5 104.793C39.567 104.793 38 106.36 38 108.293C38 110.226 39.567 111.793 41.5 111.793Z" fill="#4A85DF"/>
<path d="M173.32 57.4121H70.3203C69.2157 57.4121 68.3203 58.3075 68.3203 59.4121V59.9121C68.3203 61.0167 69.2157 61.9121 70.3203 61.9121H173.32C174.425 61.9121 175.32 61.0167 175.32 59.9121V59.4121C175.32 58.3075 174.425 57.4121 173.32 57.4121Z" fill="#E0E0E0"/>
<path d="M173.32 81.7852H70.3203C69.2157 81.7852 68.3203 82.6806 68.3203 83.7852V84.2852C68.3203 85.3897 69.2157 86.2852 70.3203 86.2852H173.32C174.425 86.2852 175.32 85.3897 175.32 84.2852V83.7852C175.32 82.6806 174.425 81.7852 173.32 81.7852Z" fill="#E0E0E0"/>
<path d="M173.32 106.16H70.3203C69.2157 106.16 68.3203 107.056 68.3203 108.16V108.66C68.3203 109.765 69.2157 110.66 70.3203 110.66H173.32C174.425 110.66 175.32 109.765 175.32 108.66V108.16C175.32 107.056 174.425 106.16 173.32 106.16Z" fill="#E0E0E0"/>
<path d="M172 22.8398H41C39.3431 22.8398 38 24.183 38 25.8398V36.8398C38 38.4967 39.3431 39.8398 41 39.8398H172C173.657 39.8398 175 38.4967 175 36.8398V25.8398C175 24.183 173.657 22.8398 172 22.8398Z" fill="#DFDFDF"/>
<g filter="url(#filter1_d)">
<path d="M256 70.1602H94C85.7157 70.1602 79 76.8759 79 85.1602V207.16C79 215.444 85.7157 222.16 94 222.16H256C264.284 222.16 271 215.444 271 207.16V85.1602C271 76.8759 264.284 70.1602 256 70.1602Z" fill="white"/>
</g>
<path d="M109.5 125C111.433 125 113 123.433 113 121.5C113 119.567 111.433 118 109.5 118C107.567 118 106 119.567 106 121.5C106 123.433 107.567 125 109.5 125Z" fill="#4A85DF"/>
<path d="M109.5 149.477C111.433 149.477 113 147.91 113 145.977C113 144.044 111.433 142.477 109.5 142.477C107.567 142.477 106 144.044 106 145.977C106 147.91 107.567 149.477 109.5 149.477Z" fill="#4A85DF"/>
<path d="M109.5 173.953C111.433 173.953 113 172.386 113 170.453C113 168.52 111.433 166.953 109.5 166.953C107.567 166.953 106 168.52 106 170.453C106 172.386 107.567 173.953 109.5 173.953Z" fill="#4A85DF"/>
<path d="M241.32 119.572H138.32C137.216 119.572 136.32 120.468 136.32 121.572V122.072C136.32 123.177 137.216 124.072 138.32 124.072H241.32C242.425 124.072 243.32 123.177 243.32 122.072V121.572C243.32 120.468 242.425 119.572 241.32 119.572Z" fill="#E0E0E0"/>
<path d="M241.32 143.945H138.32C137.216 143.945 136.32 144.841 136.32 145.945V146.445C136.32 147.55 137.216 148.445 138.32 148.445H241.32C242.425 148.445 243.32 147.55 243.32 146.445V145.945C243.32 144.841 242.425 143.945 241.32 143.945Z" fill="#E0E0E0"/>
<path d="M241.32 168.32H138.32C137.216 168.32 136.32 169.216 136.32 170.32V170.82C136.32 171.925 137.216 172.82 138.32 172.82H241.32C242.425 172.82 243.32 171.925 243.32 170.82V170.32C243.32 169.216 242.425 168.32 241.32 168.32Z" fill="#E0E0E0"/>
<g filter="url(#filter2_d)">
<path d="M324 132.838H162C153.716 132.838 147 139.554 147 147.838V269.838C147 278.122 153.716 284.838 162 284.838H324C332.284 284.838 339 278.122 339 269.838V147.838C339 139.554 332.284 132.838 324 132.838Z" fill="white"/>
</g>
<path d="M178.5 187.426C180.433 187.426 182 185.859 182 183.926C182 181.993 180.433 180.426 178.5 180.426C176.567 180.426 175 181.993 175 183.926C175 185.859 176.567 187.426 178.5 187.426Z" fill="#4A85DF"/>
<path d="M178.5 211.801C180.433 211.801 182 210.234 182 208.301C182 206.368 180.433 204.801 178.5 204.801C176.567 204.801 175 206.368 175 208.301C175 210.234 176.567 211.801 178.5 211.801Z" fill="#4A85DF"/>
<path d="M178.5 237.336C180.433 237.336 182 235.769 182 233.836C182 231.903 180.433 230.336 178.5 230.336C176.567 230.336 175 231.903 175 233.836C175 235.769 176.567 237.336 178.5 237.336Z" fill="#4A85DF"/>
<path d="M309 182.748H206C204.895 182.748 204 183.643 204 184.748V185.248C204 186.353 204.895 187.248 206 187.248H309C310.105 187.248 311 186.353 311 185.248V184.748C311 183.643 310.105 182.748 309 182.748Z" fill="#D2D2D2"/>
<path d="M309 207.123H206C204.895 207.123 204 208.018 204 209.123V209.623C204 210.728 204.895 211.623 206 211.623H309C310.105 211.623 311 210.728 311 209.623V209.123C311 208.018 310.105 207.123 309 207.123Z" fill="#D2D2D2"/>
<path d="M309 231.498H206C204.895 231.498 204 232.393 204 233.498V233.998C204 235.103 204.895 235.998 206 235.998H309C310.105 235.998 311 235.103 311 233.998V233.498C311 232.393 310.105 231.498 309 231.498Z" fill="#D2D2D2"/>
<path d="M323.751 258.615H322.399V256.146C322.399 253.359 320.036 251.043 317.072 251C316.358 250.993 315.649 251.119 314.986 251.371C314.323 251.623 313.72 251.995 313.212 252.467C312.703 252.939 312.298 253.501 312.022 254.121C311.745 254.74 311.601 255.405 311.599 256.077V258.615H310.25C309.654 258.617 309.083 258.84 308.661 259.237C308.239 259.633 308.002 260.17 308 260.731V270.884C308.002 271.445 308.239 271.982 308.661 272.378C309.083 272.775 309.654 272.998 310.25 273H323.751C324.347 272.998 324.918 272.775 325.34 272.378C325.761 271.982 325.998 271.445 326 270.884V260.731C325.998 260.17 325.761 259.633 325.34 259.237C324.918 258.84 324.347 258.617 323.751 258.615V258.615ZM317.789 265.215V268.852C317.79 269.045 317.714 269.23 317.575 269.372C317.436 269.513 317.245 269.6 317.04 269.614C316.934 269.619 316.827 269.603 316.727 269.568C316.627 269.533 316.536 269.479 316.459 269.41C316.381 269.34 316.32 269.257 316.278 269.165C316.236 269.072 316.214 268.973 316.214 268.873V265.214C315.849 265.046 315.555 264.767 315.38 264.423C315.206 264.078 315.16 263.688 315.251 263.316C315.343 262.944 315.566 262.612 315.883 262.374C316.201 262.136 316.595 262.007 317.001 262.007C317.408 262.007 317.802 262.136 318.12 262.374C318.437 262.612 318.66 262.944 318.752 263.316C318.843 263.688 318.797 264.078 318.623 264.423C318.448 264.767 318.154 265.046 317.789 265.214V265.215ZM320.826 258.615H313.174V256.077C313.174 255.123 313.577 254.209 314.294 253.534C315.011 252.86 315.984 252.481 316.999 252.481C318.013 252.481 318.986 252.86 319.703 253.534C320.42 254.209 320.823 255.123 320.823 256.077L320.826 258.615Z" fill="#4A85DF"/>
<path d="M309 147.926H178C176.343 147.926 175 149.269 175 150.926V161.926C175 163.583 176.343 164.926 178 164.926H309C310.657 164.926 312 163.583 312 161.926V150.926C312 149.269 310.657 147.926 309 147.926Z" fill="#D2D2D2"/>
<path d="M240 85H109C107.343 85 106 86.3431 106 88V99C106 100.657 107.343 102 109 102H240C241.657 102 243 100.657 243 99V88C243 86.3431 241.657 85 240 85Z" fill="#DFDFDF"/>
<defs>
<filter id="filter0_d" x="0" y="0" width="203" height="160" filterUnits="userSpaceOnUse" color-interpolation-filters="sRGB">
<feFlood flood-opacity="0" result="BackgroundImageFix"/>
<feColorMatrix in="SourceAlpha" type="matrix" values="0 0 0 0 0 0 0 0 0 0 0 0 0 0 0 0 0 0 127 0"/>
<feOffset dx="-7" dy="-4"/>
<feGaussianBlur stdDeviation="2"/>
<feColorMatrix type="matrix" values="0 0 0 0 0 0 0 0 0 0 0 0 0 0 0 0 0 0 0.05 0"/>
<feBlend mode="normal" in2="BackgroundImageFix" result="effect1_dropShadow"/>
<feBlend mode="normal" in="SourceGraphic" in2="effect1_dropShadow" result="shape"/>
</filter>
<filter id="filter1_d" x="68" y="62.1602" width="203" height="160" filterUnits="userSpaceOnUse" color-interpolation-filters="sRGB">
<feFlood flood-opacity="0" result="BackgroundImageFix"/>
<feColorMatrix in="SourceAlpha" type="matrix" values="0 0 0 0 0 0 0 0 0 0 0 0 0 0 0 0 0 0 127 0"/>
<feOffset dx="-7" dy="-4"/>
<feGaussianBlur stdDeviation="2"/>
<feColorMatrix type="matrix" values="0 0 0 0 0 0 0 0 0 0 0 0 0 0 0 0 0 0 0.05 0"/>
<feBlend mode="normal" in2="BackgroundImageFix" result="effect1_dropShadow"/>
<feBlend mode="normal" in="SourceGraphic" in2="effect1_dropShadow" result="shape"/>
</filter>
<filter id="filter2_d" x="136" y="124.838" width="203" height="160" filterUnits="userSpaceOnUse" color-interpolation-filters="sRGB">
<feFlood flood-opacity="0" result="BackgroundImageFix"/>
<feColorMatrix in="SourceAlpha" type="matrix" values="0 0 0 0 0 0 0 0 0 0 0 0 0 0 0 0 0 0 127 0"/>
<feOffset dx="-7" dy="-4"/>
<feGaussianBlur stdDeviation="2"/>
<feColorMatrix type="matrix" values="0 0 0 0 0 0 0 0 0 0 0 0 0 0 0 0 0 0 0.05 0"/>
<feBlend mode="normal" in2="BackgroundImageFix" result="effect1_dropShadow"/>
<feBlend mode="normal" in="SourceGraphic" in2="effect1_dropShadow" result="shape"/>
</filter>
</defs>
</svg>
