<svg width="25" height="25" viewBox="0 0 25 25" xmlns="http://www.w3.org/2000/svg">
<path fill-rule="evenodd" clip-rule="evenodd" d="M12.5 0C9.18479 0 6.00537 1.31696 3.66117 3.66117C1.31696 6.00537 0 9.18479 0 12.5C0 15.8152 1.31696 18.9946 3.66117 21.3388C6.00537 23.683 9.18479 25 12.5 25C15.8152 25 18.9946 23.683 21.3388 21.3388C23.683 18.9946 25 15.8152 25 12.5C25 9.18479 23.683 6.00537 21.3388 3.66117C18.9946 1.31696 15.8152 0 12.5 0ZM12.5 23.0769C9.69483 23.0769 7.00454 21.9626 5.02099 19.979C3.03743 17.9955 1.92308 15.3052 1.92308 12.5C1.92308 9.69483 3.03743 7.00454 5.02099 5.02099C7.00454 3.03743 9.69483 1.92308 12.5 1.92308C15.3052 1.92308 17.9955 3.03743 19.979 5.02099C21.9626 7.00454 23.0769 9.69483 23.0769 12.5C23.0769 15.3052 21.9626 17.9955 19.979 19.979C17.9955 21.9626 15.3052 23.0769 12.5 23.0769ZM15.4808 6.88461C15.1485 6.53866 14.7494 6.26386 14.3077 6.07692C13.7519 5.8544 13.156 5.74963 12.5577 5.76923C11.9769 5.75868 11.4004 5.87006 10.8654 6.09615C10.4058 6.28846 10 6.58461 9.67308 6.96154C9.35461 7.30792 9.10642 7.71285 8.94231 8.15385C8.78973 8.60181 8.69285 9.06684 8.65385 9.53846H11.0192C11.0301 9.23324 11.1273 8.93737 11.2996 8.68515C11.4718 8.43293 11.712 8.2347 11.9923 8.11346C12.1781 8.04026 12.3775 8.00811 12.5769 8.01923C12.7489 7.99189 12.9242 7.99189 13.0962 8.01923C13.2542 8.07899 13.3982 8.17063 13.5192 8.28846C13.6528 8.40407 13.7581 8.54882 13.8269 8.71154C13.9057 8.89354 13.945 9.09016 13.9423 9.28846C13.9423 9.62115 13.8712 9.94808 13.7308 10.25C13.5911 10.5632 13.4169 10.86 13.2115 11.1346L12.5385 11.9423C12.3077 12.1923 12.0769 12.4615 11.8654 12.7308C11.6603 12.9988 11.4861 13.2891 11.3462 13.5962C11.2127 13.8988 11.1471 14.227 11.1538 14.5577V15.8269H13.4615V14.8846C13.4681 14.6026 13.5405 14.326 13.6731 14.0769C13.8311 13.8001 14.0112 13.5364 14.2115 13.2885L14.9038 12.4423C15.1559 12.1511 15.3872 11.8427 15.5962 11.5192C15.8172 11.1894 15.9979 10.8343 16.1346 10.4615C16.2749 10.0664 16.3464 9.65009 16.3462 9.23077C16.3496 8.79389 16.2847 8.35915 16.1538 7.94231C16.0086 7.54521 15.779 7.18435 15.4808 6.88461ZM11.1538 16.9808H13.4038V19.2308H11.1538V16.9808Z"/>
</svg>
