<svg width="25" height="25" viewBox="0 0 25 25" xmlns="http://www.w3.org/2000/svg">
<path fill-rule="evenodd" clip-rule="evenodd" d="M23.9583 12.5C23.9583 18.8283 18.8283 23.9583 12.5 23.9583C6.17174 23.9583 1.04167 18.8283 1.04167 12.5C1.04167 6.17174 6.17174 1.04167 12.5 1.04167C18.8283 1.04167 23.9583 6.17174 23.9583 12.5ZM25 12.5C25 19.4036 19.4036 25 12.5 25C5.59644 25 0 19.4036 0 12.5C0 5.59644 5.59644 0 12.5 0C19.4036 0 25 5.59644 25 12.5ZM11.4632 13.4017C11.25 13.9178 11.1434 14.6104 11.1434 15.4794H13.343C13.3559 14.5385 13.5756 13.8231 14.0019 13.3331L15.1938 12.1472C16.1757 11.1148 16.6667 10.0662 16.6667 9.00118C16.6667 7.8055 16.3017 6.87444 15.5717 6.208C14.8482 5.54155 13.8372 5.20833 12.5388 5.20833C11.2791 5.20833 10.2649 5.54482 9.49612 6.2178C8.73385 6.89077 8.34625 7.8055 8.33333 8.96197H10.688C10.688 8.41967 10.8559 7.99171 11.1919 7.67809C11.5342 7.35794 11.9832 7.19786 12.5388 7.19786C13.1202 7.19786 13.5594 7.3612 13.8566 7.68789C14.1602 8.00805 14.312 8.47521 14.312 9.08938C14.312 9.55328 14.1828 9.98451 13.9244 10.3831C13.7565 10.6444 13.3559 11.0854 12.7229 11.7061C12.0963 12.3203 11.6764 12.8855 11.4632 13.4017ZM11.3372 17.5963C11.0982 17.8315 10.9787 18.1419 10.9787 18.5274C10.9787 18.8867 11.0917 19.1873 11.3178 19.429C11.5504 19.6708 11.8798 19.7917 12.3062 19.7917C12.7326 19.7917 13.062 19.6708 13.2946 19.429C13.5271 19.1873 13.6434 18.8867 13.6434 18.5274C13.6434 18.155 13.5239 17.8479 13.2849 17.6061C13.0459 17.3578 12.7196 17.2337 12.3062 17.2337C11.8992 17.2337 11.5762 17.3546 11.3372 17.5963Z"/>
</svg>
