<svg width="14" height="10" viewBox="0 0 14 10" fill="none" xmlns="http://www.w3.org/2000/svg">
<path d="M12.2936 5.29204C11.2802 4.09702 9.37054 2.67465 6.00368 2.55266V0.340079C6.00368 0.209765 5.92637 0.0877679 5.80327 0.0323149C5.68016 -0.0231382 5.53415 -0.0065023 5.43108 0.0766773L0.128834 4.31052C0.0486707 4.37429 0 4.47133 0 4.57115C0 4.67374 0.0458077 4.76801 0.125971 4.83178L5.42822 9.08225C5.53415 9.16543 5.6773 9.18484 5.8004 9.12661C5.92351 9.07116 6.00081 8.95194 6.00081 8.81885L6.00081 6.61459C8.19958 6.62291 11.5607 6.78095 13.3444 9.8281C13.4073 9.93623 13.5247 10 13.6507 10C13.6793 10 13.7108 9.99723 13.7395 9.98891C13.8941 9.95009 14 9.81423 14 9.66174C14.0029 8.52218 13.5534 6.77818 12.2936 5.29204Z" fill="#303030"/>
</svg>
