<svg width="15" height="15" viewBox="0 0 15 15" xmlns="http://www.w3.org/2000/svg">
<path fill-rule="evenodd" clip-rule="evenodd" d="M14.6031 5.57104C14.6031 8.64785 12.1089 11.1421 9.03207 11.1421C7.9519 11.1421 6.94352 10.8347 6.08966 10.3026L1.68055 14.7117C1.2961 15.0961 0.672785 15.0961 0.288336 14.7117C-0.0961121 14.3272 -0.0961121 13.7039 0.288336 13.3195L4.62646 8.98133C3.8959 8.03892 3.46103 6.85577 3.46103 5.57104C3.46103 2.49424 5.95527 0 9.03207 0C12.1089 0 14.6031 2.49424 14.6031 5.57104ZM12.9018 5.57068C12.9018 7.70837 11.1688 9.44132 9.03115 9.44132C6.89345 9.44132 5.1605 7.70837 5.1605 5.57068C5.1605 3.43298 6.89345 1.70003 9.03115 1.70003C11.1688 1.70003 12.9018 3.43298 12.9018 5.57068Z"/>
</svg>
