<svg width="16" height="9" viewBox="0 0 16 9" fill="none" xmlns="http://www.w3.org/2000/svg">
<path d="M7.65323 5.97567L1.92929 0.244616C1.77206 0.086811 1.56184 -8.39639e-08 1.33769 -8.66369e-08C1.11342 -8.93114e-08 0.903322 0.086811 0.745844 0.244616L0.244551 0.746802C0.0868245 0.904358 9.4028e-08 1.11497 9.13516e-08 1.33941C8.86752e-08 1.56385 0.0868245 1.77422 0.244551 1.9319L7.0594 8.75563C7.21737 8.91393 7.42846 9.00062 7.65286 9C7.87826 9.00062 8.0891 8.91406 8.2472 8.75563L15.0554 1.93825C15.2132 1.78057 15.3 1.5702 15.3 1.34564C15.3 1.1212 15.2132 0.910835 15.0554 0.75303L14.5542 0.250969C14.2279 -0.0757265 13.6967 -0.0757265 13.3706 0.250969L7.65323 5.97567Z" fill="#505050"/>
</svg>
