<svg width="12" height="12" viewBox="0 0 12 12" fill="none" xmlns="http://www.w3.org/2000/svg">
<path fill-rule="evenodd" clip-rule="evenodd" d="M6 12C9.31371 12 12 9.31371 12 6C12 2.68629 9.31371 0 6 0C2.68629 0 0 2.68629 0 6C0 9.31371 2.68629 12 6 12ZM5.99936 10.5315C8.50155 10.5315 10.53 8.50311 10.53 6.00092C10.53 3.49874 8.50155 1.47031 5.99936 1.47031C3.49717 1.47031 1.46875 3.49874 1.46875 6.00092C1.46875 8.50311 3.49717 10.5315 5.99936 10.5315Z" fill="#515151"/>
<path d="M5.34454 7.67957C5.29109 7.72597 5.21815 7.75185 5.14239 7.75185C5.06664 7.75185 4.9937 7.72597 4.94025 7.67957L3.32585 6.2864C3.15831 6.14184 3.15831 5.90744 3.32585 5.76315L3.528 5.58869C3.69559 5.44413 3.96695 5.44413 4.13449 5.58869L5.14239 6.45838L7.8659 4.10842C8.03349 3.96386 8.30512 3.96386 8.47239 4.10842L8.67454 4.28288C8.84208 4.42744 8.84208 4.6618 8.67454 4.80613L5.34454 7.67957Z" fill="#515151"/>
</svg>
