<svg width="22" height="22" viewBox="0 0 22 22" fill="none" xmlns="http://www.w3.org/2000/svg">
<path d="M21.7279 9.32807L19.2688 8.59474C19.0988 8.0017 18.865 7.42881 18.5715 6.88608L19.7753 4.63476C19.8205 4.54978 19.837 4.45251 19.8225 4.3574C19.8079 4.26228 19.7631 4.17439 19.6946 4.10676L17.9402 2.34677C17.8725 2.27832 17.7845 2.23351 17.6893 2.21898C17.5941 2.20445 17.4967 2.22097 17.4117 2.2661L15.1728 3.46143C14.6242 3.15391 14.0432 2.90797 13.4405 2.7281L12.7064 0.300778C12.6754 0.211323 12.6167 0.134017 12.5389 0.0799879C12.4611 0.0259583 12.3681 -0.00200877 12.2733 0.000112323H9.79223C9.69691 0.000555675 9.60422 0.0313775 9.52765 0.0880922C9.45107 0.144807 9.39461 0.224455 9.36649 0.315444L8.63243 2.73543C8.02465 2.91435 7.4387 3.16031 6.8854 3.46876L4.68324 2.28077C4.59818 2.23564 4.50082 2.21912 4.40561 2.23365C4.3104 2.24818 4.22242 2.29299 4.15473 2.36143L2.37098 4.09942C2.30247 4.16705 2.25762 4.25495 2.24307 4.35006C2.22853 4.44518 2.24507 4.54244 2.29024 4.62742L3.4794 6.82741C3.17114 7.37784 2.92495 7.96074 2.74535 8.5654L0.315642 9.29873C0.224563 9.32683 0.144837 9.38324 0.0880664 9.45973C0.0312959 9.53623 0.000443788 9.62883 0 9.72406V12.2027C0.000443788 12.2979 0.0312959 12.3905 0.0880664 12.467C0.144837 12.5435 0.224563 12.5999 0.315642 12.628L2.76003 13.3614C2.94159 13.956 3.18774 14.5289 3.49408 15.07L2.29024 17.3727C2.24507 17.4577 2.22853 17.5549 2.24307 17.6501C2.25762 17.7452 2.30247 17.8331 2.37098 17.9007L4.12536 19.6533C4.19306 19.7218 4.28104 19.7666 4.37625 19.7811C4.47146 19.7957 4.56882 19.7791 4.65388 19.734L6.9221 18.524C7.45866 18.8133 8.02465 19.0444 8.61041 19.2133L9.34446 21.6847C9.37259 21.7757 9.42905 21.8553 9.50562 21.912C9.5822 21.9687 9.67489 21.9996 9.77021 22H12.2513C12.3466 21.9996 12.4393 21.9687 12.5159 21.912C12.5925 21.8553 12.6489 21.7757 12.6771 21.6847L13.4111 19.206C13.9919 19.0361 14.5529 18.8051 15.0847 18.5167L17.3676 19.734C17.4527 19.7791 17.5501 19.7957 17.6453 19.7811C17.7405 19.7666 17.8285 19.7218 17.8962 19.6533L19.6505 17.9007C19.719 17.8331 19.7639 17.7452 19.7784 17.6501C19.793 17.5549 19.7765 17.4577 19.7313 17.3727L18.5128 15.0994C18.8044 14.566 19.0382 14.003 19.2101 13.42L21.6839 12.6867C21.7749 12.6586 21.8547 12.6022 21.9114 12.5257C21.9682 12.4492 21.9991 12.3566 21.9995 12.2614V9.76073C22.0038 9.66954 21.9801 9.57921 21.9316 9.50187C21.883 9.42453 21.812 9.36388 21.7279 9.32807ZM11.0328 15.0334C10.2343 15.0334 9.45372 14.7968 8.78979 14.3536C8.12586 13.9104 7.60839 13.2805 7.30282 12.5435C6.99725 11.8065 6.9173 10.9956 7.07308 10.2132C7.22886 9.43081 7.61337 8.71214 8.17799 8.14807C8.74262 7.584 9.46199 7.19987 10.2451 7.04424C11.0283 6.88862 11.8401 6.96849 12.5778 7.27376C13.3155 7.57903 13.946 8.09599 14.3897 8.75927C14.8333 9.42254 15.0701 10.2023 15.0701 11.0001C15.0701 12.0698 14.6447 13.0956 13.8876 13.852C13.1304 14.6084 12.1035 15.0334 11.0328 15.0334Z" fill="#484848"/>
</svg>
