<svg width="17" height="16" viewBox="0 0 17 16" xmlns="http://www.w3.org/2000/svg">
<path fill-rule="evenodd" clip-rule="evenodd" d="M16.5557 2.78151C16.5557 4.3177 15.3352 5.56302 13.8297 5.56302C13.1403 5.56302 12.5106 5.30188 12.0306 4.87126L6.00744 8.35077C6.00564 8.50189 5.99202 8.65011 5.96749 8.79452L11.702 11.4795C12.2015 10.8439 12.969 10.437 13.8296 10.437C15.3352 10.437 16.5556 11.6823 16.5556 13.2185C16.5556 14.7547 15.3352 16 13.8296 16C12.3241 16 11.1037 14.7547 11.1037 13.2185C11.1037 13.1525 11.1059 13.087 11.1103 13.0222L5.22516 10.2666C4.73065 10.7796 4.04256 11.0977 3.28166 11.0977C1.77613 11.0977 0.555664 9.85238 0.555664 8.3162C0.555664 6.78001 1.77613 5.53468 3.28166 5.53468C4.20973 5.53468 5.02948 6.00791 5.52178 6.73079L11.1851 3.45912C11.1319 3.24222 11.1037 3.01523 11.1037 2.78151C11.1037 1.24532 12.3242 0 13.8297 0C15.3352 0 16.5557 1.24532 16.5557 2.78151Z"/>
</svg>
