<svg width="429" height="343" viewBox="0 0 429 343" fill="none" xmlns="http://www.w3.org/2000/svg">
<g filter="url(#filter0_d)">
<rect x="138.277" y="238" width="169.724" height="95.4696" rx="10" fill="#DFDFDF"/>
</g>
<g filter="url(#filter1_d)">
<rect x="116" y="246.486" width="180.331" height="95.4696" rx="10" fill="white"/>
</g>
<path d="M138.806 284.673C140.857 284.673 142.519 283.011 142.519 280.961C142.519 278.91 140.857 277.248 138.806 277.248C136.756 277.248 135.094 278.91 135.094 280.961C135.094 283.011 136.756 284.673 138.806 284.673Z" fill="#4A85DF"/>
<path d="M138.806 303.767C140.857 303.767 142.519 302.105 142.519 300.054C142.519 298.004 140.857 296.342 138.806 296.342C136.756 296.342 135.094 298.004 135.094 300.054C135.094 302.105 136.756 303.767 138.806 303.767Z" fill="#4A85DF"/>
<path d="M138.806 322.861C140.857 322.861 142.519 321.199 142.519 319.148C142.519 317.098 140.857 315.436 138.806 315.436C136.756 315.436 135.094 317.098 135.094 319.148C135.094 321.199 136.756 322.861 138.806 322.861Z" fill="#4A85DF"/>
<path d="M252.96 278.309H162.551C161.446 278.309 160.551 279.204 160.551 280.309V280.552C160.551 281.656 161.446 282.552 162.551 282.552H252.96C254.064 282.552 254.96 281.656 254.96 280.552V280.309C254.96 279.204 254.064 278.309 252.96 278.309Z" fill="#D2D2D2"/>
<path d="M253.12 297.334H162.711C161.606 297.334 160.711 298.229 160.711 299.334V299.577C160.711 300.682 161.606 301.577 162.711 301.577H253.12C254.224 301.577 255.12 300.682 255.12 299.577V299.334C255.12 298.229 254.224 297.334 253.12 297.334Z" fill="#D2D2D2"/>
<path d="M253.12 316.465H162.711C161.606 316.465 160.711 317.36 160.711 318.465V318.708C160.711 319.813 161.606 320.708 162.711 320.708H253.12C254.224 320.708 255.12 319.813 255.12 318.708V318.465C255.12 317.36 254.224 316.465 253.12 316.465Z" fill="#D2D2D2"/>
<path d="M226.442 257.094H137.094C135.989 257.094 135.094 257.989 135.094 259.094V263.58C135.094 264.685 135.989 265.58 137.094 265.58H226.442C227.546 265.58 228.442 264.685 228.442 263.58V259.094C228.442 257.989 227.546 257.094 226.442 257.094Z" fill="#D2D2D2"/>
<g filter="url(#filter2_d)">
<rect x="28.2773" y="7" width="169.724" height="95.4696" rx="10" fill="#DFDFDF"/>
</g>
<g filter="url(#filter3_d)">
<rect x="6" y="15.4863" width="180.331" height="95.4696" rx="10" fill="white"/>
</g>
<path d="M28.8065 53.6735C30.8569 53.6735 32.5192 52.0112 32.5192 49.9608C32.5192 47.9103 30.8569 46.248 28.8065 46.248C26.756 46.248 25.0938 47.9103 25.0938 49.9608C25.0938 52.0112 26.756 53.6735 28.8065 53.6735Z" fill="#4A85DF"/>
<path d="M28.8065 72.7672C30.8569 72.7672 32.5192 71.105 32.5192 69.0545C32.5192 67.004 30.8569 65.3418 28.8065 65.3418C26.756 65.3418 25.0938 67.004 25.0938 69.0545C25.0938 71.105 26.756 72.7672 28.8065 72.7672Z" fill="#4A85DF"/>
<path d="M28.8065 91.861C30.8569 91.861 32.5192 90.1987 32.5192 88.1483C32.5192 86.0978 30.8569 84.4355 28.8065 84.4355C26.756 84.4355 25.0938 86.0978 25.0938 88.1483C25.0938 90.1987 26.756 91.861 28.8065 91.861Z" fill="#4A85DF"/>
<path d="M142.96 47.3086H52.5508C51.4462 47.3086 50.5508 48.204 50.5508 49.3086V49.5517C50.5508 50.6563 51.4462 51.5517 52.5508 51.5517H142.96C144.064 51.5517 144.96 50.6563 144.96 49.5517V49.3086C144.96 48.204 144.064 47.3086 142.96 47.3086Z" fill="#D2D2D2"/>
<path d="M143.12 66.334H52.7109C51.6064 66.334 50.7109 67.2294 50.7109 68.334V68.5771C50.7109 69.6816 51.6064 70.5771 52.7109 70.5771H143.12C144.224 70.5771 145.12 69.6816 145.12 68.5771V68.334C145.12 67.2294 144.224 66.334 143.12 66.334Z" fill="#D2D2D2"/>
<path d="M143.12 85.4648H52.7109C51.6064 85.4648 50.7109 86.3603 50.7109 87.4648V87.7079C50.7109 88.8125 51.6064 89.7079 52.7109 89.7079H143.12C144.224 89.7079 145.12 88.8125 145.12 87.7079V87.4648C145.12 86.3603 144.224 85.4648 143.12 85.4648Z" fill="#D2D2D2"/>
<path d="M116.442 26.0938H27.0938C25.9892 26.0938 25.0938 26.9892 25.0938 28.0938V32.5799C25.0938 33.6845 25.9892 34.5799 27.0937 34.5799H116.442C117.546 34.5799 118.442 33.6845 118.442 32.5799V28.0938C118.442 26.9892 117.546 26.0938 116.442 26.0938Z" fill="#D2D2D2"/>
<g filter="url(#filter4_d)">
<rect x="257.277" y="7" width="169.724" height="95.4696" rx="10" fill="#DFDFDF"/>
</g>
<g filter="url(#filter5_d)">
<rect x="235" y="15.4863" width="180.331" height="95.4696" rx="10" fill="white"/>
</g>
<path d="M257.806 53.6735C259.857 53.6735 261.519 52.0112 261.519 49.9608C261.519 47.9103 259.857 46.248 257.806 46.248C255.756 46.248 254.094 47.9103 254.094 49.9608C254.094 52.0112 255.756 53.6735 257.806 53.6735Z" fill="#4A85DF"/>
<path d="M257.806 72.7672C259.857 72.7672 261.519 71.105 261.519 69.0545C261.519 67.004 259.857 65.3418 257.806 65.3418C255.756 65.3418 254.094 67.004 254.094 69.0545C254.094 71.105 255.756 72.7672 257.806 72.7672Z" fill="#4A85DF"/>
<path d="M257.806 91.861C259.857 91.861 261.519 90.1987 261.519 88.1483C261.519 86.0978 259.857 84.4355 257.806 84.4355C255.756 84.4355 254.094 86.0978 254.094 88.1483C254.094 90.1987 255.756 91.861 257.806 91.861Z" fill="#4A85DF"/>
<path d="M371.96 47.3086H281.551C280.446 47.3086 279.551 48.204 279.551 49.3086V49.5517C279.551 50.6563 280.446 51.5517 281.551 51.5517H371.96C373.064 51.5517 373.96 50.6563 373.96 49.5517V49.3086C373.96 48.204 373.064 47.3086 371.96 47.3086Z" fill="#D2D2D2"/>
<path d="M372.12 66.334H281.711C280.606 66.334 279.711 67.2294 279.711 68.334V68.5771C279.711 69.6816 280.606 70.5771 281.711 70.5771H372.12C373.224 70.5771 374.12 69.6816 374.12 68.5771V68.334C374.12 67.2294 373.224 66.334 372.12 66.334Z" fill="#D2D2D2"/>
<path d="M372.12 85.4648H281.711C280.606 85.4648 279.711 86.3603 279.711 87.4648V87.7079C279.711 88.8125 280.606 89.7079 281.711 89.7079H372.12C373.224 89.7079 374.12 88.8125 374.12 87.7079V87.4648C374.12 86.3603 373.224 85.4648 372.12 85.4648Z" fill="#D2D2D2"/>
<path d="M345.442 26.0938H256.094C254.989 26.0938 254.094 26.9892 254.094 28.0938V32.5799C254.094 33.6845 254.989 34.5799 256.094 34.5799H345.442C346.546 34.5799 347.442 33.6845 347.442 32.5799V28.0938C347.442 26.9892 346.546 26.0938 345.442 26.0938Z" fill="#D2D2D2"/>
<path d="M106.781 140.611L105.695 141.752L180.219 212.703L181.305 211.562L106.781 140.611Z" fill="#D2D2D2"/>
<path d="M181.425 203.867L179.852 203.962L180.326 211.714L172.56 211.621L172.543 213.196L182.002 213.308L181.425 203.867Z" fill="#D2D2D2"/>
<path d="M114.457 140.113L114.44 141.689L106.674 141.595L107.149 149.347L105.575 149.442L105 140L114.457 140.113Z" fill="#D2D2D2"/>
<path d="M142.17 185.399C146.955 185.399 150.833 181.521 150.833 176.737C150.833 171.953 146.955 168.074 142.17 168.074C137.386 168.074 133.508 171.953 133.508 176.737C133.508 181.521 137.386 185.399 142.17 185.399Z" fill="#D2D2D2"/>
<path d="M235.609 213.219L236.75 214.305L307.701 139.781L306.56 138.695L235.609 213.219Z" fill="#D2D2D2"/>
<path d="M298.867 138.577L298.962 140.15L306.714 139.675L306.621 147.442L308.196 147.459L308.308 138L298.867 138.577Z" fill="#D2D2D2"/>
<path d="M235.113 205.543L236.689 205.56L236.595 213.326L244.347 212.851L244.442 214.425L235 215L235.113 205.543Z" fill="#D2D2D2"/>
<path d="M280.399 177.828C280.399 173.043 276.521 169.165 271.737 169.165C266.953 169.165 263.074 173.043 263.074 177.828C263.074 182.612 266.953 186.49 271.737 186.49C276.521 186.49 280.399 182.612 280.399 177.828Z" fill="#D2D2D2"/>
<defs>
<filter id="filter0_d" x="132.277" y="231" width="177.724" height="103.47" filterUnits="userSpaceOnUse" color-interpolation-filters="sRGB">
<feFlood flood-opacity="0" result="BackgroundImageFix"/>
<feColorMatrix in="SourceAlpha" type="matrix" values="0 0 0 0 0 0 0 0 0 0 0 0 0 0 0 0 0 0 127 0"/>
<feOffset dx="-2" dy="-3"/>
<feGaussianBlur stdDeviation="2"/>
<feColorMatrix type="matrix" values="0 0 0 0 0 0 0 0 0 0 0 0 0 0 0 0 0 0 0.1 0"/>
<feBlend mode="normal" in2="BackgroundImageFix" result="effect1_dropShadow"/>
<feBlend mode="normal" in="SourceGraphic" in2="effect1_dropShadow" result="shape"/>
</filter>
<filter id="filter1_d" x="110" y="239.486" width="188.331" height="103.47" filterUnits="userSpaceOnUse" color-interpolation-filters="sRGB">
<feFlood flood-opacity="0" result="BackgroundImageFix"/>
<feColorMatrix in="SourceAlpha" type="matrix" values="0 0 0 0 0 0 0 0 0 0 0 0 0 0 0 0 0 0 127 0"/>
<feOffset dx="-2" dy="-3"/>
<feGaussianBlur stdDeviation="2"/>
<feColorMatrix type="matrix" values="0 0 0 0 0 0 0 0 0 0 0 0 0 0 0 0 0 0 0.1 0"/>
<feBlend mode="normal" in2="BackgroundImageFix" result="effect1_dropShadow"/>
<feBlend mode="normal" in="SourceGraphic" in2="effect1_dropShadow" result="shape"/>
</filter>
<filter id="filter2_d" x="22.2773" y="0" width="177.724" height="103.47" filterUnits="userSpaceOnUse" color-interpolation-filters="sRGB">
<feFlood flood-opacity="0" result="BackgroundImageFix"/>
<feColorMatrix in="SourceAlpha" type="matrix" values="0 0 0 0 0 0 0 0 0 0 0 0 0 0 0 0 0 0 127 0"/>
<feOffset dx="-2" dy="-3"/>
<feGaussianBlur stdDeviation="2"/>
<feColorMatrix type="matrix" values="0 0 0 0 0 0 0 0 0 0 0 0 0 0 0 0 0 0 0.1 0"/>
<feBlend mode="normal" in2="BackgroundImageFix" result="effect1_dropShadow"/>
<feBlend mode="normal" in="SourceGraphic" in2="effect1_dropShadow" result="shape"/>
</filter>
<filter id="filter3_d" x="0" y="8.48633" width="188.331" height="103.47" filterUnits="userSpaceOnUse" color-interpolation-filters="sRGB">
<feFlood flood-opacity="0" result="BackgroundImageFix"/>
<feColorMatrix in="SourceAlpha" type="matrix" values="0 0 0 0 0 0 0 0 0 0 0 0 0 0 0 0 0 0 127 0"/>
<feOffset dx="-2" dy="-3"/>
<feGaussianBlur stdDeviation="2"/>
<feColorMatrix type="matrix" values="0 0 0 0 0 0 0 0 0 0 0 0 0 0 0 0 0 0 0.1 0"/>
<feBlend mode="normal" in2="BackgroundImageFix" result="effect1_dropShadow"/>
<feBlend mode="normal" in="SourceGraphic" in2="effect1_dropShadow" result="shape"/>
</filter>
<filter id="filter4_d" x="251.277" y="0" width="177.724" height="103.47" filterUnits="userSpaceOnUse" color-interpolation-filters="sRGB">
<feFlood flood-opacity="0" result="BackgroundImageFix"/>
<feColorMatrix in="SourceAlpha" type="matrix" values="0 0 0 0 0 0 0 0 0 0 0 0 0 0 0 0 0 0 127 0"/>
<feOffset dx="-2" dy="-3"/>
<feGaussianBlur stdDeviation="2"/>
<feColorMatrix type="matrix" values="0 0 0 0 0 0 0 0 0 0 0 0 0 0 0 0 0 0 0.1 0"/>
<feBlend mode="normal" in2="BackgroundImageFix" result="effect1_dropShadow"/>
<feBlend mode="normal" in="SourceGraphic" in2="effect1_dropShadow" result="shape"/>
</filter>
<filter id="filter5_d" x="229" y="8.48633" width="188.331" height="103.47" filterUnits="userSpaceOnUse" color-interpolation-filters="sRGB">
<feFlood flood-opacity="0" result="BackgroundImageFix"/>
<feColorMatrix in="SourceAlpha" type="matrix" values="0 0 0 0 0 0 0 0 0 0 0 0 0 0 0 0 0 0 127 0"/>
<feOffset dx="-2" dy="-3"/>
<feGaussianBlur stdDeviation="2"/>
<feColorMatrix type="matrix" values="0 0 0 0 0 0 0 0 0 0 0 0 0 0 0 0 0 0 0.1 0"/>
<feBlend mode="normal" in2="BackgroundImageFix" result="effect1_dropShadow"/>
<feBlend mode="normal" in="SourceGraphic" in2="effect1_dropShadow" result="shape"/>
</filter>
</defs>
</svg>
