<svg width="428" height="380" viewBox="0 0 428 380" fill="none" xmlns="http://www.w3.org/2000/svg">
<g filter="url(#filter0_d)">
<path d="M300 245H138C129.716 245 123 251.716 123 260V365C123 373.284 129.716 380 138 380H300C308.284 380 315 373.284 315 365V260C315 251.716 308.284 245 300 245Z" fill="white"/>
<path d="M154.5 299.588C156.433 299.588 158 298.021 158 296.088C158 294.155 156.433 292.588 154.5 292.588C152.567 292.588 151 294.155 151 296.088C151 298.021 152.567 299.588 154.5 299.588Z" fill="#4A85DF"/>
<path d="M154.5 323.963C156.433 323.963 158 322.396 158 320.463C158 318.53 156.433 316.963 154.5 316.963C152.567 316.963 151 318.53 151 320.463C151 322.396 152.567 323.963 154.5 323.963Z" fill="#4A85DF"/>
<path d="M285 294.91H182C180.895 294.91 180 295.806 180 296.91V297.41C180 298.515 180.895 299.41 182 299.41H285C286.105 299.41 287 298.515 287 297.41V296.91C287 295.806 286.105 294.91 285 294.91Z" fill="#D2D2D2"/>
<path d="M285 319.285H182C180.895 319.285 180 320.181 180 321.285V321.785C180 322.89 180.895 323.785 182 323.785H285C286.105 323.785 287 322.89 287 321.785V321.285C287 320.181 286.105 319.285 285 319.285Z" fill="#D2D2D2"/>
<path d="M285 344H153C151.895 344 151 344.895 151 346V346.5C151 347.605 151.895 348.5 153 348.5H285C286.105 348.5 287 347.605 287 346.5V346C287 344.895 286.105 344 285 344Z" fill="#D2D2D2"/>
<path d="M285 260.088H154C152.343 260.088 151 261.431 151 263.088V274.088C151 275.745 152.343 277.088 154 277.088H285C286.657 277.088 288 275.745 288 274.088V263.088C288 261.431 286.657 260.088 285 260.088Z" fill="#D2D2D2"/>
</g>
<g filter="url(#filter1_d)">
<path d="M188 10H26C17.7157 10 11 16.7157 11 25V130C11 138.284 17.7157 145 26 145H188C196.284 145 203 138.284 203 130V25C203 16.7157 196.284 10 188 10Z" fill="white"/>
<path d="M42.5 64.5879C44.433 64.5879 46 63.0209 46 61.0879C46 59.1549 44.433 57.5879 42.5 57.5879C40.567 57.5879 39 59.1549 39 61.0879C39 63.0209 40.567 64.5879 42.5 64.5879Z" fill="#4A85DF"/>
<path d="M42.5 88.9629C44.433 88.9629 46 87.3959 46 85.4629C46 83.5299 44.433 81.9629 42.5 81.9629C40.567 81.9629 39 83.5299 39 85.4629C39 87.3959 40.567 88.9629 42.5 88.9629Z" fill="#4A85DF"/>
<path d="M173 59.9102H70C68.8954 59.9102 68 60.8056 68 61.9102V62.4102C68 63.5147 68.8954 64.4102 70 64.4102H173C174.105 64.4102 175 63.5147 175 62.4102V61.9102C175 60.8056 174.105 59.9102 173 59.9102Z" fill="#D2D2D2"/>
<path d="M173 84.2852H70C68.8954 84.2852 68 85.1806 68 86.2852V86.7852C68 87.8897 68.8954 88.7852 70 88.7852H173C174.105 88.7852 175 87.8897 175 86.7852V86.2852C175 85.1806 174.105 84.2852 173 84.2852Z" fill="#D2D2D2"/>
<path d="M173 109H41C39.8954 109 39 109.895 39 111V111.5C39 112.605 39.8954 113.5 41 113.5H173C174.105 113.5 175 112.605 175 111.5V111C175 109.895 174.105 109 173 109Z" fill="#D2D2D2"/>
<path d="M173 25.0879H42C40.3431 25.0879 39 26.431 39 28.0879V39.0879C39 40.7447 40.3431 42.0879 42 42.0879H173C174.657 42.0879 176 40.7447 176 39.0879V28.0879C176 26.431 174.657 25.0879 173 25.0879Z" fill="#D2D2D2"/>
</g>
<g filter="url(#filter2_d)">
<path d="M413 10H251C242.716 10 236 16.7157 236 25V130C236 138.284 242.716 145 251 145H413C421.284 145 428 138.284 428 130V25C428 16.7157 421.284 10 413 10Z" fill="white"/>
<path d="M267.5 64.5879C269.433 64.5879 271 63.0209 271 61.0879C271 59.1549 269.433 57.5879 267.5 57.5879C265.567 57.5879 264 59.1549 264 61.0879C264 63.0209 265.567 64.5879 267.5 64.5879Z" fill="#4A85DF"/>
<path d="M267.5 88.9629C269.433 88.9629 271 87.3959 271 85.4629C271 83.5299 269.433 81.9629 267.5 81.9629C265.567 81.9629 264 83.5299 264 85.4629C264 87.3959 265.567 88.9629 267.5 88.9629Z" fill="#4A85DF"/>
<path d="M398 59.9102H295C293.895 59.9102 293 60.8056 293 61.9102V62.4102C293 63.5147 293.895 64.4102 295 64.4102H398C399.105 64.4102 400 63.5147 400 62.4102V61.9102C400 60.8056 399.105 59.9102 398 59.9102Z" fill="#D2D2D2"/>
<path d="M398 84.2852H295C293.895 84.2852 293 85.1806 293 86.2852V86.7852C293 87.8897 293.895 88.7852 295 88.7852H398C399.105 88.7852 400 87.8897 400 86.7852V86.2852C400 85.1806 399.105 84.2852 398 84.2852Z" fill="#D2D2D2"/>
<path d="M398 109H266C264.895 109 264 109.895 264 111V111.5C264 112.605 264.895 113.5 266 113.5H398C399.105 113.5 400 112.605 400 111.5V111C400 109.895 399.105 109 398 109Z" fill="#D2D2D2"/>
<path d="M398 25.0879H267C265.343 25.0879 264 26.431 264 28.0879V39.0879C264 40.7447 265.343 42.0879 267 42.0879H398C399.657 42.0879 401 40.7447 401 39.0879V28.0879C401 26.431 399.657 25.0879 398 25.0879Z" fill="#D2D2D2"/>
</g>
<path d="M113.781 158.611L112.695 159.752L187.219 230.703L188.305 229.562L113.781 158.611Z" fill="#D2D2D2"/>
<path d="M188.425 221.867L186.852 221.962L187.326 229.714L179.56 229.621L179.543 231.196L189.002 231.308L188.425 221.867Z" fill="#D2D2D2"/>
<path d="M121.457 158.113L121.44 159.689L113.674 159.595L114.149 167.347L112.575 167.442L112 158L121.457 158.113Z" fill="#D2D2D2"/>
<path d="M149.17 203.399C153.955 203.399 157.833 199.521 157.833 194.737C157.833 189.953 153.955 186.074 149.17 186.074C144.386 186.074 140.508 189.953 140.508 194.737C140.508 199.521 144.386 203.399 149.17 203.399Z" fill="#D2D2D2"/>
<path d="M242.609 231.219L243.75 232.305L314.701 157.781L313.56 156.695L242.609 231.219Z" fill="#D2D2D2"/>
<path d="M305.867 156.577L305.962 158.15L313.714 157.675L313.621 165.442L315.196 165.459L315.308 156L305.867 156.577Z" fill="#D2D2D2"/>
<path d="M242.113 223.543L243.689 223.56L243.595 231.326L251.347 230.851L251.442 232.425L242 233L242.113 223.543Z" fill="#D2D2D2"/>
<path d="M287.399 195.828C287.399 191.043 283.521 187.165 278.737 187.165C273.953 187.165 270.074 191.043 270.074 195.828C270.074 200.612 273.953 204.49 278.737 204.49C283.521 204.49 287.399 200.612 287.399 195.828Z" fill="#D2D2D2"/>
<defs>
<filter id="filter0_d" x="112" y="235" width="203" height="145" filterUnits="userSpaceOnUse" color-interpolation-filters="sRGB">
<feFlood flood-opacity="0" result="BackgroundImageFix"/>
<feColorMatrix in="SourceAlpha" type="matrix" values="0 0 0 0 0 0 0 0 0 0 0 0 0 0 0 0 0 0 127 0"/>
<feOffset dx="-7" dy="-6"/>
<feGaussianBlur stdDeviation="2"/>
<feColorMatrix type="matrix" values="0 0 0 0 0 0 0 0 0 0 0 0 0 0 0 0 0 0 0.1 0"/>
<feBlend mode="normal" in2="BackgroundImageFix" result="effect1_dropShadow"/>
<feBlend mode="normal" in="SourceGraphic" in2="effect1_dropShadow" result="shape"/>
</filter>
<filter id="filter1_d" x="0" y="0" width="203" height="145" filterUnits="userSpaceOnUse" color-interpolation-filters="sRGB">
<feFlood flood-opacity="0" result="BackgroundImageFix"/>
<feColorMatrix in="SourceAlpha" type="matrix" values="0 0 0 0 0 0 0 0 0 0 0 0 0 0 0 0 0 0 127 0"/>
<feOffset dx="-7" dy="-6"/>
<feGaussianBlur stdDeviation="2"/>
<feColorMatrix type="matrix" values="0 0 0 0 0 0 0 0 0 0 0 0 0 0 0 0 0 0 0.1 0"/>
<feBlend mode="normal" in2="BackgroundImageFix" result="effect1_dropShadow"/>
<feBlend mode="normal" in="SourceGraphic" in2="effect1_dropShadow" result="shape"/>
</filter>
<filter id="filter2_d" x="225" y="0" width="203" height="145" filterUnits="userSpaceOnUse" color-interpolation-filters="sRGB">
<feFlood flood-opacity="0" result="BackgroundImageFix"/>
<feColorMatrix in="SourceAlpha" type="matrix" values="0 0 0 0 0 0 0 0 0 0 0 0 0 0 0 0 0 0 127 0"/>
<feOffset dx="-7" dy="-6"/>
<feGaussianBlur stdDeviation="2"/>
<feColorMatrix type="matrix" values="0 0 0 0 0 0 0 0 0 0 0 0 0 0 0 0 0 0 0.1 0"/>
<feBlend mode="normal" in2="BackgroundImageFix" result="effect1_dropShadow"/>
<feBlend mode="normal" in="SourceGraphic" in2="effect1_dropShadow" result="shape"/>
</filter>
</defs>
</svg>
