<svg width="15" height="14" viewBox="0 0 15 14" xmlns="http://www.w3.org/2000/svg">
<path d="M12.6936 8.9596C12.6232 9.00858 11.163 10.5538 11.163 11.6382C11.163 12.7816 11.8892 13.5117 12.6936 13.5515C13.387 13.5852 14.2242 12.8696 14.2242 11.6382C14.2242 10.4902 12.764 9.00858 12.6936 8.9596ZM4.72356 13.5515C5.01285 13.8408 5.39704 14 5.80572 14C6.2144 14 6.59859 13.8408 6.88788 13.5515L12.2451 8.19428L11.704 7.6532L5.80572 1.75488L4.05084 0L2.96868 1.08216L4.72356 2.83704L0.448478 7.11212C0.159187 7.40141 0 7.7856 0 8.19428C0 8.60296 0.159187 8.98715 0.448478 9.27644L4.72356 13.5515ZM5.80572 3.9192L10.0808 8.19428H1.53064L5.80572 3.9192Z"/>
</svg>
