<svg width="25" height="25" viewBox="0 0 25 25" fill="none" xmlns="http://www.w3.org/2000/svg">
<path d="M6.24375 12.5C6.24375 15.9512 9.05125 18.7587 12.5025 18.7587C15.9537 18.7587 18.7613 15.9512 18.7613 12.5C18.7613 9.04875 15.9537 6.24125 12.5025 6.24125C9.05125 6.24125 6.24375 9.04875 6.24375 12.5ZM11.25 21.25H13.75V25H11.25V21.25ZM11.25 0H13.75V3.75H11.25V0ZM0 11.25H3.75V13.75H0V11.25ZM21.25 11.25H25V13.75H21.25V11.25Z" fill="#616161"/>
<path d="M4.54582 22.2225L2.77832 20.455L5.42957 17.8037L7.19707 19.5712L4.54582 22.2225Z" fill="#616161"/>
<path d="M17.8027 5.42984L20.4552 2.77734L22.2227 4.54484L19.5702 7.19734L17.8027 5.42984Z" fill="#616161"/>
<path d="M5.42957 7.19832L2.77832 4.54582L4.54707 2.77832L7.19707 5.43082L5.42957 7.19832Z" fill="#616161"/>
<path d="M22.2227 20.4552L20.4552 22.2227L17.8027 19.5702L19.5702 17.8027L22.2227 20.4552Z" fill="#616161"/>
</svg>
