<svg width="17" height="12" viewBox="0 0 17 12" fill="none" xmlns="http://www.w3.org/2000/svg">
<path d="M11.7 9.4C11.7 10.0896 11.4261 10.7509 10.9385 11.2385C10.4509 11.7261 9.78956 12 9.1 12H3.1C2.41044 12 1.74912 11.7261 1.26152 11.2385C0.773928 10.7509 0.5 10.0896 0.5 9.4V2.6C0.5 1.91044 0.773928 1.24912 1.26152 0.761522C1.74912 0.273928 2.41044 0 3.1 0H9.1C9.78956 0 10.4509 0.273928 10.9385 0.761522C11.4261 1.24912 11.7 1.91044 11.7 2.6V9.4ZM16.3096 1.1144C16.4326 1.25912 16.5001 1.44288 16.5 1.6328V10.3672C16.5001 10.52 16.4564 10.6696 16.3741 10.7983C16.2918 10.927 16.1744 11.0295 16.0358 11.0936C15.8971 11.1577 15.743 11.1808 15.5916 11.1601C15.4402 11.1394 15.298 11.0758 15.1816 10.9768L12.5 8.696V3.3024L15.1816 1.0232C15.2616 0.955095 15.3543 0.903429 15.4543 0.871153C15.5543 0.838877 15.6597 0.826624 15.7645 0.835093C15.8692 0.843562 15.9713 0.872589 16.0648 0.920513C16.1584 0.968438 16.2415 1.03432 16.3096 1.1144V1.1144Z" fill="black"/>
</svg>
