<svg width="21" height="12" viewBox="0 0 21 12" fill="none" xmlns="http://www.w3.org/2000/svg">
<path d="M10.5 0C14.5123 0 18.1508 2.10432 20.8357 5.52231C21.0548 5.80233 21.0548 6.19355 20.8357 6.47358C18.1508 9.89568 14.5123 12 10.5 12C6.48773 12 2.84919 9.89568 0.164315 6.47769C-0.0547706 6.19767 -0.0547706 5.80645 0.164315 5.52642C2.84919 2.10432 6.48773 0 10.5 0ZM10.2122 10.2251C12.8756 10.3857 15.075 8.2814 14.9075 5.72409C14.77 3.61565 12.9873 1.90666 10.7878 1.77488C8.12442 1.61428 5.92498 3.7186 6.09251 6.27591C6.23427 8.38023 8.01703 10.0892 10.2122 10.2251ZM10.3454 8.27316C11.7801 8.35964 12.9658 7.22718 12.8713 5.85175C12.7983 4.71517 11.836 3.79684 10.6504 3.72272C9.21556 3.63624 8.02992 4.7687 8.12442 6.14413C8.20175 7.28483 9.16401 8.20316 10.3454 8.27316Z" fill="#C4C4C4"/>
</svg>
