<svg width="31" height="28" viewBox="0 0 31 28" fill="none" xmlns="http://www.w3.org/2000/svg">
<path d="M15.4102 22H11.8945V14.6875H5.03906V22H1.52344V4.9375H5.03906V11.8516H11.8945V4.9375H15.4102V22Z" fill="#484848"/>
<path d="M29.8555 22H18.1602V19.6797L23.6797 13.7969C24.4375 12.9688 24.9961 12.2461 25.3555 11.6289C25.7227 11.0117 25.9062 10.4258 25.9062 9.87109C25.9062 9.11328 25.7148 8.51953 25.332 8.08984C24.9492 7.65234 24.4023 7.43359 23.6914 7.43359C22.9258 7.43359 22.3203 7.69922 21.875 8.23047C21.4375 8.75391 21.2188 9.44531 21.2188 10.3047H17.8203C17.8203 9.26562 18.0664 8.31641 18.5586 7.45703C19.0586 6.59766 19.7617 5.92578 20.668 5.44141C21.5742 4.94922 22.6016 4.70312 23.75 4.70312C25.5078 4.70312 26.8711 5.125 27.8398 5.96875C28.8164 6.8125 29.3047 8.00391 29.3047 9.54297C29.3047 10.3867 29.0859 11.2461 28.6484 12.1211C28.2109 12.9961 27.4609 14.0156 26.3984 15.1797L22.5195 19.2695H29.8555V22Z" fill="#484848"/>
</svg>
