<svg width="31" height="28" viewBox="0 0 31 28" fill="none" xmlns="http://www.w3.org/2000/svg">
<path d="M15.4102 22H11.8945V14.6875H5.03906V22H1.52344V4.9375H5.03906V11.8516H11.8945V4.9375H15.4102V22Z" fill="#484848"/>
<path d="M21.6055 11.9688H23.4102C24.2695 11.9688 24.9062 11.7539 25.3203 11.3242C25.7344 10.8945 25.9414 10.3242 25.9414 9.61328C25.9414 8.92578 25.7344 8.39062 25.3203 8.00781C24.9141 7.625 24.3516 7.43359 23.6328 7.43359C22.9844 7.43359 22.4414 7.61328 22.0039 7.97266C21.5664 8.32422 21.3477 8.78516 21.3477 9.35547H17.9609C17.9609 8.46484 18.1992 7.66797 18.6758 6.96484C19.1602 6.25391 19.832 5.69922 20.6914 5.30078C21.5586 4.90234 22.5117 4.70312 23.5508 4.70312C25.3555 4.70312 26.7695 5.13672 27.793 6.00391C28.8164 6.86328 29.3281 8.05078 29.3281 9.56641C29.3281 10.3477 29.0898 11.0664 28.6133 11.7227C28.1367 12.3789 27.5117 12.8828 26.7383 13.2344C27.6992 13.5781 28.4141 14.0938 28.8828 14.7812C29.3594 15.4688 29.5977 16.2812 29.5977 17.2188C29.5977 18.7344 29.043 19.9492 27.9336 20.8633C26.832 21.7773 25.3711 22.2344 23.5508 22.2344C21.8477 22.2344 20.4531 21.7852 19.3672 20.8867C18.2891 19.9883 17.75 18.8008 17.75 17.3242H21.1367C21.1367 17.9648 21.375 18.4883 21.8516 18.8945C22.3359 19.3008 22.9297 19.5039 23.6328 19.5039C24.4375 19.5039 25.0664 19.293 25.5195 18.8711C25.9805 18.4414 26.2109 17.875 26.2109 17.1719C26.2109 15.4688 25.2734 14.6172 23.3984 14.6172H21.6055V11.9688Z" fill="#484848"/>
</svg>
