<svg width="20" height="20" viewBox="0 0 20 20" fill="none" xmlns="http://www.w3.org/2000/svg">
<path d="M9.05853 9.1846C10.1602 9.1846 11.0567 8.2883 11.0567 7.18662C11.0567 6.08478 10.1602 5.18848 9.05853 5.18848C7.95685 5.18848 7.06055 6.08478 7.06055 7.18662C7.06055 8.2883 7.95685 9.1846 9.05853 9.1846V9.1846ZM9.05853 6.36035C9.51416 6.36035 9.8848 6.73099 9.8848 7.18662C9.8848 7.64209 9.51416 8.01273 9.05853 8.01273C8.60306 8.01273 8.23242 7.64209 8.23242 7.18662C8.23242 6.73099 8.60306 6.36035 9.05853 6.36035Z" fill="#484848"/>
<path d="M19.2697 1.44531H0.730286C0.327606 1.44531 0 1.77292 0 2.1756V17.868C0 18.2707 0.327606 18.5983 0.730286 18.5983H19.2697C19.6724 18.5983 20 18.2707 20 17.868V2.1756C20 1.77292 19.6724 1.44531 19.2697 1.44531ZM18.8281 2.61719V11.8909L15.1425 8.20511C14.9022 7.96524 14.5114 7.96539 14.2712 8.20557L9.05869 13.4181L5.72906 10.0887C5.61264 9.97208 5.45776 9.90784 5.29297 9.90784C5.12833 9.90784 4.9736 9.97192 4.85718 10.0883L1.17188 13.7737V2.61719H18.8281ZM1.17188 17.4265V15.4309L5.29297 11.3098L8.62244 14.6393C8.73901 14.7559 8.89389 14.8203 9.05869 14.8203C9.22318 14.8203 9.37805 14.756 9.49432 14.6396L14.707 9.42688L18.8283 13.5481V17.4265H1.17188Z" fill="#484848"/>
</svg>
