<svg width="20" height="20" viewBox="0 0 20 20" fill="none" xmlns="http://www.w3.org/2000/svg">
<g clip-path="url(#clip0)">
<path d="M6.43994 3.37744H19.0539C19.5764 3.37744 20 2.95387 20 2.4314C20 1.90893 19.5764 1.48535 19.0539 1.48535H6.43994C5.91747 1.48535 5.4939 1.90893 5.4939 2.4314C5.4939 2.95387 5.91747 3.37744 6.43994 3.37744Z" fill="#484848"/>
<path d="M19.0539 9.05371H6.43994C5.91747 9.05371 5.4939 9.47729 5.4939 9.99976C5.4939 10.5222 5.91747 10.9458 6.43994 10.9458H19.0539C19.5764 10.9458 20 10.5222 20 9.99976C20 9.47722 19.5764 9.05371 19.0539 9.05371Z" fill="#484848"/>
<path d="M19.0539 16.6221H6.43994C5.91747 16.6221 5.4939 17.0456 5.4939 17.5681C5.4939 18.0906 5.91747 18.5142 6.43994 18.5142H19.0539C19.5764 18.5142 20 18.0906 20 17.5681C20 17.0456 19.5764 16.6221 19.0539 16.6221Z" fill="#484848"/>
<path d="M1.12431 3.09282V5.46198C1.12431 5.71892 1.3337 5.91268 1.61146 5.91268C1.88455 5.91268 2.09842 5.7147 2.09842 5.46198V1.91909C2.09842 1.66934 1.89364 1.47363 1.63221 1.47363C1.40226 1.47363 1.28722 1.6279 1.24944 1.67861C1.24786 1.68075 1.24629 1.6829 1.24471 1.68517L0.833118 2.26743C0.753209 2.35434 0.682129 2.49335 0.682129 2.62667C0.682066 2.88085 0.879727 3.08816 1.12431 3.09282Z" fill="#484848"/>
<path d="M0.481329 12.2193H2.33596C2.57872 12.2193 2.77625 12.0054 2.77625 11.7426C2.77625 11.4825 2.57878 11.2709 2.33596 11.2709H0.989293V11.2631C0.989293 11.1215 1.31398 10.8924 1.5749 10.7083C2.0939 10.342 2.7398 9.8863 2.7398 9.09591C2.7398 8.34582 2.15855 7.78027 1.38771 7.78027C0.649599 7.78027 0.0930707 8.28761 0.0930707 8.96037C0.0930707 9.35077 0.347179 9.48934 0.56477 9.48934C0.876209 9.48934 1.06233 9.25743 1.06233 9.03334C1.06233 8.89402 1.09815 8.73408 1.3773 8.73408C1.75439 8.73408 1.76524 9.06822 1.76524 9.10632C1.76524 9.40665 1.37547 9.68744 0.998502 9.95896C0.532541 10.2946 0.00439454 10.675 0.00439454 11.2632V11.7686C0.00433147 12.0382 0.250998 12.2193 0.481329 12.2193Z" fill="#484848"/>
<path d="M2.67712 15.3127C2.67712 14.5343 2.21747 14.0879 1.41611 14.0879C0.365363 14.0879 0.0877301 14.8383 0.0877301 15.2351C0.0877301 15.697 0.431145 15.7469 0.578792 15.7469C0.866327 15.7469 1.05945 15.5537 1.05945 15.2662C1.05945 15.1555 1.0988 15.0286 1.40551 15.0286C1.62594 15.0286 1.71569 15.0604 1.71569 15.3798C1.71569 15.6918 1.64871 15.7258 1.38489 15.7258C1.13147 15.7258 0.940434 15.9258 0.940434 16.191C0.940434 16.4533 1.13381 16.6511 1.39018 16.6511C1.73865 16.6511 1.80865 16.7934 1.80865 17.023V17.1214C1.80865 17.5077 1.65798 17.581 1.3799 17.581C0.996251 17.581 0.966419 17.3834 0.966419 17.3229C0.966419 17.0939 0.81461 16.8628 0.47542 16.8628C0.177731 16.8628 0 17.0483 0 17.3591C0 17.9252 0.485385 18.5269 1.38489 18.5269C2.25866 18.5269 2.78037 18.0014 2.78037 17.1214V17.023C2.78037 16.6622 2.66495 16.363 2.44837 16.1479C2.59671 15.9333 2.67712 15.6469 2.67712 15.3127Z" fill="#484848"/>
</g>
<defs>
<clipPath id="clip0">
<rect width="20" height="20" fill="white"/>
</clipPath>
</defs>
</svg>
