<svg width="18" height="18" viewBox="0 0 18 18" fill="none" xmlns="http://www.w3.org/2000/svg">
<g clip-path="url(#clip0)">
<path d="M17.9958 8.70723C17.8448 3.97877 14.0226 0.156701 9.29423 0.00569875C6.72138 -0.075931 4.31431 0.903374 2.53538 2.74004C0.825203 4.5057 -0.0733566 6.83341 0.00524054 9.29469C0.156117 14.023 3.97831 17.8452 8.70665 17.9961C8.80508 17.9993 8.90263 18.0008 9.00044 18.0008C11.4587 18.0008 13.7547 17.028 15.4655 15.2618C17.1757 13.4962 18.0744 11.1684 17.9958 8.70723ZM14.1041 13.9432C12.7535 15.3376 10.941 16.1055 9.00044 16.1055C8.92285 16.1055 8.84527 16.1042 8.76705 16.1018C5.03533 15.9826 2.01882 12.9661 1.89953 9.23429C1.83749 7.29059 2.54676 5.45253 3.89681 4.05876C5.24736 2.66435 7.0599 1.89645 9.00044 1.89645C9.07802 1.89645 9.15561 1.89772 9.23383 1.90012C12.9655 2.01928 15.9821 5.03579 16.1013 8.76763C16.1634 10.7113 15.454 12.5494 14.1041 13.9432Z" fill="#484848"/>
<path d="M11.952 8.47741L7.96098 5.61582C7.53526 5.31053 6.94263 5.61481 6.94263 6.13871V11.862C6.94263 12.3859 7.53526 12.6902 7.96098 12.3849L11.9519 9.52318C12.31 9.26654 12.31 8.73418 11.952 8.47741Z" fill="#484848"/>
</g>
<defs>
<clipPath id="clip0">
<rect width="18" height="18" fill="white"/>
</clipPath>
</defs>
</svg>
