<svg width="20" height="20" viewBox="0 0 20 20" fill="none" xmlns="http://www.w3.org/2000/svg">
<path d="M2.5 0.625C1.12125 0.625 0 1.74625 0 3.125C0 4.50375 1.12125 5.625 2.5 5.625C3.87875 5.625 5 4.50375 5 3.125C5 1.74625 3.87875 0.625 2.5 0.625ZM2.5 4.375C1.81062 4.375 1.25 3.81438 1.25 3.125C1.25 2.43562 1.81062 1.875 2.5 1.875C3.18938 1.875 3.75 2.43562 3.75 3.125C3.75 3.81438 3.18938 4.375 2.5 4.375Z" fill="#484848"/>
<path d="M2.5 7.5C1.12125 7.5 0 8.62125 0 10C0 11.3788 1.12125 12.5 2.5 12.5C3.87875 12.5 5 11.3788 5 10C5 8.62125 3.87875 7.5 2.5 7.5ZM2.5 11.25C1.81062 11.25 1.25 10.6894 1.25 10C1.25 9.31062 1.81062 8.75 2.5 8.75C3.18938 8.75 3.75 9.31062 3.75 10C3.75 10.6894 3.18938 11.25 2.5 11.25Z" fill="#484848"/>
<path d="M2.5 14.375C1.12125 14.375 0 15.4962 0 16.875C0 18.2538 1.12125 19.375 2.5 19.375C3.87875 19.375 5 18.2538 5 16.875C5 15.4962 3.87875 14.375 2.5 14.375ZM2.5 18.125C1.81062 18.125 1.25 17.5644 1.25 16.875C1.25 16.1856 1.81062 15.625 2.5 15.625C3.18938 15.625 3.75 16.1856 3.75 16.875C3.75 17.5644 3.18938 18.125 2.5 18.125Z" fill="#484848"/>
<path d="M11.25 1.25H7.5V2.5H11.25V1.25Z" fill="#484848"/>
<path d="M20 3.75H7.5V5H20V3.75Z" fill="#484848"/>
<path d="M11.25 8.125H7.5V9.375H11.25V8.125Z" fill="#484848"/>
<path d="M20 10.625H7.5V11.875H20V10.625Z" fill="#484848"/>
<path d="M11.25 15H7.5V16.25H11.25V15Z" fill="#484848"/>
<path d="M20 17.5H7.5V18.75H20V17.5Z" fill="#484848"/>
</svg>
