<svg width="7" height="7" viewBox="0 0 7 7" fill="none" xmlns="http://www.w3.org/2000/svg">
<path fill-rule="evenodd" clip-rule="evenodd" d="M0.161102 0.161041C-0.0536804 0.375824 -0.0536804 0.724091 0.161102 0.938873L2.4946 3.27237L0.161041 5.60593C-0.0536804 5.82071 -0.0536804 6.16898 0.161041 6.3837C0.375824 6.59848 0.724091 6.59848 0.938873 6.3837L3.27243 4.0502L5.6055 6.38327C5.82028 6.59805 6.16855 6.59805 6.38327 6.38327C6.59805 6.16849 6.59805 5.82028 6.38327 5.6055L4.0502 3.27237L6.38327 0.939301C6.59805 0.724518 6.59805 0.376251 6.38327 0.16153C6.16849 -0.0532532 5.82028 -0.0532532 5.6055 0.16153L3.27243 2.4946L0.938873 0.161041C0.724091 -0.0536804 0.375824 -0.0536804 0.161102 0.161041Z" fill="#868686"/>
</svg>
