<svg width="47" height="32" viewBox="0 0 47 32" fill="none" xmlns="http://www.w3.org/2000/svg">
<path d="M44.5673 3.08364C43.3047 0.837818 41.9345 0.424727 39.1447 0.267636C36.3578 0.0785455 29.3498 0 23.2785 0C17.1956 0 10.1847 0.0785457 7.40073 0.264728C4.61673 0.424728 3.24364 0.834909 1.96945 3.08364C0.669091 5.32655 0 9.18982 0 15.9913C0 15.9971 0 16 0 16C0 16.0058 0 16.0087 0 16.0087V16.0145C0 22.7869 0.669091 26.6793 1.96945 28.8989C3.24364 31.1447 4.61382 31.552 7.39782 31.7411C10.1847 31.904 17.1956 32 23.2785 32C29.3498 32 36.3578 31.904 39.1476 31.744C41.9375 31.5549 43.3076 31.1476 44.5702 28.9018C45.8822 26.6822 46.5455 22.7898 46.5455 16.0175C46.5455 16.0175 46.5455 16.0087 46.5455 16.0029C46.5455 16.0029 46.5455 15.9971 46.5455 15.9942C46.5455 9.18982 45.8822 5.32655 44.5673 3.08364ZM17.4545 24.7273V7.27273L32 16L17.4545 24.7273Z" fill="#C4C4C4"/>
</svg>
