<svg width="404" height="291" viewBox="0 0 404 291" fill="none" xmlns="http://www.w3.org/2000/svg">
<g filter="url(#filter0_d)">
<path d="M52.5391 99.7434L186.59 77.9297V204.843L59.2242 198.175L52.5391 99.7434Z" fill="#4A85DF"/>
<path opacity="0.05" d="M52.5391 99.7434L186.59 77.9297V204.843L59.2242 198.175L52.5391 99.7434Z" fill="black"/>
<path d="M186.59 77.9297L347.346 89.9595L338.45 200.404L186.59 204.843V77.9297Z" fill="#4A85DF"/>
<path opacity="0.1" d="M186.59 77.9297L347.346 89.9595L338.45 200.404L186.59 204.843V77.9297Z" fill="black"/>
<path d="M236.015 39.1973L186.59 77.9328L347.347 89.9625L373.617 50.3218L236.015 39.1973Z" fill="#4A85DF"/>
<path d="M4 57.4414L124.681 42.748L186.588 77.932L52.5369 99.7458L4 57.4414Z" fill="#4A85DF"/>
<path d="M170.601 76.7651L134.662 35.0496C129.255 28.7734 120.488 28.7734 115.08 35.0496L78.0457 78.0361C72.6385 84.3123 72.6385 94.4881 78.0457 100.764L113.985 142.48C119.393 148.756 128.159 148.756 133.567 142.48L170.601 99.4933C176.009 93.217 176.009 83.0413 170.601 76.7651Z" fill="#DFDFDF"/>
<g filter="url(#filter1_d)">
<path d="M185.884 108.391L122.406 34.7118C116.999 28.4355 108.232 28.4355 102.825 34.7118L71.2653 71.3429C65.858 77.6191 65.858 87.7948 71.2653 94.0711L134.743 167.751C140.151 174.027 148.917 174.027 154.325 167.751L185.884 131.119C191.291 124.843 191.291 114.667 185.884 108.391Z" fill="white"/>
</g>
<path d="M105.723 63.0903C106.534 64.0317 107.849 64.0317 108.66 63.0903C109.471 62.1489 109.471 60.6226 108.66 59.6812C107.849 58.7397 106.534 58.7397 105.723 59.6812C104.912 60.6226 104.912 62.1489 105.723 63.0903Z" fill="#4A85DF"/>
<path d="M96.5686 73.7155C97.3796 74.657 98.6946 74.657 99.5057 73.7155C100.317 72.7741 100.317 71.2477 99.5057 70.3062C98.6946 69.3648 97.3796 69.3648 96.5686 70.3062C95.7575 71.2477 95.7575 72.7741 96.5686 73.7155Z" fill="#4A85DF"/>
<path d="M87.0782 84.7328C87.8893 85.6742 89.2044 85.6742 90.0155 84.7328C90.8267 83.7914 90.8267 82.2651 90.0155 81.3237C89.2044 80.3823 87.8893 80.3823 87.0782 81.3237C86.2671 82.2651 86.2671 83.7914 87.0782 84.7328Z" fill="#4A85DF"/>
<path d="M164.827 127.235L118.721 73.7188L117.026 75.6863L163.132 129.203L164.827 127.235Z" fill="#D2D2D2"/>
<path d="M155.669 137.858L109.562 84.3418L107.867 86.3093L153.974 139.825L155.669 137.858Z" fill="#D2D2D2"/>
<path d="M146.857 148.09L100.75 94.5742L98.7159 96.9352L144.823 150.451L146.857 148.09Z" fill="#D2D2D2"/>
<path d="M161.483 93.4457L121.015 46.474C119.933 45.2188 118.18 45.2187 117.099 46.474L114.573 49.4048C113.492 50.6601 113.492 52.6952 114.573 53.9505L155.041 100.922C156.123 102.177 157.876 102.177 158.958 100.922L161.483 97.9914C162.564 96.7361 162.564 94.701 161.483 93.4457Z" fill="#D2D2D2"/>
<path d="M334.984 88.5379L286.687 32.4793C281.28 26.2031 272.513 26.2031 267.106 32.4793L230.071 75.4657C224.664 81.7419 224.664 91.9176 230.071 98.1938L278.368 154.252C283.775 160.529 292.542 160.529 297.95 154.252L334.984 111.266C340.391 104.99 340.391 94.8141 334.984 88.5379Z" fill="#DFDFDF"/>
<g filter="url(#filter2_d)">
<path d="M336.884 104.153L273.406 30.4735C267.999 24.1973 259.232 24.1972 253.825 30.4735L216.79 73.4598C211.383 79.736 211.383 89.9118 216.79 96.188L280.268 169.867C285.675 176.144 294.442 176.144 299.849 169.867L336.884 126.881C342.291 120.605 342.291 110.429 336.884 104.153Z" fill="white"/>
</g>
<path d="M256.725 58.852C257.536 59.7935 258.851 59.7935 259.662 58.852C260.473 57.9106 260.473 56.3843 259.662 55.4429C258.851 54.5015 257.536 54.5015 256.725 55.4429C255.914 56.3843 255.914 57.9106 256.725 58.852Z" fill="#4A85DF"/>
<path d="M247.569 69.4754C248.38 70.4168 249.695 70.4168 250.506 69.4754C251.317 68.5339 251.317 67.0075 250.506 66.066C249.695 65.1245 248.38 65.1245 247.569 66.066C246.758 67.0075 246.758 68.5339 247.569 69.4754Z" fill="#4A85DF"/>
<path d="M238.078 80.4946C238.889 81.436 240.204 81.436 241.016 80.4946C241.827 79.5532 241.827 78.0269 241.016 77.0854C240.204 76.144 238.889 76.144 238.078 77.0854C237.267 78.0269 237.267 79.5532 238.078 80.4946Z" fill="#4A85DF"/>
<path d="M315.827 122.995L269.721 69.4785L268.026 71.446L314.132 124.962L315.827 122.995Z" fill="#D2D2D2"/>
<path d="M306.671 133.619L260.564 80.1035L258.869 82.071L304.976 135.587L306.671 133.619Z" fill="#D2D2D2"/>
<path d="M297.855 143.85L251.748 90.334L249.714 92.695L295.821 146.211L297.855 143.85Z" fill="#D2D2D2"/>
<path d="M312.481 89.2094L272.013 42.2377C270.931 40.9824 269.178 40.9824 268.097 42.2377L265.572 45.1685C264.49 46.4238 264.49 48.4589 265.572 49.7142L306.04 96.6859C307.121 97.9411 308.874 97.9411 309.956 96.6859L312.481 93.755C313.562 92.4998 313.562 90.4646 312.481 89.2094Z" fill="#D2D2D2"/>
<g filter="url(#filter3_d)">
<path d="M273.882 92.4497L210.404 18.7703C204.997 12.4941 196.23 12.4941 190.823 18.7703L153.797 61.7458C148.39 68.022 148.39 78.1978 153.797 84.474L217.275 158.153C222.683 164.43 231.45 164.43 236.857 158.153L273.882 115.178C279.289 108.902 279.289 98.7259 273.882 92.4497Z" fill="#DFDFDF"/>
<g filter="url(#filter4_d)">
<path d="M261.982 91.4497L198.504 17.7703C193.096 11.4941 184.329 11.4941 178.922 17.7703L147.238 54.546C141.831 60.8222 141.831 70.998 147.238 77.2742L210.716 150.954C216.124 157.23 224.891 157.23 230.298 150.954L261.982 114.178C267.389 107.902 267.389 97.7259 261.982 91.4497Z" fill="white"/>
</g>
<path d="M181.704 46.2734C182.516 47.2149 183.856 47.1852 184.699 46.2073C185.541 45.2293 185.567 43.6733 184.756 42.7319C183.945 41.7905 182.604 41.8201 181.761 42.7981C180.919 43.7761 180.893 45.332 181.704 46.2734Z" fill="#4A85DF"/>
<path d="M172.554 56.9006C173.365 57.8421 174.706 57.8125 175.548 56.8345C176.391 55.8565 176.416 54.3004 175.605 53.359C174.794 52.4175 173.454 52.4471 172.611 53.4251C171.769 54.4031 171.743 55.9592 172.554 56.9006Z" fill="#4A85DF"/>
<path d="M163.064 67.9141C163.875 68.8555 165.216 68.8259 166.058 67.8479C166.901 66.8699 166.926 65.314 166.115 64.3726C165.304 63.4311 163.963 63.4608 163.121 64.4387C162.278 65.4167 162.253 66.9727 163.064 67.9141Z" fill="#4A85DF"/>
<path d="M240.922 110.288L194.816 56.7715L193.121 58.739L239.227 112.255L240.922 110.288Z" fill="#D2D2D2"/>
<path d="M231.769 120.909L185.662 67.3926L183.967 69.3601L230.074 122.876L231.769 120.909Z" fill="#D2D2D2"/>
<path d="M222.956 131.141L176.85 77.625L174.815 79.986L220.922 133.502L222.956 131.141Z" fill="#D2D2D2"/>
<path d="M237.577 76.5003L197.109 29.5287C196.027 28.2734 194.274 28.2734 193.192 29.5287L190.668 32.4583C189.587 33.7135 189.587 35.7487 190.668 37.0039L231.136 83.9755C232.218 85.2308 233.971 85.2308 235.053 83.9756L237.577 81.046C238.658 79.7907 238.658 77.7556 237.577 76.5003Z" fill="#D2D2D2"/>
</g>
<path d="M215.977 110.886V284.404L153.182 277.962L125.867 275.177L117.545 274.306L90.2474 271.503L52.5391 267.639V99.7441L186.573 108.867L215.977 110.886Z" fill="#4A85DF"/>
<path d="M347.345 89.9629V259.18L297.015 268.843L272.537 273.543L215.975 284.406V110.889L347.345 89.9629Z" fill="#4A85DF"/>
<path opacity="0.05" d="M347.345 89.9629V259.18L297.015 268.843L272.537 273.543L215.975 284.406V110.889L347.345 89.9629Z" fill="black"/>
<path d="M4 136.269L52.5369 99.7441L215.975 110.886L191.915 151.415L4 136.269Z" fill="#4A85DF"/>
<path opacity="0.1" d="M4 136.269L52.5369 99.7441L215.975 110.886L191.915 151.415L4 136.269Z" fill="white"/>
<path d="M347.345 89.9629L215.975 110.889L258.732 149.189L399.45 125.582L347.345 89.9629Z" fill="#4A85DF"/>
<path opacity="0.1" d="M347.345 89.9629L215.975 110.889L258.732 149.189L399.45 125.582L347.345 89.9629Z" fill="white"/>
<path opacity="0.1" d="M297.015 268.84L272.537 273.54V237.381L295.465 231.602L297.015 268.84Z" fill="white"/>
<path opacity="0.1" d="M153.178 254.043V277.963L125.863 275.178V254.043H153.178Z" fill="white"/>
<path opacity="0.1" d="M117.542 261.58V274.306L90.2441 271.503V261.58H117.542Z" fill="white"/>
</g>
<defs>
<filter id="filter0_d" x="0" y="11.0625" width="403.45" height="279.344" filterUnits="userSpaceOnUse" color-interpolation-filters="sRGB">
<feFlood flood-opacity="0" result="BackgroundImageFix"/>
<feColorMatrix in="SourceAlpha" type="matrix" values="0 0 0 0 0 0 0 0 0 0 0 0 0 0 0 0 0 0 127 0" result="hardAlpha"/>
<feOffset dy="2"/>
<feGaussianBlur stdDeviation="2"/>
<feComposite in2="hardAlpha" operator="out"/>
<feColorMatrix type="matrix" values="0 0 0 0 0 0 0 0 0 0 0 0 0 0 0 0 0 0 0.25 0"/>
<feBlend mode="normal" in2="BackgroundImageFix" result="effect1_dropShadow"/>
<feBlend mode="normal" in="SourceGraphic" in2="effect1_dropShadow" result="shape"/>
</filter>
<filter id="filter1_d" x="63.209" y="26.0039" width="130.73" height="150.453" filterUnits="userSpaceOnUse" color-interpolation-filters="sRGB">
<feFlood flood-opacity="0" result="BackgroundImageFix"/>
<feColorMatrix in="SourceAlpha" type="matrix" values="0 0 0 0 0 0 0 0 0 0 0 0 0 0 0 0 0 0 127 0" result="hardAlpha"/>
<feOffset/>
<feGaussianBlur stdDeviation="2"/>
<feColorMatrix type="matrix" values="0 0 0 0 0 0 0 0 0 0 0 0 0 0 0 0 0 0 0.1 0"/>
<feBlend mode="normal" in2="BackgroundImageFix" result="effect1_dropShadow"/>
<feBlend mode="normal" in="SourceGraphic" in2="effect1_dropShadow" result="shape"/>
</filter>
<filter id="filter2_d" x="208.734" y="21.7656" width="136.205" height="156.808" filterUnits="userSpaceOnUse" color-interpolation-filters="sRGB">
<feFlood flood-opacity="0" result="BackgroundImageFix"/>
<feColorMatrix in="SourceAlpha" type="matrix" values="0 0 0 0 0 0 0 0 0 0 0 0 0 0 0 0 0 0 127 0" result="hardAlpha"/>
<feOffset/>
<feGaussianBlur stdDeviation="2"/>
<feColorMatrix type="matrix" values="0 0 0 0 0 0 0 0 0 0 0 0 0 0 0 0 0 0 0.1 0"/>
<feBlend mode="normal" in2="BackgroundImageFix" result="effect1_dropShadow"/>
<feBlend mode="normal" in="SourceGraphic" in2="effect1_dropShadow" result="shape"/>
</filter>
<filter id="filter3_d" x="139.184" y="9.0625" width="142.754" height="157.797" filterUnits="userSpaceOnUse" color-interpolation-filters="sRGB">
<feFlood flood-opacity="0" result="BackgroundImageFix"/>
<feColorMatrix in="SourceAlpha" type="matrix" values="0 0 0 0 0 0 0 0 0 0 0 0 0 0 0 0 0 0 127 0" result="hardAlpha"/>
<feOffset/>
<feGaussianBlur stdDeviation="2"/>
<feColorMatrix type="matrix" values="0 0 0 0 0 0 0 0 0 0 0 0 0 0 0 0 0 0 0.1 0"/>
<feBlend mode="normal" in2="BackgroundImageFix" result="effect1_dropShadow"/>
<feBlend mode="normal" in="SourceGraphic" in2="effect1_dropShadow" result="shape"/>
</filter>
<filter id="filter4_d" x="139.184" y="9.0625" width="130.854" height="150.598" filterUnits="userSpaceOnUse" color-interpolation-filters="sRGB">
<feFlood flood-opacity="0" result="BackgroundImageFix"/>
<feColorMatrix in="SourceAlpha" type="matrix" values="0 0 0 0 0 0 0 0 0 0 0 0 0 0 0 0 0 0 127 0" result="hardAlpha"/>
<feOffset/>
<feGaussianBlur stdDeviation="2"/>
<feColorMatrix type="matrix" values="0 0 0 0 0 0 0 0 0 0 0 0 0 0 0 0 0 0 0.1 0"/>
<feBlend mode="normal" in2="BackgroundImageFix" result="effect1_dropShadow"/>
<feBlend mode="normal" in="SourceGraphic" in2="effect1_dropShadow" result="shape"/>
</filter>
</defs>
</svg>
