<svg width="9" height="12" viewBox="0 0 9 12" xmlns="http://www.w3.org/2000/svg">
<path d="M8.9 4.2V4.8C8.89882 5.80911 8.53436 6.78406 7.87329 7.54648C7.21223 8.30891 6.29876 8.80784 5.3 8.952V10.8H7.1V12H2.3V10.8H4.1V8.952C3.10124 8.80784 2.18777 8.30891 1.52671 7.54648C0.865644 6.78406 0.501183 5.80911 0.5 4.8V4.2H1.7V4.8C1.7 5.59565 2.01607 6.35871 2.57868 6.92132C3.14129 7.48393 3.90435 7.8 4.7 7.8C5.49565 7.8 6.25871 7.48393 6.82132 6.92132C7.38393 6.35871 7.7 5.59565 7.7 4.8V4.2H8.9ZM4.7 6.6C5.17739 6.6 5.63523 6.41036 5.97279 6.07279C6.31036 5.73523 6.5 5.27739 6.5 4.8V1.8C6.5 1.32261 6.31036 0.864773 5.97279 0.527208C5.63523 0.189642 5.17739 0 4.7 0C4.22261 0 3.76477 0.189642 3.42721 0.527208C3.08964 0.864773 2.9 1.32261 2.9 1.8V4.8C2.9 5.27739 3.08964 5.73523 3.42721 6.07279C3.76477 6.41036 4.22261 6.6 4.7 6.6Z"/>
</svg>
