<svg width="19" height="16" viewBox="0 0 19 16" xmlns="http://www.w3.org/2000/svg">
<path d="M9.36849 0C4.1833 0 0.0351562 3.55556 0.0351562 8C0.0351562 12.4444 4.1833 16 9.36849 16C10.1981 16 10.924 15.3778 10.924 14.6667C10.924 14.3111 10.8203 14.0444 10.5092 13.7778C10.3018 13.5111 10.0944 13.2444 10.0944 12.8889C10.0944 12.1778 10.8204 11.5556 11.65 11.5556H13.5166C16.4203 11.5556 18.7018 9.6 18.7018 7.11111C18.7018 3.2 14.5537 0 9.36849 0ZM3.66479 8C2.83516 8 2.10923 7.37778 2.10923 6.66667C2.10923 5.95556 2.83516 5.33333 3.66479 5.33333C4.49442 5.33333 5.22034 5.95556 5.22034 6.66667C5.22034 7.37778 4.49442 8 3.66479 8ZM6.7759 4.44444C5.94627 4.44444 5.22034 3.82222 5.22034 3.11111C5.22034 2.4 5.94627 1.77778 6.7759 1.77778C7.60553 1.77778 8.33145 2.4 8.33145 3.11111C8.33145 3.82222 7.60553 4.44444 6.7759 4.44444ZM11.9611 4.44444C11.1315 4.44444 10.4055 3.82222 10.4055 3.11111C10.4055 2.4 11.1315 1.77778 11.9611 1.77778C12.7907 1.77778 13.5166 2.4 13.5166 3.11111C13.5166 3.82222 12.7907 4.44444 11.9611 4.44444ZM15.0722 8C14.2426 8 13.5166 7.37778 13.5166 6.66667C13.5166 5.95556 14.2426 5.33333 15.0722 5.33333C15.9018 5.33333 16.6277 5.95556 16.6277 6.66667C16.6277 7.37778 15.9018 8 15.0722 8Z"/>
</svg>
