<svg width="289" height="203" viewBox="0 0 289 203" fill="none" xmlns="http://www.w3.org/2000/svg">
<path d="M279 0H11C5.47715 0 1 4.47715 1 9.99999V40.6976C1 46.2205 5.47715 50.6976 11 50.6976H279C284.523 50.6976 289 46.2205 289 40.6976V10C289 4.47715 284.523 0 279 0Z" fill="white"/>
<path d="M191.716 20H25C23.3431 20 22 21.3431 22 23V27.3114C22 28.9682 23.3431 30.3114 25 30.3114H191.716C193.372 30.3114 194.716 28.9682 194.716 27.3114V23C194.716 21.3431 193.372 20 191.716 20Z" fill="#D2D2D2"/>
<path d="M229.245 25.292C228.4 24.097 226.809 22.6747 224.003 22.5527V20.3401C224.003 20.2098 223.939 20.0878 223.836 20.0323C223.733 19.9769 223.612 19.9935 223.526 20.0767L219.107 24.3105C219.041 24.3743 219 24.4713 219 24.5711C219 24.6737 219.038 24.768 219.105 24.8318L223.524 29.0823C223.612 29.1654 223.731 29.1848 223.834 29.1266C223.936 29.0712 224.001 28.9519 224.001 28.8189V26.6146C225.833 26.6229 228.634 26.781 230.12 29.8281C230.173 29.9362 230.271 30 230.376 30C230.399 30 230.426 29.9972 230.45 29.9889C230.578 29.9501 230.667 29.8142 230.667 29.6617C230.669 28.5222 230.294 26.7782 229.245 25.292Z" fill="#4A85DF"/>
<path d="M266.727 20.3431L261.07 26L266.727 31.6569L272.384 26L266.727 20.3431Z" fill="#4A85DF"/>
<line x1="246.57" y1="15" x2="246.57" y2="35" stroke="#C6C6C6"/>
<path d="M278 75.6973H10C4.47715 75.6973 0 80.1744 0 85.6973V116.395C0 121.918 4.47715 126.395 10 126.395H278C283.523 126.395 288 121.918 288 116.395V85.6973C288 80.1744 283.523 75.6973 278 75.6973Z" fill="white"/>
<path d="M190.716 95.6973H24C22.3431 95.6973 21 97.0404 21 98.6973V103.009C21 104.665 22.3431 106.009 24 106.009H190.716C192.372 106.009 193.716 104.665 193.716 103.009V98.6973C193.716 97.0404 192.372 95.6973 190.716 95.6973Z" fill="#D2D2D2"/>
<path d="M265.727 96.0404L260.07 101.697L265.727 107.354L271.384 101.697L265.727 96.0404Z" fill="#4A85DF"/>
<line x1="245.57" y1="90.6973" x2="245.57" y2="110.697" stroke="#C6C6C6"/>
<path d="M228.245 100.989C227.4 99.7943 225.809 98.3719 223.003 98.2499V96.0373C223.003 95.907 222.939 95.785 222.836 95.7296C222.733 95.6741 222.612 95.6908 222.526 95.7739L218.107 100.008C218.041 100.072 218 100.169 218 100.268C218 100.371 218.038 100.465 218.105 100.529L222.524 104.78C222.612 104.863 222.731 104.882 222.834 104.824C222.936 104.768 223.001 104.649 223.001 104.516V102.312C224.833 102.32 227.634 102.478 229.12 105.525C229.173 105.633 229.271 105.697 229.376 105.697C229.399 105.697 229.426 105.694 229.45 105.686C229.578 105.647 229.667 105.511 229.667 105.359C229.669 104.219 229.294 102.475 228.245 100.989Z" fill="#4A85DF"/>
<path d="M278 151.395H10C4.47715 151.395 0 155.872 0 161.395V192.092C0 197.615 4.47715 202.092 10 202.092H278C283.523 202.092 288 197.615 288 192.092V161.395C288 155.872 283.523 151.395 278 151.395Z" fill="white"/>
<path d="M190.716 171.395H24C22.3431 171.395 21 172.738 21 174.395V178.706C21 180.363 22.3431 181.706 24 181.706H190.716C192.372 181.706 193.716 180.363 193.716 178.706V174.395C193.716 172.738 192.372 171.395 190.716 171.395Z" fill="#D2D2D2"/>
<path d="M265.727 171.738L260.07 177.395L265.727 183.051L271.384 177.395L265.727 171.738Z" fill="#4A85DF"/>
<line x1="245.57" y1="166.395" x2="245.57" y2="186.395" stroke="#C6C6C6"/>
<path d="M228.245 176.687C227.4 175.492 225.809 174.069 223.003 173.947V171.735C223.003 171.604 222.939 171.482 222.836 171.427C222.733 171.371 222.612 171.388 222.526 171.471L218.107 175.705C218.041 175.769 218 175.866 218 175.966C218 176.068 218.038 176.163 218.105 176.226L222.524 180.477C222.612 180.56 222.731 180.579 222.834 180.521C222.936 180.466 223.001 180.346 223.001 180.213V178.009C224.833 178.017 227.634 178.175 229.12 181.223C229.173 181.331 229.271 181.395 229.376 181.395C229.399 181.395 229.426 181.392 229.45 181.383C229.578 181.345 229.667 181.209 229.667 181.056C229.669 179.917 229.294 178.173 228.245 176.687Z" fill="#4A85DF"/>
</svg>
