<svg width="40" height="52" viewBox="0 0 40 52" fill="none" xmlns="http://www.w3.org/2000/svg">
<path d="M37 52H3C1.343 52 0 50.657 0 49V3C0 1.343 1.343 0 3 0H23.757C24.553 0 25.316 0.316 25.878 0.879L39.121 14.122C39.684 14.684 40 15.447 40 16.243V49C40 50.657 38.657 52 37 52Z" fill="url(#paint0_linear)"/>
<path d="M39.121 14.1223L25.878 0.879297C25.623 0.624297 25.322 0.427297 25 0.279297V12.0003C25 13.6573 26.343 15.0003 28 15.0003H39.721C39.574 14.6783 39.377 14.3773 39.121 14.1223Z" fill="url(#paint1_linear)"/>
<path d="M28 15C26.343 15 25 13.657 25 12V15C25 16.657 26.343 18 28 18H40V16.243C40 15.809 39.898 15.388 39.721 15H28Z" fill="url(#paint2_linear)"/>
<defs>
<linearGradient id="paint0_linear" x1="20" y1="52" x2="20" y2="0" gradientUnits="userSpaceOnUse">
<stop stop-color="#41BFEC"/>
<stop offset="0.232" stop-color="#4CC5EF"/>
<stop offset="0.644" stop-color="#6BD4F6"/>
<stop offset="1" stop-color="#8AE4FD"/>
</linearGradient>
<linearGradient id="paint1_linear" x1="25.879" y1="14.1213" x2="33.454" y2="6.5463" gradientUnits="userSpaceOnUse">
<stop stop-color="#C6EFFD"/>
<stop offset="0.375" stop-color="#B7ECFD"/>
<stop offset="1" stop-color="#95E6FD"/>
</linearGradient>
<linearGradient id="paint2_linear" x1="32.5" y1="18.083" x2="32.5" y2="12.083" gradientUnits="userSpaceOnUse">
<stop stop-color="#42C6EE"/>
<stop offset="0.48" stop-color="#3BC3ED"/>
<stop offset="1" stop-color="#2EBEEA"/>
</linearGradient>
</defs>
</svg>
