<svg width="687" height="460" viewBox="0 0 687 460" fill="none" xmlns="http://www.w3.org/2000/svg">
<g filter="url(#filter0_d_3529_44)">
<rect x="53.1211" y="7" width="359.037" height="201.958" rx="10" fill="#DFDFDF"/>
</g>
<g filter="url(#filter1_d_3529_44)">
<rect x="6" y="24.9512" width="381.477" height="201.958" rx="10" fill="white"/>
</g>
<path d="M54.2446 105.735C58.5822 105.735 62.0985 102.219 62.0985 97.8813C62.0985 93.5437 58.5822 90.0273 54.2446 90.0273C49.907 90.0273 46.3906 93.5437 46.3906 97.8813C46.3906 102.219 49.907 105.735 54.2446 105.735Z" fill="#4A85DF"/>
<path d="M54.2446 146.126C58.5822 146.126 62.0985 142.61 62.0985 138.272C62.0985 133.934 58.5822 130.418 54.2446 130.418C49.907 130.418 46.3906 133.934 46.3906 138.272C46.3906 142.61 49.907 146.126 54.2446 146.126Z" fill="#4A85DF"/>
<path d="M54.2446 186.52C58.5822 186.52 62.0985 183.004 62.0985 178.666C62.0985 174.329 58.5822 170.812 54.2446 170.812C49.907 170.812 46.3906 174.329 46.3906 178.666C46.3906 183.004 49.907 186.52 54.2446 186.52Z" fill="#4A85DF"/>
<path d="M297.96 92.2734H102.246C101.142 92.2734 100.246 93.1689 100.246 94.2734V99.2494C100.246 100.354 101.142 101.249 102.246 101.249H297.96C299.065 101.249 299.96 100.354 299.96 99.2494V94.2734C299.96 93.1689 299.065 92.2734 297.96 92.2734Z" fill="#D2D2D2"/>
<path d="M298.296 132.518H102.582C101.477 132.518 100.582 133.413 100.582 134.518V139.494C100.582 140.598 101.477 141.494 102.582 141.494H298.296C299.401 141.494 300.296 140.598 300.296 139.494V134.518C300.296 133.413 299.401 132.518 298.296 132.518Z" fill="#D2D2D2"/>
<path d="M298.296 172.984H102.582C101.477 172.984 100.582 173.88 100.582 174.984V179.96C100.582 181.065 101.477 181.96 102.582 181.96H298.296C299.401 181.96 300.296 181.065 300.296 179.96V174.984C300.296 173.88 299.401 172.984 298.296 172.984Z" fill="#D2D2D2"/>
<path d="M241.861 47.3906H48.3906C47.2861 47.3906 46.3906 48.2861 46.3906 49.3906V63.3425C46.3906 64.447 47.2861 65.3425 48.3906 65.3425H241.861C242.966 65.3425 243.861 64.447 243.861 63.3425V49.3906C243.861 48.2861 242.966 47.3906 241.861 47.3906Z" fill="#D2D2D2"/>
<g filter="url(#filter2_d_3529_44)">
<rect x="176.539" y="90.0293" width="359.037" height="201.958" rx="10" fill="#DFDFDF"/>
</g>
<g filter="url(#filter3_d_3529_44)">
<rect x="129.418" y="107.98" width="381.477" height="201.958" rx="10" fill="white"/>
</g>
<path d="M177.663 188.765C182 188.765 185.516 185.248 185.516 180.911C185.516 176.573 182 173.057 177.663 173.057C173.325 173.057 169.809 176.573 169.809 180.911C169.809 185.248 173.325 188.765 177.663 188.765Z" fill="#4A85DF"/>
<path d="M177.663 229.155C182 229.155 185.516 225.639 185.516 221.301C185.516 216.964 182 213.447 177.663 213.447C173.325 213.447 169.809 216.964 169.809 221.301C169.809 225.639 173.325 229.155 177.663 229.155Z" fill="#4A85DF"/>
<path d="M177.663 269.55C182 269.55 185.516 266.033 185.516 261.696C185.516 257.358 182 253.842 177.663 253.842C173.325 253.842 169.809 257.358 169.809 261.696C169.809 266.033 173.325 269.55 177.663 269.55Z" fill="#4A85DF"/>
<path d="M421.378 175.303H225.664C224.559 175.303 223.664 176.198 223.664 177.303V182.279C223.664 183.383 224.559 184.279 225.664 184.279H421.378C422.483 184.279 423.378 183.383 423.378 182.279V177.303C423.378 176.198 422.483 175.303 421.378 175.303Z" fill="#D2D2D2"/>
<path d="M421.714 215.547H226C224.895 215.547 224 216.442 224 217.547V222.523C224 223.627 224.895 224.523 226 224.523H421.714C422.819 224.523 423.714 223.627 423.714 222.523V217.547C423.714 216.442 422.819 215.547 421.714 215.547Z" fill="#D2D2D2"/>
<path d="M421.714 256.014H226C224.895 256.014 224 256.909 224 258.014V262.99C224 264.094 224.895 264.99 226 264.99H421.714C422.819 264.99 423.714 264.094 423.714 262.99V258.014C423.714 256.909 422.819 256.014 421.714 256.014Z" fill="#D2D2D2"/>
<path d="M365.279 130.42H171.809C170.704 130.42 169.809 131.315 169.809 132.42V146.372C169.809 147.476 170.704 148.372 171.809 148.372H365.279C366.384 148.372 367.279 147.476 367.279 146.372V132.42C367.279 131.315 366.384 130.42 365.279 130.42Z" fill="#D2D2D2"/>
<g filter="url(#filter4_d_3529_44)">
<rect x="299.957" y="173.053" width="359.037" height="201.958" rx="10" fill="#DFDFDF"/>
</g>
<g filter="url(#filter5_d_3529_44)">
<rect x="252.836" y="191.004" width="381.477" height="201.958" rx="10" fill="white"/>
</g>
<path d="M301.08 271.788C305.418 271.788 308.934 268.272 308.934 263.934C308.934 259.596 305.418 256.08 301.08 256.08C296.743 256.08 293.227 259.596 293.227 263.934C293.227 268.272 296.743 271.788 301.08 271.788Z" fill="#4A85DF"/>
<path d="M301.08 312.179C305.418 312.179 308.934 308.662 308.934 304.325C308.934 299.987 305.418 296.471 301.08 296.471C296.743 296.471 293.227 299.987 293.227 304.325C293.227 308.662 296.743 312.179 301.08 312.179Z" fill="#4A85DF"/>
<path d="M301.08 352.573C305.418 352.573 308.934 349.057 308.934 344.719C308.934 340.382 305.418 336.865 301.08 336.865C296.743 336.865 293.227 340.382 293.227 344.719C293.227 349.057 296.743 352.573 301.08 352.573Z" fill="#4A85DF"/>
<path opacity="0.89" d="M544.796 258.326H349.082C347.977 258.326 347.082 259.222 347.082 260.326V265.302C347.082 266.407 347.977 267.302 349.082 267.302H544.796C545.901 267.302 546.796 266.407 546.796 265.302V260.326C546.796 259.222 545.901 258.326 544.796 258.326Z" fill="#D2D2D2"/>
<path d="M545.132 298.57H349.418C348.313 298.57 347.418 299.466 347.418 300.57V305.546C347.418 306.651 348.313 307.546 349.418 307.546H545.132C546.237 307.546 547.132 306.651 547.132 305.546V300.57C547.132 299.466 546.237 298.57 545.132 298.57Z" fill="#D2D2D2"/>
<path d="M545.132 339.037H349.418C348.313 339.037 347.418 339.933 347.418 341.037V346.013C347.418 347.118 348.313 348.013 349.418 348.013H545.132C546.237 348.013 547.132 347.118 547.132 346.013V341.037C547.132 339.933 546.237 339.037 545.132 339.037Z" fill="#D2D2D2"/>
<path d="M488.697 213.443H295.227C294.122 213.443 293.227 214.339 293.227 215.443V229.395C293.227 230.5 294.122 231.395 295.227 231.395H488.697C489.802 231.395 490.697 230.5 490.697 229.395V215.443C490.697 214.339 489.802 213.443 488.697 213.443Z" fill="#D2D2D2"/>
<path d="M618.293 459.587C656.011 459.587 686.587 429.011 686.587 391.293C686.587 353.576 656.011 323 618.293 323C580.576 323 550 353.576 550 391.293C550 429.011 580.576 459.587 618.293 459.587Z" fill="#6C63FF"/>
<path d="M637.215 386.936V373.869C637.216 371.383 636.728 368.921 635.778 366.624C634.828 364.326 633.435 362.239 631.678 360.48C629.92 358.722 627.834 357.327 625.537 356.375C623.241 355.423 620.779 354.934 618.293 354.934C615.807 354.934 613.346 355.423 611.049 356.375C608.753 357.327 606.666 358.722 604.909 360.48C603.152 362.239 601.759 364.326 600.808 366.624C599.858 368.921 599.37 371.383 599.372 373.869V386.936C596.843 387.05 594.455 388.134 592.705 389.964C590.955 391.793 589.978 394.227 589.977 396.759V427.638H646.61V396.759C646.609 394.227 645.632 391.793 643.882 389.964C642.132 388.134 639.744 387.05 637.215 386.936V386.936ZM618.293 361.609C621.543 361.613 624.659 362.906 626.957 365.204C629.256 367.502 630.548 370.618 630.552 373.869V386.913H606.035V373.869C606.038 370.618 607.331 367.502 609.629 365.204C611.927 362.906 615.043 361.613 618.293 361.609Z" fill="white"/>
<path d="M623.384 402.186C623.385 401.308 623.158 400.445 622.726 399.681C622.295 398.917 621.673 398.277 620.921 397.824C620.169 397.371 619.313 397.12 618.436 397.096C617.558 397.071 616.69 397.274 615.914 397.684C615.138 398.095 614.481 398.699 614.008 399.438C613.534 400.177 613.26 401.026 613.211 401.902C613.162 402.778 613.341 403.653 613.73 404.439C614.119 405.226 614.704 405.899 615.43 406.393V417.458H621.157V406.393C621.843 405.927 622.405 405.3 622.793 404.566C623.182 403.833 623.385 403.016 623.384 402.186V402.186Z" fill="#6C63FF"/>
<defs>
<filter id="filter0_d_3529_44" x="47.1211" y="0" width="367.035" height="209.959" filterUnits="userSpaceOnUse" color-interpolation-filters="sRGB">
<feFlood flood-opacity="0" result="BackgroundImageFix"/>
<feColorMatrix in="SourceAlpha" type="matrix" values="0 0 0 0 0 0 0 0 0 0 0 0 0 0 0 0 0 0 127 0" result="hardAlpha"/>
<feOffset dx="-2" dy="-3"/>
<feGaussianBlur stdDeviation="2"/>
<feColorMatrix type="matrix" values="0 0 0 0 0 0 0 0 0 0 0 0 0 0 0 0 0 0 0.1 0"/>
<feBlend mode="normal" in2="BackgroundImageFix" result="effect1_dropShadow_3529_44"/>
<feBlend mode="normal" in="SourceGraphic" in2="effect1_dropShadow_3529_44" result="shape"/>
</filter>
<filter id="filter1_d_3529_44" x="0" y="17.9512" width="389.477" height="209.959" filterUnits="userSpaceOnUse" color-interpolation-filters="sRGB">
<feFlood flood-opacity="0" result="BackgroundImageFix"/>
<feColorMatrix in="SourceAlpha" type="matrix" values="0 0 0 0 0 0 0 0 0 0 0 0 0 0 0 0 0 0 127 0" result="hardAlpha"/>
<feOffset dx="-2" dy="-3"/>
<feGaussianBlur stdDeviation="2"/>
<feColorMatrix type="matrix" values="0 0 0 0 0 0 0 0 0 0 0 0 0 0 0 0 0 0 0.1 0"/>
<feBlend mode="normal" in2="BackgroundImageFix" result="effect1_dropShadow_3529_44"/>
<feBlend mode="normal" in="SourceGraphic" in2="effect1_dropShadow_3529_44" result="shape"/>
</filter>
<filter id="filter2_d_3529_44" x="170.539" y="83.0293" width="367.035" height="209.959" filterUnits="userSpaceOnUse" color-interpolation-filters="sRGB">
<feFlood flood-opacity="0" result="BackgroundImageFix"/>
<feColorMatrix in="SourceAlpha" type="matrix" values="0 0 0 0 0 0 0 0 0 0 0 0 0 0 0 0 0 0 127 0" result="hardAlpha"/>
<feOffset dx="-2" dy="-3"/>
<feGaussianBlur stdDeviation="2"/>
<feColorMatrix type="matrix" values="0 0 0 0 0 0 0 0 0 0 0 0 0 0 0 0 0 0 0.1 0"/>
<feBlend mode="normal" in2="BackgroundImageFix" result="effect1_dropShadow_3529_44"/>
<feBlend mode="normal" in="SourceGraphic" in2="effect1_dropShadow_3529_44" result="shape"/>
</filter>
<filter id="filter3_d_3529_44" x="123.418" y="100.98" width="389.477" height="209.959" filterUnits="userSpaceOnUse" color-interpolation-filters="sRGB">
<feFlood flood-opacity="0" result="BackgroundImageFix"/>
<feColorMatrix in="SourceAlpha" type="matrix" values="0 0 0 0 0 0 0 0 0 0 0 0 0 0 0 0 0 0 127 0" result="hardAlpha"/>
<feOffset dx="-2" dy="-3"/>
<feGaussianBlur stdDeviation="2"/>
<feColorMatrix type="matrix" values="0 0 0 0 0 0 0 0 0 0 0 0 0 0 0 0 0 0 0.1 0"/>
<feBlend mode="normal" in2="BackgroundImageFix" result="effect1_dropShadow_3529_44"/>
<feBlend mode="normal" in="SourceGraphic" in2="effect1_dropShadow_3529_44" result="shape"/>
</filter>
<filter id="filter4_d_3529_44" x="293.957" y="166.053" width="367.035" height="209.959" filterUnits="userSpaceOnUse" color-interpolation-filters="sRGB">
<feFlood flood-opacity="0" result="BackgroundImageFix"/>
<feColorMatrix in="SourceAlpha" type="matrix" values="0 0 0 0 0 0 0 0 0 0 0 0 0 0 0 0 0 0 127 0" result="hardAlpha"/>
<feOffset dx="-2" dy="-3"/>
<feGaussianBlur stdDeviation="2"/>
<feColorMatrix type="matrix" values="0 0 0 0 0 0 0 0 0 0 0 0 0 0 0 0 0 0 0.1 0"/>
<feBlend mode="normal" in2="BackgroundImageFix" result="effect1_dropShadow_3529_44"/>
<feBlend mode="normal" in="SourceGraphic" in2="effect1_dropShadow_3529_44" result="shape"/>
</filter>
<filter id="filter5_d_3529_44" x="246.836" y="184.004" width="389.477" height="209.959" filterUnits="userSpaceOnUse" color-interpolation-filters="sRGB">
<feFlood flood-opacity="0" result="BackgroundImageFix"/>
<feColorMatrix in="SourceAlpha" type="matrix" values="0 0 0 0 0 0 0 0 0 0 0 0 0 0 0 0 0 0 127 0" result="hardAlpha"/>
<feOffset dx="-2" dy="-3"/>
<feGaussianBlur stdDeviation="2"/>
<feColorMatrix type="matrix" values="0 0 0 0 0 0 0 0 0 0 0 0 0 0 0 0 0 0 0.1 0"/>
<feBlend mode="normal" in2="BackgroundImageFix" result="effect1_dropShadow_3529_44"/>
<feBlend mode="normal" in="SourceGraphic" in2="effect1_dropShadow_3529_44" result="shape"/>
</filter>
</defs>
</svg>
