<svg width="25" height="18" viewBox="0 0 25 18" xmlns="http://www.w3.org/2000/svg">
<path d="M6.2136 0.0318882C4.98584 0.184699 3.83185 0.869715 3.12576 1.86035C2.22997 3.10919 2.02973 4.71107 2.58301 6.14433C3.00983 7.25616 4.04262 8.27315 5.17553 8.69997C5.98174 9.00032 7.02508 9.06355 7.84709 8.85278C8.65857 8.64727 9.4964 8.14142 10.0708 7.51436C11.9361 5.46986 11.5251 2.24501 9.20659 0.732712C8.33714 0.163622 7.22531 -0.0945761 6.2136 0.0318882Z"/>
<path d="M16.3308 0.0318882C15.103 0.184699 13.949 0.869715 13.2429 1.86035C12.3472 3.10919 12.1469 4.71107 12.7002 6.14433C13.127 7.25616 14.1598 8.27315 15.2927 8.69997C16.0989 9.00032 17.1423 9.06355 17.9643 8.85278C18.7758 8.64727 19.6136 8.14142 20.188 7.51436C22.0533 5.46986 21.6423 2.24501 19.3238 0.732712C18.4543 0.163622 17.3425 -0.0945761 16.3308 0.0318882Z"/>
<path d="M5.57169 10.1539C2.65248 10.4912 0.381386 12.7886 0.0546865 15.75C-0.0190844 16.4087 -0.0190844 16.8407 0.0599559 17.1464C0.144265 17.4836 0.51312 17.8525 0.850358 17.9368C1.02425 17.9842 1.95692 18 4.02778 18C6.79418 18 6.95753 17.9947 6.93119 17.9052C6.7573 17.3097 6.72568 16.8934 6.79418 16.1452C6.97861 14.0796 7.81644 12.1721 9.16012 10.7705C9.28659 10.6334 9.3867 10.507 9.3709 10.4964C9.30766 10.4279 8.30122 10.2014 7.8744 10.1487C7.31585 10.0854 6.14605 10.0907 5.57169 10.1539Z"/>
<path d="M15.1993 10.1276C13.218 10.3384 11.5108 11.2922 10.3462 12.8361C9.54529 13.8952 9.00781 15.4602 9.00781 16.7407C9.00781 17.2202 9.19751 17.5891 9.56109 17.8156L9.81402 17.9737L16.7485 17.9895C24.584 18.0053 24.0623 18.0317 24.4365 17.6049C24.7316 17.2676 24.7895 17.0042 24.7157 16.277C24.584 14.9702 24.1677 13.8689 23.4248 12.8624C22.4288 11.5188 21.0219 10.6124 19.3463 10.2488C18.8931 10.1487 18.6349 10.1382 17.1226 10.1224C16.1794 10.1171 15.3152 10.1171 15.1993 10.1276Z"/>
</svg>
