<svg width="34" height="40" viewBox="0 0 34 40" xmlns="http://www.w3.org/2000/svg">
<path fill-rule="evenodd" clip-rule="evenodd" d="M29.4459 13.2234C29.4459 9.71637 28.0864 6.35293 25.6663 3.87306C23.2463 1.39318 19.9641 0 16.5417 0C13.1193 0 9.83701 1.39318 7.417 3.87306C5.99739 5.32778 4.9427 7.08655 4.3133 9H8.29405C8.73329 8.09923 9.31419 7.26801 10.0221 6.54259C11.7512 4.77072 14.0963 3.77529 16.5417 3.77529C18.987 3.77529 21.3321 4.77072 23.0612 6.54259C24.7903 8.31446 25.7617 10.7176 25.7617 13.2234L25.759 17.0016H7.3216V17H3.63743V17.0016H3.46422C1.55098 17.0016 0 18.5957 0 20.5621V36.1395C0 38.1059 1.55098 39.7 3.46422 39.7H29.6191C31.5324 39.7 33.0833 38.1059 33.0833 36.1395V20.5621C33.0833 18.5957 31.5324 17.0016 29.6191 17.0016H29.4459V13.2234ZM13.7703 25.3688C13.7703 23.7957 15.0111 22.5204 16.5417 22.5204C18.0723 22.5204 19.313 23.7957 19.313 25.3688V25.4578C19.313 26.1578 19.0674 26.7988 18.6599 27.2948L19.313 34.0922H13.7703L14.4235 27.2948C14.0159 26.7988 13.7703 26.1578 13.7703 25.4578V25.3688Z"/>
</svg>
