<svg width="33" height="32" viewBox="0 0 33 32" fill="none" xmlns="http://www.w3.org/2000/svg">
<g clip-path="url(#clip0)">
<path d="M31.0546 32.0005C30.5617 32.0005 30.0687 31.8244 29.6796 31.4471L0.571105 3.22067C-0.181254 2.49111 -0.181254 1.28357 0.571105 0.554006C1.32346 -0.175554 2.56875 -0.175554 3.32111 0.554006L32.4296 28.7804C33.182 29.51 33.182 30.7175 32.4296 31.4471C32.0664 31.8244 31.5735 32.0005 31.0546 32.0005Z" fill="#C4C4C4"/>
<path d="M1.94575 10.8931C0.882075 10.8931 0 10.0629 0 9.00629V1.88679C0 0.855346 0.882075 0 1.94575 0C3.00943 0 3.89151 0.855346 3.89151 1.88679V9.00629C3.89151 10.0629 3.00943 10.8931 1.94575 10.8931Z" fill="#C4C4C4"/>
<path d="M9.28773 3.77359H1.94575C0.882075 3.77359 0 2.91824 0 1.88679C0 0.855346 0.882075 0 1.94575 0H9.28773C10.3514 0 11.2335 0.855346 11.2335 1.88679C11.2335 2.91824 10.3774 3.77359 9.28773 3.77359Z" fill="#C4C4C4"/>
<path d="M31.0543 32.0001H23.7124C22.6487 32.0001 21.7666 31.1448 21.7666 30.1134C21.7666 29.0819 22.6487 28.2266 23.7124 28.2266H31.0543C32.118 28.2266 33.0001 29.0819 33.0001 30.1134C33.0001 31.1448 32.144 32.0001 31.0543 32.0001Z" fill="#C4C4C4"/>
<path d="M31.0543 31.9995C29.9906 31.9995 29.1085 31.1442 29.1085 30.1127V22.9932C29.1085 21.9618 29.9906 21.1064 31.0543 21.1064C32.118 21.1064 33 21.9618 33 22.9932V30.1127C33 31.1693 32.1439 31.9995 31.0543 31.9995Z" fill="#C4C4C4"/>
<path d="M1.94611 32.0005C1.45318 32.0005 0.960256 31.8244 0.571105 31.4471C-0.181254 30.7175 -0.181254 29.51 0.571105 28.7804L29.6796 0.554006C30.432 -0.175554 31.6772 -0.175554 32.4296 0.554006C33.182 1.28357 33.182 2.49111 32.4296 3.22067L3.32111 31.4471C2.93195 31.8244 2.43903 32.0005 1.94611 32.0005Z" fill="#C4C4C4"/>
<path d="M31.0543 3.77359H23.7124C22.6487 3.77359 21.7666 2.91824 21.7666 1.88679C21.7666 0.855346 22.6487 0 23.7124 0H31.0543C32.118 0 33.0001 0.855346 33.0001 1.88679C33.0001 2.91824 32.144 3.77359 31.0543 3.77359Z" fill="#C4C4C4"/>
<path d="M31.0543 10.8931C29.9906 10.8931 29.1085 10.0377 29.1085 9.00629V1.88679C29.1085 0.855346 29.9906 0 31.0543 0C32.118 0 33 0.855346 33 1.88679V9.00629C33 10.0629 32.1439 10.8931 31.0543 10.8931Z" fill="#C4C4C4"/>
<path d="M1.94575 31.9995C0.882075 31.9995 0 31.1442 0 30.1127V22.9932C0 21.9618 0.882075 21.1064 1.94575 21.1064C3.00943 21.1064 3.89151 21.9618 3.89151 22.9932V30.1127C3.89151 31.1693 3.00943 31.9995 1.94575 31.9995Z" fill="#C4C4C4"/>
<path d="M9.28773 32.0001H1.94575C0.882075 32.0001 0 31.1448 0 30.1134C0 29.0819 0.882075 28.2266 1.94575 28.2266H9.28773C10.3514 28.2266 11.2335 29.0819 11.2335 30.1134C11.2335 31.1448 10.3774 32.0001 9.28773 32.0001Z" fill="#C4C4C4"/>
</g>
<defs>
<clipPath id="clip0">
<rect width="33" height="32" fill="white"/>
</clipPath>
</defs>
</svg>
