<svg width="359" height="84" viewBox="0 0 359 84" fill="none" xmlns="http://www.w3.org/2000/svg">
<rect width="359" height="84" rx="10" fill="white"/>
<path d="M124.251 38.1546H122.875V38.0837H107.5V44.917H117.155C115.746 48.8949 111.961 51.7503 107.5 51.7503C101.84 51.7503 97.2501 47.1609 97.2501 41.5003C97.2501 35.8398 101.84 31.2503 107.5 31.2503C110.113 31.2503 112.49 32.236 114.3 33.8461L119.132 29.0141C116.081 26.1706 112 24.417 107.5 24.417C98.0658 24.417 90.4167 32.0661 90.4167 41.5003C90.4167 50.9346 98.0658 58.5837 107.5 58.5837C116.934 58.5837 124.583 50.9346 124.583 41.5003C124.583 40.3549 124.466 39.2368 124.251 38.1546Z" fill="#FFC107"/>
<path d="M92.3864 33.5489L97.9991 37.6651C99.5178 33.9051 103.196 31.2503 107.5 31.2503C110.113 31.2503 112.49 32.236 114.3 33.8461L119.132 29.0141C116.081 26.1706 112 24.417 107.5 24.417C100.938 24.417 95.2478 28.1215 92.3864 33.5489Z" fill="#FF3D00"/>
<path d="M107.5 58.5834C111.913 58.5834 115.922 56.8947 118.953 54.1486L113.666 49.6745C111.951 50.9737 109.819 51.7501 107.5 51.7501C103.057 51.7501 99.2837 48.9168 97.8624 44.9629L92.2915 49.2551C95.1188 54.7875 100.861 58.5834 107.5 58.5834Z" fill="#4CAF50"/>
<path d="M124.251 38.1539H122.875V38.083H107.5V44.9163H117.155C116.478 46.8271 115.249 48.4748 113.664 49.6749C113.665 49.6741 113.665 49.6741 113.666 49.6732L118.954 54.1473C118.579 54.4873 124.583 50.0413 124.583 41.4997C124.583 40.3542 124.465 39.2361 124.251 38.1539Z" fill="#1976D2"/>
<path d="M163.964 46.4043C163.964 45.5742 163.671 44.9395 163.085 44.5C162.499 44.0508 161.444 43.582 159.921 43.0938C158.397 42.5957 157.191 42.1074 156.303 41.6289C153.881 40.3203 152.67 38.5576 152.67 36.3408C152.67 35.1885 152.992 34.1631 153.637 33.2646C154.291 32.3564 155.224 31.6484 156.435 31.1406C157.655 30.6328 159.022 30.3789 160.536 30.3789C162.06 30.3789 163.417 30.6572 164.608 31.2139C165.8 31.7607 166.723 32.5371 167.377 33.543C168.041 34.5488 168.373 35.6914 168.373 36.9707H163.979C163.979 35.9941 163.671 35.2373 163.056 34.7002C162.44 34.1533 161.576 33.8799 160.463 33.8799C159.389 33.8799 158.554 34.1094 157.958 34.5684C157.362 35.0176 157.064 35.6133 157.064 36.3555C157.064 37.0488 157.411 37.6299 158.104 38.0986C158.808 38.5674 159.838 39.0068 161.195 39.417C163.695 40.1689 165.517 41.1016 166.659 42.2148C167.802 43.3281 168.373 44.7148 168.373 46.375C168.373 48.2207 167.675 49.6709 166.278 50.7256C164.882 51.7705 163.002 52.293 160.639 52.293C158.998 52.293 157.504 51.9951 156.156 51.3994C154.809 50.7939 153.778 49.9688 153.065 48.9238C152.362 47.8789 152.011 46.668 152.011 45.291H156.42C156.42 47.6445 157.826 48.8213 160.639 48.8213C161.684 48.8213 162.499 48.6113 163.085 48.1914C163.671 47.7617 163.964 47.166 163.964 46.4043ZM175.551 52H171.303V36.1504H175.551V52ZM171.054 32.0488C171.054 31.4141 171.264 30.8916 171.684 30.4814C172.113 30.0713 172.694 29.8662 173.427 29.8662C174.149 29.8662 174.726 30.0713 175.155 30.4814C175.585 30.8916 175.8 31.4141 175.8 32.0488C175.8 32.6934 175.58 33.2207 175.141 33.6309C174.711 34.041 174.14 34.2461 173.427 34.2461C172.714 34.2461 172.138 34.041 171.698 33.6309C171.269 33.2207 171.054 32.6934 171.054 32.0488ZM178.437 43.958C178.437 41.5264 179.013 39.5684 180.165 38.084C181.327 36.5996 182.89 35.8574 184.853 35.8574C186.591 35.8574 187.943 36.4531 188.91 37.6445L189.086 36.1504H192.924V51.4727C192.924 52.8594 192.606 54.0654 191.972 55.0908C191.347 56.1162 190.463 56.8975 189.32 57.4346C188.178 57.9717 186.84 58.2402 185.307 58.2402C184.145 58.2402 183.012 58.0059 181.908 57.5371C180.805 57.0781 179.97 56.4824 179.403 55.75L181.278 53.1719C182.333 54.3535 183.612 54.9443 185.116 54.9443C186.239 54.9443 187.113 54.6416 187.738 54.0361C188.363 53.4404 188.676 52.5908 188.676 51.4873V50.6377C187.699 51.7412 186.415 52.293 184.823 52.293C182.919 52.293 181.376 51.5508 180.194 50.0664C179.022 48.5723 178.437 46.5947 178.437 44.1338V43.958ZM182.67 44.2656C182.67 45.7012 182.958 46.8291 183.534 47.6494C184.11 48.46 184.901 48.8652 185.907 48.8652C187.196 48.8652 188.119 48.3818 188.676 47.415V40.75C188.109 39.7832 187.196 39.2998 185.937 39.2998C184.921 39.2998 184.12 39.7148 183.534 40.5449C182.958 41.375 182.67 42.6152 182.67 44.2656ZM200.087 36.1504L200.219 37.9814C201.352 36.5654 202.87 35.8574 204.774 35.8574C206.454 35.8574 207.704 36.3506 208.524 37.3369C209.345 38.3232 209.765 39.7979 209.784 41.7607V52H205.551V41.8633C205.551 40.9648 205.355 40.3154 204.965 39.915C204.574 39.5049 203.925 39.2998 203.017 39.2998C201.825 39.2998 200.932 39.8076 200.336 40.8232V52H196.103V36.1504H200.087ZM224.945 52H220.697V36.1504H224.945V52ZM220.448 32.0488C220.448 31.4141 220.658 30.8916 221.078 30.4814C221.508 30.0713 222.089 29.8662 222.821 29.8662C223.544 29.8662 224.12 30.0713 224.55 30.4814C224.979 30.8916 225.194 31.4141 225.194 32.0488C225.194 32.6934 224.975 33.2207 224.535 33.6309C224.105 34.041 223.534 34.2461 222.821 34.2461C222.108 34.2461 221.532 34.041 221.093 33.6309C220.663 33.2207 220.448 32.6934 220.448 32.0488ZM232.343 36.1504L232.475 37.9814C233.607 36.5654 235.126 35.8574 237.03 35.8574C238.71 35.8574 239.96 36.3506 240.78 37.3369C241.601 38.3232 242.021 39.7979 242.04 41.7607V52H237.807V41.8633C237.807 40.9648 237.611 40.3154 237.221 39.915C236.83 39.5049 236.181 39.2998 235.272 39.2998C234.081 39.2998 233.188 39.8076 232.592 40.8232V52H228.358V36.1504H232.343Z" fill="#292929"/>
</svg>
