<svg width="19" height="24" viewBox="0 0 19 24" fill="none" xmlns="http://www.w3.org/2000/svg">
<path fill-rule="evenodd" clip-rule="evenodd" d="M7.5358 0.0014134C7.31778 0.00994514 7.10279 0.0570288 6.90086 0.140671C6.67665 0.233541 6.47293 0.369664 6.30133 0.541267C6.12973 0.71287 5.9936 0.916592 5.90073 1.1408C5.81074 1.35805 5.76307 1.59042 5.7602 1.82542H1.248V1.82475C1.23436 1.82475 1.22074 1.82497 1.20713 1.82542H1.15172V1.82847C1.0208 1.8386 0.892096 1.86934 0.770411 1.91975C0.618997 1.98247 0.481418 2.07439 0.365531 2.19028C0.249643 2.30617 0.157716 2.44375 0.0949984 2.59516C0.0322845 2.74656 4.16351e-06 2.90884 0 3.07272V3.07275V3.69672H18.144V3.07272H18.1436C18.1435 2.90907 18.1113 2.74703 18.0486 2.59583C17.9859 2.44442 17.894 2.30684 17.7781 2.19095C17.6622 2.07506 17.5246 1.98313 17.3732 1.92042C17.2218 1.85771 17.0596 1.82543 16.8957 1.82542H16.8956H12.4317C12.4288 1.5905 12.3811 1.35822 12.2912 1.14105C12.1983 0.916836 12.0622 0.713114 11.8906 0.541511C11.719 0.369909 11.5153 0.233786 11.2911 0.140915C11.0742 0.0510995 10.8423 0.00343814 10.6078 0.00039969V0.000244617H10.5839H7.60806V0L7.578 0.000244617H7.5358V0.0014134ZM16.3677 4.51191H1.24767V4.51245L1.05614 4.51245L2.30502 21.2048C2.34883 22.7245 3.56986 23.9491 5.08807 23.9987V24H5.14184C5.15581 24.0002 5.1698 24.0003 5.18381 24.0003L5.19901 24.0002L5.22577 24H12.9182C12.9322 24.0002 12.9462 24.0003 12.9602 24.0003L12.9827 24.0002L13.0022 24H13.0561V23.9987C14.6023 23.9481 15.8402 22.6788 15.8402 21.1203V21.1201L15.8403 21.1201L17.0879 4.5121H16.3677V4.51191ZM7.91655 22.0319L7.91652 22.032H8.62737C8.74804 22.1399 8.90737 22.2056 9.08204 22.2056C9.2567 22.2056 9.41604 22.1399 9.53671 22.032H10.2275L10.2275 22.0319H9.53682C9.67636 21.907 9.76418 21.7255 9.76418 21.5234V6.9712C9.76418 6.59447 9.45877 6.28906 9.08204 6.28906C8.70531 6.28906 8.3999 6.59447 8.3999 6.9712V21.5234C8.3999 21.7255 8.48772 21.907 8.62725 22.0319H7.91655ZM4.66514 6.27493C4.2889 6.29406 3.99939 6.61458 4.01852 6.99083L4.75745 21.5243C4.77658 21.9005 5.0971 22.19 5.47335 22.1709C5.84959 22.1518 6.1391 21.8313 6.11997 21.455L5.38104 6.92155C5.36191 6.5453 5.04139 6.2558 4.66514 6.27493ZM12.7735 7.01719C12.7926 6.64095 13.1131 6.35144 13.4894 6.37057C13.8656 6.38969 14.1551 6.71021 14.136 7.08645L13.3972 21.6199C13.3781 21.9962 13.0576 22.2857 12.6813 22.2666C12.3051 22.2474 12.0156 21.9269 12.0347 21.5507L12.7735 7.01719Z" fill="#484848"/>
</svg>
