<svg width="23" height="24" viewBox="0 0 23 24" fill="none" xmlns="http://www.w3.org/2000/svg">
<path fill-rule="evenodd" clip-rule="evenodd" d="M4.00553 2H15.658C16.7641 2 17.6608 2.89543 17.6608 4V8V8.03416L19.2934 6.35913C19.4093 6.24032 19.5331 6.13155 19.6635 6.03291V6V4C19.6635 1.79086 17.8702 0 15.658 0H4.00553C1.79334 0 0 1.79086 0 4H2.00277C2.00277 2.89543 2.89944 2 4.00553 2ZM17.6608 14.1566V14.1584L19.6635 12.1037V12.1019L22.6953 8.99156C23.1393 8.536 23.0926 7.84943 22.5909 7.45807C22.0892 7.0667 21.3225 7.11875 20.8784 7.57431L13.9993 14.6318L15.8161 16.0491L17.6608 14.1566ZM17.6608 20V17.0088L19.6635 14.9541V20C19.6635 22.2091 17.8702 24 15.658 24H4.00554C1.79334 24 0 22.2091 0 20V19.1434H2.00277V20C2.00277 21.1046 2.89944 22 4.00554 22H15.658C16.7641 22 17.6608 21.1046 17.6608 20ZM0 17.7148H2.00277V15.7147H0V17.7148ZM2.00277 12.286V14.2861H0V12.286H2.00277ZM0 10.8574H2.00277V8.85728H0V10.8574ZM2.00277 5.42857V7.42871H0V5.42857H2.00277ZM13.8611 17.214C13.4639 17.3545 13.0606 17.0399 13.1622 16.6688L13.4754 15.5246C13.5701 15.1786 14.0396 15.0411 14.3363 15.2725L15.2475 15.9833C15.5442 16.2147 15.4558 16.6495 15.0855 16.7806L13.8611 17.214ZM4.0963 4.36328C3.64381 4.36328 3.27699 4.72959 3.27699 5.18146C3.27699 5.63333 3.64381 5.99964 4.0963 5.99964H15.0205C15.473 5.99964 15.8398 5.63333 15.8398 5.18146C15.8398 4.72959 15.473 4.36328 15.0205 4.36328H4.0963ZM4.0963 7.63672C3.64381 7.63672 3.27699 8.00303 3.27699 8.4549C3.27699 8.90677 3.64381 9.27308 4.0963 9.27308H13.9281C14.3806 9.27308 14.7474 8.90677 14.7474 8.4549C14.7474 8.00303 14.3806 7.63672 13.9281 7.63672H4.0963ZM3.27699 11.7264C3.27699 11.2745 3.64381 10.9082 4.0963 10.9082H12.8356C13.2881 10.9082 13.655 11.2745 13.655 11.7264C13.655 12.1783 13.2881 12.5446 12.8356 12.5446H4.0963C3.64381 12.5446 3.27699 12.1783 3.27699 11.7264ZM4.09562 14.25C3.6435 14.25 3.27699 14.616 3.27699 15.0675C3.27699 15.519 3.6435 15.885 4.09562 15.885H10.1039C10.556 15.885 10.9225 15.519 10.9225 15.0675C10.9225 14.616 10.556 14.25 10.1039 14.25H4.09562ZM3.27699 18.2733C3.27699 17.8214 3.64381 17.4551 4.0963 17.4551H10.1046C10.5571 17.4551 10.9239 17.8214 10.9239 18.2733C10.9239 18.7251 10.5571 19.0914 10.1046 19.0914H4.0963C3.64381 19.0914 3.27699 18.7251 3.27699 18.2733Z" fill="#484848"/>
</svg>
