<svg width="20" height="24" viewBox="0 0 20 24" fill="none" xmlns="http://www.w3.org/2000/svg">
<path fill-rule="evenodd" clip-rule="evenodd" d="M14.2462 5.99971C14.2462 3.6584 12.3416 1.75379 10.0003 1.75379C7.65899 1.75379 5.75379 3.6584 5.75379 5.99971C5.75379 8.34101 7.65899 10.2462 10.0003 10.2462C12.3416 10.2462 14.2462 8.34101 14.2462 5.99971ZM4 5.99971C4 2.68622 6.68622 0 10.0003 0C13.3138 0 16 2.68622 16 5.99971C16 9.31378 13.3138 12 10.0003 12C6.68622 12 4 9.31378 4 5.99971ZM18.2257 23.1037C18.2257 23.5985 18.6232 24 19.1129 24C19.6026 24 20 23.5985 20 23.1037C20 22.8491 19.9905 22.5964 19.9722 22.3532C19.822 20.3216 19.0667 18.3993 17.7893 16.7955C15.8689 14.3833 13.0301 13 10.0003 13C7.34542 13 4.83899 14.0558 2.94172 15.9721C1.04445 17.8884 0 20.4214 0 23.1037C0 23.5985 0.397433 24 0.887128 24C1.37682 24 1.77426 23.5985 1.77426 23.1037C1.77426 18.5212 5.46471 14.7926 10.0003 14.7926C12.4896 14.7926 14.8245 15.9327 16.4065 17.9195C17.4581 19.2394 18.0791 20.8187 18.2027 22.4888C18.2181 22.6878 18.2257 22.8952 18.2257 23.1037Z" fill="#484848"/>
</svg>
