<svg width="29" height="28" viewBox="0 0 29 28" fill="none" xmlns="http://www.w3.org/2000/svg">
<g clip-path="url(#clip0)">
<path d="M14.4307 0C6.65289 0 0.430664 6.22222 0.430664 14C0.430664 21.7778 6.65289 28 14.4307 28C15.6751 28 16.764 26.9111 16.764 25.6667C16.764 25.0444 16.6084 24.5778 16.1418 24.1111C15.8307 23.6444 15.5196 23.1778 15.5196 22.5556C15.5196 21.3111 16.6085 20.2222 17.8529 20.2222H20.6529C25.0084 20.2222 28.4307 16.8 28.4307 12.4444C28.4307 5.6 22.2084 0 14.4307 0ZM5.87511 14C4.63066 14 3.54178 12.9111 3.54178 11.6667C3.54178 10.4222 4.63066 9.33333 5.87511 9.33333C7.11955 9.33333 8.20844 10.4222 8.20844 11.6667C8.20844 12.9111 7.11955 14 5.87511 14ZM10.5418 7.77778C9.29733 7.77778 8.20844 6.68889 8.20844 5.44444C8.20844 4.2 9.29733 3.11111 10.5418 3.11111C11.7862 3.11111 12.8751 4.2 12.8751 5.44444C12.8751 6.68889 11.7862 7.77778 10.5418 7.77778ZM18.3196 7.77778C17.0751 7.77778 15.9862 6.68889 15.9862 5.44444C15.9862 4.2 17.0751 3.11111 18.3196 3.11111C19.564 3.11111 20.6529 4.2 20.6529 5.44444C20.6529 6.68889 19.564 7.77778 18.3196 7.77778ZM22.9862 14C21.7418 14 20.6529 12.9111 20.6529 11.6667C20.6529 10.4222 21.7418 9.33333 22.9862 9.33333C24.2307 9.33333 25.3196 10.4222 25.3196 11.6667C25.3196 12.9111 24.2307 14 22.9862 14Z" fill="#484848"/>
</g>
<defs>
<clipPath id="clip0">
<rect width="28" height="28" fill="white" transform="translate(0.430664)"/>
</clipPath>
</defs>
</svg>
