<svg width="22" height="28" viewBox="0 0 22 28" fill="none" xmlns="http://www.w3.org/2000/svg">
<path fill-rule="evenodd" clip-rule="evenodd" d="M18.8597 0C20.5165 0 21.8597 1.34315 21.8597 3V20.8245C21.8597 22.4814 20.5165 23.8246 18.8597 23.8246H15.9649V25.0002C15.9649 26.6571 14.6218 28.0002 12.9649 28.0002H3C1.34315 28.0002 0 26.6571 0 25.0002V7.1757C0 5.51885 1.34315 4.1757 3 4.1757H5.89476V3C5.89476 1.34315 7.23791 0 8.89476 0H18.8597ZM5.89476 6.8769H5.70165C4.04479 6.8769 2.70165 8.22005 2.70165 9.8769V22.2979C2.70165 23.9548 4.04479 25.2979 5.70165 25.2979H10.263C11.3625 25.2979 12.3237 24.7066 12.8461 23.8246H8.89476C7.23791 23.8246 5.89476 22.4814 5.89476 20.8246V6.8769ZM13.263 21.1231H11.5964C9.93954 21.1231 8.5964 19.7799 8.5964 18.1231V6.8769H10.263C11.9199 6.8769 13.263 8.22005 13.263 9.8769V21.1231ZM15.9649 21.1231V7.1757C15.9649 5.51884 14.6218 4.1757 12.9649 4.1757H9.01314C9.5355 3.29352 10.4969 2.70201 11.5964 2.70201H16.1578C17.8147 2.70201 19.1578 4.04515 19.1578 5.70201V18.1231C19.1578 19.7799 17.8147 21.1231 16.1578 21.1231H15.9649Z" fill="#727272"/>
</svg>
