<svg width="30" height="28" viewBox="0 0 30 28" fill="none" xmlns="http://www.w3.org/2000/svg">
<path fill-rule="evenodd" clip-rule="evenodd" d="M29.4307 4.86771C29.4307 7.55608 27.2514 9.73543 24.563 9.73543C23.3321 9.73543 22.208 9.27857 21.3508 8.52519L10.5949 14.6147C10.5917 14.8787 10.5675 15.1376 10.5239 15.3898L20.764 20.0888C21.6561 18.9767 23.0264 18.2647 24.563 18.2647C27.2514 18.2647 29.4307 20.4441 29.4307 23.1324C29.4307 25.8208 27.2514 28.0002 24.563 28.0002C21.8746 28.0002 19.6953 25.8208 19.6953 23.1324C19.6953 23.0168 19.6993 22.902 19.7073 22.7884L9.19927 17.9665C8.31614 18.865 7.08693 19.4222 5.72758 19.4222C3.03921 19.4222 0.859863 17.2428 0.859863 14.5545C0.859863 11.8661 3.03921 9.68674 5.72758 9.68674C7.38474 9.68674 8.84848 10.5148 9.72759 11.7798L19.8409 6.05406C19.7458 5.67433 19.6953 5.27692 19.6953 4.86771C19.6953 2.17935 21.8746 0 24.563 0C27.2514 0 29.4307 2.17935 29.4307 4.86771Z" fill="#656565"/>
</svg>
