<svg width="19" height="24" viewBox="0 0 19 24" fill="none" xmlns="http://www.w3.org/2000/svg">
<path fill-rule="evenodd" clip-rule="evenodd" d="M6.90086 0.140671C7.10279 0.0570288 7.31778 0.00994514 7.5358 0.0014134V0.000244617H7.578L7.60806 0V0.000244617H10.5839H10.6078V0.00039969C10.8423 0.00343814 11.0742 0.0510995 11.2911 0.140915C11.5153 0.233786 11.719 0.369909 11.8906 0.541511C12.0622 0.713114 12.1983 0.916836 12.2912 1.14105C12.3811 1.35822 12.4288 1.5905 12.4317 1.82542H16.8956H16.8957C17.0596 1.82543 17.2218 1.85771 17.3732 1.92042C17.5246 1.98313 17.6622 2.07506 17.7781 2.19095C17.894 2.30684 17.9859 2.44442 18.0486 2.59583C18.1113 2.74703 18.1435 2.90907 18.1436 3.07272H18.144V3.69672H0V3.07275V3.07272C4.16351e-06 2.90884 0.0322845 2.74656 0.0949984 2.59516C0.157716 2.44375 0.249643 2.30617 0.365531 2.19028C0.481418 2.07439 0.618997 1.98247 0.770411 1.91975C0.892096 1.86934 1.0208 1.8386 1.15172 1.82847V1.82542H1.20713C1.22074 1.82497 1.23436 1.82475 1.248 1.82475V1.82542H5.7602C5.76307 1.59042 5.81074 1.35805 5.90073 1.1408C5.9936 0.916592 6.12973 0.71287 6.30133 0.541267C6.47293 0.369664 6.67665 0.233541 6.90086 0.140671ZM1.24765 4.51186H16.3677V4.51205H17.0879L15.8403 21.1201L15.8402 21.1201V21.1202C15.8402 22.6787 14.6023 23.9481 13.0561 23.9986V23.9999H13.0022L12.9827 24.0001L12.9602 24.0002C12.9462 24.0002 12.9322 24.0001 12.9182 23.9999H5.22575C5.21179 24.0001 5.1978 24.0002 5.18379 24.0002C5.16978 24.0002 5.1558 24.0001 5.14183 23.9999H5.08806V23.9986C3.56985 23.9491 2.34882 22.7244 2.30501 21.2048L1.05613 4.51239H1.24765V4.51186ZM7.9165 22.0319L7.91654 22.0318H10.2274L10.2275 22.0319H7.9165Z" fill="#484848"/>
<rect x="3.98389" y="6.30957" width="1.36427" height="15.9165" rx="0.682136" transform="rotate(-2.9106 3.98389 6.30957)" fill="#FBFBFB"/>
<rect x="12.8081" y="6.33594" width="1.36427" height="15.9165" rx="0.682136" transform="rotate(2.91 12.8081 6.33594)" fill="#FBFBFB"/>
<rect x="8.3999" y="6.28906" width="1.36427" height="15.9165" rx="0.682136" fill="#FBFBFB"/>
</svg>
