<svg width="30" height="24" viewBox="0 0 30 24" fill="none" xmlns="http://www.w3.org/2000/svg">
<path d="M10.0345 1.78033C12.4112 1.78033 14.3446 3.71376 14.3446 6.0905C14.3446 8.46724 12.4112 10.4013 10.0345 10.4013C7.65772 10.4013 5.72369 8.46724 5.72369 6.0905C5.72369 3.71376 7.65772 1.78033 10.0345 1.78033ZM10.0345 0C6.67023 0 3.94336 2.72687 3.94336 6.0905C3.94336 9.45472 6.67023 12.1816 10.0345 12.1816C13.3981 12.1816 16.125 9.45472 16.125 6.0905C16.125 2.72687 13.3981 0 10.0345 0Z" fill="#484848"/>
<path d="M21.5871 7.19243C23.0915 7.19243 24.3157 8.4167 24.3157 9.92108C24.3157 11.4255 23.0915 12.6491 21.5871 12.6491C20.0827 12.6491 18.8585 11.4255 18.8585 9.92108C18.8585 8.4167 20.0827 7.19243 21.5871 7.19243ZM21.5871 5.41211C19.097 5.41211 17.0781 7.4304 17.0781 9.92108C17.0781 12.4112 19.097 14.4295 21.5871 14.4295C24.0772 14.4295 26.0961 12.4112 26.0961 9.92108C26.0961 7.4304 24.0772 5.41211 21.5871 5.41211Z" fill="#484848"/>
<path d="M28.3558 23.4095C27.8644 23.4095 27.4656 23.0107 27.4656 22.5193C27.4656 22.5021 27.4656 22.4843 27.4651 22.4665L27.4645 22.4416C27.4241 19.2429 24.7874 16.6407 21.587 16.6407C20.1722 16.6407 18.8061 17.1499 17.7397 18.075C17.3682 18.3973 16.8062 18.3575 16.484 17.986C16.1618 17.6145 16.2015 17.0525 16.573 16.7303C17.9629 15.5244 19.7438 14.8604 21.587 14.8604C23.6154 14.8604 25.5269 15.6455 26.9695 17.0709C28.408 18.4922 29.2157 20.3877 29.2442 22.4084C29.2454 22.4457 29.2454 22.4825 29.2454 22.5199C29.246 23.0107 28.8472 23.4095 28.3558 23.4095Z" fill="#484848"/>
<path d="M19.1783 23.9999C18.6869 23.9999 18.2881 23.6011 18.2881 23.1097C18.2881 22.9026 18.2804 22.6967 18.265 22.4991C18.1409 20.8404 17.5178 19.2719 16.4627 17.961C14.8752 15.9878 12.5323 14.8555 10.0345 14.8555C5.48341 14.8555 1.78033 18.5586 1.78033 23.1097C1.78033 23.6011 1.38153 23.9999 0.890164 23.9999C0.398793 23.9999 0 23.6011 0 23.1097C0 20.4458 1.04802 17.9307 2.95178 16.027C4.85555 14.1232 7.37055 13.0752 10.0345 13.0752C13.0747 13.0752 15.9232 14.449 17.8502 16.8447C19.132 18.4375 19.8898 20.3461 20.0406 22.3643C20.0589 22.6059 20.0684 22.8569 20.0684 23.1097C20.0684 23.6011 19.6697 23.9999 19.1783 23.9999Z" fill="#484848"/>
</svg>
