<svg width="25" height="24" viewBox="0 0 25 24" fill="none" xmlns="http://www.w3.org/2000/svg">
<path fill-rule="evenodd" clip-rule="evenodd" d="M4 0C1.79086 0 0 1.79086 0 4L0.399537 4H2.17071C2.58254 2.83481 3.69378 2 5 2H15C16.6569 2 18 3.34315 18 5V8.2123L20 6.31175V4C20 1.79086 18.2091 0 16 0H4ZM18 19V17.2222L20 15.3217V20C20 22.2091 18.2091 24 16 24H4C1.79086 24 0 22.2091 0 20V19.1434H0.970966H2.00337C2.07821 20.7337 3.39122 22 5 22H15C16.6569 22 18 20.6569 18 19ZM2 15.7147V17.7148H0.970966H0V15.7147H0.399537H2ZM0 14.2861H0.399537H2V12.286H0.970966H0V14.2861ZM2 8.85728V10.8574H0.970966H0V8.85728H0.970966H2ZM0 7.42871H0.970966H2V5.42857H0.399537H0V7.42871ZM3.81818 4C3.36631 4 3 4.36631 3 4.81818C3 5.27005 3.36631 5.63636 3.81818 5.63636H14.7273C15.1791 5.63636 15.5455 5.27005 15.5455 4.81818C15.5455 4.36631 15.1791 4 14.7273 4H3.81818ZM3.81818 7.27344C3.36631 7.27344 3 7.63975 3 8.09162C3 8.54349 3.36631 8.9098 3.81818 8.9098H13.6364C14.0882 8.9098 14.4545 8.54349 14.4545 8.09162C14.4545 7.63975 14.0882 7.27344 13.6364 7.27344H3.81818ZM3 11.3631C3 10.9112 3.36631 10.5449 3.81818 10.5449H12.5455C12.9973 10.5449 13.3636 10.9112 13.3636 11.3631C13.3636 11.815 12.9973 12.1813 12.5455 12.1813H3.81818C3.36631 12.1813 3 11.815 3 11.3631ZM3.8175 14C3.36601 14 3 14.366 3 14.8175C3 15.269 3.36601 15.635 3.8175 15.635H9.8175C10.269 15.635 10.635 15.269 10.635 14.8175C10.635 14.366 10.269 14 9.8175 14H3.8175ZM3 17.91C3 17.4581 3.36631 17.0918 3.81818 17.0918H9.81818C10.2701 17.0918 10.6364 17.4581 10.6364 17.91C10.6364 18.3618 10.2701 18.7282 9.81818 18.7282H3.81818C3.36631 18.7282 3 18.3618 3 17.91ZM14.5146 14.1953L21.9525 7.73784C22.4315 7.32199 23.1971 7.33428 23.6625 7.7653C24.1279 8.19632 24.1168 8.88284 23.6379 9.29869L16.2 15.7562L14.5146 14.1953ZM14.1519 16.756C13.7449 16.8628 13.3699 16.5156 13.5021 16.1543L13.9097 15.0404C14.033 14.7034 14.5117 14.6057 14.7875 14.8612L15.6347 15.6458C15.9105 15.9012 15.7861 16.3271 15.4066 16.4267L14.1519 16.756Z" fill="#484848"/>
</svg>
