<svg width="28" height="24" viewBox="0 0 28 24" fill="none" xmlns="http://www.w3.org/2000/svg">
<rect x="3.72754" y="1" width="17.6364" height="22" rx="3" fill="#FBFBFB" stroke="#484848" stroke-width="2"/>
<rect x="0.357143" y="4.35714" width="5.57143" height="0.714286" rx="0.357143" stroke="#FBFBFB" stroke-width="0.714286"/>
<rect x="0.357143" y="7.78585" width="6.14286" height="0.714286" rx="0.357143" stroke="#FBFBFB" stroke-width="0.714286"/>
<rect x="0.357143" y="11.2146" width="6.14286" height="0.714286" rx="0.357143" stroke="#FBFBFB" stroke-width="0.714286"/>
<rect x="0.357143" y="14.6433" width="5.57143" height="0.714286" rx="0.357143" stroke="#FBFBFB" stroke-width="0.714286"/>
<rect x="0.357143" y="18.072" width="6.14286" height="0.714286" rx="0.357143" stroke="#FBFBFB" stroke-width="0.714286"/>
<rect x="6" y="4.36328" width="12.5455" height="1.63636" rx="0.818182" fill="#484848"/>
<rect x="6" y="7.63672" width="11.4545" height="1.63636" rx="0.818182" fill="#484848"/>
<path d="M6 11.7264C6 11.2745 6.36631 10.9082 6.81818 10.9082H15.5455C15.9973 10.9082 16.3636 11.2745 16.3636 11.7264C16.3636 12.1783 15.9973 12.5446 15.5455 12.5446H6.81818C6.36631 12.5446 6 12.1783 6 11.7264Z" fill="#484848"/>
<rect x="6" y="14.25" width="7.635" height="1.635" rx="0.8175" fill="#484848"/>
<rect x="6" y="17.4551" width="7.63636" height="1.63636" rx="0.818182" fill="#484848"/>
<path d="M15.9278 14.0162L15.2303 14.7328L16.0183 15.3484L17.8285 16.7625L18.6166 17.3781L19.3141 16.6615L26.1683 9.61982C26.996 8.76952 26.9089 7.48805 25.9738 6.75758C25.0386 6.0271 23.6096 6.12424 22.782 6.97454L15.9278 14.0162Z" fill="#484848" stroke="#FBFBFB" stroke-width="2"/>
<path d="M16.5692 17.2144C16.1726 17.355 15.7698 17.0404 15.8713 16.6693L16.184 15.5251C16.2786 15.179 16.7475 15.0415 17.0437 15.2729L17.9537 15.9838C18.25 16.2152 18.1617 16.65 17.7919 16.7811L16.5692 17.2144Z" fill="#484848"/>
</svg>
