<svg width="13" height="17" viewBox="0 0 13 17" fill="none" xmlns="http://www.w3.org/2000/svg">
<path d="M0.897583 16.5V0.859375H6.3761C8.27389 0.859375 9.71334 1.22461 10.6945 1.95508C11.6756 2.67839 12.1661 3.74186 12.1661 5.14551C12.1661 5.91178 11.9692 6.58854 11.5753 7.17578C11.1814 7.75586 10.6336 8.18197 9.93176 8.4541C10.7338 8.65462 11.3641 9.05924 11.8224 9.66797C12.2879 10.2767 12.5206 11.0215 12.5206 11.9023C12.5206 13.4062 12.0408 14.5449 11.0812 15.3184C10.1215 16.0918 8.7537 16.4857 6.97766 16.5H0.897583ZM4.12024 9.68945V13.9111H6.88098C7.6401 13.9111 8.23092 13.7321 8.65344 13.374C9.08313 13.0088 9.29797 12.5075 9.29797 11.8701C9.29797 10.4378 8.55676 9.71094 7.07434 9.68945H4.12024ZM4.12024 7.41211H6.505C8.13066 7.38346 8.94348 6.73535 8.94348 5.46777C8.94348 4.75879 8.7358 4.25033 8.32043 3.94238C7.91223 3.62728 7.26412 3.46973 6.3761 3.46973H4.12024V7.41211Z" fill="#484848"/>
</svg>
