<svg height="29" xmlns="http://www.w3.org/2000/svg" viewBox="0 0 537.3 289">
  <defs>
    <style>
      .a {
        fill: #f15a24;
      }

      .b {
        fill: #fff;
      }
    </style>
  </defs>
  <g>
    <polygon class="a" points="249.46 257.41 249.4 257.35 249.4 257.41 249.46 257.41"/>
    <polygon points="446.02 257.67 446.25 257.67 446.02 257.32 446.02 257.67"/>
    <polygon points="366.53 31.87 366.53 31.87 366.53 31.87 366.53 31.87"/>
    <polygon class="a" points="288.68 288.74 288.74 288.74 288.71 288.71 288.68 288.68 288.68 288.74"/>
    <polygon class="b" points="181.63 103.85 77.78 0 0 0 142.74 142.74 181.63 103.85"/>
    <polygon class="b" points="181.63 185.63 142.74 146.74 0.48 289 78.27 289 78.52 288.74 181.63 185.63"/>
    <rect class="a" x="366.52" y="0.74" width="0.01" height="0.01"/>
    <polygon class="b" points="288.71 288.71 289 289 289 289 288.68 288.68 288.71 288.71"/>
    <polygon class="b" points="240.09 162.31 224.52 146.74 223.66 147.61 185.63 185.63 288.68 288.68 289 289 290.68 289 290.68 212.9 240.09 162.31"/>
    <polygon class="b" points="288.71 288.71 288.68 288.68 288.68 288.68 288.71 288.71"/>
    <polygon class="b" points="366.53 0.73 367.27 0 365.94 0 313.53 0 289.48 0 288.74 0.74 185.63 103.85 223.86 142.08 224.52 142.74 313.53 53.73 313.53 53.73 366.52 0.74 366.53 0.74 366.53 0.73 366.53 0.73 366.53 0.73"/>
    <polygon points="366.52 0.74 366.53 0.73 366.53 0.73 366.53 0.74 366.52 0.74"/>
    <polygon points="366.53 0.74 366.53 0.73 366.53 0.73 366.53 0.74"/>
    <polygon class="b" points="144.74 144.74 183.63 183.63 221.66 145.61 222.52 144.74 221.86 144.08 183.63 105.85 144.74 144.74"/>
    <polygon points="485.3 289 485.54 289 485.3 288.66 485.3 289"/>
    <polygon class="b" points="366.53 31.87 366.53 31.87 330.63 67.77 311.53 86.87 311.53 196.74 311.53 196.74 311.53 233.75 311.53 288.74 311.63 288.74 366.52 288.74 366.53 288.74 366.53 119.04 482.3 284.38 482.3 197.2 366.53 31.87"/>
    <polygon class="b" points="487.3 0 487.3 188.43 487.3 201.49 487.3 288.66 487.54 289 496.88 289 537.3 289 537.3 0 487.3 0"/>
  </g>
</svg>
